<svg version="1.1" xmlns="http://www.w3.org/2000/svg" xmlns:xlink="http://www.w3.org/1999/xlink" stroke-linecap="round" stroke-linejoin="round" stroke-width="0" fill-rule="evenodd" width="3.324725in" height="1.4226534999999998in" viewBox="109.6375 104 3324.725 1422.6535" id="mXS5J43L9PB5J46RtF2p"><defs><circle cx="0" cy="0" r="24.685" id="mXS5J43L9PB5J46RtF2p_pad-10"/><circle cx="0" cy="0" r="67.992" id="mXS5J43L9PB5J46RtF2p_pad-11"/><circle cx="0" cy="0" r="48" id="mXS5J43L9PB5J46RtF2p_pad-12"/><circle cx="0" cy="0" r="40" id="mXS5J43L9PB5J46RtF2p_pad-13"/><circle cx="0" cy="0" r="54.2125" id="mXS5J43L9PB5J46RtF2p_pad-14"/><circle cx="0" cy="0" r="46.6535" id="mXS5J43L9PB5J46RtF2p_pad-15"/><circle cx="0" cy="0" r="74.2125" id="mXS5J43L9PB5J46RtF2p_pad-16"/><circle cx="0" cy="0" r="38" id="mXS5J43L9PB5J46RtF2p_pad-17"/><circle cx="0" cy="0" r="44" id="mXS5J43L9PB5J46RtF2p_pad-18"/><circle cx="0" cy="0" r="42.5" id="mXS5J43L9PB5J46RtF2p_pad-19"/><circle cx="0" cy="0" r="73.8975" id="mXS5J43L9PB5J46RtF2p_pad-20"/><circle cx="0" cy="0" r="107.3625" id="mXS5J43L9PB5J46RtF2p_pad-21"/><rect x="-40" y="-40" width="80" height="80" id="mXS5J43L9PB5J46RtF2p_pad-22"/><rect x="-46.6535" y="-46.6535" width="93.307" height="93.307" id="mXS5J43L9PB5J46RtF2p_pad-23"/><rect x="-44" y="-44" width="88" height="88" id="mXS5J43L9PB5J46RtF2p_pad-24"/><rect x="-42.5" y="-42.5" width="85" height="85" id="mXS5J43L9PB5J46RtF2p_pad-25"/></defs><g transform="translate(0,1630.6535) scale(1,-1)" fill="currentColor" stroke="currentColor"><use xlink:href="#mXS5J43L9PB5J46RtF2p_pad-10" x="1404" y="315"/><use xlink:href="#mXS5J43L9PB5J46RtF2p_pad-10" x="2052" y="1203"/><use xlink:href="#mXS5J43L9PB5J46RtF2p_pad-10" x="2316" y="651"/><use xlink:href="#mXS5J43L9PB5J46RtF2p_pad-10" x="2292" y="1347"/><use xlink:href="#mXS5J43L9PB5J46RtF2p_pad-10" x="1404" y="483"/><use xlink:href="#mXS5J43L9PB5J46RtF2p_pad-10" x="2028" y="1443"/><use xlink:href="#mXS5J43L9PB5J46RtF2p_pad-10" x="1980" y="963"/><use xlink:href="#mXS5J43L9PB5J46RtF2p_pad-10" x="1980" y="1299"/><use xlink:href="#mXS5J43L9PB5J46RtF2p_pad-11" x="2149" y="1445"/><use xlink:href="#mXS5J43L9PB5J46RtF2p_pad-12" x="2118" y="978"/><use xlink:href="#mXS5J43L9PB5J46RtF2p_pad-12" x="2118" y="1116"/><use xlink:href="#mXS5J43L9PB5J46RtF2p_pad-13" x="1484" y="810"/><use xlink:href="#mXS5J43L9PB5J46RtF2p_pad-11" x="1474" y="645"/><use xlink:href="#mXS5J43L9PB5J46RtF2p_pad-13" x="1484" y="910"/><use xlink:href="#mXS5J43L9PB5J46RtF2p_pad-13" x="1484" y="1010"/><use xlink:href="#mXS5J43L9PB5J46RtF2p_pad-13" x="1484" y="1110"/><use xlink:href="#mXS5J43L9PB5J46RtF2p_pad-13" x="1484" y="1210"/><use xlink:href="#mXS5J43L9PB5J46RtF2p_pad-13" x="1484" y="1310"/><use xlink:href="#mXS5J43L9PB5J46RtF2p_pad-11" x="1474" y="1445"/><use xlink:href="#mXS5J43L9PB5J46RtF2p_pad-11" x="2149" y="645"/><use xlink:href="#mXS5J43L9PB5J46RtF2p_pad-11" x="2149" y="1445"/><use xlink:href="#mXS5J43L9PB5J46RtF2p_pad-12" x="2118" y="978"/><use xlink:href="#mXS5J43L9PB5J46RtF2p_pad-12" x="2118" y="1116"/><use xlink:href="#mXS5J43L9PB5J46RtF2p_pad-13" x="1484" y="810"/><use xlink:href="#mXS5J43L9PB5J46RtF2p_pad-11" x="1474" y="645"/><use xlink:href="#mXS5J43L9PB5J46RtF2p_pad-13" x="1484" y="910"/><use xlink:href="#mXS5J43L9PB5J46RtF2p_pad-13" x="1484" y="1010"/><use xlink:href="#mXS5J43L9PB5J46RtF2p_pad-13" x="1484" y="1110"/><use xlink:href="#mXS5J43L9PB5J46RtF2p_pad-13" x="1484" y="1210"/><use xlink:href="#mXS5J43L9PB5J46RtF2p_pad-13" x="1484" y="1310"/><use xlink:href="#mXS5J43L9PB5J46RtF2p_pad-11" x="1474" y="1445"/><use xlink:href="#mXS5J43L9PB5J46RtF2p_pad-11" x="2149" y="645"/><use xlink:href="#mXS5J43L9PB5J46RtF2p_pad-14" x="809" y="616"/><use xlink:href="#mXS5J43L9PB5J46RtF2p_pad-14" x="1258" y="618"/><use xlink:href="#mXS5J43L9PB5J46RtF2p_pad-14" x="1473" y="644"/><use xlink:href="#mXS5J43L9PB5J46RtF2p_pad-14" x="2150" y="645"/><use xlink:href="#mXS5J43L9PB5J46RtF2p_pad-14" x="1473" y="1445"/><use xlink:href="#mXS5J43L9PB5J46RtF2p_pad-14" x="2149" y="1445"/><use xlink:href="#mXS5J43L9PB5J46RtF2p_pad-15" x="2373" y="1480"/><use xlink:href="#mXS5J43L9PB5J46RtF2p_pad-15" x="2473" y="1480"/><use xlink:href="#mXS5J43L9PB5J46RtF2p_pad-15" x="2573" y="1480"/><use xlink:href="#mXS5J43L9PB5J46RtF2p_pad-15" x="2673" y="1480"/><use xlink:href="#mXS5J43L9PB5J46RtF2p_pad-15" x="2773" y="1480"/><use xlink:href="#mXS5J43L9PB5J46RtF2p_pad-15" x="2873" y="1480"/><use xlink:href="#mXS5J43L9PB5J46RtF2p_pad-15" x="2973" y="1480"/><use xlink:href="#mXS5J43L9PB5J46RtF2p_pad-15" x="3073" y="1480"/><use xlink:href="#mXS5J43L9PB5J46RtF2p_pad-15" x="3173" y="1480"/><use xlink:href="#mXS5J43L9PB5J46RtF2p_pad-15" x="3273" y="1480"/><use xlink:href="#mXS5J43L9PB5J46RtF2p_pad-15" x="3373" y="1480"/><use xlink:href="#mXS5J43L9PB5J46RtF2p_pad-15" x="2373" y="1480"/><use xlink:href="#mXS5J43L9PB5J46RtF2p_pad-15" x="2473" y="1480"/><use xlink:href="#mXS5J43L9PB5J46RtF2p_pad-15" x="2573" y="1480"/><use xlink:href="#mXS5J43L9PB5J46RtF2p_pad-15" x="2673" y="1480"/><use xlink:href="#mXS5J43L9PB5J46RtF2p_pad-15" x="2773" y="1480"/><use xlink:href="#mXS5J43L9PB5J46RtF2p_pad-15" x="2873" y="1480"/><use xlink:href="#mXS5J43L9PB5J46RtF2p_pad-15" x="2973" y="1480"/><use xlink:href="#mXS5J43L9PB5J46RtF2p_pad-15" x="3073" y="1480"/><use xlink:href="#mXS5J43L9PB5J46RtF2p_pad-15" x="3173" y="1480"/><use xlink:href="#mXS5J43L9PB5J46RtF2p_pad-15" x="3273" y="1480"/><use xlink:href="#mXS5J43L9PB5J46RtF2p_pad-15" x="3373" y="1480"/><use xlink:href="#mXS5J43L9PB5J46RtF2p_pad-15" x="2135" y="162"/><use xlink:href="#mXS5J43L9PB5J46RtF2p_pad-15" x="2235" y="162"/><use xlink:href="#mXS5J43L9PB5J46RtF2p_pad-15" x="2135" y="162"/><use xlink:href="#mXS5J43L9PB5J46RtF2p_pad-15" x="2235" y="162"/><use xlink:href="#mXS5J43L9PB5J46RtF2p_pad-15" x="2385" y="163"/><use xlink:href="#mXS5J43L9PB5J46RtF2p_pad-15" x="2485" y="163"/><use xlink:href="#mXS5J43L9PB5J46RtF2p_pad-15" x="2585" y="163"/><use xlink:href="#mXS5J43L9PB5J46RtF2p_pad-15" x="2385" y="163"/><use xlink:href="#mXS5J43L9PB5J46RtF2p_pad-15" x="2485" y="163"/><use xlink:href="#mXS5J43L9PB5J46RtF2p_pad-15" x="2585" y="163"/><use xlink:href="#mXS5J43L9PB5J46RtF2p_pad-15" x="2737" y="161"/><use xlink:href="#mXS5J43L9PB5J46RtF2p_pad-15" x="2837" y="161"/><use xlink:href="#mXS5J43L9PB5J46RtF2p_pad-15" x="2737" y="161"/><use xlink:href="#mXS5J43L9PB5J46RtF2p_pad-15" x="2837" y="161"/><use xlink:href="#mXS5J43L9PB5J46RtF2p_pad-15" x="1528" y="160"/><use xlink:href="#mXS5J43L9PB5J46RtF2p_pad-15" x="1628" y="160"/><use xlink:href="#mXS5J43L9PB5J46RtF2p_pad-15" x="1528" y="160"/><use xlink:href="#mXS5J43L9PB5J46RtF2p_pad-15" x="1628" y="160"/><use xlink:href="#mXS5J43L9PB5J46RtF2p_pad-15" x="2982" y="163"/><use xlink:href="#mXS5J43L9PB5J46RtF2p_pad-15" x="3082" y="163"/><use xlink:href="#mXS5J43L9PB5J46RtF2p_pad-15" x="2982" y="163"/><use xlink:href="#mXS5J43L9PB5J46RtF2p_pad-15" x="3082" y="163"/><use xlink:href="#mXS5J43L9PB5J46RtF2p_pad-15" x="1778" y="161"/><use xlink:href="#mXS5J43L9PB5J46RtF2p_pad-15" x="1878" y="161"/><use xlink:href="#mXS5J43L9PB5J46RtF2p_pad-15" x="1778" y="161"/><use xlink:href="#mXS5J43L9PB5J46RtF2p_pad-15" x="1878" y="161"/><use xlink:href="#mXS5J43L9PB5J46RtF2p_pad-16" x="808" y="618"/><use xlink:href="#mXS5J43L9PB5J46RtF2p_pad-17" x="833" y="168"/><use xlink:href="#mXS5J43L9PB5J46RtF2p_pad-17" x="933" y="168"/><use xlink:href="#mXS5J43L9PB5J46RtF2p_pad-17" x="1033" y="168"/><use xlink:href="#mXS5J43L9PB5J46RtF2p_pad-17" x="1133" y="168"/><use xlink:href="#mXS5J43L9PB5J46RtF2p_pad-16" x="1258" y="618"/><use xlink:href="#mXS5J43L9PB5J46RtF2p_pad-17" x="1233" y="168"/><use xlink:href="#mXS5J43L9PB5J46RtF2p_pad-18" x="338" y="148"/><use xlink:href="#mXS5J43L9PB5J46RtF2p_pad-18" x="438" y="148"/><use xlink:href="#mXS5J43L9PB5J46RtF2p_pad-18" x="538" y="148"/><use xlink:href="#mXS5J43L9PB5J46RtF2p_pad-18" x="1125" y="1458"/><use xlink:href="#mXS5J43L9PB5J46RtF2p_pad-18" x="1025" y="1458"/><use xlink:href="#mXS5J43L9PB5J46RtF2p_pad-18" x="925" y="1458"/><use xlink:href="#mXS5J43L9PB5J46RtF2p_pad-19" x="3358" y="397"/><use xlink:href="#mXS5J43L9PB5J46RtF2p_pad-19" x="3258" y="397"/><use xlink:href="#mXS5J43L9PB5J46RtF2p_pad-19" x="3358" y="397"/><use xlink:href="#mXS5J43L9PB5J46RtF2p_pad-19" x="3258" y="397"/><use xlink:href="#mXS5J43L9PB5J46RtF2p_pad-20" x="1254" y="978"/><use xlink:href="#mXS5J43L9PB5J46RtF2p_pad-20" x="580" y="1101"/><use xlink:href="#mXS5J43L9PB5J46RtF2p_pad-21" x="217" y="775"/><use xlink:href="#mXS5J43L9PB5J46RtF2p_pad-21" x="3327" y="775"/><use xlink:href="#mXS5J43L9PB5J46RtF2p_pad-20" x="811" y="977"/><use xlink:href="#mXS5J43L9PB5J46RtF2p_pad-20" x="3034" y="733"/><use xlink:href="#mXS5J43L9PB5J46RtF2p_pad-20" x="314" y="1099"/><use xlink:href="#mXS5J43L9PB5J46RtF2p_pad-20" x="2739" y="730"/><use xlink:href="#mXS5J43L9PB5J46RtF2p_pad-22" x="1484" y="810"/><use xlink:href="#mXS5J43L9PB5J46RtF2p_pad-22" x="1484" y="810"/><use xlink:href="#mXS5J43L9PB5J46RtF2p_pad-23" x="2135" y="162"/><use xlink:href="#mXS5J43L9PB5J46RtF2p_pad-23" x="2135" y="162"/><use xlink:href="#mXS5J43L9PB5J46RtF2p_pad-23" x="2385" y="163"/><use xlink:href="#mXS5J43L9PB5J46RtF2p_pad-23" x="2385" y="163"/><use xlink:href="#mXS5J43L9PB5J46RtF2p_pad-23" x="2737" y="161"/><use xlink:href="#mXS5J43L9PB5J46RtF2p_pad-23" x="2737" y="161"/><use xlink:href="#mXS5J43L9PB5J46RtF2p_pad-23" x="1528" y="160"/><use xlink:href="#mXS5J43L9PB5J46RtF2p_pad-23" x="1528" y="160"/><use xlink:href="#mXS5J43L9PB5J46RtF2p_pad-23" x="2982" y="163"/><use xlink:href="#mXS5J43L9PB5J46RtF2p_pad-23" x="2982" y="163"/><use xlink:href="#mXS5J43L9PB5J46RtF2p_pad-23" x="1778" y="161"/><use xlink:href="#mXS5J43L9PB5J46RtF2p_pad-23" x="1778" y="161"/><use xlink:href="#mXS5J43L9PB5J46RtF2p_pad-24" x="925" y="1458"/><use xlink:href="#mXS5J43L9PB5J46RtF2p_pad-25" x="3358" y="397"/><use xlink:href="#mXS5J43L9PB5J46RtF2p_pad-25" x="3358" y="397"/></g></svg>