<svg version="1.1" xmlns="http://www.w3.org/2000/svg" xmlns:xlink="http://www.w3.org/1999/xlink" stroke-linecap="round" stroke-linejoin="round" stroke-width="0" fill-rule="evenodd" width="3.2404455in" height="1.383907in" viewBox="153.908 117.4465 3240.4455 1383.907" id="AdSI5Ridw3UYBR0WKHGE"><defs><circle cx="0" cy="0" r="49.2125" id="AdSI5Ridw3UYBR0WKHGE_pad-1"/><circle cx="0" cy="0" r="49.2125" id="AdSI5Ridw3UYBR0WKHGE_pad-100"/><circle cx="0" cy="0" r="7.874" id="AdSI5Ridw3UYBR0WKHGE_pad-101"/><circle cx="0" cy="0" r="21.6535" id="AdSI5Ridw3UYBR0WKHGE_pad-102"/><circle cx="0" cy="0" r="19" id="AdSI5Ridw3UYBR0WKHGE_pad-103"/><circle cx="0" cy="0" r="17.5" id="AdSI5Ridw3UYBR0WKHGE_pad-104"/><circle cx="0" cy="0" r="19.685" id="AdSI5Ridw3UYBR0WKHGE_pad-105"/><circle cx="0" cy="0" r="62.992" id="AdSI5Ridw3UYBR0WKHGE_pad-106"/></defs><g transform="translate(0,1618.8) scale(1,-1)" fill="currentColor" stroke="currentColor"><use xlink:href="#AdSI5Ridw3UYBR0WKHGE_pad-1" x="2149.8" y="644.6"/><use xlink:href="#AdSI5Ridw3UYBR0WKHGE_pad-1" x="1257.5" y="617.5"/><use xlink:href="#AdSI5Ridw3UYBR0WKHGE_pad-1" x="1472.8" y="644.1"/><use xlink:href="#AdSI5Ridw3UYBR0WKHGE_pad-1" x="808.8" y="616.3"/><use xlink:href="#AdSI5Ridw3UYBR0WKHGE_pad-1" x="1473.4" y="1445.3"/><use xlink:href="#AdSI5Ridw3UYBR0WKHGE_pad-1" x="2149.2" y="1445.4"/><use xlink:href="#AdSI5Ridw3UYBR0WKHGE_pad-100" x="1258.4" y="617.7"/><use xlink:href="#AdSI5Ridw3UYBR0WKHGE_pad-100" x="808.4" y="617.7"/><use xlink:href="#AdSI5Ridw3UYBR0WKHGE_pad-100" x="1473.6" y="644.9"/><use xlink:href="#AdSI5Ridw3UYBR0WKHGE_pad-100" x="1473.6" y="1444.9"/><use xlink:href="#AdSI5Ridw3UYBR0WKHGE_pad-100" x="1254.4" y="978.1"/><use xlink:href="#AdSI5Ridw3UYBR0WKHGE_pad-100" x="291.6" y="1099.2"/><use xlink:href="#AdSI5Ridw3UYBR0WKHGE_pad-100" x="2149.2" y="644.9"/><use xlink:href="#AdSI5Ridw3UYBR0WKHGE_pad-100" x="591.1" y="1100.7"/><use xlink:href="#AdSI5Ridw3UYBR0WKHGE_pad-100" x="2149.2" y="1444.9"/><use xlink:href="#AdSI5Ridw3UYBR0WKHGE_pad-100" x="810.5" y="976.6"/><use xlink:href="#AdSI5Ridw3UYBR0WKHGE_pad-101" x="2340" y="1394.8"/><use xlink:href="#AdSI5Ridw3UYBR0WKHGE_pad-101" x="1740" y="1010.8"/><use xlink:href="#AdSI5Ridw3UYBR0WKHGE_pad-101" x="2196" y="1034.8"/><use xlink:href="#AdSI5Ridw3UYBR0WKHGE_pad-101" x="1548" y="362.7"/><use xlink:href="#AdSI5Ridw3UYBR0WKHGE_pad-101" x="1332" y="434.8"/><use xlink:href="#AdSI5Ridw3UYBR0WKHGE_pad-101" x="1092" y="386.7"/><use xlink:href="#AdSI5Ridw3UYBR0WKHGE_pad-101" x="2004" y="1394.8"/><use xlink:href="#AdSI5Ridw3UYBR0WKHGE_pad-102" x="3172.7" y="1479.7"/><use xlink:href="#AdSI5Ridw3UYBR0WKHGE_pad-102" x="1822.8" y="140"/><use xlink:href="#AdSI5Ridw3UYBR0WKHGE_pad-102" x="2869.1" y="139.1"/><use xlink:href="#AdSI5Ridw3UYBR0WKHGE_pad-102" x="2572.7" y="1479.7"/><use xlink:href="#AdSI5Ridw3UYBR0WKHGE_pad-102" x="3072.7" y="1479.7"/><use xlink:href="#AdSI5Ridw3UYBR0WKHGE_pad-102" x="2772.7" y="1479.7"/><use xlink:href="#AdSI5Ridw3UYBR0WKHGE_pad-102" x="2240.2" y="140.2"/><use xlink:href="#AdSI5Ridw3UYBR0WKHGE_pad-102" x="2654.6" y="140"/><use xlink:href="#AdSI5Ridw3UYBR0WKHGE_pad-102" x="2472.7" y="1479.7"/><use xlink:href="#AdSI5Ridw3UYBR0WKHGE_pad-102" x="1922.8" y="140"/><use xlink:href="#AdSI5Ridw3UYBR0WKHGE_pad-102" x="2140.2" y="140.2"/><use xlink:href="#AdSI5Ridw3UYBR0WKHGE_pad-102" x="2972.7" y="1479.7"/><use xlink:href="#AdSI5Ridw3UYBR0WKHGE_pad-102" x="2554.6" y="140"/><use xlink:href="#AdSI5Ridw3UYBR0WKHGE_pad-102" x="2872.7" y="1479.7"/><use xlink:href="#AdSI5Ridw3UYBR0WKHGE_pad-102" x="2672.7" y="1479.7"/><use xlink:href="#AdSI5Ridw3UYBR0WKHGE_pad-102" x="3272.7" y="1479.7"/><use xlink:href="#AdSI5Ridw3UYBR0WKHGE_pad-102" x="2454.6" y="140"/><use xlink:href="#AdSI5Ridw3UYBR0WKHGE_pad-102" x="3372.7" y="1479.7"/><use xlink:href="#AdSI5Ridw3UYBR0WKHGE_pad-102" x="2372.7" y="1479.7"/><use xlink:href="#AdSI5Ridw3UYBR0WKHGE_pad-102" x="2969.1" y="139.1"/><use xlink:href="#AdSI5Ridw3UYBR0WKHGE_pad-103" x="526.8" y="147.7"/><use xlink:href="#AdSI5Ridw3UYBR0WKHGE_pad-103" x="1035.9" y="1458"/><use xlink:href="#AdSI5Ridw3UYBR0WKHGE_pad-103" x="1136.3" y="1458"/><use xlink:href="#AdSI5Ridw3UYBR0WKHGE_pad-103" x="327.1" y="147.7"/><use xlink:href="#AdSI5Ridw3UYBR0WKHGE_pad-103" x="935.9" y="1458"/><use xlink:href="#AdSI5Ridw3UYBR0WKHGE_pad-103" x="426.8" y="147.7"/><use xlink:href="#AdSI5Ridw3UYBR0WKHGE_pad-104" x="1448.2" y="211.6"/><use xlink:href="#AdSI5Ridw3UYBR0WKHGE_pad-104" x="1548.2" y="211.6"/><use xlink:href="#AdSI5Ridw3UYBR0WKHGE_pad-105" x="1483.6" y="879.9"/><use xlink:href="#AdSI5Ridw3UYBR0WKHGE_pad-105" x="1483.6" y="1279.9"/><use xlink:href="#AdSI5Ridw3UYBR0WKHGE_pad-105" x="1483.6" y="979.9"/><use xlink:href="#AdSI5Ridw3UYBR0WKHGE_pad-105" x="1233.4" y="167.7"/><use xlink:href="#AdSI5Ridw3UYBR0WKHGE_pad-105" x="933.4" y="167.7"/><use xlink:href="#AdSI5Ridw3UYBR0WKHGE_pad-105" x="1033.4" y="167.7"/><use xlink:href="#AdSI5Ridw3UYBR0WKHGE_pad-105" x="1483.6" y="1079.9"/><use xlink:href="#AdSI5Ridw3UYBR0WKHGE_pad-105" x="2117.7" y="1111.9"/><use xlink:href="#AdSI5Ridw3UYBR0WKHGE_pad-105" x="833.4" y="167.7"/><use xlink:href="#AdSI5Ridw3UYBR0WKHGE_pad-105" x="2117.7" y="974.1"/><use xlink:href="#AdSI5Ridw3UYBR0WKHGE_pad-105" x="1483.6" y="779.9"/><use xlink:href="#AdSI5Ridw3UYBR0WKHGE_pad-105" x="1483.6" y="1179.9"/><use xlink:href="#AdSI5Ridw3UYBR0WKHGE_pad-105" x="1133.4" y="167.7"/><use xlink:href="#AdSI5Ridw3UYBR0WKHGE_pad-106" x="216.9" y="774.8"/><use xlink:href="#AdSI5Ridw3UYBR0WKHGE_pad-106" x="3327.2" y="774.8"/></g></svg>