<svg version="1.1" xmlns="http://www.w3.org/2000/svg" xmlns:xlink="http://www.w3.org/1999/xlink" stroke-linecap="round" stroke-linejoin="round" stroke-width="0" fill-rule="evenodd" width="3.324957in" height="1.433972in" viewBox="109.6155 92.4625 3324.957 1433.972" id="vpqHJShy9iXs3Yi_Eiik"><defs><circle cx="0" cy="0" r="67.992" id="vpqHJShy9iXs3Yi_Eiik_pad-10"/><circle cx="0" cy="0" r="48" id="vpqHJShy9iXs3Yi_Eiik_pad-11"/><circle cx="0" cy="0" r="40" id="vpqHJShy9iXs3Yi_Eiik_pad-12"/><circle cx="0" cy="0" r="24.685" id="vpqHJShy9iXs3Yi_Eiik_pad-13"/><circle cx="0" cy="0" r="54.2125" id="vpqHJShy9iXs3Yi_Eiik_pad-14"/><circle cx="0" cy="0" r="46.6535" id="vpqHJShy9iXs3Yi_Eiik_pad-15"/><circle cx="0" cy="0" r="74.2125" id="vpqHJShy9iXs3Yi_Eiik_pad-16"/><circle cx="0" cy="0" r="38" id="vpqHJShy9iXs3Yi_Eiik_pad-17"/><circle cx="0" cy="0" r="44" id="vpqHJShy9iXs3Yi_Eiik_pad-18"/><circle cx="0" cy="0" r="42.5" id="vpqHJShy9iXs3Yi_Eiik_pad-19"/><circle cx="0" cy="0" r="73.8975" id="vpqHJShy9iXs3Yi_Eiik_pad-20"/><circle cx="0" cy="0" r="107.3625" id="vpqHJShy9iXs3Yi_Eiik_pad-21"/><rect x="-40" y="-40" width="80" height="80" id="vpqHJShy9iXs3Yi_Eiik_pad-22"/><rect x="-46.6535" y="-46.6535" width="93.307" height="93.307" id="vpqHJShy9iXs3Yi_Eiik_pad-23"/><rect x="-44" y="-44" width="88" height="88" id="vpqHJShy9iXs3Yi_Eiik_pad-24"/><rect x="-42.5" y="-42.5" width="85" height="85" id="vpqHJShy9iXs3Yi_Eiik_pad-25"/></defs><g transform="translate(0,1618.897) scale(1,-1)" fill="currentColor" stroke="currentColor"><use xlink:href="#vpqHJShy9iXs3Yi_Eiik_pad-10" x="2149.22" y="644.979"/><use xlink:href="#vpqHJShy9iXs3Yi_Eiik_pad-11" x="2117.73" y="1111.908"/><use xlink:href="#vpqHJShy9iXs3Yi_Eiik_pad-11" x="2117.73" y="974.112"/><use xlink:href="#vpqHJShy9iXs3Yi_Eiik_pad-12" x="1483.63" y="1279.979"/><use xlink:href="#vpqHJShy9iXs3Yi_Eiik_pad-10" x="1473.63" y="1444.979"/><use xlink:href="#vpqHJShy9iXs3Yi_Eiik_pad-12" x="1483.63" y="1179.979"/><use xlink:href="#vpqHJShy9iXs3Yi_Eiik_pad-12" x="1483.63" y="1079.979"/><use xlink:href="#vpqHJShy9iXs3Yi_Eiik_pad-12" x="1483.63" y="979.979"/><use xlink:href="#vpqHJShy9iXs3Yi_Eiik_pad-12" x="1483.63" y="879.979"/><use xlink:href="#vpqHJShy9iXs3Yi_Eiik_pad-12" x="1483.63" y="779.979"/><use xlink:href="#vpqHJShy9iXs3Yi_Eiik_pad-10" x="1473.63" y="644.979"/><use xlink:href="#vpqHJShy9iXs3Yi_Eiik_pad-10" x="2149.22" y="1444.979"/><use xlink:href="#vpqHJShy9iXs3Yi_Eiik_pad-13" x="2340.01" y="1394.8"/><use xlink:href="#vpqHJShy9iXs3Yi_Eiik_pad-13" x="2196.01" y="1034.8"/><use xlink:href="#vpqHJShy9iXs3Yi_Eiik_pad-13" x="1740.01" y="1010.8"/><use xlink:href="#vpqHJShy9iXs3Yi_Eiik_pad-13" x="2004.01" y="1394.8"/><use xlink:href="#vpqHJShy9iXs3Yi_Eiik_pad-13" x="1548.01" y="362.79"/><use xlink:href="#vpqHJShy9iXs3Yi_Eiik_pad-13" x="1332.01" y="434.8"/><use xlink:href="#vpqHJShy9iXs3Yi_Eiik_pad-13" x="1092" y="386.79"/><use xlink:href="#vpqHJShy9iXs3Yi_Eiik_pad-14" x="808.873" y="616.381"/><use xlink:href="#vpqHJShy9iXs3Yi_Eiik_pad-14" x="1257.5" y="617.515"/><use xlink:href="#vpqHJShy9iXs3Yi_Eiik_pad-14" x="1472.83" y="644.164"/><use xlink:href="#vpqHJShy9iXs3Yi_Eiik_pad-14" x="2149.85" y="644.694"/><use xlink:href="#vpqHJShy9iXs3Yi_Eiik_pad-14" x="1473.43" y="1445.322"/><use xlink:href="#vpqHJShy9iXs3Yi_Eiik_pad-14" x="2149.24" y="1445.446"/><use xlink:href="#vpqHJShy9iXs3Yi_Eiik_pad-15" x="2372.75" y="1479.781"/><use xlink:href="#vpqHJShy9iXs3Yi_Eiik_pad-15" x="2472.75" y="1479.781"/><use xlink:href="#vpqHJShy9iXs3Yi_Eiik_pad-15" x="2572.75" y="1479.781"/><use xlink:href="#vpqHJShy9iXs3Yi_Eiik_pad-15" x="2672.75" y="1479.781"/><use xlink:href="#vpqHJShy9iXs3Yi_Eiik_pad-15" x="2772.75" y="1479.781"/><use xlink:href="#vpqHJShy9iXs3Yi_Eiik_pad-15" x="2872.75" y="1479.781"/><use xlink:href="#vpqHJShy9iXs3Yi_Eiik_pad-15" x="2972.75" y="1479.781"/><use xlink:href="#vpqHJShy9iXs3Yi_Eiik_pad-15" x="3072.75" y="1479.781"/><use xlink:href="#vpqHJShy9iXs3Yi_Eiik_pad-15" x="3172.75" y="1479.781"/><use xlink:href="#vpqHJShy9iXs3Yi_Eiik_pad-15" x="3272.75" y="1479.781"/><use xlink:href="#vpqHJShy9iXs3Yi_Eiik_pad-15" x="3372.75" y="1479.781"/><use xlink:href="#vpqHJShy9iXs3Yi_Eiik_pad-15" x="2869.14" y="139.12"/><use xlink:href="#vpqHJShy9iXs3Yi_Eiik_pad-15" x="2969.14" y="139.12"/><use xlink:href="#vpqHJShy9iXs3Yi_Eiik_pad-15" x="2454.64" y="140.06"/><use xlink:href="#vpqHJShy9iXs3Yi_Eiik_pad-15" x="2554.64" y="140.06"/><use xlink:href="#vpqHJShy9iXs3Yi_Eiik_pad-15" x="2654.64" y="140.06"/><use xlink:href="#vpqHJShy9iXs3Yi_Eiik_pad-15" x="2140.26" y="140.27"/><use xlink:href="#vpqHJShy9iXs3Yi_Eiik_pad-15" x="2240.26" y="140.27"/><use xlink:href="#vpqHJShy9iXs3Yi_Eiik_pad-15" x="1822.88" y="140.03"/><use xlink:href="#vpqHJShy9iXs3Yi_Eiik_pad-15" x="1922.88" y="140.03"/><use xlink:href="#vpqHJShy9iXs3Yi_Eiik_pad-16" x="808.434" y="617.797"/><use xlink:href="#vpqHJShy9iXs3Yi_Eiik_pad-17" x="833.434" y="167.8"/><use xlink:href="#vpqHJShy9iXs3Yi_Eiik_pad-17" x="933.434" y="167.8"/><use xlink:href="#vpqHJShy9iXs3Yi_Eiik_pad-17" x="1033.43" y="167.8"/><use xlink:href="#vpqHJShy9iXs3Yi_Eiik_pad-17" x="1133.43" y="167.8"/><use xlink:href="#vpqHJShy9iXs3Yi_Eiik_pad-16" x="1258.43" y="617.797"/><use xlink:href="#vpqHJShy9iXs3Yi_Eiik_pad-17" x="1233.43" y="167.8"/><use xlink:href="#vpqHJShy9iXs3Yi_Eiik_pad-18" x="327.158" y="147.72"/><use xlink:href="#vpqHJShy9iXs3Yi_Eiik_pad-18" x="426.843" y="147.72"/><use xlink:href="#vpqHJShy9iXs3Yi_Eiik_pad-18" x="526.843" y="147.72"/><use xlink:href="#vpqHJShy9iXs3Yi_Eiik_pad-18" x="1136.34" y="1458.031"/><use xlink:href="#vpqHJShy9iXs3Yi_Eiik_pad-18" x="1035.93" y="1458.031"/><use xlink:href="#vpqHJShy9iXs3Yi_Eiik_pad-18" x="935.929" y="1458.031"/><use xlink:href="#vpqHJShy9iXs3Yi_Eiik_pad-19" x="1448.2" y="211.63"/><use xlink:href="#vpqHJShy9iXs3Yi_Eiik_pad-19" x="1548.2" y="211.63"/><use xlink:href="#vpqHJShy9iXs3Yi_Eiik_pad-20" x="1254.47" y="978.144"/><use xlink:href="#vpqHJShy9iXs3Yi_Eiik_pad-20" x="591.143" y="1100.704"/><use xlink:href="#vpqHJShy9iXs3Yi_Eiik_pad-21" x="216.978" y="774.863"/><use xlink:href="#vpqHJShy9iXs3Yi_Eiik_pad-21" x="3327.21" y="774.863"/><use xlink:href="#vpqHJShy9iXs3Yi_Eiik_pad-20" x="810.525" y="976.696"/><use xlink:href="#vpqHJShy9iXs3Yi_Eiik_pad-20" x="291.637" y="1099.256"/><use xlink:href="#vpqHJShy9iXs3Yi_Eiik_pad-22" x="1483.633" y="1279.98"/><use xlink:href="#vpqHJShy9iXs3Yi_Eiik_pad-23" x="2869.144" y="139.116"/><use xlink:href="#vpqHJShy9iXs3Yi_Eiik_pad-23" x="2454.644" y="140.056"/><use xlink:href="#vpqHJShy9iXs3Yi_Eiik_pad-23" x="2140.264" y="140.266"/><use xlink:href="#vpqHJShy9iXs3Yi_Eiik_pad-23" x="1822.884" y="140.026"/><use xlink:href="#vpqHJShy9iXs3Yi_Eiik_pad-24" x="935.93" y="1458.474"/><use xlink:href="#vpqHJShy9iXs3Yi_Eiik_pad-25" x="1448.2" y="211.63"/></g></svg>