<svg version="1.1" xmlns="http://www.w3.org/2000/svg" xmlns:xlink="http://www.w3.org/1999/xlink" stroke-linecap="round" stroke-linejoin="round" stroke-width="0" fill-rule="evenodd" width="3.324957in" height="1.4227145in" viewBox="109.6155 103.72 3324.957 1422.7145" id="iUgMYUDpP9yz-55ve6VR"><defs><circle cx="0" cy="0" r="24.685" id="iUgMYUDpP9yz-55ve6VR_pad-10"/><circle cx="0" cy="0" r="67.992" id="iUgMYUDpP9yz-55ve6VR_pad-11"/><circle cx="0" cy="0" r="48" id="iUgMYUDpP9yz-55ve6VR_pad-12"/><circle cx="0" cy="0" r="40" id="iUgMYUDpP9yz-55ve6VR_pad-13"/><circle cx="0" cy="0" r="54.2125" id="iUgMYUDpP9yz-55ve6VR_pad-14"/><circle cx="0" cy="0" r="46.6535" id="iUgMYUDpP9yz-55ve6VR_pad-15"/><circle cx="0" cy="0" r="74.2125" id="iUgMYUDpP9yz-55ve6VR_pad-16"/><circle cx="0" cy="0" r="38" id="iUgMYUDpP9yz-55ve6VR_pad-17"/><circle cx="0" cy="0" r="44" id="iUgMYUDpP9yz-55ve6VR_pad-18"/><circle cx="0" cy="0" r="42.5" id="iUgMYUDpP9yz-55ve6VR_pad-19"/><circle cx="0" cy="0" r="73.8975" id="iUgMYUDpP9yz-55ve6VR_pad-20"/><circle cx="0" cy="0" r="107.3625" id="iUgMYUDpP9yz-55ve6VR_pad-21"/><rect x="-40" y="-40" width="80" height="80" id="iUgMYUDpP9yz-55ve6VR_pad-22"/><rect x="-46.6535" y="-46.6535" width="93.307" height="93.307" id="iUgMYUDpP9yz-55ve6VR_pad-23"/><rect x="-44" y="-44" width="88" height="88" id="iUgMYUDpP9yz-55ve6VR_pad-24"/><rect x="-42.5" y="-42.5" width="85" height="85" id="iUgMYUDpP9yz-55ve6VR_pad-25"/></defs><g transform="translate(0,1630.1545) scale(1,-1)" fill="currentColor" stroke="currentColor"><use xlink:href="#iUgMYUDpP9yz-55ve6VR_pad-10" x="1404.01" y="314.79"/><use xlink:href="#iUgMYUDpP9yz-55ve6VR_pad-10" x="2052.01" y="1202.8"/><use xlink:href="#iUgMYUDpP9yz-55ve6VR_pad-10" x="2316.01" y="650.8"/><use xlink:href="#iUgMYUDpP9yz-55ve6VR_pad-10" x="2292.01" y="1346.8"/><use xlink:href="#iUgMYUDpP9yz-55ve6VR_pad-10" x="1404.01" y="482.8"/><use xlink:href="#iUgMYUDpP9yz-55ve6VR_pad-10" x="2028.01" y="1442.8"/><use xlink:href="#iUgMYUDpP9yz-55ve6VR_pad-10" x="1980.01" y="962.8"/><use xlink:href="#iUgMYUDpP9yz-55ve6VR_pad-10" x="1980.01" y="1298.8"/><use xlink:href="#iUgMYUDpP9yz-55ve6VR_pad-11" x="2149.22" y="1444.979"/><use xlink:href="#iUgMYUDpP9yz-55ve6VR_pad-12" x="2117.73" y="978.05"/><use xlink:href="#iUgMYUDpP9yz-55ve6VR_pad-12" x="2117.73" y="1115.846"/><use xlink:href="#iUgMYUDpP9yz-55ve6VR_pad-13" x="1483.63" y="809.979"/><use xlink:href="#iUgMYUDpP9yz-55ve6VR_pad-11" x="1473.63" y="644.979"/><use xlink:href="#iUgMYUDpP9yz-55ve6VR_pad-13" x="1483.63" y="909.979"/><use xlink:href="#iUgMYUDpP9yz-55ve6VR_pad-13" x="1483.63" y="1009.979"/><use xlink:href="#iUgMYUDpP9yz-55ve6VR_pad-13" x="1483.63" y="1109.979"/><use xlink:href="#iUgMYUDpP9yz-55ve6VR_pad-13" x="1483.63" y="1209.979"/><use xlink:href="#iUgMYUDpP9yz-55ve6VR_pad-13" x="1483.63" y="1309.979"/><use xlink:href="#iUgMYUDpP9yz-55ve6VR_pad-11" x="1473.63" y="1444.979"/><use xlink:href="#iUgMYUDpP9yz-55ve6VR_pad-11" x="2149.22" y="644.979"/><use xlink:href="#iUgMYUDpP9yz-55ve6VR_pad-11" x="2149.22" y="1444.979"/><use xlink:href="#iUgMYUDpP9yz-55ve6VR_pad-12" x="2117.73" y="978.05"/><use xlink:href="#iUgMYUDpP9yz-55ve6VR_pad-12" x="2117.73" y="1115.846"/><use xlink:href="#iUgMYUDpP9yz-55ve6VR_pad-13" x="1483.63" y="809.979"/><use xlink:href="#iUgMYUDpP9yz-55ve6VR_pad-11" x="1473.63" y="644.979"/><use xlink:href="#iUgMYUDpP9yz-55ve6VR_pad-13" x="1483.63" y="909.979"/><use xlink:href="#iUgMYUDpP9yz-55ve6VR_pad-13" x="1483.63" y="1009.979"/><use xlink:href="#iUgMYUDpP9yz-55ve6VR_pad-13" x="1483.63" y="1109.979"/><use xlink:href="#iUgMYUDpP9yz-55ve6VR_pad-13" x="1483.63" y="1209.979"/><use xlink:href="#iUgMYUDpP9yz-55ve6VR_pad-13" x="1483.63" y="1309.979"/><use xlink:href="#iUgMYUDpP9yz-55ve6VR_pad-11" x="1473.63" y="1444.979"/><use xlink:href="#iUgMYUDpP9yz-55ve6VR_pad-11" x="2149.22" y="644.979"/><use xlink:href="#iUgMYUDpP9yz-55ve6VR_pad-14" x="808.873" y="616.381"/><use xlink:href="#iUgMYUDpP9yz-55ve6VR_pad-14" x="1257.5" y="617.515"/><use xlink:href="#iUgMYUDpP9yz-55ve6VR_pad-14" x="1472.83" y="644.164"/><use xlink:href="#iUgMYUDpP9yz-55ve6VR_pad-14" x="2149.85" y="644.694"/><use xlink:href="#iUgMYUDpP9yz-55ve6VR_pad-14" x="1473.43" y="1445.322"/><use xlink:href="#iUgMYUDpP9yz-55ve6VR_pad-14" x="2149.24" y="1445.446"/><use xlink:href="#iUgMYUDpP9yz-55ve6VR_pad-15" x="2372.75" y="1479.781"/><use xlink:href="#iUgMYUDpP9yz-55ve6VR_pad-15" x="2472.75" y="1479.781"/><use xlink:href="#iUgMYUDpP9yz-55ve6VR_pad-15" x="2572.75" y="1479.781"/><use xlink:href="#iUgMYUDpP9yz-55ve6VR_pad-15" x="2672.75" y="1479.781"/><use xlink:href="#iUgMYUDpP9yz-55ve6VR_pad-15" x="2772.75" y="1479.781"/><use xlink:href="#iUgMYUDpP9yz-55ve6VR_pad-15" x="2872.75" y="1479.781"/><use xlink:href="#iUgMYUDpP9yz-55ve6VR_pad-15" x="2972.75" y="1479.781"/><use xlink:href="#iUgMYUDpP9yz-55ve6VR_pad-15" x="3072.75" y="1479.781"/><use xlink:href="#iUgMYUDpP9yz-55ve6VR_pad-15" x="3172.75" y="1479.781"/><use xlink:href="#iUgMYUDpP9yz-55ve6VR_pad-15" x="3272.75" y="1479.781"/><use xlink:href="#iUgMYUDpP9yz-55ve6VR_pad-15" x="3372.75" y="1479.781"/><use xlink:href="#iUgMYUDpP9yz-55ve6VR_pad-15" x="2372.75" y="1479.781"/><use xlink:href="#iUgMYUDpP9yz-55ve6VR_pad-15" x="2472.75" y="1479.781"/><use xlink:href="#iUgMYUDpP9yz-55ve6VR_pad-15" x="2572.75" y="1479.781"/><use xlink:href="#iUgMYUDpP9yz-55ve6VR_pad-15" x="2672.75" y="1479.781"/><use xlink:href="#iUgMYUDpP9yz-55ve6VR_pad-15" x="2772.75" y="1479.781"/><use xlink:href="#iUgMYUDpP9yz-55ve6VR_pad-15" x="2872.75" y="1479.781"/><use xlink:href="#iUgMYUDpP9yz-55ve6VR_pad-15" x="2972.75" y="1479.781"/><use xlink:href="#iUgMYUDpP9yz-55ve6VR_pad-15" x="3072.75" y="1479.781"/><use xlink:href="#iUgMYUDpP9yz-55ve6VR_pad-15" x="3172.75" y="1479.781"/><use xlink:href="#iUgMYUDpP9yz-55ve6VR_pad-15" x="3272.75" y="1479.781"/><use xlink:href="#iUgMYUDpP9yz-55ve6VR_pad-15" x="3372.75" y="1479.781"/><use xlink:href="#iUgMYUDpP9yz-55ve6VR_pad-15" x="2135.44" y="162.4"/><use xlink:href="#iUgMYUDpP9yz-55ve6VR_pad-15" x="2235.44" y="162.4"/><use xlink:href="#iUgMYUDpP9yz-55ve6VR_pad-15" x="2135.44" y="162.4"/><use xlink:href="#iUgMYUDpP9yz-55ve6VR_pad-15" x="2235.44" y="162.4"/><use xlink:href="#iUgMYUDpP9yz-55ve6VR_pad-15" x="2385.1" y="163.35"/><use xlink:href="#iUgMYUDpP9yz-55ve6VR_pad-15" x="2485.1" y="163.35"/><use xlink:href="#iUgMYUDpP9yz-55ve6VR_pad-15" x="2585.1" y="163.35"/><use xlink:href="#iUgMYUDpP9yz-55ve6VR_pad-15" x="2385.1" y="163.35"/><use xlink:href="#iUgMYUDpP9yz-55ve6VR_pad-15" x="2485.1" y="163.35"/><use xlink:href="#iUgMYUDpP9yz-55ve6VR_pad-15" x="2585.1" y="163.35"/><use xlink:href="#iUgMYUDpP9yz-55ve6VR_pad-15" x="2737.16" y="161.27"/><use xlink:href="#iUgMYUDpP9yz-55ve6VR_pad-15" x="2837.16" y="161.27"/><use xlink:href="#iUgMYUDpP9yz-55ve6VR_pad-15" x="2737.16" y="161.27"/><use xlink:href="#iUgMYUDpP9yz-55ve6VR_pad-15" x="2837.16" y="161.27"/><use xlink:href="#iUgMYUDpP9yz-55ve6VR_pad-15" x="1527.9" y="160.4"/><use xlink:href="#iUgMYUDpP9yz-55ve6VR_pad-15" x="1627.9" y="160.4"/><use xlink:href="#iUgMYUDpP9yz-55ve6VR_pad-15" x="1527.9" y="160.4"/><use xlink:href="#iUgMYUDpP9yz-55ve6VR_pad-15" x="1627.9" y="160.4"/><use xlink:href="#iUgMYUDpP9yz-55ve6VR_pad-15" x="2982.15" y="163.32"/><use xlink:href="#iUgMYUDpP9yz-55ve6VR_pad-15" x="3082.15" y="163.32"/><use xlink:href="#iUgMYUDpP9yz-55ve6VR_pad-15" x="2982.15" y="163.32"/><use xlink:href="#iUgMYUDpP9yz-55ve6VR_pad-15" x="3082.15" y="163.32"/><use xlink:href="#iUgMYUDpP9yz-55ve6VR_pad-15" x="1777.8" y="160.57"/><use xlink:href="#iUgMYUDpP9yz-55ve6VR_pad-15" x="1877.8" y="160.57"/><use xlink:href="#iUgMYUDpP9yz-55ve6VR_pad-15" x="1777.8" y="160.57"/><use xlink:href="#iUgMYUDpP9yz-55ve6VR_pad-15" x="1877.8" y="160.57"/><use xlink:href="#iUgMYUDpP9yz-55ve6VR_pad-16" x="808.434" y="617.797"/><use xlink:href="#iUgMYUDpP9yz-55ve6VR_pad-17" x="833.434" y="167.8"/><use xlink:href="#iUgMYUDpP9yz-55ve6VR_pad-17" x="933.434" y="167.8"/><use xlink:href="#iUgMYUDpP9yz-55ve6VR_pad-17" x="1033.43" y="167.8"/><use xlink:href="#iUgMYUDpP9yz-55ve6VR_pad-17" x="1133.43" y="167.8"/><use xlink:href="#iUgMYUDpP9yz-55ve6VR_pad-16" x="1258.43" y="617.797"/><use xlink:href="#iUgMYUDpP9yz-55ve6VR_pad-17" x="1233.43" y="167.8"/><use xlink:href="#iUgMYUDpP9yz-55ve6VR_pad-18" x="338.27" y="147.72"/><use xlink:href="#iUgMYUDpP9yz-55ve6VR_pad-18" x="437.955" y="147.72"/><use xlink:href="#iUgMYUDpP9yz-55ve6VR_pad-18" x="537.955" y="147.72"/><use xlink:href="#iUgMYUDpP9yz-55ve6VR_pad-18" x="1125.23" y="1458.031"/><use xlink:href="#iUgMYUDpP9yz-55ve6VR_pad-18" x="1024.82" y="1458.031"/><use xlink:href="#iUgMYUDpP9yz-55ve6VR_pad-18" x="924.819" y="1458.031"/><use xlink:href="#iUgMYUDpP9yz-55ve6VR_pad-19" x="3251.01" y="394.84"/><use xlink:href="#iUgMYUDpP9yz-55ve6VR_pad-19" x="3351.01" y="394.84"/><use xlink:href="#iUgMYUDpP9yz-55ve6VR_pad-19" x="3251.01" y="394.84"/><use xlink:href="#iUgMYUDpP9yz-55ve6VR_pad-19" x="3351.01" y="394.84"/><use xlink:href="#iUgMYUDpP9yz-55ve6VR_pad-20" x="1254.47" y="978.144"/><use xlink:href="#iUgMYUDpP9yz-55ve6VR_pad-20" x="580.032" y="1100.704"/><use xlink:href="#iUgMYUDpP9yz-55ve6VR_pad-21" x="216.978" y="774.863"/><use xlink:href="#iUgMYUDpP9yz-55ve6VR_pad-21" x="3327.21" y="774.863"/><use xlink:href="#iUgMYUDpP9yz-55ve6VR_pad-20" x="810.525" y="976.696"/><use xlink:href="#iUgMYUDpP9yz-55ve6VR_pad-20" x="3034.42" y="730.453"/><use xlink:href="#iUgMYUDpP9yz-55ve6VR_pad-20" x="313.859" y="1099.256"/><use xlink:href="#iUgMYUDpP9yz-55ve6VR_pad-20" x="2739.43" y="730.459"/><use xlink:href="#iUgMYUDpP9yz-55ve6VR_pad-22" x="1483.633" y="809.978"/><use xlink:href="#iUgMYUDpP9yz-55ve6VR_pad-22" x="1483.633" y="809.978"/><use xlink:href="#iUgMYUDpP9yz-55ve6VR_pad-23" x="2135.444" y="162.396"/><use xlink:href="#iUgMYUDpP9yz-55ve6VR_pad-23" x="2135.444" y="162.396"/><use xlink:href="#iUgMYUDpP9yz-55ve6VR_pad-23" x="2385.104" y="163.346"/><use xlink:href="#iUgMYUDpP9yz-55ve6VR_pad-23" x="2385.104" y="163.346"/><use xlink:href="#iUgMYUDpP9yz-55ve6VR_pad-23" x="2737.164" y="161.266"/><use xlink:href="#iUgMYUDpP9yz-55ve6VR_pad-23" x="2737.164" y="161.266"/><use xlink:href="#iUgMYUDpP9yz-55ve6VR_pad-23" x="1527.904" y="160.396"/><use xlink:href="#iUgMYUDpP9yz-55ve6VR_pad-23" x="1527.904" y="160.396"/><use xlink:href="#iUgMYUDpP9yz-55ve6VR_pad-23" x="2982.154" y="163.316"/><use xlink:href="#iUgMYUDpP9yz-55ve6VR_pad-23" x="2982.154" y="163.316"/><use xlink:href="#iUgMYUDpP9yz-55ve6VR_pad-23" x="1777.804" y="160.566"/><use xlink:href="#iUgMYUDpP9yz-55ve6VR_pad-23" x="1777.804" y="160.566"/><use xlink:href="#iUgMYUDpP9yz-55ve6VR_pad-24" x="924.82" y="1458.474"/><use xlink:href="#iUgMYUDpP9yz-55ve6VR_pad-25" x="3251.01" y="394.84"/><use xlink:href="#iUgMYUDpP9yz-55ve6VR_pad-25" x="3251.01" y="394.84"/></g></svg>