<svg version="1.1" xmlns="http://www.w3.org/2000/svg" xmlns:xlink="http://www.w3.org/1999/xlink" stroke-linecap="round" stroke-linejoin="round" stroke-width="0" fill-rule="evenodd" width="3.2404455in" height="1.3726535in" viewBox="153.908 128.7 3240.4455 1372.6535" id="DZt_qtPKn-QGb6Rbl4_B"><defs><circle cx="0" cy="0" r="49.2125" id="DZt_qtPKn-QGb6Rbl4_B_pad-1"/><circle cx="0" cy="0" r="19.685" id="DZt_qtPKn-QGb6Rbl4_B_pad-100"/><circle cx="0" cy="0" r="7.874" id="DZt_qtPKn-QGb6Rbl4_B_pad-101"/><circle cx="0" cy="0" r="19" id="DZt_qtPKn-QGb6Rbl4_B_pad-102"/><circle cx="0" cy="0" r="21.6535" id="DZt_qtPKn-QGb6Rbl4_B_pad-103"/><circle cx="0" cy="0" r="62.992" id="DZt_qtPKn-QGb6Rbl4_B_pad-104"/><circle cx="0" cy="0" r="49.2125" id="DZt_qtPKn-QGb6Rbl4_B_pad-105"/><circle cx="0" cy="0" r="17.5" id="DZt_qtPKn-QGb6Rbl4_B_pad-106"/></defs><g transform="translate(0,1630.0535) scale(1,-1)" fill="currentColor" stroke="currentColor"><use xlink:href="#DZt_qtPKn-QGb6Rbl4_B_pad-1" x="1257.5" y="617.5"/><use xlink:href="#DZt_qtPKn-QGb6Rbl4_B_pad-1" x="1472.8" y="644.1"/><use xlink:href="#DZt_qtPKn-QGb6Rbl4_B_pad-1" x="2149.8" y="644.6"/><use xlink:href="#DZt_qtPKn-QGb6Rbl4_B_pad-1" x="1473.4" y="1445.3"/><use xlink:href="#DZt_qtPKn-QGb6Rbl4_B_pad-1" x="808.8" y="616.3"/><use xlink:href="#DZt_qtPKn-QGb6Rbl4_B_pad-1" x="2149.2" y="1445.4"/><use xlink:href="#DZt_qtPKn-QGb6Rbl4_B_pad-100" x="1233.4" y="167.7"/><use xlink:href="#DZt_qtPKn-QGb6Rbl4_B_pad-100" x="2117.7" y="1115.8"/><use xlink:href="#DZt_qtPKn-QGb6Rbl4_B_pad-100" x="1483.6" y="1109.9"/><use xlink:href="#DZt_qtPKn-QGb6Rbl4_B_pad-100" x="933.4" y="167.7"/><use xlink:href="#DZt_qtPKn-QGb6Rbl4_B_pad-100" x="1483.6" y="1209.9"/><use xlink:href="#DZt_qtPKn-QGb6Rbl4_B_pad-100" x="2117.7" y="978"/><use xlink:href="#DZt_qtPKn-QGb6Rbl4_B_pad-100" x="1033.4" y="167.7"/><use xlink:href="#DZt_qtPKn-QGb6Rbl4_B_pad-100" x="1483.6" y="1009.9"/><use xlink:href="#DZt_qtPKn-QGb6Rbl4_B_pad-100" x="1483.6" y="809.9"/><use xlink:href="#DZt_qtPKn-QGb6Rbl4_B_pad-100" x="1133.4" y="167.7"/><use xlink:href="#DZt_qtPKn-QGb6Rbl4_B_pad-100" x="1483.6" y="909.9"/><use xlink:href="#DZt_qtPKn-QGb6Rbl4_B_pad-100" x="1483.6" y="1309.9"/><use xlink:href="#DZt_qtPKn-QGb6Rbl4_B_pad-100" x="833.4" y="167.7"/><use xlink:href="#DZt_qtPKn-QGb6Rbl4_B_pad-101" x="2052" y="1202.8"/><use xlink:href="#DZt_qtPKn-QGb6Rbl4_B_pad-101" x="2028" y="1442.8"/><use xlink:href="#DZt_qtPKn-QGb6Rbl4_B_pad-101" x="2292" y="1346.8"/><use xlink:href="#DZt_qtPKn-QGb6Rbl4_B_pad-101" x="1404" y="482.8"/><use xlink:href="#DZt_qtPKn-QGb6Rbl4_B_pad-101" x="2316" y="650.8"/><use xlink:href="#DZt_qtPKn-QGb6Rbl4_B_pad-101" x="1980" y="962.8"/><use xlink:href="#DZt_qtPKn-QGb6Rbl4_B_pad-101" x="1404" y="314.7"/><use xlink:href="#DZt_qtPKn-QGb6Rbl4_B_pad-101" x="1980" y="1298.8"/><use xlink:href="#DZt_qtPKn-QGb6Rbl4_B_pad-102" x="1125.2" y="1458"/><use xlink:href="#DZt_qtPKn-QGb6Rbl4_B_pad-102" x="537.9" y="147.7"/><use xlink:href="#DZt_qtPKn-QGb6Rbl4_B_pad-102" x="437.9" y="147.7"/><use xlink:href="#DZt_qtPKn-QGb6Rbl4_B_pad-102" x="924.8" y="1458"/><use xlink:href="#DZt_qtPKn-QGb6Rbl4_B_pad-102" x="338.2" y="147.7"/><use xlink:href="#DZt_qtPKn-QGb6Rbl4_B_pad-102" x="1024.8" y="1458"/><use xlink:href="#DZt_qtPKn-QGb6Rbl4_B_pad-103" x="2672.7" y="1479.7"/><use xlink:href="#DZt_qtPKn-QGb6Rbl4_B_pad-103" x="2737.1" y="161.2"/><use xlink:href="#DZt_qtPKn-QGb6Rbl4_B_pad-103" x="2972.7" y="1479.7"/><use xlink:href="#DZt_qtPKn-QGb6Rbl4_B_pad-103" x="2585.1" y="163.3"/><use xlink:href="#DZt_qtPKn-QGb6Rbl4_B_pad-103" x="1777.8" y="160.5"/><use xlink:href="#DZt_qtPKn-QGb6Rbl4_B_pad-103" x="2472.7" y="1479.7"/><use xlink:href="#DZt_qtPKn-QGb6Rbl4_B_pad-103" x="3082.1" y="163.3"/><use xlink:href="#DZt_qtPKn-QGb6Rbl4_B_pad-103" x="2837.1" y="161.2"/><use xlink:href="#DZt_qtPKn-QGb6Rbl4_B_pad-103" x="1877.8" y="160.5"/><use xlink:href="#DZt_qtPKn-QGb6Rbl4_B_pad-103" x="3272.7" y="1479.7"/><use xlink:href="#DZt_qtPKn-QGb6Rbl4_B_pad-103" x="1627.9" y="160.3"/><use xlink:href="#DZt_qtPKn-QGb6Rbl4_B_pad-103" x="2372.7" y="1479.7"/><use xlink:href="#DZt_qtPKn-QGb6Rbl4_B_pad-103" x="3172.7" y="1479.7"/><use xlink:href="#DZt_qtPKn-QGb6Rbl4_B_pad-103" x="2572.7" y="1479.7"/><use xlink:href="#DZt_qtPKn-QGb6Rbl4_B_pad-103" x="3072.7" y="1479.7"/><use xlink:href="#DZt_qtPKn-QGb6Rbl4_B_pad-103" x="2385.1" y="163.3"/><use xlink:href="#DZt_qtPKn-QGb6Rbl4_B_pad-103" x="2135.4" y="162.3"/><use xlink:href="#DZt_qtPKn-QGb6Rbl4_B_pad-103" x="1527.9" y="160.3"/><use xlink:href="#DZt_qtPKn-QGb6Rbl4_B_pad-103" x="2485.1" y="163.3"/><use xlink:href="#DZt_qtPKn-QGb6Rbl4_B_pad-103" x="2235.4" y="162.3"/><use xlink:href="#DZt_qtPKn-QGb6Rbl4_B_pad-103" x="3372.7" y="1479.7"/><use xlink:href="#DZt_qtPKn-QGb6Rbl4_B_pad-103" x="2772.7" y="1479.7"/><use xlink:href="#DZt_qtPKn-QGb6Rbl4_B_pad-103" x="2872.7" y="1479.7"/><use xlink:href="#DZt_qtPKn-QGb6Rbl4_B_pad-103" x="2982.1" y="163.3"/><use xlink:href="#DZt_qtPKn-QGb6Rbl4_B_pad-104" x="3327.2" y="774.8"/><use xlink:href="#DZt_qtPKn-QGb6Rbl4_B_pad-104" x="216.9" y="774.8"/><use xlink:href="#DZt_qtPKn-QGb6Rbl4_B_pad-105" x="1473.6" y="1444.9"/><use xlink:href="#DZt_qtPKn-QGb6Rbl4_B_pad-105" x="2739.4" y="730.4"/><use xlink:href="#DZt_qtPKn-QGb6Rbl4_B_pad-105" x="2149.2" y="1444.9"/><use xlink:href="#DZt_qtPKn-QGb6Rbl4_B_pad-105" x="1258.4" y="617.7"/><use xlink:href="#DZt_qtPKn-QGb6Rbl4_B_pad-105" x="2149.2" y="644.9"/><use xlink:href="#DZt_qtPKn-QGb6Rbl4_B_pad-105" x="1254.4" y="978.1"/><use xlink:href="#DZt_qtPKn-QGb6Rbl4_B_pad-105" x="1473.6" y="644.9"/><use xlink:href="#DZt_qtPKn-QGb6Rbl4_B_pad-105" x="313.8" y="1099.2"/><use xlink:href="#DZt_qtPKn-QGb6Rbl4_B_pad-105" x="810.5" y="976.6"/><use xlink:href="#DZt_qtPKn-QGb6Rbl4_B_pad-105" x="808.4" y="617.7"/><use xlink:href="#DZt_qtPKn-QGb6Rbl4_B_pad-105" x="3034.4" y="730.4"/><use xlink:href="#DZt_qtPKn-QGb6Rbl4_B_pad-105" x="580" y="1100.7"/><use xlink:href="#DZt_qtPKn-QGb6Rbl4_B_pad-106" x="3351" y="394.8"/><use xlink:href="#DZt_qtPKn-QGb6Rbl4_B_pad-106" x="3251" y="394.8"/></g></svg>