ISO-10303-21;
HEADER;
/* Generated by software containing ST-Developer
 * from STEP Tools, Inc. (www.steptools.com) 
 */

FILE_DESCRIPTION(
/* description */ (''),
/* implementation_level */ '2;1');

FILE_NAME(
/* name */ 'Gehuse_Rain_Modul.step',
/* time_stamp */ '2026-03-01T11:18:54+01:00',
/* author */ (''),
/* organization */ (''),
/* preprocessor_version */ 'ST-DEVELOPER v20.1',
/* originating_system */ 'Autodesk Translation Framework v14.24.0.0',
/* authorisation */ '');

FILE_SCHEMA (('AUTOMOTIVE_DESIGN { 1 0 10303 214 3 1 1 }'));
ENDSEC;

DATA;
#10=MECHANICAL_DESIGN_GEOMETRIC_PRESENTATION_REPRESENTATION('',(#13),#739);
#11=SHAPE_REPRESENTATION_RELATIONSHIP('SRR','None',#746,#12);
#12=ADVANCED_BREP_SHAPE_REPRESENTATION('',(#14),#738);
#13=STYLED_ITEM('',(#755),#14);
#14=MANIFOLD_SOLID_BREP('K\X\F6rper2',#428);
#15=FACE_BOUND('',#99,.T.);
#16=FACE_BOUND('',#100,.T.);
#17=FACE_BOUND('',#101,.T.);
#18=FACE_BOUND('',#102,.T.);
#19=FACE_BOUND('',#103,.T.);
#20=FACE_BOUND('',#115,.T.);
#21=FACE_BOUND('',#116,.T.);
#22=FACE_BOUND('',#117,.T.);
#23=FACE_BOUND('',#118,.T.);
#24=FACE_BOUND('',#119,.T.);
#25=CYLINDRICAL_SURFACE('',#458,5.);
#26=CYLINDRICAL_SURFACE('',#461,5.00000000000002);
#27=CYLINDRICAL_SURFACE('',#470,2.25);
#28=CYLINDRICAL_SURFACE('',#472,2.25);
#29=CYLINDRICAL_SURFACE('',#474,2.25);
#30=CYLINDRICAL_SURFACE('',#476,2.25);
#31=CYLINDRICAL_SURFACE('',#480,4.);
#32=CYLINDRICAL_SURFACE('',#483,5.);
#33=CYLINDRICAL_SURFACE('',#486,5.);
#34=CIRCLE('',#444,4.00000000000002);
#35=CIRCLE('',#445,5.00000000000002);
#36=CIRCLE('',#448,4.);
#37=CIRCLE('',#449,5.);
#38=CIRCLE('',#452,4.);
#39=CIRCLE('',#453,5.);
#40=CIRCLE('',#456,4.);
#41=CIRCLE('',#457,5.);
#42=CIRCLE('',#459,5.);
#43=CIRCLE('',#462,5.00000000000002);
#44=CIRCLE('',#465,8.);
#45=CIRCLE('',#466,2.25);
#46=CIRCLE('',#467,2.25);
#47=CIRCLE('',#468,2.25);
#48=CIRCLE('',#469,2.25);
#49=CIRCLE('',#471,2.25);
#50=CIRCLE('',#473,2.25);
#51=CIRCLE('',#475,2.25);
#52=CIRCLE('',#477,2.25);
#53=CIRCLE('',#479,4.);
#54=CIRCLE('',#481,4.);
#55=CIRCLE('',#484,5.);
#56=CIRCLE('',#487,5.);
#57=CONICAL_SURFACE('',#443,4.50000000000002,0.785398163397448);
#58=CONICAL_SURFACE('',#447,4.5,0.785398163397448);
#59=CONICAL_SURFACE('',#451,4.5,0.785398163397448);
#60=CONICAL_SURFACE('',#455,4.5,0.785398163397449);
#61=CONICAL_SURFACE('',#478,6.,0.785398163397448);
#62=FACE_OUTER_BOUND('',#86,.T.);
#63=FACE_OUTER_BOUND('',#87,.T.);
#64=FACE_OUTER_BOUND('',#88,.T.);
#65=FACE_OUTER_BOUND('',#89,.T.);
#66=FACE_OUTER_BOUND('',#90,.T.);
#67=FACE_OUTER_BOUND('',#91,.T.);
#68=FACE_OUTER_BOUND('',#92,.T.);
#69=FACE_OUTER_BOUND('',#93,.T.);
#70=FACE_OUTER_BOUND('',#94,.T.);
#71=FACE_OUTER_BOUND('',#95,.T.);
#72=FACE_OUTER_BOUND('',#96,.T.);
#73=FACE_OUTER_BOUND('',#97,.T.);
#74=FACE_OUTER_BOUND('',#98,.T.);
#75=FACE_OUTER_BOUND('',#104,.T.);
#76=FACE_OUTER_BOUND('',#105,.T.);
#77=FACE_OUTER_BOUND('',#106,.T.);
#78=FACE_OUTER_BOUND('',#107,.T.);
#79=FACE_OUTER_BOUND('',#108,.T.);
#80=FACE_OUTER_BOUND('',#109,.T.);
#81=FACE_OUTER_BOUND('',#110,.T.);
#82=FACE_OUTER_BOUND('',#111,.T.);
#83=FACE_OUTER_BOUND('',#112,.T.);
#84=FACE_OUTER_BOUND('',#113,.T.);
#85=FACE_OUTER_BOUND('',#114,.T.);
#86=EDGE_LOOP('',(#280,#281,#282,#283));
#87=EDGE_LOOP('',(#284,#285,#286,#287));
#88=EDGE_LOOP('',(#288,#289,#290,#291));
#89=EDGE_LOOP('',(#292,#293,#294,#295));
#90=EDGE_LOOP('',(#296,#297,#298,#299));
#91=EDGE_LOOP('',(#300,#301,#302,#303));
#92=EDGE_LOOP('',(#304,#305,#306,#307));
#93=EDGE_LOOP('',(#308,#309,#310,#311));
#94=EDGE_LOOP('',(#312,#313,#314,#315));
#95=EDGE_LOOP('',(#316,#317,#318,#319));
#96=EDGE_LOOP('',(#320,#321,#322,#323));
#97=EDGE_LOOP('',(#324,#325,#326,#327));
#98=EDGE_LOOP('',(#328,#329,#330,#331,#332,#333,#334,#335));
#99=EDGE_LOOP('',(#336));
#100=EDGE_LOOP('',(#337));
#101=EDGE_LOOP('',(#338));
#102=EDGE_LOOP('',(#339));
#103=EDGE_LOOP('',(#340));
#104=EDGE_LOOP('',(#341,#342,#343,#344));
#105=EDGE_LOOP('',(#345,#346,#347,#348));
#106=EDGE_LOOP('',(#349,#350,#351,#352));
#107=EDGE_LOOP('',(#353,#354,#355,#356));
#108=EDGE_LOOP('',(#357,#358,#359,#360));
#109=EDGE_LOOP('',(#361,#362,#363,#364));
#110=EDGE_LOOP('',(#365,#366,#367,#368));
#111=EDGE_LOOP('',(#369,#370,#371,#372));
#112=EDGE_LOOP('',(#373,#374,#375,#376));
#113=EDGE_LOOP('',(#377,#378,#379,#380));
#114=EDGE_LOOP('',(#381,#382,#383,#384,#385,#386,#387,#388));
#115=EDGE_LOOP('',(#389));
#116=EDGE_LOOP('',(#390));
#117=EDGE_LOOP('',(#391));
#118=EDGE_LOOP('',(#392));
#119=EDGE_LOOP('',(#393));
#120=LINE('',#623,#154);
#121=LINE('',#625,#155);
#122=LINE('',#627,#156);
#123=LINE('',#628,#157);
#124=LINE('',#632,#158);
#125=LINE('',#638,#159);
#126=LINE('',#639,#160);
#127=LINE('',#640,#161);
#128=LINE('',#644,#162);
#129=LINE('',#650,#163);
#130=LINE('',#651,#164);
#131=LINE('',#652,#165);
#132=LINE('',#656,#166);
#133=LINE('',#662,#167);
#134=LINE('',#663,#168);
#135=LINE('',#664,#169);
#136=LINE('',#670,#170);
#137=LINE('',#673,#171);
#138=LINE('',#676,#172);
#139=LINE('',#677,#173);
#140=LINE('',#680,#174);
#141=LINE('',#684,#175);
#142=LINE('',#685,#176);
#143=LINE('',#699,#177);
#144=LINE('',#703,#178);
#145=LINE('',#707,#179);
#146=LINE('',#711,#180);
#147=LINE('',#715,#181);
#148=LINE('',#719,#182);
#149=LINE('',#723,#183);
#150=LINE('',#725,#184);
#151=LINE('',#726,#185);
#152=LINE('',#729,#186);
#153=LINE('',#732,#187);
#154=VECTOR('',#493,10.);
#155=VECTOR('',#494,10.);
#156=VECTOR('',#495,10.);
#157=VECTOR('',#496,10.);
#158=VECTOR('',#499,10.);
#159=VECTOR('',#506,10.);
#160=VECTOR('',#507,10.);
#161=VECTOR('',#508,10.);
#162=VECTOR('',#511,10.);
#163=VECTOR('',#518,10.);
#164=VECTOR('',#519,10.);
#165=VECTOR('',#520,10.);
#166=VECTOR('',#523,10.);
#167=VECTOR('',#530,10.);
#168=VECTOR('',#531,10.);
#169=VECTOR('',#532,10.);
#170=VECTOR('',#541,10.);
#171=VECTOR('',#544,10.);
#172=VECTOR('',#547,10.);
#173=VECTOR('',#548,10.);
#174=VECTOR('',#551,10.);
#175=VECTOR('',#556,10.);
#176=VECTOR('',#557,10.);
#177=VECTOR('',#572,2.25);
#178=VECTOR('',#577,2.25);
#179=VECTOR('',#582,2.25);
#180=VECTOR('',#587,2.25);
#181=VECTOR('',#592,6.);
#182=VECTOR('',#597,4.);
#183=VECTOR('',#602,10.);
#184=VECTOR('',#603,10.);
#185=VECTOR('',#604,10.);
#186=VECTOR('',#607,10.);
#187=VECTOR('',#612,10.);
#188=VERTEX_POINT('',#621);
#189=VERTEX_POINT('',#622);
#190=VERTEX_POINT('',#624);
#191=VERTEX_POINT('',#626);
#192=VERTEX_POINT('',#630);
#193=VERTEX_POINT('',#631);
#194=VERTEX_POINT('',#636);
#195=VERTEX_POINT('',#637);
#196=VERTEX_POINT('',#642);
#197=VERTEX_POINT('',#643);
#198=VERTEX_POINT('',#648);
#199=VERTEX_POINT('',#649);
#200=VERTEX_POINT('',#654);
#201=VERTEX_POINT('',#655);
#202=VERTEX_POINT('',#660);
#203=VERTEX_POINT('',#661);
#204=VERTEX_POINT('',#669);
#205=VERTEX_POINT('',#671);
#206=VERTEX_POINT('',#675);
#207=VERTEX_POINT('',#679);
#208=VERTEX_POINT('',#683);
#209=VERTEX_POINT('',#687);
#210=VERTEX_POINT('',#689);
#211=VERTEX_POINT('',#691);
#212=VERTEX_POINT('',#693);
#213=VERTEX_POINT('',#695);
#214=VERTEX_POINT('',#698);
#215=VERTEX_POINT('',#702);
#216=VERTEX_POINT('',#706);
#217=VERTEX_POINT('',#710);
#218=VERTEX_POINT('',#714);
#219=VERTEX_POINT('',#718);
#220=VERTEX_POINT('',#722);
#221=VERTEX_POINT('',#724);
#222=VERTEX_POINT('',#728);
#223=EDGE_CURVE('',#188,#189,#120,.T.);
#224=EDGE_CURVE('',#189,#190,#121,.T.);
#225=EDGE_CURVE('',#190,#191,#122,.T.);
#226=EDGE_CURVE('',#191,#188,#123,.T.);
#227=EDGE_CURVE('',#192,#193,#124,.T.);
#228=EDGE_CURVE('',#193,#189,#34,.T.);
#229=EDGE_CURVE('',#188,#192,#35,.T.);
#230=EDGE_CURVE('',#194,#195,#125,.T.);
#231=EDGE_CURVE('',#195,#193,#126,.T.);
#232=EDGE_CURVE('',#192,#194,#127,.T.);
#233=EDGE_CURVE('',#196,#197,#128,.T.);
#234=EDGE_CURVE('',#197,#195,#36,.T.);
#235=EDGE_CURVE('',#194,#196,#37,.T.);
#236=EDGE_CURVE('',#198,#199,#129,.T.);
#237=EDGE_CURVE('',#199,#197,#130,.T.);
#238=EDGE_CURVE('',#196,#198,#131,.T.);
#239=EDGE_CURVE('',#200,#201,#132,.T.);
#240=EDGE_CURVE('',#201,#199,#38,.T.);
#241=EDGE_CURVE('',#198,#200,#39,.T.);
#242=EDGE_CURVE('',#202,#203,#133,.T.);
#243=EDGE_CURVE('',#203,#201,#134,.T.);
#244=EDGE_CURVE('',#200,#202,#135,.T.);
#245=EDGE_CURVE('',#190,#203,#40,.T.);
#246=EDGE_CURVE('',#202,#191,#41,.T.);
#247=EDGE_CURVE('',#204,#194,#136,.T.);
#248=EDGE_CURVE('',#204,#205,#42,.T.);
#249=EDGE_CURVE('',#205,#196,#137,.T.);
#250=EDGE_CURVE('',#206,#192,#138,.T.);
#251=EDGE_CURVE('',#206,#204,#139,.T.);
#252=EDGE_CURVE('',#207,#188,#140,.T.);
#253=EDGE_CURVE('',#207,#206,#43,.T.);
#254=EDGE_CURVE('',#208,#191,#141,.T.);
#255=EDGE_CURVE('',#208,#207,#142,.T.);
#256=EDGE_CURVE('',#209,#209,#44,.T.);
#257=EDGE_CURVE('',#210,#210,#45,.T.);
#258=EDGE_CURVE('',#211,#211,#46,.T.);
#259=EDGE_CURVE('',#212,#212,#47,.T.);
#260=EDGE_CURVE('',#213,#213,#48,.T.);
#261=EDGE_CURVE('',#213,#214,#143,.T.);
#262=EDGE_CURVE('',#214,#214,#49,.T.);
#263=EDGE_CURVE('',#212,#215,#144,.T.);
#264=EDGE_CURVE('',#215,#215,#50,.T.);
#265=EDGE_CURVE('',#211,#216,#145,.T.);
#266=EDGE_CURVE('',#216,#216,#51,.T.);
#267=EDGE_CURVE('',#210,#217,#146,.T.);
#268=EDGE_CURVE('',#217,#217,#52,.T.);
#269=EDGE_CURVE('',#209,#218,#147,.T.);
#270=EDGE_CURVE('',#218,#218,#53,.T.);
#271=EDGE_CURVE('',#218,#219,#148,.T.);
#272=EDGE_CURVE('',#219,#219,#54,.T.);
#273=EDGE_CURVE('',#220,#200,#149,.T.);
#274=EDGE_CURVE('',#220,#221,#150,.T.);
#275=EDGE_CURVE('',#221,#202,#151,.T.);
#276=EDGE_CURVE('',#222,#198,#152,.T.);
#277=EDGE_CURVE('',#222,#220,#55,.T.);
#278=EDGE_CURVE('',#205,#222,#153,.T.);
#279=EDGE_CURVE('',#221,#208,#56,.T.);
#280=ORIENTED_EDGE('',*,*,#223,.T.);
#281=ORIENTED_EDGE('',*,*,#224,.T.);
#282=ORIENTED_EDGE('',*,*,#225,.T.);
#283=ORIENTED_EDGE('',*,*,#226,.T.);
#284=ORIENTED_EDGE('',*,*,#227,.T.);
#285=ORIENTED_EDGE('',*,*,#228,.T.);
#286=ORIENTED_EDGE('',*,*,#223,.F.);
#287=ORIENTED_EDGE('',*,*,#229,.T.);
#288=ORIENTED_EDGE('',*,*,#230,.T.);
#289=ORIENTED_EDGE('',*,*,#231,.T.);
#290=ORIENTED_EDGE('',*,*,#227,.F.);
#291=ORIENTED_EDGE('',*,*,#232,.T.);
#292=ORIENTED_EDGE('',*,*,#233,.T.);
#293=ORIENTED_EDGE('',*,*,#234,.T.);
#294=ORIENTED_EDGE('',*,*,#230,.F.);
#295=ORIENTED_EDGE('',*,*,#235,.T.);
#296=ORIENTED_EDGE('',*,*,#236,.T.);
#297=ORIENTED_EDGE('',*,*,#237,.T.);
#298=ORIENTED_EDGE('',*,*,#233,.F.);
#299=ORIENTED_EDGE('',*,*,#238,.T.);
#300=ORIENTED_EDGE('',*,*,#239,.T.);
#301=ORIENTED_EDGE('',*,*,#240,.T.);
#302=ORIENTED_EDGE('',*,*,#236,.F.);
#303=ORIENTED_EDGE('',*,*,#241,.T.);
#304=ORIENTED_EDGE('',*,*,#242,.T.);
#305=ORIENTED_EDGE('',*,*,#243,.T.);
#306=ORIENTED_EDGE('',*,*,#239,.F.);
#307=ORIENTED_EDGE('',*,*,#244,.T.);
#308=ORIENTED_EDGE('',*,*,#225,.F.);
#309=ORIENTED_EDGE('',*,*,#245,.T.);
#310=ORIENTED_EDGE('',*,*,#242,.F.);
#311=ORIENTED_EDGE('',*,*,#246,.T.);
#312=ORIENTED_EDGE('',*,*,#235,.F.);
#313=ORIENTED_EDGE('',*,*,#247,.F.);
#314=ORIENTED_EDGE('',*,*,#248,.T.);
#315=ORIENTED_EDGE('',*,*,#249,.T.);
#316=ORIENTED_EDGE('',*,*,#232,.F.);
#317=ORIENTED_EDGE('',*,*,#250,.F.);
#318=ORIENTED_EDGE('',*,*,#251,.T.);
#319=ORIENTED_EDGE('',*,*,#247,.T.);
#320=ORIENTED_EDGE('',*,*,#229,.F.);
#321=ORIENTED_EDGE('',*,*,#252,.F.);
#322=ORIENTED_EDGE('',*,*,#253,.T.);
#323=ORIENTED_EDGE('',*,*,#250,.T.);
#324=ORIENTED_EDGE('',*,*,#226,.F.);
#325=ORIENTED_EDGE('',*,*,#254,.F.);
#326=ORIENTED_EDGE('',*,*,#255,.T.);
#327=ORIENTED_EDGE('',*,*,#252,.T.);
#328=ORIENTED_EDGE('',*,*,#224,.F.);
#329=ORIENTED_EDGE('',*,*,#228,.F.);
#330=ORIENTED_EDGE('',*,*,#231,.F.);
#331=ORIENTED_EDGE('',*,*,#234,.F.);
#332=ORIENTED_EDGE('',*,*,#237,.F.);
#333=ORIENTED_EDGE('',*,*,#240,.F.);
#334=ORIENTED_EDGE('',*,*,#243,.F.);
#335=ORIENTED_EDGE('',*,*,#245,.F.);
#336=ORIENTED_EDGE('',*,*,#256,.T.);
#337=ORIENTED_EDGE('',*,*,#257,.T.);
#338=ORIENTED_EDGE('',*,*,#258,.T.);
#339=ORIENTED_EDGE('',*,*,#259,.T.);
#340=ORIENTED_EDGE('',*,*,#260,.T.);
#341=ORIENTED_EDGE('',*,*,#260,.F.);
#342=ORIENTED_EDGE('',*,*,#261,.T.);
#343=ORIENTED_EDGE('',*,*,#262,.F.);
#344=ORIENTED_EDGE('',*,*,#261,.F.);
#345=ORIENTED_EDGE('',*,*,#259,.F.);
#346=ORIENTED_EDGE('',*,*,#263,.T.);
#347=ORIENTED_EDGE('',*,*,#264,.F.);
#348=ORIENTED_EDGE('',*,*,#263,.F.);
#349=ORIENTED_EDGE('',*,*,#258,.F.);
#350=ORIENTED_EDGE('',*,*,#265,.T.);
#351=ORIENTED_EDGE('',*,*,#266,.F.);
#352=ORIENTED_EDGE('',*,*,#265,.F.);
#353=ORIENTED_EDGE('',*,*,#257,.F.);
#354=ORIENTED_EDGE('',*,*,#267,.T.);
#355=ORIENTED_EDGE('',*,*,#268,.F.);
#356=ORIENTED_EDGE('',*,*,#267,.F.);
#357=ORIENTED_EDGE('',*,*,#256,.F.);
#358=ORIENTED_EDGE('',*,*,#269,.T.);
#359=ORIENTED_EDGE('',*,*,#270,.T.);
#360=ORIENTED_EDGE('',*,*,#269,.F.);
#361=ORIENTED_EDGE('',*,*,#270,.F.);
#362=ORIENTED_EDGE('',*,*,#271,.T.);
#363=ORIENTED_EDGE('',*,*,#272,.F.);
#364=ORIENTED_EDGE('',*,*,#271,.F.);
#365=ORIENTED_EDGE('',*,*,#244,.F.);
#366=ORIENTED_EDGE('',*,*,#273,.F.);
#367=ORIENTED_EDGE('',*,*,#274,.T.);
#368=ORIENTED_EDGE('',*,*,#275,.T.);
#369=ORIENTED_EDGE('',*,*,#241,.F.);
#370=ORIENTED_EDGE('',*,*,#276,.F.);
#371=ORIENTED_EDGE('',*,*,#277,.T.);
#372=ORIENTED_EDGE('',*,*,#273,.T.);
#373=ORIENTED_EDGE('',*,*,#238,.F.);
#374=ORIENTED_EDGE('',*,*,#249,.F.);
#375=ORIENTED_EDGE('',*,*,#278,.T.);
#376=ORIENTED_EDGE('',*,*,#276,.T.);
#377=ORIENTED_EDGE('',*,*,#246,.F.);
#378=ORIENTED_EDGE('',*,*,#275,.F.);
#379=ORIENTED_EDGE('',*,*,#279,.T.);
#380=ORIENTED_EDGE('',*,*,#254,.T.);
#381=ORIENTED_EDGE('',*,*,#279,.F.);
#382=ORIENTED_EDGE('',*,*,#274,.F.);
#383=ORIENTED_EDGE('',*,*,#277,.F.);
#384=ORIENTED_EDGE('',*,*,#278,.F.);
#385=ORIENTED_EDGE('',*,*,#248,.F.);
#386=ORIENTED_EDGE('',*,*,#251,.F.);
#387=ORIENTED_EDGE('',*,*,#253,.F.);
#388=ORIENTED_EDGE('',*,*,#255,.F.);
#389=ORIENTED_EDGE('',*,*,#262,.T.);
#390=ORIENTED_EDGE('',*,*,#264,.T.);
#391=ORIENTED_EDGE('',*,*,#266,.T.);
#392=ORIENTED_EDGE('',*,*,#268,.T.);
#393=ORIENTED_EDGE('',*,*,#272,.T.);
#394=PLANE('',#442);
#395=PLANE('',#446);
#396=PLANE('',#450);
#397=PLANE('',#454);
#398=PLANE('',#460);
#399=PLANE('',#463);
#400=PLANE('',#464);
#401=PLANE('',#482);
#402=PLANE('',#485);
#403=PLANE('',#488);
#404=ADVANCED_FACE('',(#62),#394,.T.);
#405=ADVANCED_FACE('',(#63),#57,.T.);
#406=ADVANCED_FACE('',(#64),#395,.T.);
#407=ADVANCED_FACE('',(#65),#58,.T.);
#408=ADVANCED_FACE('',(#66),#396,.T.);
#409=ADVANCED_FACE('',(#67),#59,.T.);
#410=ADVANCED_FACE('',(#68),#397,.T.);
#411=ADVANCED_FACE('',(#69),#60,.T.);
#412=ADVANCED_FACE('',(#70),#25,.T.);
#413=ADVANCED_FACE('',(#71),#398,.T.);
#414=ADVANCED_FACE('',(#72),#26,.T.);
#415=ADVANCED_FACE('',(#73),#399,.T.);
#416=ADVANCED_FACE('',(#74,#15,#16,#17,#18,#19),#400,.T.);
#417=ADVANCED_FACE('',(#75),#27,.F.);
#418=ADVANCED_FACE('',(#76),#28,.F.);
#419=ADVANCED_FACE('',(#77),#29,.F.);
#420=ADVANCED_FACE('',(#78),#30,.F.);
#421=ADVANCED_FACE('',(#79),#61,.F.);
#422=ADVANCED_FACE('',(#80),#31,.F.);
#423=ADVANCED_FACE('',(#81),#401,.T.);
#424=ADVANCED_FACE('',(#82),#32,.T.);
#425=ADVANCED_FACE('',(#83),#402,.T.);
#426=ADVANCED_FACE('',(#84),#33,.T.);
#427=ADVANCED_FACE('',(#85,#20,#21,#22,#23,#24),#403,.F.);
#428=CLOSED_SHELL('',(#404,#405,#406,#407,#408,#409,#410,#411,#412,#413,
#414,#415,#416,#417,#418,#419,#420,#421,#422,#423,#424,#425,#426,#427));
#429=DERIVED_UNIT_ELEMENT(#431,1.);
#430=DERIVED_UNIT_ELEMENT(#741,-3.);
#431=(
MASS_UNIT()
NAMED_UNIT(*)
SI_UNIT(.KILO.,.GRAM.)
);
#432=DERIVED_UNIT((#429,#430));
#433=MEASURE_REPRESENTATION_ITEM('density measure',
POSITIVE_RATIO_MEASURE(7850.),#432);
#434=PROPERTY_DEFINITION_REPRESENTATION(#439,#436);
#435=PROPERTY_DEFINITION_REPRESENTATION(#440,#437);
#436=REPRESENTATION('material name',(#438),#738);
#437=REPRESENTATION('density',(#433),#738);
#438=DESCRIPTIVE_REPRESENTATION_ITEM('Stahl','Stahl');
#439=PROPERTY_DEFINITION('material property','material name',#748);
#440=PROPERTY_DEFINITION('material property','density of part',#748);
#441=AXIS2_PLACEMENT_3D('',#619,#489,#490);
#442=AXIS2_PLACEMENT_3D('',#620,#491,#492);
#443=AXIS2_PLACEMENT_3D('',#629,#497,#498);
#444=AXIS2_PLACEMENT_3D('',#633,#500,#501);
#445=AXIS2_PLACEMENT_3D('',#634,#502,#503);
#446=AXIS2_PLACEMENT_3D('',#635,#504,#505);
#447=AXIS2_PLACEMENT_3D('',#641,#509,#510);
#448=AXIS2_PLACEMENT_3D('',#645,#512,#513);
#449=AXIS2_PLACEMENT_3D('',#646,#514,#515);
#450=AXIS2_PLACEMENT_3D('',#647,#516,#517);
#451=AXIS2_PLACEMENT_3D('',#653,#521,#522);
#452=AXIS2_PLACEMENT_3D('',#657,#524,#525);
#453=AXIS2_PLACEMENT_3D('',#658,#526,#527);
#454=AXIS2_PLACEMENT_3D('',#659,#528,#529);
#455=AXIS2_PLACEMENT_3D('',#665,#533,#534);
#456=AXIS2_PLACEMENT_3D('',#666,#535,#536);
#457=AXIS2_PLACEMENT_3D('',#667,#537,#538);
#458=AXIS2_PLACEMENT_3D('',#668,#539,#540);
#459=AXIS2_PLACEMENT_3D('',#672,#542,#543);
#460=AXIS2_PLACEMENT_3D('',#674,#545,#546);
#461=AXIS2_PLACEMENT_3D('',#678,#549,#550);
#462=AXIS2_PLACEMENT_3D('',#681,#552,#553);
#463=AXIS2_PLACEMENT_3D('',#682,#554,#555);
#464=AXIS2_PLACEMENT_3D('',#686,#558,#559);
#465=AXIS2_PLACEMENT_3D('',#688,#560,#561);
#466=AXIS2_PLACEMENT_3D('',#690,#562,#563);
#467=AXIS2_PLACEMENT_3D('',#692,#564,#565);
#468=AXIS2_PLACEMENT_3D('',#694,#566,#567);
#469=AXIS2_PLACEMENT_3D('',#696,#568,#569);
#470=AXIS2_PLACEMENT_3D('',#697,#570,#571);
#471=AXIS2_PLACEMENT_3D('',#700,#573,#574);
#472=AXIS2_PLACEMENT_3D('',#701,#575,#576);
#473=AXIS2_PLACEMENT_3D('',#704,#578,#579);
#474=AXIS2_PLACEMENT_3D('',#705,#580,#581);
#475=AXIS2_PLACEMENT_3D('',#708,#583,#584);
#476=AXIS2_PLACEMENT_3D('',#709,#585,#586);
#477=AXIS2_PLACEMENT_3D('',#712,#588,#589);
#478=AXIS2_PLACEMENT_3D('',#713,#590,#591);
#479=AXIS2_PLACEMENT_3D('',#716,#593,#594);
#480=AXIS2_PLACEMENT_3D('',#717,#595,#596);
#481=AXIS2_PLACEMENT_3D('',#720,#598,#599);
#482=AXIS2_PLACEMENT_3D('',#721,#600,#601);
#483=AXIS2_PLACEMENT_3D('',#727,#605,#606);
#484=AXIS2_PLACEMENT_3D('',#730,#608,#609);
#485=AXIS2_PLACEMENT_3D('',#731,#610,#611);
#486=AXIS2_PLACEMENT_3D('',#733,#613,#614);
#487=AXIS2_PLACEMENT_3D('',#734,#615,#616);
#488=AXIS2_PLACEMENT_3D('',#735,#617,#618);
#489=DIRECTION('axis',(0.,0.,1.));
#490=DIRECTION('refdir',(1.,0.,0.));
#491=DIRECTION('center_axis',(8.97537609765878E-19,-0.707106781186548,0.707106781186547));
#492=DIRECTION('ref_axis',(1.,0.,-1.26930986047084E-18));
#493=DIRECTION('',(0.,0.707106781186547,0.707106781186548));
#494=DIRECTION('',(-1.,-1.26930986047083E-18,0.));
#495=DIRECTION('',(0.,-0.707106781186547,-0.707106781186548));
#496=DIRECTION('',(1.,1.26930986047083E-18,0.));
#497=DIRECTION('center_axis',(0.,0.,-1.));
#498=DIRECTION('ref_axis',(0.,-1.,0.));
#499=DIRECTION('',(-0.707106781186546,0.,0.707106781186549));
#500=DIRECTION('center_axis',(0.,0.,-1.));
#501=DIRECTION('ref_axis',(0.,-1.,0.));
#502=DIRECTION('center_axis',(0.,0.,1.));
#503=DIRECTION('ref_axis',(0.,-1.,0.));
#504=DIRECTION('center_axis',(0.707106781186549,0.,0.707106781186546));
#505=DIRECTION('ref_axis',(0.707106781186546,0.,-0.707106781186549));
#506=DIRECTION('',(-0.707106781186546,0.,0.707106781186549));
#507=DIRECTION('',(0.,-1.,0.));
#508=DIRECTION('',(0.,1.,0.));
#509=DIRECTION('center_axis',(0.,0.,-1.));
#510=DIRECTION('ref_axis',(1.,0.,0.));
#511=DIRECTION('',(0.,-0.707106781186546,0.707106781186549));
#512=DIRECTION('center_axis',(0.,0.,-1.));
#513=DIRECTION('ref_axis',(1.,0.,0.));
#514=DIRECTION('center_axis',(0.,0.,1.));
#515=DIRECTION('ref_axis',(1.,0.,0.));
#516=DIRECTION('center_axis',(0.,0.707106781186549,0.707106781186546));
#517=DIRECTION('ref_axis',(1.,0.,0.));
#518=DIRECTION('',(3.14018491736756E-15,-0.707106781186546,0.707106781186549));
#519=DIRECTION('',(1.,0.,0.));
#520=DIRECTION('',(-1.,0.,0.));
#521=DIRECTION('center_axis',(0.,0.,-1.));
#522=DIRECTION('ref_axis',(0.,1.,0.));
#523=DIRECTION('',(0.707106781186547,0.,0.707106781186548));
#524=DIRECTION('center_axis',(0.,0.,-1.));
#525=DIRECTION('ref_axis',(0.,1.,0.));
#526=DIRECTION('center_axis',(0.,0.,1.));
#527=DIRECTION('ref_axis',(0.,1.,0.));
#528=DIRECTION('center_axis',(-0.707106781186548,-6.06775314762167E-17,
0.707106781186548));
#529=DIRECTION('ref_axis',(0.707106781186548,0.,0.707106781186548));
#530=DIRECTION('',(0.707106781186547,0.,0.707106781186547));
#531=DIRECTION('',(-8.58109879449861E-17,1.,0.));
#532=DIRECTION('',(8.58109879449861E-17,-1.,0.));
#533=DIRECTION('center_axis',(0.,0.,-1.));
#534=DIRECTION('ref_axis',(-1.,2.22044604925031E-16,0.));
#535=DIRECTION('center_axis',(0.,0.,-1.));
#536=DIRECTION('ref_axis',(-1.,2.22044604925031E-16,0.));
#537=DIRECTION('center_axis',(0.,0.,1.));
#538=DIRECTION('ref_axis',(-1.,2.22044604925031E-16,0.));
#539=DIRECTION('center_axis',(0.,0.,1.));
#540=DIRECTION('ref_axis',(1.,0.,0.));
#541=DIRECTION('',(0.,0.,1.));
#542=DIRECTION('center_axis',(0.,0.,1.));
#543=DIRECTION('ref_axis',(1.,0.,0.));
#544=DIRECTION('',(0.,0.,1.));
#545=DIRECTION('center_axis',(1.,0.,0.));
#546=DIRECTION('ref_axis',(0.,1.,0.));
#547=DIRECTION('',(0.,0.,1.));
#548=DIRECTION('',(0.,1.,0.));
#549=DIRECTION('center_axis',(0.,0.,1.));
#550=DIRECTION('ref_axis',(0.,-1.,0.));
#551=DIRECTION('',(0.,0.,1.));
#552=DIRECTION('center_axis',(0.,0.,1.));
#553=DIRECTION('ref_axis',(0.,-1.,0.));
#554=DIRECTION('center_axis',(1.26930986047083E-18,-1.,0.));
#555=DIRECTION('ref_axis',(1.,1.26930986047083E-18,0.));
#556=DIRECTION('',(0.,0.,1.));
#557=DIRECTION('',(1.,1.26930986047083E-18,0.));
#558=DIRECTION('center_axis',(0.,0.,1.));
#559=DIRECTION('ref_axis',(1.,0.,0.));
#560=DIRECTION('center_axis',(0.,0.,-1.));
#561=DIRECTION('ref_axis',(1.,0.,0.));
#562=DIRECTION('center_axis',(0.,0.,-1.));
#563=DIRECTION('ref_axis',(-1.,0.,0.));
#564=DIRECTION('center_axis',(0.,0.,-1.));
#565=DIRECTION('ref_axis',(-1.,0.,0.));
#566=DIRECTION('center_axis',(0.,0.,-1.));
#567=DIRECTION('ref_axis',(-1.,0.,0.));
#568=DIRECTION('center_axis',(0.,0.,-1.));
#569=DIRECTION('ref_axis',(-1.,0.,0.));
#570=DIRECTION('center_axis',(0.,0.,-1.));
#571=DIRECTION('ref_axis',(-1.,0.,0.));
#572=DIRECTION('',(0.,0.,-1.));
#573=DIRECTION('center_axis',(0.,0.,1.));
#574=DIRECTION('ref_axis',(-1.,0.,0.));
#575=DIRECTION('center_axis',(0.,0.,-1.));
#576=DIRECTION('ref_axis',(-1.,0.,0.));
#577=DIRECTION('',(0.,0.,-1.));
#578=DIRECTION('center_axis',(0.,0.,1.));
#579=DIRECTION('ref_axis',(-1.,0.,0.));
#580=DIRECTION('center_axis',(0.,0.,-1.));
#581=DIRECTION('ref_axis',(-1.,0.,0.));
#582=DIRECTION('',(0.,0.,-1.));
#583=DIRECTION('center_axis',(0.,0.,1.));
#584=DIRECTION('ref_axis',(-1.,0.,0.));
#585=DIRECTION('center_axis',(0.,0.,-1.));
#586=DIRECTION('ref_axis',(-1.,0.,0.));
#587=DIRECTION('',(0.,0.,-1.));
#588=DIRECTION('center_axis',(0.,0.,1.));
#589=DIRECTION('ref_axis',(-1.,0.,0.));
#590=DIRECTION('center_axis',(0.,0.,1.));
#591=DIRECTION('ref_axis',(1.,0.,0.));
#592=DIRECTION('',(0.707106781186547,-8.65956056235493E-17,-0.707106781186548));
#593=DIRECTION('center_axis',(0.,0.,-1.));
#594=DIRECTION('ref_axis',(1.,0.,0.));
#595=DIRECTION('center_axis',(0.,0.,-1.));
#596=DIRECTION('ref_axis',(1.,0.,0.));
#597=DIRECTION('',(0.,0.,-1.));
#598=DIRECTION('center_axis',(0.,0.,1.));
#599=DIRECTION('ref_axis',(1.,0.,0.));
#600=DIRECTION('center_axis',(-1.,-8.58109879449861E-17,0.));
#601=DIRECTION('ref_axis',(8.58109879449861E-17,-1.,0.));
#602=DIRECTION('',(0.,0.,1.));
#603=DIRECTION('',(8.58109879449861E-17,-1.,0.));
#604=DIRECTION('',(0.,0.,1.));
#605=DIRECTION('center_axis',(0.,0.,1.));
#606=DIRECTION('ref_axis',(0.,1.,0.));
#607=DIRECTION('',(0.,0.,1.));
#608=DIRECTION('center_axis',(0.,0.,1.));
#609=DIRECTION('ref_axis',(0.,1.,0.));
#610=DIRECTION('center_axis',(0.,1.,0.));
#611=DIRECTION('ref_axis',(-1.,0.,0.));
#612=DIRECTION('',(-1.,0.,0.));
#613=DIRECTION('center_axis',(0.,0.,1.));
#614=DIRECTION('ref_axis',(-1.,2.22044604925031E-16,0.));
#615=DIRECTION('center_axis',(0.,0.,1.));
#616=DIRECTION('ref_axis',(-1.,2.22044604925031E-16,0.));
#617=DIRECTION('center_axis',(0.,0.,1.));
#618=DIRECTION('ref_axis',(1.,0.,0.));
#619=CARTESIAN_POINT('',(0.,0.,0.));
#620=CARTESIAN_POINT('Origin',(25.5,0.499999999999999,4.5));
#621=CARTESIAN_POINT('',(87.,0.,4.));
#622=CARTESIAN_POINT('',(87.,0.999999999999999,5.));
#623=CARTESIAN_POINT('',(87.,0.,4.));
#624=CARTESIAN_POINT('',(5.,0.999999999999999,5.));
#625=CARTESIAN_POINT('',(25.5,0.999999999999999,5.));
#626=CARTESIAN_POINT('',(5.,-5.55111512312578E-16,4.));
#627=CARTESIAN_POINT('',(5.,0.999999999999999,5.));
#628=CARTESIAN_POINT('',(25.5,-5.55111512312578E-16,4.));
#629=CARTESIAN_POINT('Origin',(87.,5.00000000000002,4.5));
#630=CARTESIAN_POINT('',(92.,5.00000000000002,4.));
#631=CARTESIAN_POINT('',(91.,5.00000000000002,5.));
#632=CARTESIAN_POINT('',(92.,5.00000000000002,4.));
#633=CARTESIAN_POINT('Origin',(87.,5.00000000000002,5.));
#634=CARTESIAN_POINT('Origin',(87.,5.00000000000002,4.));
#635=CARTESIAN_POINT('Origin',(91.5,17.5,4.5));
#636=CARTESIAN_POINT('',(92.,55.,4.));
#637=CARTESIAN_POINT('',(91.,55.,5.));
#638=CARTESIAN_POINT('',(92.,55.,4.));
#639=CARTESIAN_POINT('',(91.,17.5,5.));
#640=CARTESIAN_POINT('',(92.,17.5,4.));
#641=CARTESIAN_POINT('Origin',(87.,55.,4.5));
#642=CARTESIAN_POINT('',(87.,60.,4.));
#643=CARTESIAN_POINT('',(87.,59.,5.));
#644=CARTESIAN_POINT('',(87.,60.,4.));
#645=CARTESIAN_POINT('Origin',(87.,55.,5.));
#646=CARTESIAN_POINT('Origin',(87.,55.,4.));
#647=CARTESIAN_POINT('Origin',(66.5,59.5,4.5));
#648=CARTESIAN_POINT('',(5.,60.,4.));
#649=CARTESIAN_POINT('',(5.,59.,5.));
#650=CARTESIAN_POINT('',(5.,60.,4.));
#651=CARTESIAN_POINT('',(66.5,59.,5.));
#652=CARTESIAN_POINT('',(66.5,60.,4.));
#653=CARTESIAN_POINT('Origin',(5.,55.,4.5));
#654=CARTESIAN_POINT('',(-4.44089209850063E-15,55.,4.));
#655=CARTESIAN_POINT('',(0.999999999999994,55.,5.));
#656=CARTESIAN_POINT('',(-4.44089209850063E-15,55.,4.));
#657=CARTESIAN_POINT('Origin',(5.,55.,5.));
#658=CARTESIAN_POINT('Origin',(5.,55.,4.));
#659=CARTESIAN_POINT('Origin',(0.499999999999997,42.5,4.5));
#660=CARTESIAN_POINT('',(0.,5.,4.));
#661=CARTESIAN_POINT('',(1.,5.,5.));
#662=CARTESIAN_POINT('',(0.,5.,4.));
#663=CARTESIAN_POINT('',(0.999999999999996,42.5,5.));
#664=CARTESIAN_POINT('',(-3.19189119579733E-15,42.5,4.));
#665=CARTESIAN_POINT('Origin',(5.,5.,4.5));
#666=CARTESIAN_POINT('Origin',(5.,5.,5.));
#667=CARTESIAN_POINT('Origin',(5.,5.,4.));
#668=CARTESIAN_POINT('Origin',(87.,55.,0.));
#669=CARTESIAN_POINT('',(92.,55.,0.));
#670=CARTESIAN_POINT('',(92.,55.,0.));
#671=CARTESIAN_POINT('',(87.,60.,0.));
#672=CARTESIAN_POINT('Origin',(87.,55.,0.));
#673=CARTESIAN_POINT('',(87.,60.,0.));
#674=CARTESIAN_POINT('Origin',(92.,5.00000000000002,0.));
#675=CARTESIAN_POINT('',(92.,5.00000000000002,0.));
#676=CARTESIAN_POINT('',(92.,5.00000000000002,0.));
#677=CARTESIAN_POINT('',(92.,5.00000000000002,0.));
#678=CARTESIAN_POINT('Origin',(87.,5.00000000000002,0.));
#679=CARTESIAN_POINT('',(87.,0.,0.));
#680=CARTESIAN_POINT('',(87.,0.,0.));
#681=CARTESIAN_POINT('Origin',(87.,5.00000000000002,0.));
#682=CARTESIAN_POINT('Origin',(5.,-5.55111512312578E-16,0.));
#683=CARTESIAN_POINT('',(5.,-5.55111512312578E-16,0.));
#684=CARTESIAN_POINT('',(5.,-5.55111512312578E-16,0.));
#685=CARTESIAN_POINT('',(5.,-5.55111512312578E-16,0.));
#686=CARTESIAN_POINT('Origin',(46.,30.,5.));
#687=CARTESIAN_POINT('',(38.0000006705523,30.0000004321337,5.));
#688=CARTESIAN_POINT('Origin',(46.0000006705523,30.0000004321337,5.));
#689=CARTESIAN_POINT('',(86.25,10.5,5.));
#690=CARTESIAN_POINT('Origin',(84.,10.5,5.));
#691=CARTESIAN_POINT('',(86.25,49.5,5.));
#692=CARTESIAN_POINT('Origin',(84.,49.5,5.));
#693=CARTESIAN_POINT('',(10.25,49.5,5.));
#694=CARTESIAN_POINT('Origin',(8.,49.5,5.));
#695=CARTESIAN_POINT('',(10.25,10.5,5.));
#696=CARTESIAN_POINT('Origin',(8.,10.5,5.));
#697=CARTESIAN_POINT('Origin',(8.,10.5,5.));
#698=CARTESIAN_POINT('',(10.25,10.5,0.));
#699=CARTESIAN_POINT('',(10.25,10.5,5.));
#700=CARTESIAN_POINT('Origin',(8.,10.5,0.));
#701=CARTESIAN_POINT('Origin',(8.,49.5,5.));
#702=CARTESIAN_POINT('',(10.25,49.5,0.));
#703=CARTESIAN_POINT('',(10.25,49.5,5.));
#704=CARTESIAN_POINT('Origin',(8.,49.5,0.));
#705=CARTESIAN_POINT('Origin',(84.,49.5,5.));
#706=CARTESIAN_POINT('',(86.25,49.5,0.));
#707=CARTESIAN_POINT('',(86.25,49.5,5.));
#708=CARTESIAN_POINT('Origin',(84.,49.5,0.));
#709=CARTESIAN_POINT('Origin',(84.,10.5,5.));
#710=CARTESIAN_POINT('',(86.25,10.5,0.));
#711=CARTESIAN_POINT('',(86.25,10.5,5.));
#712=CARTESIAN_POINT('Origin',(84.,10.5,0.));
#713=CARTESIAN_POINT('Origin',(46.0000006705523,30.0000004321337,3.));
#714=CARTESIAN_POINT('',(42.0000006705523,30.0000004321337,0.999999999999998));
#715=CARTESIAN_POINT('',(40.0000006705523,30.0000004321337,3.));
#716=CARTESIAN_POINT('Origin',(46.0000006705523,30.0000004321337,0.999999999999998));
#717=CARTESIAN_POINT('Origin',(46.0000006705523,30.0000004321337,2.5));
#718=CARTESIAN_POINT('',(42.0000006705522,30.0000004321337,0.));
#719=CARTESIAN_POINT('',(42.0000006705522,30.0000004321337,2.5));
#720=CARTESIAN_POINT('Origin',(46.0000006705523,30.0000004321337,0.));
#721=CARTESIAN_POINT('Origin',(-4.2905493972493E-15,55.,0.));
#722=CARTESIAN_POINT('',(-4.44089209850063E-15,55.,0.));
#723=CARTESIAN_POINT('',(-4.44089209850063E-15,55.,0.));
#724=CARTESIAN_POINT('',(0.,5.,0.));
#725=CARTESIAN_POINT('',(-4.2905493972493E-15,55.,0.));
#726=CARTESIAN_POINT('',(0.,5.,0.));
#727=CARTESIAN_POINT('Origin',(5.,55.,0.));
#728=CARTESIAN_POINT('',(5.,60.,0.));
#729=CARTESIAN_POINT('',(5.,60.,0.));
#730=CARTESIAN_POINT('Origin',(5.,55.,0.));
#731=CARTESIAN_POINT('Origin',(87.,60.,0.));
#732=CARTESIAN_POINT('',(87.,60.,0.));
#733=CARTESIAN_POINT('Origin',(5.,5.,0.));
#734=CARTESIAN_POINT('Origin',(5.,5.,0.));
#735=CARTESIAN_POINT('Origin',(46.,30.,0.));
#736=UNCERTAINTY_MEASURE_WITH_UNIT(LENGTH_MEASURE(0.01),#740,
'DISTANCE_ACCURACY_VALUE',
'Maximum model space distance between geometric entities at asserted c
onnectivities');
#737=UNCERTAINTY_MEASURE_WITH_UNIT(LENGTH_MEASURE(0.01),#740,
'DISTANCE_ACCURACY_VALUE',
'Maximum model space distance between geometric entities at asserted c
onnectivities');
#738=(
GEOMETRIC_REPRESENTATION_CONTEXT(3)
GLOBAL_UNCERTAINTY_ASSIGNED_CONTEXT((#736))
GLOBAL_UNIT_ASSIGNED_CONTEXT((#740,#742,#743))
REPRESENTATION_CONTEXT('','3D')
);
#739=(
GEOMETRIC_REPRESENTATION_CONTEXT(3)
GLOBAL_UNCERTAINTY_ASSIGNED_CONTEXT((#737))
GLOBAL_UNIT_ASSIGNED_CONTEXT((#740,#742,#743))
REPRESENTATION_CONTEXT('','3D')
);
#740=(
LENGTH_UNIT()
NAMED_UNIT(*)
SI_UNIT(.MILLI.,.METRE.)
);
#741=(
LENGTH_UNIT()
NAMED_UNIT(*)
SI_UNIT($,.METRE.)
);
#742=(
NAMED_UNIT(*)
PLANE_ANGLE_UNIT()
SI_UNIT($,.RADIAN.)
);
#743=(
NAMED_UNIT(*)
SI_UNIT($,.STERADIAN.)
SOLID_ANGLE_UNIT()
);
#744=SHAPE_DEFINITION_REPRESENTATION(#745,#746);
#745=PRODUCT_DEFINITION_SHAPE('',$,#748);
#746=SHAPE_REPRESENTATION('',(#441),#738);
#747=PRODUCT_DEFINITION_CONTEXT('part definition',#752,'design');
#748=PRODUCT_DEFINITION('Geh\X\E4use_Rain_Modul',
'Geh\X\E4use_Rain_Modul v4',#749,#747);
#749=PRODUCT_DEFINITION_FORMATION('',$,#754);
#750=PRODUCT_RELATED_PRODUCT_CATEGORY('Geh\X\E4use_Rain_Modul v4',
'Geh\X\E4use_Rain_Modul v4',(#754));
#751=APPLICATION_PROTOCOL_DEFINITION('international standard',
'automotive_design',2009,#752);
#752=APPLICATION_CONTEXT(
'Core Data for Automotive Mechanical Design Process');
#753=PRODUCT_CONTEXT('part definition',#752,'mechanical');
#754=PRODUCT('Geh\X\E4use_Rain_Modul','Geh\X\E4use_Rain_Modul v4',$,(#753));
#755=PRESENTATION_STYLE_ASSIGNMENT((#756));
#756=SURFACE_STYLE_USAGE(.BOTH.,#757);
#757=SURFACE_SIDE_STYLE('',(#758));
#758=SURFACE_STYLE_FILL_AREA(#759);
#759=FILL_AREA_STYLE('Stahl - satiniert',(#760));
#760=FILL_AREA_STYLE_COLOUR('Stahl - satiniert',#761);
#761=COLOUR_RGB('Stahl - satiniert',0.627450980392157,0.627450980392157,
0.627450980392157);
ENDSEC;
END-ISO-10303-21;
