; NON-PLATED HOLES START AT T1
; THROUGH (PLATED) HOLES START AT T100
M48
INCH
T100C0.137795
T101C0.043307
T102C0.098425
T103C0.038000
%
T100
X008533Y010498
X008530Y001308
X001309Y001312
X001309Y010499
T101
X004177Y010126
X005644Y010126
X004186Y001761
X005651Y001765
X003186Y001761
X006651Y001765
X006644Y010126
X003177Y010126
T102
X006905Y004388
X002814Y004415
T103
X005324Y007427
X002324Y007427
X007325Y007427
X004324Y007427
X003324Y007427
X006324Y007427
T00
M30
