G04 MADE WITH FRITZING*
G04 WWW.FRITZING.ORG*
G04 DOUBLE SIDED*
G04 HOLES PLATED*
G04 CONTOUR ON CENTER OF CONTOUR VECTOR*
%FSLAX26Y26*%
%MOIN*%
%ADD10C,0.075000*%
%ADD11C,0.216536*%
%ADD12C,0.083307*%
%ADD13C,0.078000*%
%ADD14C,0.137795*%
%ADD15R,0.083307X0.083307*%
%ADD16C,0.024000*%
%ADD17C,0.000100*%
%ADD18R,0.001000X0.001000*%
G04 COPPER1*
%FSLAX26Y26*%
%MOIN*%
D10*
X288700Y82630D03*
X844506Y139300D03*
X122566Y139730D03*
X845294Y1058767D03*
X122300Y1058333D03*
D11*
X853041Y130880D03*
X130901Y1049957D03*
X853390Y1049870D03*
D12*
X564428Y1012642D03*
X664428Y1012642D03*
X418643Y176110D03*
X318643Y176110D03*
X317739Y1012655D03*
X417739Y1012655D03*
X665163Y176520D03*
X565163Y176520D03*
D13*
X232480Y742759D03*
X332485Y742759D03*
X432489Y742759D03*
X532493Y742759D03*
X632497Y742759D03*
X732501Y742759D03*
D14*
X281437Y441580D03*
X690502Y438838D03*
D11*
X130990Y131200D03*
D15*
X564428Y1012642D03*
X418643Y176114D03*
X317740Y1012655D03*
X665163Y176523D03*
D16*
X344868Y757169D02*
X550314Y996220D01*
D02*
X677563Y995428D02*
X852528Y766128D01*
D02*
X276000Y665100D02*
X241769Y726185D01*
D02*
X788630Y656307D02*
X276000Y665100D01*
D02*
X852528Y766128D02*
X788631Y656306D01*
D02*
X372000Y521100D02*
X276000Y665100D01*
D02*
X391004Y340353D02*
X372000Y521100D01*
D02*
X327374Y195930D02*
X391004Y340353D01*
D17*
G36*
X859572Y189467D02*
X865106Y188667D01*
X870439Y187234D01*
X875873Y185200D01*
X881673Y182434D01*
X885939Y179830D01*
X890473Y176400D01*
X894639Y172600D01*
X898639Y168200D01*
X902106Y163600D01*
X904739Y159230D01*
X907306Y153700D01*
X909406Y148130D01*
X910773Y142730D01*
X911639Y137130D01*
X911906Y130900D01*
X911606Y124570D01*
X910739Y118830D01*
X909339Y113530D01*
X907239Y107900D01*
X904639Y102400D01*
X901973Y98000D01*
X898606Y93570D01*
X894739Y89300D01*
X890339Y85300D01*
X885839Y81900D01*
X881439Y79230D01*
X875673Y76530D01*
X870206Y74470D01*
X864839Y73100D01*
X859306Y72300D01*
X852906Y72030D01*
X846439Y72330D01*
X840939Y73130D01*
X835606Y74570D01*
X830006Y76670D01*
X824639Y79230D01*
X819906Y82100D01*
X815606Y85370D01*
X811206Y89430D01*
X807172Y93830D01*
X803906Y98230D01*
X801272Y102630D01*
X798739Y108100D01*
X796606Y113770D01*
X795206Y119270D01*
X794406Y124830D01*
X794139Y130930D01*
X794439Y137530D01*
X795239Y142800D01*
X796739Y148400D01*
X798806Y153900D01*
X801439Y159470D01*
X804039Y163770D01*
X807472Y168300D01*
X811439Y172600D01*
X816006Y176770D01*
X820172Y179900D01*
X824906Y182734D01*
X830206Y185200D01*
X835839Y187334D01*
X841206Y188700D01*
X846706Y189500D01*
X852906Y189767D01*
X859572Y189467D01*
D02*
G37*
D02*
G36*
X137533Y189800D02*
X142866Y189000D01*
X148466Y187500D01*
X153966Y185433D01*
X159533Y182800D01*
X163933Y180100D01*
X168566Y176600D01*
X172466Y173030D01*
X176733Y168330D01*
X179966Y164030D01*
X182766Y159370D01*
X185200Y154230D01*
X187400Y148430D01*
X188733Y143100D01*
X189533Y137770D01*
X189833Y131300D01*
X189533Y124870D01*
X188733Y119130D01*
X187300Y113800D01*
X185200Y108200D01*
X182733Y103070D01*
X179833Y98200D01*
X176666Y94000D01*
X172333Y89270D01*
X168366Y85670D01*
X163733Y82200D01*
X159300Y79500D01*
X153766Y76930D01*
X148200Y74830D01*
X142800Y73470D01*
X137133Y72600D01*
X130867Y72330D01*
X124500Y72630D01*
X118900Y73500D01*
X113500Y74930D01*
X107967Y77000D01*
X102400Y79630D01*
X98000Y82330D01*
X93633Y85630D01*
X89167Y89730D01*
X85167Y94130D01*
X81967Y98430D01*
X79167Y103100D01*
X76533Y108670D01*
X74667Y113770D01*
X73167Y119600D01*
X72367Y125130D01*
X72100Y131300D01*
X72433Y138000D01*
X73200Y143100D01*
X74767Y148900D01*
X76600Y153970D01*
X79467Y159800D01*
X82100Y164230D01*
X85400Y168600D01*
X89400Y172900D01*
X93900Y177030D01*
X98200Y180230D01*
X102633Y182933D01*
X108167Y185500D01*
X113700Y187600D01*
X119333Y189033D01*
X124666Y189833D01*
X130867Y190100D01*
X137533Y189800D01*
D02*
G37*
D02*
G36*
X859928Y1108467D02*
X865228Y1107667D01*
X870928Y1106167D01*
X876361Y1104100D01*
X881728Y1101533D01*
X886395Y1098700D01*
X890761Y1095400D01*
X895028Y1091500D01*
X899061Y1087067D01*
X902295Y1082767D01*
X905128Y1078033D01*
X907561Y1072900D01*
X909728Y1067200D01*
X911161Y1061500D01*
X911961Y1056233D01*
X912228Y1049967D01*
X911928Y1043400D01*
X911128Y1038000D01*
X909628Y1032400D01*
X907561Y1026867D01*
X905028Y1021600D01*
X902228Y1016900D01*
X898995Y1012600D01*
X894895Y1008133D01*
X890561Y1004200D01*
X886295Y1001000D01*
X881495Y998100D01*
X876161Y995600D01*
X870528Y993467D01*
X865228Y992133D01*
X859528Y991267D01*
X853261Y991000D01*
X846928Y991300D01*
X841195Y992167D01*
X835928Y993567D01*
X830328Y995667D01*
X824994Y998200D01*
X820161Y1001133D01*
X815828Y1004467D01*
X811694Y1008267D01*
X807494Y1012866D01*
X804361Y1017066D01*
X801528Y1021800D01*
X799061Y1027066D01*
X796894Y1032800D01*
X795594Y1038000D01*
X794728Y1043800D01*
X794461Y1049900D01*
X794761Y1056433D01*
X795661Y1062167D01*
X797028Y1067300D01*
X799128Y1072900D01*
X801694Y1078267D01*
X804528Y1082967D01*
X807661Y1087100D01*
X811994Y1091833D01*
X816228Y1095633D01*
X820594Y1098967D01*
X825194Y1101667D01*
X830494Y1104167D01*
X836028Y1106267D01*
X841728Y1107700D01*
X847061Y1108500D01*
X853261Y1108767D01*
X859928Y1108467D01*
D02*
G37*
D02*
G36*
X137300Y1108567D02*
X143034Y1107700D01*
X148300Y1106300D01*
X153900Y1104200D01*
X159267Y1101633D01*
X164000Y1098767D01*
X168200Y1095567D01*
X172834Y1091333D01*
X176434Y1087367D01*
X179967Y1082700D01*
X182400Y1078633D01*
X185234Y1072633D01*
X187300Y1067167D01*
X188600Y1062067D01*
X189500Y1056200D01*
X189767Y1049967D01*
X189467Y1043600D01*
X188600Y1037900D01*
X187200Y1032566D01*
X185100Y1026967D01*
X182534Y1021633D01*
X179867Y1017133D01*
X176634Y1012866D01*
X172500Y1008300D01*
X168067Y1004267D01*
X163800Y1001067D01*
X159167Y998267D01*
X153400Y995533D01*
X148334Y993667D01*
X142500Y992167D01*
X137167Y991367D01*
X130767Y991100D01*
X124334Y991400D01*
X119000Y992200D01*
X113200Y993767D01*
X108133Y995600D01*
X102433Y998400D01*
X97733Y1001200D01*
X93500Y1004433D01*
X89133Y1008467D01*
X84967Y1013033D01*
X81767Y1017366D01*
X79100Y1021833D01*
X76600Y1027167D01*
X74467Y1032800D01*
X73067Y1038333D01*
X72267Y1043733D01*
X72000Y1049967D01*
X72300Y1056600D01*
X73100Y1061867D01*
X74600Y1067567D01*
X76600Y1072833D01*
X79500Y1078867D01*
X81933Y1082900D01*
X85500Y1087567D01*
X89067Y1091467D01*
X93767Y1095733D01*
X97967Y1098900D01*
X102733Y1101767D01*
X108067Y1104267D01*
X113700Y1106400D01*
X119000Y1107733D01*
X124733Y1108600D01*
X130767Y1108867D01*
X137300Y1108567D01*
D02*
G37*
D02*
G36*
X286000Y480567D02*
X289466Y480067D01*
X293433Y479067D01*
X296600Y477900D01*
X303300Y474167D01*
X309500Y468934D01*
X313933Y463634D01*
X317800Y456667D01*
X318900Y453634D01*
X319900Y449534D01*
X320433Y445967D01*
X320600Y441600D01*
X320400Y437034D01*
X319866Y433434D01*
X318933Y429700D01*
X317700Y426334D01*
X314266Y420067D01*
X308933Y413767D01*
X302933Y408734D01*
X296366Y405167D01*
X293200Y404034D01*
X289233Y403067D01*
X285933Y402634D01*
X281333Y402434D01*
X276666Y402667D01*
X273266Y403100D01*
X269433Y404100D01*
X266266Y405267D01*
X259733Y408867D01*
X253700Y413934D01*
X248866Y419634D01*
X248566Y420067D01*
X244966Y426700D01*
X243833Y429934D01*
X242933Y433667D01*
X242400Y437300D01*
X242233Y441600D01*
X242433Y446234D01*
X242966Y449767D01*
X243933Y453634D01*
X245200Y457000D01*
X248900Y463634D01*
X253666Y469267D01*
X259600Y474200D01*
X266566Y478067D01*
X269500Y479100D01*
X273633Y480100D01*
X277033Y480567D01*
X281333Y480767D01*
X286000Y480567D01*
D02*
G37*
D02*
G36*
X286000Y480567D02*
X289466Y480067D01*
X293433Y479067D01*
X296600Y477900D01*
X303300Y474167D01*
X309500Y468934D01*
X313933Y463634D01*
X317800Y456667D01*
X318900Y453634D01*
X319900Y449534D01*
X320433Y445967D01*
X320600Y441600D01*
X320400Y437034D01*
X319866Y433434D01*
X318933Y429700D01*
X317700Y426334D01*
X314266Y420067D01*
X308933Y413767D01*
X302933Y408734D01*
X296366Y405167D01*
X293200Y404034D01*
X289233Y403067D01*
X285933Y402634D01*
X281333Y402434D01*
X276666Y402667D01*
X273266Y403100D01*
X269433Y404100D01*
X266266Y405267D01*
X259733Y408867D01*
X253700Y413934D01*
X248866Y419634D01*
X248566Y420067D01*
X244966Y426700D01*
X243833Y429934D01*
X242933Y433667D01*
X242400Y437300D01*
X242233Y441600D01*
X242433Y446234D01*
X242966Y449767D01*
X243933Y453634D01*
X245200Y457000D01*
X248900Y463634D01*
X253666Y469267D01*
X259600Y474200D01*
X266566Y478067D01*
X269500Y479100D01*
X273633Y480100D01*
X277033Y480567D01*
X281333Y480767D01*
X286000Y480567D01*
D02*
G37*
D02*
G36*
X695033Y477833D02*
X698500Y477333D01*
X702600Y476300D01*
X705633Y475200D01*
X712467Y471366D01*
X718000Y466733D01*
X723267Y460433D01*
X726967Y453666D01*
X728067Y450533D01*
X728967Y446800D01*
X729467Y443266D01*
X729667Y438866D01*
X729467Y434266D01*
X728933Y430666D01*
X728033Y427066D01*
X726767Y423633D01*
X723333Y417333D01*
X718000Y411033D01*
X712000Y406000D01*
X705367Y402400D01*
X702200Y401300D01*
X698400Y400366D01*
X694767Y399833D01*
X690400Y399666D01*
X685833Y399900D01*
X682300Y400400D01*
X678500Y401366D01*
X675200Y402566D01*
X668433Y406333D01*
X662800Y411100D01*
X657900Y416966D01*
X653967Y424100D01*
X652900Y427133D01*
X651967Y431033D01*
X651467Y434533D01*
X651300Y438866D01*
X651533Y443466D01*
X652000Y446900D01*
X653133Y451433D01*
X654067Y453933D01*
X657900Y460766D01*
X662967Y466766D01*
X668467Y471366D01*
X675667Y475366D01*
X678567Y476366D01*
X682700Y477366D01*
X686100Y477833D01*
X690400Y478033D01*
X695033Y477833D01*
D02*
G37*
D02*
G36*
X695033Y477833D02*
X698500Y477333D01*
X702600Y476300D01*
X705633Y475200D01*
X712467Y471366D01*
X718000Y466733D01*
X723267Y460433D01*
X726967Y453666D01*
X728067Y450533D01*
X728967Y446800D01*
X729467Y443266D01*
X729667Y438866D01*
X729467Y434266D01*
X728933Y430666D01*
X728033Y427066D01*
X726767Y423633D01*
X723333Y417333D01*
X718000Y411033D01*
X712000Y406000D01*
X705367Y402400D01*
X702200Y401300D01*
X698400Y400366D01*
X694767Y399833D01*
X690400Y399666D01*
X685833Y399900D01*
X682300Y400400D01*
X678500Y401366D01*
X675200Y402566D01*
X668433Y406333D01*
X662800Y411100D01*
X657900Y416966D01*
X653967Y424100D01*
X652900Y427133D01*
X651967Y431033D01*
X651467Y434533D01*
X651300Y438866D01*
X651533Y443466D01*
X652000Y446900D01*
X653133Y451433D01*
X654067Y453933D01*
X657900Y460766D01*
X662967Y466766D01*
X668467Y471366D01*
X675667Y475366D01*
X678567Y476366D01*
X682700Y477366D01*
X686100Y477833D01*
X690400Y478033D01*
X695033Y477833D01*
D02*
G37*
D02*
D18*
X199500Y1150600D02*
X784500Y1150600D01*
X198500Y1149600D02*
X785500Y1149600D01*
X198500Y1148600D02*
X785500Y1148600D01*
X198500Y1147600D02*
X785500Y1147600D01*
X199500Y1146600D02*
X784500Y1146600D01*
X200500Y1145600D02*
X783500Y1145600D01*
X202500Y1144600D02*
X782500Y1144600D01*
X203500Y1143600D02*
X780500Y1143600D01*
X204500Y1142600D02*
X779500Y1142600D01*
X206500Y1141600D02*
X778500Y1141600D01*
X207500Y1140600D02*
X776500Y1140600D01*
X208500Y1139600D02*
X775500Y1139600D01*
X209500Y1138600D02*
X774500Y1138600D01*
X210500Y1137600D02*
X773500Y1137600D01*
X211500Y1136600D02*
X772500Y1136600D01*
X212500Y1135600D02*
X771500Y1135600D01*
X213500Y1134600D02*
X770500Y1134600D01*
X214500Y1133600D02*
X769500Y1133600D01*
X215500Y1132600D02*
X768500Y1132600D01*
X216500Y1131600D02*
X767500Y1131600D01*
X217500Y1130600D02*
X766500Y1130600D01*
X218500Y1129600D02*
X765500Y1129600D01*
X219500Y1128600D02*
X764500Y1128600D01*
X220500Y1127600D02*
X763500Y1127600D01*
X221500Y1126600D02*
X762500Y1126600D01*
X222500Y1125600D02*
X761500Y1125600D01*
X222500Y1124600D02*
X761500Y1124600D01*
X223500Y1123600D02*
X760500Y1123600D01*
X224500Y1122600D02*
X759500Y1122600D01*
X225500Y1121600D02*
X758500Y1121600D01*
X225500Y1120600D02*
X758500Y1120600D01*
X226500Y1119600D02*
X757500Y1119600D01*
X227500Y1118600D02*
X756500Y1118600D01*
X228500Y1117600D02*
X755500Y1117600D01*
X228500Y1116600D02*
X755500Y1116600D01*
X229500Y1115600D02*
X754500Y1115600D01*
X230500Y1114600D02*
X753500Y1114600D01*
X230500Y1113600D02*
X753500Y1113600D01*
X231500Y1112600D02*
X752500Y1112600D01*
X232500Y1111600D02*
X752500Y1111600D01*
X232500Y1110600D02*
X751500Y1110600D01*
X233500Y1109600D02*
X750500Y1109600D01*
X233500Y1108600D02*
X750500Y1108600D01*
X234500Y1107600D02*
X749500Y1107600D01*
X235500Y1106600D02*
X748500Y1106600D01*
X235500Y1105600D02*
X748500Y1105600D01*
X236500Y1104600D02*
X747500Y1104600D01*
X236500Y1103600D02*
X747500Y1103600D01*
X237500Y1102600D02*
X746500Y1102600D01*
X237500Y1101600D02*
X746500Y1101600D01*
X237500Y1100600D02*
X745500Y1100600D01*
X238500Y1099600D02*
X745500Y1099600D01*
X238500Y1098600D02*
X745500Y1098600D01*
X239500Y1097600D02*
X744500Y1097600D01*
X239500Y1096600D02*
X744500Y1096600D01*
X240500Y1095600D02*
X743500Y1095600D01*
X240500Y1094600D02*
X743500Y1094600D01*
X241500Y1093600D02*
X742500Y1093600D01*
X241500Y1092600D02*
X742500Y1092600D01*
X241500Y1091600D02*
X742500Y1091600D01*
X242500Y1090600D02*
X741500Y1090600D01*
X242500Y1089600D02*
X741500Y1089600D01*
X242500Y1088600D02*
X741500Y1088600D01*
X243500Y1087600D02*
X740500Y1087600D01*
X243500Y1086600D02*
X740500Y1086600D01*
X244500Y1085600D02*
X739500Y1085600D01*
X244500Y1084600D02*
X739500Y1084600D01*
X244500Y1083600D02*
X739500Y1083600D01*
X244500Y1082600D02*
X739500Y1082600D01*
X245500Y1081600D02*
X738500Y1081600D01*
X245500Y1080600D02*
X738500Y1080600D01*
X245500Y1079600D02*
X738500Y1079600D01*
X245500Y1078600D02*
X738500Y1078600D01*
X246500Y1077600D02*
X737500Y1077600D01*
X246500Y1076600D02*
X737500Y1076600D01*
X246500Y1075600D02*
X737500Y1075600D01*
X246500Y1074600D02*
X737500Y1074600D01*
X247500Y1073600D02*
X736500Y1073600D01*
X247500Y1072600D02*
X736500Y1072600D01*
X247500Y1071600D02*
X736500Y1071600D01*
X247500Y1070600D02*
X736500Y1070600D01*
X247500Y1069600D02*
X736500Y1069600D01*
X247500Y1068600D02*
X736500Y1068600D01*
X248500Y1067600D02*
X735500Y1067600D01*
X248500Y1066600D02*
X735500Y1066600D01*
X248500Y1065600D02*
X735500Y1065600D01*
X248500Y1064600D02*
X735500Y1064600D01*
X248500Y1063600D02*
X271500Y1063600D01*
X363500Y1063600D02*
X409500Y1063600D01*
X425500Y1063600D02*
X518500Y1063600D01*
X549500Y1063600D02*
X579500Y1063600D01*
X610500Y1063600D02*
X656500Y1063600D01*
X672500Y1063600D02*
X735500Y1063600D01*
X248500Y1062600D02*
X269500Y1062600D01*
X365500Y1062600D02*
X404500Y1062600D01*
X430500Y1062600D02*
X516500Y1062600D01*
X549500Y1062600D02*
X579500Y1062600D01*
X611500Y1062600D02*
X651500Y1062600D01*
X676500Y1062600D02*
X735500Y1062600D01*
X248500Y1061600D02*
X268500Y1061600D01*
X366500Y1061600D02*
X401500Y1061600D01*
X433500Y1061600D02*
X515500Y1061600D01*
X549500Y1061600D02*
X579500Y1061600D01*
X613500Y1061600D02*
X648500Y1061600D01*
X679500Y1061600D02*
X735500Y1061600D01*
X249500Y1060600D02*
X267500Y1060600D01*
X367500Y1060600D02*
X398500Y1060600D01*
X436500Y1060600D02*
X514500Y1060600D01*
X549500Y1060600D02*
X579500Y1060600D01*
X614500Y1060600D02*
X645500Y1060600D01*
X683500Y1060600D02*
X734500Y1060600D01*
X249500Y1059600D02*
X267500Y1059600D01*
X368500Y1059600D02*
X396500Y1059600D01*
X439500Y1059600D02*
X513500Y1059600D01*
X549500Y1059600D02*
X579500Y1059600D01*
X614500Y1059600D02*
X642500Y1059600D01*
X685500Y1059600D02*
X734500Y1059600D01*
X249500Y1058600D02*
X266500Y1058600D01*
X368500Y1058600D02*
X394500Y1058600D01*
X440500Y1058600D02*
X513500Y1058600D01*
X549500Y1058600D02*
X579500Y1058600D01*
X615500Y1058600D02*
X640500Y1058600D01*
X687500Y1058600D02*
X734500Y1058600D01*
X249500Y1057600D02*
X266500Y1057600D01*
X369500Y1057600D02*
X392500Y1057600D01*
X442500Y1057600D02*
X512500Y1057600D01*
X549500Y1057600D02*
X579500Y1057600D01*
X615500Y1057600D02*
X639500Y1057600D01*
X689500Y1057600D02*
X734500Y1057600D01*
X249500Y1056600D02*
X265500Y1056600D01*
X369500Y1056600D02*
X390500Y1056600D01*
X444500Y1056600D02*
X512500Y1056600D01*
X549500Y1056600D02*
X579500Y1056600D01*
X616500Y1056600D02*
X637500Y1056600D01*
X691500Y1056600D02*
X734500Y1056600D01*
X249500Y1055600D02*
X265500Y1055600D01*
X369500Y1055600D02*
X388500Y1055600D01*
X446500Y1055600D02*
X512500Y1055600D01*
X549500Y1055600D02*
X579500Y1055600D01*
X616500Y1055600D02*
X635500Y1055600D01*
X693500Y1055600D02*
X734500Y1055600D01*
X249500Y1054600D02*
X265500Y1054600D01*
X369500Y1054600D02*
X387500Y1054600D01*
X447500Y1054600D02*
X512500Y1054600D01*
X549500Y1054600D02*
X579500Y1054600D01*
X616500Y1054600D02*
X633500Y1054600D01*
X694500Y1054600D02*
X734500Y1054600D01*
X249500Y1053600D02*
X265500Y1053600D01*
X369500Y1053600D02*
X385500Y1053600D01*
X449500Y1053600D02*
X512500Y1053600D01*
X549500Y1053600D02*
X579500Y1053600D01*
X616500Y1053600D02*
X632500Y1053600D01*
X695500Y1053600D02*
X734500Y1053600D01*
X249500Y1052600D02*
X265500Y1052600D01*
X369500Y1052600D02*
X384500Y1052600D01*
X450500Y1052600D02*
X512500Y1052600D01*
X549500Y1052600D02*
X579500Y1052600D01*
X616500Y1052600D02*
X631500Y1052600D01*
X697500Y1052600D02*
X734500Y1052600D01*
X249500Y1051600D02*
X265500Y1051600D01*
X369500Y1051600D02*
X383500Y1051600D01*
X451500Y1051600D02*
X512500Y1051600D01*
X549500Y1051600D02*
X579500Y1051600D01*
X616500Y1051600D02*
X630500Y1051600D01*
X698500Y1051600D02*
X734500Y1051600D01*
X249500Y1050600D02*
X265500Y1050600D01*
X369500Y1050600D02*
X382500Y1050600D01*
X452500Y1050600D02*
X512500Y1050600D01*
X549500Y1050600D02*
X579500Y1050600D01*
X616500Y1050600D02*
X628500Y1050600D01*
X699500Y1050600D02*
X734500Y1050600D01*
X249500Y1049600D02*
X265500Y1049600D01*
X369500Y1049600D02*
X381500Y1049600D01*
X454500Y1049600D02*
X512500Y1049600D01*
X549500Y1049600D02*
X579500Y1049600D01*
X616500Y1049600D02*
X627500Y1049600D01*
X700500Y1049600D02*
X734500Y1049600D01*
X249500Y1048600D02*
X265500Y1048600D01*
X369500Y1048600D02*
X380500Y1048600D01*
X455500Y1048600D02*
X512500Y1048600D01*
X549500Y1048600D02*
X579500Y1048600D01*
X616500Y1048600D02*
X626500Y1048600D01*
X701500Y1048600D02*
X734500Y1048600D01*
X249500Y1047600D02*
X265500Y1047600D01*
X369500Y1047600D02*
X379500Y1047600D01*
X455500Y1047600D02*
X512500Y1047600D01*
X549500Y1047600D02*
X579500Y1047600D01*
X616500Y1047600D02*
X625500Y1047600D01*
X702500Y1047600D02*
X734500Y1047600D01*
X249500Y1046600D02*
X265500Y1046600D01*
X369500Y1046600D02*
X378500Y1046600D01*
X456500Y1046600D02*
X512500Y1046600D01*
X549500Y1046600D02*
X579500Y1046600D01*
X616500Y1046600D02*
X625500Y1046600D01*
X703500Y1046600D02*
X734500Y1046600D01*
X249500Y1045600D02*
X265500Y1045600D01*
X369500Y1045600D02*
X377500Y1045600D01*
X457500Y1045600D02*
X512500Y1045600D01*
X549500Y1045600D02*
X579500Y1045600D01*
X616500Y1045600D02*
X624500Y1045600D01*
X704500Y1045600D02*
X734500Y1045600D01*
X249500Y1044600D02*
X265500Y1044600D01*
X369500Y1044600D02*
X376500Y1044600D01*
X458500Y1044600D02*
X512500Y1044600D01*
X549500Y1044600D02*
X579500Y1044600D01*
X616500Y1044600D02*
X623500Y1044600D01*
X705500Y1044600D02*
X734500Y1044600D01*
X249500Y1043600D02*
X265500Y1043600D01*
X369500Y1043600D02*
X376500Y1043600D01*
X459500Y1043600D02*
X512500Y1043600D01*
X549500Y1043600D02*
X579500Y1043600D01*
X616500Y1043600D02*
X622500Y1043600D01*
X705500Y1043600D02*
X734500Y1043600D01*
X249500Y1042600D02*
X265500Y1042600D01*
X369500Y1042600D02*
X375500Y1042600D01*
X460500Y1042600D02*
X512500Y1042600D01*
X549500Y1042600D02*
X579500Y1042600D01*
X616500Y1042600D02*
X621500Y1042600D01*
X706500Y1042600D02*
X734500Y1042600D01*
X249500Y1041600D02*
X265500Y1041600D01*
X369500Y1041600D02*
X374500Y1041600D01*
X460500Y1041600D02*
X512500Y1041600D01*
X549500Y1041600D02*
X579500Y1041600D01*
X616500Y1041600D02*
X621500Y1041600D01*
X707500Y1041600D02*
X734500Y1041600D01*
X249500Y1040600D02*
X265500Y1040600D01*
X369500Y1040600D02*
X373500Y1040600D01*
X461500Y1040600D02*
X512500Y1040600D01*
X549500Y1040600D02*
X579500Y1040600D01*
X616500Y1040600D02*
X620500Y1040600D01*
X707500Y1040600D02*
X734500Y1040600D01*
X249500Y1039600D02*
X265500Y1039600D01*
X370500Y1039600D02*
X373500Y1039600D01*
X461500Y1039600D02*
X512500Y1039600D01*
X549500Y1039600D02*
X579500Y1039600D01*
X616500Y1039600D02*
X619500Y1039600D01*
X708500Y1039600D02*
X734500Y1039600D01*
X248500Y1038600D02*
X265500Y1038600D01*
X371500Y1038600D02*
X371500Y1038600D01*
X462500Y1038600D02*
X512500Y1038600D01*
X549500Y1038600D02*
X579500Y1038600D01*
X616500Y1038600D02*
X619500Y1038600D01*
X709500Y1038600D02*
X735500Y1038600D01*
X248500Y1037600D02*
X265500Y1037600D01*
X462500Y1037600D02*
X512500Y1037600D01*
X549500Y1037600D02*
X579500Y1037600D01*
X616500Y1037600D02*
X618500Y1037600D01*
X709500Y1037600D02*
X735500Y1037600D01*
X248500Y1036600D02*
X265500Y1036600D01*
X463500Y1036600D02*
X512500Y1036600D01*
X549500Y1036600D02*
X579500Y1036600D01*
X616500Y1036600D02*
X618500Y1036600D01*
X710500Y1036600D02*
X735500Y1036600D01*
X248500Y1035600D02*
X265500Y1035600D01*
X463500Y1035600D02*
X512500Y1035600D01*
X616500Y1035600D02*
X617500Y1035600D01*
X710500Y1035600D02*
X735500Y1035600D01*
X248500Y1034600D02*
X265500Y1034600D01*
X464500Y1034600D02*
X512500Y1034600D01*
X616500Y1034600D02*
X617500Y1034600D01*
X711500Y1034600D02*
X735500Y1034600D01*
X248500Y1033600D02*
X265500Y1033600D01*
X465500Y1033600D02*
X512500Y1033600D01*
X616500Y1033600D02*
X616500Y1033600D01*
X711500Y1033600D02*
X735500Y1033600D01*
X248500Y1032600D02*
X265500Y1032600D01*
X465500Y1032600D02*
X512500Y1032600D01*
X616500Y1032600D02*
X616500Y1032600D01*
X712500Y1032600D02*
X735500Y1032600D01*
X247500Y1031600D02*
X265500Y1031600D01*
X465500Y1031600D02*
X512500Y1031600D01*
X712500Y1031600D02*
X736500Y1031600D01*
X247500Y1030600D02*
X265500Y1030600D01*
X466500Y1030600D02*
X512500Y1030600D01*
X712500Y1030600D02*
X736500Y1030600D01*
X247500Y1029600D02*
X265500Y1029600D01*
X466500Y1029600D02*
X512500Y1029600D01*
X713500Y1029600D02*
X736500Y1029600D01*
X247500Y1028600D02*
X265500Y1028600D01*
X466500Y1028600D02*
X512500Y1028600D01*
X713500Y1028600D02*
X736500Y1028600D01*
X247500Y1027600D02*
X265500Y1027600D01*
X467500Y1027600D02*
X540500Y1027600D01*
X713500Y1027600D02*
X736500Y1027600D01*
X247500Y1026600D02*
X265500Y1026600D01*
X467500Y1026600D02*
X540500Y1026600D01*
X714500Y1026600D02*
X736500Y1026600D01*
X246500Y1025600D02*
X265500Y1025600D01*
X467500Y1025600D02*
X540500Y1025600D01*
X714500Y1025600D02*
X737500Y1025600D01*
X246500Y1024600D02*
X265500Y1024600D01*
X468500Y1024600D02*
X540500Y1024600D01*
X714500Y1024600D02*
X737500Y1024600D01*
X246500Y1023600D02*
X265500Y1023600D01*
X468500Y1023600D02*
X540500Y1023600D01*
X715500Y1023600D02*
X737500Y1023600D01*
X246500Y1022600D02*
X265500Y1022600D01*
X468500Y1022600D02*
X540500Y1022600D01*
X715500Y1022600D02*
X737500Y1022600D01*
X245500Y1021600D02*
X265500Y1021600D01*
X468500Y1021600D02*
X540500Y1021600D01*
X715500Y1021600D02*
X738500Y1021600D01*
X245500Y1020600D02*
X265500Y1020600D01*
X468500Y1020600D02*
X540500Y1020600D01*
X715500Y1020600D02*
X738500Y1020600D01*
X245500Y1019600D02*
X265500Y1019600D01*
X469500Y1019600D02*
X540500Y1019600D01*
X715500Y1019600D02*
X738500Y1019600D01*
X245500Y1018600D02*
X265500Y1018600D01*
X469500Y1018600D02*
X540500Y1018600D01*
X715500Y1018600D02*
X738500Y1018600D01*
X244500Y1017600D02*
X265500Y1017600D01*
X469500Y1017600D02*
X540500Y1017600D01*
X716500Y1017600D02*
X739500Y1017600D01*
X244500Y1016600D02*
X265500Y1016600D01*
X469500Y1016600D02*
X540500Y1016600D01*
X716500Y1016600D02*
X739500Y1016600D01*
X244500Y1015600D02*
X265500Y1015600D01*
X469500Y1015600D02*
X540500Y1015600D01*
X716500Y1015600D02*
X739500Y1015600D01*
X244500Y1014600D02*
X265500Y1014600D01*
X469500Y1014600D02*
X540500Y1014600D01*
X716500Y1014600D02*
X739500Y1014600D01*
X243500Y1013600D02*
X265500Y1013600D01*
X469500Y1013600D02*
X540500Y1013600D01*
X716500Y1013600D02*
X740500Y1013600D01*
X243500Y1012600D02*
X265500Y1012600D01*
X469500Y1012600D02*
X540500Y1012600D01*
X716500Y1012600D02*
X740500Y1012600D01*
X243500Y1011600D02*
X265500Y1011600D01*
X469500Y1011600D02*
X540500Y1011600D01*
X716500Y1011600D02*
X740500Y1011600D01*
X242500Y1010600D02*
X265500Y1010600D01*
X469500Y1010600D02*
X540500Y1010600D01*
X716500Y1010600D02*
X741500Y1010600D01*
X242500Y1009600D02*
X265500Y1009600D01*
X469500Y1009600D02*
X540500Y1009600D01*
X716500Y1009600D02*
X741500Y1009600D01*
X241500Y1008600D02*
X265500Y1008600D01*
X469500Y1008600D02*
X540500Y1008600D01*
X716500Y1008600D02*
X742500Y1008600D01*
X241500Y1007600D02*
X265500Y1007600D01*
X469500Y1007600D02*
X540500Y1007600D01*
X716500Y1007600D02*
X742500Y1007600D01*
X241500Y1006600D02*
X265500Y1006600D01*
X469500Y1006600D02*
X540500Y1006600D01*
X715500Y1006600D02*
X742500Y1006600D01*
X240500Y1005600D02*
X265500Y1005600D01*
X469500Y1005600D02*
X540500Y1005600D01*
X715500Y1005600D02*
X743500Y1005600D01*
X240500Y1004600D02*
X265500Y1004600D01*
X468500Y1004600D02*
X540500Y1004600D01*
X715500Y1004600D02*
X743500Y1004600D01*
X240500Y1003600D02*
X265500Y1003600D01*
X468500Y1003600D02*
X540500Y1003600D01*
X715500Y1003600D02*
X743500Y1003600D01*
X239500Y1002600D02*
X265500Y1002600D01*
X468500Y1002600D02*
X540500Y1002600D01*
X715500Y1002600D02*
X744500Y1002600D01*
X239500Y1001600D02*
X265500Y1001600D01*
X468500Y1001600D02*
X540500Y1001600D01*
X714500Y1001600D02*
X744500Y1001600D01*
X238500Y1000600D02*
X265500Y1000600D01*
X467500Y1000600D02*
X540500Y1000600D01*
X714500Y1000600D02*
X745500Y1000600D01*
X238500Y999600D02*
X265500Y999600D01*
X467500Y999600D02*
X540500Y999600D01*
X714500Y999600D02*
X745500Y999600D01*
X237500Y998600D02*
X265500Y998600D01*
X467500Y998600D02*
X540500Y998600D01*
X714500Y998600D02*
X746500Y998600D01*
X237500Y997600D02*
X265500Y997600D01*
X467500Y997600D02*
X540500Y997600D01*
X713500Y997600D02*
X746500Y997600D01*
X236500Y996600D02*
X265500Y996600D01*
X466500Y996600D02*
X512500Y996600D01*
X713500Y996600D02*
X747500Y996600D01*
X236500Y995600D02*
X265500Y995600D01*
X466500Y995600D02*
X512500Y995600D01*
X713500Y995600D02*
X747500Y995600D01*
X235500Y994600D02*
X265500Y994600D01*
X466500Y994600D02*
X512500Y994600D01*
X712500Y994600D02*
X748500Y994600D01*
X235500Y993600D02*
X265500Y993600D01*
X465500Y993600D02*
X512500Y993600D01*
X712500Y993600D02*
X748500Y993600D01*
X234500Y992600D02*
X265500Y992600D01*
X465500Y992600D02*
X512500Y992600D01*
X616500Y992600D02*
X616500Y992600D01*
X712500Y992600D02*
X749500Y992600D01*
X233500Y991600D02*
X265500Y991600D01*
X464500Y991600D02*
X512500Y991600D01*
X616500Y991600D02*
X616500Y991600D01*
X711500Y991600D02*
X749500Y991600D01*
X233500Y990600D02*
X265500Y990600D01*
X464500Y990600D02*
X512500Y990600D01*
X616500Y990600D02*
X617500Y990600D01*
X711500Y990600D02*
X750500Y990600D01*
X232500Y989600D02*
X265500Y989600D01*
X463500Y989600D02*
X512500Y989600D01*
X616500Y989600D02*
X617500Y989600D01*
X710500Y989600D02*
X751500Y989600D01*
X232500Y988600D02*
X265500Y988600D01*
X463500Y988600D02*
X512500Y988600D01*
X549500Y988600D02*
X579500Y988600D01*
X616500Y988600D02*
X618500Y988600D01*
X710500Y988600D02*
X751500Y988600D01*
X231500Y987600D02*
X265500Y987600D01*
X462500Y987600D02*
X512500Y987600D01*
X549500Y987600D02*
X579500Y987600D01*
X616500Y987600D02*
X618500Y987600D01*
X711500Y987600D02*
X752500Y987600D01*
X230500Y986600D02*
X265500Y986600D01*
X371500Y986600D02*
X372500Y986600D01*
X462500Y986600D02*
X512500Y986600D01*
X549500Y986600D02*
X579500Y986600D01*
X616500Y986600D02*
X619500Y986600D01*
X712500Y986600D02*
X752500Y986600D01*
X230500Y985600D02*
X265500Y985600D01*
X370500Y985600D02*
X373500Y985600D01*
X461500Y985600D02*
X512500Y985600D01*
X549500Y985600D02*
X579500Y985600D01*
X616500Y985600D02*
X620500Y985600D01*
X713500Y985600D02*
X753500Y985600D01*
X229500Y984600D02*
X265500Y984600D01*
X369500Y984600D02*
X373500Y984600D01*
X461500Y984600D02*
X512500Y984600D01*
X549500Y984600D02*
X579500Y984600D01*
X616500Y984600D02*
X620500Y984600D01*
X713500Y984600D02*
X754500Y984600D01*
X229500Y983600D02*
X265500Y983600D01*
X369500Y983600D02*
X374500Y983600D01*
X460500Y983600D02*
X512500Y983600D01*
X549500Y983600D02*
X579500Y983600D01*
X616500Y983600D02*
X621500Y983600D01*
X714500Y983600D02*
X754500Y983600D01*
X32500Y982600D02*
X32500Y982600D01*
X228500Y982600D02*
X265500Y982600D01*
X369500Y982600D02*
X375500Y982600D01*
X459500Y982600D02*
X512500Y982600D01*
X549500Y982600D02*
X579500Y982600D01*
X616500Y982600D02*
X621500Y982600D01*
X715500Y982600D02*
X755500Y982600D01*
X951500Y982600D02*
X951500Y982600D01*
X30500Y981600D02*
X34500Y981600D01*
X227500Y981600D02*
X265500Y981600D01*
X369500Y981600D02*
X376500Y981600D01*
X459500Y981600D02*
X512500Y981600D01*
X549500Y981600D02*
X579500Y981600D01*
X616500Y981600D02*
X622500Y981600D01*
X716500Y981600D02*
X756500Y981600D01*
X949500Y981600D02*
X952500Y981600D01*
X30500Y980600D02*
X34500Y980600D01*
X226500Y980600D02*
X265500Y980600D01*
X369500Y980600D02*
X376500Y980600D01*
X458500Y980600D02*
X512500Y980600D01*
X549500Y980600D02*
X579500Y980600D01*
X616500Y980600D02*
X623500Y980600D01*
X716500Y980600D02*
X757500Y980600D01*
X949500Y980600D02*
X953500Y980600D01*
X30500Y979600D02*
X35500Y979600D01*
X226500Y979600D02*
X265500Y979600D01*
X369500Y979600D02*
X377500Y979600D01*
X457500Y979600D02*
X512500Y979600D01*
X549500Y979600D02*
X579500Y979600D01*
X616500Y979600D02*
X624500Y979600D01*
X717500Y979600D02*
X757500Y979600D01*
X948500Y979600D02*
X953500Y979600D01*
X30500Y978600D02*
X36500Y978600D01*
X225500Y978600D02*
X265500Y978600D01*
X369500Y978600D02*
X378500Y978600D01*
X456500Y978600D02*
X512500Y978600D01*
X549500Y978600D02*
X579500Y978600D01*
X616500Y978600D02*
X625500Y978600D01*
X718500Y978600D02*
X758500Y978600D01*
X947500Y978600D02*
X953500Y978600D01*
X30500Y977600D02*
X37500Y977600D01*
X224500Y977600D02*
X265500Y977600D01*
X369500Y977600D02*
X379500Y977600D01*
X455500Y977600D02*
X512500Y977600D01*
X549500Y977600D02*
X579500Y977600D01*
X616500Y977600D02*
X625500Y977600D01*
X719500Y977600D02*
X759500Y977600D01*
X947500Y977600D02*
X953500Y977600D01*
X30500Y976600D02*
X37500Y976600D01*
X223500Y976600D02*
X265500Y976600D01*
X369500Y976600D02*
X380500Y976600D01*
X454500Y976600D02*
X512500Y976600D01*
X549500Y976600D02*
X579500Y976600D01*
X616500Y976600D02*
X626500Y976600D01*
X719500Y976600D02*
X760500Y976600D01*
X946500Y976600D02*
X953500Y976600D01*
X30500Y975600D02*
X38500Y975600D01*
X223500Y975600D02*
X265500Y975600D01*
X369500Y975600D02*
X381500Y975600D01*
X453500Y975600D02*
X512500Y975600D01*
X549500Y975600D02*
X579500Y975600D01*
X616500Y975600D02*
X627500Y975600D01*
X720500Y975600D02*
X760500Y975600D01*
X945500Y975600D02*
X953500Y975600D01*
X30500Y974600D02*
X39500Y974600D01*
X222500Y974600D02*
X265500Y974600D01*
X369500Y974600D02*
X382500Y974600D01*
X452500Y974600D02*
X512500Y974600D01*
X549500Y974600D02*
X579500Y974600D01*
X616500Y974600D02*
X629500Y974600D01*
X721500Y974600D02*
X761500Y974600D01*
X944500Y974600D02*
X953500Y974600D01*
X30500Y973600D02*
X40500Y973600D01*
X221500Y973600D02*
X265500Y973600D01*
X369500Y973600D02*
X383500Y973600D01*
X451500Y973600D02*
X512500Y973600D01*
X549500Y973600D02*
X579500Y973600D01*
X616500Y973600D02*
X630500Y973600D01*
X722500Y973600D02*
X762500Y973600D01*
X943500Y973600D02*
X953500Y973600D01*
X30500Y972600D02*
X41500Y972600D01*
X220500Y972600D02*
X265500Y972600D01*
X369500Y972600D02*
X384500Y972600D01*
X450500Y972600D02*
X512500Y972600D01*
X549500Y972600D02*
X579500Y972600D01*
X616500Y972600D02*
X631500Y972600D01*
X722500Y972600D02*
X763500Y972600D01*
X942500Y972600D02*
X953500Y972600D01*
X30500Y971600D02*
X41500Y971600D01*
X219500Y971600D02*
X265500Y971600D01*
X369500Y971600D02*
X386500Y971600D01*
X449500Y971600D02*
X512500Y971600D01*
X549500Y971600D02*
X579500Y971600D01*
X616500Y971600D02*
X632500Y971600D01*
X723500Y971600D02*
X764500Y971600D01*
X942500Y971600D02*
X953500Y971600D01*
X30500Y970600D02*
X42500Y970600D01*
X218500Y970600D02*
X265500Y970600D01*
X369500Y970600D02*
X387500Y970600D01*
X447500Y970600D02*
X512500Y970600D01*
X549500Y970600D02*
X579500Y970600D01*
X616500Y970600D02*
X634500Y970600D01*
X724500Y970600D02*
X765500Y970600D01*
X941500Y970600D02*
X953500Y970600D01*
X30500Y969600D02*
X43500Y969600D01*
X217500Y969600D02*
X265500Y969600D01*
X369500Y969600D02*
X388500Y969600D01*
X446500Y969600D02*
X512500Y969600D01*
X549500Y969600D02*
X579500Y969600D01*
X616500Y969600D02*
X635500Y969600D01*
X725500Y969600D02*
X766500Y969600D01*
X940500Y969600D02*
X953500Y969600D01*
X30500Y968600D02*
X44500Y968600D01*
X216500Y968600D02*
X265500Y968600D01*
X369500Y968600D02*
X390500Y968600D01*
X444500Y968600D02*
X512500Y968600D01*
X549500Y968600D02*
X579500Y968600D01*
X616500Y968600D02*
X637500Y968600D01*
X726500Y968600D02*
X766500Y968600D01*
X939500Y968600D02*
X953500Y968600D01*
X30500Y967600D02*
X45500Y967600D01*
X216500Y967600D02*
X266500Y967600D01*
X369500Y967600D02*
X392500Y967600D01*
X442500Y967600D02*
X512500Y967600D01*
X549500Y967600D02*
X579500Y967600D01*
X615500Y967600D02*
X639500Y967600D01*
X726500Y967600D02*
X767500Y967600D01*
X938500Y967600D02*
X953500Y967600D01*
X30500Y966600D02*
X46500Y966600D01*
X215500Y966600D02*
X266500Y966600D01*
X368500Y966600D02*
X394500Y966600D01*
X440500Y966600D02*
X513500Y966600D01*
X549500Y966600D02*
X579500Y966600D01*
X615500Y966600D02*
X641500Y966600D01*
X727500Y966600D02*
X768500Y966600D01*
X937500Y966600D02*
X953500Y966600D01*
X30500Y965600D02*
X47500Y965600D01*
X214500Y965600D02*
X267500Y965600D01*
X368500Y965600D02*
X396500Y965600D01*
X438500Y965600D02*
X513500Y965600D01*
X549500Y965600D02*
X579500Y965600D01*
X614500Y965600D02*
X643500Y965600D01*
X728500Y965600D02*
X769500Y965600D01*
X936500Y965600D02*
X953500Y965600D01*
X30500Y964600D02*
X48500Y964600D01*
X213500Y964600D02*
X267500Y964600D01*
X367500Y964600D02*
X399500Y964600D01*
X436500Y964600D02*
X514500Y964600D01*
X549500Y964600D02*
X579500Y964600D01*
X614500Y964600D02*
X645500Y964600D01*
X729500Y964600D02*
X770500Y964600D01*
X935500Y964600D02*
X953500Y964600D01*
X30500Y963600D02*
X49500Y963600D01*
X211500Y963600D02*
X268500Y963600D01*
X366500Y963600D02*
X402500Y963600D01*
X432500Y963600D02*
X515500Y963600D01*
X549500Y963600D02*
X579500Y963600D01*
X613500Y963600D02*
X648500Y963600D01*
X729500Y963600D02*
X771500Y963600D01*
X934500Y963600D02*
X953500Y963600D01*
X30500Y962600D02*
X50500Y962600D01*
X210500Y962600D02*
X270500Y962600D01*
X365500Y962600D02*
X405500Y962600D01*
X429500Y962600D02*
X516500Y962600D01*
X549500Y962600D02*
X579500Y962600D01*
X611500Y962600D02*
X651500Y962600D01*
X730500Y962600D02*
X773500Y962600D01*
X933500Y962600D02*
X953500Y962600D01*
X30500Y961600D02*
X52500Y961600D01*
X209500Y961600D02*
X272500Y961600D01*
X362500Y961600D02*
X410500Y961600D01*
X424500Y961600D02*
X518500Y961600D01*
X549500Y961600D02*
X579500Y961600D01*
X609500Y961600D02*
X657500Y961600D01*
X671500Y961600D02*
X674500Y961600D01*
X731500Y961600D02*
X774500Y961600D01*
X932500Y961600D02*
X953500Y961600D01*
X30500Y960600D02*
X53500Y960600D01*
X208500Y960600D02*
X675500Y960600D01*
X732500Y960600D02*
X775500Y960600D01*
X930500Y960600D02*
X953500Y960600D01*
X30500Y959600D02*
X54500Y959600D01*
X207500Y959600D02*
X676500Y959600D01*
X732500Y959600D02*
X776500Y959600D01*
X929500Y959600D02*
X953500Y959600D01*
X30500Y958600D02*
X55500Y958600D01*
X206500Y958600D02*
X677500Y958600D01*
X733500Y958600D02*
X777500Y958600D01*
X928500Y958600D02*
X953500Y958600D01*
X30500Y957600D02*
X56500Y957600D01*
X204500Y957600D02*
X678500Y957600D01*
X734500Y957600D02*
X778500Y957600D01*
X927500Y957600D02*
X953500Y957600D01*
X30500Y956600D02*
X58500Y956600D01*
X203500Y956600D02*
X678500Y956600D01*
X735500Y956600D02*
X780500Y956600D01*
X925500Y956600D02*
X953500Y956600D01*
X30500Y955600D02*
X59500Y955600D01*
X202500Y955600D02*
X679500Y955600D01*
X735500Y955600D02*
X781500Y955600D01*
X924500Y955600D02*
X953500Y955600D01*
X30500Y954600D02*
X60500Y954600D01*
X200500Y954600D02*
X680500Y954600D01*
X736500Y954600D02*
X783500Y954600D01*
X923500Y954600D02*
X953500Y954600D01*
X30500Y953600D02*
X62500Y953600D01*
X199500Y953600D02*
X681500Y953600D01*
X737500Y953600D02*
X784500Y953600D01*
X921500Y953600D02*
X953500Y953600D01*
X30500Y952600D02*
X63500Y952600D01*
X198500Y952600D02*
X681500Y952600D01*
X738500Y952600D02*
X785500Y952600D01*
X920500Y952600D02*
X953500Y952600D01*
X30500Y951600D02*
X65500Y951600D01*
X196500Y951600D02*
X682500Y951600D01*
X738500Y951600D02*
X787500Y951600D01*
X919500Y951600D02*
X953500Y951600D01*
X30500Y950600D02*
X66500Y950600D01*
X195500Y950600D02*
X683500Y950600D01*
X739500Y950600D02*
X788500Y950600D01*
X917500Y950600D02*
X953500Y950600D01*
X30500Y949600D02*
X68500Y949600D01*
X193500Y949600D02*
X684500Y949600D01*
X740500Y949600D02*
X790500Y949600D01*
X915500Y949600D02*
X953500Y949600D01*
X30500Y948600D02*
X69500Y948600D01*
X191500Y948600D02*
X684500Y948600D01*
X741500Y948600D02*
X792500Y948600D01*
X914500Y948600D02*
X953500Y948600D01*
X30500Y947600D02*
X71500Y947600D01*
X190500Y947600D02*
X685500Y947600D01*
X742500Y947600D02*
X793500Y947600D01*
X912500Y947600D02*
X953500Y947600D01*
X30500Y946600D02*
X73500Y946600D01*
X188500Y946600D02*
X686500Y946600D01*
X742500Y946600D02*
X795500Y946600D01*
X910500Y946600D02*
X953500Y946600D01*
X30500Y945600D02*
X74500Y945600D01*
X186500Y945600D02*
X687500Y945600D01*
X743500Y945600D02*
X797500Y945600D01*
X909500Y945600D02*
X953500Y945600D01*
X30500Y944600D02*
X76500Y944600D01*
X184500Y944600D02*
X688500Y944600D01*
X744500Y944600D02*
X799500Y944600D01*
X907500Y944600D02*
X953500Y944600D01*
X30500Y943600D02*
X79500Y943600D01*
X182500Y943600D02*
X688500Y943600D01*
X745500Y943600D02*
X801500Y943600D01*
X904500Y943600D02*
X953500Y943600D01*
X30500Y942600D02*
X81500Y942600D01*
X180500Y942600D02*
X689500Y942600D01*
X745500Y942600D02*
X803500Y942600D01*
X902500Y942600D02*
X953500Y942600D01*
X30500Y941600D02*
X83500Y941600D01*
X178500Y941600D02*
X690500Y941600D01*
X746500Y941600D02*
X805500Y941600D01*
X900500Y941600D02*
X953500Y941600D01*
X30500Y940600D02*
X85500Y940600D01*
X176500Y940600D02*
X691500Y940600D01*
X747500Y940600D02*
X807500Y940600D01*
X898500Y940600D02*
X953500Y940600D01*
X30500Y939600D02*
X88500Y939600D01*
X173500Y939600D02*
X691500Y939600D01*
X748500Y939600D02*
X810500Y939600D01*
X895500Y939600D02*
X953500Y939600D01*
X30500Y938600D02*
X91500Y938600D01*
X170500Y938600D02*
X692500Y938600D01*
X748500Y938600D02*
X813500Y938600D01*
X893500Y938600D02*
X953500Y938600D01*
X30500Y937600D02*
X93500Y937600D01*
X167500Y937600D02*
X693500Y937600D01*
X749500Y937600D02*
X815500Y937600D01*
X890500Y937600D02*
X953500Y937600D01*
X30500Y936600D02*
X97500Y936600D01*
X164500Y936600D02*
X694500Y936600D01*
X750500Y936600D02*
X819500Y936600D01*
X887500Y936600D02*
X953500Y936600D01*
X30500Y935600D02*
X101500Y935600D01*
X160500Y935600D02*
X694500Y935600D01*
X751500Y935600D02*
X823500Y935600D01*
X883500Y935600D02*
X953500Y935600D01*
X30500Y934600D02*
X104500Y934600D01*
X156500Y934600D02*
X695500Y934600D01*
X751500Y934600D02*
X827500Y934600D01*
X879500Y934600D02*
X953500Y934600D01*
X30500Y933600D02*
X110500Y933600D01*
X150500Y933600D02*
X696500Y933600D01*
X752500Y933600D02*
X832500Y933600D01*
X873500Y933600D02*
X953500Y933600D01*
X30500Y932600D02*
X117500Y932600D01*
X144500Y932600D02*
X697500Y932600D01*
X753500Y932600D02*
X838500Y932600D01*
X867500Y932600D02*
X953500Y932600D01*
X30500Y931600D02*
X697500Y931600D01*
X754500Y931600D02*
X953500Y931600D01*
X30500Y930600D02*
X698500Y930600D01*
X755500Y930600D02*
X953500Y930600D01*
X30500Y929600D02*
X699500Y929600D01*
X755500Y929600D02*
X953500Y929600D01*
X30500Y928600D02*
X700500Y928600D01*
X756500Y928600D02*
X953500Y928600D01*
X30500Y927600D02*
X700500Y927600D01*
X757500Y927600D02*
X953500Y927600D01*
X30500Y926600D02*
X701500Y926600D01*
X758500Y926600D02*
X953500Y926600D01*
X30500Y925600D02*
X702500Y925600D01*
X758500Y925600D02*
X953500Y925600D01*
X30500Y924600D02*
X703500Y924600D01*
X759500Y924600D02*
X953500Y924600D01*
X30500Y923600D02*
X704500Y923600D01*
X760500Y923600D02*
X953500Y923600D01*
X30500Y922600D02*
X704500Y922600D01*
X761500Y922600D02*
X953500Y922600D01*
X30500Y921600D02*
X705500Y921600D01*
X761500Y921600D02*
X953500Y921600D01*
X30500Y920600D02*
X706500Y920600D01*
X762500Y920600D02*
X953500Y920600D01*
X30500Y919600D02*
X707500Y919600D01*
X763500Y919600D02*
X953500Y919600D01*
X30500Y918600D02*
X707500Y918600D01*
X764500Y918600D02*
X953500Y918600D01*
X30500Y917600D02*
X708500Y917600D01*
X764500Y917600D02*
X953500Y917600D01*
X30500Y916600D02*
X709500Y916600D01*
X765500Y916600D02*
X953500Y916600D01*
X30500Y915600D02*
X710500Y915600D01*
X766500Y915600D02*
X953500Y915600D01*
X30500Y914600D02*
X710500Y914600D01*
X767500Y914600D02*
X953500Y914600D01*
X30500Y913600D02*
X711500Y913600D01*
X767500Y913600D02*
X953500Y913600D01*
X30500Y912600D02*
X712500Y912600D01*
X768500Y912600D02*
X953500Y912600D01*
X30500Y911600D02*
X713500Y911600D01*
X769500Y911600D02*
X953500Y911600D01*
X30500Y910600D02*
X713500Y910600D01*
X770500Y910600D02*
X953500Y910600D01*
X30500Y909600D02*
X714500Y909600D01*
X771500Y909600D02*
X953500Y909600D01*
X30500Y908600D02*
X715500Y908600D01*
X771500Y908600D02*
X953500Y908600D01*
X30500Y907600D02*
X716500Y907600D01*
X772500Y907600D02*
X953500Y907600D01*
X30500Y906600D02*
X717500Y906600D01*
X773500Y906600D02*
X953500Y906600D01*
X30500Y905600D02*
X717500Y905600D01*
X774500Y905600D02*
X953500Y905600D01*
X30500Y904600D02*
X718500Y904600D01*
X774500Y904600D02*
X953500Y904600D01*
X30500Y903600D02*
X719500Y903600D01*
X775500Y903600D02*
X953500Y903600D01*
X30500Y902600D02*
X720500Y902600D01*
X776500Y902600D02*
X953500Y902600D01*
X30500Y901600D02*
X720500Y901600D01*
X777500Y901600D02*
X953500Y901600D01*
X30500Y900600D02*
X721500Y900600D01*
X777500Y900600D02*
X953500Y900600D01*
X30500Y899600D02*
X722500Y899600D01*
X778500Y899600D02*
X953500Y899600D01*
X30500Y898600D02*
X723500Y898600D01*
X779500Y898600D02*
X953500Y898600D01*
X30500Y897600D02*
X723500Y897600D01*
X780500Y897600D02*
X953500Y897600D01*
X30500Y896600D02*
X724500Y896600D01*
X780500Y896600D02*
X953500Y896600D01*
X30500Y895600D02*
X725500Y895600D01*
X781500Y895600D02*
X953500Y895600D01*
X30500Y894600D02*
X726500Y894600D01*
X782500Y894600D02*
X953500Y894600D01*
X30500Y893600D02*
X726500Y893600D01*
X783500Y893600D02*
X953500Y893600D01*
X30500Y892600D02*
X727500Y892600D01*
X783500Y892600D02*
X953500Y892600D01*
X30500Y891600D02*
X728500Y891600D01*
X784500Y891600D02*
X953500Y891600D01*
X30500Y890600D02*
X729500Y890600D01*
X785500Y890600D02*
X953500Y890600D01*
X30500Y889600D02*
X729500Y889600D01*
X786500Y889600D02*
X953500Y889600D01*
X30500Y888600D02*
X730500Y888600D01*
X787500Y888600D02*
X953500Y888600D01*
X30500Y887600D02*
X731500Y887600D01*
X787500Y887600D02*
X953500Y887600D01*
X30500Y886600D02*
X732500Y886600D01*
X788500Y886600D02*
X953500Y886600D01*
X30500Y885600D02*
X733500Y885600D01*
X789500Y885600D02*
X953500Y885600D01*
X30500Y884600D02*
X733500Y884600D01*
X790500Y884600D02*
X953500Y884600D01*
X30500Y883600D02*
X734500Y883600D01*
X790500Y883600D02*
X953500Y883600D01*
X30500Y882600D02*
X735500Y882600D01*
X791500Y882600D02*
X953500Y882600D01*
X30500Y881600D02*
X736500Y881600D01*
X792500Y881600D02*
X953500Y881600D01*
X30500Y880600D02*
X736500Y880600D01*
X793500Y880600D02*
X953500Y880600D01*
X30500Y879600D02*
X737500Y879600D01*
X793500Y879600D02*
X953500Y879600D01*
X30500Y878600D02*
X738500Y878600D01*
X794500Y878600D02*
X953500Y878600D01*
X30500Y877600D02*
X739500Y877600D01*
X795500Y877600D02*
X953500Y877600D01*
X30500Y876600D02*
X739500Y876600D01*
X796500Y876600D02*
X953500Y876600D01*
X30500Y875600D02*
X740500Y875600D01*
X796500Y875600D02*
X953500Y875600D01*
X30500Y874600D02*
X741500Y874600D01*
X797500Y874600D02*
X953500Y874600D01*
X30500Y873600D02*
X742500Y873600D01*
X798500Y873600D02*
X953500Y873600D01*
X30500Y872600D02*
X742500Y872600D01*
X799500Y872600D02*
X953500Y872600D01*
X30500Y871600D02*
X743500Y871600D01*
X800500Y871600D02*
X953500Y871600D01*
X30500Y870600D02*
X744500Y870600D01*
X800500Y870600D02*
X953500Y870600D01*
X30500Y869600D02*
X745500Y869600D01*
X801500Y869600D02*
X953500Y869600D01*
X30500Y868600D02*
X746500Y868600D01*
X802500Y868600D02*
X953500Y868600D01*
X30500Y867600D02*
X746500Y867600D01*
X803500Y867600D02*
X953500Y867600D01*
X30500Y866600D02*
X747500Y866600D01*
X803500Y866600D02*
X953500Y866600D01*
X30500Y865600D02*
X748500Y865600D01*
X804500Y865600D02*
X953500Y865600D01*
X30500Y864600D02*
X749500Y864600D01*
X805500Y864600D02*
X953500Y864600D01*
X30500Y863600D02*
X749500Y863600D01*
X806500Y863600D02*
X953500Y863600D01*
X30500Y862600D02*
X750500Y862600D01*
X806500Y862600D02*
X953500Y862600D01*
X30500Y861600D02*
X751500Y861600D01*
X807500Y861600D02*
X953500Y861600D01*
X30500Y860600D02*
X752500Y860600D01*
X808500Y860600D02*
X953500Y860600D01*
X30500Y859600D02*
X752500Y859600D01*
X809500Y859600D02*
X953500Y859600D01*
X30500Y858600D02*
X753500Y858600D01*
X809500Y858600D02*
X953500Y858600D01*
X30500Y857600D02*
X754500Y857600D01*
X810500Y857600D02*
X953500Y857600D01*
X30500Y856600D02*
X755500Y856600D01*
X811500Y856600D02*
X953500Y856600D01*
X30500Y855600D02*
X755500Y855600D01*
X812500Y855600D02*
X953500Y855600D01*
X30500Y854600D02*
X756500Y854600D01*
X812500Y854600D02*
X953500Y854600D01*
X30500Y853600D02*
X757500Y853600D01*
X813500Y853600D02*
X953500Y853600D01*
X30500Y852600D02*
X758500Y852600D01*
X814500Y852600D02*
X953500Y852600D01*
X30500Y851600D02*
X758500Y851600D01*
X815500Y851600D02*
X953500Y851600D01*
X30500Y850600D02*
X759500Y850600D01*
X816500Y850600D02*
X953500Y850600D01*
X30500Y849600D02*
X760500Y849600D01*
X816500Y849600D02*
X953500Y849600D01*
X30500Y848600D02*
X761500Y848600D01*
X817500Y848600D02*
X953500Y848600D01*
X30500Y847600D02*
X762500Y847600D01*
X818500Y847600D02*
X953500Y847600D01*
X30500Y846600D02*
X762500Y846600D01*
X819500Y846600D02*
X953500Y846600D01*
X30500Y845600D02*
X763500Y845600D01*
X819500Y845600D02*
X953500Y845600D01*
X30500Y844600D02*
X764500Y844600D01*
X820500Y844600D02*
X953500Y844600D01*
X30500Y843600D02*
X765500Y843600D01*
X821500Y843600D02*
X953500Y843600D01*
X30500Y842600D02*
X765500Y842600D01*
X822500Y842600D02*
X953500Y842600D01*
X30500Y841600D02*
X766500Y841600D01*
X822500Y841600D02*
X953500Y841600D01*
X30500Y840600D02*
X767500Y840600D01*
X823500Y840600D02*
X953500Y840600D01*
X30500Y839600D02*
X768500Y839600D01*
X824500Y839600D02*
X953500Y839600D01*
X30500Y838600D02*
X768500Y838600D01*
X825500Y838600D02*
X953500Y838600D01*
X30500Y837600D02*
X769500Y837600D01*
X825500Y837600D02*
X953500Y837600D01*
X30500Y836600D02*
X770500Y836600D01*
X826500Y836600D02*
X953500Y836600D01*
X30500Y835600D02*
X771500Y835600D01*
X827500Y835600D02*
X953500Y835600D01*
X30500Y834600D02*
X771500Y834600D01*
X828500Y834600D02*
X953500Y834600D01*
X30500Y833600D02*
X772500Y833600D01*
X828500Y833600D02*
X953500Y833600D01*
X30500Y832600D02*
X773500Y832600D01*
X829500Y832600D02*
X953500Y832600D01*
X30500Y831600D02*
X774500Y831600D01*
X830500Y831600D02*
X953500Y831600D01*
X30500Y830600D02*
X774500Y830600D01*
X831500Y830600D02*
X953500Y830600D01*
X30500Y829600D02*
X775500Y829600D01*
X832500Y829600D02*
X953500Y829600D01*
X30500Y828600D02*
X776500Y828600D01*
X832500Y828600D02*
X953500Y828600D01*
X30500Y827600D02*
X777500Y827600D01*
X833500Y827600D02*
X953500Y827600D01*
X30500Y826600D02*
X778500Y826600D01*
X834500Y826600D02*
X953500Y826600D01*
X30500Y825600D02*
X778500Y825600D01*
X835500Y825600D02*
X953500Y825600D01*
X30500Y824600D02*
X779500Y824600D01*
X835500Y824600D02*
X953500Y824600D01*
X30500Y823600D02*
X780500Y823600D01*
X836500Y823600D02*
X953500Y823600D01*
X30500Y822600D02*
X781500Y822600D01*
X837500Y822600D02*
X953500Y822600D01*
X30500Y821600D02*
X781500Y821600D01*
X838500Y821600D02*
X953500Y821600D01*
X30500Y820600D02*
X782500Y820600D01*
X838500Y820600D02*
X953500Y820600D01*
X30500Y819600D02*
X783500Y819600D01*
X839500Y819600D02*
X953500Y819600D01*
X30500Y818600D02*
X784500Y818600D01*
X840500Y818600D02*
X953500Y818600D01*
X30500Y817600D02*
X784500Y817600D01*
X841500Y817600D02*
X953500Y817600D01*
X30500Y816600D02*
X785500Y816600D01*
X841500Y816600D02*
X953500Y816600D01*
X30500Y815600D02*
X786500Y815600D01*
X842500Y815600D02*
X953500Y815600D01*
X30500Y814600D02*
X787500Y814600D01*
X843500Y814600D02*
X953500Y814600D01*
X30500Y813600D02*
X787500Y813600D01*
X844500Y813600D02*
X953500Y813600D01*
X30500Y812600D02*
X788500Y812600D01*
X845500Y812600D02*
X953500Y812600D01*
X30500Y811600D02*
X789500Y811600D01*
X845500Y811600D02*
X953500Y811600D01*
X30500Y810600D02*
X790500Y810600D01*
X846500Y810600D02*
X953500Y810600D01*
X30500Y809600D02*
X791500Y809600D01*
X847500Y809600D02*
X953500Y809600D01*
X30500Y808600D02*
X791500Y808600D01*
X848500Y808600D02*
X953500Y808600D01*
X30500Y807600D02*
X792500Y807600D01*
X848500Y807600D02*
X953500Y807600D01*
X30500Y806600D02*
X793500Y806600D01*
X849500Y806600D02*
X953500Y806600D01*
X30500Y805600D02*
X794500Y805600D01*
X850500Y805600D02*
X953500Y805600D01*
X30500Y804600D02*
X794500Y804600D01*
X851500Y804600D02*
X953500Y804600D01*
X30500Y803600D02*
X795500Y803600D01*
X851500Y803600D02*
X953500Y803600D01*
X30500Y802600D02*
X796500Y802600D01*
X852500Y802600D02*
X953500Y802600D01*
X30500Y801600D02*
X797500Y801600D01*
X853500Y801600D02*
X953500Y801600D01*
X30500Y800600D02*
X797500Y800600D01*
X854500Y800600D02*
X953500Y800600D01*
X30500Y799600D02*
X798500Y799600D01*
X854500Y799600D02*
X953500Y799600D01*
X30500Y798600D02*
X799500Y798600D01*
X855500Y798600D02*
X953500Y798600D01*
X30500Y797600D02*
X800500Y797600D01*
X856500Y797600D02*
X953500Y797600D01*
X30500Y796600D02*
X800500Y796600D01*
X857500Y796600D02*
X953500Y796600D01*
X30500Y795600D02*
X801500Y795600D01*
X857500Y795600D02*
X953500Y795600D01*
X30500Y794600D02*
X802500Y794600D01*
X858500Y794600D02*
X953500Y794600D01*
X30500Y793600D02*
X803500Y793600D01*
X859500Y793600D02*
X953500Y793600D01*
X30500Y792600D02*
X803500Y792600D01*
X860500Y792600D02*
X953500Y792600D01*
X30500Y791600D02*
X227500Y791600D01*
X237500Y791600D02*
X427500Y791600D01*
X437500Y791600D02*
X527500Y791600D01*
X537500Y791600D02*
X627500Y791600D01*
X637500Y791600D02*
X727500Y791600D01*
X736500Y791600D02*
X804500Y791600D01*
X861500Y791600D02*
X953500Y791600D01*
X30500Y790600D02*
X221500Y790600D01*
X243500Y790600D02*
X421500Y790600D01*
X442500Y790600D02*
X521500Y790600D01*
X542500Y790600D02*
X621500Y790600D01*
X642500Y790600D02*
X721500Y790600D01*
X742500Y790600D02*
X805500Y790600D01*
X861500Y790600D02*
X953500Y790600D01*
X30500Y789600D02*
X218500Y789600D01*
X246500Y789600D02*
X418500Y789600D01*
X446500Y789600D02*
X518500Y789600D01*
X546500Y789600D02*
X618500Y789600D01*
X646500Y789600D02*
X718500Y789600D01*
X746500Y789600D02*
X806500Y789600D01*
X862500Y789600D02*
X953500Y789600D01*
X30500Y788600D02*
X215500Y788600D01*
X249500Y788600D02*
X315500Y788600D01*
X317500Y788600D02*
X346500Y788600D01*
X349500Y788600D02*
X415500Y788600D01*
X449500Y788600D02*
X515500Y788600D01*
X549500Y788600D02*
X615500Y788600D01*
X649500Y788600D02*
X715500Y788600D01*
X749500Y788600D02*
X807500Y788600D01*
X863500Y788600D02*
X953500Y788600D01*
X30500Y787600D02*
X212500Y787600D01*
X252500Y787600D02*
X312500Y787600D01*
X318500Y787600D02*
X346500Y787600D01*
X352500Y787600D02*
X412500Y787600D01*
X452500Y787600D02*
X512500Y787600D01*
X552500Y787600D02*
X612500Y787600D01*
X652500Y787600D02*
X712500Y787600D01*
X752500Y787600D02*
X807500Y787600D01*
X864500Y787600D02*
X953500Y787600D01*
X30500Y786600D02*
X210500Y786600D01*
X254500Y786600D02*
X310500Y786600D01*
X318500Y786600D02*
X346500Y786600D01*
X354500Y786600D02*
X410500Y786600D01*
X454500Y786600D02*
X510500Y786600D01*
X554500Y786600D02*
X610500Y786600D01*
X654500Y786600D02*
X710500Y786600D01*
X753500Y786600D02*
X808500Y786600D01*
X864500Y786600D02*
X953500Y786600D01*
X30500Y785600D02*
X208500Y785600D01*
X256500Y785600D02*
X308500Y785600D01*
X318500Y785600D02*
X346500Y785600D01*
X356500Y785600D02*
X408500Y785600D01*
X455500Y785600D02*
X508500Y785600D01*
X555500Y785600D02*
X608500Y785600D01*
X655500Y785600D02*
X708500Y785600D01*
X755500Y785600D02*
X809500Y785600D01*
X865500Y785600D02*
X953500Y785600D01*
X30500Y784600D02*
X206500Y784600D01*
X257500Y784600D02*
X306500Y784600D01*
X318500Y784600D02*
X346500Y784600D01*
X357500Y784600D02*
X406500Y784600D01*
X457500Y784600D02*
X506500Y784600D01*
X557500Y784600D02*
X606500Y784600D01*
X657500Y784600D02*
X706500Y784600D01*
X757500Y784600D02*
X810500Y784600D01*
X866500Y784600D02*
X953500Y784600D01*
X30500Y783600D02*
X205500Y783600D01*
X259500Y783600D02*
X304500Y783600D01*
X318500Y783600D02*
X346500Y783600D01*
X359500Y783600D02*
X405500Y783600D01*
X459500Y783600D02*
X504500Y783600D01*
X559500Y783600D02*
X604500Y783600D01*
X659500Y783600D02*
X704500Y783600D01*
X759500Y783600D02*
X810500Y783600D01*
X867500Y783600D02*
X953500Y783600D01*
X30500Y782600D02*
X203500Y782600D01*
X261500Y782600D02*
X303500Y782600D01*
X318500Y782600D02*
X346500Y782600D01*
X361500Y782600D02*
X403500Y782600D01*
X461500Y782600D02*
X503500Y782600D01*
X561500Y782600D02*
X603500Y782600D01*
X661500Y782600D02*
X703500Y782600D01*
X761500Y782600D02*
X811500Y782600D01*
X867500Y782600D02*
X953500Y782600D01*
X30500Y781600D02*
X202500Y781600D01*
X262500Y781600D02*
X302500Y781600D01*
X318500Y781600D02*
X346500Y781600D01*
X362500Y781600D02*
X402500Y781600D01*
X462500Y781600D02*
X502500Y781600D01*
X562500Y781600D02*
X602500Y781600D01*
X662500Y781600D02*
X702500Y781600D01*
X762500Y781600D02*
X812500Y781600D01*
X868500Y781600D02*
X953500Y781600D01*
X30500Y780600D02*
X201500Y780600D01*
X263500Y780600D02*
X301500Y780600D01*
X318500Y780600D02*
X346500Y780600D01*
X363500Y780600D02*
X401500Y780600D01*
X463500Y780600D02*
X500500Y780600D01*
X563500Y780600D02*
X600500Y780600D01*
X663500Y780600D02*
X700500Y780600D01*
X763500Y780600D02*
X813500Y780600D01*
X869500Y780600D02*
X953500Y780600D01*
X30500Y779600D02*
X199500Y779600D01*
X264500Y779600D02*
X299500Y779600D01*
X318500Y779600D02*
X346500Y779600D01*
X364500Y779600D02*
X399500Y779600D01*
X464500Y779600D02*
X499500Y779600D01*
X564500Y779600D02*
X599500Y779600D01*
X664500Y779600D02*
X699500Y779600D01*
X764500Y779600D02*
X813500Y779600D01*
X870500Y779600D02*
X953500Y779600D01*
X30500Y778600D02*
X198500Y778600D01*
X266500Y778600D02*
X298500Y778600D01*
X318500Y778600D02*
X346500Y778600D01*
X366500Y778600D02*
X398500Y778600D01*
X466500Y778600D02*
X498500Y778600D01*
X566500Y778600D02*
X598500Y778600D01*
X666500Y778600D02*
X698500Y778600D01*
X766500Y778600D02*
X814500Y778600D01*
X870500Y778600D02*
X953500Y778600D01*
X30500Y777600D02*
X197500Y777600D01*
X267500Y777600D02*
X297500Y777600D01*
X318500Y777600D02*
X346500Y777600D01*
X367500Y777600D02*
X397500Y777600D01*
X467500Y777600D02*
X497500Y777600D01*
X567500Y777600D02*
X597500Y777600D01*
X667500Y777600D02*
X697500Y777600D01*
X767500Y777600D02*
X815500Y777600D01*
X871500Y777600D02*
X953500Y777600D01*
X30500Y776600D02*
X196500Y776600D01*
X268500Y776600D02*
X296500Y776600D01*
X318500Y776600D02*
X346500Y776600D01*
X368500Y776600D02*
X396500Y776600D01*
X468500Y776600D02*
X496500Y776600D01*
X568500Y776600D02*
X596500Y776600D01*
X668500Y776600D02*
X696500Y776600D01*
X768500Y776600D02*
X816500Y776600D01*
X872500Y776600D02*
X953500Y776600D01*
X30500Y775600D02*
X195500Y775600D01*
X269500Y775600D02*
X295500Y775600D01*
X318500Y775600D02*
X346500Y775600D01*
X369500Y775600D02*
X395500Y775600D01*
X469500Y775600D02*
X495500Y775600D01*
X568500Y775600D02*
X595500Y775600D01*
X668500Y775600D02*
X695500Y775600D01*
X768500Y775600D02*
X816500Y775600D01*
X872500Y775600D02*
X953500Y775600D01*
X30500Y774600D02*
X194500Y774600D01*
X269500Y774600D02*
X294500Y774600D01*
X318500Y774600D02*
X346500Y774600D01*
X369500Y774600D02*
X394500Y774600D01*
X469500Y774600D02*
X494500Y774600D01*
X569500Y774600D02*
X594500Y774600D01*
X669500Y774600D02*
X694500Y774600D01*
X769500Y774600D02*
X817500Y774600D01*
X873500Y774600D02*
X953500Y774600D01*
X30500Y773600D02*
X194500Y773600D01*
X270500Y773600D02*
X294500Y773600D01*
X318500Y773600D02*
X346500Y773600D01*
X370500Y773600D02*
X394500Y773600D01*
X470500Y773600D02*
X494500Y773600D01*
X570500Y773600D02*
X594500Y773600D01*
X670500Y773600D02*
X693500Y773600D01*
X770500Y773600D02*
X818500Y773600D01*
X873500Y773600D02*
X953500Y773600D01*
X30500Y772600D02*
X193500Y772600D01*
X271500Y772600D02*
X293500Y772600D01*
X318500Y772600D02*
X346500Y772600D01*
X371500Y772600D02*
X393500Y772600D01*
X471500Y772600D02*
X493500Y772600D01*
X571500Y772600D02*
X593500Y772600D01*
X671500Y772600D02*
X693500Y772600D01*
X771500Y772600D02*
X819500Y772600D01*
X873500Y772600D02*
X953500Y772600D01*
X30500Y771600D02*
X192500Y771600D01*
X272500Y771600D02*
X292500Y771600D01*
X318500Y771600D02*
X346500Y771600D01*
X372500Y771600D02*
X392500Y771600D01*
X472500Y771600D02*
X492500Y771600D01*
X572500Y771600D02*
X592500Y771600D01*
X672500Y771600D02*
X692500Y771600D01*
X772500Y771600D02*
X820500Y771600D01*
X874500Y771600D02*
X953500Y771600D01*
X30500Y770600D02*
X191500Y770600D01*
X273500Y770600D02*
X291500Y770600D01*
X318500Y770600D02*
X346500Y770600D01*
X373500Y770600D02*
X391500Y770600D01*
X473500Y770600D02*
X491500Y770600D01*
X573500Y770600D02*
X591500Y770600D01*
X673500Y770600D02*
X691500Y770600D01*
X772500Y770600D02*
X820500Y770600D01*
X874500Y770600D02*
X953500Y770600D01*
X30500Y769600D02*
X191500Y769600D01*
X273500Y769600D02*
X291500Y769600D01*
X318500Y769600D02*
X346500Y769600D01*
X373500Y769600D02*
X391500Y769600D01*
X473500Y769600D02*
X491500Y769600D01*
X573500Y769600D02*
X590500Y769600D01*
X673500Y769600D02*
X690500Y769600D01*
X773500Y769600D02*
X821500Y769600D01*
X874500Y769600D02*
X953500Y769600D01*
X30500Y768600D02*
X190500Y768600D01*
X274500Y768600D02*
X290500Y768600D01*
X318500Y768600D02*
X346500Y768600D01*
X374500Y768600D02*
X390500Y768600D01*
X474500Y768600D02*
X490500Y768600D01*
X574500Y768600D02*
X590500Y768600D01*
X674500Y768600D02*
X690500Y768600D01*
X774500Y768600D02*
X822500Y768600D01*
X874500Y768600D02*
X953500Y768600D01*
X30500Y767600D02*
X190500Y767600D01*
X274500Y767600D02*
X289500Y767600D01*
X318500Y767600D02*
X346500Y767600D01*
X374500Y767600D02*
X389500Y767600D01*
X474500Y767600D02*
X489500Y767600D01*
X574500Y767600D02*
X589500Y767600D01*
X674500Y767600D02*
X689500Y767600D01*
X774500Y767600D02*
X823500Y767600D01*
X874500Y767600D02*
X953500Y767600D01*
X30500Y766600D02*
X189500Y766600D01*
X275500Y766600D02*
X289500Y766600D01*
X318500Y766600D02*
X346500Y766600D01*
X375500Y766600D02*
X389500Y766600D01*
X475500Y766600D02*
X489500Y766600D01*
X575500Y766600D02*
X589500Y766600D01*
X675500Y766600D02*
X689500Y766600D01*
X775500Y766600D02*
X823500Y766600D01*
X874500Y766600D02*
X953500Y766600D01*
X30500Y765600D02*
X188500Y765600D01*
X275500Y765600D02*
X288500Y765600D01*
X318500Y765600D02*
X346500Y765600D01*
X375500Y765600D02*
X388500Y765600D01*
X475500Y765600D02*
X488500Y765600D01*
X575500Y765600D02*
X588500Y765600D01*
X675500Y765600D02*
X688500Y765600D01*
X775500Y765600D02*
X824500Y765600D01*
X874500Y765600D02*
X953500Y765600D01*
X30500Y764600D02*
X188500Y764600D01*
X276500Y764600D02*
X288500Y764600D01*
X376500Y764600D02*
X388500Y764600D01*
X476500Y764600D02*
X488500Y764600D01*
X576500Y764600D02*
X588500Y764600D01*
X676500Y764600D02*
X688500Y764600D01*
X776500Y764600D02*
X824500Y764600D01*
X874500Y764600D02*
X953500Y764600D01*
X30500Y763600D02*
X187500Y763600D01*
X276500Y763600D02*
X287500Y763600D01*
X376500Y763600D02*
X387500Y763600D01*
X476500Y763600D02*
X487500Y763600D01*
X576500Y763600D02*
X587500Y763600D01*
X676500Y763600D02*
X687500Y763600D01*
X776500Y763600D02*
X824500Y763600D01*
X874500Y763600D02*
X953500Y763600D01*
X30500Y762600D02*
X187500Y762600D01*
X277500Y762600D02*
X287500Y762600D01*
X377500Y762600D02*
X387500Y762600D01*
X477500Y762600D02*
X487500Y762600D01*
X577500Y762600D02*
X587500Y762600D01*
X677500Y762600D02*
X687500Y762600D01*
X777500Y762600D02*
X824500Y762600D01*
X874500Y762600D02*
X953500Y762600D01*
X30500Y761600D02*
X186500Y761600D01*
X277500Y761600D02*
X286500Y761600D01*
X377500Y761600D02*
X386500Y761600D01*
X477500Y761600D02*
X486500Y761600D01*
X577500Y761600D02*
X586500Y761600D01*
X677500Y761600D02*
X686500Y761600D01*
X777500Y761600D02*
X823500Y761600D01*
X874500Y761600D02*
X953500Y761600D01*
X30500Y760600D02*
X186500Y760600D01*
X278500Y760600D02*
X286500Y760600D01*
X378500Y760600D02*
X386500Y760600D01*
X478500Y760600D02*
X486500Y760600D01*
X578500Y760600D02*
X586500Y760600D01*
X678500Y760600D02*
X686500Y760600D01*
X778500Y760600D02*
X823500Y760600D01*
X874500Y760600D02*
X953500Y760600D01*
X30500Y759600D02*
X186500Y759600D01*
X278500Y759600D02*
X286500Y759600D01*
X378500Y759600D02*
X386500Y759600D01*
X478500Y759600D02*
X486500Y759600D01*
X578500Y759600D02*
X586500Y759600D01*
X678500Y759600D02*
X686500Y759600D01*
X778500Y759600D02*
X822500Y759600D01*
X873500Y759600D02*
X953500Y759600D01*
X30500Y758600D02*
X185500Y758600D01*
X278500Y758600D02*
X285500Y758600D01*
X378500Y758600D02*
X385500Y758600D01*
X478500Y758600D02*
X485500Y758600D01*
X578500Y758600D02*
X585500Y758600D01*
X678500Y758600D02*
X685500Y758600D01*
X778500Y758600D02*
X821500Y758600D01*
X873500Y758600D02*
X953500Y758600D01*
X30500Y757600D02*
X185500Y757600D01*
X279500Y757600D02*
X309500Y757600D01*
X355500Y757600D02*
X385500Y757600D01*
X479500Y757600D02*
X485500Y757600D01*
X579500Y757600D02*
X585500Y757600D01*
X679500Y757600D02*
X685500Y757600D01*
X779500Y757600D02*
X821500Y757600D01*
X872500Y757600D02*
X953500Y757600D01*
X30500Y756600D02*
X185500Y756600D01*
X279500Y756600D02*
X309500Y756600D01*
X355500Y756600D02*
X385500Y756600D01*
X479500Y756600D02*
X485500Y756600D01*
X579500Y756600D02*
X585500Y756600D01*
X679500Y756600D02*
X685500Y756600D01*
X779500Y756600D02*
X820500Y756600D01*
X872500Y756600D02*
X953500Y756600D01*
X30500Y755600D02*
X184500Y755600D01*
X279500Y755600D02*
X309500Y755600D01*
X355500Y755600D02*
X384500Y755600D01*
X479500Y755600D02*
X484500Y755600D01*
X579500Y755600D02*
X584500Y755600D01*
X679500Y755600D02*
X684500Y755600D01*
X779500Y755600D02*
X820500Y755600D01*
X872500Y755600D02*
X953500Y755600D01*
X30500Y754600D02*
X184500Y754600D01*
X280500Y754600D02*
X309500Y754600D01*
X355500Y754600D02*
X384500Y754600D01*
X480500Y754600D02*
X484500Y754600D01*
X580500Y754600D02*
X584500Y754600D01*
X680500Y754600D02*
X684500Y754600D01*
X780500Y754600D02*
X819500Y754600D01*
X871500Y754600D02*
X953500Y754600D01*
X30500Y753600D02*
X184500Y753600D01*
X280500Y753600D02*
X309500Y753600D01*
X355500Y753600D02*
X384500Y753600D01*
X480500Y753600D02*
X484500Y753600D01*
X580500Y753600D02*
X584500Y753600D01*
X680500Y753600D02*
X684500Y753600D01*
X780500Y753600D02*
X819500Y753600D01*
X870500Y753600D02*
X953500Y753600D01*
X30500Y752600D02*
X184500Y752600D01*
X280500Y752600D02*
X309500Y752600D01*
X355500Y752600D02*
X383500Y752600D01*
X481500Y752600D02*
X483500Y752600D01*
X581500Y752600D02*
X583500Y752600D01*
X681500Y752600D02*
X683500Y752600D01*
X780500Y752600D02*
X818500Y752600D01*
X870500Y752600D02*
X953500Y752600D01*
X30500Y751600D02*
X183500Y751600D01*
X280500Y751600D02*
X309500Y751600D01*
X355500Y751600D02*
X383500Y751600D01*
X780500Y751600D02*
X817500Y751600D01*
X869500Y751600D02*
X953500Y751600D01*
X30500Y750600D02*
X183500Y750600D01*
X281500Y750600D02*
X309500Y750600D01*
X355500Y750600D02*
X383500Y750600D01*
X780500Y750600D02*
X817500Y750600D01*
X869500Y750600D02*
X953500Y750600D01*
X30500Y749600D02*
X183500Y749600D01*
X281500Y749600D02*
X309500Y749600D01*
X355500Y749600D02*
X383500Y749600D01*
X781500Y749600D02*
X816500Y749600D01*
X868500Y749600D02*
X953500Y749600D01*
X30500Y748600D02*
X183500Y748600D01*
X281500Y748600D02*
X309500Y748600D01*
X355500Y748600D02*
X383500Y748600D01*
X781500Y748600D02*
X816500Y748600D01*
X867500Y748600D02*
X953500Y748600D01*
X30500Y747600D02*
X183500Y747600D01*
X281500Y747600D02*
X309500Y747600D01*
X355500Y747600D02*
X383500Y747600D01*
X781500Y747600D02*
X815500Y747600D01*
X867500Y747600D02*
X953500Y747600D01*
X30500Y746600D02*
X183500Y746600D01*
X281500Y746600D02*
X309500Y746600D01*
X355500Y746600D02*
X383500Y746600D01*
X781500Y746600D02*
X814500Y746600D01*
X866500Y746600D02*
X953500Y746600D01*
X30500Y745600D02*
X183500Y745600D01*
X281500Y745600D02*
X309500Y745600D01*
X355500Y745600D02*
X383500Y745600D01*
X781500Y745600D02*
X814500Y745600D01*
X866500Y745600D02*
X953500Y745600D01*
X30500Y744600D02*
X182500Y744600D01*
X281500Y744600D02*
X309500Y744600D01*
X355500Y744600D02*
X382500Y744600D01*
X781500Y744600D02*
X813500Y744600D01*
X865500Y744600D02*
X953500Y744600D01*
X30500Y743600D02*
X182500Y743600D01*
X281500Y743600D02*
X309500Y743600D01*
X355500Y743600D02*
X382500Y743600D01*
X781500Y743600D02*
X813500Y743600D01*
X865500Y743600D02*
X953500Y743600D01*
X30500Y742600D02*
X182500Y742600D01*
X281500Y742600D02*
X309500Y742600D01*
X355500Y742600D02*
X382500Y742600D01*
X781500Y742600D02*
X812500Y742600D01*
X864500Y742600D02*
X953500Y742600D01*
X30500Y741600D02*
X182500Y741600D01*
X281500Y741600D02*
X309500Y741600D01*
X355500Y741600D02*
X382500Y741600D01*
X781500Y741600D02*
X812500Y741600D01*
X863500Y741600D02*
X953500Y741600D01*
X30500Y740600D02*
X183500Y740600D01*
X281500Y740600D02*
X309500Y740600D01*
X355500Y740600D02*
X383500Y740600D01*
X781500Y740600D02*
X811500Y740600D01*
X863500Y740600D02*
X953500Y740600D01*
X30500Y739600D02*
X183500Y739600D01*
X281500Y739600D02*
X309500Y739600D01*
X355500Y739600D02*
X383500Y739600D01*
X781500Y739600D02*
X810500Y739600D01*
X862500Y739600D02*
X953500Y739600D01*
X30500Y738600D02*
X183500Y738600D01*
X281500Y738600D02*
X309500Y738600D01*
X355500Y738600D02*
X383500Y738600D01*
X781500Y738600D02*
X810500Y738600D01*
X862500Y738600D02*
X953500Y738600D01*
X30500Y737600D02*
X183500Y737600D01*
X281500Y737600D02*
X309500Y737600D01*
X355500Y737600D02*
X383500Y737600D01*
X781500Y737600D02*
X809500Y737600D01*
X861500Y737600D02*
X953500Y737600D01*
X30500Y736600D02*
X183500Y736600D01*
X281500Y736600D02*
X309500Y736600D01*
X355500Y736600D02*
X383500Y736600D01*
X781500Y736600D02*
X809500Y736600D01*
X860500Y736600D02*
X953500Y736600D01*
X30500Y735600D02*
X183500Y735600D01*
X281500Y735600D02*
X309500Y735600D01*
X355500Y735600D02*
X383500Y735600D01*
X781500Y735600D02*
X808500Y735600D01*
X860500Y735600D02*
X953500Y735600D01*
X30500Y734600D02*
X183500Y734600D01*
X281500Y734600D02*
X309500Y734600D01*
X355500Y734600D02*
X383500Y734600D01*
X780500Y734600D02*
X807500Y734600D01*
X859500Y734600D02*
X953500Y734600D01*
X30500Y733600D02*
X183500Y733600D01*
X280500Y733600D02*
X309500Y733600D01*
X355500Y733600D02*
X383500Y733600D01*
X482500Y733600D02*
X482500Y733600D01*
X582500Y733600D02*
X582500Y733600D01*
X682500Y733600D02*
X682500Y733600D01*
X780500Y733600D02*
X807500Y733600D01*
X859500Y733600D02*
X953500Y733600D01*
X30500Y732600D02*
X184500Y732600D01*
X280500Y732600D02*
X309500Y732600D01*
X355500Y732600D02*
X384500Y732600D01*
X480500Y732600D02*
X483500Y732600D01*
X580500Y732600D02*
X583500Y732600D01*
X680500Y732600D02*
X683500Y732600D01*
X780500Y732600D02*
X806500Y732600D01*
X858500Y732600D02*
X953500Y732600D01*
X30500Y731600D02*
X184500Y731600D01*
X280500Y731600D02*
X309500Y731600D01*
X355500Y731600D02*
X384500Y731600D01*
X480500Y731600D02*
X484500Y731600D01*
X580500Y731600D02*
X584500Y731600D01*
X680500Y731600D02*
X684500Y731600D01*
X780500Y731600D02*
X806500Y731600D01*
X858500Y731600D02*
X953500Y731600D01*
X30500Y730600D02*
X184500Y730600D01*
X280500Y730600D02*
X309500Y730600D01*
X355500Y730600D02*
X384500Y730600D01*
X480500Y730600D02*
X484500Y730600D01*
X580500Y730600D02*
X584500Y730600D01*
X679500Y730600D02*
X684500Y730600D01*
X779500Y730600D02*
X805500Y730600D01*
X857500Y730600D02*
X953500Y730600D01*
X30500Y729600D02*
X185500Y729600D01*
X279500Y729600D02*
X309500Y729600D01*
X355500Y729600D02*
X385500Y729600D01*
X479500Y729600D02*
X484500Y729600D01*
X579500Y729600D02*
X584500Y729600D01*
X679500Y729600D02*
X684500Y729600D01*
X779500Y729600D02*
X805500Y729600D01*
X856500Y729600D02*
X953500Y729600D01*
X30500Y728600D02*
X185500Y728600D01*
X279500Y728600D02*
X309500Y728600D01*
X355500Y728600D02*
X385500Y728600D01*
X479500Y728600D02*
X485500Y728600D01*
X579500Y728600D02*
X585500Y728600D01*
X679500Y728600D02*
X685500Y728600D01*
X779500Y728600D02*
X804500Y728600D01*
X856500Y728600D02*
X953500Y728600D01*
X30500Y727600D02*
X185500Y727600D01*
X279500Y727600D02*
X285500Y727600D01*
X378500Y727600D02*
X385500Y727600D01*
X479500Y727600D02*
X485500Y727600D01*
X579500Y727600D02*
X585500Y727600D01*
X679500Y727600D02*
X685500Y727600D01*
X778500Y727600D02*
X803500Y727600D01*
X855500Y727600D02*
X953500Y727600D01*
X30500Y726600D02*
X186500Y726600D01*
X278500Y726600D02*
X286500Y726600D01*
X378500Y726600D02*
X385500Y726600D01*
X478500Y726600D02*
X485500Y726600D01*
X578500Y726600D02*
X585500Y726600D01*
X678500Y726600D02*
X685500Y726600D01*
X778500Y726600D02*
X803500Y726600D01*
X855500Y726600D02*
X953500Y726600D01*
X30500Y725600D02*
X186500Y725600D01*
X278500Y725600D02*
X286500Y725600D01*
X378500Y725600D02*
X386500Y725600D01*
X478500Y725600D02*
X486500Y725600D01*
X578500Y725600D02*
X586500Y725600D01*
X678500Y725600D02*
X686500Y725600D01*
X778500Y725600D02*
X802500Y725600D01*
X854500Y725600D02*
X953500Y725600D01*
X30500Y724600D02*
X186500Y724600D01*
X278500Y724600D02*
X286500Y724600D01*
X378500Y724600D02*
X386500Y724600D01*
X478500Y724600D02*
X486500Y724600D01*
X578500Y724600D02*
X586500Y724600D01*
X678500Y724600D02*
X686500Y724600D01*
X777500Y724600D02*
X802500Y724600D01*
X853500Y724600D02*
X953500Y724600D01*
X30500Y723600D02*
X187500Y723600D01*
X277500Y723600D02*
X287500Y723600D01*
X377500Y723600D02*
X387500Y723600D01*
X477500Y723600D02*
X487500Y723600D01*
X577500Y723600D02*
X586500Y723600D01*
X677500Y723600D02*
X686500Y723600D01*
X777500Y723600D02*
X801500Y723600D01*
X853500Y723600D02*
X953500Y723600D01*
X30500Y722600D02*
X187500Y722600D01*
X277500Y722600D02*
X287500Y722600D01*
X377500Y722600D02*
X387500Y722600D01*
X477500Y722600D02*
X487500Y722600D01*
X577500Y722600D02*
X587500Y722600D01*
X677500Y722600D02*
X687500Y722600D01*
X777500Y722600D02*
X800500Y722600D01*
X852500Y722600D02*
X953500Y722600D01*
X30500Y721600D02*
X188500Y721600D01*
X276500Y721600D02*
X288500Y721600D01*
X376500Y721600D02*
X388500Y721600D01*
X476500Y721600D02*
X488500Y721600D01*
X576500Y721600D02*
X588500Y721600D01*
X676500Y721600D02*
X688500Y721600D01*
X776500Y721600D02*
X800500Y721600D01*
X852500Y721600D02*
X953500Y721600D01*
X30500Y720600D02*
X188500Y720600D01*
X276500Y720600D02*
X288500Y720600D01*
X376500Y720600D02*
X388500Y720600D01*
X476500Y720600D02*
X488500Y720600D01*
X576500Y720600D02*
X588500Y720600D01*
X676500Y720600D02*
X688500Y720600D01*
X776500Y720600D02*
X799500Y720600D01*
X851500Y720600D02*
X953500Y720600D01*
X30500Y719600D02*
X189500Y719600D01*
X275500Y719600D02*
X289500Y719600D01*
X318500Y719600D02*
X346500Y719600D01*
X375500Y719600D02*
X389500Y719600D01*
X475500Y719600D02*
X489500Y719600D01*
X575500Y719600D02*
X589500Y719600D01*
X675500Y719600D02*
X689500Y719600D01*
X775500Y719600D02*
X799500Y719600D01*
X851500Y719600D02*
X953500Y719600D01*
X30500Y718600D02*
X189500Y718600D01*
X275500Y718600D02*
X289500Y718600D01*
X318500Y718600D02*
X346500Y718600D01*
X375500Y718600D02*
X389500Y718600D01*
X475500Y718600D02*
X489500Y718600D01*
X575500Y718600D02*
X589500Y718600D01*
X674500Y718600D02*
X689500Y718600D01*
X774500Y718600D02*
X798500Y718600D01*
X850500Y718600D02*
X953500Y718600D01*
X30500Y717600D02*
X190500Y717600D01*
X274500Y717600D02*
X290500Y717600D01*
X318500Y717600D02*
X346500Y717600D01*
X374500Y717600D02*
X390500Y717600D01*
X474500Y717600D02*
X490500Y717600D01*
X574500Y717600D02*
X590500Y717600D01*
X674500Y717600D02*
X690500Y717600D01*
X774500Y717600D02*
X798500Y717600D01*
X849500Y717600D02*
X953500Y717600D01*
X30500Y716600D02*
X190500Y716600D01*
X274500Y716600D02*
X290500Y716600D01*
X318500Y716600D02*
X346500Y716600D01*
X374500Y716600D02*
X390500Y716600D01*
X473500Y716600D02*
X490500Y716600D01*
X573500Y716600D02*
X590500Y716600D01*
X673500Y716600D02*
X690500Y716600D01*
X773500Y716600D02*
X797500Y716600D01*
X849500Y716600D02*
X953500Y716600D01*
X30500Y715600D02*
X191500Y715600D01*
X273500Y715600D02*
X291500Y715600D01*
X318500Y715600D02*
X346500Y715600D01*
X373500Y715600D02*
X391500Y715600D01*
X473500Y715600D02*
X491500Y715600D01*
X573500Y715600D02*
X591500Y715600D01*
X673500Y715600D02*
X691500Y715600D01*
X773500Y715600D02*
X796500Y715600D01*
X848500Y715600D02*
X953500Y715600D01*
X30500Y714600D02*
X192500Y714600D01*
X273500Y714600D02*
X292500Y714600D01*
X318500Y714600D02*
X346500Y714600D01*
X372500Y714600D02*
X392500Y714600D01*
X472500Y714600D02*
X491500Y714600D01*
X572500Y714600D02*
X591500Y714600D01*
X672500Y714600D02*
X691500Y714600D01*
X772500Y714600D02*
X796500Y714600D01*
X848500Y714600D02*
X953500Y714600D01*
X30500Y713600D02*
X192500Y713600D01*
X274500Y713600D02*
X292500Y713600D01*
X318500Y713600D02*
X346500Y713600D01*
X371500Y713600D02*
X392500Y713600D01*
X471500Y713600D02*
X492500Y713600D01*
X571500Y713600D02*
X592500Y713600D01*
X671500Y713600D02*
X692500Y713600D01*
X771500Y713600D02*
X795500Y713600D01*
X847500Y713600D02*
X953500Y713600D01*
X30500Y712600D02*
X193500Y712600D01*
X275500Y712600D02*
X293500Y712600D01*
X318500Y712600D02*
X346500Y712600D01*
X371500Y712600D02*
X393500Y712600D01*
X471500Y712600D02*
X493500Y712600D01*
X571500Y712600D02*
X593500Y712600D01*
X671500Y712600D02*
X693500Y712600D01*
X771500Y712600D02*
X795500Y712600D01*
X847500Y712600D02*
X953500Y712600D01*
X30500Y711600D02*
X194500Y711600D01*
X275500Y711600D02*
X294500Y711600D01*
X318500Y711600D02*
X346500Y711600D01*
X370500Y711600D02*
X394500Y711600D01*
X470500Y711600D02*
X494500Y711600D01*
X570500Y711600D02*
X594500Y711600D01*
X670500Y711600D02*
X694500Y711600D01*
X770500Y711600D02*
X794500Y711600D01*
X846500Y711600D02*
X953500Y711600D01*
X30500Y710600D02*
X195500Y710600D01*
X276500Y710600D02*
X295500Y710600D01*
X318500Y710600D02*
X346500Y710600D01*
X369500Y710600D02*
X395500Y710600D01*
X469500Y710600D02*
X495500Y710600D01*
X569500Y710600D02*
X595500Y710600D01*
X669500Y710600D02*
X695500Y710600D01*
X769500Y710600D02*
X793500Y710600D01*
X845500Y710600D02*
X953500Y710600D01*
X30500Y709600D02*
X196500Y709600D01*
X276500Y709600D02*
X296500Y709600D01*
X318500Y709600D02*
X346500Y709600D01*
X368500Y709600D02*
X396500Y709600D01*
X468500Y709600D02*
X496500Y709600D01*
X568500Y709600D02*
X595500Y709600D01*
X668500Y709600D02*
X695500Y709600D01*
X768500Y709600D02*
X793500Y709600D01*
X845500Y709600D02*
X953500Y709600D01*
X30500Y708600D02*
X196500Y708600D01*
X277500Y708600D02*
X296500Y708600D01*
X318500Y708600D02*
X346500Y708600D01*
X367500Y708600D02*
X396500Y708600D01*
X467500Y708600D02*
X496500Y708600D01*
X567500Y708600D02*
X596500Y708600D01*
X667500Y708600D02*
X696500Y708600D01*
X767500Y708600D02*
X792500Y708600D01*
X844500Y708600D02*
X953500Y708600D01*
X30500Y707600D02*
X197500Y707600D01*
X277500Y707600D02*
X297500Y707600D01*
X318500Y707600D02*
X346500Y707600D01*
X366500Y707600D02*
X397500Y707600D01*
X466500Y707600D02*
X497500Y707600D01*
X566500Y707600D02*
X597500Y707600D01*
X666500Y707600D02*
X697500Y707600D01*
X766500Y707600D02*
X792500Y707600D01*
X844500Y707600D02*
X953500Y707600D01*
X30500Y706600D02*
X199500Y706600D01*
X278500Y706600D02*
X299500Y706600D01*
X318500Y706600D02*
X346500Y706600D01*
X365500Y706600D02*
X399500Y706600D01*
X465500Y706600D02*
X499500Y706600D01*
X565500Y706600D02*
X599500Y706600D01*
X665500Y706600D02*
X699500Y706600D01*
X765500Y706600D02*
X791500Y706600D01*
X843500Y706600D02*
X953500Y706600D01*
X30500Y705600D02*
X200500Y705600D01*
X278500Y705600D02*
X300500Y705600D01*
X318500Y705600D02*
X346500Y705600D01*
X364500Y705600D02*
X400500Y705600D01*
X464500Y705600D02*
X500500Y705600D01*
X564500Y705600D02*
X600500Y705600D01*
X664500Y705600D02*
X700500Y705600D01*
X764500Y705600D02*
X791500Y705600D01*
X842500Y705600D02*
X953500Y705600D01*
X30500Y704600D02*
X201500Y704600D01*
X279500Y704600D02*
X301500Y704600D01*
X318500Y704600D02*
X346500Y704600D01*
X363500Y704600D02*
X401500Y704600D01*
X463500Y704600D02*
X501500Y704600D01*
X563500Y704600D02*
X601500Y704600D01*
X663500Y704600D02*
X701500Y704600D01*
X763500Y704600D02*
X790500Y704600D01*
X842500Y704600D02*
X953500Y704600D01*
X30500Y703600D02*
X202500Y703600D01*
X280500Y703600D02*
X302500Y703600D01*
X318500Y703600D02*
X346500Y703600D01*
X361500Y703600D02*
X402500Y703600D01*
X461500Y703600D02*
X502500Y703600D01*
X561500Y703600D02*
X602500Y703600D01*
X661500Y703600D02*
X702500Y703600D01*
X761500Y703600D02*
X789500Y703600D01*
X841500Y703600D02*
X953500Y703600D01*
X30500Y702600D02*
X204500Y702600D01*
X280500Y702600D02*
X304500Y702600D01*
X318500Y702600D02*
X346500Y702600D01*
X360500Y702600D02*
X404500Y702600D01*
X460500Y702600D02*
X504500Y702600D01*
X560500Y702600D02*
X604500Y702600D01*
X660500Y702600D02*
X704500Y702600D01*
X760500Y702600D02*
X789500Y702600D01*
X841500Y702600D02*
X953500Y702600D01*
X30500Y701600D02*
X205500Y701600D01*
X281500Y701600D02*
X305500Y701600D01*
X318500Y701600D02*
X346500Y701600D01*
X358500Y701600D02*
X405500Y701600D01*
X458500Y701600D02*
X505500Y701600D01*
X558500Y701600D02*
X605500Y701600D01*
X658500Y701600D02*
X705500Y701600D01*
X758500Y701600D02*
X788500Y701600D01*
X840500Y701600D02*
X953500Y701600D01*
X30500Y700600D02*
X207500Y700600D01*
X281500Y700600D02*
X307500Y700600D01*
X318500Y700600D02*
X346500Y700600D01*
X357500Y700600D02*
X407500Y700600D01*
X456500Y700600D02*
X507500Y700600D01*
X556500Y700600D02*
X607500Y700600D01*
X656500Y700600D02*
X707500Y700600D01*
X756500Y700600D02*
X788500Y700600D01*
X840500Y700600D02*
X953500Y700600D01*
X30500Y699600D02*
X209500Y699600D01*
X282500Y699600D02*
X309500Y699600D01*
X318500Y699600D02*
X346500Y699600D01*
X355500Y699600D02*
X409500Y699600D01*
X455500Y699600D02*
X509500Y699600D01*
X555500Y699600D02*
X609500Y699600D01*
X655500Y699600D02*
X709500Y699600D01*
X755500Y699600D02*
X787500Y699600D01*
X839500Y699600D02*
X953500Y699600D01*
X30500Y698600D02*
X211500Y698600D01*
X282500Y698600D02*
X311500Y698600D01*
X318500Y698600D02*
X346500Y698600D01*
X353500Y698600D02*
X411500Y698600D01*
X453500Y698600D02*
X511500Y698600D01*
X553500Y698600D02*
X611500Y698600D01*
X653500Y698600D02*
X711500Y698600D01*
X753500Y698600D02*
X786500Y698600D01*
X838500Y698600D02*
X953500Y698600D01*
X30500Y697600D02*
X213500Y697600D01*
X283500Y697600D02*
X313500Y697600D01*
X318500Y697600D02*
X346500Y697600D01*
X351500Y697600D02*
X413500Y697600D01*
X451500Y697600D02*
X513500Y697600D01*
X551500Y697600D02*
X613500Y697600D01*
X651500Y697600D02*
X713500Y697600D01*
X750500Y697600D02*
X786500Y697600D01*
X838500Y697600D02*
X953500Y697600D01*
X30500Y696600D02*
X216500Y696600D01*
X283500Y696600D02*
X416500Y696600D01*
X447500Y696600D02*
X516500Y696600D01*
X547500Y696600D02*
X616500Y696600D01*
X647500Y696600D02*
X716500Y696600D01*
X747500Y696600D02*
X785500Y696600D01*
X837500Y696600D02*
X953500Y696600D01*
X30500Y695600D02*
X219500Y695600D01*
X284500Y695600D02*
X419500Y695600D01*
X444500Y695600D02*
X519500Y695600D01*
X544500Y695600D02*
X619500Y695600D01*
X644500Y695600D02*
X719500Y695600D01*
X744500Y695600D02*
X785500Y695600D01*
X837500Y695600D02*
X953500Y695600D01*
X30500Y694600D02*
X224500Y694600D01*
X285500Y694600D02*
X423500Y694600D01*
X440500Y694600D02*
X523500Y694600D01*
X540500Y694600D02*
X623500Y694600D01*
X640500Y694600D02*
X723500Y694600D01*
X740500Y694600D02*
X784500Y694600D01*
X836500Y694600D02*
X953500Y694600D01*
X30500Y693600D02*
X233500Y693600D01*
X285500Y693600D02*
X784500Y693600D01*
X835500Y693600D02*
X953500Y693600D01*
X30500Y692600D02*
X234500Y692600D01*
X286500Y692600D02*
X783500Y692600D01*
X835500Y692600D02*
X953500Y692600D01*
X30500Y691600D02*
X235500Y691600D01*
X286500Y691600D02*
X782500Y691600D01*
X834500Y691600D02*
X953500Y691600D01*
X30500Y690600D02*
X235500Y690600D01*
X287500Y690600D02*
X782500Y690600D01*
X834500Y690600D02*
X953500Y690600D01*
X30500Y689600D02*
X236500Y689600D01*
X287500Y689600D02*
X781500Y689600D01*
X833500Y689600D02*
X953500Y689600D01*
X30500Y688600D02*
X237500Y688600D01*
X288500Y688600D02*
X781500Y688600D01*
X833500Y688600D02*
X953500Y688600D01*
X30500Y687600D02*
X237500Y687600D01*
X289500Y687600D02*
X780500Y687600D01*
X832500Y687600D02*
X953500Y687600D01*
X30500Y686600D02*
X238500Y686600D01*
X308500Y686600D02*
X779500Y686600D01*
X831500Y686600D02*
X953500Y686600D01*
X30500Y685600D02*
X238500Y685600D01*
X367500Y685600D02*
X779500Y685600D01*
X831500Y685600D02*
X953500Y685600D01*
X30500Y684600D02*
X239500Y684600D01*
X425500Y684600D02*
X778500Y684600D01*
X830500Y684600D02*
X953500Y684600D01*
X30500Y683600D02*
X239500Y683600D01*
X484500Y683600D02*
X778500Y683600D01*
X830500Y683600D02*
X953500Y683600D01*
X30500Y682600D02*
X240500Y682600D01*
X543500Y682600D02*
X777500Y682600D01*
X829500Y682600D02*
X953500Y682600D01*
X30500Y681600D02*
X240500Y681600D01*
X601500Y681600D02*
X777500Y681600D01*
X828500Y681600D02*
X953500Y681600D01*
X30500Y680600D02*
X241500Y680600D01*
X660500Y680600D02*
X776500Y680600D01*
X828500Y680600D02*
X953500Y680600D01*
X30500Y679600D02*
X242500Y679600D01*
X718500Y679600D02*
X775500Y679600D01*
X827500Y679600D02*
X953500Y679600D01*
X30500Y678600D02*
X242500Y678600D01*
X827500Y678600D02*
X953500Y678600D01*
X30500Y677600D02*
X243500Y677600D01*
X826500Y677600D02*
X953500Y677600D01*
X30500Y676600D02*
X243500Y676600D01*
X826500Y676600D02*
X953500Y676600D01*
X30500Y675600D02*
X244500Y675600D01*
X825500Y675600D02*
X953500Y675600D01*
X30500Y674600D02*
X244500Y674600D01*
X824500Y674600D02*
X953500Y674600D01*
X30500Y673600D02*
X245500Y673600D01*
X824500Y673600D02*
X953500Y673600D01*
X30500Y672600D02*
X246500Y672600D01*
X823500Y672600D02*
X953500Y672600D01*
X30500Y671600D02*
X246500Y671600D01*
X823500Y671600D02*
X953500Y671600D01*
X30500Y670600D02*
X247500Y670600D01*
X822500Y670600D02*
X953500Y670600D01*
X30500Y669600D02*
X247500Y669600D01*
X821500Y669600D02*
X953500Y669600D01*
X30500Y668600D02*
X248500Y668600D01*
X821500Y668600D02*
X953500Y668600D01*
X30500Y667600D02*
X248500Y667600D01*
X820500Y667600D02*
X953500Y667600D01*
X30500Y666600D02*
X249500Y666600D01*
X820500Y666600D02*
X953500Y666600D01*
X30500Y665600D02*
X249500Y665600D01*
X819500Y665600D02*
X953500Y665600D01*
X30500Y664600D02*
X250500Y664600D01*
X819500Y664600D02*
X953500Y664600D01*
X30500Y663600D02*
X251500Y663600D01*
X818500Y663600D02*
X953500Y663600D01*
X30500Y662600D02*
X251500Y662600D01*
X817500Y662600D02*
X953500Y662600D01*
X30500Y661600D02*
X252500Y661600D01*
X817500Y661600D02*
X953500Y661600D01*
X30500Y660600D02*
X252500Y660600D01*
X816500Y660600D02*
X953500Y660600D01*
X30500Y659600D02*
X253500Y659600D01*
X816500Y659600D02*
X953500Y659600D01*
X30500Y658600D02*
X253500Y658600D01*
X815500Y658600D02*
X953500Y658600D01*
X30500Y657600D02*
X254500Y657600D01*
X815500Y657600D02*
X953500Y657600D01*
X30500Y656600D02*
X255500Y656600D01*
X814500Y656600D02*
X953500Y656600D01*
X30500Y655600D02*
X255500Y655600D01*
X813500Y655600D02*
X953500Y655600D01*
X30500Y654600D02*
X256500Y654600D01*
X813500Y654600D02*
X953500Y654600D01*
X30500Y653600D02*
X256500Y653600D01*
X812500Y653600D02*
X953500Y653600D01*
X30500Y652600D02*
X257500Y652600D01*
X812500Y652600D02*
X953500Y652600D01*
X30500Y651600D02*
X257500Y651600D01*
X811500Y651600D02*
X953500Y651600D01*
X30500Y650600D02*
X258500Y650600D01*
X810500Y650600D02*
X953500Y650600D01*
X30500Y649600D02*
X259500Y649600D01*
X810500Y649600D02*
X953500Y649600D01*
X30500Y648600D02*
X259500Y648600D01*
X809500Y648600D02*
X953500Y648600D01*
X30500Y647600D02*
X260500Y647600D01*
X809500Y647600D02*
X953500Y647600D01*
X30500Y646600D02*
X261500Y646600D01*
X808500Y646600D02*
X953500Y646600D01*
X30500Y645600D02*
X261500Y645600D01*
X808500Y645600D02*
X953500Y645600D01*
X30500Y644600D02*
X262500Y644600D01*
X807500Y644600D02*
X953500Y644600D01*
X30500Y643600D02*
X263500Y643600D01*
X806500Y643600D02*
X953500Y643600D01*
X30500Y642600D02*
X263500Y642600D01*
X805500Y642600D02*
X953500Y642600D01*
X30500Y641600D02*
X264500Y641600D01*
X320500Y641600D02*
X363500Y641600D01*
X805500Y641600D02*
X953500Y641600D01*
X30500Y640600D02*
X265500Y640600D01*
X320500Y640600D02*
X422500Y640600D01*
X804500Y640600D02*
X953500Y640600D01*
X30500Y639600D02*
X265500Y639600D01*
X320500Y639600D02*
X481500Y639600D01*
X803500Y639600D02*
X953500Y639600D01*
X30500Y638600D02*
X266500Y638600D01*
X320500Y638600D02*
X540500Y638600D01*
X801500Y638600D02*
X953500Y638600D01*
X30500Y637600D02*
X267500Y637600D01*
X321500Y637600D02*
X598500Y637600D01*
X800500Y637600D02*
X953500Y637600D01*
X30500Y636600D02*
X267500Y636600D01*
X321500Y636600D02*
X657500Y636600D01*
X798500Y636600D02*
X953500Y636600D01*
X30500Y635600D02*
X268500Y635600D01*
X322500Y635600D02*
X716500Y635600D01*
X795500Y635600D02*
X953500Y635600D01*
X30500Y634600D02*
X269500Y634600D01*
X323500Y634600D02*
X775500Y634600D01*
X790500Y634600D02*
X953500Y634600D01*
X30500Y633600D02*
X269500Y633600D01*
X323500Y633600D02*
X953500Y633600D01*
X30500Y632600D02*
X270500Y632600D01*
X324500Y632600D02*
X953500Y632600D01*
X30500Y631600D02*
X271500Y631600D01*
X325500Y631600D02*
X953500Y631600D01*
X30500Y630600D02*
X271500Y630600D01*
X325500Y630600D02*
X953500Y630600D01*
X30500Y629600D02*
X272500Y629600D01*
X326500Y629600D02*
X953500Y629600D01*
X30500Y628600D02*
X273500Y628600D01*
X327500Y628600D02*
X953500Y628600D01*
X30500Y627600D02*
X273500Y627600D01*
X327500Y627600D02*
X953500Y627600D01*
X30500Y626600D02*
X274500Y626600D01*
X328500Y626600D02*
X953500Y626600D01*
X30500Y625600D02*
X275500Y625600D01*
X329500Y625600D02*
X953500Y625600D01*
X30500Y624600D02*
X275500Y624600D01*
X329500Y624600D02*
X953500Y624600D01*
X30500Y623600D02*
X276500Y623600D01*
X330500Y623600D02*
X953500Y623600D01*
X30500Y622600D02*
X277500Y622600D01*
X331500Y622600D02*
X953500Y622600D01*
X30500Y621600D02*
X277500Y621600D01*
X331500Y621600D02*
X953500Y621600D01*
X30500Y620600D02*
X278500Y620600D01*
X332500Y620600D02*
X953500Y620600D01*
X30500Y619600D02*
X279500Y619600D01*
X333500Y619600D02*
X953500Y619600D01*
X30500Y618600D02*
X279500Y618600D01*
X333500Y618600D02*
X953500Y618600D01*
X30500Y617600D02*
X280500Y617600D01*
X334500Y617600D02*
X953500Y617600D01*
X30500Y616600D02*
X281500Y616600D01*
X335500Y616600D02*
X953500Y616600D01*
X30500Y615600D02*
X281500Y615600D01*
X335500Y615600D02*
X953500Y615600D01*
X30500Y614600D02*
X282500Y614600D01*
X336500Y614600D02*
X953500Y614600D01*
X30500Y613600D02*
X283500Y613600D01*
X337500Y613600D02*
X953500Y613600D01*
X30500Y612600D02*
X283500Y612600D01*
X337500Y612600D02*
X953500Y612600D01*
X30500Y611600D02*
X284500Y611600D01*
X338500Y611600D02*
X953500Y611600D01*
X30500Y610600D02*
X285500Y610600D01*
X339500Y610600D02*
X953500Y610600D01*
X30500Y609600D02*
X285500Y609600D01*
X339500Y609600D02*
X953500Y609600D01*
X30500Y608600D02*
X286500Y608600D01*
X340500Y608600D02*
X953500Y608600D01*
X30500Y607600D02*
X287500Y607600D01*
X341500Y607600D02*
X953500Y607600D01*
X30500Y606600D02*
X287500Y606600D01*
X341500Y606600D02*
X953500Y606600D01*
X30500Y605600D02*
X288500Y605600D01*
X342500Y605600D02*
X953500Y605600D01*
X30500Y604600D02*
X289500Y604600D01*
X343500Y604600D02*
X953500Y604600D01*
X30500Y603600D02*
X289500Y603600D01*
X343500Y603600D02*
X953500Y603600D01*
X30500Y602600D02*
X290500Y602600D01*
X344500Y602600D02*
X953500Y602600D01*
X30500Y601600D02*
X291500Y601600D01*
X345500Y601600D02*
X953500Y601600D01*
X30500Y600600D02*
X291500Y600600D01*
X345500Y600600D02*
X953500Y600600D01*
X30500Y599600D02*
X292500Y599600D01*
X346500Y599600D02*
X953500Y599600D01*
X30500Y598600D02*
X293500Y598600D01*
X347500Y598600D02*
X953500Y598600D01*
X30500Y597600D02*
X293500Y597600D01*
X347500Y597600D02*
X953500Y597600D01*
X30500Y596600D02*
X294500Y596600D01*
X348500Y596600D02*
X953500Y596600D01*
X30500Y595600D02*
X295500Y595600D01*
X349500Y595600D02*
X953500Y595600D01*
X30500Y594600D02*
X295500Y594600D01*
X349500Y594600D02*
X953500Y594600D01*
X30500Y593600D02*
X296500Y593600D01*
X350500Y593600D02*
X953500Y593600D01*
X30500Y592600D02*
X297500Y592600D01*
X351500Y592600D02*
X953500Y592600D01*
X30500Y591600D02*
X297500Y591600D01*
X351500Y591600D02*
X953500Y591600D01*
X30500Y590600D02*
X298500Y590600D01*
X352500Y590600D02*
X953500Y590600D01*
X30500Y589600D02*
X299500Y589600D01*
X353500Y589600D02*
X953500Y589600D01*
X30500Y588600D02*
X299500Y588600D01*
X353500Y588600D02*
X953500Y588600D01*
X30500Y587600D02*
X300500Y587600D01*
X354500Y587600D02*
X953500Y587600D01*
X30500Y586600D02*
X301500Y586600D01*
X355500Y586600D02*
X953500Y586600D01*
X30500Y585600D02*
X301500Y585600D01*
X355500Y585600D02*
X953500Y585600D01*
X30500Y584600D02*
X302500Y584600D01*
X356500Y584600D02*
X953500Y584600D01*
X30500Y583600D02*
X303500Y583600D01*
X357500Y583600D02*
X953500Y583600D01*
X30500Y582600D02*
X303500Y582600D01*
X357500Y582600D02*
X953500Y582600D01*
X30500Y581600D02*
X304500Y581600D01*
X358500Y581600D02*
X953500Y581600D01*
X30500Y580600D02*
X305500Y580600D01*
X359500Y580600D02*
X953500Y580600D01*
X30500Y579600D02*
X305500Y579600D01*
X359500Y579600D02*
X953500Y579600D01*
X30500Y578600D02*
X306500Y578600D01*
X360500Y578600D02*
X953500Y578600D01*
X30500Y577600D02*
X307500Y577600D01*
X361500Y577600D02*
X953500Y577600D01*
X30500Y576600D02*
X307500Y576600D01*
X361500Y576600D02*
X953500Y576600D01*
X30500Y575600D02*
X308500Y575600D01*
X362500Y575600D02*
X953500Y575600D01*
X30500Y574600D02*
X309500Y574600D01*
X363500Y574600D02*
X953500Y574600D01*
X30500Y573600D02*
X309500Y573600D01*
X363500Y573600D02*
X953500Y573600D01*
X30500Y572600D02*
X310500Y572600D01*
X364500Y572600D02*
X953500Y572600D01*
X30500Y571600D02*
X311500Y571600D01*
X365500Y571600D02*
X953500Y571600D01*
X30500Y570600D02*
X311500Y570600D01*
X365500Y570600D02*
X953500Y570600D01*
X30500Y569600D02*
X312500Y569600D01*
X366500Y569600D02*
X953500Y569600D01*
X30500Y568600D02*
X313500Y568600D01*
X367500Y568600D02*
X953500Y568600D01*
X30500Y567600D02*
X313500Y567600D01*
X367500Y567600D02*
X953500Y567600D01*
X30500Y566600D02*
X314500Y566600D01*
X368500Y566600D02*
X953500Y566600D01*
X30500Y565600D02*
X315500Y565600D01*
X369500Y565600D02*
X953500Y565600D01*
X30500Y564600D02*
X315500Y564600D01*
X369500Y564600D02*
X953500Y564600D01*
X30500Y563600D02*
X316500Y563600D01*
X370500Y563600D02*
X953500Y563600D01*
X30500Y562600D02*
X317500Y562600D01*
X371500Y562600D02*
X953500Y562600D01*
X30500Y561600D02*
X317500Y561600D01*
X371500Y561600D02*
X953500Y561600D01*
X30500Y560600D02*
X318500Y560600D01*
X372500Y560600D02*
X953500Y560600D01*
X30500Y559600D02*
X319500Y559600D01*
X373500Y559600D02*
X953500Y559600D01*
X30500Y558600D02*
X319500Y558600D01*
X373500Y558600D02*
X953500Y558600D01*
X30500Y557600D02*
X320500Y557600D01*
X374500Y557600D02*
X953500Y557600D01*
X30500Y556600D02*
X321500Y556600D01*
X375500Y556600D02*
X953500Y556600D01*
X30500Y555600D02*
X321500Y555600D01*
X375500Y555600D02*
X953500Y555600D01*
X30500Y554600D02*
X322500Y554600D01*
X376500Y554600D02*
X953500Y554600D01*
X30500Y553600D02*
X323500Y553600D01*
X377500Y553600D02*
X953500Y553600D01*
X30500Y552600D02*
X323500Y552600D01*
X377500Y552600D02*
X953500Y552600D01*
X30500Y551600D02*
X324500Y551600D01*
X378500Y551600D02*
X953500Y551600D01*
X30500Y550600D02*
X325500Y550600D01*
X379500Y550600D02*
X953500Y550600D01*
X30500Y549600D02*
X325500Y549600D01*
X379500Y549600D02*
X953500Y549600D01*
X30500Y548600D02*
X326500Y548600D01*
X380500Y548600D02*
X953500Y548600D01*
X30500Y547600D02*
X327500Y547600D01*
X381500Y547600D02*
X953500Y547600D01*
X30500Y546600D02*
X327500Y546600D01*
X381500Y546600D02*
X953500Y546600D01*
X30500Y545600D02*
X328500Y545600D01*
X382500Y545600D02*
X953500Y545600D01*
X30500Y544600D02*
X329500Y544600D01*
X383500Y544600D02*
X953500Y544600D01*
X30500Y543600D02*
X329500Y543600D01*
X383500Y543600D02*
X953500Y543600D01*
X30500Y542600D02*
X330500Y542600D01*
X384500Y542600D02*
X953500Y542600D01*
X30500Y541600D02*
X331500Y541600D01*
X385500Y541600D02*
X953500Y541600D01*
X30500Y540600D02*
X331500Y540600D01*
X385500Y540600D02*
X953500Y540600D01*
X30500Y539600D02*
X332500Y539600D01*
X386500Y539600D02*
X953500Y539600D01*
X30500Y538600D02*
X333500Y538600D01*
X387500Y538600D02*
X953500Y538600D01*
X30500Y537600D02*
X333500Y537600D01*
X387500Y537600D02*
X953500Y537600D01*
X30500Y536600D02*
X334500Y536600D01*
X388500Y536600D02*
X953500Y536600D01*
X30500Y535600D02*
X335500Y535600D01*
X389500Y535600D02*
X953500Y535600D01*
X30500Y534600D02*
X335500Y534600D01*
X389500Y534600D02*
X953500Y534600D01*
X30500Y533600D02*
X336500Y533600D01*
X390500Y533600D02*
X953500Y533600D01*
X30500Y532600D02*
X337500Y532600D01*
X391500Y532600D02*
X953500Y532600D01*
X30500Y531600D02*
X337500Y531600D01*
X391500Y531600D02*
X953500Y531600D01*
X30500Y530600D02*
X338500Y530600D01*
X392500Y530600D02*
X953500Y530600D01*
X30500Y529600D02*
X339500Y529600D01*
X392500Y529600D02*
X953500Y529600D01*
X30500Y528600D02*
X339500Y528600D01*
X393500Y528600D02*
X953500Y528600D01*
X30500Y527600D02*
X340500Y527600D01*
X393500Y527600D02*
X953500Y527600D01*
X30500Y526600D02*
X341500Y526600D01*
X393500Y526600D02*
X953500Y526600D01*
X30500Y525600D02*
X341500Y525600D01*
X393500Y525600D02*
X953500Y525600D01*
X30500Y524600D02*
X342500Y524600D01*
X393500Y524600D02*
X953500Y524600D01*
X30500Y523600D02*
X343500Y523600D01*
X394500Y523600D02*
X953500Y523600D01*
X30500Y522600D02*
X343500Y522600D01*
X394500Y522600D02*
X953500Y522600D01*
X30500Y521600D02*
X344500Y521600D01*
X394500Y521600D02*
X953500Y521600D01*
X30500Y520600D02*
X345500Y520600D01*
X394500Y520600D02*
X953500Y520600D01*
X30500Y519600D02*
X269500Y519600D01*
X292500Y519600D02*
X345500Y519600D01*
X394500Y519600D02*
X953500Y519600D01*
X30500Y518600D02*
X263500Y518600D01*
X298500Y518600D02*
X346500Y518600D01*
X394500Y518600D02*
X953500Y518600D01*
X30500Y517600D02*
X260500Y517600D01*
X302500Y517600D02*
X347500Y517600D01*
X394500Y517600D02*
X686500Y517600D01*
X694500Y517600D02*
X953500Y517600D01*
X30500Y516600D02*
X256500Y516600D01*
X305500Y516600D02*
X347500Y516600D01*
X394500Y516600D02*
X677500Y516600D01*
X703500Y516600D02*
X953500Y516600D01*
X30500Y515600D02*
X253500Y515600D01*
X308500Y515600D02*
X348500Y515600D01*
X394500Y515600D02*
X672500Y515600D01*
X708500Y515600D02*
X953500Y515600D01*
X30500Y514600D02*
X251500Y514600D01*
X311500Y514600D02*
X349500Y514600D01*
X395500Y514600D02*
X668500Y514600D01*
X712500Y514600D02*
X953500Y514600D01*
X30500Y513600D02*
X249500Y513600D01*
X313500Y513600D02*
X349500Y513600D01*
X395500Y513600D02*
X664500Y513600D01*
X715500Y513600D02*
X953500Y513600D01*
X30500Y512600D02*
X246500Y512600D01*
X315500Y512600D02*
X350500Y512600D01*
X395500Y512600D02*
X662500Y512600D01*
X718500Y512600D02*
X953500Y512600D01*
X30500Y511600D02*
X244500Y511600D01*
X317500Y511600D02*
X350500Y511600D01*
X395500Y511600D02*
X659500Y511600D01*
X720500Y511600D02*
X953500Y511600D01*
X30500Y510600D02*
X242500Y510600D01*
X319500Y510600D02*
X350500Y510600D01*
X395500Y510600D02*
X657500Y510600D01*
X723500Y510600D02*
X953500Y510600D01*
X30500Y509600D02*
X241500Y509600D01*
X321500Y509600D02*
X350500Y509600D01*
X395500Y509600D02*
X655500Y509600D01*
X725500Y509600D02*
X953500Y509600D01*
X30500Y508600D02*
X239500Y508600D01*
X323500Y508600D02*
X350500Y508600D01*
X395500Y508600D02*
X653500Y508600D01*
X727500Y508600D02*
X953500Y508600D01*
X30500Y507600D02*
X237500Y507600D01*
X324500Y507600D02*
X350500Y507600D01*
X395500Y507600D02*
X651500Y507600D01*
X729500Y507600D02*
X953500Y507600D01*
X30500Y506600D02*
X236500Y506600D01*
X326500Y506600D02*
X350500Y506600D01*
X395500Y506600D02*
X649500Y506600D01*
X730500Y506600D02*
X953500Y506600D01*
X30500Y505600D02*
X234500Y505600D01*
X327500Y505600D02*
X350500Y505600D01*
X396500Y505600D02*
X648500Y505600D01*
X732500Y505600D02*
X953500Y505600D01*
X30500Y504600D02*
X233500Y504600D01*
X329500Y504600D02*
X350500Y504600D01*
X396500Y504600D02*
X646500Y504600D01*
X734500Y504600D02*
X953500Y504600D01*
X30500Y503600D02*
X232500Y503600D01*
X330500Y503600D02*
X351500Y503600D01*
X396500Y503600D02*
X644500Y503600D01*
X735500Y503600D02*
X953500Y503600D01*
X30500Y502600D02*
X230500Y502600D01*
X331500Y502600D02*
X351500Y502600D01*
X396500Y502600D02*
X643500Y502600D01*
X737500Y502600D02*
X953500Y502600D01*
X30500Y501600D02*
X229500Y501600D01*
X332500Y501600D02*
X351500Y501600D01*
X396500Y501600D02*
X642500Y501600D01*
X738500Y501600D02*
X953500Y501600D01*
X30500Y500600D02*
X228500Y500600D01*
X334500Y500600D02*
X351500Y500600D01*
X396500Y500600D02*
X640500Y500600D01*
X739500Y500600D02*
X953500Y500600D01*
X30500Y499600D02*
X227500Y499600D01*
X335500Y499600D02*
X351500Y499600D01*
X396500Y499600D02*
X639500Y499600D01*
X741500Y499600D02*
X953500Y499600D01*
X30500Y498600D02*
X226500Y498600D01*
X336500Y498600D02*
X351500Y498600D01*
X396500Y498600D02*
X638500Y498600D01*
X742500Y498600D02*
X953500Y498600D01*
X30500Y497600D02*
X225500Y497600D01*
X337500Y497600D02*
X351500Y497600D01*
X396500Y497600D02*
X637500Y497600D01*
X743500Y497600D02*
X953500Y497600D01*
X30500Y496600D02*
X224500Y496600D01*
X338500Y496600D02*
X351500Y496600D01*
X396500Y496600D02*
X636500Y496600D01*
X744500Y496600D02*
X953500Y496600D01*
X30500Y495600D02*
X223500Y495600D01*
X339500Y495600D02*
X351500Y495600D01*
X397500Y495600D02*
X635500Y495600D01*
X745500Y495600D02*
X953500Y495600D01*
X30500Y494600D02*
X222500Y494600D01*
X340500Y494600D02*
X352500Y494600D01*
X397500Y494600D02*
X633500Y494600D01*
X746500Y494600D02*
X953500Y494600D01*
X30500Y493600D02*
X221500Y493600D01*
X341500Y493600D02*
X352500Y493600D01*
X397500Y493600D02*
X633500Y493600D01*
X747500Y493600D02*
X953500Y493600D01*
X30500Y492600D02*
X220500Y492600D01*
X341500Y492600D02*
X352500Y492600D01*
X397500Y492600D02*
X632500Y492600D01*
X748500Y492600D02*
X953500Y492600D01*
X30500Y491600D02*
X219500Y491600D01*
X342500Y491600D02*
X352500Y491600D01*
X397500Y491600D02*
X631500Y491600D01*
X749500Y491600D02*
X953500Y491600D01*
X30500Y490600D02*
X219500Y490600D01*
X343500Y490600D02*
X352500Y490600D01*
X397500Y490600D02*
X630500Y490600D01*
X750500Y490600D02*
X953500Y490600D01*
X30500Y489600D02*
X218500Y489600D01*
X344500Y489600D02*
X352500Y489600D01*
X397500Y489600D02*
X629500Y489600D01*
X751500Y489600D02*
X953500Y489600D01*
X30500Y488600D02*
X217500Y488600D01*
X345500Y488600D02*
X352500Y488600D01*
X397500Y488600D02*
X628500Y488600D01*
X752500Y488600D02*
X953500Y488600D01*
X30500Y487600D02*
X216500Y487600D01*
X345500Y487600D02*
X352500Y487600D01*
X397500Y487600D02*
X627500Y487600D01*
X752500Y487600D02*
X953500Y487600D01*
X30500Y486600D02*
X216500Y486600D01*
X346500Y486600D02*
X352500Y486600D01*
X398500Y486600D02*
X627500Y486600D01*
X753500Y486600D02*
X953500Y486600D01*
X30500Y485600D02*
X215500Y485600D01*
X347500Y485600D02*
X352500Y485600D01*
X398500Y485600D02*
X626500Y485600D01*
X754500Y485600D02*
X953500Y485600D01*
X30500Y484600D02*
X214500Y484600D01*
X347500Y484600D02*
X353500Y484600D01*
X398500Y484600D02*
X625500Y484600D01*
X754500Y484600D02*
X953500Y484600D01*
X30500Y483600D02*
X214500Y483600D01*
X348500Y483600D02*
X353500Y483600D01*
X398500Y483600D02*
X624500Y483600D01*
X755500Y483600D02*
X953500Y483600D01*
X30500Y482600D02*
X213500Y482600D01*
X348500Y482600D02*
X353500Y482600D01*
X398500Y482600D02*
X624500Y482600D01*
X756500Y482600D02*
X953500Y482600D01*
X30500Y481600D02*
X213500Y481600D01*
X349500Y481600D02*
X352500Y481600D01*
X398500Y481600D02*
X623500Y481600D01*
X756500Y481600D02*
X953500Y481600D01*
X30500Y480600D02*
X212500Y480600D01*
X350500Y480600D02*
X351500Y480600D01*
X398500Y480600D02*
X623500Y480600D01*
X757500Y480600D02*
X953500Y480600D01*
X30500Y479600D02*
X211500Y479600D01*
X398500Y479600D02*
X622500Y479600D01*
X758500Y479600D02*
X953500Y479600D01*
X30500Y478600D02*
X211500Y478600D01*
X398500Y478600D02*
X621500Y478600D01*
X758500Y478600D02*
X953500Y478600D01*
X30500Y477600D02*
X210500Y477600D01*
X398500Y477600D02*
X621500Y477600D01*
X759500Y477600D02*
X953500Y477600D01*
X30500Y476600D02*
X210500Y476600D01*
X399500Y476600D02*
X620500Y476600D01*
X759500Y476600D02*
X953500Y476600D01*
X30500Y475600D02*
X209500Y475600D01*
X399500Y475600D02*
X620500Y475600D01*
X760500Y475600D02*
X953500Y475600D01*
X30500Y474600D02*
X209500Y474600D01*
X399500Y474600D02*
X619500Y474600D01*
X760500Y474600D02*
X953500Y474600D01*
X30500Y473600D02*
X209500Y473600D01*
X399500Y473600D02*
X619500Y473600D01*
X761500Y473600D02*
X953500Y473600D01*
X30500Y472600D02*
X208500Y472600D01*
X399500Y472600D02*
X618500Y472600D01*
X761500Y472600D02*
X953500Y472600D01*
X30500Y471600D02*
X208500Y471600D01*
X399500Y471600D02*
X618500Y471600D01*
X762500Y471600D02*
X953500Y471600D01*
X30500Y470600D02*
X207500Y470600D01*
X399500Y470600D02*
X617500Y470600D01*
X762500Y470600D02*
X953500Y470600D01*
X30500Y469600D02*
X207500Y469600D01*
X399500Y469600D02*
X617500Y469600D01*
X763500Y469600D02*
X953500Y469600D01*
X30500Y468600D02*
X206500Y468600D01*
X399500Y468600D02*
X616500Y468600D01*
X763500Y468600D02*
X953500Y468600D01*
X30500Y467600D02*
X206500Y467600D01*
X400500Y467600D02*
X616500Y467600D01*
X764500Y467600D02*
X953500Y467600D01*
X30500Y466600D02*
X206500Y466600D01*
X400500Y466600D02*
X616500Y466600D01*
X764500Y466600D02*
X953500Y466600D01*
X30500Y465600D02*
X205500Y465600D01*
X400500Y465600D02*
X615500Y465600D01*
X764500Y465600D02*
X953500Y465600D01*
X30500Y464600D02*
X205500Y464600D01*
X400500Y464600D02*
X615500Y464600D01*
X765500Y464600D02*
X953500Y464600D01*
X30500Y463600D02*
X205500Y463600D01*
X400500Y463600D02*
X615500Y463600D01*
X765500Y463600D02*
X953500Y463600D01*
X30500Y462600D02*
X205500Y462600D01*
X400500Y462600D02*
X614500Y462600D01*
X765500Y462600D02*
X953500Y462600D01*
X30500Y461600D02*
X204500Y461600D01*
X400500Y461600D02*
X614500Y461600D01*
X766500Y461600D02*
X953500Y461600D01*
X30500Y460600D02*
X204500Y460600D01*
X400500Y460600D02*
X614500Y460600D01*
X766500Y460600D02*
X953500Y460600D01*
X30500Y459600D02*
X204500Y459600D01*
X400500Y459600D02*
X613500Y459600D01*
X766500Y459600D02*
X953500Y459600D01*
X30500Y458600D02*
X204500Y458600D01*
X400500Y458600D02*
X613500Y458600D01*
X766500Y458600D02*
X953500Y458600D01*
X30500Y457600D02*
X203500Y457600D01*
X401500Y457600D02*
X613500Y457600D01*
X767500Y457600D02*
X953500Y457600D01*
X30500Y456600D02*
X203500Y456600D01*
X401500Y456600D02*
X613500Y456600D01*
X767500Y456600D02*
X953500Y456600D01*
X30500Y455600D02*
X203500Y455600D01*
X401500Y455600D02*
X612500Y455600D01*
X767500Y455600D02*
X953500Y455600D01*
X30500Y454600D02*
X203500Y454600D01*
X401500Y454600D02*
X612500Y454600D01*
X767500Y454600D02*
X953500Y454600D01*
X30500Y453600D02*
X203500Y453600D01*
X401500Y453600D02*
X612500Y453600D01*
X768500Y453600D02*
X953500Y453600D01*
X30500Y452600D02*
X202500Y452600D01*
X401500Y452600D02*
X612500Y452600D01*
X768500Y452600D02*
X953500Y452600D01*
X30500Y451600D02*
X202500Y451600D01*
X401500Y451600D02*
X612500Y451600D01*
X768500Y451600D02*
X953500Y451600D01*
X30500Y450600D02*
X202500Y450600D01*
X401500Y450600D02*
X611500Y450600D01*
X768500Y450600D02*
X953500Y450600D01*
X30500Y449600D02*
X202500Y449600D01*
X401500Y449600D02*
X611500Y449600D01*
X768500Y449600D02*
X953500Y449600D01*
X30500Y448600D02*
X202500Y448600D01*
X402500Y448600D02*
X611500Y448600D01*
X768500Y448600D02*
X953500Y448600D01*
X30500Y447600D02*
X202500Y447600D01*
X402500Y447600D02*
X611500Y447600D01*
X769500Y447600D02*
X953500Y447600D01*
X30500Y446600D02*
X202500Y446600D01*
X402500Y446600D02*
X611500Y446600D01*
X769500Y446600D02*
X953500Y446600D01*
X30500Y445600D02*
X202500Y445600D01*
X402500Y445600D02*
X611500Y445600D01*
X769500Y445600D02*
X953500Y445600D01*
X30500Y444600D02*
X202500Y444600D01*
X402500Y444600D02*
X611500Y444600D01*
X769500Y444600D02*
X953500Y444600D01*
X30500Y443600D02*
X202500Y443600D01*
X402500Y443600D02*
X611500Y443600D01*
X769500Y443600D02*
X953500Y443600D01*
X30500Y442600D02*
X202500Y442600D01*
X402500Y442600D02*
X611500Y442600D01*
X769500Y442600D02*
X953500Y442600D01*
X30500Y441600D02*
X201500Y441600D01*
X402500Y441600D02*
X611500Y441600D01*
X769500Y441600D02*
X953500Y441600D01*
X30500Y440600D02*
X202500Y440600D01*
X402500Y440600D02*
X611500Y440600D01*
X769500Y440600D02*
X953500Y440600D01*
X30500Y439600D02*
X202500Y439600D01*
X402500Y439600D02*
X610500Y439600D01*
X769500Y439600D02*
X953500Y439600D01*
X30500Y438600D02*
X202500Y438600D01*
X403500Y438600D02*
X610500Y438600D01*
X769500Y438600D02*
X953500Y438600D01*
X30500Y437600D02*
X202500Y437600D01*
X403500Y437600D02*
X610500Y437600D01*
X769500Y437600D02*
X953500Y437600D01*
X30500Y436600D02*
X202500Y436600D01*
X403500Y436600D02*
X611500Y436600D01*
X769500Y436600D02*
X953500Y436600D01*
X30500Y435600D02*
X202500Y435600D01*
X403500Y435600D02*
X611500Y435600D01*
X769500Y435600D02*
X953500Y435600D01*
X30500Y434600D02*
X202500Y434600D01*
X403500Y434600D02*
X611500Y434600D01*
X769500Y434600D02*
X953500Y434600D01*
X30500Y433600D02*
X202500Y433600D01*
X403500Y433600D02*
X611500Y433600D01*
X769500Y433600D02*
X953500Y433600D01*
X30500Y432600D02*
X202500Y432600D01*
X403500Y432600D02*
X611500Y432600D01*
X769500Y432600D02*
X953500Y432600D01*
X30500Y431600D02*
X202500Y431600D01*
X403500Y431600D02*
X611500Y431600D01*
X769500Y431600D02*
X953500Y431600D01*
X30500Y430600D02*
X202500Y430600D01*
X403500Y430600D02*
X611500Y430600D01*
X769500Y430600D02*
X953500Y430600D01*
X30500Y429600D02*
X203500Y429600D01*
X404500Y429600D02*
X611500Y429600D01*
X768500Y429600D02*
X953500Y429600D01*
X30500Y428600D02*
X203500Y428600D01*
X404500Y428600D02*
X611500Y428600D01*
X768500Y428600D02*
X953500Y428600D01*
X30500Y427600D02*
X203500Y427600D01*
X404500Y427600D02*
X611500Y427600D01*
X768500Y427600D02*
X953500Y427600D01*
X30500Y426600D02*
X203500Y426600D01*
X404500Y426600D02*
X612500Y426600D01*
X768500Y426600D02*
X953500Y426600D01*
X30500Y425600D02*
X203500Y425600D01*
X404500Y425600D02*
X612500Y425600D01*
X768500Y425600D02*
X953500Y425600D01*
X30500Y424600D02*
X204500Y424600D01*
X404500Y424600D02*
X612500Y424600D01*
X768500Y424600D02*
X953500Y424600D01*
X30500Y423600D02*
X204500Y423600D01*
X404500Y423600D02*
X612500Y423600D01*
X768500Y423600D02*
X953500Y423600D01*
X30500Y422600D02*
X204500Y422600D01*
X404500Y422600D02*
X612500Y422600D01*
X767500Y422600D02*
X953500Y422600D01*
X30500Y421600D02*
X204500Y421600D01*
X404500Y421600D02*
X612500Y421600D01*
X767500Y421600D02*
X953500Y421600D01*
X30500Y420600D02*
X205500Y420600D01*
X404500Y420600D02*
X613500Y420600D01*
X767500Y420600D02*
X953500Y420600D01*
X30500Y419600D02*
X205500Y419600D01*
X405500Y419600D02*
X613500Y419600D01*
X767500Y419600D02*
X953500Y419600D01*
X30500Y418600D02*
X205500Y418600D01*
X405500Y418600D02*
X613500Y418600D01*
X766500Y418600D02*
X953500Y418600D01*
X30500Y417600D02*
X205500Y417600D01*
X356500Y417600D02*
X359500Y417600D01*
X405500Y417600D02*
X614500Y417600D01*
X766500Y417600D02*
X953500Y417600D01*
X30500Y416600D02*
X206500Y416600D01*
X356500Y416600D02*
X360500Y416600D01*
X405500Y416600D02*
X614500Y416600D01*
X766500Y416600D02*
X953500Y416600D01*
X30500Y415600D02*
X206500Y415600D01*
X356500Y415600D02*
X360500Y415600D01*
X405500Y415600D02*
X614500Y415600D01*
X765500Y415600D02*
X953500Y415600D01*
X30500Y414600D02*
X207500Y414600D01*
X355500Y414600D02*
X360500Y414600D01*
X405500Y414600D02*
X614500Y414600D01*
X765500Y414600D02*
X953500Y414600D01*
X30500Y413600D02*
X207500Y413600D01*
X355500Y413600D02*
X360500Y413600D01*
X405500Y413600D02*
X615500Y413600D01*
X765500Y413600D02*
X953500Y413600D01*
X30500Y412600D02*
X207500Y412600D01*
X354500Y412600D02*
X360500Y412600D01*
X405500Y412600D02*
X615500Y412600D01*
X764500Y412600D02*
X953500Y412600D01*
X30500Y411600D02*
X208500Y411600D01*
X354500Y411600D02*
X360500Y411600D01*
X405500Y411600D02*
X616500Y411600D01*
X764500Y411600D02*
X953500Y411600D01*
X30500Y410600D02*
X208500Y410600D01*
X354500Y410600D02*
X360500Y410600D01*
X406500Y410600D02*
X616500Y410600D01*
X764500Y410600D02*
X953500Y410600D01*
X30500Y409600D02*
X209500Y409600D01*
X353500Y409600D02*
X360500Y409600D01*
X406500Y409600D02*
X616500Y409600D01*
X763500Y409600D02*
X953500Y409600D01*
X30500Y408600D02*
X209500Y408600D01*
X353500Y408600D02*
X361500Y408600D01*
X406500Y408600D02*
X617500Y408600D01*
X763500Y408600D02*
X953500Y408600D01*
X30500Y407600D02*
X209500Y407600D01*
X352500Y407600D02*
X361500Y407600D01*
X406500Y407600D02*
X617500Y407600D01*
X762500Y407600D02*
X953500Y407600D01*
X30500Y406600D02*
X210500Y406600D01*
X352500Y406600D02*
X361500Y406600D01*
X406500Y406600D02*
X618500Y406600D01*
X762500Y406600D02*
X953500Y406600D01*
X30500Y405600D02*
X210500Y405600D01*
X351500Y405600D02*
X361500Y405600D01*
X406500Y405600D02*
X618500Y405600D01*
X762500Y405600D02*
X953500Y405600D01*
X30500Y404600D02*
X211500Y404600D01*
X351500Y404600D02*
X361500Y404600D01*
X406500Y404600D02*
X619500Y404600D01*
X761500Y404600D02*
X953500Y404600D01*
X30500Y403600D02*
X211500Y403600D01*
X350500Y403600D02*
X361500Y403600D01*
X406500Y403600D02*
X619500Y403600D01*
X761500Y403600D02*
X953500Y403600D01*
X30500Y402600D02*
X212500Y402600D01*
X350500Y402600D02*
X361500Y402600D01*
X406500Y402600D02*
X620500Y402600D01*
X760500Y402600D02*
X953500Y402600D01*
X30500Y401600D02*
X213500Y401600D01*
X349500Y401600D02*
X361500Y401600D01*
X406500Y401600D02*
X620500Y401600D01*
X760500Y401600D02*
X953500Y401600D01*
X30500Y400600D02*
X213500Y400600D01*
X348500Y400600D02*
X361500Y400600D01*
X407500Y400600D02*
X621500Y400600D01*
X759500Y400600D02*
X953500Y400600D01*
X30500Y399600D02*
X214500Y399600D01*
X348500Y399600D02*
X362500Y399600D01*
X407500Y399600D02*
X621500Y399600D01*
X758500Y399600D02*
X953500Y399600D01*
X30500Y398600D02*
X214500Y398600D01*
X347500Y398600D02*
X362500Y398600D01*
X407500Y398600D02*
X622500Y398600D01*
X758500Y398600D02*
X953500Y398600D01*
X30500Y397600D02*
X215500Y397600D01*
X347500Y397600D02*
X362500Y397600D01*
X407500Y397600D02*
X622500Y397600D01*
X757500Y397600D02*
X953500Y397600D01*
X30500Y396600D02*
X216500Y396600D01*
X346500Y396600D02*
X362500Y396600D01*
X407500Y396600D02*
X623500Y396600D01*
X757500Y396600D02*
X953500Y396600D01*
X30500Y395600D02*
X216500Y395600D01*
X345500Y395600D02*
X362500Y395600D01*
X407500Y395600D02*
X624500Y395600D01*
X756500Y395600D02*
X953500Y395600D01*
X30500Y394600D02*
X217500Y394600D01*
X344500Y394600D02*
X362500Y394600D01*
X407500Y394600D02*
X624500Y394600D01*
X755500Y394600D02*
X953500Y394600D01*
X30500Y393600D02*
X218500Y393600D01*
X344500Y393600D02*
X362500Y393600D01*
X407500Y393600D02*
X625500Y393600D01*
X755500Y393600D02*
X953500Y393600D01*
X30500Y392600D02*
X219500Y392600D01*
X343500Y392600D02*
X362500Y392600D01*
X407500Y392600D02*
X626500Y392600D01*
X754500Y392600D02*
X953500Y392600D01*
X30500Y391600D02*
X219500Y391600D01*
X342500Y391600D02*
X362500Y391600D01*
X408500Y391600D02*
X626500Y391600D01*
X753500Y391600D02*
X953500Y391600D01*
X30500Y390600D02*
X220500Y390600D01*
X341500Y390600D02*
X362500Y390600D01*
X408500Y390600D02*
X627500Y390600D01*
X753500Y390600D02*
X953500Y390600D01*
X30500Y389600D02*
X221500Y389600D01*
X340500Y389600D02*
X363500Y389600D01*
X408500Y389600D02*
X628500Y389600D01*
X752500Y389600D02*
X953500Y389600D01*
X30500Y388600D02*
X222500Y388600D01*
X340500Y388600D02*
X363500Y388600D01*
X408500Y388600D02*
X629500Y388600D01*
X751500Y388600D02*
X953500Y388600D01*
X30500Y387600D02*
X223500Y387600D01*
X339500Y387600D02*
X363500Y387600D01*
X408500Y387600D02*
X630500Y387600D01*
X750500Y387600D02*
X953500Y387600D01*
X30500Y386600D02*
X224500Y386600D01*
X338500Y386600D02*
X363500Y386600D01*
X408500Y386600D02*
X630500Y386600D01*
X749500Y386600D02*
X953500Y386600D01*
X30500Y385600D02*
X225500Y385600D01*
X337500Y385600D02*
X363500Y385600D01*
X408500Y385600D02*
X631500Y385600D01*
X748500Y385600D02*
X953500Y385600D01*
X30500Y384600D02*
X226500Y384600D01*
X336500Y384600D02*
X363500Y384600D01*
X408500Y384600D02*
X632500Y384600D01*
X747500Y384600D02*
X953500Y384600D01*
X30500Y383600D02*
X227500Y383600D01*
X335500Y383600D02*
X363500Y383600D01*
X408500Y383600D02*
X633500Y383600D01*
X747500Y383600D02*
X953500Y383600D01*
X30500Y382600D02*
X228500Y382600D01*
X334500Y382600D02*
X363500Y382600D01*
X409500Y382600D02*
X634500Y382600D01*
X745500Y382600D02*
X953500Y382600D01*
X30500Y381600D02*
X229500Y381600D01*
X332500Y381600D02*
X363500Y381600D01*
X409500Y381600D02*
X635500Y381600D01*
X744500Y381600D02*
X953500Y381600D01*
X30500Y380600D02*
X230500Y380600D01*
X331500Y380600D02*
X364500Y380600D01*
X409500Y380600D02*
X636500Y380600D01*
X743500Y380600D02*
X953500Y380600D01*
X30500Y379600D02*
X232500Y379600D01*
X330500Y379600D02*
X364500Y379600D01*
X409500Y379600D02*
X637500Y379600D01*
X742500Y379600D02*
X953500Y379600D01*
X30500Y378600D02*
X233500Y378600D01*
X328500Y378600D02*
X364500Y378600D01*
X409500Y378600D02*
X639500Y378600D01*
X741500Y378600D02*
X953500Y378600D01*
X30500Y377600D02*
X234500Y377600D01*
X327500Y377600D02*
X364500Y377600D01*
X409500Y377600D02*
X640500Y377600D01*
X740500Y377600D02*
X953500Y377600D01*
X30500Y376600D02*
X236500Y376600D01*
X326500Y376600D02*
X364500Y376600D01*
X409500Y376600D02*
X641500Y376600D01*
X738500Y376600D02*
X953500Y376600D01*
X30500Y375600D02*
X238500Y375600D01*
X324500Y375600D02*
X364500Y375600D01*
X409500Y375600D02*
X642500Y375600D01*
X737500Y375600D02*
X953500Y375600D01*
X30500Y374600D02*
X239500Y374600D01*
X322500Y374600D02*
X364500Y374600D01*
X409500Y374600D02*
X644500Y374600D01*
X736500Y374600D02*
X953500Y374600D01*
X30500Y373600D02*
X241500Y373600D01*
X321500Y373600D02*
X364500Y373600D01*
X409500Y373600D02*
X645500Y373600D01*
X734500Y373600D02*
X953500Y373600D01*
X30500Y372600D02*
X243500Y372600D01*
X319500Y372600D02*
X364500Y372600D01*
X410500Y372600D02*
X647500Y372600D01*
X733500Y372600D02*
X953500Y372600D01*
X30500Y371600D02*
X245500Y371600D01*
X317500Y371600D02*
X364500Y371600D01*
X410500Y371600D02*
X649500Y371600D01*
X731500Y371600D02*
X953500Y371600D01*
X30500Y370600D02*
X247500Y370600D01*
X315500Y370600D02*
X365500Y370600D01*
X410500Y370600D02*
X650500Y370600D01*
X729500Y370600D02*
X953500Y370600D01*
X30500Y369600D02*
X249500Y369600D01*
X313500Y369600D02*
X365500Y369600D01*
X410500Y369600D02*
X652500Y369600D01*
X728500Y369600D02*
X953500Y369600D01*
X30500Y368600D02*
X251500Y368600D01*
X311500Y368600D02*
X365500Y368600D01*
X410500Y368600D02*
X654500Y368600D01*
X726500Y368600D02*
X953500Y368600D01*
X30500Y367600D02*
X254500Y367600D01*
X308500Y367600D02*
X365500Y367600D01*
X410500Y367600D02*
X656500Y367600D01*
X723500Y367600D02*
X953500Y367600D01*
X30500Y366600D02*
X257500Y366600D01*
X305500Y366600D02*
X365500Y366600D01*
X410500Y366600D02*
X658500Y366600D01*
X721500Y366600D02*
X953500Y366600D01*
X30500Y365600D02*
X260500Y365600D01*
X301500Y365600D02*
X365500Y365600D01*
X410500Y365600D02*
X661500Y365600D01*
X719500Y365600D02*
X953500Y365600D01*
X30500Y364600D02*
X264500Y364600D01*
X298500Y364600D02*
X365500Y364600D01*
X410500Y364600D02*
X664500Y364600D01*
X716500Y364600D02*
X953500Y364600D01*
X30500Y363600D02*
X270500Y363600D01*
X292500Y363600D02*
X365500Y363600D01*
X411500Y363600D02*
X667500Y363600D01*
X713500Y363600D02*
X953500Y363600D01*
X30500Y362600D02*
X365500Y362600D01*
X411500Y362600D02*
X670500Y362600D01*
X709500Y362600D02*
X953500Y362600D01*
X30500Y361600D02*
X366500Y361600D01*
X411500Y361600D02*
X674500Y361600D01*
X705500Y361600D02*
X953500Y361600D01*
X30500Y360600D02*
X366500Y360600D01*
X411500Y360600D02*
X681500Y360600D01*
X699500Y360600D02*
X953500Y360600D01*
X30500Y359600D02*
X366500Y359600D01*
X411500Y359600D02*
X953500Y359600D01*
X30500Y358600D02*
X366500Y358600D01*
X411500Y358600D02*
X953500Y358600D01*
X30500Y357600D02*
X366500Y357600D01*
X411500Y357600D02*
X953500Y357600D01*
X30500Y356600D02*
X366500Y356600D01*
X411500Y356600D02*
X953500Y356600D01*
X30500Y355600D02*
X366500Y355600D01*
X411500Y355600D02*
X953500Y355600D01*
X30500Y354600D02*
X366500Y354600D01*
X411500Y354600D02*
X953500Y354600D01*
X30500Y353600D02*
X366500Y353600D01*
X412500Y353600D02*
X953500Y353600D01*
X30500Y352600D02*
X366500Y352600D01*
X412500Y352600D02*
X953500Y352600D01*
X30500Y351600D02*
X367500Y351600D01*
X412500Y351600D02*
X953500Y351600D01*
X30500Y350600D02*
X367500Y350600D01*
X412500Y350600D02*
X953500Y350600D01*
X30500Y349600D02*
X367500Y349600D01*
X412500Y349600D02*
X953500Y349600D01*
X30500Y348600D02*
X367500Y348600D01*
X412500Y348600D02*
X953500Y348600D01*
X30500Y347600D02*
X367500Y347600D01*
X412500Y347600D02*
X953500Y347600D01*
X30500Y346600D02*
X367500Y346600D01*
X412500Y346600D02*
X953500Y346600D01*
X30500Y345600D02*
X367500Y345600D01*
X412500Y345600D02*
X953500Y345600D01*
X30500Y344600D02*
X367500Y344600D01*
X413500Y344600D02*
X953500Y344600D01*
X30500Y343600D02*
X367500Y343600D01*
X413500Y343600D02*
X953500Y343600D01*
X30500Y342600D02*
X367500Y342600D01*
X413500Y342600D02*
X953500Y342600D01*
X30500Y341600D02*
X366500Y341600D01*
X413500Y341600D02*
X953500Y341600D01*
X30500Y340600D02*
X366500Y340600D01*
X413500Y340600D02*
X953500Y340600D01*
X30500Y339600D02*
X365500Y339600D01*
X413500Y339600D02*
X953500Y339600D01*
X30500Y338600D02*
X365500Y338600D01*
X413500Y338600D02*
X953500Y338600D01*
X30500Y337600D02*
X365500Y337600D01*
X413500Y337600D02*
X953500Y337600D01*
X30500Y336600D02*
X364500Y336600D01*
X412500Y336600D02*
X953500Y336600D01*
X30500Y335600D02*
X364500Y335600D01*
X412500Y335600D02*
X953500Y335600D01*
X30500Y334600D02*
X363500Y334600D01*
X412500Y334600D02*
X953500Y334600D01*
X30500Y333600D02*
X363500Y333600D01*
X412500Y333600D02*
X953500Y333600D01*
X30500Y332600D02*
X362500Y332600D01*
X411500Y332600D02*
X953500Y332600D01*
X30500Y331600D02*
X362500Y331600D01*
X411500Y331600D02*
X953500Y331600D01*
X30500Y330600D02*
X362500Y330600D01*
X410500Y330600D02*
X953500Y330600D01*
X30500Y329600D02*
X361500Y329600D01*
X410500Y329600D02*
X953500Y329600D01*
X30500Y328600D02*
X361500Y328600D01*
X410500Y328600D02*
X953500Y328600D01*
X30500Y327600D02*
X360500Y327600D01*
X409500Y327600D02*
X953500Y327600D01*
X30500Y326600D02*
X360500Y326600D01*
X409500Y326600D02*
X953500Y326600D01*
X30500Y325600D02*
X359500Y325600D01*
X408500Y325600D02*
X953500Y325600D01*
X30500Y324600D02*
X359500Y324600D01*
X408500Y324600D02*
X953500Y324600D01*
X30500Y323600D02*
X358500Y323600D01*
X407500Y323600D02*
X953500Y323600D01*
X30500Y322600D02*
X358500Y322600D01*
X407500Y322600D02*
X953500Y322600D01*
X30500Y321600D02*
X358500Y321600D01*
X407500Y321600D02*
X953500Y321600D01*
X30500Y320600D02*
X357500Y320600D01*
X406500Y320600D02*
X953500Y320600D01*
X30500Y319600D02*
X357500Y319600D01*
X406500Y319600D02*
X953500Y319600D01*
X30500Y318600D02*
X356500Y318600D01*
X405500Y318600D02*
X953500Y318600D01*
X30500Y317600D02*
X356500Y317600D01*
X405500Y317600D02*
X953500Y317600D01*
X30500Y316600D02*
X355500Y316600D01*
X404500Y316600D02*
X953500Y316600D01*
X30500Y315600D02*
X355500Y315600D01*
X404500Y315600D02*
X953500Y315600D01*
X30500Y314600D02*
X354500Y314600D01*
X403500Y314600D02*
X953500Y314600D01*
X30500Y313600D02*
X354500Y313600D01*
X403500Y313600D02*
X953500Y313600D01*
X30500Y312600D02*
X354500Y312600D01*
X403500Y312600D02*
X953500Y312600D01*
X30500Y311600D02*
X353500Y311600D01*
X402500Y311600D02*
X953500Y311600D01*
X30500Y310600D02*
X353500Y310600D01*
X402500Y310600D02*
X953500Y310600D01*
X30500Y309600D02*
X352500Y309600D01*
X401500Y309600D02*
X953500Y309600D01*
X30500Y308600D02*
X352500Y308600D01*
X401500Y308600D02*
X953500Y308600D01*
X30500Y307600D02*
X351500Y307600D01*
X400500Y307600D02*
X953500Y307600D01*
X30500Y306600D02*
X351500Y306600D01*
X400500Y306600D02*
X953500Y306600D01*
X30500Y305600D02*
X350500Y305600D01*
X400500Y305600D02*
X953500Y305600D01*
X30500Y304600D02*
X350500Y304600D01*
X399500Y304600D02*
X953500Y304600D01*
X30500Y303600D02*
X350500Y303600D01*
X399500Y303600D02*
X953500Y303600D01*
X30500Y302600D02*
X349500Y302600D01*
X398500Y302600D02*
X953500Y302600D01*
X30500Y301600D02*
X349500Y301600D01*
X398500Y301600D02*
X953500Y301600D01*
X30500Y300600D02*
X348500Y300600D01*
X397500Y300600D02*
X953500Y300600D01*
X30500Y299600D02*
X348500Y299600D01*
X397500Y299600D02*
X953500Y299600D01*
X30500Y298600D02*
X347500Y298600D01*
X396500Y298600D02*
X953500Y298600D01*
X30500Y297600D02*
X347500Y297600D01*
X396500Y297600D02*
X953500Y297600D01*
X30500Y296600D02*
X347500Y296600D01*
X396500Y296600D02*
X953500Y296600D01*
X30500Y295600D02*
X346500Y295600D01*
X395500Y295600D02*
X953500Y295600D01*
X30500Y294600D02*
X346500Y294600D01*
X395500Y294600D02*
X953500Y294600D01*
X30500Y293600D02*
X345500Y293600D01*
X394500Y293600D02*
X953500Y293600D01*
X30500Y292600D02*
X345500Y292600D01*
X394500Y292600D02*
X953500Y292600D01*
X30500Y291600D02*
X344500Y291600D01*
X393500Y291600D02*
X953500Y291600D01*
X30500Y290600D02*
X344500Y290600D01*
X393500Y290600D02*
X953500Y290600D01*
X30500Y289600D02*
X343500Y289600D01*
X392500Y289600D02*
X953500Y289600D01*
X30500Y288600D02*
X343500Y288600D01*
X392500Y288600D02*
X953500Y288600D01*
X30500Y287600D02*
X343500Y287600D01*
X392500Y287600D02*
X953500Y287600D01*
X30500Y286600D02*
X342500Y286600D01*
X391500Y286600D02*
X953500Y286600D01*
X30500Y285600D02*
X342500Y285600D01*
X391500Y285600D02*
X953500Y285600D01*
X30500Y284600D02*
X341500Y284600D01*
X390500Y284600D02*
X953500Y284600D01*
X30500Y283600D02*
X341500Y283600D01*
X390500Y283600D02*
X953500Y283600D01*
X30500Y282600D02*
X340500Y282600D01*
X389500Y282600D02*
X953500Y282600D01*
X30500Y281600D02*
X340500Y281600D01*
X389500Y281600D02*
X953500Y281600D01*
X30500Y280600D02*
X339500Y280600D01*
X389500Y280600D02*
X953500Y280600D01*
X30500Y279600D02*
X339500Y279600D01*
X388500Y279600D02*
X953500Y279600D01*
X30500Y278600D02*
X339500Y278600D01*
X388500Y278600D02*
X953500Y278600D01*
X30500Y277600D02*
X338500Y277600D01*
X387500Y277600D02*
X953500Y277600D01*
X30500Y276600D02*
X338500Y276600D01*
X387500Y276600D02*
X953500Y276600D01*
X30500Y275600D02*
X337500Y275600D01*
X386500Y275600D02*
X953500Y275600D01*
X30500Y274600D02*
X337500Y274600D01*
X386500Y274600D02*
X953500Y274600D01*
X30500Y273600D02*
X336500Y273600D01*
X385500Y273600D02*
X953500Y273600D01*
X30500Y272600D02*
X336500Y272600D01*
X385500Y272600D02*
X953500Y272600D01*
X30500Y271600D02*
X335500Y271600D01*
X385500Y271600D02*
X953500Y271600D01*
X30500Y270600D02*
X335500Y270600D01*
X384500Y270600D02*
X953500Y270600D01*
X30500Y269600D02*
X335500Y269600D01*
X384500Y269600D02*
X953500Y269600D01*
X30500Y268600D02*
X334500Y268600D01*
X383500Y268600D02*
X953500Y268600D01*
X30500Y267600D02*
X334500Y267600D01*
X383500Y267600D02*
X953500Y267600D01*
X30500Y266600D02*
X333500Y266600D01*
X382500Y266600D02*
X953500Y266600D01*
X30500Y265600D02*
X333500Y265600D01*
X382500Y265600D02*
X953500Y265600D01*
X30500Y264600D02*
X332500Y264600D01*
X381500Y264600D02*
X953500Y264600D01*
X30500Y263600D02*
X332500Y263600D01*
X381500Y263600D02*
X953500Y263600D01*
X30500Y262600D02*
X332500Y262600D01*
X381500Y262600D02*
X953500Y262600D01*
X30500Y261600D02*
X331500Y261600D01*
X380500Y261600D02*
X953500Y261600D01*
X30500Y260600D02*
X331500Y260600D01*
X380500Y260600D02*
X953500Y260600D01*
X30500Y259600D02*
X330500Y259600D01*
X379500Y259600D02*
X953500Y259600D01*
X30500Y258600D02*
X330500Y258600D01*
X379500Y258600D02*
X953500Y258600D01*
X30500Y257600D02*
X329500Y257600D01*
X378500Y257600D02*
X953500Y257600D01*
X30500Y256600D02*
X329500Y256600D01*
X378500Y256600D02*
X953500Y256600D01*
X30500Y255600D02*
X328500Y255600D01*
X378500Y255600D02*
X953500Y255600D01*
X30500Y254600D02*
X328500Y254600D01*
X377500Y254600D02*
X953500Y254600D01*
X30500Y253600D02*
X328500Y253600D01*
X377500Y253600D02*
X953500Y253600D01*
X30500Y252600D02*
X327500Y252600D01*
X376500Y252600D02*
X953500Y252600D01*
X30500Y251600D02*
X327500Y251600D01*
X376500Y251600D02*
X953500Y251600D01*
X30500Y250600D02*
X326500Y250600D01*
X375500Y250600D02*
X953500Y250600D01*
X30500Y249600D02*
X326500Y249600D01*
X375500Y249600D02*
X953500Y249600D01*
X30500Y248600D02*
X116500Y248600D01*
X145500Y248600D02*
X325500Y248600D01*
X374500Y248600D02*
X840500Y248600D01*
X864500Y248600D02*
X953500Y248600D01*
X30500Y247600D02*
X110500Y247600D01*
X151500Y247600D02*
X325500Y247600D01*
X374500Y247600D02*
X834500Y247600D01*
X871500Y247600D02*
X953500Y247600D01*
X30500Y246600D02*
X104500Y246600D01*
X157500Y246600D02*
X324500Y246600D01*
X374500Y246600D02*
X827500Y246600D01*
X877500Y246600D02*
X953500Y246600D01*
X30500Y245600D02*
X100500Y245600D01*
X161500Y245600D02*
X324500Y245600D01*
X373500Y245600D02*
X823500Y245600D01*
X881500Y245600D02*
X953500Y245600D01*
X30500Y244600D02*
X96500Y244600D01*
X164500Y244600D02*
X324500Y244600D01*
X373500Y244600D02*
X820500Y244600D01*
X885500Y244600D02*
X953500Y244600D01*
X30500Y243600D02*
X93500Y243600D01*
X168500Y243600D02*
X323500Y243600D01*
X372500Y243600D02*
X816500Y243600D01*
X889500Y243600D02*
X953500Y243600D01*
X30500Y242600D02*
X91500Y242600D01*
X170500Y242600D02*
X323500Y242600D01*
X372500Y242600D02*
X813500Y242600D01*
X892500Y242600D02*
X953500Y242600D01*
X30500Y241600D02*
X88500Y241600D01*
X173500Y241600D02*
X322500Y241600D01*
X371500Y241600D02*
X810500Y241600D01*
X894500Y241600D02*
X953500Y241600D01*
X30500Y240600D02*
X85500Y240600D01*
X176500Y240600D02*
X322500Y240600D01*
X371500Y240600D02*
X808500Y240600D01*
X897500Y240600D02*
X953500Y240600D01*
X30500Y239600D02*
X83500Y239600D01*
X178500Y239600D02*
X321500Y239600D01*
X370500Y239600D02*
X805500Y239600D01*
X899500Y239600D02*
X953500Y239600D01*
X30500Y238600D02*
X81500Y238600D01*
X180500Y238600D02*
X321500Y238600D01*
X370500Y238600D02*
X803500Y238600D01*
X902500Y238600D02*
X953500Y238600D01*
X30500Y237600D02*
X79500Y237600D01*
X182500Y237600D02*
X321500Y237600D01*
X370500Y237600D02*
X801500Y237600D01*
X904500Y237600D02*
X953500Y237600D01*
X30500Y236600D02*
X76500Y236600D01*
X184500Y236600D02*
X320500Y236600D01*
X369500Y236600D02*
X799500Y236600D01*
X906500Y236600D02*
X953500Y236600D01*
X30500Y235600D02*
X74500Y235600D01*
X186500Y235600D02*
X320500Y235600D01*
X369500Y235600D02*
X797500Y235600D01*
X908500Y235600D02*
X953500Y235600D01*
X30500Y234600D02*
X73500Y234600D01*
X188500Y234600D02*
X319500Y234600D01*
X368500Y234600D02*
X795500Y234600D01*
X910500Y234600D02*
X953500Y234600D01*
X30500Y233600D02*
X71500Y233600D01*
X190500Y233600D02*
X319500Y233600D01*
X368500Y233600D02*
X793500Y233600D01*
X911500Y233600D02*
X953500Y233600D01*
X30500Y232600D02*
X69500Y232600D01*
X191500Y232600D02*
X318500Y232600D01*
X367500Y232600D02*
X792500Y232600D01*
X913500Y232600D02*
X953500Y232600D01*
X30500Y231600D02*
X68500Y231600D01*
X193500Y231600D02*
X318500Y231600D01*
X367500Y231600D02*
X790500Y231600D01*
X914500Y231600D02*
X953500Y231600D01*
X30500Y230600D02*
X66500Y230600D01*
X195500Y230600D02*
X317500Y230600D01*
X367500Y230600D02*
X788500Y230600D01*
X916500Y230600D02*
X953500Y230600D01*
X30500Y229600D02*
X64500Y229600D01*
X196500Y229600D02*
X317500Y229600D01*
X366500Y229600D02*
X787500Y229600D01*
X918500Y229600D02*
X953500Y229600D01*
X30500Y228600D02*
X63500Y228600D01*
X198500Y228600D02*
X316500Y228600D01*
X366500Y228600D02*
X785500Y228600D01*
X919500Y228600D02*
X953500Y228600D01*
X30500Y227600D02*
X62500Y227600D01*
X199500Y227600D02*
X313500Y227600D01*
X365500Y227600D02*
X374500Y227600D01*
X403500Y227600D02*
X433500Y227600D01*
X462500Y227600D02*
X557500Y227600D01*
X572500Y227600D02*
X619500Y227600D01*
X710500Y227600D02*
X784500Y227600D01*
X921500Y227600D02*
X953500Y227600D01*
X30500Y226600D02*
X60500Y226600D01*
X201500Y226600D02*
X307500Y226600D01*
X365500Y226600D02*
X371500Y226600D01*
X403500Y226600D02*
X433500Y226600D01*
X465500Y226600D02*
X552500Y226600D01*
X577500Y226600D02*
X617500Y226600D01*
X712500Y226600D02*
X783500Y226600D01*
X922500Y226600D02*
X953500Y226600D01*
X30500Y225600D02*
X59500Y225600D01*
X202500Y225600D02*
X304500Y225600D01*
X364500Y225600D02*
X370500Y225600D01*
X403500Y225600D02*
X433500Y225600D01*
X466500Y225600D02*
X549500Y225600D01*
X580500Y225600D02*
X616500Y225600D01*
X713500Y225600D02*
X781500Y225600D01*
X923500Y225600D02*
X953500Y225600D01*
X30500Y224600D02*
X58500Y224600D01*
X203500Y224600D02*
X301500Y224600D01*
X364500Y224600D02*
X369500Y224600D01*
X403500Y224600D02*
X433500Y224600D01*
X468500Y224600D02*
X546500Y224600D01*
X583500Y224600D02*
X615500Y224600D01*
X714500Y224600D02*
X780500Y224600D01*
X925500Y224600D02*
X953500Y224600D01*
X30500Y223600D02*
X56500Y223600D01*
X205500Y223600D02*
X297500Y223600D01*
X363500Y223600D02*
X368500Y223600D01*
X403500Y223600D02*
X433500Y223600D01*
X468500Y223600D02*
X543500Y223600D01*
X586500Y223600D02*
X614500Y223600D01*
X715500Y223600D02*
X779500Y223600D01*
X926500Y223600D02*
X953500Y223600D01*
X30500Y222600D02*
X55500Y222600D01*
X206500Y222600D02*
X296500Y222600D01*
X363500Y222600D02*
X367500Y222600D01*
X403500Y222600D02*
X433500Y222600D01*
X469500Y222600D02*
X541500Y222600D01*
X588500Y222600D02*
X613500Y222600D01*
X716500Y222600D02*
X777500Y222600D01*
X927500Y222600D02*
X953500Y222600D01*
X30500Y221600D02*
X54500Y221600D01*
X207500Y221600D02*
X294500Y221600D01*
X363500Y221600D02*
X367500Y221600D01*
X403500Y221600D02*
X433500Y221600D01*
X469500Y221600D02*
X539500Y221600D01*
X590500Y221600D02*
X613500Y221600D01*
X716500Y221600D02*
X776500Y221600D01*
X929500Y221600D02*
X953500Y221600D01*
X30500Y220600D02*
X53500Y220600D01*
X208500Y220600D02*
X292500Y220600D01*
X362500Y220600D02*
X366500Y220600D01*
X403500Y220600D02*
X433500Y220600D01*
X470500Y220600D02*
X537500Y220600D01*
X591500Y220600D02*
X613500Y220600D01*
X716500Y220600D02*
X775500Y220600D01*
X930500Y220600D02*
X953500Y220600D01*
X30500Y219600D02*
X51500Y219600D01*
X209500Y219600D02*
X290500Y219600D01*
X362500Y219600D02*
X366500Y219600D01*
X403500Y219600D02*
X433500Y219600D01*
X470500Y219600D02*
X536500Y219600D01*
X593500Y219600D02*
X612500Y219600D01*
X716500Y219600D02*
X774500Y219600D01*
X931500Y219600D02*
X953500Y219600D01*
X30500Y218600D02*
X50500Y218600D01*
X210500Y218600D02*
X288500Y218600D01*
X361500Y218600D02*
X366500Y218600D01*
X403500Y218600D02*
X433500Y218600D01*
X470500Y218600D02*
X534500Y218600D01*
X595500Y218600D02*
X612500Y218600D01*
X717500Y218600D02*
X773500Y218600D01*
X932500Y218600D02*
X953500Y218600D01*
X30500Y217600D02*
X49500Y217600D01*
X212500Y217600D02*
X287500Y217600D01*
X361500Y217600D02*
X366500Y217600D01*
X403500Y217600D02*
X433500Y217600D01*
X470500Y217600D02*
X533500Y217600D01*
X596500Y217600D02*
X612500Y217600D01*
X717500Y217600D02*
X771500Y217600D01*
X933500Y217600D02*
X953500Y217600D01*
X30500Y216600D02*
X48500Y216600D01*
X213500Y216600D02*
X286500Y216600D01*
X360500Y216600D02*
X366500Y216600D01*
X403500Y216600D02*
X433500Y216600D01*
X470500Y216600D02*
X532500Y216600D01*
X597500Y216600D02*
X612500Y216600D01*
X717500Y216600D02*
X770500Y216600D01*
X934500Y216600D02*
X953500Y216600D01*
X30500Y215600D02*
X47500Y215600D01*
X214500Y215600D02*
X284500Y215600D01*
X360500Y215600D02*
X366500Y215600D01*
X403500Y215600D02*
X433500Y215600D01*
X470500Y215600D02*
X530500Y215600D01*
X599500Y215600D02*
X612500Y215600D01*
X717500Y215600D02*
X769500Y215600D01*
X935500Y215600D02*
X953500Y215600D01*
X30500Y214600D02*
X46500Y214600D01*
X215500Y214600D02*
X283500Y214600D01*
X359500Y214600D02*
X366500Y214600D01*
X403500Y214600D02*
X433500Y214600D01*
X470500Y214600D02*
X529500Y214600D01*
X600500Y214600D02*
X612500Y214600D01*
X717500Y214600D02*
X768500Y214600D01*
X936500Y214600D02*
X953500Y214600D01*
X30500Y213600D02*
X45500Y213600D01*
X216500Y213600D02*
X282500Y213600D01*
X359500Y213600D02*
X366500Y213600D01*
X403500Y213600D02*
X433500Y213600D01*
X470500Y213600D02*
X528500Y213600D01*
X601500Y213600D02*
X612500Y213600D01*
X717500Y213600D02*
X767500Y213600D01*
X937500Y213600D02*
X953500Y213600D01*
X30500Y212600D02*
X44500Y212600D01*
X217500Y212600D02*
X281500Y212600D01*
X359500Y212600D02*
X366500Y212600D01*
X403500Y212600D02*
X433500Y212600D01*
X470500Y212600D02*
X527500Y212600D01*
X602500Y212600D02*
X612500Y212600D01*
X717500Y212600D02*
X766500Y212600D01*
X938500Y212600D02*
X953500Y212600D01*
X30500Y211600D02*
X43500Y211600D01*
X218500Y211600D02*
X280500Y211600D01*
X358500Y211600D02*
X366500Y211600D01*
X403500Y211600D02*
X433500Y211600D01*
X470500Y211600D02*
X526500Y211600D01*
X603500Y211600D02*
X612500Y211600D01*
X717500Y211600D02*
X765500Y211600D01*
X939500Y211600D02*
X953500Y211600D01*
X30500Y210600D02*
X42500Y210600D01*
X218500Y210600D02*
X279500Y210600D01*
X358500Y210600D02*
X366500Y210600D01*
X403500Y210600D02*
X433500Y210600D01*
X470500Y210600D02*
X525500Y210600D01*
X604500Y210600D02*
X612500Y210600D01*
X717500Y210600D02*
X765500Y210600D01*
X940500Y210600D02*
X953500Y210600D01*
X30500Y209600D02*
X42500Y209600D01*
X219500Y209600D02*
X278500Y209600D01*
X358500Y209600D02*
X366500Y209600D01*
X403500Y209600D02*
X433500Y209600D01*
X470500Y209600D02*
X525500Y209600D01*
X604500Y209600D02*
X612500Y209600D01*
X717500Y209600D02*
X764500Y209600D01*
X941500Y209600D02*
X953500Y209600D01*
X30500Y208600D02*
X41500Y208600D01*
X220500Y208600D02*
X278500Y208600D01*
X358500Y208600D02*
X366500Y208600D01*
X403500Y208600D02*
X433500Y208600D01*
X470500Y208600D02*
X524500Y208600D01*
X605500Y208600D02*
X612500Y208600D01*
X717500Y208600D02*
X763500Y208600D01*
X942500Y208600D02*
X953500Y208600D01*
X30500Y207600D02*
X40500Y207600D01*
X221500Y207600D02*
X277500Y207600D01*
X359500Y207600D02*
X366500Y207600D01*
X403500Y207600D02*
X433500Y207600D01*
X470500Y207600D02*
X523500Y207600D01*
X606500Y207600D02*
X612500Y207600D01*
X717500Y207600D02*
X762500Y207600D01*
X943500Y207600D02*
X953500Y207600D01*
X30500Y206600D02*
X39500Y206600D01*
X222500Y206600D02*
X276500Y206600D01*
X360500Y206600D02*
X366500Y206600D01*
X403500Y206600D02*
X433500Y206600D01*
X470500Y206600D02*
X522500Y206600D01*
X607500Y206600D02*
X612500Y206600D01*
X717500Y206600D02*
X761500Y206600D01*
X944500Y206600D02*
X953500Y206600D01*
X30500Y205600D02*
X38500Y205600D01*
X223500Y205600D02*
X275500Y205600D01*
X361500Y205600D02*
X366500Y205600D01*
X403500Y205600D02*
X433500Y205600D01*
X470500Y205600D02*
X521500Y205600D01*
X608500Y205600D02*
X612500Y205600D01*
X717500Y205600D02*
X760500Y205600D01*
X944500Y205600D02*
X953500Y205600D01*
X30500Y204600D02*
X37500Y204600D01*
X223500Y204600D02*
X275500Y204600D01*
X361500Y204600D02*
X366500Y204600D01*
X403500Y204600D02*
X433500Y204600D01*
X470500Y204600D02*
X521500Y204600D01*
X608500Y204600D02*
X612500Y204600D01*
X717500Y204600D02*
X759500Y204600D01*
X945500Y204600D02*
X953500Y204600D01*
X30500Y203600D02*
X37500Y203600D01*
X224500Y203600D02*
X274500Y203600D01*
X362500Y203600D02*
X366500Y203600D01*
X403500Y203600D02*
X433500Y203600D01*
X470500Y203600D02*
X520500Y203600D01*
X609500Y203600D02*
X612500Y203600D01*
X717500Y203600D02*
X759500Y203600D01*
X946500Y203600D02*
X953500Y203600D01*
X30500Y202600D02*
X36500Y202600D01*
X225500Y202600D02*
X274500Y202600D01*
X363500Y202600D02*
X366500Y202600D01*
X403500Y202600D02*
X433500Y202600D01*
X470500Y202600D02*
X520500Y202600D01*
X717500Y202600D02*
X758500Y202600D01*
X947500Y202600D02*
X953500Y202600D01*
X30500Y201600D02*
X35500Y201600D01*
X226500Y201600D02*
X273500Y201600D01*
X363500Y201600D02*
X366500Y201600D01*
X403500Y201600D02*
X433500Y201600D01*
X470500Y201600D02*
X519500Y201600D01*
X717500Y201600D02*
X757500Y201600D01*
X947500Y201600D02*
X953500Y201600D01*
X30500Y200600D02*
X34500Y200600D01*
X227500Y200600D02*
X272500Y200600D01*
X364500Y200600D02*
X366500Y200600D01*
X403500Y200600D02*
X433500Y200600D01*
X470500Y200600D02*
X519500Y200600D01*
X717500Y200600D02*
X756500Y200600D01*
X948500Y200600D02*
X953500Y200600D01*
X30500Y199600D02*
X34500Y199600D01*
X227500Y199600D02*
X272500Y199600D01*
X364500Y199600D02*
X366500Y199600D01*
X470500Y199600D02*
X518500Y199600D01*
X717500Y199600D02*
X756500Y199600D01*
X949500Y199600D02*
X953500Y199600D01*
X32500Y198600D02*
X32500Y198600D01*
X228500Y198600D02*
X271500Y198600D01*
X365500Y198600D02*
X366500Y198600D01*
X470500Y198600D02*
X518500Y198600D01*
X717500Y198600D02*
X755500Y198600D01*
X950500Y198600D02*
X952500Y198600D01*
X229500Y197600D02*
X271500Y197600D01*
X365500Y197600D02*
X366500Y197600D01*
X470500Y197600D02*
X517500Y197600D01*
X717500Y197600D02*
X754500Y197600D01*
X229500Y196600D02*
X270500Y196600D01*
X366500Y196600D02*
X366500Y196600D01*
X470500Y196600D02*
X517500Y196600D01*
X717500Y196600D02*
X754500Y196600D01*
X230500Y195600D02*
X270500Y195600D01*
X366500Y195600D02*
X366500Y195600D01*
X470500Y195600D02*
X516500Y195600D01*
X717500Y195600D02*
X753500Y195600D01*
X231500Y194600D02*
X270500Y194600D01*
X470500Y194600D02*
X516500Y194600D01*
X717500Y194600D02*
X752500Y194600D01*
X231500Y193600D02*
X269500Y193600D01*
X470500Y193600D02*
X516500Y193600D01*
X717500Y193600D02*
X752500Y193600D01*
X232500Y192600D02*
X269500Y192600D01*
X470500Y192600D02*
X515500Y192600D01*
X717500Y192600D02*
X751500Y192600D01*
X232500Y191600D02*
X269500Y191600D01*
X442500Y191600D02*
X515500Y191600D01*
X717500Y191600D02*
X750500Y191600D01*
X233500Y190600D02*
X268500Y190600D01*
X442500Y190600D02*
X515500Y190600D01*
X717500Y190600D02*
X750500Y190600D01*
X234500Y189600D02*
X268500Y189600D01*
X442500Y189600D02*
X514500Y189600D01*
X717500Y189600D02*
X749500Y189600D01*
X234500Y188600D02*
X268500Y188600D01*
X442500Y188600D02*
X514500Y188600D01*
X717500Y188600D02*
X749500Y188600D01*
X235500Y187600D02*
X267500Y187600D01*
X442500Y187600D02*
X514500Y187600D01*
X717500Y187600D02*
X748500Y187600D01*
X235500Y186600D02*
X267500Y186600D01*
X442500Y186600D02*
X513500Y186600D01*
X717500Y186600D02*
X748500Y186600D01*
X236500Y185600D02*
X267500Y185600D01*
X442500Y185600D02*
X513500Y185600D01*
X717500Y185600D02*
X747500Y185600D01*
X236500Y184600D02*
X267500Y184600D01*
X442500Y184600D02*
X513500Y184600D01*
X717500Y184600D02*
X747500Y184600D01*
X237500Y183600D02*
X267500Y183600D01*
X442500Y183600D02*
X513500Y183600D01*
X717500Y183600D02*
X746500Y183600D01*
X237500Y182600D02*
X266500Y182600D01*
X442500Y182600D02*
X513500Y182600D01*
X717500Y182600D02*
X746500Y182600D01*
X238500Y181600D02*
X266500Y181600D01*
X442500Y181600D02*
X513500Y181600D01*
X717500Y181600D02*
X745500Y181600D01*
X238500Y180600D02*
X266500Y180600D01*
X442500Y180600D02*
X513500Y180600D01*
X717500Y180600D02*
X745500Y180600D01*
X239500Y179600D02*
X266500Y179600D01*
X442500Y179600D02*
X513500Y179600D01*
X717500Y179600D02*
X744500Y179600D01*
X239500Y178600D02*
X266500Y178600D01*
X442500Y178600D02*
X512500Y178600D01*
X717500Y178600D02*
X744500Y178600D01*
X240500Y177600D02*
X266500Y177600D01*
X442500Y177600D02*
X512500Y177600D01*
X717500Y177600D02*
X743500Y177600D01*
X240500Y176600D02*
X266500Y176600D01*
X442500Y176600D02*
X512500Y176600D01*
X717500Y176600D02*
X743500Y176600D01*
X241500Y175600D02*
X266500Y175600D01*
X442500Y175600D02*
X512500Y175600D01*
X717500Y175600D02*
X742500Y175600D01*
X241500Y174600D02*
X266500Y174600D01*
X442500Y174600D02*
X512500Y174600D01*
X717500Y174600D02*
X742500Y174600D01*
X241500Y173600D02*
X266500Y173600D01*
X442500Y173600D02*
X513500Y173600D01*
X717500Y173600D02*
X742500Y173600D01*
X242500Y172600D02*
X266500Y172600D01*
X442500Y172600D02*
X513500Y172600D01*
X717500Y172600D02*
X741500Y172600D01*
X242500Y171600D02*
X266500Y171600D01*
X442500Y171600D02*
X513500Y171600D01*
X717500Y171600D02*
X741500Y171600D01*
X242500Y170600D02*
X266500Y170600D01*
X442500Y170600D02*
X513500Y170600D01*
X717500Y170600D02*
X741500Y170600D01*
X243500Y169600D02*
X266500Y169600D01*
X442500Y169600D02*
X513500Y169600D01*
X717500Y169600D02*
X740500Y169600D01*
X243500Y168600D02*
X267500Y168600D01*
X442500Y168600D02*
X513500Y168600D01*
X717500Y168600D02*
X740500Y168600D01*
X243500Y167600D02*
X267500Y167600D01*
X442500Y167600D02*
X513500Y167600D01*
X717500Y167600D02*
X739500Y167600D01*
X244500Y166600D02*
X267500Y166600D01*
X442500Y166600D02*
X514500Y166600D01*
X717500Y166600D02*
X739500Y166600D01*
X244500Y165600D02*
X267500Y165600D01*
X442500Y165600D02*
X514500Y165600D01*
X717500Y165600D02*
X739500Y165600D01*
X244500Y164600D02*
X267500Y164600D01*
X442500Y164600D02*
X514500Y164600D01*
X717500Y164600D02*
X739500Y164600D01*
X245500Y163600D02*
X268500Y163600D01*
X442500Y163600D02*
X514500Y163600D01*
X717500Y163600D02*
X738500Y163600D01*
X245500Y162600D02*
X268500Y162600D01*
X442500Y162600D02*
X515500Y162600D01*
X717500Y162600D02*
X738500Y162600D01*
X245500Y161600D02*
X268500Y161600D01*
X442500Y161600D02*
X515500Y161600D01*
X717500Y161600D02*
X738500Y161600D01*
X245500Y160600D02*
X269500Y160600D01*
X442500Y160600D02*
X515500Y160600D01*
X717500Y160600D02*
X738500Y160600D01*
X246500Y159600D02*
X269500Y159600D01*
X470500Y159600D02*
X516500Y159600D01*
X717500Y159600D02*
X737500Y159600D01*
X246500Y158600D02*
X269500Y158600D01*
X470500Y158600D02*
X516500Y158600D01*
X717500Y158600D02*
X737500Y158600D01*
X246500Y157600D02*
X270500Y157600D01*
X470500Y157600D02*
X516500Y157600D01*
X717500Y157600D02*
X737500Y157600D01*
X246500Y156600D02*
X270500Y156600D01*
X366500Y156600D02*
X366500Y156600D01*
X470500Y156600D02*
X517500Y156600D01*
X717500Y156600D02*
X736500Y156600D01*
X247500Y155600D02*
X270500Y155600D01*
X366500Y155600D02*
X366500Y155600D01*
X470500Y155600D02*
X517500Y155600D01*
X717500Y155600D02*
X736500Y155600D01*
X247500Y154600D02*
X271500Y154600D01*
X365500Y154600D02*
X366500Y154600D01*
X470500Y154600D02*
X518500Y154600D01*
X717500Y154600D02*
X736500Y154600D01*
X247500Y153600D02*
X271500Y153600D01*
X365500Y153600D02*
X366500Y153600D01*
X470500Y153600D02*
X518500Y153600D01*
X717500Y153600D02*
X736500Y153600D01*
X247500Y152600D02*
X272500Y152600D01*
X364500Y152600D02*
X366500Y152600D01*
X403500Y152600D02*
X433500Y152600D01*
X470500Y152600D02*
X519500Y152600D01*
X717500Y152600D02*
X736500Y152600D01*
X247500Y151600D02*
X273500Y151600D01*
X363500Y151600D02*
X366500Y151600D01*
X403500Y151600D02*
X433500Y151600D01*
X470500Y151600D02*
X519500Y151600D01*
X717500Y151600D02*
X736500Y151600D01*
X247500Y150600D02*
X273500Y150600D01*
X363500Y150600D02*
X366500Y150600D01*
X403500Y150600D02*
X433500Y150600D01*
X470500Y150600D02*
X520500Y150600D01*
X610500Y150600D02*
X611500Y150600D01*
X717500Y150600D02*
X735500Y150600D01*
X247500Y149600D02*
X274500Y149600D01*
X362500Y149600D02*
X366500Y149600D01*
X403500Y149600D02*
X433500Y149600D01*
X470500Y149600D02*
X520500Y149600D01*
X609500Y149600D02*
X612500Y149600D01*
X717500Y149600D02*
X735500Y149600D01*
X248500Y148600D02*
X274500Y148600D01*
X362500Y148600D02*
X366500Y148600D01*
X403500Y148600D02*
X433500Y148600D01*
X470500Y148600D02*
X521500Y148600D01*
X608500Y148600D02*
X612500Y148600D01*
X717500Y148600D02*
X735500Y148600D01*
X248500Y147600D02*
X275500Y147600D01*
X361500Y147600D02*
X366500Y147600D01*
X403500Y147600D02*
X433500Y147600D01*
X470500Y147600D02*
X521500Y147600D01*
X608500Y147600D02*
X612500Y147600D01*
X717500Y147600D02*
X735500Y147600D01*
X248500Y146600D02*
X275500Y146600D01*
X361500Y146600D02*
X366500Y146600D01*
X403500Y146600D02*
X433500Y146600D01*
X470500Y146600D02*
X522500Y146600D01*
X607500Y146600D02*
X612500Y146600D01*
X717500Y146600D02*
X735500Y146600D01*
X248500Y145600D02*
X276500Y145600D01*
X360500Y145600D02*
X366500Y145600D01*
X403500Y145600D02*
X433500Y145600D01*
X470500Y145600D02*
X523500Y145600D01*
X606500Y145600D02*
X612500Y145600D01*
X717500Y145600D02*
X735500Y145600D01*
X248500Y144600D02*
X277500Y144600D01*
X359500Y144600D02*
X366500Y144600D01*
X403500Y144600D02*
X433500Y144600D01*
X470500Y144600D02*
X524500Y144600D01*
X605500Y144600D02*
X612500Y144600D01*
X717500Y144600D02*
X734500Y144600D01*
X248500Y143600D02*
X278500Y143600D01*
X358500Y143600D02*
X366500Y143600D01*
X403500Y143600D02*
X433500Y143600D01*
X470500Y143600D02*
X525500Y143600D01*
X604500Y143600D02*
X612500Y143600D01*
X717500Y143600D02*
X734500Y143600D01*
X249500Y142600D02*
X279500Y142600D01*
X357500Y142600D02*
X366500Y142600D01*
X403500Y142600D02*
X433500Y142600D01*
X470500Y142600D02*
X525500Y142600D01*
X604500Y142600D02*
X612500Y142600D01*
X717500Y142600D02*
X734500Y142600D01*
X249500Y141600D02*
X279500Y141600D01*
X357500Y141600D02*
X366500Y141600D01*
X403500Y141600D02*
X433500Y141600D01*
X470500Y141600D02*
X526500Y141600D01*
X603500Y141600D02*
X612500Y141600D01*
X717500Y141600D02*
X734500Y141600D01*
X249500Y140600D02*
X280500Y140600D01*
X356500Y140600D02*
X366500Y140600D01*
X403500Y140600D02*
X433500Y140600D01*
X470500Y140600D02*
X527500Y140600D01*
X602500Y140600D02*
X612500Y140600D01*
X717500Y140600D02*
X734500Y140600D01*
X249500Y139600D02*
X281500Y139600D01*
X355500Y139600D02*
X366500Y139600D01*
X403500Y139600D02*
X433500Y139600D01*
X470500Y139600D02*
X528500Y139600D01*
X601500Y139600D02*
X612500Y139600D01*
X717500Y139600D02*
X734500Y139600D01*
X249500Y138600D02*
X282500Y138600D01*
X354500Y138600D02*
X366500Y138600D01*
X403500Y138600D02*
X433500Y138600D01*
X470500Y138600D02*
X529500Y138600D01*
X600500Y138600D02*
X612500Y138600D01*
X717500Y138600D02*
X734500Y138600D01*
X249500Y137600D02*
X284500Y137600D01*
X353500Y137600D02*
X366500Y137600D01*
X403500Y137600D02*
X433500Y137600D01*
X470500Y137600D02*
X531500Y137600D01*
X598500Y137600D02*
X612500Y137600D01*
X717500Y137600D02*
X734500Y137600D01*
X249500Y136600D02*
X285500Y136600D01*
X351500Y136600D02*
X366500Y136600D01*
X403500Y136600D02*
X433500Y136600D01*
X470500Y136600D02*
X532500Y136600D01*
X597500Y136600D02*
X612500Y136600D01*
X717500Y136600D02*
X734500Y136600D01*
X249500Y135600D02*
X286500Y135600D01*
X350500Y135600D02*
X366500Y135600D01*
X403500Y135600D02*
X433500Y135600D01*
X470500Y135600D02*
X533500Y135600D01*
X596500Y135600D02*
X612500Y135600D01*
X717500Y135600D02*
X734500Y135600D01*
X249500Y134600D02*
X287500Y134600D01*
X349500Y134600D02*
X366500Y134600D01*
X403500Y134600D02*
X433500Y134600D01*
X470500Y134600D02*
X534500Y134600D01*
X595500Y134600D02*
X612500Y134600D01*
X717500Y134600D02*
X734500Y134600D01*
X249500Y133600D02*
X289500Y133600D01*
X348500Y133600D02*
X366500Y133600D01*
X403500Y133600D02*
X433500Y133600D01*
X470500Y133600D02*
X536500Y133600D01*
X593500Y133600D02*
X612500Y133600D01*
X716500Y133600D02*
X734500Y133600D01*
X249500Y132600D02*
X290500Y132600D01*
X346500Y132600D02*
X366500Y132600D01*
X403500Y132600D02*
X433500Y132600D01*
X470500Y132600D02*
X538500Y132600D01*
X591500Y132600D02*
X613500Y132600D01*
X716500Y132600D02*
X734500Y132600D01*
X249500Y131600D02*
X292500Y131600D01*
X344500Y131600D02*
X366500Y131600D01*
X403500Y131600D02*
X433500Y131600D01*
X470500Y131600D02*
X539500Y131600D01*
X590500Y131600D02*
X613500Y131600D01*
X716500Y131600D02*
X734500Y131600D01*
X249500Y130600D02*
X294500Y130600D01*
X342500Y130600D02*
X367500Y130600D01*
X403500Y130600D02*
X433500Y130600D01*
X469500Y130600D02*
X541500Y130600D01*
X588500Y130600D02*
X613500Y130600D01*
X716500Y130600D02*
X734500Y130600D01*
X249500Y129600D02*
X296500Y129600D01*
X340500Y129600D02*
X367500Y129600D01*
X403500Y129600D02*
X433500Y129600D01*
X469500Y129600D02*
X543500Y129600D01*
X586500Y129600D02*
X614500Y129600D01*
X715500Y129600D02*
X734500Y129600D01*
X249500Y128600D02*
X298500Y128600D01*
X338500Y128600D02*
X368500Y128600D01*
X403500Y128600D02*
X433500Y128600D01*
X468500Y128600D02*
X546500Y128600D01*
X583500Y128600D02*
X615500Y128600D01*
X714500Y128600D02*
X734500Y128600D01*
X249500Y127600D02*
X301500Y127600D01*
X335500Y127600D02*
X369500Y127600D01*
X403500Y127600D02*
X433500Y127600D01*
X467500Y127600D02*
X549500Y127600D01*
X580500Y127600D02*
X616500Y127600D01*
X713500Y127600D02*
X734500Y127600D01*
X249500Y126600D02*
X304500Y126600D01*
X332500Y126600D02*
X370500Y126600D01*
X403500Y126600D02*
X433500Y126600D01*
X466500Y126600D02*
X552500Y126600D01*
X577500Y126600D02*
X617500Y126600D01*
X712500Y126600D02*
X734500Y126600D01*
X249500Y125600D02*
X308500Y125600D01*
X328500Y125600D02*
X371500Y125600D01*
X403500Y125600D02*
X433500Y125600D01*
X465500Y125600D02*
X557500Y125600D01*
X572500Y125600D02*
X619500Y125600D01*
X710500Y125600D02*
X734500Y125600D01*
X249500Y124600D02*
X316500Y124600D01*
X320500Y124600D02*
X375500Y124600D01*
X402500Y124600D02*
X434500Y124600D01*
X461500Y124600D02*
X734500Y124600D01*
X249500Y123600D02*
X734500Y123600D01*
X249500Y122600D02*
X734500Y122600D01*
X249500Y121600D02*
X734500Y121600D01*
X249500Y120600D02*
X734500Y120600D01*
X248500Y119600D02*
X734500Y119600D01*
X248500Y118600D02*
X734500Y118600D01*
X248500Y117600D02*
X734500Y117600D01*
X248500Y116600D02*
X735500Y116600D01*
X248500Y115600D02*
X735500Y115600D01*
X248500Y114600D02*
X735500Y114600D01*
X248500Y113600D02*
X735500Y113600D01*
X247500Y112600D02*
X735500Y112600D01*
X247500Y111600D02*
X735500Y111600D01*
X247500Y110600D02*
X736500Y110600D01*
X247500Y109600D02*
X736500Y109600D01*
X247500Y108600D02*
X736500Y108600D01*
X247500Y107600D02*
X736500Y107600D01*
X246500Y106600D02*
X736500Y106600D01*
X246500Y105600D02*
X736500Y105600D01*
X246500Y104600D02*
X737500Y104600D01*
X246500Y103600D02*
X737500Y103600D01*
X245500Y102600D02*
X737500Y102600D01*
X245500Y101600D02*
X737500Y101600D01*
X245500Y100600D02*
X738500Y100600D01*
X245500Y99600D02*
X738500Y99600D01*
X244500Y98600D02*
X738500Y98600D01*
X244500Y97600D02*
X738500Y97600D01*
X244500Y96600D02*
X739500Y96600D01*
X244500Y95600D02*
X739500Y95600D01*
X243500Y94600D02*
X739500Y94600D01*
X243500Y93600D02*
X740500Y93600D01*
X242500Y92600D02*
X740500Y92600D01*
X242500Y91600D02*
X741500Y91600D01*
X242500Y90600D02*
X741500Y90600D01*
X241500Y89600D02*
X741500Y89600D01*
X241500Y88600D02*
X742500Y88600D01*
X241500Y87600D02*
X742500Y87600D01*
X240500Y86600D02*
X742500Y86600D01*
X240500Y85600D02*
X743500Y85600D01*
X240500Y84600D02*
X743500Y84600D01*
X239500Y83600D02*
X744500Y83600D01*
X239500Y82600D02*
X744500Y82600D01*
X238500Y81600D02*
X744500Y81600D01*
X238500Y80600D02*
X745500Y80600D01*
X237500Y79600D02*
X745500Y79600D01*
X237500Y78600D02*
X746500Y78600D01*
X236500Y77600D02*
X746500Y77600D01*
X236500Y76600D02*
X747500Y76600D01*
X235500Y75600D02*
X747500Y75600D01*
X235500Y74600D02*
X748500Y74600D01*
X234500Y73600D02*
X748500Y73600D01*
X233500Y72600D02*
X749500Y72600D01*
X233500Y71600D02*
X750500Y71600D01*
X232500Y70600D02*
X750500Y70600D01*
X232500Y69600D02*
X751500Y69600D01*
X231500Y68600D02*
X752500Y68600D01*
X230500Y67600D02*
X752500Y67600D01*
X230500Y66600D02*
X753500Y66600D01*
X229500Y65600D02*
X753500Y65600D01*
X228500Y64600D02*
X754500Y64600D01*
X228500Y63600D02*
X755500Y63600D01*
X227500Y62600D02*
X756500Y62600D01*
X226500Y61600D02*
X756500Y61600D01*
X225500Y60600D02*
X757500Y60600D01*
X225500Y59600D02*
X758500Y59600D01*
X224500Y58600D02*
X759500Y58600D01*
X223500Y57600D02*
X759500Y57600D01*
X222500Y56600D02*
X760500Y56600D01*
X222500Y55600D02*
X761500Y55600D01*
X221500Y54600D02*
X762500Y54600D01*
X220500Y53600D02*
X763500Y53600D01*
X219500Y52600D02*
X763500Y52600D01*
X218500Y51600D02*
X764500Y51600D01*
X217500Y50600D02*
X765500Y50600D01*
X216500Y49600D02*
X766500Y49600D01*
X215500Y48600D02*
X767500Y48600D01*
X214500Y47600D02*
X768500Y47600D01*
X213500Y46600D02*
X769500Y46600D01*
X212500Y45600D02*
X770500Y45600D01*
X211500Y44600D02*
X771500Y44600D01*
X210500Y43600D02*
X772500Y43600D01*
X209500Y42600D02*
X773500Y42600D01*
X208500Y41600D02*
X775500Y41600D01*
X207500Y40600D02*
X776500Y40600D01*
X205500Y39600D02*
X777500Y39600D01*
X204500Y38600D02*
X778500Y38600D01*
X203500Y37600D02*
X780500Y37600D01*
X201500Y36600D02*
X781500Y36600D01*
X200500Y35600D02*
X782500Y35600D01*
X199500Y34600D02*
X784500Y34600D01*
X198500Y33600D02*
X784500Y33600D01*
X198500Y32600D02*
X785500Y32600D01*
X198500Y31600D02*
X784500Y31600D01*
X199500Y30600D02*
X783500Y30600D01*
D02*
G04 End of Copper1*
M02*