G04 MADE WITH FRITZING*
G04 WWW.FRITZING.ORG*
G04 DOUBLE SIDED*
G04 HOLES PLATED*
G04 CONTOUR ON CENTER OF CONTOUR VECTOR*
%FSLAX26Y26*%
%MOIN*%
%ADD10R,0.984252X1.181100X0.968252X1.165100*%
%ADD11C,0.008000*%
%ADD12C,0.010000*%
%ADD13C,0.005000*%
%ADD14R,0.001000X0.001000*%
G04 SILK1*
%FSLAX26Y26*%
%MOIN*%
D11*
X4000Y1177100D02*
X980252Y1177100D01*
X980252Y4000D01*
X4000Y4000D01*
X4000Y1177100D01*
D02*
D12*
X509428Y924642D02*
X719428Y924642D01*
D02*
X719428Y924642D02*
X719428Y1140642D01*
D02*
X719428Y1140642D02*
X509428Y1140642D01*
D02*
X509428Y1140642D02*
X509428Y924642D01*
D13*
D02*
X719428Y1100642D02*
X509428Y1100642D01*
D12*
D02*
X473643Y264114D02*
X263643Y264114D01*
D02*
X263643Y264114D02*
X263643Y48110D01*
D02*
X263643Y48110D02*
X473643Y48110D01*
D02*
X473643Y48110D02*
X473643Y264114D01*
D13*
D02*
X263643Y88110D02*
X473643Y88110D01*
D12*
D02*
X262739Y924655D02*
X472739Y924655D01*
D02*
X472739Y924655D02*
X472739Y1140655D01*
D02*
X472739Y1140655D02*
X262739Y1140655D01*
D02*
X262739Y1140655D02*
X262739Y924655D01*
D13*
D02*
X472739Y1100655D02*
X262739Y1100655D01*
D12*
D02*
X720163Y264523D02*
X510163Y264523D01*
D02*
X510163Y264523D02*
X510163Y48520D01*
D02*
X510163Y48520D02*
X720163Y48520D01*
D02*
X720163Y48520D02*
X720163Y264523D01*
D13*
D02*
X510163Y88520D02*
X720163Y88520D01*
D14*
X667500Y903600D02*
X671500Y903600D01*
X666500Y902600D02*
X671500Y902600D01*
X666500Y901600D02*
X672500Y901600D01*
X273500Y900600D02*
X291500Y900600D01*
X303500Y900600D02*
X313500Y900600D01*
X334500Y900600D02*
X348500Y900600D01*
X392500Y900600D02*
X394500Y900600D01*
X409500Y900600D02*
X411500Y900600D01*
X429500Y900600D02*
X441500Y900600D01*
X454500Y900600D02*
X468500Y900600D01*
X666500Y900600D02*
X672500Y900600D01*
X272500Y899600D02*
X291500Y899600D01*
X302500Y899600D02*
X315500Y899600D01*
X333500Y899600D02*
X350500Y899600D01*
X392500Y899600D02*
X395500Y899600D01*
X408500Y899600D02*
X411500Y899600D01*
X428500Y899600D02*
X442500Y899600D01*
X453500Y899600D02*
X470500Y899600D01*
X666500Y899600D02*
X672500Y899600D01*
X272500Y898600D02*
X291500Y898600D01*
X302500Y898600D02*
X316500Y898600D01*
X332500Y898600D02*
X350500Y898600D01*
X392500Y898600D02*
X395500Y898600D01*
X408500Y898600D02*
X411500Y898600D01*
X427500Y898600D02*
X442500Y898600D01*
X452500Y898600D02*
X470500Y898600D01*
X666500Y898600D02*
X672500Y898600D01*
X272500Y897600D02*
X291500Y897600D01*
X302500Y897600D02*
X316500Y897600D01*
X332500Y897600D02*
X351500Y897600D01*
X392500Y897600D02*
X395500Y897600D01*
X408500Y897600D02*
X411500Y897600D01*
X426500Y897600D02*
X441500Y897600D01*
X452500Y897600D02*
X471500Y897600D01*
X666500Y897600D02*
X672500Y897600D01*
X288500Y896600D02*
X291500Y896600D01*
X313500Y896600D02*
X317500Y896600D01*
X332500Y896600D02*
X335500Y896600D01*
X348500Y896600D02*
X351500Y896600D01*
X392500Y896600D02*
X396500Y896600D01*
X407500Y896600D02*
X411500Y896600D01*
X426500Y896600D02*
X430500Y896600D01*
X435500Y896600D02*
X438500Y896600D01*
X452500Y896600D02*
X455500Y896600D01*
X468500Y896600D02*
X471500Y896600D01*
X666500Y896600D02*
X672500Y896600D01*
X288500Y895600D02*
X291500Y895600D01*
X314500Y895600D02*
X317500Y895600D01*
X332500Y895600D02*
X336500Y895600D01*
X348500Y895600D02*
X351500Y895600D01*
X393500Y895600D02*
X396500Y895600D01*
X407500Y895600D02*
X411500Y895600D01*
X425500Y895600D02*
X429500Y895600D01*
X435500Y895600D02*
X438500Y895600D01*
X452500Y895600D02*
X456500Y895600D01*
X468500Y895600D02*
X471500Y895600D01*
X666500Y895600D02*
X672500Y895600D01*
X288500Y894600D02*
X291500Y894600D01*
X314500Y894600D02*
X318500Y894600D01*
X332500Y894600D02*
X336500Y894600D01*
X349500Y894600D02*
X351500Y894600D01*
X393500Y894600D02*
X396500Y894600D01*
X407500Y894600D02*
X410500Y894600D01*
X425500Y894600D02*
X429500Y894600D01*
X435500Y894600D02*
X438500Y894600D01*
X452500Y894600D02*
X456500Y894600D01*
X469500Y894600D02*
X471500Y894600D01*
X666500Y894600D02*
X672500Y894600D01*
X288500Y893600D02*
X291500Y893600D01*
X315500Y893600D02*
X318500Y893600D01*
X333500Y893600D02*
X337500Y893600D01*
X350500Y893600D02*
X350500Y893600D01*
X393500Y893600D02*
X410500Y893600D01*
X424500Y893600D02*
X428500Y893600D01*
X435500Y893600D02*
X438500Y893600D01*
X453500Y893600D02*
X457500Y893600D01*
X470500Y893600D02*
X470500Y893600D01*
X666500Y893600D02*
X672500Y893600D01*
X288500Y892600D02*
X291500Y892600D01*
X315500Y892600D02*
X319500Y892600D01*
X333500Y892600D02*
X338500Y892600D01*
X393500Y892600D02*
X410500Y892600D01*
X424500Y892600D02*
X428500Y892600D01*
X435500Y892600D02*
X438500Y892600D01*
X453500Y892600D02*
X458500Y892600D01*
X553500Y892600D02*
X584500Y892600D01*
X666500Y892600D02*
X672500Y892600D01*
X288500Y891600D02*
X291500Y891600D01*
X316500Y891600D02*
X319500Y891600D01*
X334500Y891600D02*
X339500Y891600D01*
X394500Y891600D02*
X409500Y891600D01*
X423500Y891600D02*
X427500Y891600D01*
X435500Y891600D02*
X438500Y891600D01*
X454500Y891600D02*
X459500Y891600D01*
X552500Y891600D02*
X585500Y891600D01*
X666500Y891600D02*
X672500Y891600D01*
X288500Y890600D02*
X291500Y890600D01*
X316500Y890600D02*
X320500Y890600D01*
X335500Y890600D02*
X339500Y890600D01*
X394500Y890600D02*
X409500Y890600D01*
X423500Y890600D02*
X427500Y890600D01*
X435500Y890600D02*
X438500Y890600D01*
X455500Y890600D02*
X459500Y890600D01*
X552500Y890600D02*
X585500Y890600D01*
X655500Y890600D02*
X683500Y890600D01*
X288500Y889600D02*
X291500Y889600D01*
X317500Y889600D02*
X320500Y889600D01*
X336500Y889600D02*
X340500Y889600D01*
X394500Y889600D02*
X398500Y889600D01*
X405500Y889600D02*
X409500Y889600D01*
X422500Y889600D02*
X426500Y889600D01*
X435500Y889600D02*
X438500Y889600D01*
X456500Y889600D02*
X460500Y889600D01*
X552500Y889600D02*
X585500Y889600D01*
X653500Y889600D02*
X684500Y889600D01*
X288500Y888600D02*
X291500Y888600D01*
X317500Y888600D02*
X321500Y888600D01*
X337500Y888600D02*
X341500Y888600D01*
X395500Y888600D02*
X398500Y888600D01*
X405500Y888600D02*
X409500Y888600D01*
X422500Y888600D02*
X426500Y888600D01*
X435500Y888600D02*
X438500Y888600D01*
X457500Y888600D02*
X461500Y888600D01*
X552500Y888600D02*
X585500Y888600D01*
X652500Y888600D02*
X685500Y888600D01*
X288500Y887600D02*
X291500Y887600D01*
X318500Y887600D02*
X321500Y887600D01*
X337500Y887600D02*
X342500Y887600D01*
X395500Y887600D02*
X398500Y887600D01*
X405500Y887600D02*
X408500Y887600D01*
X422500Y887600D02*
X425500Y887600D01*
X435500Y887600D02*
X438500Y887600D01*
X457500Y887600D02*
X462500Y887600D01*
X553500Y887600D02*
X585500Y887600D01*
X652500Y887600D02*
X685500Y887600D01*
X288500Y886600D02*
X291500Y886600D01*
X318500Y886600D02*
X321500Y886600D01*
X338500Y886600D02*
X343500Y886600D01*
X395500Y886600D02*
X399500Y886600D01*
X405500Y886600D02*
X408500Y886600D01*
X421500Y886600D02*
X425500Y886600D01*
X435500Y886600D02*
X438500Y886600D01*
X458500Y886600D02*
X463500Y886600D01*
X555500Y886600D02*
X583500Y886600D01*
X652500Y886600D02*
X685500Y886600D01*
X288500Y885600D02*
X291500Y885600D01*
X318500Y885600D02*
X321500Y885600D01*
X339500Y885600D02*
X343500Y885600D01*
X396500Y885600D02*
X399500Y885600D01*
X404500Y885600D02*
X408500Y885600D01*
X421500Y885600D02*
X424500Y885600D01*
X435500Y885600D02*
X438500Y885600D01*
X459500Y885600D02*
X463500Y885600D01*
X652500Y885600D02*
X685500Y885600D01*
X288500Y884600D02*
X291500Y884600D01*
X318500Y884600D02*
X321500Y884600D01*
X340500Y884600D02*
X344500Y884600D01*
X396500Y884600D02*
X399500Y884600D01*
X404500Y884600D02*
X407500Y884600D01*
X421500Y884600D02*
X424500Y884600D01*
X435500Y884600D02*
X438500Y884600D01*
X460500Y884600D02*
X464500Y884600D01*
X653500Y884600D02*
X684500Y884600D01*
X288500Y883600D02*
X291500Y883600D01*
X318500Y883600D02*
X321500Y883600D01*
X340500Y883600D02*
X345500Y883600D01*
X396500Y883600D02*
X400500Y883600D01*
X404500Y883600D02*
X407500Y883600D01*
X421500Y883600D02*
X425500Y883600D01*
X435500Y883600D02*
X438500Y883600D01*
X460500Y883600D02*
X465500Y883600D01*
X665500Y883600D02*
X672500Y883600D01*
X288500Y882600D02*
X291500Y882600D01*
X318500Y882600D02*
X321500Y882600D01*
X341500Y882600D02*
X346500Y882600D01*
X396500Y882600D02*
X400500Y882600D01*
X403500Y882600D02*
X407500Y882600D01*
X421500Y882600D02*
X425500Y882600D01*
X435500Y882600D02*
X438500Y882600D01*
X461500Y882600D02*
X466500Y882600D01*
X666500Y882600D02*
X672500Y882600D01*
X288500Y881600D02*
X291500Y881600D01*
X317500Y881600D02*
X321500Y881600D01*
X342500Y881600D02*
X346500Y881600D01*
X397500Y881600D02*
X400500Y881600D01*
X403500Y881600D02*
X406500Y881600D01*
X422500Y881600D02*
X425500Y881600D01*
X435500Y881600D02*
X438500Y881600D01*
X462500Y881600D02*
X466500Y881600D01*
X666500Y881600D02*
X672500Y881600D01*
X288500Y880600D02*
X291500Y880600D01*
X317500Y880600D02*
X320500Y880600D01*
X343500Y880600D02*
X347500Y880600D01*
X397500Y880600D02*
X400500Y880600D01*
X403500Y880600D02*
X406500Y880600D01*
X422500Y880600D02*
X426500Y880600D01*
X435500Y880600D02*
X438500Y880600D01*
X463500Y880600D02*
X467500Y880600D01*
X666500Y880600D02*
X672500Y880600D01*
X288500Y879600D02*
X291500Y879600D01*
X316500Y879600D02*
X320500Y879600D01*
X344500Y879600D02*
X348500Y879600D01*
X397500Y879600D02*
X406500Y879600D01*
X423500Y879600D02*
X426500Y879600D01*
X435500Y879600D02*
X438500Y879600D01*
X464500Y879600D02*
X468500Y879600D01*
X666500Y879600D02*
X672500Y879600D01*
X288500Y878600D02*
X291500Y878600D01*
X316500Y878600D02*
X319500Y878600D01*
X344500Y878600D02*
X349500Y878600D01*
X398500Y878600D02*
X406500Y878600D01*
X423500Y878600D02*
X427500Y878600D01*
X435500Y878600D02*
X438500Y878600D01*
X464500Y878600D02*
X469500Y878600D01*
X666500Y878600D02*
X672500Y878600D01*
X288500Y877600D02*
X291500Y877600D01*
X315500Y877600D02*
X319500Y877600D01*
X345500Y877600D02*
X350500Y877600D01*
X398500Y877600D02*
X405500Y877600D01*
X424500Y877600D02*
X427500Y877600D01*
X435500Y877600D02*
X438500Y877600D01*
X465500Y877600D02*
X470500Y877600D01*
X666500Y877600D02*
X672500Y877600D01*
X288500Y876600D02*
X291500Y876600D01*
X315500Y876600D02*
X318500Y876600D01*
X346500Y876600D02*
X350500Y876600D01*
X398500Y876600D02*
X405500Y876600D01*
X424500Y876600D02*
X428500Y876600D01*
X435500Y876600D02*
X438500Y876600D01*
X466500Y876600D02*
X470500Y876600D01*
X666500Y876600D02*
X672500Y876600D01*
X288500Y875600D02*
X291500Y875600D01*
X314500Y875600D02*
X318500Y875600D01*
X332500Y875600D02*
X334500Y875600D01*
X347500Y875600D02*
X351500Y875600D01*
X398500Y875600D02*
X405500Y875600D01*
X425500Y875600D02*
X428500Y875600D01*
X435500Y875600D02*
X438500Y875600D01*
X452500Y875600D02*
X454500Y875600D01*
X467500Y875600D02*
X471500Y875600D01*
X666500Y875600D02*
X672500Y875600D01*
X288500Y874600D02*
X291500Y874600D01*
X314500Y874600D02*
X317500Y874600D01*
X332500Y874600D02*
X335500Y874600D01*
X347500Y874600D02*
X351500Y874600D01*
X399500Y874600D02*
X404500Y874600D01*
X425500Y874600D02*
X429500Y874600D01*
X435500Y874600D02*
X438500Y874600D01*
X452500Y874600D02*
X455500Y874600D01*
X467500Y874600D02*
X471500Y874600D01*
X666500Y874600D02*
X672500Y874600D01*
X288500Y873600D02*
X291500Y873600D01*
X313500Y873600D02*
X317500Y873600D01*
X332500Y873600D02*
X335500Y873600D01*
X348500Y873600D02*
X351500Y873600D01*
X399500Y873600D02*
X404500Y873600D01*
X426500Y873600D02*
X430500Y873600D01*
X435500Y873600D02*
X438500Y873600D01*
X452500Y873600D02*
X455500Y873600D01*
X468500Y873600D02*
X471500Y873600D01*
X666500Y873600D02*
X672500Y873600D01*
X288500Y872600D02*
X291500Y872600D01*
X303500Y872600D02*
X317500Y872600D01*
X332500Y872600D02*
X351500Y872600D01*
X399500Y872600D02*
X404500Y872600D01*
X426500Y872600D02*
X441500Y872600D01*
X452500Y872600D02*
X471500Y872600D01*
X666500Y872600D02*
X672500Y872600D01*
X288500Y871600D02*
X291500Y871600D01*
X302500Y871600D02*
X316500Y871600D01*
X333500Y871600D02*
X351500Y871600D01*
X400500Y871600D02*
X404500Y871600D01*
X427500Y871600D02*
X442500Y871600D01*
X452500Y871600D02*
X471500Y871600D01*
X666500Y871600D02*
X671500Y871600D01*
X288500Y870600D02*
X291500Y870600D01*
X302500Y870600D02*
X315500Y870600D01*
X333500Y870600D02*
X350500Y870600D01*
X400500Y870600D02*
X403500Y870600D01*
X428500Y870600D02*
X442500Y870600D01*
X453500Y870600D02*
X470500Y870600D01*
X667500Y870600D02*
X670500Y870600D01*
X289500Y869600D02*
X291500Y869600D01*
X302500Y869600D02*
X314500Y869600D01*
X334500Y869600D02*
X349500Y869600D01*
X400500Y869600D02*
X403500Y869600D01*
X429500Y869600D02*
X442500Y869600D01*
X454500Y869600D02*
X469500Y869600D01*
X308500Y854600D02*
X325500Y854600D01*
X355500Y854600D02*
X385500Y854600D01*
X402500Y854600D02*
X432500Y854600D01*
X307500Y853600D02*
X327500Y853600D01*
X354500Y853600D02*
X385500Y853600D01*
X401500Y853600D02*
X432500Y853600D01*
X307500Y852600D02*
X328500Y852600D01*
X354500Y852600D02*
X385500Y852600D01*
X401500Y852600D02*
X433500Y852600D01*
X59500Y851600D02*
X61500Y851600D01*
X307500Y851600D02*
X329500Y851600D01*
X354500Y851600D02*
X385500Y851600D01*
X401500Y851600D02*
X432500Y851600D01*
X533500Y851600D02*
X534500Y851600D01*
X570500Y851600D02*
X594500Y851600D01*
X665500Y851600D02*
X688500Y851600D01*
X59500Y850600D02*
X62500Y850600D01*
X307500Y850600D02*
X329500Y850600D01*
X354500Y850600D02*
X385500Y850600D01*
X401500Y850600D02*
X432500Y850600D01*
X532500Y850600D02*
X536500Y850600D01*
X568500Y850600D02*
X596500Y850600D01*
X663500Y850600D02*
X690500Y850600D01*
X48500Y849600D02*
X48500Y849600D01*
X59500Y849600D02*
X63500Y849600D01*
X308500Y849600D02*
X330500Y849600D01*
X355500Y849600D02*
X385500Y849600D01*
X402500Y849600D02*
X431500Y849600D01*
X531500Y849600D02*
X536500Y849600D01*
X567500Y849600D02*
X596500Y849600D01*
X661500Y849600D02*
X691500Y849600D01*
X47500Y848600D02*
X49500Y848600D01*
X61500Y848600D02*
X63500Y848600D01*
X323500Y848600D02*
X331500Y848600D01*
X380500Y848600D02*
X385500Y848600D01*
X414500Y848600D02*
X420500Y848600D01*
X531500Y848600D02*
X537500Y848600D01*
X566500Y848600D02*
X597500Y848600D01*
X661500Y848600D02*
X691500Y848600D01*
X47500Y847600D02*
X49500Y847600D01*
X61500Y847600D02*
X63500Y847600D01*
X324500Y847600D02*
X331500Y847600D01*
X380500Y847600D02*
X385500Y847600D01*
X414500Y847600D02*
X420500Y847600D01*
X530500Y847600D02*
X537500Y847600D01*
X565500Y847600D02*
X596500Y847600D01*
X660500Y847600D02*
X691500Y847600D01*
X47500Y846600D02*
X49500Y846600D01*
X61500Y846600D02*
X63500Y846600D01*
X325500Y846600D02*
X332500Y846600D01*
X380500Y846600D02*
X385500Y846600D01*
X414500Y846600D02*
X420500Y846600D01*
X530500Y846600D02*
X537500Y846600D01*
X565500Y846600D02*
X596500Y846600D01*
X624500Y846600D02*
X632500Y846600D01*
X660500Y846600D02*
X690500Y846600D01*
X47500Y845600D02*
X49500Y845600D01*
X61500Y845600D02*
X63500Y845600D01*
X326500Y845600D02*
X332500Y845600D01*
X380500Y845600D02*
X385500Y845600D01*
X414500Y845600D02*
X420500Y845600D01*
X529500Y845600D02*
X538500Y845600D01*
X565500Y845600D02*
X595500Y845600D01*
X623500Y845600D02*
X633500Y845600D01*
X659500Y845600D02*
X689500Y845600D01*
X47500Y844600D02*
X49500Y844600D01*
X61500Y844600D02*
X63500Y844600D01*
X326500Y844600D02*
X333500Y844600D01*
X380500Y844600D02*
X385500Y844600D01*
X414500Y844600D02*
X420500Y844600D01*
X529500Y844600D02*
X538500Y844600D01*
X565500Y844600D02*
X571500Y844600D01*
X622500Y844600D02*
X634500Y844600D01*
X659500Y844600D02*
X665500Y844600D01*
X47500Y843600D02*
X49500Y843600D01*
X61500Y843600D02*
X63500Y843600D01*
X327500Y843600D02*
X333500Y843600D01*
X380500Y843600D02*
X385500Y843600D01*
X414500Y843600D02*
X420500Y843600D01*
X529500Y843600D02*
X539500Y843600D01*
X565500Y843600D02*
X571500Y843600D01*
X622500Y843600D02*
X634500Y843600D01*
X659500Y843600D02*
X665500Y843600D01*
X42500Y842600D02*
X63500Y842600D01*
X327500Y842600D02*
X334500Y842600D01*
X380500Y842600D02*
X385500Y842600D01*
X414500Y842600D02*
X420500Y842600D01*
X528500Y842600D02*
X539500Y842600D01*
X565500Y842600D02*
X571500Y842600D01*
X622500Y842600D02*
X634500Y842600D01*
X659500Y842600D02*
X665500Y842600D01*
X42500Y841600D02*
X62500Y841600D01*
X328500Y841600D02*
X334500Y841600D01*
X380500Y841600D02*
X385500Y841600D01*
X414500Y841600D02*
X420500Y841600D01*
X528500Y841600D02*
X539500Y841600D01*
X565500Y841600D02*
X571500Y841600D01*
X622500Y841600D02*
X634500Y841600D01*
X659500Y841600D02*
X665500Y841600D01*
X42500Y840600D02*
X61500Y840600D01*
X328500Y840600D02*
X335500Y840600D01*
X380500Y840600D02*
X385500Y840600D01*
X414500Y840600D02*
X420500Y840600D01*
X527500Y840600D02*
X540500Y840600D01*
X565500Y840600D02*
X571500Y840600D01*
X622500Y840600D02*
X634500Y840600D01*
X659500Y840600D02*
X665500Y840600D01*
X859500Y840600D02*
X867500Y840600D01*
X47500Y839600D02*
X49500Y839600D01*
X329500Y839600D02*
X335500Y839600D01*
X380500Y839600D02*
X385500Y839600D01*
X414500Y839600D02*
X420500Y839600D01*
X527500Y839600D02*
X540500Y839600D01*
X565500Y839600D02*
X571500Y839600D01*
X622500Y839600D02*
X634500Y839600D01*
X659500Y839600D02*
X665500Y839600D01*
X856500Y839600D02*
X870500Y839600D01*
X47500Y838600D02*
X49500Y838600D01*
X329500Y838600D02*
X336500Y838600D01*
X380500Y838600D02*
X385500Y838600D01*
X414500Y838600D02*
X420500Y838600D01*
X527500Y838600D02*
X541500Y838600D01*
X565500Y838600D02*
X571500Y838600D01*
X622500Y838600D02*
X634500Y838600D01*
X659500Y838600D02*
X665500Y838600D01*
X854500Y838600D02*
X870500Y838600D01*
X47500Y837600D02*
X49500Y837600D01*
X330500Y837600D02*
X336500Y837600D01*
X380500Y837600D02*
X385500Y837600D01*
X414500Y837600D02*
X420500Y837600D01*
X526500Y837600D02*
X532500Y837600D01*
X535500Y837600D02*
X541500Y837600D01*
X565500Y837600D02*
X571500Y837600D01*
X622500Y837600D02*
X634500Y837600D01*
X659500Y837600D02*
X665500Y837600D01*
X851500Y837600D02*
X870500Y837600D01*
X330500Y836600D02*
X336500Y836600D01*
X380500Y836600D02*
X385500Y836600D01*
X414500Y836600D02*
X420500Y836600D01*
X526500Y836600D02*
X532500Y836600D01*
X535500Y836600D02*
X541500Y836600D01*
X565500Y836600D02*
X571500Y836600D01*
X622500Y836600D02*
X634500Y836600D01*
X659500Y836600D02*
X665500Y836600D01*
X849500Y836600D02*
X870500Y836600D01*
X331500Y835600D02*
X337500Y835600D01*
X380500Y835600D02*
X385500Y835600D01*
X414500Y835600D02*
X420500Y835600D01*
X526500Y835600D02*
X532500Y835600D01*
X536500Y835600D02*
X542500Y835600D01*
X565500Y835600D02*
X571500Y835600D01*
X623500Y835600D02*
X633500Y835600D01*
X659500Y835600D02*
X665500Y835600D01*
X846500Y835600D02*
X869500Y835600D01*
X331500Y834600D02*
X337500Y834600D01*
X380500Y834600D02*
X385500Y834600D01*
X414500Y834600D02*
X420500Y834600D01*
X525500Y834600D02*
X531500Y834600D01*
X536500Y834600D02*
X542500Y834600D01*
X565500Y834600D02*
X571500Y834600D01*
X625500Y834600D02*
X631500Y834600D01*
X659500Y834600D02*
X665500Y834600D01*
X843500Y834600D02*
X857500Y834600D01*
X332500Y833600D02*
X338500Y833600D01*
X380500Y833600D02*
X385500Y833600D01*
X414500Y833600D02*
X420500Y833600D01*
X525500Y833600D02*
X531500Y833600D01*
X536500Y833600D02*
X542500Y833600D01*
X565500Y833600D02*
X571500Y833600D01*
X659500Y833600D02*
X665500Y833600D01*
X841500Y833600D02*
X855500Y833600D01*
X332500Y832600D02*
X338500Y832600D01*
X358500Y832600D02*
X385500Y832600D01*
X414500Y832600D02*
X420500Y832600D01*
X524500Y832600D02*
X531500Y832600D01*
X537500Y832600D02*
X543500Y832600D01*
X565500Y832600D02*
X571500Y832600D01*
X659500Y832600D02*
X665500Y832600D01*
X838500Y832600D02*
X852500Y832600D01*
X332500Y831600D02*
X338500Y831600D01*
X356500Y831600D02*
X385500Y831600D01*
X414500Y831600D02*
X420500Y831600D01*
X524500Y831600D02*
X530500Y831600D01*
X537500Y831600D02*
X543500Y831600D01*
X565500Y831600D02*
X571500Y831600D01*
X659500Y831600D02*
X665500Y831600D01*
X836500Y831600D02*
X850500Y831600D01*
X332500Y830600D02*
X338500Y830600D01*
X355500Y830600D02*
X385500Y830600D01*
X414500Y830600D02*
X420500Y830600D01*
X524500Y830600D02*
X530500Y830600D01*
X537500Y830600D02*
X544500Y830600D01*
X565500Y830600D02*
X571500Y830600D01*
X660500Y830600D02*
X666500Y830600D01*
X833500Y830600D02*
X847500Y830600D01*
X41500Y829600D02*
X63500Y829600D01*
X332500Y829600D02*
X338500Y829600D01*
X355500Y829600D02*
X384500Y829600D01*
X414500Y829600D02*
X420500Y829600D01*
X523500Y829600D02*
X529500Y829600D01*
X538500Y829600D02*
X544500Y829600D01*
X565500Y829600D02*
X573500Y829600D01*
X660500Y829600D02*
X667500Y829600D01*
X831500Y829600D02*
X845500Y829600D01*
X40500Y828600D02*
X63500Y828600D01*
X332500Y828600D02*
X338500Y828600D01*
X354500Y828600D02*
X383500Y828600D01*
X414500Y828600D02*
X420500Y828600D01*
X523500Y828600D02*
X529500Y828600D01*
X538500Y828600D02*
X544500Y828600D01*
X566500Y828600D02*
X589500Y828600D01*
X660500Y828600D02*
X683500Y828600D01*
X830500Y828600D02*
X842500Y828600D01*
X41500Y827600D02*
X63500Y827600D01*
X332500Y827600D02*
X338500Y827600D01*
X354500Y827600D02*
X382500Y827600D01*
X414500Y827600D02*
X420500Y827600D01*
X522500Y827600D02*
X529500Y827600D01*
X539500Y827600D02*
X545500Y827600D01*
X566500Y827600D02*
X590500Y827600D01*
X661500Y827600D02*
X684500Y827600D01*
X830500Y827600D02*
X840500Y827600D01*
X48500Y826600D02*
X52500Y826600D01*
X58500Y826600D02*
X62500Y826600D01*
X332500Y826600D02*
X338500Y826600D01*
X354500Y826600D02*
X360500Y826600D01*
X414500Y826600D02*
X420500Y826600D01*
X522500Y826600D02*
X528500Y826600D01*
X539500Y826600D02*
X545500Y826600D01*
X567500Y826600D02*
X590500Y826600D01*
X662500Y826600D02*
X684500Y826600D01*
X830500Y826600D02*
X841500Y826600D01*
X48500Y825600D02*
X51500Y825600D01*
X59500Y825600D02*
X62500Y825600D01*
X331500Y825600D02*
X337500Y825600D01*
X354500Y825600D02*
X359500Y825600D01*
X414500Y825600D02*
X420500Y825600D01*
X522500Y825600D02*
X528500Y825600D01*
X539500Y825600D02*
X546500Y825600D01*
X567500Y825600D02*
X590500Y825600D01*
X662500Y825600D02*
X684500Y825600D01*
X831500Y825600D02*
X844500Y825600D01*
X47500Y824600D02*
X50500Y824600D01*
X60500Y824600D02*
X63500Y824600D01*
X331500Y824600D02*
X337500Y824600D01*
X354500Y824600D02*
X359500Y824600D01*
X414500Y824600D02*
X420500Y824600D01*
X521500Y824600D02*
X527500Y824600D01*
X540500Y824600D02*
X546500Y824600D01*
X566500Y824600D02*
X590500Y824600D01*
X661500Y824600D02*
X684500Y824600D01*
X832500Y824600D02*
X846500Y824600D01*
X47500Y823600D02*
X49500Y823600D01*
X61500Y823600D02*
X63500Y823600D01*
X330500Y823600D02*
X337500Y823600D01*
X354500Y823600D02*
X359500Y823600D01*
X414500Y823600D02*
X420500Y823600D01*
X521500Y823600D02*
X527500Y823600D01*
X540500Y823600D02*
X546500Y823600D01*
X566500Y823600D02*
X589500Y823600D01*
X660500Y823600D02*
X683500Y823600D01*
X835500Y823600D02*
X849500Y823600D01*
X47500Y822600D02*
X49500Y822600D01*
X61500Y822600D02*
X63500Y822600D01*
X330500Y822600D02*
X336500Y822600D01*
X354500Y822600D02*
X359500Y822600D01*
X414500Y822600D02*
X420500Y822600D01*
X520500Y822600D02*
X527500Y822600D01*
X541500Y822600D02*
X547500Y822600D01*
X565500Y822600D02*
X573500Y822600D01*
X660500Y822600D02*
X668500Y822600D01*
X837500Y822600D02*
X851500Y822600D01*
X47500Y821600D02*
X49500Y821600D01*
X61500Y821600D02*
X63500Y821600D01*
X329500Y821600D02*
X336500Y821600D01*
X354500Y821600D02*
X359500Y821600D01*
X414500Y821600D02*
X420500Y821600D01*
X520500Y821600D02*
X526500Y821600D01*
X541500Y821600D02*
X547500Y821600D01*
X565500Y821600D02*
X571500Y821600D01*
X660500Y821600D02*
X666500Y821600D01*
X840500Y821600D02*
X854500Y821600D01*
X47500Y820600D02*
X49500Y820600D01*
X61500Y820600D02*
X63500Y820600D01*
X329500Y820600D02*
X335500Y820600D01*
X354500Y820600D02*
X359500Y820600D01*
X414500Y820600D02*
X420500Y820600D01*
X520500Y820600D02*
X526500Y820600D01*
X541500Y820600D02*
X548500Y820600D01*
X565500Y820600D02*
X571500Y820600D01*
X659500Y820600D02*
X665500Y820600D01*
X842500Y820600D02*
X856500Y820600D01*
X47500Y819600D02*
X49500Y819600D01*
X61500Y819600D02*
X63500Y819600D01*
X328500Y819600D02*
X335500Y819600D01*
X354500Y819600D02*
X359500Y819600D01*
X414500Y819600D02*
X420500Y819600D01*
X519500Y819600D02*
X525500Y819600D01*
X542500Y819600D02*
X548500Y819600D01*
X565500Y819600D02*
X571500Y819600D01*
X659500Y819600D02*
X665500Y819600D01*
X845500Y819600D02*
X859500Y819600D01*
X47500Y818600D02*
X50500Y818600D01*
X60500Y818600D02*
X63500Y818600D01*
X328500Y818600D02*
X334500Y818600D01*
X354500Y818600D02*
X359500Y818600D01*
X414500Y818600D02*
X420500Y818600D01*
X519500Y818600D02*
X525500Y818600D01*
X542500Y818600D02*
X548500Y818600D01*
X565500Y818600D02*
X571500Y818600D01*
X659500Y818600D02*
X665500Y818600D01*
X848500Y818600D02*
X869500Y818600D01*
X48500Y817600D02*
X62500Y817600D01*
X327500Y817600D02*
X334500Y817600D01*
X354500Y817600D02*
X359500Y817600D01*
X414500Y817600D02*
X420500Y817600D01*
X519500Y817600D02*
X525500Y817600D01*
X543500Y817600D02*
X549500Y817600D01*
X565500Y817600D02*
X571500Y817600D01*
X659500Y817600D02*
X665500Y817600D01*
X850500Y817600D02*
X870500Y817600D01*
X49500Y816600D02*
X61500Y816600D01*
X327500Y816600D02*
X333500Y816600D01*
X354500Y816600D02*
X359500Y816600D01*
X414500Y816600D02*
X420500Y816600D01*
X518500Y816600D02*
X524500Y816600D01*
X543500Y816600D02*
X549500Y816600D01*
X565500Y816600D02*
X571500Y816600D01*
X659500Y816600D02*
X665500Y816600D01*
X853500Y816600D02*
X870500Y816600D01*
X50500Y815600D02*
X60500Y815600D01*
X326500Y815600D02*
X333500Y815600D01*
X354500Y815600D02*
X359500Y815600D01*
X414500Y815600D02*
X420500Y815600D01*
X518500Y815600D02*
X524500Y815600D01*
X543500Y815600D02*
X549500Y815600D01*
X565500Y815600D02*
X571500Y815600D01*
X659500Y815600D02*
X665500Y815600D01*
X855500Y815600D02*
X870500Y815600D01*
X326500Y814600D02*
X332500Y814600D01*
X354500Y814600D02*
X359500Y814600D01*
X414500Y814600D02*
X420500Y814600D01*
X518500Y814600D02*
X523500Y814600D01*
X544500Y814600D02*
X549500Y814600D01*
X565500Y814600D02*
X571500Y814600D01*
X659500Y814600D02*
X665500Y814600D01*
X858500Y814600D02*
X869500Y814600D01*
X325500Y813600D02*
X332500Y813600D01*
X354500Y813600D02*
X359500Y813600D01*
X414500Y813600D02*
X420500Y813600D01*
X518500Y813600D02*
X523500Y813600D01*
X544500Y813600D02*
X549500Y813600D01*
X565500Y813600D02*
X571500Y813600D01*
X659500Y813600D02*
X665500Y813600D01*
X325500Y812600D02*
X331500Y812600D01*
X354500Y812600D02*
X359500Y812600D01*
X414500Y812600D02*
X420500Y812600D01*
X518500Y812600D02*
X523500Y812600D01*
X544500Y812600D02*
X549500Y812600D01*
X565500Y812600D02*
X571500Y812600D01*
X659500Y812600D02*
X665500Y812600D01*
X324500Y811600D02*
X331500Y811600D01*
X354500Y811600D02*
X359500Y811600D01*
X414500Y811600D02*
X420500Y811600D01*
X518500Y811600D02*
X523500Y811600D01*
X544500Y811600D02*
X549500Y811600D01*
X565500Y811600D02*
X571500Y811600D01*
X659500Y811600D02*
X665500Y811600D01*
X308500Y810600D02*
X330500Y810600D01*
X354500Y810600D02*
X384500Y810600D01*
X403500Y810600D02*
X431500Y810600D01*
X518500Y810600D02*
X523500Y810600D01*
X544500Y810600D02*
X549500Y810600D01*
X565500Y810600D02*
X571500Y810600D01*
X659500Y810600D02*
X665500Y810600D01*
X307500Y809600D02*
X330500Y809600D01*
X354500Y809600D02*
X385500Y809600D01*
X402500Y809600D02*
X432500Y809600D01*
X518500Y809600D02*
X523500Y809600D01*
X544500Y809600D02*
X549500Y809600D01*
X565500Y809600D02*
X571500Y809600D01*
X659500Y809600D02*
X665500Y809600D01*
X307500Y808600D02*
X329500Y808600D01*
X354500Y808600D02*
X385500Y808600D01*
X401500Y808600D02*
X432500Y808600D01*
X518500Y808600D02*
X523500Y808600D01*
X544500Y808600D02*
X549500Y808600D01*
X565500Y808600D02*
X571500Y808600D01*
X659500Y808600D02*
X665500Y808600D01*
X51500Y807600D02*
X56500Y807600D01*
X62500Y807600D02*
X63500Y807600D01*
X307500Y807600D02*
X328500Y807600D01*
X355500Y807600D02*
X385500Y807600D01*
X401500Y807600D02*
X433500Y807600D01*
X518500Y807600D02*
X523500Y807600D01*
X544500Y807600D02*
X549500Y807600D01*
X565500Y807600D02*
X571500Y807600D01*
X659500Y807600D02*
X665500Y807600D01*
X49500Y806600D02*
X56500Y806600D01*
X61500Y806600D02*
X63500Y806600D01*
X307500Y806600D02*
X327500Y806600D01*
X356500Y806600D02*
X385500Y806600D01*
X401500Y806600D02*
X432500Y806600D01*
X518500Y806600D02*
X523500Y806600D01*
X544500Y806600D02*
X549500Y806600D01*
X565500Y806600D02*
X595500Y806600D01*
X659500Y806600D02*
X690500Y806600D01*
X48500Y805600D02*
X56500Y805600D01*
X61500Y805600D02*
X63500Y805600D01*
X307500Y805600D02*
X326500Y805600D01*
X357500Y805600D02*
X385500Y805600D01*
X402500Y805600D02*
X432500Y805600D01*
X518500Y805600D02*
X523500Y805600D01*
X544500Y805600D02*
X549500Y805600D01*
X565500Y805600D02*
X596500Y805600D01*
X660500Y805600D02*
X691500Y805600D01*
X47500Y804600D02*
X50500Y804600D01*
X54500Y804600D02*
X56500Y804600D01*
X61500Y804600D02*
X63500Y804600D01*
X309500Y804600D02*
X323500Y804600D01*
X359500Y804600D02*
X383500Y804600D01*
X403500Y804600D02*
X430500Y804600D01*
X518500Y804600D02*
X523500Y804600D01*
X544500Y804600D02*
X549500Y804600D01*
X566500Y804600D02*
X596500Y804600D01*
X660500Y804600D02*
X691500Y804600D01*
X47500Y803600D02*
X49500Y803600D01*
X54500Y803600D02*
X56500Y803600D01*
X61500Y803600D02*
X63500Y803600D01*
X518500Y803600D02*
X523500Y803600D01*
X544500Y803600D02*
X549500Y803600D01*
X566500Y803600D02*
X597500Y803600D01*
X661500Y803600D02*
X691500Y803600D01*
X47500Y802600D02*
X49500Y802600D01*
X54500Y802600D02*
X56500Y802600D01*
X61500Y802600D02*
X63500Y802600D01*
X518500Y802600D02*
X523500Y802600D01*
X544500Y802600D02*
X549500Y802600D01*
X567500Y802600D02*
X596500Y802600D01*
X661500Y802600D02*
X691500Y802600D01*
X47500Y801600D02*
X49500Y801600D01*
X54500Y801600D02*
X56500Y801600D01*
X61500Y801600D02*
X63500Y801600D01*
X519500Y801600D02*
X522500Y801600D01*
X545500Y801600D02*
X548500Y801600D01*
X568500Y801600D02*
X596500Y801600D01*
X663500Y801600D02*
X690500Y801600D01*
X836500Y801600D02*
X852500Y801600D01*
X47500Y800600D02*
X49500Y800600D01*
X54500Y800600D02*
X56500Y800600D01*
X61500Y800600D02*
X63500Y800600D01*
X571500Y800600D02*
X594500Y800600D01*
X665500Y800600D02*
X688500Y800600D01*
X834500Y800600D02*
X854500Y800600D01*
X47500Y799600D02*
X49500Y799600D01*
X54500Y799600D02*
X56500Y799600D01*
X61500Y799600D02*
X63500Y799600D01*
X833500Y799600D02*
X855500Y799600D01*
X47500Y798600D02*
X49500Y798600D01*
X54500Y798600D02*
X56500Y798600D01*
X61500Y798600D02*
X63500Y798600D01*
X833500Y798600D02*
X856500Y798600D01*
X47500Y797600D02*
X49500Y797600D01*
X54500Y797600D02*
X56500Y797600D01*
X61500Y797600D02*
X63500Y797600D01*
X832500Y797600D02*
X857500Y797600D01*
X47500Y796600D02*
X50500Y796600D01*
X54500Y796600D02*
X56500Y796600D01*
X60500Y796600D02*
X63500Y796600D01*
X831500Y796600D02*
X837500Y796600D01*
X842500Y796600D02*
X847500Y796600D01*
X851500Y796600D02*
X858500Y796600D01*
X48500Y795600D02*
X62500Y795600D01*
X830500Y795600D02*
X836500Y795600D01*
X842500Y795600D02*
X846500Y795600D01*
X853500Y795600D02*
X858500Y795600D01*
X49500Y794600D02*
X61500Y794600D01*
X830500Y794600D02*
X835500Y794600D01*
X842500Y794600D02*
X846500Y794600D01*
X854500Y794600D02*
X859500Y794600D01*
X50500Y793600D02*
X60500Y793600D01*
X830500Y793600D02*
X834500Y793600D01*
X842500Y793600D02*
X846500Y793600D01*
X854500Y793600D02*
X859500Y793600D01*
X830500Y792600D02*
X834500Y792600D01*
X842500Y792600D02*
X846500Y792600D01*
X855500Y792600D02*
X859500Y792600D01*
X830500Y791600D02*
X834500Y791600D01*
X842500Y791600D02*
X846500Y791600D01*
X855500Y791600D02*
X859500Y791600D01*
X830500Y790600D02*
X834500Y790600D01*
X842500Y790600D02*
X846500Y790600D01*
X855500Y790600D02*
X859500Y790600D01*
X830500Y789600D02*
X834500Y789600D01*
X842500Y789600D02*
X846500Y789600D01*
X855500Y789600D02*
X859500Y789600D01*
X830500Y788600D02*
X834500Y788600D01*
X842500Y788600D02*
X846500Y788600D01*
X855500Y788600D02*
X859500Y788600D01*
X830500Y787600D02*
X834500Y787600D01*
X842500Y787600D02*
X846500Y787600D01*
X855500Y787600D02*
X859500Y787600D01*
X830500Y786600D02*
X834500Y786600D01*
X842500Y786600D02*
X846500Y786600D01*
X855500Y786600D02*
X859500Y786600D01*
X915500Y786600D02*
X947500Y786600D01*
X60500Y785600D02*
X60500Y785600D01*
X830500Y785600D02*
X834500Y785600D01*
X842500Y785600D02*
X846500Y785600D01*
X854500Y785600D02*
X859500Y785600D01*
X913500Y785600D02*
X948500Y785600D01*
X59500Y784600D02*
X62500Y784600D01*
X830500Y784600D02*
X834500Y784600D01*
X842500Y784600D02*
X846500Y784600D01*
X854500Y784600D02*
X859500Y784600D01*
X911500Y784600D02*
X948500Y784600D01*
X59500Y783600D02*
X62500Y783600D01*
X830500Y783600D02*
X834500Y783600D01*
X842500Y783600D02*
X846500Y783600D01*
X854500Y783600D02*
X859500Y783600D01*
X910500Y783600D02*
X948500Y783600D01*
X47500Y782600D02*
X49500Y782600D01*
X60500Y782600D02*
X63500Y782600D01*
X830500Y782600D02*
X834500Y782600D01*
X842500Y782600D02*
X846500Y782600D01*
X853500Y782600D02*
X858500Y782600D01*
X910500Y782600D02*
X947500Y782600D01*
X47500Y781600D02*
X49500Y781600D01*
X61500Y781600D02*
X63500Y781600D01*
X830500Y781600D02*
X834500Y781600D01*
X842500Y781600D02*
X847500Y781600D01*
X851500Y781600D02*
X858500Y781600D01*
X910500Y781600D02*
X916500Y781600D01*
X47500Y780600D02*
X49500Y780600D01*
X61500Y780600D02*
X63500Y780600D01*
X830500Y780600D02*
X834500Y780600D01*
X842500Y780600D02*
X857500Y780600D01*
X910500Y780600D02*
X914500Y780600D01*
X47500Y779600D02*
X49500Y779600D01*
X61500Y779600D02*
X63500Y779600D01*
X830500Y779600D02*
X834500Y779600D01*
X842500Y779600D02*
X856500Y779600D01*
X910500Y779600D02*
X914500Y779600D01*
X47500Y778600D02*
X49500Y778600D01*
X61500Y778600D02*
X63500Y778600D01*
X830500Y778600D02*
X834500Y778600D01*
X842500Y778600D02*
X855500Y778600D01*
X910500Y778600D02*
X914500Y778600D01*
X47500Y777600D02*
X49500Y777600D01*
X61500Y777600D02*
X63500Y777600D01*
X830500Y777600D02*
X834500Y777600D01*
X842500Y777600D02*
X854500Y777600D01*
X910500Y777600D02*
X914500Y777600D01*
X43500Y776600D02*
X63500Y776600D01*
X831500Y776600D02*
X833500Y776600D01*
X843500Y776600D02*
X852500Y776600D01*
X910500Y776600D02*
X915500Y776600D01*
X42500Y775600D02*
X62500Y775600D01*
X910500Y775600D02*
X933500Y775600D01*
X42500Y774600D02*
X61500Y774600D01*
X910500Y774600D02*
X934500Y774600D01*
X43500Y773600D02*
X59500Y773600D01*
X911500Y773600D02*
X934500Y773600D01*
X47500Y772600D02*
X49500Y772600D01*
X911500Y772600D02*
X934500Y772600D01*
X47500Y771600D02*
X49500Y771600D01*
X910500Y771600D02*
X933500Y771600D01*
X48500Y770600D02*
X48500Y770600D01*
X910500Y770600D02*
X916500Y770600D01*
X910500Y769600D02*
X914500Y769600D01*
X910500Y768600D02*
X914500Y768600D01*
X910500Y767600D02*
X914500Y767600D01*
X910500Y766600D02*
X914500Y766600D01*
X910500Y765600D02*
X915500Y765600D01*
X910500Y764600D02*
X917500Y764600D01*
X59500Y763600D02*
X59500Y763600D01*
X831500Y763600D02*
X858500Y763600D01*
X910500Y763600D02*
X948500Y763600D01*
X48500Y762600D02*
X50500Y762600D01*
X57500Y762600D02*
X61500Y762600D01*
X830500Y762600D02*
X859500Y762600D01*
X911500Y762600D02*
X948500Y762600D01*
X47500Y761600D02*
X50500Y761600D01*
X56500Y761600D02*
X62500Y761600D01*
X830500Y761600D02*
X859500Y761600D01*
X912500Y761600D02*
X948500Y761600D01*
X47500Y760600D02*
X50500Y760600D01*
X55500Y760600D02*
X63500Y760600D01*
X830500Y760600D02*
X859500Y760600D01*
X914500Y760600D02*
X948500Y760600D01*
X47500Y759600D02*
X49500Y759600D01*
X55500Y759600D02*
X57500Y759600D01*
X61500Y759600D02*
X63500Y759600D01*
X831500Y759600D02*
X858500Y759600D01*
X916500Y759600D02*
X946500Y759600D01*
X47500Y758600D02*
X49500Y758600D01*
X54500Y758600D02*
X57500Y758600D01*
X61500Y758600D02*
X63500Y758600D01*
X847500Y758600D02*
X854500Y758600D01*
X47500Y757600D02*
X49500Y757600D01*
X54500Y757600D02*
X56500Y757600D01*
X61500Y757600D02*
X63500Y757600D01*
X848500Y757600D02*
X854500Y757600D01*
X47500Y756600D02*
X49500Y756600D01*
X53500Y756600D02*
X56500Y756600D01*
X61500Y756600D02*
X63500Y756600D01*
X849500Y756600D02*
X855500Y756600D01*
X47500Y755600D02*
X49500Y755600D01*
X53500Y755600D02*
X55500Y755600D01*
X61500Y755600D02*
X63500Y755600D01*
X850500Y755600D02*
X856500Y755600D01*
X47500Y754600D02*
X49500Y754600D01*
X53500Y754600D02*
X55500Y754600D01*
X61500Y754600D02*
X63500Y754600D01*
X851500Y754600D02*
X857500Y754600D01*
X47500Y753600D02*
X49500Y753600D01*
X52500Y753600D02*
X54500Y753600D01*
X61500Y753600D02*
X63500Y753600D01*
X851500Y753600D02*
X858500Y753600D01*
X47500Y752600D02*
X49500Y752600D01*
X52500Y752600D02*
X54500Y752600D01*
X61500Y752600D02*
X63500Y752600D01*
X852500Y752600D02*
X858500Y752600D01*
X47500Y751600D02*
X54500Y751600D01*
X61500Y751600D02*
X63500Y751600D01*
X853500Y751600D02*
X859500Y751600D01*
X47500Y750600D02*
X53500Y750600D01*
X60500Y750600D02*
X63500Y750600D01*
X854500Y750600D02*
X859500Y750600D01*
X48500Y749600D02*
X52500Y749600D01*
X60500Y749600D02*
X62500Y749600D01*
X855500Y749600D02*
X859500Y749600D01*
X61500Y748600D02*
X61500Y748600D01*
X855500Y748600D02*
X859500Y748600D01*
X915500Y748600D02*
X932500Y748600D01*
X855500Y747600D02*
X859500Y747600D01*
X914500Y747600D02*
X933500Y747600D01*
X855500Y746600D02*
X859500Y746600D01*
X913500Y746600D02*
X934500Y746600D01*
X855500Y745600D02*
X859500Y745600D01*
X912500Y745600D02*
X935500Y745600D01*
X854500Y744600D02*
X859500Y744600D01*
X911500Y744600D02*
X936500Y744600D01*
X854500Y743600D02*
X859500Y743600D01*
X911500Y743600D02*
X916500Y743600D01*
X922500Y743600D02*
X926500Y743600D01*
X931500Y743600D02*
X937500Y743600D01*
X850500Y742600D02*
X859500Y742600D01*
X910500Y742600D02*
X915500Y742600D01*
X922500Y742600D02*
X926500Y742600D01*
X932500Y742600D02*
X937500Y742600D01*
X849500Y741600D02*
X858500Y741600D01*
X910500Y741600D02*
X914500Y741600D01*
X922500Y741600D02*
X926500Y741600D01*
X933500Y741600D02*
X937500Y741600D01*
X49500Y740600D02*
X63500Y740600D01*
X848500Y740600D02*
X858500Y740600D01*
X910500Y740600D02*
X914500Y740600D01*
X922500Y740600D02*
X926500Y740600D01*
X933500Y740600D02*
X937500Y740600D01*
X48500Y739600D02*
X63500Y739600D01*
X848500Y739600D02*
X857500Y739600D01*
X910500Y739600D02*
X914500Y739600D01*
X922500Y739600D02*
X926500Y739600D01*
X933500Y739600D02*
X938500Y739600D01*
X47500Y738600D02*
X63500Y738600D01*
X849500Y738600D02*
X855500Y738600D01*
X910500Y738600D02*
X914500Y738600D01*
X922500Y738600D02*
X926500Y738600D01*
X933500Y738600D02*
X938500Y738600D01*
X47500Y737600D02*
X49500Y737600D01*
X910500Y737600D02*
X914500Y737600D01*
X922500Y737600D02*
X926500Y737600D01*
X933500Y737600D02*
X938500Y737600D01*
X47500Y736600D02*
X49500Y736600D01*
X910500Y736600D02*
X914500Y736600D01*
X922500Y736600D02*
X926500Y736600D01*
X933500Y736600D02*
X938500Y736600D01*
X47500Y735600D02*
X49500Y735600D01*
X910500Y735600D02*
X914500Y735600D01*
X922500Y735600D02*
X926500Y735600D01*
X933500Y735600D02*
X938500Y735600D01*
X47500Y734600D02*
X49500Y734600D01*
X910500Y734600D02*
X914500Y734600D01*
X922500Y734600D02*
X926500Y734600D01*
X933500Y734600D02*
X938500Y734600D01*
X47500Y733600D02*
X50500Y733600D01*
X910500Y733600D02*
X914500Y733600D01*
X922500Y733600D02*
X926500Y733600D01*
X933500Y733600D02*
X938500Y733600D01*
X47500Y732600D02*
X50500Y732600D01*
X910500Y732600D02*
X914500Y732600D01*
X922500Y732600D02*
X926500Y732600D01*
X933500Y732600D02*
X937500Y732600D01*
X48500Y731600D02*
X51500Y731600D01*
X910500Y731600D02*
X914500Y731600D01*
X922500Y731600D02*
X926500Y731600D01*
X933500Y731600D02*
X937500Y731600D01*
X49500Y730600D02*
X51500Y730600D01*
X910500Y730600D02*
X914500Y730600D01*
X922500Y730600D02*
X926500Y730600D01*
X932500Y730600D02*
X937500Y730600D01*
X49500Y729600D02*
X52500Y729600D01*
X910500Y729600D02*
X914500Y729600D01*
X922500Y729600D02*
X926500Y729600D01*
X930500Y729600D02*
X936500Y729600D01*
X47500Y728600D02*
X63500Y728600D01*
X910500Y728600D02*
X914500Y728600D01*
X922500Y728600D02*
X936500Y728600D01*
X47500Y727600D02*
X63500Y727600D01*
X910500Y727600D02*
X914500Y727600D01*
X922500Y727600D02*
X935500Y727600D01*
X48500Y726600D02*
X62500Y726600D01*
X910500Y726600D02*
X914500Y726600D01*
X922500Y726600D02*
X934500Y726600D01*
X834500Y725600D02*
X835500Y725600D01*
X910500Y725600D02*
X914500Y725600D01*
X922500Y725600D02*
X932500Y725600D01*
X832500Y724600D02*
X836500Y724600D01*
X850500Y724600D02*
X855500Y724600D01*
X911500Y724600D02*
X912500Y724600D01*
X923500Y724600D02*
X930500Y724600D01*
X832500Y723600D02*
X836500Y723600D01*
X849500Y723600D02*
X857500Y723600D01*
X831500Y722600D02*
X836500Y722600D01*
X848500Y722600D02*
X857500Y722600D01*
X831500Y721600D02*
X836500Y721600D01*
X847500Y721600D02*
X858500Y721600D01*
X830500Y720600D02*
X835500Y720600D01*
X847500Y720600D02*
X859500Y720600D01*
X830500Y719600D02*
X835500Y719600D01*
X846500Y719600D02*
X851500Y719600D01*
X854500Y719600D02*
X859500Y719600D01*
X50500Y718600D02*
X56500Y718600D01*
X61500Y718600D02*
X63500Y718600D01*
X830500Y718600D02*
X834500Y718600D01*
X846500Y718600D02*
X851500Y718600D01*
X855500Y718600D02*
X859500Y718600D01*
X49500Y717600D02*
X56500Y717600D01*
X61500Y717600D02*
X63500Y717600D01*
X830500Y717600D02*
X834500Y717600D01*
X845500Y717600D02*
X850500Y717600D01*
X855500Y717600D02*
X859500Y717600D01*
X48500Y716600D02*
X56500Y716600D01*
X61500Y716600D02*
X63500Y716600D01*
X830500Y716600D02*
X834500Y716600D01*
X845500Y716600D02*
X850500Y716600D01*
X855500Y716600D02*
X859500Y716600D01*
X47500Y715600D02*
X50500Y715600D01*
X54500Y715600D02*
X56500Y715600D01*
X61500Y715600D02*
X63500Y715600D01*
X830500Y715600D02*
X834500Y715600D01*
X844500Y715600D02*
X849500Y715600D01*
X855500Y715600D02*
X859500Y715600D01*
X47500Y714600D02*
X49500Y714600D01*
X54500Y714600D02*
X56500Y714600D01*
X61500Y714600D02*
X63500Y714600D01*
X830500Y714600D02*
X834500Y714600D01*
X844500Y714600D02*
X849500Y714600D01*
X855500Y714600D02*
X859500Y714600D01*
X47500Y713600D02*
X49500Y713600D01*
X54500Y713600D02*
X56500Y713600D01*
X61500Y713600D02*
X63500Y713600D01*
X830500Y713600D02*
X834500Y713600D01*
X844500Y713600D02*
X848500Y713600D01*
X855500Y713600D02*
X859500Y713600D01*
X47500Y712600D02*
X49500Y712600D01*
X54500Y712600D02*
X56500Y712600D01*
X61500Y712600D02*
X63500Y712600D01*
X830500Y712600D02*
X834500Y712600D01*
X843500Y712600D02*
X848500Y712600D01*
X855500Y712600D02*
X859500Y712600D01*
X915500Y712600D02*
X922500Y712600D01*
X47500Y711600D02*
X49500Y711600D01*
X54500Y711600D02*
X56500Y711600D01*
X61500Y711600D02*
X63500Y711600D01*
X830500Y711600D02*
X834500Y711600D01*
X843500Y711600D02*
X848500Y711600D01*
X855500Y711600D02*
X859500Y711600D01*
X913500Y711600D02*
X924500Y711600D01*
X47500Y710600D02*
X49500Y710600D01*
X54500Y710600D02*
X56500Y710600D01*
X61500Y710600D02*
X63500Y710600D01*
X830500Y710600D02*
X834500Y710600D01*
X842500Y710600D02*
X847500Y710600D01*
X855500Y710600D02*
X859500Y710600D01*
X912500Y710600D02*
X925500Y710600D01*
X47500Y709600D02*
X49500Y709600D01*
X54500Y709600D02*
X56500Y709600D01*
X61500Y709600D02*
X63500Y709600D01*
X830500Y709600D02*
X834500Y709600D01*
X842500Y709600D02*
X847500Y709600D01*
X855500Y709600D02*
X859500Y709600D01*
X911500Y709600D02*
X926500Y709600D01*
X47500Y708600D02*
X49500Y708600D01*
X54500Y708600D02*
X56500Y708600D01*
X61500Y708600D02*
X63500Y708600D01*
X830500Y708600D02*
X834500Y708600D01*
X841500Y708600D02*
X846500Y708600D01*
X855500Y708600D02*
X859500Y708600D01*
X910500Y708600D02*
X926500Y708600D01*
X934500Y708600D02*
X937500Y708600D01*
X47500Y707600D02*
X50500Y707600D01*
X54500Y707600D02*
X56500Y707600D01*
X60500Y707600D02*
X63500Y707600D01*
X830500Y707600D02*
X834500Y707600D01*
X841500Y707600D02*
X846500Y707600D01*
X855500Y707600D02*
X859500Y707600D01*
X910500Y707600D02*
X915500Y707600D01*
X922500Y707600D02*
X926500Y707600D01*
X934500Y707600D02*
X937500Y707600D01*
X48500Y706600D02*
X62500Y706600D01*
X830500Y706600D02*
X834500Y706600D01*
X840500Y706600D02*
X845500Y706600D01*
X854500Y706600D02*
X859500Y706600D01*
X910500Y706600D02*
X914500Y706600D01*
X923500Y706600D02*
X927500Y706600D01*
X934500Y706600D02*
X938500Y706600D01*
X49500Y705600D02*
X61500Y705600D01*
X830500Y705600D02*
X835500Y705600D01*
X840500Y705600D02*
X845500Y705600D01*
X854500Y705600D02*
X859500Y705600D01*
X910500Y705600D02*
X914500Y705600D01*
X923500Y705600D02*
X927500Y705600D01*
X934500Y705600D02*
X938500Y705600D01*
X50500Y704600D02*
X60500Y704600D01*
X830500Y704600D02*
X844500Y704600D01*
X853500Y704600D02*
X858500Y704600D01*
X910500Y704600D02*
X914500Y704600D01*
X923500Y704600D02*
X927500Y704600D01*
X934500Y704600D02*
X938500Y704600D01*
X831500Y703600D02*
X844500Y703600D01*
X853500Y703600D02*
X858500Y703600D01*
X910500Y703600D02*
X914500Y703600D01*
X923500Y703600D02*
X927500Y703600D01*
X934500Y703600D02*
X938500Y703600D01*
X832500Y702600D02*
X843500Y702600D01*
X852500Y702600D02*
X858500Y702600D01*
X910500Y702600D02*
X914500Y702600D01*
X923500Y702600D02*
X927500Y702600D01*
X934500Y702600D02*
X938500Y702600D01*
X833500Y701600D02*
X842500Y701600D01*
X853500Y701600D02*
X857500Y701600D01*
X910500Y701600D02*
X914500Y701600D01*
X923500Y701600D02*
X927500Y701600D01*
X934500Y701600D02*
X938500Y701600D01*
X834500Y700600D02*
X841500Y700600D01*
X853500Y700600D02*
X856500Y700600D01*
X910500Y700600D02*
X914500Y700600D01*
X923500Y700600D02*
X927500Y700600D01*
X934500Y700600D02*
X938500Y700600D01*
X837500Y699600D02*
X837500Y699600D01*
X910500Y699600D02*
X914500Y699600D01*
X923500Y699600D02*
X927500Y699600D01*
X934500Y699600D02*
X938500Y699600D01*
X910500Y698600D02*
X914500Y698600D01*
X923500Y698600D02*
X927500Y698600D01*
X934500Y698600D02*
X938500Y698600D01*
X910500Y697600D02*
X914500Y697600D01*
X923500Y697600D02*
X927500Y697600D01*
X934500Y697600D02*
X938500Y697600D01*
X910500Y696600D02*
X915500Y696600D01*
X923500Y696600D02*
X927500Y696600D01*
X934500Y696600D02*
X938500Y696600D01*
X62500Y695600D02*
X62500Y695600D01*
X911500Y695600D02*
X915500Y695600D01*
X923500Y695600D02*
X927500Y695600D01*
X933500Y695600D02*
X938500Y695600D01*
X61500Y694600D02*
X63500Y694600D01*
X911500Y694600D02*
X916500Y694600D01*
X923500Y694600D02*
X927500Y694600D01*
X933500Y694600D02*
X937500Y694600D01*
X61500Y693600D02*
X63500Y693600D01*
X912500Y693600D02*
X917500Y693600D01*
X922500Y693600D02*
X927500Y693600D01*
X933500Y693600D02*
X937500Y693600D01*
X61500Y692600D02*
X63500Y692600D01*
X171500Y692600D02*
X187500Y692600D01*
X911500Y692600D02*
X937500Y692600D01*
X61500Y691600D02*
X63500Y691600D01*
X170500Y691600D02*
X187500Y691600D01*
X910500Y691600D02*
X936500Y691600D01*
X41500Y690600D02*
X63500Y690600D01*
X170500Y690600D02*
X187500Y690600D01*
X910500Y690600D02*
X935500Y690600D01*
X40500Y689600D02*
X63500Y689600D01*
X170500Y689600D02*
X187500Y689600D01*
X910500Y689600D02*
X935500Y689600D01*
X40500Y688600D02*
X63500Y688600D01*
X170500Y688600D02*
X187500Y688600D01*
X911500Y688600D02*
X933500Y688600D01*
X40500Y687600D02*
X42500Y687600D01*
X61500Y687600D02*
X63500Y687600D01*
X170500Y687600D02*
X188500Y687600D01*
X40500Y686600D02*
X42500Y686600D01*
X61500Y686600D02*
X63500Y686600D01*
X169500Y686600D02*
X188500Y686600D01*
X40500Y685600D02*
X42500Y685600D01*
X61500Y685600D02*
X63500Y685600D01*
X169500Y685600D02*
X188500Y685600D01*
X40500Y684600D02*
X42500Y684600D01*
X61500Y684600D02*
X63500Y684600D01*
X169500Y684600D02*
X188500Y684600D01*
X831500Y684600D02*
X833500Y684600D01*
X856500Y684600D02*
X858500Y684600D01*
X41500Y683600D02*
X41500Y683600D01*
X62500Y683600D02*
X62500Y683600D01*
X169500Y683600D02*
X188500Y683600D01*
X830500Y683600D02*
X834500Y683600D01*
X855500Y683600D02*
X859500Y683600D01*
X169500Y682600D02*
X188500Y682600D01*
X830500Y682600D02*
X834500Y682600D01*
X855500Y682600D02*
X859500Y682600D01*
X168500Y681600D02*
X189500Y681600D01*
X830500Y681600D02*
X834500Y681600D01*
X855500Y681600D02*
X859500Y681600D01*
X141500Y680600D02*
X142500Y680600D01*
X168500Y680600D02*
X189500Y680600D01*
X215500Y680600D02*
X216500Y680600D01*
X830500Y680600D02*
X834500Y680600D01*
X855500Y680600D02*
X859500Y680600D01*
X140500Y679600D02*
X144500Y679600D01*
X168500Y679600D02*
X189500Y679600D01*
X213500Y679600D02*
X217500Y679600D01*
X830500Y679600D02*
X834500Y679600D01*
X855500Y679600D02*
X859500Y679600D01*
X868500Y679600D02*
X871500Y679600D01*
X139500Y678600D02*
X145500Y678600D01*
X168500Y678600D02*
X189500Y678600D01*
X212500Y678600D02*
X218500Y678600D01*
X830500Y678600D02*
X834500Y678600D01*
X855500Y678600D02*
X859500Y678600D01*
X866500Y678600D02*
X872500Y678600D01*
X138500Y677600D02*
X147500Y677600D01*
X168500Y677600D02*
X189500Y677600D01*
X210500Y677600D02*
X219500Y677600D01*
X830500Y677600D02*
X834500Y677600D01*
X855500Y677600D02*
X859500Y677600D01*
X866500Y677600D02*
X872500Y677600D01*
X137500Y676600D02*
X148500Y676600D01*
X167500Y676600D02*
X190500Y676600D01*
X209500Y676600D02*
X220500Y676600D01*
X830500Y676600D02*
X859500Y676600D01*
X866500Y676600D02*
X872500Y676600D01*
X136500Y675600D02*
X150500Y675600D01*
X165500Y675600D02*
X192500Y675600D01*
X207500Y675600D02*
X221500Y675600D01*
X830500Y675600D02*
X859500Y675600D01*
X866500Y675600D02*
X872500Y675600D01*
X934500Y675600D02*
X937500Y675600D01*
X51500Y674600D02*
X63500Y674600D01*
X135500Y674600D02*
X151500Y674600D01*
X163500Y674600D02*
X195500Y674600D01*
X206500Y674600D02*
X222500Y674600D01*
X830500Y674600D02*
X859500Y674600D01*
X866500Y674600D02*
X872500Y674600D01*
X934500Y674600D02*
X937500Y674600D01*
X48500Y673600D02*
X63500Y673600D01*
X134500Y673600D02*
X153500Y673600D01*
X160500Y673600D02*
X197500Y673600D01*
X205500Y673600D02*
X223500Y673600D01*
X830500Y673600D02*
X859500Y673600D01*
X866500Y673600D02*
X872500Y673600D01*
X933500Y673600D02*
X938500Y673600D01*
X48500Y672600D02*
X63500Y672600D01*
X133500Y672600D02*
X154500Y672600D01*
X158500Y672600D02*
X199500Y672600D01*
X203500Y672600D02*
X224500Y672600D01*
X830500Y672600D02*
X858500Y672600D01*
X867500Y672600D02*
X871500Y672600D01*
X933500Y672600D02*
X938500Y672600D01*
X47500Y671600D02*
X51500Y671600D01*
X132500Y671600D02*
X225500Y671600D01*
X830500Y671600D02*
X834500Y671600D01*
X917500Y671600D02*
X944500Y671600D01*
X47500Y670600D02*
X49500Y670600D01*
X131500Y670600D02*
X226500Y670600D01*
X830500Y670600D02*
X834500Y670600D01*
X914500Y670600D02*
X946500Y670600D01*
X47500Y669600D02*
X49500Y669600D01*
X131500Y669600D02*
X227500Y669600D01*
X338500Y669600D02*
X362500Y669600D01*
X385500Y669600D02*
X393500Y669600D01*
X416500Y669600D02*
X424500Y669600D01*
X439500Y669600D02*
X469500Y669600D01*
X489500Y669600D02*
X517500Y669600D01*
X545500Y669600D02*
X564500Y669600D01*
X591500Y669600D02*
X617500Y669600D01*
X830500Y669600D02*
X834500Y669600D01*
X912500Y669600D02*
X946500Y669600D01*
X47500Y668600D02*
X49500Y668600D01*
X131500Y668600D02*
X226500Y668600D01*
X338500Y668600D02*
X364500Y668600D01*
X385500Y668600D02*
X394500Y668600D01*
X415500Y668600D02*
X424500Y668600D01*
X439500Y668600D02*
X470500Y668600D01*
X488500Y668600D02*
X519500Y668600D01*
X544500Y668600D02*
X564500Y668600D01*
X590500Y668600D02*
X619500Y668600D01*
X830500Y668600D02*
X834500Y668600D01*
X911500Y668600D02*
X946500Y668600D01*
X47500Y667600D02*
X49500Y667600D01*
X132500Y667600D02*
X226500Y667600D01*
X338500Y667600D02*
X366500Y667600D01*
X385500Y667600D02*
X394500Y667600D01*
X415500Y667600D02*
X424500Y667600D01*
X439500Y667600D02*
X470500Y667600D01*
X488500Y667600D02*
X520500Y667600D01*
X544500Y667600D02*
X565500Y667600D01*
X589500Y667600D02*
X620500Y667600D01*
X830500Y667600D02*
X834500Y667600D01*
X911500Y667600D02*
X946500Y667600D01*
X47500Y666600D02*
X50500Y666600D01*
X132500Y666600D02*
X225500Y666600D01*
X338500Y666600D02*
X367500Y666600D01*
X385500Y666600D02*
X395500Y666600D01*
X414500Y666600D02*
X424500Y666600D01*
X439500Y666600D02*
X470500Y666600D01*
X488500Y666600D02*
X520500Y666600D01*
X544500Y666600D02*
X565500Y666600D01*
X588500Y666600D02*
X620500Y666600D01*
X830500Y666600D02*
X834500Y666600D01*
X910500Y666600D02*
X944500Y666600D01*
X48500Y665600D02*
X50500Y665600D01*
X133500Y665600D02*
X224500Y665600D01*
X338500Y665600D02*
X368500Y665600D01*
X385500Y665600D02*
X395500Y665600D01*
X414500Y665600D02*
X424500Y665600D01*
X439500Y665600D02*
X470500Y665600D01*
X488500Y665600D02*
X521500Y665600D01*
X544500Y665600D02*
X565500Y665600D01*
X588500Y665600D02*
X621500Y665600D01*
X830500Y665600D02*
X834500Y665600D01*
X910500Y665600D02*
X915500Y665600D01*
X933500Y665600D02*
X938500Y665600D01*
X48500Y664600D02*
X51500Y664600D01*
X134500Y664600D02*
X223500Y664600D01*
X338500Y664600D02*
X369500Y664600D01*
X385500Y664600D02*
X396500Y664600D01*
X413500Y664600D02*
X424500Y664600D01*
X439500Y664600D02*
X469500Y664600D01*
X489500Y664600D02*
X521500Y664600D01*
X544500Y664600D02*
X565500Y664600D01*
X588500Y664600D02*
X621500Y664600D01*
X831500Y664600D02*
X833500Y664600D01*
X910500Y664600D02*
X914500Y664600D01*
X933500Y664600D02*
X938500Y664600D01*
X49500Y663600D02*
X52500Y663600D01*
X134500Y663600D02*
X223500Y663600D01*
X338500Y663600D02*
X369500Y663600D01*
X385500Y663600D02*
X396500Y663600D01*
X413500Y663600D02*
X424500Y663600D01*
X439500Y663600D02*
X468500Y663600D01*
X490500Y663600D02*
X521500Y663600D01*
X544500Y663600D02*
X565500Y663600D01*
X588500Y663600D02*
X621500Y663600D01*
X910500Y663600D02*
X914500Y663600D01*
X933500Y663600D02*
X938500Y663600D01*
X41500Y662600D02*
X62500Y662600D01*
X135500Y662600D02*
X222500Y662600D01*
X338500Y662600D02*
X344500Y662600D01*
X361500Y662600D02*
X370500Y662600D01*
X385500Y662600D02*
X397500Y662600D01*
X412500Y662600D02*
X424500Y662600D01*
X439500Y662600D02*
X445500Y662600D01*
X515500Y662600D02*
X521500Y662600D01*
X544500Y662600D02*
X550500Y662600D01*
X559500Y662600D02*
X565500Y662600D01*
X588500Y662600D02*
X594500Y662600D01*
X615500Y662600D02*
X621500Y662600D01*
X910500Y662600D02*
X914500Y662600D01*
X933500Y662600D02*
X938500Y662600D01*
X40500Y661600D02*
X63500Y661600D01*
X136500Y661600D02*
X221500Y661600D01*
X338500Y661600D02*
X344500Y661600D01*
X363500Y661600D02*
X370500Y661600D01*
X385500Y661600D02*
X397500Y661600D01*
X412500Y661600D02*
X424500Y661600D01*
X439500Y661600D02*
X445500Y661600D01*
X515500Y661600D02*
X521500Y661600D01*
X544500Y661600D02*
X550500Y661600D01*
X559500Y661600D02*
X565500Y661600D01*
X588500Y661600D02*
X594500Y661600D01*
X615500Y661600D02*
X621500Y661600D01*
X910500Y661600D02*
X914500Y661600D01*
X933500Y661600D02*
X938500Y661600D01*
X41500Y660600D02*
X63500Y660600D01*
X136500Y660600D02*
X221500Y660600D01*
X338500Y660600D02*
X344500Y660600D01*
X364500Y660600D02*
X371500Y660600D01*
X385500Y660600D02*
X398500Y660600D01*
X411500Y660600D02*
X424500Y660600D01*
X439500Y660600D02*
X445500Y660600D01*
X515500Y660600D02*
X521500Y660600D01*
X544500Y660600D02*
X550500Y660600D01*
X559500Y660600D02*
X565500Y660600D01*
X588500Y660600D02*
X594500Y660600D01*
X615500Y660600D02*
X621500Y660600D01*
X910500Y660600D02*
X914500Y660600D01*
X933500Y660600D02*
X938500Y660600D01*
X137500Y659600D02*
X220500Y659600D01*
X338500Y659600D02*
X344500Y659600D01*
X364500Y659600D02*
X371500Y659600D01*
X385500Y659600D02*
X398500Y659600D01*
X411500Y659600D02*
X424500Y659600D01*
X439500Y659600D02*
X445500Y659600D01*
X515500Y659600D02*
X521500Y659600D01*
X544500Y659600D02*
X550500Y659600D01*
X559500Y659600D02*
X565500Y659600D01*
X588500Y659600D02*
X594500Y659600D01*
X615500Y659600D02*
X621500Y659600D01*
X910500Y659600D02*
X914500Y659600D01*
X933500Y659600D02*
X938500Y659600D01*
X138500Y658600D02*
X219500Y658600D01*
X338500Y658600D02*
X344500Y658600D01*
X365500Y658600D02*
X371500Y658600D01*
X385500Y658600D02*
X398500Y658600D01*
X410500Y658600D02*
X424500Y658600D01*
X439500Y658600D02*
X445500Y658600D01*
X515500Y658600D02*
X521500Y658600D01*
X544500Y658600D02*
X550500Y658600D01*
X559500Y658600D02*
X565500Y658600D01*
X588500Y658600D02*
X594500Y658600D01*
X615500Y658600D02*
X621500Y658600D01*
X910500Y658600D02*
X914500Y658600D01*
X933500Y658600D02*
X938500Y658600D01*
X138500Y657600D02*
X219500Y657600D01*
X338500Y657600D02*
X344500Y657600D01*
X365500Y657600D02*
X371500Y657600D01*
X385500Y657600D02*
X399500Y657600D01*
X410500Y657600D02*
X424500Y657600D01*
X439500Y657600D02*
X445500Y657600D01*
X515500Y657600D02*
X521500Y657600D01*
X544500Y657600D02*
X550500Y657600D01*
X559500Y657600D02*
X565500Y657600D01*
X588500Y657600D02*
X594500Y657600D01*
X615500Y657600D02*
X621500Y657600D01*
X910500Y657600D02*
X914500Y657600D01*
X934500Y657600D02*
X937500Y657600D01*
X139500Y656600D02*
X218500Y656600D01*
X338500Y656600D02*
X344500Y656600D01*
X365500Y656600D02*
X371500Y656600D01*
X385500Y656600D02*
X391500Y656600D01*
X393500Y656600D02*
X399500Y656600D01*
X409500Y656600D02*
X416500Y656600D01*
X418500Y656600D02*
X424500Y656600D01*
X439500Y656600D02*
X445500Y656600D01*
X515500Y656600D02*
X521500Y656600D01*
X544500Y656600D02*
X550500Y656600D01*
X559500Y656600D02*
X565500Y656600D01*
X588500Y656600D02*
X594500Y656600D01*
X615500Y656600D02*
X621500Y656600D01*
X910500Y656600D02*
X916500Y656600D01*
X934500Y656600D02*
X937500Y656600D01*
X139500Y655600D02*
X218500Y655600D01*
X338500Y655600D02*
X344500Y655600D01*
X365500Y655600D02*
X371500Y655600D01*
X385500Y655600D02*
X391500Y655600D01*
X393500Y655600D02*
X400500Y655600D01*
X409500Y655600D02*
X416500Y655600D01*
X418500Y655600D02*
X424500Y655600D01*
X439500Y655600D02*
X445500Y655600D01*
X515500Y655600D02*
X521500Y655600D01*
X544500Y655600D02*
X550500Y655600D01*
X559500Y655600D02*
X565500Y655600D01*
X588500Y655600D02*
X594500Y655600D01*
X615500Y655600D02*
X621500Y655600D01*
X911500Y655600D02*
X917500Y655600D01*
X935500Y655600D02*
X936500Y655600D01*
X139500Y654600D02*
X218500Y654600D01*
X338500Y654600D02*
X344500Y654600D01*
X365500Y654600D02*
X371500Y654600D01*
X385500Y654600D02*
X391500Y654600D01*
X394500Y654600D02*
X400500Y654600D01*
X408500Y654600D02*
X415500Y654600D01*
X418500Y654600D02*
X424500Y654600D01*
X439500Y654600D02*
X445500Y654600D01*
X515500Y654600D02*
X521500Y654600D01*
X544500Y654600D02*
X550500Y654600D01*
X559500Y654600D02*
X565500Y654600D01*
X588500Y654600D02*
X594500Y654600D01*
X615500Y654600D02*
X621500Y654600D01*
X911500Y654600D02*
X918500Y654600D01*
X139500Y653600D02*
X218500Y653600D01*
X338500Y653600D02*
X344500Y653600D01*
X365500Y653600D02*
X371500Y653600D01*
X385500Y653600D02*
X391500Y653600D01*
X394500Y653600D02*
X401500Y653600D01*
X408500Y653600D02*
X415500Y653600D01*
X418500Y653600D02*
X424500Y653600D01*
X439500Y653600D02*
X445500Y653600D01*
X515500Y653600D02*
X521500Y653600D01*
X544500Y653600D02*
X550500Y653600D01*
X559500Y653600D02*
X565500Y653600D01*
X588500Y653600D02*
X594500Y653600D01*
X615500Y653600D02*
X621500Y653600D01*
X912500Y653600D02*
X918500Y653600D01*
X47500Y652600D02*
X48500Y652600D01*
X62500Y652600D02*
X63500Y652600D01*
X138500Y652600D02*
X219500Y652600D01*
X338500Y652600D02*
X344500Y652600D01*
X365500Y652600D02*
X371500Y652600D01*
X385500Y652600D02*
X391500Y652600D01*
X395500Y652600D02*
X401500Y652600D01*
X408500Y652600D02*
X414500Y652600D01*
X418500Y652600D02*
X424500Y652600D01*
X439500Y652600D02*
X445500Y652600D01*
X515500Y652600D02*
X521500Y652600D01*
X544500Y652600D02*
X550500Y652600D01*
X559500Y652600D02*
X565500Y652600D01*
X588500Y652600D02*
X594500Y652600D01*
X615500Y652600D02*
X621500Y652600D01*
X914500Y652600D02*
X918500Y652600D01*
X47500Y651600D02*
X49500Y651600D01*
X61500Y651600D02*
X63500Y651600D01*
X138500Y651600D02*
X219500Y651600D01*
X338500Y651600D02*
X344500Y651600D01*
X365500Y651600D02*
X371500Y651600D01*
X385500Y651600D02*
X391500Y651600D01*
X395500Y651600D02*
X402500Y651600D01*
X407500Y651600D02*
X414500Y651600D01*
X418500Y651600D02*
X424500Y651600D01*
X439500Y651600D02*
X445500Y651600D01*
X515500Y651600D02*
X521500Y651600D01*
X544500Y651600D02*
X550500Y651600D01*
X559500Y651600D02*
X565500Y651600D01*
X588500Y651600D02*
X594500Y651600D01*
X615500Y651600D02*
X621500Y651600D01*
X915500Y651600D02*
X916500Y651600D01*
X47500Y650600D02*
X49500Y650600D01*
X61500Y650600D02*
X63500Y650600D01*
X137500Y650600D02*
X220500Y650600D01*
X338500Y650600D02*
X344500Y650600D01*
X364500Y650600D02*
X371500Y650600D01*
X385500Y650600D02*
X391500Y650600D01*
X396500Y650600D02*
X402500Y650600D01*
X407500Y650600D02*
X413500Y650600D01*
X418500Y650600D02*
X424500Y650600D01*
X439500Y650600D02*
X445500Y650600D01*
X515500Y650600D02*
X521500Y650600D01*
X544500Y650600D02*
X550500Y650600D01*
X559500Y650600D02*
X565500Y650600D01*
X588500Y650600D02*
X594500Y650600D01*
X615500Y650600D02*
X621500Y650600D01*
X47500Y649600D02*
X49500Y649600D01*
X61500Y649600D02*
X63500Y649600D01*
X137500Y649600D02*
X220500Y649600D01*
X338500Y649600D02*
X344500Y649600D01*
X364500Y649600D02*
X371500Y649600D01*
X385500Y649600D02*
X391500Y649600D01*
X396500Y649600D02*
X403500Y649600D01*
X406500Y649600D02*
X413500Y649600D01*
X418500Y649600D02*
X424500Y649600D01*
X439500Y649600D02*
X445500Y649600D01*
X515500Y649600D02*
X521500Y649600D01*
X544500Y649600D02*
X550500Y649600D01*
X559500Y649600D02*
X565500Y649600D01*
X588500Y649600D02*
X594500Y649600D01*
X615500Y649600D02*
X621500Y649600D01*
X47500Y648600D02*
X49500Y648600D01*
X61500Y648600D02*
X63500Y648600D01*
X136500Y648600D02*
X173500Y648600D01*
X184500Y648600D02*
X221500Y648600D01*
X338500Y648600D02*
X344500Y648600D01*
X363500Y648600D02*
X370500Y648600D01*
X385500Y648600D02*
X391500Y648600D01*
X396500Y648600D02*
X403500Y648600D01*
X406500Y648600D02*
X412500Y648600D01*
X418500Y648600D02*
X424500Y648600D01*
X439500Y648600D02*
X445500Y648600D01*
X515500Y648600D02*
X521500Y648600D01*
X544500Y648600D02*
X550500Y648600D01*
X559500Y648600D02*
X565500Y648600D01*
X588500Y648600D02*
X594500Y648600D01*
X615500Y648600D02*
X621500Y648600D01*
X836500Y648600D02*
X853500Y648600D01*
X47500Y647600D02*
X49500Y647600D01*
X61500Y647600D02*
X63500Y647600D01*
X136500Y647600D02*
X170500Y647600D01*
X187500Y647600D02*
X221500Y647600D01*
X338500Y647600D02*
X344500Y647600D01*
X361500Y647600D02*
X370500Y647600D01*
X385500Y647600D02*
X391500Y647600D01*
X397500Y647600D02*
X412500Y647600D01*
X418500Y647600D02*
X424500Y647600D01*
X439500Y647600D02*
X445500Y647600D01*
X515500Y647600D02*
X521500Y647600D01*
X544500Y647600D02*
X550500Y647600D01*
X559500Y647600D02*
X565500Y647600D01*
X588500Y647600D02*
X594500Y647600D01*
X615500Y647600D02*
X621500Y647600D01*
X834500Y647600D02*
X854500Y647600D01*
X47500Y646600D02*
X49500Y646600D01*
X61500Y646600D02*
X63500Y646600D01*
X136500Y646600D02*
X169500Y646600D01*
X188500Y646600D02*
X221500Y646600D01*
X338500Y646600D02*
X369500Y646600D01*
X385500Y646600D02*
X391500Y646600D01*
X397500Y646600D02*
X411500Y646600D01*
X418500Y646600D02*
X424500Y646600D01*
X439500Y646600D02*
X457500Y646600D01*
X493500Y646600D02*
X521500Y646600D01*
X542500Y646600D02*
X567500Y646600D01*
X588500Y646600D02*
X594500Y646600D01*
X615500Y646600D02*
X621500Y646600D01*
X833500Y646600D02*
X855500Y646600D01*
X47500Y645600D02*
X49500Y645600D01*
X61500Y645600D02*
X63500Y645600D01*
X135500Y645600D02*
X167500Y645600D01*
X190500Y645600D02*
X222500Y645600D01*
X338500Y645600D02*
X369500Y645600D01*
X385500Y645600D02*
X391500Y645600D01*
X398500Y645600D02*
X411500Y645600D01*
X418500Y645600D02*
X424500Y645600D01*
X439500Y645600D02*
X458500Y645600D01*
X491500Y645600D02*
X521500Y645600D01*
X540500Y645600D02*
X569500Y645600D01*
X588500Y645600D02*
X594500Y645600D01*
X615500Y645600D02*
X621500Y645600D01*
X832500Y645600D02*
X856500Y645600D01*
X47500Y644600D02*
X49500Y644600D01*
X61500Y644600D02*
X63500Y644600D01*
X135500Y644600D02*
X166500Y644600D01*
X191500Y644600D02*
X222500Y644600D01*
X338500Y644600D02*
X368500Y644600D01*
X385500Y644600D02*
X391500Y644600D01*
X398500Y644600D02*
X410500Y644600D01*
X418500Y644600D02*
X424500Y644600D01*
X439500Y644600D02*
X459500Y644600D01*
X490500Y644600D02*
X521500Y644600D01*
X539500Y644600D02*
X570500Y644600D01*
X588500Y644600D02*
X594500Y644600D01*
X615500Y644600D02*
X621500Y644600D01*
X832500Y644600D02*
X857500Y644600D01*
X47500Y643600D02*
X50500Y643600D01*
X61500Y643600D02*
X63500Y643600D01*
X132500Y643600D02*
X165500Y643600D01*
X192500Y643600D02*
X225500Y643600D01*
X338500Y643600D02*
X367500Y643600D01*
X385500Y643600D02*
X391500Y643600D01*
X399500Y643600D02*
X410500Y643600D01*
X418500Y643600D02*
X424500Y643600D01*
X439500Y643600D02*
X459500Y643600D01*
X489500Y643600D02*
X520500Y643600D01*
X539500Y643600D02*
X570500Y643600D01*
X588500Y643600D02*
X594500Y643600D01*
X615500Y643600D02*
X621500Y643600D01*
X831500Y643600D02*
X837500Y643600D01*
X852500Y643600D02*
X858500Y643600D01*
X47500Y642600D02*
X50500Y642600D01*
X60500Y642600D02*
X63500Y642600D01*
X127500Y642600D02*
X165500Y642600D01*
X193500Y642600D02*
X230500Y642600D01*
X338500Y642600D02*
X367500Y642600D01*
X385500Y642600D02*
X391500Y642600D01*
X399500Y642600D02*
X409500Y642600D01*
X418500Y642600D02*
X424500Y642600D01*
X439500Y642600D02*
X459500Y642600D01*
X488500Y642600D02*
X520500Y642600D01*
X538500Y642600D02*
X571500Y642600D01*
X588500Y642600D02*
X594500Y642600D01*
X615500Y642600D02*
X621500Y642600D01*
X830500Y642600D02*
X836500Y642600D01*
X853500Y642600D02*
X858500Y642600D01*
X48500Y641600D02*
X51500Y641600D01*
X59500Y641600D02*
X62500Y641600D01*
X121500Y641600D02*
X164500Y641600D01*
X193500Y641600D02*
X236500Y641600D01*
X338500Y641600D02*
X368500Y641600D01*
X385500Y641600D02*
X391500Y641600D01*
X400500Y641600D02*
X409500Y641600D01*
X418500Y641600D02*
X424500Y641600D01*
X439500Y641600D02*
X459500Y641600D01*
X488500Y641600D02*
X519500Y641600D01*
X538500Y641600D02*
X571500Y641600D01*
X588500Y641600D02*
X594500Y641600D01*
X615500Y641600D02*
X621500Y641600D01*
X830500Y641600D02*
X835500Y641600D01*
X854500Y641600D02*
X859500Y641600D01*
X49500Y640600D02*
X61500Y640600D01*
X118500Y640600D02*
X163500Y640600D01*
X194500Y640600D02*
X239500Y640600D01*
X338500Y640600D02*
X369500Y640600D01*
X385500Y640600D02*
X391500Y640600D01*
X400500Y640600D02*
X408500Y640600D01*
X418500Y640600D02*
X424500Y640600D01*
X439500Y640600D02*
X458500Y640600D01*
X488500Y640600D02*
X517500Y640600D01*
X538500Y640600D02*
X571500Y640600D01*
X588500Y640600D02*
X594500Y640600D01*
X615500Y640600D02*
X621500Y640600D01*
X830500Y640600D02*
X834500Y640600D01*
X854500Y640600D02*
X859500Y640600D01*
X50500Y639600D02*
X60500Y639600D01*
X118500Y639600D02*
X163500Y639600D01*
X194500Y639600D02*
X239500Y639600D01*
X338500Y639600D02*
X344500Y639600D01*
X360500Y639600D02*
X369500Y639600D01*
X385500Y639600D02*
X391500Y639600D01*
X401500Y639600D02*
X408500Y639600D01*
X418500Y639600D02*
X424500Y639600D01*
X439500Y639600D02*
X445500Y639600D01*
X488500Y639600D02*
X494500Y639600D01*
X538500Y639600D02*
X544500Y639600D01*
X565500Y639600D02*
X571500Y639600D01*
X588500Y639600D02*
X594500Y639600D01*
X615500Y639600D02*
X621500Y639600D01*
X830500Y639600D02*
X834500Y639600D01*
X855500Y639600D02*
X859500Y639600D01*
X911500Y639600D02*
X947500Y639600D01*
X51500Y638600D02*
X59500Y638600D01*
X118500Y638600D02*
X162500Y638600D01*
X195500Y638600D02*
X239500Y638600D01*
X338500Y638600D02*
X344500Y638600D01*
X362500Y638600D02*
X370500Y638600D01*
X385500Y638600D02*
X391500Y638600D01*
X401500Y638600D02*
X408500Y638600D01*
X418500Y638600D02*
X424500Y638600D01*
X439500Y638600D02*
X445500Y638600D01*
X488500Y638600D02*
X494500Y638600D01*
X538500Y638600D02*
X544500Y638600D01*
X565500Y638600D02*
X571500Y638600D01*
X588500Y638600D02*
X594500Y638600D01*
X615500Y638600D02*
X621500Y638600D01*
X830500Y638600D02*
X834500Y638600D01*
X855500Y638600D02*
X859500Y638600D01*
X910500Y638600D02*
X948500Y638600D01*
X118500Y637600D02*
X162500Y637600D01*
X195500Y637600D02*
X239500Y637600D01*
X338500Y637600D02*
X344500Y637600D01*
X363500Y637600D02*
X370500Y637600D01*
X385500Y637600D02*
X391500Y637600D01*
X402500Y637600D02*
X407500Y637600D01*
X418500Y637600D02*
X424500Y637600D01*
X439500Y637600D02*
X445500Y637600D01*
X488500Y637600D02*
X494500Y637600D01*
X538500Y637600D02*
X544500Y637600D01*
X565500Y637600D02*
X571500Y637600D01*
X588500Y637600D02*
X594500Y637600D01*
X615500Y637600D02*
X621500Y637600D01*
X830500Y637600D02*
X834500Y637600D01*
X855500Y637600D02*
X859500Y637600D01*
X910500Y637600D02*
X948500Y637600D01*
X118500Y636600D02*
X162500Y636600D01*
X195500Y636600D02*
X239500Y636600D01*
X338500Y636600D02*
X344500Y636600D01*
X364500Y636600D02*
X371500Y636600D01*
X385500Y636600D02*
X391500Y636600D01*
X402500Y636600D02*
X406500Y636600D01*
X418500Y636600D02*
X424500Y636600D01*
X439500Y636600D02*
X445500Y636600D01*
X488500Y636600D02*
X494500Y636600D01*
X538500Y636600D02*
X544500Y636600D01*
X565500Y636600D02*
X571500Y636600D01*
X588500Y636600D02*
X594500Y636600D01*
X615500Y636600D02*
X621500Y636600D01*
X830500Y636600D02*
X834500Y636600D01*
X855500Y636600D02*
X859500Y636600D01*
X910500Y636600D02*
X948500Y636600D01*
X118500Y635600D02*
X161500Y635600D01*
X196500Y635600D02*
X239500Y635600D01*
X338500Y635600D02*
X344500Y635600D01*
X365500Y635600D02*
X371500Y635600D01*
X385500Y635600D02*
X391500Y635600D01*
X403500Y635600D02*
X405500Y635600D01*
X418500Y635600D02*
X424500Y635600D01*
X439500Y635600D02*
X445500Y635600D01*
X488500Y635600D02*
X494500Y635600D01*
X538500Y635600D02*
X544500Y635600D01*
X565500Y635600D02*
X571500Y635600D01*
X588500Y635600D02*
X594500Y635600D01*
X615500Y635600D02*
X621500Y635600D01*
X830500Y635600D02*
X834500Y635600D01*
X855500Y635600D02*
X859500Y635600D01*
X911500Y635600D02*
X947500Y635600D01*
X118500Y634600D02*
X161500Y634600D01*
X196500Y634600D02*
X239500Y634600D01*
X338500Y634600D02*
X344500Y634600D01*
X365500Y634600D02*
X371500Y634600D01*
X385500Y634600D02*
X391500Y634600D01*
X418500Y634600D02*
X424500Y634600D01*
X439500Y634600D02*
X445500Y634600D01*
X488500Y634600D02*
X494500Y634600D01*
X538500Y634600D02*
X544500Y634600D01*
X565500Y634600D02*
X571500Y634600D01*
X588500Y634600D02*
X594500Y634600D01*
X615500Y634600D02*
X621500Y634600D01*
X830500Y634600D02*
X834500Y634600D01*
X855500Y634600D02*
X859500Y634600D01*
X928500Y634600D02*
X934500Y634600D01*
X118500Y633600D02*
X161500Y633600D01*
X196500Y633600D02*
X239500Y633600D01*
X338500Y633600D02*
X344500Y633600D01*
X365500Y633600D02*
X371500Y633600D01*
X385500Y633600D02*
X391500Y633600D01*
X418500Y633600D02*
X424500Y633600D01*
X439500Y633600D02*
X445500Y633600D01*
X488500Y633600D02*
X494500Y633600D01*
X538500Y633600D02*
X544500Y633600D01*
X565500Y633600D02*
X571500Y633600D01*
X588500Y633600D02*
X594500Y633600D01*
X615500Y633600D02*
X621500Y633600D01*
X830500Y633600D02*
X834500Y633600D01*
X855500Y633600D02*
X859500Y633600D01*
X929500Y633600D02*
X934500Y633600D01*
X118500Y632600D02*
X161500Y632600D01*
X196500Y632600D02*
X239500Y632600D01*
X338500Y632600D02*
X344500Y632600D01*
X365500Y632600D02*
X371500Y632600D01*
X385500Y632600D02*
X391500Y632600D01*
X418500Y632600D02*
X424500Y632600D01*
X439500Y632600D02*
X445500Y632600D01*
X488500Y632600D02*
X494500Y632600D01*
X538500Y632600D02*
X544500Y632600D01*
X565500Y632600D02*
X571500Y632600D01*
X588500Y632600D02*
X594500Y632600D01*
X615500Y632600D02*
X621500Y632600D01*
X830500Y632600D02*
X834500Y632600D01*
X854500Y632600D02*
X859500Y632600D01*
X930500Y632600D02*
X935500Y632600D01*
X118500Y631600D02*
X161500Y631600D01*
X196500Y631600D02*
X239500Y631600D01*
X338500Y631600D02*
X344500Y631600D01*
X365500Y631600D02*
X371500Y631600D01*
X385500Y631600D02*
X391500Y631600D01*
X418500Y631600D02*
X424500Y631600D01*
X439500Y631600D02*
X445500Y631600D01*
X488500Y631600D02*
X494500Y631600D01*
X538500Y631600D02*
X544500Y631600D01*
X565500Y631600D02*
X571500Y631600D01*
X588500Y631600D02*
X594500Y631600D01*
X615500Y631600D02*
X621500Y631600D01*
X830500Y631600D02*
X835500Y631600D01*
X854500Y631600D02*
X859500Y631600D01*
X930500Y631600D02*
X935500Y631600D01*
X43500Y630600D02*
X44500Y630600D01*
X60500Y630600D02*
X61500Y630600D01*
X118500Y630600D02*
X161500Y630600D01*
X196500Y630600D02*
X239500Y630600D01*
X338500Y630600D02*
X344500Y630600D01*
X365500Y630600D02*
X371500Y630600D01*
X385500Y630600D02*
X391500Y630600D01*
X418500Y630600D02*
X424500Y630600D01*
X439500Y630600D02*
X445500Y630600D01*
X488500Y630600D02*
X494500Y630600D01*
X538500Y630600D02*
X544500Y630600D01*
X565500Y630600D02*
X571500Y630600D01*
X588500Y630600D02*
X594500Y630600D01*
X615500Y630600D02*
X621500Y630600D01*
X830500Y630600D02*
X835500Y630600D01*
X854500Y630600D02*
X859500Y630600D01*
X931500Y630600D02*
X936500Y630600D01*
X42500Y629600D02*
X45500Y629600D01*
X58500Y629600D02*
X62500Y629600D01*
X118500Y629600D02*
X161500Y629600D01*
X196500Y629600D02*
X239500Y629600D01*
X338500Y629600D02*
X344500Y629600D01*
X365500Y629600D02*
X371500Y629600D01*
X385500Y629600D02*
X391500Y629600D01*
X418500Y629600D02*
X424500Y629600D01*
X439500Y629600D02*
X445500Y629600D01*
X488500Y629600D02*
X494500Y629600D01*
X538500Y629600D02*
X544500Y629600D01*
X565500Y629600D02*
X571500Y629600D01*
X588500Y629600D02*
X594500Y629600D01*
X615500Y629600D02*
X621500Y629600D01*
X831500Y629600D02*
X836500Y629600D01*
X853500Y629600D02*
X858500Y629600D01*
X932500Y629600D02*
X937500Y629600D01*
X41500Y628600D02*
X45500Y628600D01*
X57500Y628600D02*
X63500Y628600D01*
X118500Y628600D02*
X162500Y628600D01*
X195500Y628600D02*
X239500Y628600D01*
X338500Y628600D02*
X344500Y628600D01*
X365500Y628600D02*
X371500Y628600D01*
X385500Y628600D02*
X391500Y628600D01*
X418500Y628600D02*
X424500Y628600D01*
X439500Y628600D02*
X445500Y628600D01*
X488500Y628600D02*
X494500Y628600D01*
X538500Y628600D02*
X544500Y628600D01*
X565500Y628600D02*
X571500Y628600D01*
X588500Y628600D02*
X594500Y628600D01*
X615500Y628600D02*
X621500Y628600D01*
X831500Y628600D02*
X838500Y628600D01*
X851500Y628600D02*
X858500Y628600D01*
X932500Y628600D02*
X937500Y628600D01*
X40500Y627600D02*
X43500Y627600D01*
X55500Y627600D02*
X63500Y627600D01*
X118500Y627600D02*
X162500Y627600D01*
X195500Y627600D02*
X239500Y627600D01*
X338500Y627600D02*
X344500Y627600D01*
X365500Y627600D02*
X371500Y627600D01*
X385500Y627600D02*
X391500Y627600D01*
X418500Y627600D02*
X424500Y627600D01*
X439500Y627600D02*
X445500Y627600D01*
X488500Y627600D02*
X494500Y627600D01*
X538500Y627600D02*
X544500Y627600D01*
X565500Y627600D02*
X571500Y627600D01*
X588500Y627600D02*
X594500Y627600D01*
X615500Y627600D02*
X621500Y627600D01*
X832500Y627600D02*
X857500Y627600D01*
X933500Y627600D02*
X937500Y627600D01*
X40500Y626600D02*
X42500Y626600D01*
X54500Y626600D02*
X58500Y626600D01*
X61500Y626600D02*
X63500Y626600D01*
X118500Y626600D02*
X162500Y626600D01*
X195500Y626600D02*
X239500Y626600D01*
X338500Y626600D02*
X344500Y626600D01*
X364500Y626600D02*
X371500Y626600D01*
X385500Y626600D02*
X391500Y626600D01*
X418500Y626600D02*
X424500Y626600D01*
X439500Y626600D02*
X445500Y626600D01*
X488500Y626600D02*
X494500Y626600D01*
X538500Y626600D02*
X544500Y626600D01*
X565500Y626600D02*
X571500Y626600D01*
X588500Y626600D02*
X594500Y626600D01*
X615500Y626600D02*
X621500Y626600D01*
X833500Y626600D02*
X856500Y626600D01*
X933500Y626600D02*
X937500Y626600D01*
X40500Y625600D02*
X42500Y625600D01*
X53500Y625600D02*
X57500Y625600D01*
X61500Y625600D02*
X63500Y625600D01*
X118500Y625600D02*
X163500Y625600D01*
X194500Y625600D02*
X239500Y625600D01*
X338500Y625600D02*
X344500Y625600D01*
X363500Y625600D02*
X370500Y625600D01*
X385500Y625600D02*
X391500Y625600D01*
X418500Y625600D02*
X424500Y625600D01*
X439500Y625600D02*
X445500Y625600D01*
X488500Y625600D02*
X494500Y625600D01*
X538500Y625600D02*
X544500Y625600D01*
X565500Y625600D02*
X571500Y625600D01*
X588500Y625600D02*
X594500Y625600D01*
X615500Y625600D02*
X621500Y625600D01*
X834500Y625600D02*
X855500Y625600D01*
X933500Y625600D02*
X938500Y625600D01*
X40500Y624600D02*
X42500Y624600D01*
X52500Y624600D02*
X56500Y624600D01*
X61500Y624600D02*
X63500Y624600D01*
X118500Y624600D02*
X163500Y624600D01*
X194500Y624600D02*
X239500Y624600D01*
X338500Y624600D02*
X344500Y624600D01*
X362500Y624600D02*
X370500Y624600D01*
X385500Y624600D02*
X391500Y624600D01*
X418500Y624600D02*
X424500Y624600D01*
X439500Y624600D02*
X445500Y624600D01*
X488500Y624600D02*
X494500Y624600D01*
X538500Y624600D02*
X544500Y624600D01*
X565500Y624600D02*
X571500Y624600D01*
X588500Y624600D02*
X594500Y624600D01*
X615500Y624600D02*
X621500Y624600D01*
X835500Y624600D02*
X854500Y624600D01*
X933500Y624600D02*
X938500Y624600D01*
X40500Y623600D02*
X42500Y623600D01*
X50500Y623600D02*
X54500Y623600D01*
X61500Y623600D02*
X63500Y623600D01*
X122500Y623600D02*
X164500Y623600D01*
X193500Y623600D02*
X235500Y623600D01*
X338500Y623600D02*
X344500Y623600D01*
X360500Y623600D02*
X369500Y623600D01*
X385500Y623600D02*
X391500Y623600D01*
X418500Y623600D02*
X424500Y623600D01*
X439500Y623600D02*
X445500Y623600D01*
X488500Y623600D02*
X494500Y623600D01*
X538500Y623600D02*
X544500Y623600D01*
X565500Y623600D02*
X571500Y623600D01*
X588500Y623600D02*
X594500Y623600D01*
X615500Y623600D02*
X621500Y623600D01*
X837500Y623600D02*
X852500Y623600D01*
X933500Y623600D02*
X938500Y623600D01*
X40500Y622600D02*
X42500Y622600D01*
X49500Y622600D02*
X53500Y622600D01*
X61500Y622600D02*
X63500Y622600D01*
X127500Y622600D02*
X164500Y622600D01*
X193500Y622600D02*
X230500Y622600D01*
X338500Y622600D02*
X369500Y622600D01*
X385500Y622600D02*
X391500Y622600D01*
X418500Y622600D02*
X424500Y622600D01*
X439500Y622600D02*
X469500Y622600D01*
X488500Y622600D02*
X520500Y622600D01*
X538500Y622600D02*
X571500Y622600D01*
X588500Y622600D02*
X621500Y622600D01*
X933500Y622600D02*
X937500Y622600D01*
X40500Y621600D02*
X42500Y621600D01*
X48500Y621600D02*
X52500Y621600D01*
X61500Y621600D02*
X63500Y621600D01*
X133500Y621600D02*
X165500Y621600D01*
X192500Y621600D02*
X225500Y621600D01*
X338500Y621600D02*
X368500Y621600D01*
X385500Y621600D02*
X391500Y621600D01*
X418500Y621600D02*
X424500Y621600D01*
X439500Y621600D02*
X470500Y621600D01*
X488500Y621600D02*
X521500Y621600D01*
X538500Y621600D02*
X571500Y621600D01*
X588500Y621600D02*
X621500Y621600D01*
X933500Y621600D02*
X937500Y621600D01*
X40500Y620600D02*
X42500Y620600D01*
X46500Y620600D02*
X51500Y620600D01*
X61500Y620600D02*
X63500Y620600D01*
X134500Y620600D02*
X166500Y620600D01*
X191500Y620600D02*
X223500Y620600D01*
X338500Y620600D02*
X367500Y620600D01*
X385500Y620600D02*
X391500Y620600D01*
X418500Y620600D02*
X424500Y620600D01*
X439500Y620600D02*
X470500Y620600D01*
X488500Y620600D02*
X521500Y620600D01*
X538500Y620600D02*
X571500Y620600D01*
X588500Y620600D02*
X621500Y620600D01*
X928500Y620600D02*
X937500Y620600D01*
X40500Y619600D02*
X42500Y619600D01*
X45500Y619600D02*
X49500Y619600D01*
X61500Y619600D02*
X63500Y619600D01*
X135500Y619600D02*
X167500Y619600D01*
X190500Y619600D02*
X222500Y619600D01*
X338500Y619600D02*
X366500Y619600D01*
X385500Y619600D02*
X391500Y619600D01*
X418500Y619600D02*
X424500Y619600D01*
X439500Y619600D02*
X470500Y619600D01*
X488500Y619600D02*
X521500Y619600D01*
X539500Y619600D02*
X570500Y619600D01*
X589500Y619600D02*
X620500Y619600D01*
X911500Y619600D02*
X937500Y619600D01*
X40500Y618600D02*
X48500Y618600D01*
X60500Y618600D02*
X63500Y618600D01*
X135500Y618600D02*
X169500Y618600D01*
X189500Y618600D02*
X222500Y618600D01*
X338500Y618600D02*
X365500Y618600D01*
X385500Y618600D02*
X390500Y618600D01*
X418500Y618600D02*
X424500Y618600D01*
X439500Y618600D02*
X470500Y618600D01*
X488500Y618600D02*
X521500Y618600D01*
X540500Y618600D02*
X569500Y618600D01*
X590500Y618600D02*
X619500Y618600D01*
X910500Y618600D02*
X936500Y618600D01*
X41500Y617600D02*
X47500Y617600D01*
X59500Y617600D02*
X63500Y617600D01*
X136500Y617600D02*
X170500Y617600D01*
X187500Y617600D02*
X221500Y617600D01*
X338500Y617600D02*
X363500Y617600D01*
X386500Y617600D02*
X390500Y617600D01*
X419500Y617600D02*
X423500Y617600D01*
X439500Y617600D02*
X469500Y617600D01*
X488500Y617600D02*
X520500Y617600D01*
X541500Y617600D02*
X568500Y617600D01*
X591500Y617600D02*
X618500Y617600D01*
X910500Y617600D02*
X935500Y617600D01*
X41500Y616600D02*
X45500Y616600D01*
X59500Y616600D02*
X62500Y616600D01*
X136500Y616600D02*
X171500Y616600D01*
X186500Y616600D02*
X221500Y616600D01*
X338500Y616600D02*
X360500Y616600D01*
X387500Y616600D02*
X389500Y616600D01*
X420500Y616600D02*
X422500Y616600D01*
X439500Y616600D02*
X468500Y616600D01*
X488500Y616600D02*
X519500Y616600D01*
X543500Y616600D02*
X566500Y616600D01*
X593500Y616600D02*
X616500Y616600D01*
X910500Y616600D02*
X934500Y616600D01*
X43500Y615600D02*
X44500Y615600D01*
X60500Y615600D02*
X60500Y615600D01*
X136500Y615600D02*
X171500Y615600D01*
X186500Y615600D02*
X221500Y615600D01*
X911500Y615600D02*
X930500Y615600D01*
X137500Y614600D02*
X171500Y614600D01*
X186500Y614600D02*
X220500Y614600D01*
X137500Y613600D02*
X171500Y613600D01*
X187500Y613600D02*
X220500Y613600D01*
X138500Y612600D02*
X170500Y612600D01*
X187500Y612600D02*
X219500Y612600D01*
X138500Y611600D02*
X170500Y611600D01*
X187500Y611600D02*
X219500Y611600D01*
X138500Y610600D02*
X169500Y610600D01*
X188500Y610600D02*
X219500Y610600D01*
X831500Y610600D02*
X857500Y610600D01*
X139500Y609600D02*
X169500Y609600D01*
X188500Y609600D02*
X218500Y609600D01*
X830500Y609600D02*
X859500Y609600D01*
X139500Y608600D02*
X168500Y608600D01*
X189500Y608600D02*
X218500Y608600D01*
X830500Y608600D02*
X859500Y608600D01*
X138500Y607600D02*
X168500Y607600D01*
X189500Y607600D02*
X219500Y607600D01*
X830500Y607600D02*
X859500Y607600D01*
X138500Y606600D02*
X168500Y606600D01*
X189500Y606600D02*
X219500Y606600D01*
X830500Y606600D02*
X858500Y606600D01*
X137500Y605600D02*
X167500Y605600D01*
X190500Y605600D02*
X220500Y605600D01*
X833500Y605600D02*
X856500Y605600D01*
X136500Y604600D02*
X167500Y604600D01*
X190500Y604600D02*
X221500Y604600D01*
X850500Y604600D02*
X855500Y604600D01*
X136500Y603600D02*
X166500Y603600D01*
X191500Y603600D02*
X221500Y603600D01*
X850500Y603600D02*
X856500Y603600D01*
X918500Y603600D02*
X929500Y603600D01*
X135500Y602600D02*
X166500Y602600D01*
X191500Y602600D02*
X222500Y602600D01*
X851500Y602600D02*
X856500Y602600D01*
X915500Y602600D02*
X932500Y602600D01*
X134500Y601600D02*
X166500Y601600D01*
X192500Y601600D02*
X223500Y601600D01*
X852500Y601600D02*
X857500Y601600D01*
X914500Y601600D02*
X934500Y601600D01*
X134500Y600600D02*
X165500Y600600D01*
X192500Y600600D02*
X224500Y600600D01*
X852500Y600600D02*
X858500Y600600D01*
X913500Y600600D02*
X935500Y600600D01*
X133500Y599600D02*
X165500Y599600D01*
X192500Y599600D02*
X224500Y599600D01*
X853500Y599600D02*
X858500Y599600D01*
X912500Y599600D02*
X935500Y599600D01*
X132500Y598600D02*
X164500Y598600D01*
X193500Y598600D02*
X225500Y598600D01*
X853500Y598600D02*
X859500Y598600D01*
X911500Y598600D02*
X936500Y598600D01*
X132500Y597600D02*
X164500Y597600D01*
X193500Y597600D02*
X226500Y597600D01*
X854500Y597600D02*
X859500Y597600D01*
X911500Y597600D02*
X916500Y597600D01*
X922500Y597600D02*
X926500Y597600D01*
X931500Y597600D02*
X937500Y597600D01*
X131500Y596600D02*
X163500Y596600D01*
X194500Y596600D02*
X226500Y596600D01*
X855500Y596600D02*
X859500Y596600D01*
X910500Y596600D02*
X915500Y596600D01*
X922500Y596600D02*
X926500Y596600D01*
X932500Y596600D02*
X937500Y596600D01*
X131500Y595600D02*
X163500Y595600D01*
X194500Y595600D02*
X227500Y595600D01*
X855500Y595600D02*
X859500Y595600D01*
X910500Y595600D02*
X914500Y595600D01*
X922500Y595600D02*
X926500Y595600D01*
X933500Y595600D02*
X937500Y595600D01*
X131500Y594600D02*
X163500Y594600D01*
X194500Y594600D02*
X226500Y594600D01*
X855500Y594600D02*
X859500Y594600D01*
X910500Y594600D02*
X914500Y594600D01*
X922500Y594600D02*
X926500Y594600D01*
X933500Y594600D02*
X938500Y594600D01*
X132500Y593600D02*
X162500Y593600D01*
X195500Y593600D02*
X225500Y593600D01*
X855500Y593600D02*
X859500Y593600D01*
X910500Y593600D02*
X914500Y593600D01*
X922500Y593600D02*
X926500Y593600D01*
X933500Y593600D02*
X938500Y593600D01*
X133500Y592600D02*
X162500Y592600D01*
X195500Y592600D02*
X224500Y592600D01*
X854500Y592600D02*
X859500Y592600D01*
X910500Y592600D02*
X914500Y592600D01*
X922500Y592600D02*
X926500Y592600D01*
X933500Y592600D02*
X938500Y592600D01*
X134500Y591600D02*
X153500Y591600D01*
X157500Y591600D02*
X161500Y591600D01*
X196500Y591600D02*
X200500Y591600D01*
X205500Y591600D02*
X223500Y591600D01*
X854500Y591600D02*
X859500Y591600D01*
X910500Y591600D02*
X914500Y591600D01*
X922500Y591600D02*
X926500Y591600D01*
X933500Y591600D02*
X938500Y591600D01*
X135500Y590600D02*
X151500Y590600D01*
X159500Y590600D02*
X161500Y590600D01*
X196500Y590600D02*
X198500Y590600D01*
X206500Y590600D02*
X222500Y590600D01*
X852500Y590600D02*
X859500Y590600D01*
X910500Y590600D02*
X914500Y590600D01*
X922500Y590600D02*
X926500Y590600D01*
X933500Y590600D02*
X938500Y590600D01*
X136500Y589600D02*
X150500Y589600D01*
X208500Y589600D02*
X221500Y589600D01*
X830500Y589600D02*
X858500Y589600D01*
X910500Y589600D02*
X914500Y589600D01*
X922500Y589600D02*
X926500Y589600D01*
X933500Y589600D02*
X938500Y589600D01*
X137500Y588600D02*
X148500Y588600D01*
X209500Y588600D02*
X220500Y588600D01*
X830500Y588600D02*
X858500Y588600D01*
X910500Y588600D02*
X914500Y588600D01*
X922500Y588600D02*
X926500Y588600D01*
X933500Y588600D02*
X938500Y588600D01*
X138500Y587600D02*
X147500Y587600D01*
X210500Y587600D02*
X219500Y587600D01*
X830500Y587600D02*
X857500Y587600D01*
X910500Y587600D02*
X914500Y587600D01*
X922500Y587600D02*
X926500Y587600D01*
X933500Y587600D02*
X938500Y587600D01*
X139500Y586600D02*
X145500Y586600D01*
X212500Y586600D02*
X218500Y586600D01*
X830500Y586600D02*
X856500Y586600D01*
X910500Y586600D02*
X914500Y586600D01*
X922500Y586600D02*
X926500Y586600D01*
X933500Y586600D02*
X937500Y586600D01*
X140500Y585600D02*
X144500Y585600D01*
X213500Y585600D02*
X217500Y585600D01*
X831500Y585600D02*
X854500Y585600D01*
X910500Y585600D02*
X914500Y585600D01*
X922500Y585600D02*
X926500Y585600D01*
X932500Y585600D02*
X937500Y585600D01*
X62500Y584600D02*
X63500Y584600D01*
X141500Y584600D02*
X142500Y584600D01*
X215500Y584600D02*
X216500Y584600D01*
X910500Y584600D02*
X914500Y584600D01*
X922500Y584600D02*
X926500Y584600D01*
X931500Y584600D02*
X937500Y584600D01*
X61500Y583600D02*
X63500Y583600D01*
X910500Y583600D02*
X914500Y583600D01*
X922500Y583600D02*
X926500Y583600D01*
X929500Y583600D02*
X936500Y583600D01*
X61500Y582600D02*
X63500Y582600D01*
X910500Y582600D02*
X914500Y582600D01*
X922500Y582600D02*
X935500Y582600D01*
X61500Y581600D02*
X63500Y581600D01*
X910500Y581600D02*
X914500Y581600D01*
X922500Y581600D02*
X935500Y581600D01*
X61500Y580600D02*
X63500Y580600D01*
X910500Y580600D02*
X914500Y580600D01*
X922500Y580600D02*
X934500Y580600D01*
X41500Y579600D02*
X63500Y579600D01*
X910500Y579600D02*
X913500Y579600D01*
X922500Y579600D02*
X932500Y579600D01*
X40500Y578600D02*
X63500Y578600D01*
X912500Y578600D02*
X912500Y578600D01*
X923500Y578600D02*
X929500Y578600D01*
X40500Y577600D02*
X63500Y577600D01*
X40500Y576600D02*
X42500Y576600D01*
X61500Y576600D02*
X63500Y576600D01*
X40500Y575600D02*
X42500Y575600D01*
X61500Y575600D02*
X63500Y575600D01*
X40500Y574600D02*
X42500Y574600D01*
X61500Y574600D02*
X63500Y574600D01*
X41500Y573600D02*
X42500Y573600D01*
X61500Y573600D02*
X63500Y573600D01*
X106500Y571600D02*
X108500Y571600D01*
X124500Y571600D02*
X125500Y571600D01*
X138500Y571600D02*
X139500Y571600D01*
X155500Y571600D02*
X156500Y571600D01*
X176500Y571600D02*
X178500Y571600D01*
X192500Y571600D02*
X193500Y571600D01*
X225500Y571600D02*
X227500Y571600D01*
X236500Y571600D02*
X237500Y571600D01*
X249500Y571600D02*
X251500Y571600D01*
X104500Y570600D02*
X111500Y570600D01*
X117500Y570600D02*
X127500Y570600D01*
X135500Y570600D02*
X142500Y570600D01*
X149500Y570600D02*
X151500Y570600D01*
X153500Y570600D02*
X159500Y570600D01*
X173500Y570600D02*
X181500Y570600D01*
X189500Y570600D02*
X196500Y570600D01*
X202500Y570600D02*
X205500Y570600D01*
X212500Y570600D02*
X215500Y570600D01*
X219500Y570600D02*
X221500Y570600D01*
X223500Y570600D02*
X229500Y570600D01*
X233500Y570600D02*
X240500Y570600D01*
X247500Y570600D02*
X253500Y570600D01*
X103500Y569600D02*
X112500Y569600D01*
X117500Y569600D02*
X128500Y569600D01*
X134500Y569600D02*
X143500Y569600D01*
X149500Y569600D02*
X160500Y569600D01*
X172500Y569600D02*
X183500Y569600D01*
X188500Y569600D02*
X197500Y569600D01*
X202500Y569600D02*
X205500Y569600D01*
X212500Y569600D02*
X215500Y569600D01*
X219500Y569600D02*
X228500Y569600D01*
X232500Y569600D02*
X241500Y569600D01*
X246500Y569600D02*
X254500Y569600D01*
X102500Y568600D02*
X113500Y568600D01*
X117500Y568600D02*
X129500Y568600D01*
X134500Y568600D02*
X144500Y568600D01*
X149500Y568600D02*
X160500Y568600D01*
X172500Y568600D02*
X182500Y568600D01*
X187500Y568600D02*
X198500Y568600D01*
X202500Y568600D02*
X205500Y568600D01*
X212500Y568600D02*
X215500Y568600D01*
X219500Y568600D02*
X228500Y568600D01*
X231500Y568600D02*
X242500Y568600D01*
X245500Y568600D02*
X255500Y568600D01*
X101500Y567600D02*
X105500Y567600D01*
X110500Y567600D02*
X113500Y567600D01*
X117500Y567600D02*
X121500Y567600D01*
X126500Y567600D02*
X129500Y567600D01*
X133500Y567600D02*
X136500Y567600D01*
X141500Y567600D02*
X144500Y567600D01*
X149500Y567600D02*
X152500Y567600D01*
X157500Y567600D02*
X160500Y567600D01*
X172500Y567600D02*
X174500Y567600D01*
X181500Y567600D02*
X182500Y567600D01*
X187500Y567600D02*
X190500Y567600D01*
X195500Y567600D02*
X198500Y567600D01*
X202500Y567600D02*
X205500Y567600D01*
X212500Y567600D02*
X215500Y567600D01*
X219500Y567600D02*
X223500Y567600D01*
X230500Y567600D02*
X234500Y567600D01*
X239500Y567600D02*
X241500Y567600D01*
X244500Y567600D02*
X247500Y567600D01*
X253500Y567600D02*
X256500Y567600D01*
X101500Y566600D02*
X104500Y566600D01*
X111500Y566600D02*
X113500Y566600D01*
X117500Y566600D02*
X120500Y566600D01*
X126500Y566600D02*
X129500Y566600D01*
X133500Y566600D02*
X135500Y566600D01*
X142500Y566600D02*
X145500Y566600D01*
X149500Y566600D02*
X151500Y566600D01*
X158500Y566600D02*
X161500Y566600D01*
X172500Y566600D02*
X174500Y566600D01*
X186500Y566600D02*
X189500Y566600D01*
X196500Y566600D02*
X198500Y566600D01*
X202500Y566600D02*
X205500Y566600D01*
X212500Y566600D02*
X215500Y566600D01*
X219500Y566600D02*
X222500Y566600D01*
X230500Y566600D02*
X233500Y566600D01*
X244500Y566600D02*
X246500Y566600D01*
X254500Y566600D02*
X256500Y566600D01*
X911500Y566600D02*
X937500Y566600D01*
X101500Y565600D02*
X104500Y565600D01*
X111500Y565600D02*
X113500Y565600D01*
X117500Y565600D02*
X120500Y565600D01*
X127500Y565600D02*
X129500Y565600D01*
X133500Y565600D02*
X135500Y565600D01*
X142500Y565600D02*
X145500Y565600D01*
X149500Y565600D02*
X151500Y565600D01*
X158500Y565600D02*
X161500Y565600D01*
X172500Y565600D02*
X174500Y565600D01*
X186500Y565600D02*
X189500Y565600D01*
X196500Y565600D02*
X199500Y565600D01*
X202500Y565600D02*
X205500Y565600D01*
X212500Y565600D02*
X215500Y565600D01*
X219500Y565600D02*
X221500Y565600D01*
X230500Y565600D02*
X232500Y565600D01*
X244500Y565600D02*
X246500Y565600D01*
X254500Y565600D02*
X256500Y565600D01*
X910500Y565600D02*
X937500Y565600D01*
X101500Y564600D02*
X103500Y564600D01*
X111500Y564600D02*
X113500Y564600D01*
X117500Y564600D02*
X120500Y564600D01*
X127500Y564600D02*
X129500Y564600D01*
X132500Y564600D02*
X145500Y564600D01*
X149500Y564600D02*
X151500Y564600D01*
X158500Y564600D02*
X161500Y564600D01*
X172500Y564600D02*
X180500Y564600D01*
X186500Y564600D02*
X189500Y564600D01*
X196500Y564600D02*
X199500Y564600D01*
X202500Y564600D02*
X205500Y564600D01*
X212500Y564600D02*
X215500Y564600D01*
X219500Y564600D02*
X221500Y564600D01*
X230500Y564600D02*
X232500Y564600D01*
X244500Y564600D02*
X256500Y564600D01*
X910500Y564600D02*
X937500Y564600D01*
X50500Y563600D02*
X56500Y563600D01*
X62500Y563600D02*
X63500Y563600D01*
X101500Y563600D02*
X103500Y563600D01*
X111500Y563600D02*
X113500Y563600D01*
X117500Y563600D02*
X120500Y563600D01*
X127500Y563600D02*
X129500Y563600D01*
X132500Y563600D02*
X145500Y563600D01*
X149500Y563600D02*
X151500Y563600D01*
X158500Y563600D02*
X161500Y563600D01*
X173500Y563600D02*
X182500Y563600D01*
X186500Y563600D02*
X189500Y563600D01*
X196500Y563600D02*
X199500Y563600D01*
X202500Y563600D02*
X205500Y563600D01*
X212500Y563600D02*
X215500Y563600D01*
X219500Y563600D02*
X221500Y563600D01*
X230500Y563600D02*
X232500Y563600D01*
X244500Y563600D02*
X256500Y563600D01*
X910500Y563600D02*
X937500Y563600D01*
X49500Y562600D02*
X56500Y562600D01*
X61500Y562600D02*
X63500Y562600D01*
X101500Y562600D02*
X103500Y562600D01*
X111500Y562600D02*
X113500Y562600D01*
X117500Y562600D02*
X120500Y562600D01*
X127500Y562600D02*
X129500Y562600D01*
X132500Y562600D02*
X145500Y562600D01*
X149500Y562600D02*
X151500Y562600D01*
X158500Y562600D02*
X161500Y562600D01*
X174500Y562600D02*
X183500Y562600D01*
X186500Y562600D02*
X189500Y562600D01*
X196500Y562600D02*
X199500Y562600D01*
X202500Y562600D02*
X205500Y562600D01*
X212500Y562600D02*
X215500Y562600D01*
X219500Y562600D02*
X221500Y562600D01*
X230500Y562600D02*
X232500Y562600D01*
X244500Y562600D02*
X256500Y562600D01*
X911500Y562600D02*
X936500Y562600D01*
X48500Y561600D02*
X56500Y561600D01*
X61500Y561600D02*
X63500Y561600D01*
X101500Y561600D02*
X103500Y561600D01*
X111500Y561600D02*
X113500Y561600D01*
X117500Y561600D02*
X120500Y561600D01*
X127500Y561600D02*
X129500Y561600D01*
X132500Y561600D02*
X135500Y561600D01*
X149500Y561600D02*
X151500Y561600D01*
X158500Y561600D02*
X161500Y561600D01*
X180500Y561600D02*
X183500Y561600D01*
X186500Y561600D02*
X189500Y561600D01*
X196500Y561600D02*
X199500Y561600D01*
X202500Y561600D02*
X205500Y561600D01*
X212500Y561600D02*
X215500Y561600D01*
X219500Y561600D02*
X221500Y561600D01*
X230500Y561600D02*
X232500Y561600D01*
X244500Y561600D02*
X246500Y561600D01*
X927500Y561600D02*
X932500Y561600D01*
X47500Y560600D02*
X50500Y560600D01*
X54500Y560600D02*
X56500Y560600D01*
X61500Y560600D02*
X63500Y560600D01*
X101500Y560600D02*
X104500Y560600D01*
X111500Y560600D02*
X113500Y560600D01*
X117500Y560600D02*
X120500Y560600D01*
X127500Y560600D02*
X129500Y560600D01*
X133500Y560600D02*
X135500Y560600D01*
X149500Y560600D02*
X151500Y560600D01*
X158500Y560600D02*
X161500Y560600D01*
X181500Y560600D02*
X183500Y560600D01*
X186500Y560600D02*
X189500Y560600D01*
X196500Y560600D02*
X199500Y560600D01*
X202500Y560600D02*
X205500Y560600D01*
X212500Y560600D02*
X215500Y560600D01*
X219500Y560600D02*
X221500Y560600D01*
X230500Y560600D02*
X232500Y560600D01*
X244500Y560600D02*
X246500Y560600D01*
X928500Y560600D02*
X933500Y560600D01*
X47500Y559600D02*
X49500Y559600D01*
X54500Y559600D02*
X56500Y559600D01*
X61500Y559600D02*
X63500Y559600D01*
X101500Y559600D02*
X104500Y559600D01*
X110500Y559600D02*
X113500Y559600D01*
X117500Y559600D02*
X120500Y559600D01*
X126500Y559600D02*
X129500Y559600D01*
X133500Y559600D02*
X135500Y559600D01*
X149500Y559600D02*
X151500Y559600D01*
X158500Y559600D02*
X161500Y559600D01*
X172500Y559600D02*
X173500Y559600D01*
X181500Y559600D02*
X183500Y559600D01*
X187500Y559600D02*
X189500Y559600D01*
X196500Y559600D02*
X198500Y559600D01*
X202500Y559600D02*
X205500Y559600D01*
X211500Y559600D02*
X215500Y559600D01*
X219500Y559600D02*
X221500Y559600D01*
X230500Y559600D02*
X233500Y559600D01*
X240500Y559600D02*
X240500Y559600D01*
X244500Y559600D02*
X247500Y559600D01*
X928500Y559600D02*
X934500Y559600D01*
X47500Y558600D02*
X49500Y558600D01*
X54500Y558600D02*
X56500Y558600D01*
X61500Y558600D02*
X63500Y558600D01*
X102500Y558600D02*
X105500Y558600D01*
X109500Y558600D02*
X113500Y558600D01*
X117500Y558600D02*
X121500Y558600D01*
X125500Y558600D02*
X129500Y558600D01*
X133500Y558600D02*
X137500Y558600D01*
X142500Y558600D02*
X144500Y558600D01*
X149500Y558600D02*
X151500Y558600D01*
X158500Y558600D02*
X161500Y558600D01*
X171500Y558600D02*
X174500Y558600D01*
X180500Y558600D02*
X183500Y558600D01*
X187500Y558600D02*
X191500Y558600D01*
X194500Y558600D02*
X198500Y558600D01*
X203500Y558600D02*
X207500Y558600D01*
X210500Y558600D02*
X215500Y558600D01*
X219500Y558600D02*
X221500Y558600D01*
X231500Y558600D02*
X234500Y558600D01*
X238500Y558600D02*
X241500Y558600D01*
X244500Y558600D02*
X248500Y558600D01*
X253500Y558600D02*
X255500Y558600D01*
X929500Y558600D02*
X935500Y558600D01*
X47500Y557600D02*
X49500Y557600D01*
X54500Y557600D02*
X56500Y557600D01*
X61500Y557600D02*
X63500Y557600D01*
X102500Y557600D02*
X112500Y557600D01*
X117500Y557600D02*
X129500Y557600D01*
X134500Y557600D02*
X144500Y557600D01*
X149500Y557600D02*
X151500Y557600D01*
X158500Y557600D02*
X161500Y557600D01*
X171500Y557600D02*
X183500Y557600D01*
X187500Y557600D02*
X197500Y557600D01*
X203500Y557600D02*
X215500Y557600D01*
X219500Y557600D02*
X221500Y557600D01*
X231500Y557600D02*
X242500Y557600D01*
X245500Y557600D02*
X256500Y557600D01*
X930500Y557600D02*
X936500Y557600D01*
X47500Y556600D02*
X49500Y556600D01*
X54500Y556600D02*
X56500Y556600D01*
X61500Y556600D02*
X63500Y556600D01*
X103500Y556600D02*
X111500Y556600D01*
X117500Y556600D02*
X128500Y556600D01*
X135500Y556600D02*
X144500Y556600D01*
X149500Y556600D02*
X151500Y556600D01*
X158500Y556600D02*
X161500Y556600D01*
X172500Y556600D02*
X182500Y556600D01*
X188500Y556600D02*
X197500Y556600D01*
X204500Y556600D02*
X215500Y556600D01*
X219500Y556600D02*
X221500Y556600D01*
X232500Y556600D02*
X241500Y556600D01*
X246500Y556600D02*
X255500Y556600D01*
X931500Y556600D02*
X937500Y556600D01*
X47500Y555600D02*
X49500Y555600D01*
X54500Y555600D02*
X56500Y555600D01*
X61500Y555600D02*
X63500Y555600D01*
X105500Y555600D02*
X110500Y555600D01*
X117500Y555600D02*
X120500Y555600D01*
X122500Y555600D02*
X126500Y555600D01*
X136500Y555600D02*
X142500Y555600D01*
X149500Y555600D02*
X151500Y555600D01*
X158500Y555600D02*
X161500Y555600D01*
X174500Y555600D02*
X180500Y555600D01*
X190500Y555600D02*
X195500Y555600D01*
X205500Y555600D02*
X210500Y555600D01*
X212500Y555600D02*
X215500Y555600D01*
X219500Y555600D02*
X221500Y555600D01*
X234500Y555600D02*
X239500Y555600D01*
X247500Y555600D02*
X253500Y555600D01*
X932500Y555600D02*
X937500Y555600D01*
X47500Y554600D02*
X49500Y554600D01*
X54500Y554600D02*
X56500Y554600D01*
X61500Y554600D02*
X63500Y554600D01*
X117500Y554600D02*
X120500Y554600D01*
X933500Y554600D02*
X938500Y554600D01*
X47500Y553600D02*
X49500Y553600D01*
X54500Y553600D02*
X56500Y553600D01*
X61500Y553600D02*
X63500Y553600D01*
X117500Y553600D02*
X120500Y553600D01*
X933500Y553600D02*
X938500Y553600D01*
X47500Y552600D02*
X50500Y552600D01*
X54500Y552600D02*
X56500Y552600D01*
X60500Y552600D02*
X63500Y552600D01*
X117500Y552600D02*
X120500Y552600D01*
X933500Y552600D02*
X938500Y552600D01*
X48500Y551600D02*
X62500Y551600D01*
X117500Y551600D02*
X120500Y551600D01*
X170500Y551600D02*
X172500Y551600D01*
X933500Y551600D02*
X938500Y551600D01*
X49500Y550600D02*
X61500Y550600D01*
X117500Y550600D02*
X120500Y550600D01*
X170500Y550600D02*
X172500Y550600D01*
X933500Y550600D02*
X938500Y550600D01*
X50500Y549600D02*
X60500Y549600D01*
X117500Y549600D02*
X120500Y549600D01*
X170500Y549600D02*
X172500Y549600D01*
X933500Y549600D02*
X938500Y549600D01*
X117500Y548600D02*
X120500Y548600D01*
X170500Y548600D02*
X172500Y548600D01*
X933500Y548600D02*
X937500Y548600D01*
X117500Y547600D02*
X120500Y547600D01*
X170500Y547600D02*
X172500Y547600D01*
X932500Y547600D02*
X937500Y547600D01*
X117500Y546600D02*
X120500Y546600D01*
X170500Y546600D02*
X172500Y546600D01*
X928500Y546600D02*
X937500Y546600D01*
X117500Y545600D02*
X120500Y545600D01*
X123500Y545600D02*
X126500Y545600D01*
X136500Y545600D02*
X141500Y545600D01*
X149500Y545600D02*
X151500Y545600D01*
X155500Y545600D02*
X158500Y545600D01*
X164500Y545600D02*
X167500Y545600D01*
X170500Y545600D02*
X172500Y545600D01*
X175500Y545600D02*
X177500Y545600D01*
X185500Y545600D02*
X187500Y545600D01*
X195500Y545600D02*
X197500Y545600D01*
X202500Y545600D02*
X207500Y545600D01*
X215500Y545600D02*
X217500Y545600D01*
X220500Y545600D02*
X224500Y545600D01*
X230500Y545600D02*
X234500Y545600D01*
X928500Y545600D02*
X937500Y545600D01*
X117500Y544600D02*
X127500Y544600D01*
X134500Y544600D02*
X143500Y544600D01*
X149500Y544600D02*
X159500Y544600D01*
X162500Y544600D02*
X168500Y544600D01*
X170500Y544600D02*
X172500Y544600D01*
X175500Y544600D02*
X178500Y544600D01*
X185500Y544600D02*
X187500Y544600D01*
X194500Y544600D02*
X197500Y544600D01*
X200500Y544600D02*
X209500Y544600D01*
X215500Y544600D02*
X225500Y544600D01*
X229500Y544600D02*
X236500Y544600D01*
X928500Y544600D02*
X936500Y544600D01*
X117500Y543600D02*
X128500Y543600D01*
X133500Y543600D02*
X144500Y543600D01*
X149500Y543600D02*
X158500Y543600D01*
X161500Y543600D02*
X172500Y543600D01*
X176500Y543600D02*
X178500Y543600D01*
X185500Y543600D02*
X187500Y543600D01*
X194500Y543600D02*
X196500Y543600D01*
X199500Y543600D02*
X210500Y543600D01*
X215500Y543600D02*
X224500Y543600D01*
X228500Y543600D02*
X237500Y543600D01*
X928500Y543600D02*
X935500Y543600D01*
X117500Y542600D02*
X129500Y542600D01*
X134500Y542600D02*
X136500Y542600D01*
X141500Y542600D02*
X144500Y542600D01*
X149500Y542600D02*
X158500Y542600D01*
X161500Y542600D02*
X172500Y542600D01*
X176500Y542600D02*
X178500Y542600D01*
X184500Y542600D02*
X188500Y542600D01*
X194500Y542600D02*
X196500Y542600D01*
X200500Y542600D02*
X202500Y542600D01*
X207500Y542600D02*
X210500Y542600D01*
X215500Y542600D02*
X223500Y542600D01*
X227500Y542600D02*
X231500Y542600D01*
X234500Y542600D02*
X238500Y542600D01*
X928500Y542600D02*
X933500Y542600D01*
X49500Y541600D02*
X63500Y541600D01*
X117500Y541600D02*
X120500Y541600D01*
X126500Y541600D02*
X129500Y541600D01*
X142500Y541600D02*
X145500Y541600D01*
X149500Y541600D02*
X152500Y541600D01*
X160500Y541600D02*
X163500Y541600D01*
X169500Y541600D02*
X172500Y541600D01*
X176500Y541600D02*
X179500Y541600D01*
X184500Y541600D02*
X188500Y541600D01*
X193500Y541600D02*
X196500Y541600D01*
X208500Y541600D02*
X210500Y541600D01*
X215500Y541600D02*
X218500Y541600D01*
X227500Y541600D02*
X229500Y541600D01*
X235500Y541600D02*
X238500Y541600D01*
X48500Y540600D02*
X63500Y540600D01*
X117500Y540600D02*
X120500Y540600D01*
X127500Y540600D02*
X129500Y540600D01*
X142500Y540600D02*
X145500Y540600D01*
X149500Y540600D02*
X152500Y540600D01*
X160500Y540600D02*
X163500Y540600D01*
X170500Y540600D02*
X172500Y540600D01*
X177500Y540600D02*
X179500Y540600D01*
X184500Y540600D02*
X188500Y540600D01*
X193500Y540600D02*
X195500Y540600D01*
X208500Y540600D02*
X210500Y540600D01*
X215500Y540600D02*
X218500Y540600D01*
X226500Y540600D02*
X229500Y540600D01*
X236500Y540600D02*
X238500Y540600D01*
X48500Y539600D02*
X63500Y539600D01*
X117500Y539600D02*
X120500Y539600D01*
X127500Y539600D02*
X129500Y539600D01*
X142500Y539600D02*
X145500Y539600D01*
X149500Y539600D02*
X152500Y539600D01*
X160500Y539600D02*
X163500Y539600D01*
X170500Y539600D02*
X172500Y539600D01*
X177500Y539600D02*
X179500Y539600D01*
X183500Y539600D02*
X185500Y539600D01*
X187500Y539600D02*
X189500Y539600D01*
X193500Y539600D02*
X195500Y539600D01*
X208500Y539600D02*
X210500Y539600D01*
X215500Y539600D02*
X217500Y539600D01*
X226500Y539600D02*
X228500Y539600D01*
X236500Y539600D02*
X238500Y539600D01*
X47500Y538600D02*
X49500Y538600D01*
X54500Y538600D02*
X56500Y538600D01*
X60500Y538600D02*
X62500Y538600D01*
X117500Y538600D02*
X120500Y538600D01*
X127500Y538600D02*
X129500Y538600D01*
X135500Y538600D02*
X145500Y538600D01*
X149500Y538600D02*
X152500Y538600D01*
X160500Y538600D02*
X163500Y538600D01*
X170500Y538600D02*
X172500Y538600D01*
X177500Y538600D02*
X179500Y538600D01*
X183500Y538600D02*
X185500Y538600D01*
X187500Y538600D02*
X189500Y538600D01*
X193500Y538600D02*
X195500Y538600D01*
X201500Y538600D02*
X210500Y538600D01*
X215500Y538600D02*
X217500Y538600D01*
X226500Y538600D02*
X239500Y538600D01*
X47500Y537600D02*
X49500Y537600D01*
X53500Y537600D02*
X55500Y537600D01*
X60500Y537600D02*
X63500Y537600D01*
X117500Y537600D02*
X120500Y537600D01*
X127500Y537600D02*
X129500Y537600D01*
X134500Y537600D02*
X145500Y537600D01*
X149500Y537600D02*
X152500Y537600D01*
X160500Y537600D02*
X163500Y537600D01*
X170500Y537600D02*
X172500Y537600D01*
X178500Y537600D02*
X180500Y537600D01*
X183500Y537600D02*
X185500Y537600D01*
X187500Y537600D02*
X189500Y537600D01*
X192500Y537600D02*
X195500Y537600D01*
X199500Y537600D02*
X210500Y537600D01*
X215500Y537600D02*
X217500Y537600D01*
X226500Y537600D02*
X239500Y537600D01*
X47500Y536600D02*
X49500Y536600D01*
X53500Y536600D02*
X55500Y536600D01*
X61500Y536600D02*
X63500Y536600D01*
X117500Y536600D02*
X120500Y536600D01*
X127500Y536600D02*
X129500Y536600D01*
X133500Y536600D02*
X145500Y536600D01*
X149500Y536600D02*
X152500Y536600D01*
X160500Y536600D02*
X163500Y536600D01*
X170500Y536600D02*
X172500Y536600D01*
X178500Y536600D02*
X180500Y536600D01*
X182500Y536600D02*
X184500Y536600D01*
X188500Y536600D02*
X190500Y536600D01*
X192500Y536600D02*
X194500Y536600D01*
X199500Y536600D02*
X210500Y536600D01*
X215500Y536600D02*
X217500Y536600D01*
X226500Y536600D02*
X238500Y536600D01*
X47500Y535600D02*
X49500Y535600D01*
X53500Y535600D02*
X55500Y535600D01*
X61500Y535600D02*
X63500Y535600D01*
X117500Y535600D02*
X120500Y535600D01*
X127500Y535600D02*
X129500Y535600D01*
X133500Y535600D02*
X135500Y535600D01*
X142500Y535600D02*
X145500Y535600D01*
X149500Y535600D02*
X152500Y535600D01*
X160500Y535600D02*
X163500Y535600D01*
X170500Y535600D02*
X172500Y535600D01*
X178500Y535600D02*
X180500Y535600D01*
X182500Y535600D02*
X184500Y535600D01*
X188500Y535600D02*
X190500Y535600D01*
X192500Y535600D02*
X194500Y535600D01*
X198500Y535600D02*
X201500Y535600D01*
X208500Y535600D02*
X210500Y535600D01*
X215500Y535600D02*
X217500Y535600D01*
X226500Y535600D02*
X228500Y535600D01*
X47500Y534600D02*
X49500Y534600D01*
X53500Y534600D02*
X55500Y534600D01*
X61500Y534600D02*
X63500Y534600D01*
X117500Y534600D02*
X120500Y534600D01*
X127500Y534600D02*
X129500Y534600D01*
X132500Y534600D02*
X135500Y534600D01*
X142500Y534600D02*
X145500Y534600D01*
X149500Y534600D02*
X152500Y534600D01*
X160500Y534600D02*
X163500Y534600D01*
X170500Y534600D02*
X172500Y534600D01*
X178500Y534600D02*
X184500Y534600D01*
X188500Y534600D02*
X194500Y534600D01*
X198500Y534600D02*
X200500Y534600D01*
X208500Y534600D02*
X210500Y534600D01*
X215500Y534600D02*
X217500Y534600D01*
X226500Y534600D02*
X229500Y534600D01*
X831500Y534600D02*
X833500Y534600D01*
X867500Y534600D02*
X869500Y534600D01*
X47500Y533600D02*
X49500Y533600D01*
X53500Y533600D02*
X55500Y533600D01*
X61500Y533600D02*
X63500Y533600D01*
X117500Y533600D02*
X120500Y533600D01*
X127500Y533600D02*
X129500Y533600D01*
X133500Y533600D02*
X135500Y533600D01*
X142500Y533600D02*
X145500Y533600D01*
X149500Y533600D02*
X152500Y533600D01*
X160500Y533600D02*
X163500Y533600D01*
X169500Y533600D02*
X172500Y533600D01*
X179500Y533600D02*
X183500Y533600D01*
X189500Y533600D02*
X193500Y533600D01*
X198500Y533600D02*
X201500Y533600D01*
X208500Y533600D02*
X210500Y533600D01*
X215500Y533600D02*
X217500Y533600D01*
X227500Y533600D02*
X229500Y533600D01*
X236500Y533600D02*
X236500Y533600D01*
X830500Y533600D02*
X834500Y533600D01*
X866500Y533600D02*
X870500Y533600D01*
X47500Y532600D02*
X49500Y532600D01*
X53500Y532600D02*
X55500Y532600D01*
X61500Y532600D02*
X63500Y532600D01*
X117500Y532600D02*
X120500Y532600D01*
X127500Y532600D02*
X129500Y532600D01*
X133500Y532600D02*
X136500Y532600D01*
X141500Y532600D02*
X145500Y532600D01*
X149500Y532600D02*
X152500Y532600D01*
X161500Y532600D02*
X172500Y532600D01*
X179500Y532600D02*
X183500Y532600D01*
X189500Y532600D02*
X193500Y532600D01*
X198500Y532600D02*
X202500Y532600D01*
X207500Y532600D02*
X210500Y532600D01*
X215500Y532600D02*
X217500Y532600D01*
X227500Y532600D02*
X231500Y532600D01*
X234500Y532600D02*
X237500Y532600D01*
X830500Y532600D02*
X834500Y532600D01*
X866500Y532600D02*
X870500Y532600D01*
X47500Y531600D02*
X49500Y531600D01*
X53500Y531600D02*
X55500Y531600D01*
X61500Y531600D02*
X63500Y531600D01*
X117500Y531600D02*
X120500Y531600D01*
X127500Y531600D02*
X129500Y531600D01*
X133500Y531600D02*
X145500Y531600D01*
X149500Y531600D02*
X152500Y531600D01*
X161500Y531600D02*
X172500Y531600D01*
X179500Y531600D02*
X183500Y531600D01*
X189500Y531600D02*
X193500Y531600D01*
X199500Y531600D02*
X210500Y531600D01*
X215500Y531600D02*
X217500Y531600D01*
X228500Y531600D02*
X238500Y531600D01*
X830500Y531600D02*
X834500Y531600D01*
X866500Y531600D02*
X870500Y531600D01*
X47500Y530600D02*
X49500Y530600D01*
X53500Y530600D02*
X56500Y530600D01*
X61500Y530600D02*
X63500Y530600D01*
X117500Y530600D02*
X120500Y530600D01*
X127500Y530600D02*
X129500Y530600D01*
X134500Y530600D02*
X145500Y530600D01*
X149500Y530600D02*
X152500Y530600D01*
X162500Y530600D02*
X172500Y530600D01*
X180500Y530600D02*
X182500Y530600D01*
X190500Y530600D02*
X192500Y530600D01*
X200500Y530600D02*
X210500Y530600D01*
X215500Y530600D02*
X217500Y530600D01*
X229500Y530600D02*
X237500Y530600D01*
X830500Y530600D02*
X834500Y530600D01*
X866500Y530600D02*
X870500Y530600D01*
X910500Y530600D02*
X947500Y530600D01*
X47500Y529600D02*
X48500Y529600D01*
X54500Y529600D02*
X63500Y529600D01*
X117500Y529600D02*
X119500Y529600D01*
X127500Y529600D02*
X129500Y529600D01*
X136500Y529600D02*
X140500Y529600D01*
X143500Y529600D02*
X144500Y529600D01*
X149500Y529600D02*
X151500Y529600D01*
X164500Y529600D02*
X167500Y529600D01*
X170500Y529600D02*
X172500Y529600D01*
X180500Y529600D02*
X182500Y529600D01*
X190500Y529600D02*
X192500Y529600D01*
X202500Y529600D02*
X206500Y529600D01*
X208500Y529600D02*
X210500Y529600D01*
X215500Y529600D02*
X217500Y529600D01*
X231500Y529600D02*
X235500Y529600D01*
X830500Y529600D02*
X834500Y529600D01*
X866500Y529600D02*
X870500Y529600D01*
X910500Y529600D02*
X948500Y529600D01*
X54500Y528600D02*
X62500Y528600D01*
X830500Y528600D02*
X834500Y528600D01*
X866500Y528600D02*
X870500Y528600D01*
X910500Y528600D02*
X948500Y528600D01*
X56500Y527600D02*
X61500Y527600D01*
X830500Y527600D02*
X834500Y527600D01*
X866500Y527600D02*
X870500Y527600D01*
X910500Y527600D02*
X948500Y527600D01*
X830500Y526600D02*
X834500Y526600D01*
X866500Y526600D02*
X870500Y526600D01*
X910500Y526600D02*
X948500Y526600D01*
X830500Y525600D02*
X834500Y525600D01*
X866500Y525600D02*
X870500Y525600D01*
X910500Y525600D02*
X914500Y525600D01*
X830500Y524600D02*
X834500Y524600D01*
X866500Y524600D02*
X870500Y524600D01*
X910500Y524600D02*
X914500Y524600D01*
X830500Y523600D02*
X870500Y523600D01*
X910500Y523600D02*
X914500Y523600D01*
X830500Y522600D02*
X870500Y522600D01*
X910500Y522600D02*
X914500Y522600D01*
X830500Y521600D02*
X870500Y521600D01*
X910500Y521600D02*
X914500Y521600D01*
X830500Y520600D02*
X870500Y520600D01*
X910500Y520600D02*
X914500Y520600D01*
X51500Y519600D02*
X63500Y519600D01*
X830500Y519600D02*
X870500Y519600D01*
X910500Y519600D02*
X914500Y519600D01*
X49500Y518600D02*
X63500Y518600D01*
X830500Y518600D02*
X834500Y518600D01*
X910500Y518600D02*
X914500Y518600D01*
X48500Y517600D02*
X63500Y517600D01*
X830500Y517600D02*
X834500Y517600D01*
X910500Y517600D02*
X914500Y517600D01*
X47500Y516600D02*
X53500Y516600D01*
X830500Y516600D02*
X834500Y516600D01*
X910500Y516600D02*
X914500Y516600D01*
X47500Y515600D02*
X49500Y515600D01*
X830500Y515600D02*
X834500Y515600D01*
X910500Y515600D02*
X914500Y515600D01*
X47500Y514600D02*
X49500Y514600D01*
X830500Y514600D02*
X834500Y514600D01*
X910500Y514600D02*
X914500Y514600D01*
X47500Y513600D02*
X49500Y513600D01*
X830500Y513600D02*
X843500Y513600D01*
X910500Y513600D02*
X914500Y513600D01*
X47500Y512600D02*
X49500Y512600D01*
X830500Y512600D02*
X844500Y512600D01*
X910500Y512600D02*
X914500Y512600D01*
X47500Y511600D02*
X50500Y511600D01*
X830500Y511600D02*
X845500Y511600D01*
X910500Y511600D02*
X914500Y511600D01*
X48500Y510600D02*
X50500Y510600D01*
X830500Y510600D02*
X845500Y510600D01*
X910500Y510600D02*
X914500Y510600D01*
X48500Y509600D02*
X51500Y509600D01*
X830500Y509600D02*
X844500Y509600D01*
X910500Y509600D02*
X914500Y509600D01*
X49500Y508600D02*
X52500Y508600D01*
X832500Y508600D02*
X843500Y508600D01*
X910500Y508600D02*
X914500Y508600D01*
X41500Y507600D02*
X62500Y507600D01*
X910500Y507600D02*
X914500Y507600D01*
X40500Y506600D02*
X63500Y506600D01*
X910500Y506600D02*
X913500Y506600D01*
X41500Y505600D02*
X63500Y505600D01*
X48500Y497600D02*
X48500Y497600D01*
X62500Y497600D02*
X62500Y497600D01*
X47500Y496600D02*
X49500Y496600D01*
X61500Y496600D02*
X63500Y496600D01*
X47500Y495600D02*
X49500Y495600D01*
X61500Y495600D02*
X63500Y495600D01*
X47500Y494600D02*
X49500Y494600D01*
X61500Y494600D02*
X63500Y494600D01*
X47500Y493600D02*
X49500Y493600D01*
X61500Y493600D02*
X63500Y493600D01*
X916500Y493600D02*
X931500Y493600D01*
X47500Y492600D02*
X49500Y492600D01*
X61500Y492600D02*
X63500Y492600D01*
X914500Y492600D02*
X933500Y492600D01*
X47500Y491600D02*
X49500Y491600D01*
X61500Y491600D02*
X63500Y491600D01*
X913500Y491600D02*
X934500Y491600D01*
X47500Y490600D02*
X49500Y490600D01*
X61500Y490600D02*
X63500Y490600D01*
X912500Y490600D02*
X935500Y490600D01*
X47500Y489600D02*
X49500Y489600D01*
X61500Y489600D02*
X63500Y489600D01*
X911500Y489600D02*
X936500Y489600D01*
X47500Y488600D02*
X49500Y488600D01*
X61500Y488600D02*
X63500Y488600D01*
X836500Y488600D02*
X841500Y488600D01*
X911500Y488600D02*
X916500Y488600D01*
X931500Y488600D02*
X937500Y488600D01*
X47500Y487600D02*
X50500Y487600D01*
X60500Y487600D02*
X63500Y487600D01*
X834500Y487600D02*
X842500Y487600D01*
X910500Y487600D02*
X915500Y487600D01*
X932500Y487600D02*
X937500Y487600D01*
X48500Y486600D02*
X51500Y486600D01*
X59500Y486600D02*
X62500Y486600D01*
X834500Y486600D02*
X843500Y486600D01*
X910500Y486600D02*
X915500Y486600D01*
X933500Y486600D02*
X937500Y486600D01*
X49500Y485600D02*
X61500Y485600D01*
X834500Y485600D02*
X843500Y485600D01*
X910500Y485600D02*
X914500Y485600D01*
X933500Y485600D02*
X937500Y485600D01*
X50500Y484600D02*
X60500Y484600D01*
X834500Y484600D02*
X843500Y484600D01*
X910500Y484600D02*
X914500Y484600D01*
X933500Y484600D02*
X938500Y484600D01*
X51500Y483600D02*
X59500Y483600D01*
X834500Y483600D02*
X843500Y483600D01*
X910500Y483600D02*
X914500Y483600D01*
X933500Y483600D02*
X938500Y483600D01*
X53500Y482600D02*
X57500Y482600D01*
X834500Y482600D02*
X843500Y482600D01*
X910500Y482600D02*
X914500Y482600D01*
X933500Y482600D02*
X938500Y482600D01*
X834500Y481600D02*
X843500Y481600D01*
X910500Y481600D02*
X914500Y481600D01*
X933500Y481600D02*
X938500Y481600D01*
X834500Y480600D02*
X843500Y480600D01*
X910500Y480600D02*
X914500Y480600D01*
X933500Y480600D02*
X938500Y480600D01*
X834500Y479600D02*
X842500Y479600D01*
X910500Y479600D02*
X914500Y479600D01*
X933500Y479600D02*
X938500Y479600D01*
X835500Y478600D02*
X841500Y478600D01*
X910500Y478600D02*
X914500Y478600D01*
X933500Y478600D02*
X938500Y478600D01*
X910500Y477600D02*
X914500Y477600D01*
X933500Y477600D02*
X937500Y477600D01*
X910500Y476600D02*
X915500Y476600D01*
X933500Y476600D02*
X937500Y476600D01*
X910500Y475600D02*
X916500Y475600D01*
X932500Y475600D02*
X937500Y475600D01*
X911500Y474600D02*
X917500Y474600D01*
X931500Y474600D02*
X936500Y474600D01*
X62500Y473600D02*
X63500Y473600D01*
X912500Y473600D02*
X936500Y473600D01*
X61500Y472600D02*
X63500Y472600D01*
X913500Y472600D02*
X935500Y472600D01*
X61500Y471600D02*
X63500Y471600D01*
X913500Y471600D02*
X934500Y471600D01*
X61500Y470600D02*
X63500Y470600D01*
X915500Y470600D02*
X933500Y470600D01*
X61500Y469600D02*
X63500Y469600D01*
X916500Y469600D02*
X931500Y469600D01*
X39500Y468600D02*
X42500Y468600D01*
X47500Y468600D02*
X63500Y468600D01*
X39500Y467600D02*
X42500Y467600D01*
X47500Y467600D02*
X63500Y467600D01*
X39500Y466600D02*
X42500Y466600D01*
X47500Y466600D02*
X63500Y466600D01*
X39500Y465600D02*
X42500Y465600D01*
X47500Y465600D02*
X49500Y465600D01*
X61500Y465600D02*
X63500Y465600D01*
X47500Y464600D02*
X49500Y464600D01*
X61500Y464600D02*
X63500Y464600D01*
X47500Y463600D02*
X49500Y463600D01*
X61500Y463600D02*
X63500Y463600D01*
X47500Y462600D02*
X49500Y462600D01*
X62500Y462600D02*
X63500Y462600D01*
X832500Y457600D02*
X868500Y457600D01*
X911500Y457600D02*
X913500Y457600D01*
X831500Y456600D02*
X869500Y456600D01*
X910500Y456600D02*
X914500Y456600D01*
X934500Y456600D02*
X937500Y456600D01*
X830500Y455600D02*
X869500Y455600D01*
X910500Y455600D02*
X915500Y455600D01*
X933500Y455600D02*
X937500Y455600D01*
X41500Y454600D02*
X62500Y454600D01*
X830500Y454600D02*
X870500Y454600D01*
X910500Y454600D02*
X916500Y454600D01*
X932500Y454600D02*
X937500Y454600D01*
X40500Y453600D02*
X63500Y453600D01*
X830500Y453600D02*
X870500Y453600D01*
X911500Y453600D02*
X918500Y453600D01*
X931500Y453600D02*
X937500Y453600D01*
X40500Y452600D02*
X63500Y452600D01*
X830500Y452600D02*
X834500Y452600D01*
X866500Y452600D02*
X870500Y452600D01*
X912500Y452600D02*
X919500Y452600D01*
X929500Y452600D02*
X936500Y452600D01*
X40500Y451600D02*
X46500Y451600D01*
X830500Y451600D02*
X834500Y451600D01*
X866500Y451600D02*
X870500Y451600D01*
X913500Y451600D02*
X920500Y451600D01*
X928500Y451600D02*
X935500Y451600D01*
X41500Y450600D02*
X47500Y450600D01*
X830500Y450600D02*
X834500Y450600D01*
X866500Y450600D02*
X870500Y450600D01*
X914500Y450600D02*
X921500Y450600D01*
X927500Y450600D02*
X934500Y450600D01*
X43500Y449600D02*
X49500Y449600D01*
X830500Y449600D02*
X834500Y449600D01*
X866500Y449600D02*
X870500Y449600D01*
X915500Y449600D02*
X922500Y449600D01*
X926500Y449600D02*
X933500Y449600D01*
X45500Y448600D02*
X51500Y448600D01*
X830500Y448600D02*
X834500Y448600D01*
X866500Y448600D02*
X870500Y448600D01*
X916500Y448600D02*
X931500Y448600D01*
X47500Y447600D02*
X53500Y447600D01*
X830500Y447600D02*
X834500Y447600D01*
X866500Y447600D02*
X870500Y447600D01*
X918500Y447600D02*
X930500Y447600D01*
X49500Y446600D02*
X55500Y446600D01*
X830500Y446600D02*
X834500Y446600D01*
X866500Y446600D02*
X870500Y446600D01*
X919500Y446600D02*
X929500Y446600D01*
X50500Y445600D02*
X55500Y445600D01*
X830500Y445600D02*
X834500Y445600D01*
X866500Y445600D02*
X870500Y445600D01*
X920500Y445600D02*
X928500Y445600D01*
X48500Y444600D02*
X54500Y444600D01*
X830500Y444600D02*
X834500Y444600D01*
X866500Y444600D02*
X870500Y444600D01*
X920500Y444600D02*
X928500Y444600D01*
X46500Y443600D02*
X52500Y443600D01*
X830500Y443600D02*
X834500Y443600D01*
X866500Y443600D02*
X870500Y443600D01*
X918500Y443600D02*
X930500Y443600D01*
X44500Y442600D02*
X50500Y442600D01*
X830500Y442600D02*
X834500Y442600D01*
X866500Y442600D02*
X870500Y442600D01*
X917500Y442600D02*
X931500Y442600D01*
X42500Y441600D02*
X48500Y441600D01*
X830500Y441600D02*
X834500Y441600D01*
X866500Y441600D02*
X870500Y441600D01*
X916500Y441600D02*
X923500Y441600D01*
X925500Y441600D02*
X932500Y441600D01*
X40500Y440600D02*
X46500Y440600D01*
X830500Y440600D02*
X834500Y440600D01*
X866500Y440600D02*
X870500Y440600D01*
X915500Y440600D02*
X922500Y440600D01*
X926500Y440600D02*
X933500Y440600D01*
X40500Y439600D02*
X63500Y439600D01*
X830500Y439600D02*
X834500Y439600D01*
X866500Y439600D02*
X870500Y439600D01*
X914500Y439600D02*
X921500Y439600D01*
X927500Y439600D02*
X934500Y439600D01*
X40500Y438600D02*
X63500Y438600D01*
X830500Y438600D02*
X834500Y438600D01*
X866500Y438600D02*
X870500Y438600D01*
X912500Y438600D02*
X919500Y438600D01*
X929500Y438600D02*
X936500Y438600D01*
X40500Y437600D02*
X63500Y437600D01*
X830500Y437600D02*
X834500Y437600D01*
X866500Y437600D02*
X870500Y437600D01*
X911500Y437600D02*
X918500Y437600D01*
X930500Y437600D02*
X937500Y437600D01*
X830500Y436600D02*
X870500Y436600D01*
X910500Y436600D02*
X917500Y436600D01*
X931500Y436600D02*
X937500Y436600D01*
X830500Y435600D02*
X870500Y435600D01*
X910500Y435600D02*
X916500Y435600D01*
X932500Y435600D02*
X937500Y435600D01*
X831500Y434600D02*
X869500Y434600D01*
X910500Y434600D02*
X915500Y434600D01*
X933500Y434600D02*
X937500Y434600D01*
X831500Y433600D02*
X868500Y433600D01*
X910500Y433600D02*
X913500Y433600D01*
X935500Y433600D02*
X936500Y433600D01*
X833500Y432600D02*
X867500Y432600D01*
X831500Y419600D02*
X833500Y419600D01*
X867500Y419600D02*
X869500Y419600D01*
X830500Y418600D02*
X834500Y418600D01*
X866500Y418600D02*
X870500Y418600D01*
X830500Y417600D02*
X834500Y417600D01*
X866500Y417600D02*
X870500Y417600D01*
X830500Y416600D02*
X834500Y416600D01*
X866500Y416600D02*
X870500Y416600D01*
X830500Y415600D02*
X834500Y415600D01*
X866500Y415600D02*
X870500Y415600D01*
X830500Y414600D02*
X834500Y414600D01*
X866500Y414600D02*
X870500Y414600D01*
X830500Y413600D02*
X834500Y413600D01*
X866500Y413600D02*
X870500Y413600D01*
X830500Y412600D02*
X834500Y412600D01*
X866500Y412600D02*
X870500Y412600D01*
X830500Y411600D02*
X834500Y411600D01*
X866500Y411600D02*
X870500Y411600D01*
X830500Y410600D02*
X834500Y410600D01*
X866500Y410600D02*
X870500Y410600D01*
X830500Y409600D02*
X870500Y409600D01*
X830500Y408600D02*
X870500Y408600D01*
X830500Y407600D02*
X870500Y407600D01*
X830500Y406600D02*
X870500Y406600D01*
X830500Y405600D02*
X870500Y405600D01*
X46500Y404600D02*
X57500Y404600D01*
X830500Y404600D02*
X870500Y404600D01*
X45500Y403600D02*
X59500Y403600D01*
X830500Y403600D02*
X834500Y403600D01*
X44500Y402600D02*
X60500Y402600D01*
X830500Y402600D02*
X834500Y402600D01*
X42500Y401600D02*
X46500Y401600D01*
X57500Y401600D02*
X61500Y401600D01*
X486500Y401600D02*
X488500Y401600D01*
X830500Y401600D02*
X834500Y401600D01*
X41500Y400600D02*
X45500Y400600D01*
X58500Y400600D02*
X63500Y400600D01*
X483500Y400600D02*
X490500Y400600D01*
X830500Y400600D02*
X834500Y400600D01*
X40500Y399600D02*
X44500Y399600D01*
X60500Y399600D02*
X63500Y399600D01*
X483500Y399600D02*
X491500Y399600D01*
X830500Y399600D02*
X834500Y399600D01*
X41500Y398600D02*
X42500Y398600D01*
X61500Y398600D02*
X63500Y398600D01*
X440500Y398600D02*
X442500Y398600D01*
X482500Y398600D02*
X491500Y398600D01*
X830500Y398600D02*
X844500Y398600D01*
X439500Y397600D02*
X443500Y397600D01*
X482500Y397600D02*
X491500Y397600D01*
X830500Y397600D02*
X845500Y397600D01*
X439500Y396600D02*
X444500Y396600D01*
X482500Y396600D02*
X491500Y396600D01*
X830500Y396600D02*
X845500Y396600D01*
X438500Y395600D02*
X444500Y395600D01*
X482500Y395600D02*
X491500Y395600D01*
X830500Y395600D02*
X845500Y395600D01*
X438500Y394600D02*
X444500Y394600D01*
X483500Y394600D02*
X491500Y394600D01*
X831500Y394600D02*
X844500Y394600D01*
X438500Y393600D02*
X445500Y393600D01*
X483500Y393600D02*
X491500Y393600D01*
X437500Y392600D02*
X445500Y392600D01*
X484500Y392600D02*
X489500Y392600D01*
X437500Y391600D02*
X445500Y391600D01*
X437500Y390600D02*
X446500Y390600D01*
X437500Y389600D02*
X446500Y389600D01*
X436500Y388600D02*
X446500Y388600D01*
X436500Y387600D02*
X447500Y387600D01*
X47500Y386600D02*
X48500Y386600D01*
X62500Y386600D02*
X63500Y386600D01*
X436500Y386600D02*
X447500Y386600D01*
X47500Y385600D02*
X49500Y385600D01*
X61500Y385600D02*
X63500Y385600D01*
X435500Y385600D02*
X447500Y385600D01*
X47500Y384600D02*
X49500Y384600D01*
X61500Y384600D02*
X63500Y384600D01*
X435500Y384600D02*
X447500Y384600D01*
X478500Y384600D02*
X489500Y384600D01*
X522500Y384600D02*
X524500Y384600D01*
X535500Y384600D02*
X545500Y384600D01*
X47500Y383600D02*
X49500Y383600D01*
X61500Y383600D02*
X63500Y383600D01*
X435500Y383600D02*
X448500Y383600D01*
X477500Y383600D02*
X491500Y383600D01*
X521500Y383600D02*
X525500Y383600D01*
X533500Y383600D02*
X547500Y383600D01*
X47500Y382600D02*
X49500Y382600D01*
X61500Y382600D02*
X63500Y382600D01*
X434500Y382600D02*
X440500Y382600D01*
X442500Y382600D02*
X448500Y382600D01*
X476500Y382600D02*
X491500Y382600D01*
X520500Y382600D02*
X525500Y382600D01*
X532500Y382600D02*
X549500Y382600D01*
X47500Y381600D02*
X49500Y381600D01*
X61500Y381600D02*
X63500Y381600D01*
X434500Y381600D02*
X440500Y381600D01*
X442500Y381600D02*
X448500Y381600D01*
X476500Y381600D02*
X491500Y381600D01*
X520500Y381600D02*
X525500Y381600D01*
X531500Y381600D02*
X550500Y381600D01*
X47500Y380600D02*
X49500Y380600D01*
X61500Y380600D02*
X63500Y380600D01*
X434500Y380600D02*
X440500Y380600D01*
X443500Y380600D02*
X449500Y380600D01*
X476500Y380600D02*
X491500Y380600D01*
X520500Y380600D02*
X526500Y380600D01*
X530500Y380600D02*
X550500Y380600D01*
X47500Y379600D02*
X49500Y379600D01*
X61500Y379600D02*
X63500Y379600D01*
X434500Y379600D02*
X440500Y379600D01*
X443500Y379600D02*
X449500Y379600D01*
X477500Y379600D02*
X491500Y379600D01*
X520500Y379600D02*
X526500Y379600D01*
X529500Y379600D02*
X551500Y379600D01*
X47500Y378600D02*
X49500Y378600D01*
X61500Y378600D02*
X63500Y378600D01*
X433500Y378600D02*
X439500Y378600D01*
X443500Y378600D02*
X449500Y378600D01*
X478500Y378600D02*
X491500Y378600D01*
X520500Y378600D02*
X525500Y378600D01*
X527500Y378600D02*
X551500Y378600D01*
X47500Y377600D02*
X50500Y377600D01*
X60500Y377600D02*
X63500Y377600D01*
X433500Y377600D02*
X439500Y377600D01*
X444500Y377600D02*
X449500Y377600D01*
X486500Y377600D02*
X491500Y377600D01*
X520500Y377600D02*
X535500Y377600D01*
X545500Y377600D02*
X551500Y377600D01*
X47500Y376600D02*
X50500Y376600D01*
X60500Y376600D02*
X63500Y376600D01*
X433500Y376600D02*
X439500Y376600D01*
X444500Y376600D02*
X450500Y376600D01*
X486500Y376600D02*
X491500Y376600D01*
X520500Y376600D02*
X534500Y376600D01*
X546500Y376600D02*
X551500Y376600D01*
X48500Y375600D02*
X51500Y375600D01*
X59500Y375600D02*
X62500Y375600D01*
X432500Y375600D02*
X438500Y375600D01*
X444500Y375600D02*
X450500Y375600D01*
X486500Y375600D02*
X491500Y375600D01*
X520500Y375600D02*
X533500Y375600D01*
X546500Y375600D02*
X552500Y375600D01*
X49500Y374600D02*
X61500Y374600D01*
X432500Y374600D02*
X438500Y374600D01*
X444500Y374600D02*
X450500Y374600D01*
X486500Y374600D02*
X491500Y374600D01*
X520500Y374600D02*
X532500Y374600D01*
X546500Y374600D02*
X552500Y374600D01*
X50500Y373600D02*
X60500Y373600D01*
X432500Y373600D02*
X438500Y373600D01*
X445500Y373600D02*
X451500Y373600D01*
X486500Y373600D02*
X491500Y373600D01*
X520500Y373600D02*
X531500Y373600D01*
X546500Y373600D02*
X552500Y373600D01*
X51500Y372600D02*
X59500Y372600D01*
X432500Y372600D02*
X437500Y372600D01*
X445500Y372600D02*
X451500Y372600D01*
X486500Y372600D02*
X491500Y372600D01*
X520500Y372600D02*
X530500Y372600D01*
X546500Y372600D02*
X551500Y372600D01*
X431500Y371600D02*
X437500Y371600D01*
X445500Y371600D02*
X451500Y371600D01*
X486500Y371600D02*
X491500Y371600D01*
X520500Y371600D02*
X529500Y371600D01*
X547500Y371600D02*
X551500Y371600D01*
X431500Y370600D02*
X437500Y370600D01*
X446500Y370600D02*
X452500Y370600D01*
X486500Y370600D02*
X491500Y370600D01*
X520500Y370600D02*
X527500Y370600D01*
X431500Y369600D02*
X437500Y369600D01*
X446500Y369600D02*
X452500Y369600D01*
X486500Y369600D02*
X491500Y369600D01*
X520500Y369600D02*
X526500Y369600D01*
X430500Y368600D02*
X436500Y368600D01*
X446500Y368600D02*
X452500Y368600D01*
X486500Y368600D02*
X491500Y368600D01*
X520500Y368600D02*
X525500Y368600D01*
X430500Y367600D02*
X436500Y367600D01*
X446500Y367600D02*
X452500Y367600D01*
X486500Y367600D02*
X491500Y367600D01*
X520500Y367600D02*
X525500Y367600D01*
X430500Y366600D02*
X436500Y366600D01*
X447500Y366600D02*
X453500Y366600D01*
X486500Y366600D02*
X491500Y366600D01*
X520500Y366600D02*
X525500Y366600D01*
X429500Y365600D02*
X436500Y365600D01*
X447500Y365600D02*
X453500Y365600D01*
X486500Y365600D02*
X491500Y365600D01*
X520500Y365600D02*
X525500Y365600D01*
X429500Y364600D02*
X453500Y364600D01*
X486500Y364600D02*
X491500Y364600D01*
X520500Y364600D02*
X525500Y364600D01*
X429500Y363600D02*
X454500Y363600D01*
X486500Y363600D02*
X491500Y363600D01*
X520500Y363600D02*
X525500Y363600D01*
X429500Y362600D02*
X454500Y362600D01*
X486500Y362600D02*
X491500Y362600D01*
X520500Y362600D02*
X525500Y362600D01*
X428500Y361600D02*
X454500Y361600D01*
X486500Y361600D02*
X491500Y361600D01*
X520500Y361600D02*
X525500Y361600D01*
X41500Y360600D02*
X42500Y360600D01*
X62500Y360600D02*
X63500Y360600D01*
X428500Y360600D02*
X454500Y360600D01*
X486500Y360600D02*
X491500Y360600D01*
X520500Y360600D02*
X525500Y360600D01*
X40500Y359600D02*
X43500Y359600D01*
X60500Y359600D02*
X63500Y359600D01*
X428500Y359600D02*
X455500Y359600D01*
X486500Y359600D02*
X491500Y359600D01*
X520500Y359600D02*
X525500Y359600D01*
X41500Y358600D02*
X45500Y358600D01*
X59500Y358600D02*
X63500Y358600D01*
X427500Y358600D02*
X434500Y358600D01*
X449500Y358600D02*
X455500Y358600D01*
X486500Y358600D02*
X491500Y358600D01*
X520500Y358600D02*
X525500Y358600D01*
X42500Y357600D02*
X46500Y357600D01*
X58500Y357600D02*
X62500Y357600D01*
X427500Y357600D02*
X433500Y357600D01*
X449500Y357600D02*
X455500Y357600D01*
X486500Y357600D02*
X491500Y357600D01*
X520500Y357600D02*
X525500Y357600D01*
X43500Y356600D02*
X48500Y356600D01*
X56500Y356600D02*
X60500Y356600D01*
X427500Y356600D02*
X433500Y356600D01*
X450500Y356600D02*
X456500Y356600D01*
X486500Y356600D02*
X491500Y356600D01*
X520500Y356600D02*
X525500Y356600D01*
X44500Y355600D02*
X59500Y355600D01*
X427500Y355600D02*
X432500Y355600D01*
X450500Y355600D02*
X456500Y355600D01*
X486500Y355600D02*
X491500Y355600D01*
X520500Y355600D02*
X525500Y355600D01*
X46500Y354600D02*
X58500Y354600D01*
X426500Y354600D02*
X432500Y354600D01*
X450500Y354600D02*
X456500Y354600D01*
X486500Y354600D02*
X491500Y354600D01*
X520500Y354600D02*
X525500Y354600D01*
X48500Y353600D02*
X56500Y353600D01*
X426500Y353600D02*
X432500Y353600D01*
X451500Y353600D02*
X457500Y353600D01*
X477500Y353600D02*
X500500Y353600D01*
X520500Y353600D02*
X525500Y353600D01*
X426500Y352600D02*
X432500Y352600D01*
X451500Y352600D02*
X457500Y352600D01*
X476500Y352600D02*
X501500Y352600D01*
X520500Y352600D02*
X525500Y352600D01*
X425500Y351600D02*
X431500Y351600D01*
X451500Y351600D02*
X457500Y351600D01*
X476500Y351600D02*
X501500Y351600D01*
X520500Y351600D02*
X525500Y351600D01*
X425500Y350600D02*
X431500Y350600D01*
X451500Y350600D02*
X457500Y350600D01*
X476500Y350600D02*
X501500Y350600D01*
X520500Y350600D02*
X525500Y350600D01*
X426500Y349600D02*
X431500Y349600D01*
X452500Y349600D02*
X457500Y349600D01*
X476500Y349600D02*
X501500Y349600D01*
X520500Y349600D02*
X525500Y349600D01*
X426500Y348600D02*
X430500Y348600D01*
X453500Y348600D02*
X456500Y348600D01*
X477500Y348600D02*
X500500Y348600D01*
X521500Y348600D02*
X524500Y348600D01*
X303500Y332600D02*
X320500Y332600D01*
X403500Y332600D02*
X430500Y332600D01*
X550500Y332600D02*
X577500Y332600D01*
X651500Y332600D02*
X654500Y332600D01*
X301500Y331600D02*
X320500Y331600D01*
X401500Y331600D02*
X431500Y331600D01*
X549500Y331600D02*
X579500Y331600D01*
X650500Y331600D02*
X655500Y331600D01*
X301500Y330600D02*
X320500Y330600D01*
X401500Y330600D02*
X432500Y330600D01*
X548500Y330600D02*
X580500Y330600D01*
X650500Y330600D02*
X655500Y330600D01*
X301500Y329600D02*
X320500Y329600D01*
X401500Y329600D02*
X433500Y329600D01*
X548500Y329600D02*
X581500Y329600D01*
X650500Y329600D02*
X656500Y329600D01*
X301500Y328600D02*
X320500Y328600D01*
X401500Y328600D02*
X434500Y328600D01*
X548500Y328600D02*
X581500Y328600D01*
X650500Y328600D02*
X656500Y328600D01*
X301500Y327600D02*
X320500Y327600D01*
X401500Y327600D02*
X434500Y327600D01*
X549500Y327600D02*
X582500Y327600D01*
X650500Y327600D02*
X656500Y327600D01*
X302500Y326600D02*
X320500Y326600D01*
X402500Y326600D02*
X434500Y326600D01*
X550500Y326600D02*
X582500Y326600D01*
X650500Y326600D02*
X656500Y326600D01*
X672500Y326600D02*
X675500Y326600D01*
X314500Y325600D02*
X320500Y325600D01*
X428500Y325600D02*
X434500Y325600D01*
X576500Y325600D02*
X582500Y325600D01*
X650500Y325600D02*
X656500Y325600D01*
X671500Y325600D02*
X676500Y325600D01*
X314500Y324600D02*
X320500Y324600D01*
X428500Y324600D02*
X434500Y324600D01*
X576500Y324600D02*
X582500Y324600D01*
X650500Y324600D02*
X656500Y324600D01*
X670500Y324600D02*
X676500Y324600D01*
X314500Y323600D02*
X320500Y323600D01*
X428500Y323600D02*
X434500Y323600D01*
X576500Y323600D02*
X582500Y323600D01*
X650500Y323600D02*
X656500Y323600D01*
X670500Y323600D02*
X676500Y323600D01*
X314500Y322600D02*
X320500Y322600D01*
X428500Y322600D02*
X434500Y322600D01*
X576500Y322600D02*
X582500Y322600D01*
X650500Y322600D02*
X656500Y322600D01*
X670500Y322600D02*
X676500Y322600D01*
X314500Y321600D02*
X320500Y321600D01*
X428500Y321600D02*
X434500Y321600D01*
X576500Y321600D02*
X582500Y321600D01*
X650500Y321600D02*
X656500Y321600D01*
X670500Y321600D02*
X676500Y321600D01*
X314500Y320600D02*
X320500Y320600D01*
X428500Y320600D02*
X434500Y320600D01*
X576500Y320600D02*
X582500Y320600D01*
X650500Y320600D02*
X656500Y320600D01*
X670500Y320600D02*
X676500Y320600D01*
X314500Y319600D02*
X320500Y319600D01*
X428500Y319600D02*
X434500Y319600D01*
X576500Y319600D02*
X582500Y319600D01*
X650500Y319600D02*
X656500Y319600D01*
X670500Y319600D02*
X676500Y319600D01*
X314500Y318600D02*
X320500Y318600D01*
X428500Y318600D02*
X434500Y318600D01*
X576500Y318600D02*
X582500Y318600D01*
X650500Y318600D02*
X656500Y318600D01*
X670500Y318600D02*
X676500Y318600D01*
X314500Y317600D02*
X320500Y317600D01*
X428500Y317600D02*
X434500Y317600D01*
X576500Y317600D02*
X582500Y317600D01*
X650500Y317600D02*
X656500Y317600D01*
X670500Y317600D02*
X676500Y317600D01*
X314500Y316600D02*
X320500Y316600D01*
X428500Y316600D02*
X434500Y316600D01*
X576500Y316600D02*
X582500Y316600D01*
X650500Y316600D02*
X656500Y316600D01*
X670500Y316600D02*
X676500Y316600D01*
X314500Y315600D02*
X320500Y315600D01*
X428500Y315600D02*
X434500Y315600D01*
X576500Y315600D02*
X582500Y315600D01*
X650500Y315600D02*
X656500Y315600D01*
X670500Y315600D02*
X676500Y315600D01*
X314500Y314600D02*
X320500Y314600D01*
X428500Y314600D02*
X434500Y314600D01*
X576500Y314600D02*
X582500Y314600D01*
X650500Y314600D02*
X656500Y314600D01*
X670500Y314600D02*
X676500Y314600D01*
X314500Y313600D02*
X320500Y313600D01*
X428500Y313600D02*
X434500Y313600D01*
X576500Y313600D02*
X582500Y313600D01*
X650500Y313600D02*
X656500Y313600D01*
X670500Y313600D02*
X676500Y313600D01*
X314500Y312600D02*
X320500Y312600D01*
X428500Y312600D02*
X434500Y312600D01*
X576500Y312600D02*
X582500Y312600D01*
X650500Y312600D02*
X656500Y312600D01*
X670500Y312600D02*
X676500Y312600D01*
X314500Y311600D02*
X320500Y311600D01*
X428500Y311600D02*
X434500Y311600D01*
X575500Y311600D02*
X582500Y311600D01*
X650500Y311600D02*
X656500Y311600D01*
X670500Y311600D02*
X676500Y311600D01*
X314500Y310600D02*
X320500Y310600D01*
X428500Y310600D02*
X434500Y310600D01*
X575500Y310600D02*
X582500Y310600D01*
X650500Y310600D02*
X656500Y310600D01*
X670500Y310600D02*
X676500Y310600D01*
X314500Y309600D02*
X320500Y309600D01*
X428500Y309600D02*
X434500Y309600D01*
X572500Y309600D02*
X581500Y309600D01*
X650500Y309600D02*
X656500Y309600D01*
X670500Y309600D02*
X676500Y309600D01*
X314500Y308600D02*
X320500Y308600D01*
X404500Y308600D02*
X434500Y308600D01*
X556500Y308600D02*
X581500Y308600D01*
X650500Y308600D02*
X656500Y308600D01*
X670500Y308600D02*
X676500Y308600D01*
X314500Y307600D02*
X320500Y307600D01*
X403500Y307600D02*
X434500Y307600D01*
X556500Y307600D02*
X580500Y307600D01*
X650500Y307600D02*
X656500Y307600D01*
X670500Y307600D02*
X676500Y307600D01*
X314500Y306600D02*
X320500Y306600D01*
X402500Y306600D02*
X434500Y306600D01*
X555500Y306600D02*
X580500Y306600D01*
X650500Y306600D02*
X656500Y306600D01*
X670500Y306600D02*
X676500Y306600D01*
X314500Y305600D02*
X320500Y305600D01*
X401500Y305600D02*
X433500Y305600D01*
X555500Y305600D02*
X579500Y305600D01*
X650500Y305600D02*
X656500Y305600D01*
X670500Y305600D02*
X676500Y305600D01*
X314500Y304600D02*
X320500Y304600D01*
X401500Y304600D02*
X432500Y304600D01*
X556500Y304600D02*
X580500Y304600D01*
X650500Y304600D02*
X656500Y304600D01*
X670500Y304600D02*
X676500Y304600D01*
X314500Y303600D02*
X320500Y303600D01*
X401500Y303600D02*
X431500Y303600D01*
X556500Y303600D02*
X581500Y303600D01*
X650500Y303600D02*
X677500Y303600D01*
X314500Y302600D02*
X320500Y302600D01*
X401500Y302600D02*
X428500Y302600D01*
X559500Y302600D02*
X581500Y302600D01*
X650500Y302600D02*
X680500Y302600D01*
X314500Y301600D02*
X320500Y301600D01*
X401500Y301600D02*
X407500Y301600D01*
X575500Y301600D02*
X582500Y301600D01*
X650500Y301600D02*
X680500Y301600D01*
X314500Y300600D02*
X320500Y300600D01*
X401500Y300600D02*
X407500Y300600D01*
X575500Y300600D02*
X582500Y300600D01*
X650500Y300600D02*
X680500Y300600D01*
X314500Y299600D02*
X320500Y299600D01*
X330500Y299600D02*
X332500Y299600D01*
X401500Y299600D02*
X407500Y299600D01*
X576500Y299600D02*
X582500Y299600D01*
X650500Y299600D02*
X680500Y299600D01*
X314500Y298600D02*
X320500Y298600D01*
X329500Y298600D02*
X333500Y298600D01*
X401500Y298600D02*
X407500Y298600D01*
X576500Y298600D02*
X582500Y298600D01*
X650500Y298600D02*
X680500Y298600D01*
X314500Y297600D02*
X320500Y297600D01*
X328500Y297600D02*
X334500Y297600D01*
X401500Y297600D02*
X407500Y297600D01*
X576500Y297600D02*
X582500Y297600D01*
X650500Y297600D02*
X680500Y297600D01*
X314500Y296600D02*
X320500Y296600D01*
X328500Y296600D02*
X334500Y296600D01*
X401500Y296600D02*
X407500Y296600D01*
X576500Y296600D02*
X582500Y296600D01*
X670500Y296600D02*
X677500Y296600D01*
X314500Y295600D02*
X320500Y295600D01*
X328500Y295600D02*
X334500Y295600D01*
X401500Y295600D02*
X407500Y295600D01*
X576500Y295600D02*
X582500Y295600D01*
X670500Y295600D02*
X676500Y295600D01*
X314500Y294600D02*
X320500Y294600D01*
X328500Y294600D02*
X334500Y294600D01*
X401500Y294600D02*
X407500Y294600D01*
X576500Y294600D02*
X582500Y294600D01*
X670500Y294600D02*
X676500Y294600D01*
X314500Y293600D02*
X320500Y293600D01*
X328500Y293600D02*
X334500Y293600D01*
X401500Y293600D02*
X407500Y293600D01*
X576500Y293600D02*
X582500Y293600D01*
X670500Y293600D02*
X676500Y293600D01*
X314500Y292600D02*
X320500Y292600D01*
X328500Y292600D02*
X334500Y292600D01*
X401500Y292600D02*
X407500Y292600D01*
X576500Y292600D02*
X582500Y292600D01*
X670500Y292600D02*
X676500Y292600D01*
X314500Y291600D02*
X320500Y291600D01*
X328500Y291600D02*
X334500Y291600D01*
X401500Y291600D02*
X407500Y291600D01*
X576500Y291600D02*
X582500Y291600D01*
X670500Y291600D02*
X676500Y291600D01*
X314500Y290600D02*
X320500Y290600D01*
X328500Y290600D02*
X334500Y290600D01*
X401500Y290600D02*
X407500Y290600D01*
X576500Y290600D02*
X582500Y290600D01*
X670500Y290600D02*
X676500Y290600D01*
X314500Y289600D02*
X320500Y289600D01*
X328500Y289600D02*
X334500Y289600D01*
X401500Y289600D02*
X407500Y289600D01*
X576500Y289600D02*
X582500Y289600D01*
X670500Y289600D02*
X676500Y289600D01*
X314500Y288600D02*
X320500Y288600D01*
X328500Y288600D02*
X334500Y288600D01*
X401500Y288600D02*
X407500Y288600D01*
X576500Y288600D02*
X582500Y288600D01*
X670500Y288600D02*
X676500Y288600D01*
X314500Y287600D02*
X320500Y287600D01*
X328500Y287600D02*
X334500Y287600D01*
X401500Y287600D02*
X407500Y287600D01*
X576500Y287600D02*
X582500Y287600D01*
X670500Y287600D02*
X676500Y287600D01*
X314500Y286600D02*
X320500Y286600D01*
X328500Y286600D02*
X334500Y286600D01*
X401500Y286600D02*
X407500Y286600D01*
X576500Y286600D02*
X582500Y286600D01*
X670500Y286600D02*
X676500Y286600D01*
X303500Y285600D02*
X334500Y285600D01*
X401500Y285600D02*
X432500Y285600D01*
X550500Y285600D02*
X582500Y285600D01*
X670500Y285600D02*
X676500Y285600D01*
X302500Y284600D02*
X334500Y284600D01*
X401500Y284600D02*
X433500Y284600D01*
X549500Y284600D02*
X582500Y284600D01*
X670500Y284600D02*
X676500Y284600D01*
X301500Y283600D02*
X334500Y283600D01*
X401500Y283600D02*
X434500Y283600D01*
X549500Y283600D02*
X581500Y283600D01*
X670500Y283600D02*
X676500Y283600D01*
X301500Y282600D02*
X334500Y282600D01*
X401500Y282600D02*
X434500Y282600D01*
X548500Y282600D02*
X581500Y282600D01*
X670500Y282600D02*
X676500Y282600D01*
X301500Y281600D02*
X334500Y281600D01*
X401500Y281600D02*
X434500Y281600D01*
X548500Y281600D02*
X580500Y281600D01*
X670500Y281600D02*
X676500Y281600D01*
X301500Y280600D02*
X334500Y280600D01*
X401500Y280600D02*
X434500Y280600D01*
X549500Y280600D02*
X579500Y280600D01*
X671500Y280600D02*
X676500Y280600D01*
X302500Y279600D02*
X333500Y279600D01*
X401500Y279600D02*
X433500Y279600D01*
X550500Y279600D02*
X578500Y279600D01*
X672500Y279600D02*
X675500Y279600D01*
D02*
G04 End of Silk1*
M02*