; NON-PLATED HOLES START AT T1
; THROUGH (PLATED) HOLES START AT T100
M48
INCH
T100C0.043307
T101C0.035000
T102C0.125984
T103C0.015748
T104C0.038000
T105C0.039370
T106C0.098425
%
T100
X037610Y003024
X003222Y001869
X031480Y001808
X005717Y001808
X037626Y005453
X027930Y001803
X037575Y014828
X037575Y012828
X014225Y001822
X019285Y001799
X037575Y013828
X034023Y001807
X008033Y014023
X004222Y001869
X001765Y012687
X018285Y001799
X010684Y001817
X030480Y001808
X037575Y010370
X025930Y001803
X037610Y002024
X015756Y001813
X010460Y014031
X001760Y011254
X006717Y001808
X013225Y001822
X037575Y011370
X033023Y001807
X037610Y001024
X029480Y001808
X021831Y001793
X007033Y014023
X024382Y001790
X016756Y001813
X023382Y001790
X001760Y010254
X001765Y013687
X020831Y001793
X009460Y014031
X011684Y001817
X026930Y001803
X037626Y004453
T101
X019594Y008808
X015987Y010832
X021491Y012764
X019594Y012808
X026649Y007079
X022649Y007079
X031712Y012758
X027712Y012758
X012056Y012061
X018090Y008768
X018090Y012768
X011987Y010832
X025491Y012764
X016056Y012061
T102
X001963Y007907
X037002Y007907
T103
X024120Y012748
X036226Y003998
X035488Y003512
X030600Y010828
X039073Y000899
X035843Y014951
X036236Y002344
X032520Y011548
X015240Y003387
X014760Y012268
X017400Y003867
X035869Y001022
X029160Y007468
X035172Y013556
X034862Y001757
X027720Y010828
X038520Y001467
X028939Y003512
X029160Y008188
X002735Y015288
X011880Y000747
X007079Y006748
X007079Y005788
T104
X030397Y004881
X030397Y014880
X021397Y004881
X027397Y004881
X027397Y014880
X022396Y014880
X028397Y004881
X021396Y014880
X028397Y014880
X032397Y014880
X032397Y004881
X023397Y004881
X018396Y014880
X024397Y004881
X008469Y006150
X024396Y014880
X008469Y005150
X019396Y014880
X029397Y014880
X026397Y004881
X026397Y014880
X029397Y004881
X017396Y014880
X018397Y004881
X008463Y000950
X016396Y014880
X001163Y000950
X017397Y004881
X020396Y014880
X001163Y001950
X033397Y004881
X022397Y004881
X016397Y004881
X019397Y004881
X023396Y014880
X033397Y014880
X034397Y014880
X034397Y004881
X001163Y005150
X020397Y004881
X031397Y014880
X031397Y004881
X025396Y014880
X008463Y001950
X001163Y006150
X025397Y004881
T105
X009546Y009379
X012546Y009379
X004546Y009379
X007546Y009379
X010546Y009379
X005546Y009379
X011546Y009379
X013546Y009379
X008546Y009379
X006546Y009379
T106
X013496Y014328
X004639Y014328
T00
M30
