G04 MADE WITH FRITZING*
G04 WWW.FRITZING.ORG*
G04 DOUBLE SIDED*
G04 HOLES PLATED*
G04 CONTOUR ON CENTER OF CONTOUR VECTOR*
%FSLAX26Y26*%
%MOIN*%
%ADD10C,0.049370*%
%ADD11C,0.214725*%
%ADD12C,0.147795*%
%ADD13C,0.088000*%
%ADD14C,0.085000*%
%ADD15C,0.093307*%
%ADD16C,0.080000*%
%ADD17R,0.093307X0.093307*%
%ADD18R,0.088000X0.088000*%
G04 MASK0*
%FSLAX26Y26*%
%MOIN*%
D10*
X1356000Y50800D03*
X1068000Y626801D03*
X1428000Y266800D03*
X1932000Y794801D03*
X2748000Y554800D03*
X1956000Y266800D03*
X2652000Y242800D03*
X923999Y1274801D03*
X2916000Y674801D03*
X2004000Y674801D03*
X1332000Y1370801D03*
X2940000Y242800D03*
X2196000Y314800D03*
X2364000Y314800D03*
D11*
X196325Y790767D03*
D12*
X1178050Y1432853D03*
D13*
X3201060Y1473251D03*
X3101050Y1473251D03*
X3001050Y1473251D03*
X2901050Y1473251D03*
X2801050Y1473251D03*
X2701050Y1473251D03*
X2601030Y1473251D03*
X2501030Y1473251D03*
X2401030Y1473251D03*
X2301020Y1473251D03*
X2201020Y1473251D03*
X2101020Y1473251D03*
X2001020Y1473251D03*
X1901020Y1473251D03*
X1801010Y1473251D03*
X1701010Y1473251D03*
X1601010Y1473251D03*
X1501010Y1473251D03*
X1401010Y1473251D03*
X1401050Y473360D03*
X1501050Y473360D03*
X1601050Y473360D03*
X1701050Y473360D03*
X1801050Y473360D03*
X1901050Y473360D03*
X2001060Y473360D03*
X2101060Y473360D03*
X2201060Y473360D03*
X2301060Y473360D03*
X2401080Y473360D03*
X2501080Y473360D03*
X2601080Y473360D03*
X2701090Y473360D03*
X2801090Y473360D03*
X2901090Y473360D03*
X3001090Y473360D03*
X3101090Y473360D03*
X3201090Y473360D03*
D14*
X2426290Y1282864D03*
X2826290Y1282864D03*
X1497410Y1125873D03*
X1497410Y725873D03*
X2235330Y1283898D03*
X1835330Y1283898D03*
D15*
X2448310Y128210D03*
X2548310Y128210D03*
X2752470Y127490D03*
X2852470Y127490D03*
X3024410Y126940D03*
X3124410Y126940D03*
X3224410Y126940D03*
X2045490Y130710D03*
X2145490Y130710D03*
X2245490Y130710D03*
X1755820Y128670D03*
X1855820Y128670D03*
X631406Y1451051D03*
X531406Y1451051D03*
X891467Y1451917D03*
X791467Y1451917D03*
X1458220Y128820D03*
X1558220Y128820D03*
X1164620Y128410D03*
X1264620Y128410D03*
X373900Y131530D03*
X473900Y131530D03*
X668993Y128490D03*
X768993Y128490D03*
D16*
X1184910Y942080D03*
X1084910Y942080D03*
X984906Y942080D03*
X884906Y942080D03*
X784906Y942080D03*
X684906Y942080D03*
X584906Y942080D03*
X484906Y942080D03*
X384906Y942080D03*
X284906Y942080D03*
D14*
X1734070Y1125581D03*
X1734070Y725581D03*
X1616920Y1125117D03*
X1616920Y725117D03*
X1849490Y1127949D03*
X1849490Y727949D03*
D11*
X3306560Y790767D03*
D12*
X292362Y1432837D03*
D13*
X193569Y626594D03*
X193569Y206590D03*
X924139Y626594D03*
X924139Y526590D03*
X923567Y206590D03*
X193569Y526590D03*
X193569Y106590D03*
X923567Y106590D03*
D17*
X2448314Y128206D03*
X2752474Y127486D03*
X3024414Y126936D03*
X2045494Y130706D03*
X1755824Y128666D03*
X631406Y1451051D03*
X891467Y1451917D03*
X1458224Y128816D03*
X1164624Y128406D03*
X373900Y131526D03*
X668994Y128486D03*
D18*
X924522Y526600D03*
X193522Y526600D03*
X193522Y106600D03*
X924522Y106600D03*
G04 End of Mask0*
M02*