; NON-PLATED HOLES START AT T1
; THROUGH (PLATED) HOLES START AT T100
M48
INCH
T100C0.043307
T101C0.039370
T102C0.098425
T103C0.035000
T104C0.015748
T105C0.125984
T106C0.038000
%
T100
X006689Y001284
X031244Y001269
X007914Y014519
X030244Y001269
X032244Y001269
X024483Y001282
X004739Y001315
X020454Y001307
X022454Y001307
X028524Y001274
X021454Y001307
X014582Y001288
X012646Y001284
X008914Y014519
X007689Y001284
X005314Y014510
X011646Y001284
X025483Y001282
X003739Y001315
X017558Y001286
X018558Y001286
X006314Y014510
X015582Y001288
X027524Y001274
T101
X002849Y009420
X003849Y009420
X007849Y009420
X010849Y009420
X011849Y009420
X005849Y009420
X009849Y009420
X008849Y009420
X004849Y009420
X006849Y009420
T102
X011780Y014328
X002923Y014328
T103
X018353Y012838
X016169Y007251
X017340Y011255
X014974Y011258
X022353Y012838
X016169Y011251
X017340Y007255
X018494Y007279
X014974Y007258
X028262Y012828
X024262Y012828
X018494Y011279
T104
X029160Y006748
X026520Y002427
X019560Y002667
X019320Y007948
X013560Y000507
X009239Y012748
X020040Y006748
X027480Y005548
X021960Y003147
X013320Y013708
X010680Y006268
X023640Y003147
X014280Y002667
X029400Y002427
T105
X033065Y007907
X001963Y007907
T106
X015010Y004733
X001935Y001065
X025010Y004733
X028010Y004733
X031010Y004733
X018010Y004733
X021010Y004733
X009241Y006265
X009235Y002065
X016010Y014732
X026010Y014732
X032010Y004733
X022010Y004733
X024010Y004733
X001935Y005265
X014010Y004733
X019010Y014732
X023010Y004733
X029010Y014732
X030010Y004733
X017010Y004733
X020010Y004733
X027010Y004733
X024010Y014732
X014010Y014732
X009241Y005265
X022010Y014732
X032010Y014732
X020010Y014732
X017010Y014732
X030010Y014732
X027010Y014732
X023010Y014732
X019010Y004733
X029010Y004733
X028010Y014732
X021010Y014732
X018010Y014732
X031010Y014732
X015010Y014732
X001935Y002065
X025010Y014732
X009235Y001065
X016010Y004733
X001935Y006265
X026010Y004733
T00
M30
