G04 MADE WITH FRITZING*
G04 WWW.FRITZING.ORG*
G04 DOUBLE SIDED*
G04 HOLES PLATED*
G04 CONTOUR ON CENTER OF CONTOUR VECTOR*
%FSLAX26Y26*%
%MOIN*%
%ADD10C,0.049370*%
%ADD11C,0.088000*%
%ADD12C,0.080000*%
%ADD13C,0.214725*%
%ADD14C,0.147795*%
%ADD15C,0.085000*%
%ADD16C,0.093307*%
%ADD17R,0.088000X0.088000*%
%ADD18R,0.093307X0.093307*%
G04 MASK0*
%FSLAX26Y26*%
%MOIN*%
D10*
X273584Y1528820D03*
X3907320Y89980D03*
X3586990Y102200D03*
X3548890Y351300D03*
X2893910Y351300D03*
X3486250Y175750D03*
X1740000Y386800D03*
X2916000Y746801D03*
X707999Y674801D03*
X2772000Y1082801D03*
X3060000Y1082801D03*
X1188000Y74800D03*
X3852000Y146800D03*
X3252000Y1154801D03*
X2916000Y818801D03*
X1476000Y1226801D03*
X1524000Y338800D03*
X2412000Y1274801D03*
X707999Y578801D03*
X3584310Y1495102D03*
X3517200Y1355631D03*
X3622600Y399850D03*
X3623680Y234450D03*
D11*
X116368Y615028D03*
X116368Y195030D03*
X846938Y615028D03*
X846938Y515030D03*
X846366Y195030D03*
X116368Y515030D03*
X116368Y95030D03*
X846366Y95030D03*
X3439730Y1488010D03*
X3339720Y1488010D03*
X3239720Y1488010D03*
X3139720Y1488010D03*
X3039720Y1488010D03*
X2939720Y1488010D03*
X2839700Y1488010D03*
X2739700Y1488010D03*
X2639700Y1488010D03*
X2539690Y1488010D03*
X2439690Y1488010D03*
X2339690Y1488010D03*
X2239690Y1488010D03*
X2139690Y1488010D03*
X2039680Y1488010D03*
X1939680Y1488010D03*
X1839680Y1488010D03*
X1739680Y1488010D03*
X1639680Y1488010D03*
X1639720Y488120D03*
X1739720Y488120D03*
X1839720Y488120D03*
X1939720Y488120D03*
X2039720Y488120D03*
X2139720Y488120D03*
X2239730Y488120D03*
X2339730Y488120D03*
X2439730Y488120D03*
X2539730Y488120D03*
X2639750Y488120D03*
X2739750Y488120D03*
X2839750Y488120D03*
X2939760Y488120D03*
X3039760Y488120D03*
X3139760Y488120D03*
X3239760Y488120D03*
X3339760Y488120D03*
X3439760Y488120D03*
D12*
X1354600Y937983D03*
X1254600Y937983D03*
X1154600Y937983D03*
X1054600Y937983D03*
X954602Y937983D03*
X854602Y937983D03*
X754602Y937983D03*
X654602Y937983D03*
X554602Y937983D03*
X454602Y937983D03*
D13*
X196325Y790767D03*
D14*
X1349650Y1432853D03*
D15*
X2264940Y707974D03*
X2664940Y707974D03*
X2771290Y1275820D03*
X3171290Y1275820D03*
X1205630Y1206150D03*
X1605630Y1206150D03*
X2549120Y1276424D03*
X2149120Y1276424D03*
D16*
X2183170Y179370D03*
X2083170Y179370D03*
X2438270Y179100D03*
X2338270Y179100D03*
X2793060Y180340D03*
X2693060Y180340D03*
X2593060Y180340D03*
X3757540Y1482899D03*
X3757540Y1382899D03*
X3757540Y1282899D03*
X3762610Y545400D03*
X3762610Y445400D03*
X703351Y1402311D03*
X803351Y1402311D03*
X946029Y1403105D03*
X1046030Y1403105D03*
X176019Y1025498D03*
X176019Y1125498D03*
X176562Y1268714D03*
X176562Y1368714D03*
X1928540Y179980D03*
X1828540Y179980D03*
X1422520Y182260D03*
X1322520Y182260D03*
X3148060Y180810D03*
X3048060Y180810D03*
X2948060Y180810D03*
X3402340Y180760D03*
X3302340Y180760D03*
X3757540Y1137046D03*
X3757540Y1037046D03*
X1675660Y181330D03*
X1575660Y181330D03*
X3761030Y302430D03*
X3761030Y202430D03*
X3761030Y102430D03*
X1168470Y181800D03*
X1068470Y181800D03*
X422247Y186980D03*
X322247Y186980D03*
X671727Y180860D03*
X571727Y180860D03*
D15*
X1198720Y1083270D03*
X1598720Y1083270D03*
X1959410Y1280882D03*
X1959410Y880882D03*
X1809060Y1276842D03*
X1809060Y876842D03*
D13*
X3700250Y790767D03*
D14*
X463963Y1432837D03*
D17*
X847321Y515030D03*
X116321Y515030D03*
X116321Y95030D03*
X847321Y95030D03*
D18*
X2183174Y179366D03*
X2438274Y179096D03*
X2793064Y180336D03*
X3757544Y1482899D03*
X3762614Y545397D03*
X703351Y1402311D03*
X946029Y1403105D03*
X176019Y1025498D03*
X176562Y1268714D03*
X1928544Y179976D03*
X1422524Y182256D03*
X3148064Y180806D03*
X3402344Y180756D03*
X3757544Y1137045D03*
X1675664Y181326D03*
X3761034Y302426D03*
X1168474Y181796D03*
X422247Y186976D03*
X671727Y180856D03*
G04 End of Mask0*
M02*