G04 MADE WITH FRITZING*
G04 WWW.FRITZING.ORG*
G04 DOUBLE SIDED*
G04 HOLES PLATED*
G04 CONTOUR ON CENTER OF CONTOUR VECTOR*
%FSLAX26Y26*%
%MOIN*%
%ADD10R,0.001000X0.001000*%
G04 SILK0*
%FSLAX26Y26*%
%MOIN*%
D10*
X500Y1574300D02*
X3936500Y1574300D01*
X500Y1573300D02*
X3936500Y1573300D01*
X500Y1572300D02*
X3936500Y1572300D01*
X500Y1571300D02*
X3936500Y1571300D01*
X500Y1570300D02*
X3936500Y1570300D01*
X500Y1569300D02*
X3936500Y1569300D01*
X500Y1568300D02*
X3936500Y1568300D01*
X500Y1567300D02*
X3936500Y1567300D01*
X500Y1566300D02*
X7500Y1566300D01*
X3929500Y1566300D02*
X3936500Y1566300D01*
X500Y1565300D02*
X7500Y1565300D01*
X3929500Y1565300D02*
X3936500Y1565300D01*
X500Y1564300D02*
X7500Y1564300D01*
X3929500Y1564300D02*
X3936500Y1564300D01*
X500Y1563300D02*
X7500Y1563300D01*
X3929500Y1563300D02*
X3936500Y1563300D01*
X500Y1562300D02*
X7500Y1562300D01*
X3929500Y1562300D02*
X3936500Y1562300D01*
X500Y1561300D02*
X7500Y1561300D01*
X3929500Y1561300D02*
X3936500Y1561300D01*
X500Y1560300D02*
X7500Y1560300D01*
X3929500Y1560300D02*
X3936500Y1560300D01*
X500Y1559300D02*
X7500Y1559300D01*
X3929500Y1559300D02*
X3936500Y1559300D01*
X500Y1558300D02*
X7500Y1558300D01*
X3929500Y1558300D02*
X3936500Y1558300D01*
X500Y1557300D02*
X7500Y1557300D01*
X3929500Y1557300D02*
X3936500Y1557300D01*
X500Y1556300D02*
X7500Y1556300D01*
X3929500Y1556300D02*
X3936500Y1556300D01*
X500Y1555300D02*
X7500Y1555300D01*
X3929500Y1555300D02*
X3936500Y1555300D01*
X500Y1554300D02*
X7500Y1554300D01*
X3929500Y1554300D02*
X3936500Y1554300D01*
X500Y1553300D02*
X7500Y1553300D01*
X3929500Y1553300D02*
X3936500Y1553300D01*
X500Y1552300D02*
X7500Y1552300D01*
X3929500Y1552300D02*
X3936500Y1552300D01*
X500Y1551300D02*
X7500Y1551300D01*
X3929500Y1551300D02*
X3936500Y1551300D01*
X500Y1550300D02*
X7500Y1550300D01*
X3929500Y1550300D02*
X3936500Y1550300D01*
X500Y1549300D02*
X7500Y1549300D01*
X3929500Y1549300D02*
X3936500Y1549300D01*
X500Y1548300D02*
X7500Y1548300D01*
X3929500Y1548300D02*
X3936500Y1548300D01*
X500Y1547300D02*
X7500Y1547300D01*
X3929500Y1547300D02*
X3936500Y1547300D01*
X500Y1546300D02*
X7500Y1546300D01*
X3929500Y1546300D02*
X3936500Y1546300D01*
X500Y1545300D02*
X7500Y1545300D01*
X3929500Y1545300D02*
X3936500Y1545300D01*
X500Y1544300D02*
X7500Y1544300D01*
X3929500Y1544300D02*
X3936500Y1544300D01*
X500Y1543300D02*
X7500Y1543300D01*
X3929500Y1543300D02*
X3936500Y1543300D01*
X500Y1542300D02*
X7500Y1542300D01*
X3929500Y1542300D02*
X3936500Y1542300D01*
X500Y1541300D02*
X7500Y1541300D01*
X3929500Y1541300D02*
X3936500Y1541300D01*
X500Y1540300D02*
X7500Y1540300D01*
X3929500Y1540300D02*
X3936500Y1540300D01*
X500Y1539300D02*
X7500Y1539300D01*
X3929500Y1539300D02*
X3936500Y1539300D01*
X500Y1538300D02*
X7500Y1538300D01*
X3929500Y1538300D02*
X3936500Y1538300D01*
X500Y1537300D02*
X7500Y1537300D01*
X3929500Y1537300D02*
X3936500Y1537300D01*
X500Y1536300D02*
X7500Y1536300D01*
X3929500Y1536300D02*
X3936500Y1536300D01*
X500Y1535300D02*
X7500Y1535300D01*
X3929500Y1535300D02*
X3936500Y1535300D01*
X500Y1534300D02*
X7500Y1534300D01*
X3929500Y1534300D02*
X3936500Y1534300D01*
X500Y1533300D02*
X7500Y1533300D01*
X3929500Y1533300D02*
X3936500Y1533300D01*
X500Y1532300D02*
X7500Y1532300D01*
X3929500Y1532300D02*
X3936500Y1532300D01*
X500Y1531300D02*
X7500Y1531300D01*
X3929500Y1531300D02*
X3936500Y1531300D01*
X500Y1530300D02*
X7500Y1530300D01*
X3929500Y1530300D02*
X3936500Y1530300D01*
X500Y1529300D02*
X7500Y1529300D01*
X3929500Y1529300D02*
X3936500Y1529300D01*
X500Y1528300D02*
X7500Y1528300D01*
X3929500Y1528300D02*
X3936500Y1528300D01*
X500Y1527300D02*
X7500Y1527300D01*
X3929500Y1527300D02*
X3936500Y1527300D01*
X500Y1526300D02*
X7500Y1526300D01*
X3929500Y1526300D02*
X3936500Y1526300D01*
X500Y1525300D02*
X7500Y1525300D01*
X3929500Y1525300D02*
X3936500Y1525300D01*
X500Y1524300D02*
X7500Y1524300D01*
X3929500Y1524300D02*
X3936500Y1524300D01*
X500Y1523300D02*
X7500Y1523300D01*
X3929500Y1523300D02*
X3936500Y1523300D01*
X500Y1522300D02*
X7500Y1522300D01*
X3929500Y1522300D02*
X3936500Y1522300D01*
X500Y1521300D02*
X7500Y1521300D01*
X3929500Y1521300D02*
X3936500Y1521300D01*
X500Y1520300D02*
X7500Y1520300D01*
X3929500Y1520300D02*
X3936500Y1520300D01*
X500Y1519300D02*
X7500Y1519300D01*
X3929500Y1519300D02*
X3936500Y1519300D01*
X500Y1518300D02*
X7500Y1518300D01*
X3929500Y1518300D02*
X3936500Y1518300D01*
X500Y1517300D02*
X7500Y1517300D01*
X3929500Y1517300D02*
X3936500Y1517300D01*
X500Y1516300D02*
X7500Y1516300D01*
X3929500Y1516300D02*
X3936500Y1516300D01*
X500Y1515300D02*
X7500Y1515300D01*
X3929500Y1515300D02*
X3936500Y1515300D01*
X500Y1514300D02*
X7500Y1514300D01*
X3929500Y1514300D02*
X3936500Y1514300D01*
X500Y1513300D02*
X7500Y1513300D01*
X3929500Y1513300D02*
X3936500Y1513300D01*
X500Y1512300D02*
X7500Y1512300D01*
X3929500Y1512300D02*
X3936500Y1512300D01*
X500Y1511300D02*
X7500Y1511300D01*
X3929500Y1511300D02*
X3936500Y1511300D01*
X500Y1510300D02*
X7500Y1510300D01*
X3929500Y1510300D02*
X3936500Y1510300D01*
X500Y1509300D02*
X7500Y1509300D01*
X3929500Y1509300D02*
X3936500Y1509300D01*
X500Y1508300D02*
X7500Y1508300D01*
X3929500Y1508300D02*
X3936500Y1508300D01*
X500Y1507300D02*
X7500Y1507300D01*
X3929500Y1507300D02*
X3936500Y1507300D01*
X500Y1506300D02*
X7500Y1506300D01*
X3929500Y1506300D02*
X3936500Y1506300D01*
X500Y1505300D02*
X7500Y1505300D01*
X3929500Y1505300D02*
X3936500Y1505300D01*
X500Y1504300D02*
X7500Y1504300D01*
X3929500Y1504300D02*
X3936500Y1504300D01*
X500Y1503300D02*
X7500Y1503300D01*
X3929500Y1503300D02*
X3936500Y1503300D01*
X500Y1502300D02*
X7500Y1502300D01*
X3929500Y1502300D02*
X3936500Y1502300D01*
X500Y1501300D02*
X7500Y1501300D01*
X3929500Y1501300D02*
X3936500Y1501300D01*
X500Y1500300D02*
X7500Y1500300D01*
X3929500Y1500300D02*
X3936500Y1500300D01*
X500Y1499300D02*
X7500Y1499300D01*
X3929500Y1499300D02*
X3936500Y1499300D01*
X500Y1498300D02*
X7500Y1498300D01*
X3929500Y1498300D02*
X3936500Y1498300D01*
X500Y1497300D02*
X7500Y1497300D01*
X3929500Y1497300D02*
X3936500Y1497300D01*
X500Y1496300D02*
X7500Y1496300D01*
X3929500Y1496300D02*
X3936500Y1496300D01*
X500Y1495300D02*
X7500Y1495300D01*
X3929500Y1495300D02*
X3936500Y1495300D01*
X500Y1494300D02*
X7500Y1494300D01*
X3929500Y1494300D02*
X3936500Y1494300D01*
X500Y1493300D02*
X7500Y1493300D01*
X3929500Y1493300D02*
X3936500Y1493300D01*
X500Y1492300D02*
X7500Y1492300D01*
X3929500Y1492300D02*
X3936500Y1492300D01*
X500Y1491300D02*
X7500Y1491300D01*
X3929500Y1491300D02*
X3936500Y1491300D01*
X500Y1490300D02*
X7500Y1490300D01*
X3929500Y1490300D02*
X3936500Y1490300D01*
X500Y1489300D02*
X7500Y1489300D01*
X3929500Y1489300D02*
X3936500Y1489300D01*
X500Y1488300D02*
X7500Y1488300D01*
X3929500Y1488300D02*
X3936500Y1488300D01*
X500Y1487300D02*
X7500Y1487300D01*
X3929500Y1487300D02*
X3936500Y1487300D01*
X500Y1486300D02*
X7500Y1486300D01*
X3929500Y1486300D02*
X3936500Y1486300D01*
X500Y1485300D02*
X7500Y1485300D01*
X3929500Y1485300D02*
X3936500Y1485300D01*
X500Y1484300D02*
X7500Y1484300D01*
X3929500Y1484300D02*
X3936500Y1484300D01*
X500Y1483300D02*
X7500Y1483300D01*
X3929500Y1483300D02*
X3936500Y1483300D01*
X500Y1482300D02*
X7500Y1482300D01*
X3929500Y1482300D02*
X3936500Y1482300D01*
X500Y1481300D02*
X7500Y1481300D01*
X3929500Y1481300D02*
X3936500Y1481300D01*
X500Y1480300D02*
X7500Y1480300D01*
X3929500Y1480300D02*
X3936500Y1480300D01*
X500Y1479300D02*
X7500Y1479300D01*
X3929500Y1479300D02*
X3936500Y1479300D01*
X500Y1478300D02*
X7500Y1478300D01*
X3929500Y1478300D02*
X3936500Y1478300D01*
X500Y1477300D02*
X7500Y1477300D01*
X3929500Y1477300D02*
X3936500Y1477300D01*
X500Y1476300D02*
X7500Y1476300D01*
X3929500Y1476300D02*
X3936500Y1476300D01*
X500Y1475300D02*
X7500Y1475300D01*
X3929500Y1475300D02*
X3936500Y1475300D01*
X500Y1474300D02*
X7500Y1474300D01*
X3929500Y1474300D02*
X3936500Y1474300D01*
X500Y1473300D02*
X7500Y1473300D01*
X3929500Y1473300D02*
X3936500Y1473300D01*
X500Y1472300D02*
X7500Y1472300D01*
X3929500Y1472300D02*
X3936500Y1472300D01*
X500Y1471300D02*
X7500Y1471300D01*
X3929500Y1471300D02*
X3936500Y1471300D01*
X500Y1470300D02*
X7500Y1470300D01*
X3929500Y1470300D02*
X3936500Y1470300D01*
X500Y1469300D02*
X7500Y1469300D01*
X3929500Y1469300D02*
X3936500Y1469300D01*
X500Y1468300D02*
X7500Y1468300D01*
X3929500Y1468300D02*
X3936500Y1468300D01*
X500Y1467300D02*
X7500Y1467300D01*
X3929500Y1467300D02*
X3936500Y1467300D01*
X500Y1466300D02*
X7500Y1466300D01*
X3929500Y1466300D02*
X3936500Y1466300D01*
X500Y1465300D02*
X7500Y1465300D01*
X3929500Y1465300D02*
X3936500Y1465300D01*
X500Y1464300D02*
X7500Y1464300D01*
X3929500Y1464300D02*
X3936500Y1464300D01*
X500Y1463300D02*
X7500Y1463300D01*
X3929500Y1463300D02*
X3936500Y1463300D01*
X500Y1462300D02*
X7500Y1462300D01*
X3929500Y1462300D02*
X3936500Y1462300D01*
X500Y1461300D02*
X7500Y1461300D01*
X3929500Y1461300D02*
X3936500Y1461300D01*
X500Y1460300D02*
X7500Y1460300D01*
X3929500Y1460300D02*
X3936500Y1460300D01*
X500Y1459300D02*
X7500Y1459300D01*
X3929500Y1459300D02*
X3936500Y1459300D01*
X500Y1458300D02*
X7500Y1458300D01*
X3929500Y1458300D02*
X3936500Y1458300D01*
X500Y1457300D02*
X7500Y1457300D01*
X3929500Y1457300D02*
X3936500Y1457300D01*
X500Y1456300D02*
X7500Y1456300D01*
X3929500Y1456300D02*
X3936500Y1456300D01*
X500Y1455300D02*
X7500Y1455300D01*
X3929500Y1455300D02*
X3936500Y1455300D01*
X500Y1454300D02*
X7500Y1454300D01*
X3929500Y1454300D02*
X3936500Y1454300D01*
X500Y1453300D02*
X7500Y1453300D01*
X3929500Y1453300D02*
X3936500Y1453300D01*
X500Y1452300D02*
X7500Y1452300D01*
X3929500Y1452300D02*
X3936500Y1452300D01*
X500Y1451300D02*
X7500Y1451300D01*
X3929500Y1451300D02*
X3936500Y1451300D01*
X500Y1450300D02*
X7500Y1450300D01*
X3929500Y1450300D02*
X3936500Y1450300D01*
X500Y1449300D02*
X7500Y1449300D01*
X3929500Y1449300D02*
X3936500Y1449300D01*
X500Y1448300D02*
X7500Y1448300D01*
X3929500Y1448300D02*
X3936500Y1448300D01*
X500Y1447300D02*
X7500Y1447300D01*
X3929500Y1447300D02*
X3936500Y1447300D01*
X500Y1446300D02*
X7500Y1446300D01*
X3929500Y1446300D02*
X3936500Y1446300D01*
X500Y1445300D02*
X7500Y1445300D01*
X3929500Y1445300D02*
X3936500Y1445300D01*
X500Y1444300D02*
X7500Y1444300D01*
X3929500Y1444300D02*
X3936500Y1444300D01*
X500Y1443300D02*
X7500Y1443300D01*
X3929500Y1443300D02*
X3936500Y1443300D01*
X500Y1442300D02*
X7500Y1442300D01*
X3929500Y1442300D02*
X3936500Y1442300D01*
X500Y1441300D02*
X7500Y1441300D01*
X3929500Y1441300D02*
X3936500Y1441300D01*
X500Y1440300D02*
X7500Y1440300D01*
X3929500Y1440300D02*
X3936500Y1440300D01*
X500Y1439300D02*
X7500Y1439300D01*
X3929500Y1439300D02*
X3936500Y1439300D01*
X500Y1438300D02*
X7500Y1438300D01*
X3929500Y1438300D02*
X3936500Y1438300D01*
X500Y1437300D02*
X7500Y1437300D01*
X3929500Y1437300D02*
X3936500Y1437300D01*
X500Y1436300D02*
X7500Y1436300D01*
X3929500Y1436300D02*
X3936500Y1436300D01*
X500Y1435300D02*
X7500Y1435300D01*
X3929500Y1435300D02*
X3936500Y1435300D01*
X500Y1434300D02*
X7500Y1434300D01*
X3929500Y1434300D02*
X3936500Y1434300D01*
X500Y1433300D02*
X7500Y1433300D01*
X3929500Y1433300D02*
X3936500Y1433300D01*
X500Y1432300D02*
X7500Y1432300D01*
X3929500Y1432300D02*
X3936500Y1432300D01*
X500Y1431300D02*
X7500Y1431300D01*
X3929500Y1431300D02*
X3936500Y1431300D01*
X500Y1430300D02*
X7500Y1430300D01*
X3929500Y1430300D02*
X3936500Y1430300D01*
X500Y1429300D02*
X7500Y1429300D01*
X3929500Y1429300D02*
X3936500Y1429300D01*
X500Y1428300D02*
X7500Y1428300D01*
X3929500Y1428300D02*
X3936500Y1428300D01*
X500Y1427300D02*
X7500Y1427300D01*
X3929500Y1427300D02*
X3936500Y1427300D01*
X500Y1426300D02*
X7500Y1426300D01*
X3929500Y1426300D02*
X3936500Y1426300D01*
X500Y1425300D02*
X7500Y1425300D01*
X3929500Y1425300D02*
X3936500Y1425300D01*
X500Y1424300D02*
X7500Y1424300D01*
X3929500Y1424300D02*
X3936500Y1424300D01*
X500Y1423300D02*
X7500Y1423300D01*
X3929500Y1423300D02*
X3936500Y1423300D01*
X500Y1422300D02*
X7500Y1422300D01*
X3929500Y1422300D02*
X3936500Y1422300D01*
X500Y1421300D02*
X7500Y1421300D01*
X3929500Y1421300D02*
X3936500Y1421300D01*
X500Y1420300D02*
X7500Y1420300D01*
X3929500Y1420300D02*
X3936500Y1420300D01*
X500Y1419300D02*
X7500Y1419300D01*
X3929500Y1419300D02*
X3936500Y1419300D01*
X500Y1418300D02*
X7500Y1418300D01*
X3929500Y1418300D02*
X3936500Y1418300D01*
X500Y1417300D02*
X7500Y1417300D01*
X3929500Y1417300D02*
X3936500Y1417300D01*
X500Y1416300D02*
X7500Y1416300D01*
X3929500Y1416300D02*
X3936500Y1416300D01*
X500Y1415300D02*
X7500Y1415300D01*
X3929500Y1415300D02*
X3936500Y1415300D01*
X500Y1414300D02*
X7500Y1414300D01*
X3929500Y1414300D02*
X3936500Y1414300D01*
X500Y1413300D02*
X7500Y1413300D01*
X3929500Y1413300D02*
X3936500Y1413300D01*
X500Y1412300D02*
X7500Y1412300D01*
X3929500Y1412300D02*
X3936500Y1412300D01*
X500Y1411300D02*
X7500Y1411300D01*
X3929500Y1411300D02*
X3936500Y1411300D01*
X500Y1410300D02*
X7500Y1410300D01*
X3929500Y1410300D02*
X3936500Y1410300D01*
X500Y1409300D02*
X7500Y1409300D01*
X3929500Y1409300D02*
X3936500Y1409300D01*
X500Y1408300D02*
X7500Y1408300D01*
X3929500Y1408300D02*
X3936500Y1408300D01*
X500Y1407300D02*
X7500Y1407300D01*
X3929500Y1407300D02*
X3936500Y1407300D01*
X500Y1406300D02*
X7500Y1406300D01*
X3929500Y1406300D02*
X3936500Y1406300D01*
X500Y1405300D02*
X7500Y1405300D01*
X3929500Y1405300D02*
X3936500Y1405300D01*
X500Y1404300D02*
X7500Y1404300D01*
X3929500Y1404300D02*
X3936500Y1404300D01*
X500Y1403300D02*
X7500Y1403300D01*
X3929500Y1403300D02*
X3936500Y1403300D01*
X500Y1402300D02*
X7500Y1402300D01*
X3929500Y1402300D02*
X3936500Y1402300D01*
X500Y1401300D02*
X7500Y1401300D01*
X3929500Y1401300D02*
X3936500Y1401300D01*
X500Y1400300D02*
X7500Y1400300D01*
X3929500Y1400300D02*
X3936500Y1400300D01*
X500Y1399300D02*
X7500Y1399300D01*
X3929500Y1399300D02*
X3936500Y1399300D01*
X500Y1398300D02*
X7500Y1398300D01*
X3929500Y1398300D02*
X3936500Y1398300D01*
X500Y1397300D02*
X7500Y1397300D01*
X3929500Y1397300D02*
X3936500Y1397300D01*
X500Y1396300D02*
X7500Y1396300D01*
X3929500Y1396300D02*
X3936500Y1396300D01*
X500Y1395300D02*
X7500Y1395300D01*
X3929500Y1395300D02*
X3936500Y1395300D01*
X500Y1394300D02*
X7500Y1394300D01*
X3929500Y1394300D02*
X3936500Y1394300D01*
X500Y1393300D02*
X7500Y1393300D01*
X3929500Y1393300D02*
X3936500Y1393300D01*
X500Y1392300D02*
X7500Y1392300D01*
X3929500Y1392300D02*
X3936500Y1392300D01*
X500Y1391300D02*
X7500Y1391300D01*
X3929500Y1391300D02*
X3936500Y1391300D01*
X500Y1390300D02*
X7500Y1390300D01*
X3929500Y1390300D02*
X3936500Y1390300D01*
X500Y1389300D02*
X7500Y1389300D01*
X3929500Y1389300D02*
X3936500Y1389300D01*
X500Y1388300D02*
X7500Y1388300D01*
X3929500Y1388300D02*
X3936500Y1388300D01*
X500Y1387300D02*
X7500Y1387300D01*
X3929500Y1387300D02*
X3936500Y1387300D01*
X500Y1386300D02*
X7500Y1386300D01*
X3929500Y1386300D02*
X3936500Y1386300D01*
X500Y1385300D02*
X7500Y1385300D01*
X3929500Y1385300D02*
X3936500Y1385300D01*
X500Y1384300D02*
X7500Y1384300D01*
X3929500Y1384300D02*
X3936500Y1384300D01*
X500Y1383300D02*
X7500Y1383300D01*
X3929500Y1383300D02*
X3936500Y1383300D01*
X500Y1382300D02*
X7500Y1382300D01*
X3929500Y1382300D02*
X3936500Y1382300D01*
X500Y1381300D02*
X7500Y1381300D01*
X3929500Y1381300D02*
X3936500Y1381300D01*
X500Y1380300D02*
X7500Y1380300D01*
X3929500Y1380300D02*
X3936500Y1380300D01*
X500Y1379300D02*
X7500Y1379300D01*
X3929500Y1379300D02*
X3936500Y1379300D01*
X500Y1378300D02*
X7500Y1378300D01*
X3929500Y1378300D02*
X3936500Y1378300D01*
X500Y1377300D02*
X7500Y1377300D01*
X3929500Y1377300D02*
X3936500Y1377300D01*
X500Y1376300D02*
X7500Y1376300D01*
X3929500Y1376300D02*
X3936500Y1376300D01*
X500Y1375300D02*
X7500Y1375300D01*
X3929500Y1375300D02*
X3936500Y1375300D01*
X500Y1374300D02*
X7500Y1374300D01*
X3929500Y1374300D02*
X3936500Y1374300D01*
X500Y1373300D02*
X7500Y1373300D01*
X3929500Y1373300D02*
X3936500Y1373300D01*
X500Y1372300D02*
X7500Y1372300D01*
X3929500Y1372300D02*
X3936500Y1372300D01*
X500Y1371300D02*
X7500Y1371300D01*
X3929500Y1371300D02*
X3936500Y1371300D01*
X500Y1370300D02*
X7500Y1370300D01*
X3929500Y1370300D02*
X3936500Y1370300D01*
X500Y1369300D02*
X7500Y1369300D01*
X3929500Y1369300D02*
X3936500Y1369300D01*
X500Y1368300D02*
X7500Y1368300D01*
X3929500Y1368300D02*
X3936500Y1368300D01*
X500Y1367300D02*
X7500Y1367300D01*
X3929500Y1367300D02*
X3936500Y1367300D01*
X500Y1366300D02*
X7500Y1366300D01*
X3929500Y1366300D02*
X3936500Y1366300D01*
X500Y1365300D02*
X7500Y1365300D01*
X3929500Y1365300D02*
X3936500Y1365300D01*
X500Y1364300D02*
X7500Y1364300D01*
X3929500Y1364300D02*
X3936500Y1364300D01*
X500Y1363300D02*
X7500Y1363300D01*
X3929500Y1363300D02*
X3936500Y1363300D01*
X500Y1362300D02*
X7500Y1362300D01*
X3929500Y1362300D02*
X3936500Y1362300D01*
X500Y1361300D02*
X7500Y1361300D01*
X3929500Y1361300D02*
X3936500Y1361300D01*
X500Y1360300D02*
X7500Y1360300D01*
X3929500Y1360300D02*
X3936500Y1360300D01*
X500Y1359300D02*
X7500Y1359300D01*
X3929500Y1359300D02*
X3936500Y1359300D01*
X500Y1358300D02*
X7500Y1358300D01*
X3929500Y1358300D02*
X3936500Y1358300D01*
X500Y1357300D02*
X7500Y1357300D01*
X3929500Y1357300D02*
X3936500Y1357300D01*
X500Y1356300D02*
X7500Y1356300D01*
X3929500Y1356300D02*
X3936500Y1356300D01*
X500Y1355300D02*
X7500Y1355300D01*
X3929500Y1355300D02*
X3936500Y1355300D01*
X500Y1354300D02*
X7500Y1354300D01*
X3929500Y1354300D02*
X3936500Y1354300D01*
X500Y1353300D02*
X7500Y1353300D01*
X3929500Y1353300D02*
X3936500Y1353300D01*
X500Y1352300D02*
X7500Y1352300D01*
X3929500Y1352300D02*
X3936500Y1352300D01*
X500Y1351300D02*
X7500Y1351300D01*
X3929500Y1351300D02*
X3936500Y1351300D01*
X500Y1350300D02*
X7500Y1350300D01*
X3929500Y1350300D02*
X3936500Y1350300D01*
X500Y1349300D02*
X7500Y1349300D01*
X3929500Y1349300D02*
X3936500Y1349300D01*
X500Y1348300D02*
X7500Y1348300D01*
X3929500Y1348300D02*
X3936500Y1348300D01*
X500Y1347300D02*
X7500Y1347300D01*
X3929500Y1347300D02*
X3936500Y1347300D01*
X500Y1346300D02*
X7500Y1346300D01*
X3929500Y1346300D02*
X3936500Y1346300D01*
X500Y1345300D02*
X7500Y1345300D01*
X3929500Y1345300D02*
X3936500Y1345300D01*
X500Y1344300D02*
X7500Y1344300D01*
X3929500Y1344300D02*
X3936500Y1344300D01*
X500Y1343300D02*
X7500Y1343300D01*
X3929500Y1343300D02*
X3936500Y1343300D01*
X500Y1342300D02*
X7500Y1342300D01*
X3929500Y1342300D02*
X3936500Y1342300D01*
X500Y1341300D02*
X7500Y1341300D01*
X3929500Y1341300D02*
X3936500Y1341300D01*
X500Y1340300D02*
X7500Y1340300D01*
X3929500Y1340300D02*
X3936500Y1340300D01*
X500Y1339300D02*
X7500Y1339300D01*
X3929500Y1339300D02*
X3936500Y1339300D01*
X500Y1338300D02*
X7500Y1338300D01*
X3929500Y1338300D02*
X3936500Y1338300D01*
X500Y1337300D02*
X7500Y1337300D01*
X3929500Y1337300D02*
X3936500Y1337300D01*
X500Y1336300D02*
X7500Y1336300D01*
X3929500Y1336300D02*
X3936500Y1336300D01*
X500Y1335300D02*
X7500Y1335300D01*
X3929500Y1335300D02*
X3936500Y1335300D01*
X500Y1334300D02*
X7500Y1334300D01*
X3929500Y1334300D02*
X3936500Y1334300D01*
X500Y1333300D02*
X7500Y1333300D01*
X3929500Y1333300D02*
X3936500Y1333300D01*
X500Y1332300D02*
X7500Y1332300D01*
X3929500Y1332300D02*
X3936500Y1332300D01*
X500Y1331300D02*
X7500Y1331300D01*
X3929500Y1331300D02*
X3936500Y1331300D01*
X500Y1330300D02*
X7500Y1330300D01*
X3929500Y1330300D02*
X3936500Y1330300D01*
X500Y1329300D02*
X7500Y1329300D01*
X3929500Y1329300D02*
X3936500Y1329300D01*
X500Y1328300D02*
X7500Y1328300D01*
X3929500Y1328300D02*
X3936500Y1328300D01*
X500Y1327300D02*
X7500Y1327300D01*
X3929500Y1327300D02*
X3936500Y1327300D01*
X500Y1326300D02*
X7500Y1326300D01*
X3929500Y1326300D02*
X3936500Y1326300D01*
X500Y1325300D02*
X7500Y1325300D01*
X3929500Y1325300D02*
X3936500Y1325300D01*
X500Y1324300D02*
X7500Y1324300D01*
X3929500Y1324300D02*
X3936500Y1324300D01*
X500Y1323300D02*
X7500Y1323300D01*
X3929500Y1323300D02*
X3936500Y1323300D01*
X500Y1322300D02*
X7500Y1322300D01*
X3929500Y1322300D02*
X3936500Y1322300D01*
X500Y1321300D02*
X7500Y1321300D01*
X3929500Y1321300D02*
X3936500Y1321300D01*
X500Y1320300D02*
X7500Y1320300D01*
X3929500Y1320300D02*
X3936500Y1320300D01*
X500Y1319300D02*
X7500Y1319300D01*
X3929500Y1319300D02*
X3936500Y1319300D01*
X500Y1318300D02*
X7500Y1318300D01*
X3929500Y1318300D02*
X3936500Y1318300D01*
X500Y1317300D02*
X7500Y1317300D01*
X3929500Y1317300D02*
X3936500Y1317300D01*
X500Y1316300D02*
X7500Y1316300D01*
X3929500Y1316300D02*
X3936500Y1316300D01*
X500Y1315300D02*
X7500Y1315300D01*
X3929500Y1315300D02*
X3936500Y1315300D01*
X500Y1314300D02*
X7500Y1314300D01*
X3929500Y1314300D02*
X3936500Y1314300D01*
X500Y1313300D02*
X7500Y1313300D01*
X3929500Y1313300D02*
X3936500Y1313300D01*
X500Y1312300D02*
X7500Y1312300D01*
X3929500Y1312300D02*
X3936500Y1312300D01*
X500Y1311300D02*
X7500Y1311300D01*
X3929500Y1311300D02*
X3936500Y1311300D01*
X500Y1310300D02*
X7500Y1310300D01*
X3929500Y1310300D02*
X3936500Y1310300D01*
X500Y1309300D02*
X7500Y1309300D01*
X3929500Y1309300D02*
X3936500Y1309300D01*
X500Y1308300D02*
X7500Y1308300D01*
X3929500Y1308300D02*
X3936500Y1308300D01*
X500Y1307300D02*
X7500Y1307300D01*
X3929500Y1307300D02*
X3936500Y1307300D01*
X500Y1306300D02*
X7500Y1306300D01*
X3929500Y1306300D02*
X3936500Y1306300D01*
X500Y1305300D02*
X7500Y1305300D01*
X3929500Y1305300D02*
X3936500Y1305300D01*
X500Y1304300D02*
X7500Y1304300D01*
X3929500Y1304300D02*
X3936500Y1304300D01*
X500Y1303300D02*
X7500Y1303300D01*
X3929500Y1303300D02*
X3936500Y1303300D01*
X500Y1302300D02*
X7500Y1302300D01*
X3929500Y1302300D02*
X3936500Y1302300D01*
X500Y1301300D02*
X7500Y1301300D01*
X3929500Y1301300D02*
X3936500Y1301300D01*
X500Y1300300D02*
X7500Y1300300D01*
X3929500Y1300300D02*
X3936500Y1300300D01*
X500Y1299300D02*
X7500Y1299300D01*
X3929500Y1299300D02*
X3936500Y1299300D01*
X500Y1298300D02*
X7500Y1298300D01*
X3929500Y1298300D02*
X3936500Y1298300D01*
X500Y1297300D02*
X7500Y1297300D01*
X3929500Y1297300D02*
X3936500Y1297300D01*
X500Y1296300D02*
X7500Y1296300D01*
X3929500Y1296300D02*
X3936500Y1296300D01*
X500Y1295300D02*
X7500Y1295300D01*
X3929500Y1295300D02*
X3936500Y1295300D01*
X500Y1294300D02*
X7500Y1294300D01*
X3929500Y1294300D02*
X3936500Y1294300D01*
X500Y1293300D02*
X7500Y1293300D01*
X3929500Y1293300D02*
X3936500Y1293300D01*
X500Y1292300D02*
X7500Y1292300D01*
X3929500Y1292300D02*
X3936500Y1292300D01*
X500Y1291300D02*
X7500Y1291300D01*
X3929500Y1291300D02*
X3936500Y1291300D01*
X500Y1290300D02*
X7500Y1290300D01*
X3929500Y1290300D02*
X3936500Y1290300D01*
X500Y1289300D02*
X7500Y1289300D01*
X3929500Y1289300D02*
X3936500Y1289300D01*
X500Y1288300D02*
X7500Y1288300D01*
X3929500Y1288300D02*
X3936500Y1288300D01*
X500Y1287300D02*
X7500Y1287300D01*
X3929500Y1287300D02*
X3936500Y1287300D01*
X500Y1286300D02*
X7500Y1286300D01*
X3929500Y1286300D02*
X3936500Y1286300D01*
X500Y1285300D02*
X7500Y1285300D01*
X3929500Y1285300D02*
X3936500Y1285300D01*
X500Y1284300D02*
X7500Y1284300D01*
X3929500Y1284300D02*
X3936500Y1284300D01*
X500Y1283300D02*
X7500Y1283300D01*
X3929500Y1283300D02*
X3936500Y1283300D01*
X500Y1282300D02*
X7500Y1282300D01*
X3929500Y1282300D02*
X3936500Y1282300D01*
X500Y1281300D02*
X7500Y1281300D01*
X3929500Y1281300D02*
X3936500Y1281300D01*
X500Y1280300D02*
X7500Y1280300D01*
X3929500Y1280300D02*
X3936500Y1280300D01*
X500Y1279300D02*
X7500Y1279300D01*
X3929500Y1279300D02*
X3936500Y1279300D01*
X500Y1278300D02*
X7500Y1278300D01*
X3929500Y1278300D02*
X3936500Y1278300D01*
X500Y1277300D02*
X7500Y1277300D01*
X3929500Y1277300D02*
X3936500Y1277300D01*
X500Y1276300D02*
X7500Y1276300D01*
X3929500Y1276300D02*
X3936500Y1276300D01*
X500Y1275300D02*
X7500Y1275300D01*
X3929500Y1275300D02*
X3936500Y1275300D01*
X500Y1274300D02*
X7500Y1274300D01*
X3929500Y1274300D02*
X3936500Y1274300D01*
X500Y1273300D02*
X7500Y1273300D01*
X3929500Y1273300D02*
X3936500Y1273300D01*
X500Y1272300D02*
X7500Y1272300D01*
X3929500Y1272300D02*
X3936500Y1272300D01*
X500Y1271300D02*
X7500Y1271300D01*
X3929500Y1271300D02*
X3936500Y1271300D01*
X500Y1270300D02*
X7500Y1270300D01*
X3929500Y1270300D02*
X3936500Y1270300D01*
X500Y1269300D02*
X7500Y1269300D01*
X3929500Y1269300D02*
X3936500Y1269300D01*
X500Y1268300D02*
X7500Y1268300D01*
X3929500Y1268300D02*
X3936500Y1268300D01*
X500Y1267300D02*
X7500Y1267300D01*
X3929500Y1267300D02*
X3936500Y1267300D01*
X500Y1266300D02*
X7500Y1266300D01*
X3929500Y1266300D02*
X3936500Y1266300D01*
X500Y1265300D02*
X7500Y1265300D01*
X3929500Y1265300D02*
X3936500Y1265300D01*
X500Y1264300D02*
X7500Y1264300D01*
X3929500Y1264300D02*
X3936500Y1264300D01*
X500Y1263300D02*
X7500Y1263300D01*
X3929500Y1263300D02*
X3936500Y1263300D01*
X500Y1262300D02*
X7500Y1262300D01*
X3929500Y1262300D02*
X3936500Y1262300D01*
X500Y1261300D02*
X7500Y1261300D01*
X3929500Y1261300D02*
X3936500Y1261300D01*
X500Y1260300D02*
X7500Y1260300D01*
X3929500Y1260300D02*
X3936500Y1260300D01*
X500Y1259300D02*
X7500Y1259300D01*
X3929500Y1259300D02*
X3936500Y1259300D01*
X500Y1258300D02*
X7500Y1258300D01*
X3929500Y1258300D02*
X3936500Y1258300D01*
X500Y1257300D02*
X7500Y1257300D01*
X3929500Y1257300D02*
X3936500Y1257300D01*
X500Y1256300D02*
X7500Y1256300D01*
X3929500Y1256300D02*
X3936500Y1256300D01*
X500Y1255300D02*
X7500Y1255300D01*
X3929500Y1255300D02*
X3936500Y1255300D01*
X500Y1254300D02*
X7500Y1254300D01*
X3929500Y1254300D02*
X3936500Y1254300D01*
X500Y1253300D02*
X7500Y1253300D01*
X3929500Y1253300D02*
X3936500Y1253300D01*
X500Y1252300D02*
X7500Y1252300D01*
X3929500Y1252300D02*
X3936500Y1252300D01*
X500Y1251300D02*
X7500Y1251300D01*
X3929500Y1251300D02*
X3936500Y1251300D01*
X500Y1250300D02*
X7500Y1250300D01*
X3929500Y1250300D02*
X3936500Y1250300D01*
X500Y1249300D02*
X7500Y1249300D01*
X3929500Y1249300D02*
X3936500Y1249300D01*
X500Y1248300D02*
X7500Y1248300D01*
X3929500Y1248300D02*
X3936500Y1248300D01*
X500Y1247300D02*
X7500Y1247300D01*
X3929500Y1247300D02*
X3936500Y1247300D01*
X500Y1246300D02*
X7500Y1246300D01*
X3929500Y1246300D02*
X3936500Y1246300D01*
X500Y1245300D02*
X7500Y1245300D01*
X3929500Y1245300D02*
X3936500Y1245300D01*
X500Y1244300D02*
X7500Y1244300D01*
X3929500Y1244300D02*
X3936500Y1244300D01*
X500Y1243300D02*
X7500Y1243300D01*
X3929500Y1243300D02*
X3936500Y1243300D01*
X500Y1242300D02*
X7500Y1242300D01*
X3929500Y1242300D02*
X3936500Y1242300D01*
X500Y1241300D02*
X7500Y1241300D01*
X3929500Y1241300D02*
X3936500Y1241300D01*
X500Y1240300D02*
X7500Y1240300D01*
X3929500Y1240300D02*
X3936500Y1240300D01*
X500Y1239300D02*
X7500Y1239300D01*
X3929500Y1239300D02*
X3936500Y1239300D01*
X500Y1238300D02*
X7500Y1238300D01*
X3929500Y1238300D02*
X3936500Y1238300D01*
X500Y1237300D02*
X7500Y1237300D01*
X3929500Y1237300D02*
X3936500Y1237300D01*
X500Y1236300D02*
X7500Y1236300D01*
X3929500Y1236300D02*
X3936500Y1236300D01*
X500Y1235300D02*
X7500Y1235300D01*
X3929500Y1235300D02*
X3936500Y1235300D01*
X500Y1234300D02*
X7500Y1234300D01*
X3929500Y1234300D02*
X3936500Y1234300D01*
X500Y1233300D02*
X7500Y1233300D01*
X3929500Y1233300D02*
X3936500Y1233300D01*
X500Y1232300D02*
X7500Y1232300D01*
X3929500Y1232300D02*
X3936500Y1232300D01*
X500Y1231300D02*
X7500Y1231300D01*
X3929500Y1231300D02*
X3936500Y1231300D01*
X500Y1230300D02*
X7500Y1230300D01*
X3929500Y1230300D02*
X3936500Y1230300D01*
X500Y1229300D02*
X7500Y1229300D01*
X3929500Y1229300D02*
X3936500Y1229300D01*
X500Y1228300D02*
X7500Y1228300D01*
X3929500Y1228300D02*
X3936500Y1228300D01*
X500Y1227300D02*
X7500Y1227300D01*
X3929500Y1227300D02*
X3936500Y1227300D01*
X500Y1226300D02*
X7500Y1226300D01*
X3929500Y1226300D02*
X3936500Y1226300D01*
X500Y1225300D02*
X7500Y1225300D01*
X3929500Y1225300D02*
X3936500Y1225300D01*
X500Y1224300D02*
X7500Y1224300D01*
X3929500Y1224300D02*
X3936500Y1224300D01*
X500Y1223300D02*
X7500Y1223300D01*
X3929500Y1223300D02*
X3936500Y1223300D01*
X500Y1222300D02*
X7500Y1222300D01*
X3929500Y1222300D02*
X3936500Y1222300D01*
X500Y1221300D02*
X7500Y1221300D01*
X3929500Y1221300D02*
X3936500Y1221300D01*
X500Y1220300D02*
X7500Y1220300D01*
X3929500Y1220300D02*
X3936500Y1220300D01*
X500Y1219300D02*
X7500Y1219300D01*
X3929500Y1219300D02*
X3936500Y1219300D01*
X500Y1218300D02*
X7500Y1218300D01*
X3929500Y1218300D02*
X3936500Y1218300D01*
X500Y1217300D02*
X7500Y1217300D01*
X3929500Y1217300D02*
X3936500Y1217300D01*
X500Y1216300D02*
X7500Y1216300D01*
X3929500Y1216300D02*
X3936500Y1216300D01*
X500Y1215300D02*
X7500Y1215300D01*
X3929500Y1215300D02*
X3936500Y1215300D01*
X500Y1214300D02*
X7500Y1214300D01*
X3929500Y1214300D02*
X3936500Y1214300D01*
X500Y1213300D02*
X7500Y1213300D01*
X3929500Y1213300D02*
X3936500Y1213300D01*
X500Y1212300D02*
X7500Y1212300D01*
X3929500Y1212300D02*
X3936500Y1212300D01*
X500Y1211300D02*
X7500Y1211300D01*
X3929500Y1211300D02*
X3936500Y1211300D01*
X500Y1210300D02*
X7500Y1210300D01*
X3929500Y1210300D02*
X3936500Y1210300D01*
X500Y1209300D02*
X7500Y1209300D01*
X3929500Y1209300D02*
X3936500Y1209300D01*
X500Y1208300D02*
X7500Y1208300D01*
X3929500Y1208300D02*
X3936500Y1208300D01*
X500Y1207300D02*
X7500Y1207300D01*
X3929500Y1207300D02*
X3936500Y1207300D01*
X500Y1206300D02*
X7500Y1206300D01*
X3929500Y1206300D02*
X3936500Y1206300D01*
X500Y1205300D02*
X7500Y1205300D01*
X3929500Y1205300D02*
X3936500Y1205300D01*
X500Y1204300D02*
X7500Y1204300D01*
X3929500Y1204300D02*
X3936500Y1204300D01*
X500Y1203300D02*
X7500Y1203300D01*
X3929500Y1203300D02*
X3936500Y1203300D01*
X500Y1202300D02*
X7500Y1202300D01*
X3929500Y1202300D02*
X3936500Y1202300D01*
X500Y1201300D02*
X7500Y1201300D01*
X3929500Y1201300D02*
X3936500Y1201300D01*
X500Y1200300D02*
X7500Y1200300D01*
X3929500Y1200300D02*
X3936500Y1200300D01*
X500Y1199300D02*
X7500Y1199300D01*
X3929500Y1199300D02*
X3936500Y1199300D01*
X500Y1198300D02*
X7500Y1198300D01*
X3929500Y1198300D02*
X3936500Y1198300D01*
X500Y1197300D02*
X7500Y1197300D01*
X3929500Y1197300D02*
X3936500Y1197300D01*
X500Y1196300D02*
X7500Y1196300D01*
X3929500Y1196300D02*
X3936500Y1196300D01*
X500Y1195300D02*
X7500Y1195300D01*
X3929500Y1195300D02*
X3936500Y1195300D01*
X500Y1194300D02*
X7500Y1194300D01*
X3929500Y1194300D02*
X3936500Y1194300D01*
X500Y1193300D02*
X7500Y1193300D01*
X3929500Y1193300D02*
X3936500Y1193300D01*
X500Y1192300D02*
X7500Y1192300D01*
X3929500Y1192300D02*
X3936500Y1192300D01*
X500Y1191300D02*
X7500Y1191300D01*
X3929500Y1191300D02*
X3936500Y1191300D01*
X500Y1190300D02*
X7500Y1190300D01*
X3929500Y1190300D02*
X3936500Y1190300D01*
X500Y1189300D02*
X7500Y1189300D01*
X3929500Y1189300D02*
X3936500Y1189300D01*
X500Y1188300D02*
X7500Y1188300D01*
X3929500Y1188300D02*
X3936500Y1188300D01*
X500Y1187300D02*
X7500Y1187300D01*
X3929500Y1187300D02*
X3936500Y1187300D01*
X500Y1186300D02*
X7500Y1186300D01*
X3929500Y1186300D02*
X3936500Y1186300D01*
X500Y1185300D02*
X7500Y1185300D01*
X3929500Y1185300D02*
X3936500Y1185300D01*
X500Y1184300D02*
X7500Y1184300D01*
X3929500Y1184300D02*
X3936500Y1184300D01*
X500Y1183300D02*
X7500Y1183300D01*
X3929500Y1183300D02*
X3936500Y1183300D01*
X500Y1182300D02*
X7500Y1182300D01*
X3929500Y1182300D02*
X3936500Y1182300D01*
X500Y1181300D02*
X7500Y1181300D01*
X3929500Y1181300D02*
X3936500Y1181300D01*
X500Y1180300D02*
X7500Y1180300D01*
X3929500Y1180300D02*
X3936500Y1180300D01*
X500Y1179300D02*
X7500Y1179300D01*
X3929500Y1179300D02*
X3936500Y1179300D01*
X500Y1178300D02*
X7500Y1178300D01*
X3929500Y1178300D02*
X3936500Y1178300D01*
X500Y1177300D02*
X7500Y1177300D01*
X3929500Y1177300D02*
X3936500Y1177300D01*
X500Y1176300D02*
X7500Y1176300D01*
X3929500Y1176300D02*
X3936500Y1176300D01*
X500Y1175300D02*
X7500Y1175300D01*
X3929500Y1175300D02*
X3936500Y1175300D01*
X500Y1174300D02*
X7500Y1174300D01*
X3929500Y1174300D02*
X3936500Y1174300D01*
X500Y1173300D02*
X7500Y1173300D01*
X3929500Y1173300D02*
X3936500Y1173300D01*
X500Y1172300D02*
X7500Y1172300D01*
X3929500Y1172300D02*
X3936500Y1172300D01*
X500Y1171300D02*
X7500Y1171300D01*
X3929500Y1171300D02*
X3936500Y1171300D01*
X500Y1170300D02*
X7500Y1170300D01*
X3929500Y1170300D02*
X3936500Y1170300D01*
X500Y1169300D02*
X7500Y1169300D01*
X3929500Y1169300D02*
X3936500Y1169300D01*
X500Y1168300D02*
X7500Y1168300D01*
X3929500Y1168300D02*
X3936500Y1168300D01*
X500Y1167300D02*
X7500Y1167300D01*
X3929500Y1167300D02*
X3936500Y1167300D01*
X500Y1166300D02*
X7500Y1166300D01*
X3929500Y1166300D02*
X3936500Y1166300D01*
X500Y1165300D02*
X7500Y1165300D01*
X3929500Y1165300D02*
X3936500Y1165300D01*
X500Y1164300D02*
X7500Y1164300D01*
X3929500Y1164300D02*
X3936500Y1164300D01*
X500Y1163300D02*
X7500Y1163300D01*
X3929500Y1163300D02*
X3936500Y1163300D01*
X500Y1162300D02*
X7500Y1162300D01*
X3929500Y1162300D02*
X3936500Y1162300D01*
X500Y1161300D02*
X7500Y1161300D01*
X3929500Y1161300D02*
X3936500Y1161300D01*
X500Y1160300D02*
X7500Y1160300D01*
X3929500Y1160300D02*
X3936500Y1160300D01*
X500Y1159300D02*
X7500Y1159300D01*
X3929500Y1159300D02*
X3936500Y1159300D01*
X500Y1158300D02*
X7500Y1158300D01*
X3929500Y1158300D02*
X3936500Y1158300D01*
X500Y1157300D02*
X7500Y1157300D01*
X3929500Y1157300D02*
X3936500Y1157300D01*
X500Y1156300D02*
X7500Y1156300D01*
X3929500Y1156300D02*
X3936500Y1156300D01*
X500Y1155300D02*
X7500Y1155300D01*
X3929500Y1155300D02*
X3936500Y1155300D01*
X500Y1154300D02*
X7500Y1154300D01*
X3929500Y1154300D02*
X3936500Y1154300D01*
X500Y1153300D02*
X7500Y1153300D01*
X3929500Y1153300D02*
X3936500Y1153300D01*
X500Y1152300D02*
X7500Y1152300D01*
X3929500Y1152300D02*
X3936500Y1152300D01*
X500Y1151300D02*
X7500Y1151300D01*
X3929500Y1151300D02*
X3936500Y1151300D01*
X500Y1150300D02*
X7500Y1150300D01*
X3929500Y1150300D02*
X3936500Y1150300D01*
X500Y1149300D02*
X7500Y1149300D01*
X3929500Y1149300D02*
X3936500Y1149300D01*
X500Y1148300D02*
X7500Y1148300D01*
X3929500Y1148300D02*
X3936500Y1148300D01*
X500Y1147300D02*
X7500Y1147300D01*
X3929500Y1147300D02*
X3936500Y1147300D01*
X500Y1146300D02*
X7500Y1146300D01*
X3929500Y1146300D02*
X3936500Y1146300D01*
X500Y1145300D02*
X7500Y1145300D01*
X3929500Y1145300D02*
X3936500Y1145300D01*
X500Y1144300D02*
X7500Y1144300D01*
X3929500Y1144300D02*
X3936500Y1144300D01*
X500Y1143300D02*
X7500Y1143300D01*
X3929500Y1143300D02*
X3936500Y1143300D01*
X500Y1142300D02*
X7500Y1142300D01*
X3929500Y1142300D02*
X3936500Y1142300D01*
X500Y1141300D02*
X7500Y1141300D01*
X3929500Y1141300D02*
X3936500Y1141300D01*
X500Y1140300D02*
X7500Y1140300D01*
X3929500Y1140300D02*
X3936500Y1140300D01*
X500Y1139300D02*
X7500Y1139300D01*
X3929500Y1139300D02*
X3936500Y1139300D01*
X500Y1138300D02*
X7500Y1138300D01*
X3929500Y1138300D02*
X3936500Y1138300D01*
X500Y1137300D02*
X7500Y1137300D01*
X3929500Y1137300D02*
X3936500Y1137300D01*
X500Y1136300D02*
X7500Y1136300D01*
X3929500Y1136300D02*
X3936500Y1136300D01*
X500Y1135300D02*
X7500Y1135300D01*
X3929500Y1135300D02*
X3936500Y1135300D01*
X500Y1134300D02*
X7500Y1134300D01*
X3929500Y1134300D02*
X3936500Y1134300D01*
X500Y1133300D02*
X7500Y1133300D01*
X3929500Y1133300D02*
X3936500Y1133300D01*
X500Y1132300D02*
X7500Y1132300D01*
X3929500Y1132300D02*
X3936500Y1132300D01*
X500Y1131300D02*
X7500Y1131300D01*
X3929500Y1131300D02*
X3936500Y1131300D01*
X500Y1130300D02*
X7500Y1130300D01*
X3929500Y1130300D02*
X3936500Y1130300D01*
X500Y1129300D02*
X7500Y1129300D01*
X3929500Y1129300D02*
X3936500Y1129300D01*
X500Y1128300D02*
X7500Y1128300D01*
X3929500Y1128300D02*
X3936500Y1128300D01*
X500Y1127300D02*
X7500Y1127300D01*
X3929500Y1127300D02*
X3936500Y1127300D01*
X500Y1126300D02*
X7500Y1126300D01*
X3929500Y1126300D02*
X3936500Y1126300D01*
X500Y1125300D02*
X7500Y1125300D01*
X3929500Y1125300D02*
X3936500Y1125300D01*
X500Y1124300D02*
X7500Y1124300D01*
X3929500Y1124300D02*
X3936500Y1124300D01*
X500Y1123300D02*
X7500Y1123300D01*
X3929500Y1123300D02*
X3936500Y1123300D01*
X500Y1122300D02*
X7500Y1122300D01*
X3929500Y1122300D02*
X3936500Y1122300D01*
X500Y1121300D02*
X7500Y1121300D01*
X3929500Y1121300D02*
X3936500Y1121300D01*
X500Y1120300D02*
X7500Y1120300D01*
X3929500Y1120300D02*
X3936500Y1120300D01*
X500Y1119300D02*
X7500Y1119300D01*
X3929500Y1119300D02*
X3936500Y1119300D01*
X500Y1118300D02*
X7500Y1118300D01*
X3929500Y1118300D02*
X3936500Y1118300D01*
X500Y1117300D02*
X7500Y1117300D01*
X3929500Y1117300D02*
X3936500Y1117300D01*
X500Y1116300D02*
X7500Y1116300D01*
X3929500Y1116300D02*
X3936500Y1116300D01*
X500Y1115300D02*
X7500Y1115300D01*
X3929500Y1115300D02*
X3936500Y1115300D01*
X500Y1114300D02*
X7500Y1114300D01*
X3929500Y1114300D02*
X3936500Y1114300D01*
X500Y1113300D02*
X7500Y1113300D01*
X3929500Y1113300D02*
X3936500Y1113300D01*
X500Y1112300D02*
X7500Y1112300D01*
X3929500Y1112300D02*
X3936500Y1112300D01*
X500Y1111300D02*
X7500Y1111300D01*
X3929500Y1111300D02*
X3936500Y1111300D01*
X500Y1110300D02*
X7500Y1110300D01*
X3929500Y1110300D02*
X3936500Y1110300D01*
X500Y1109300D02*
X7500Y1109300D01*
X3929500Y1109300D02*
X3936500Y1109300D01*
X500Y1108300D02*
X7500Y1108300D01*
X3929500Y1108300D02*
X3936500Y1108300D01*
X500Y1107300D02*
X7500Y1107300D01*
X3929500Y1107300D02*
X3936500Y1107300D01*
X500Y1106300D02*
X7500Y1106300D01*
X3929500Y1106300D02*
X3936500Y1106300D01*
X500Y1105300D02*
X7500Y1105300D01*
X3929500Y1105300D02*
X3936500Y1105300D01*
X500Y1104300D02*
X7500Y1104300D01*
X3929500Y1104300D02*
X3936500Y1104300D01*
X500Y1103300D02*
X7500Y1103300D01*
X3929500Y1103300D02*
X3936500Y1103300D01*
X500Y1102300D02*
X7500Y1102300D01*
X3929500Y1102300D02*
X3936500Y1102300D01*
X500Y1101300D02*
X7500Y1101300D01*
X3929500Y1101300D02*
X3936500Y1101300D01*
X500Y1100300D02*
X7500Y1100300D01*
X3929500Y1100300D02*
X3936500Y1100300D01*
X500Y1099300D02*
X7500Y1099300D01*
X3929500Y1099300D02*
X3936500Y1099300D01*
X500Y1098300D02*
X7500Y1098300D01*
X3929500Y1098300D02*
X3936500Y1098300D01*
X500Y1097300D02*
X7500Y1097300D01*
X3929500Y1097300D02*
X3936500Y1097300D01*
X500Y1096300D02*
X7500Y1096300D01*
X3929500Y1096300D02*
X3936500Y1096300D01*
X500Y1095300D02*
X7500Y1095300D01*
X3929500Y1095300D02*
X3936500Y1095300D01*
X500Y1094300D02*
X7500Y1094300D01*
X3929500Y1094300D02*
X3936500Y1094300D01*
X500Y1093300D02*
X7500Y1093300D01*
X3929500Y1093300D02*
X3936500Y1093300D01*
X500Y1092300D02*
X7500Y1092300D01*
X3929500Y1092300D02*
X3936500Y1092300D01*
X500Y1091300D02*
X7500Y1091300D01*
X3929500Y1091300D02*
X3936500Y1091300D01*
X500Y1090300D02*
X7500Y1090300D01*
X3929500Y1090300D02*
X3936500Y1090300D01*
X500Y1089300D02*
X7500Y1089300D01*
X3929500Y1089300D02*
X3936500Y1089300D01*
X500Y1088300D02*
X7500Y1088300D01*
X3929500Y1088300D02*
X3936500Y1088300D01*
X500Y1087300D02*
X7500Y1087300D01*
X3929500Y1087300D02*
X3936500Y1087300D01*
X500Y1086300D02*
X7500Y1086300D01*
X3929500Y1086300D02*
X3936500Y1086300D01*
X500Y1085300D02*
X7500Y1085300D01*
X3929500Y1085300D02*
X3936500Y1085300D01*
X500Y1084300D02*
X7500Y1084300D01*
X3929500Y1084300D02*
X3936500Y1084300D01*
X500Y1083300D02*
X7500Y1083300D01*
X3929500Y1083300D02*
X3936500Y1083300D01*
X500Y1082300D02*
X7500Y1082300D01*
X3929500Y1082300D02*
X3936500Y1082300D01*
X500Y1081300D02*
X7500Y1081300D01*
X3929500Y1081300D02*
X3936500Y1081300D01*
X500Y1080300D02*
X7500Y1080300D01*
X3929500Y1080300D02*
X3936500Y1080300D01*
X500Y1079300D02*
X7500Y1079300D01*
X3929500Y1079300D02*
X3936500Y1079300D01*
X500Y1078300D02*
X7500Y1078300D01*
X3929500Y1078300D02*
X3936500Y1078300D01*
X500Y1077300D02*
X7500Y1077300D01*
X3929500Y1077300D02*
X3936500Y1077300D01*
X500Y1076300D02*
X7500Y1076300D01*
X3929500Y1076300D02*
X3936500Y1076300D01*
X500Y1075300D02*
X7500Y1075300D01*
X3929500Y1075300D02*
X3936500Y1075300D01*
X500Y1074300D02*
X7500Y1074300D01*
X3929500Y1074300D02*
X3936500Y1074300D01*
X500Y1073300D02*
X7500Y1073300D01*
X3929500Y1073300D02*
X3936500Y1073300D01*
X500Y1072300D02*
X7500Y1072300D01*
X3929500Y1072300D02*
X3936500Y1072300D01*
X500Y1071300D02*
X7500Y1071300D01*
X3929500Y1071300D02*
X3936500Y1071300D01*
X500Y1070300D02*
X7500Y1070300D01*
X3929500Y1070300D02*
X3936500Y1070300D01*
X500Y1069300D02*
X7500Y1069300D01*
X3929500Y1069300D02*
X3936500Y1069300D01*
X500Y1068300D02*
X7500Y1068300D01*
X3929500Y1068300D02*
X3936500Y1068300D01*
X500Y1067300D02*
X7500Y1067300D01*
X3929500Y1067300D02*
X3936500Y1067300D01*
X500Y1066300D02*
X7500Y1066300D01*
X3929500Y1066300D02*
X3936500Y1066300D01*
X500Y1065300D02*
X7500Y1065300D01*
X3929500Y1065300D02*
X3936500Y1065300D01*
X500Y1064300D02*
X7500Y1064300D01*
X3929500Y1064300D02*
X3936500Y1064300D01*
X500Y1063300D02*
X7500Y1063300D01*
X3929500Y1063300D02*
X3936500Y1063300D01*
X500Y1062300D02*
X7500Y1062300D01*
X3929500Y1062300D02*
X3936500Y1062300D01*
X500Y1061300D02*
X7500Y1061300D01*
X3929500Y1061300D02*
X3936500Y1061300D01*
X500Y1060300D02*
X7500Y1060300D01*
X3929500Y1060300D02*
X3936500Y1060300D01*
X500Y1059300D02*
X7500Y1059300D01*
X3929500Y1059300D02*
X3936500Y1059300D01*
X500Y1058300D02*
X7500Y1058300D01*
X3929500Y1058300D02*
X3936500Y1058300D01*
X500Y1057300D02*
X7500Y1057300D01*
X3929500Y1057300D02*
X3936500Y1057300D01*
X500Y1056300D02*
X7500Y1056300D01*
X3929500Y1056300D02*
X3936500Y1056300D01*
X500Y1055300D02*
X7500Y1055300D01*
X3929500Y1055300D02*
X3936500Y1055300D01*
X500Y1054300D02*
X7500Y1054300D01*
X3929500Y1054300D02*
X3936500Y1054300D01*
X500Y1053300D02*
X7500Y1053300D01*
X3929500Y1053300D02*
X3936500Y1053300D01*
X500Y1052300D02*
X7500Y1052300D01*
X3929500Y1052300D02*
X3936500Y1052300D01*
X500Y1051300D02*
X7500Y1051300D01*
X3929500Y1051300D02*
X3936500Y1051300D01*
X500Y1050300D02*
X7500Y1050300D01*
X3929500Y1050300D02*
X3936500Y1050300D01*
X500Y1049300D02*
X7500Y1049300D01*
X3929500Y1049300D02*
X3936500Y1049300D01*
X500Y1048300D02*
X7500Y1048300D01*
X3929500Y1048300D02*
X3936500Y1048300D01*
X500Y1047300D02*
X7500Y1047300D01*
X3929500Y1047300D02*
X3936500Y1047300D01*
X500Y1046300D02*
X7500Y1046300D01*
X3929500Y1046300D02*
X3936500Y1046300D01*
X500Y1045300D02*
X7500Y1045300D01*
X3929500Y1045300D02*
X3936500Y1045300D01*
X500Y1044300D02*
X7500Y1044300D01*
X3929500Y1044300D02*
X3936500Y1044300D01*
X500Y1043300D02*
X7500Y1043300D01*
X3929500Y1043300D02*
X3936500Y1043300D01*
X500Y1042300D02*
X7500Y1042300D01*
X3929500Y1042300D02*
X3936500Y1042300D01*
X500Y1041300D02*
X7500Y1041300D01*
X3929500Y1041300D02*
X3936500Y1041300D01*
X500Y1040300D02*
X7500Y1040300D01*
X3929500Y1040300D02*
X3936500Y1040300D01*
X500Y1039300D02*
X7500Y1039300D01*
X3929500Y1039300D02*
X3936500Y1039300D01*
X500Y1038300D02*
X7500Y1038300D01*
X3929500Y1038300D02*
X3936500Y1038300D01*
X500Y1037300D02*
X7500Y1037300D01*
X3929500Y1037300D02*
X3936500Y1037300D01*
X500Y1036300D02*
X7500Y1036300D01*
X3929500Y1036300D02*
X3936500Y1036300D01*
X500Y1035300D02*
X7500Y1035300D01*
X3929500Y1035300D02*
X3936500Y1035300D01*
X500Y1034300D02*
X7500Y1034300D01*
X3929500Y1034300D02*
X3936500Y1034300D01*
X500Y1033300D02*
X7500Y1033300D01*
X3929500Y1033300D02*
X3936500Y1033300D01*
X500Y1032300D02*
X7500Y1032300D01*
X3929500Y1032300D02*
X3936500Y1032300D01*
X500Y1031300D02*
X7500Y1031300D01*
X3929500Y1031300D02*
X3936500Y1031300D01*
X500Y1030300D02*
X7500Y1030300D01*
X3929500Y1030300D02*
X3936500Y1030300D01*
X500Y1029300D02*
X7500Y1029300D01*
X3929500Y1029300D02*
X3936500Y1029300D01*
X500Y1028300D02*
X7500Y1028300D01*
X3929500Y1028300D02*
X3936500Y1028300D01*
X500Y1027300D02*
X7500Y1027300D01*
X3929500Y1027300D02*
X3936500Y1027300D01*
X500Y1026300D02*
X7500Y1026300D01*
X3929500Y1026300D02*
X3936500Y1026300D01*
X500Y1025300D02*
X7500Y1025300D01*
X3929500Y1025300D02*
X3936500Y1025300D01*
X500Y1024300D02*
X7500Y1024300D01*
X3929500Y1024300D02*
X3936500Y1024300D01*
X500Y1023300D02*
X7500Y1023300D01*
X3929500Y1023300D02*
X3936500Y1023300D01*
X500Y1022300D02*
X7500Y1022300D01*
X3929500Y1022300D02*
X3936500Y1022300D01*
X500Y1021300D02*
X7500Y1021300D01*
X3929500Y1021300D02*
X3936500Y1021300D01*
X500Y1020300D02*
X7500Y1020300D01*
X3929500Y1020300D02*
X3936500Y1020300D01*
X500Y1019300D02*
X7500Y1019300D01*
X3929500Y1019300D02*
X3936500Y1019300D01*
X500Y1018300D02*
X7500Y1018300D01*
X3929500Y1018300D02*
X3936500Y1018300D01*
X500Y1017300D02*
X7500Y1017300D01*
X3929500Y1017300D02*
X3936500Y1017300D01*
X500Y1016300D02*
X7500Y1016300D01*
X3929500Y1016300D02*
X3936500Y1016300D01*
X500Y1015300D02*
X7500Y1015300D01*
X3929500Y1015300D02*
X3936500Y1015300D01*
X500Y1014300D02*
X7500Y1014300D01*
X3929500Y1014300D02*
X3936500Y1014300D01*
X500Y1013300D02*
X7500Y1013300D01*
X3929500Y1013300D02*
X3936500Y1013300D01*
X500Y1012300D02*
X7500Y1012300D01*
X3929500Y1012300D02*
X3936500Y1012300D01*
X500Y1011300D02*
X7500Y1011300D01*
X3929500Y1011300D02*
X3936500Y1011300D01*
X500Y1010300D02*
X7500Y1010300D01*
X3929500Y1010300D02*
X3936500Y1010300D01*
X500Y1009300D02*
X7500Y1009300D01*
X3929500Y1009300D02*
X3936500Y1009300D01*
X500Y1008300D02*
X7500Y1008300D01*
X3929500Y1008300D02*
X3936500Y1008300D01*
X500Y1007300D02*
X7500Y1007300D01*
X3929500Y1007300D02*
X3936500Y1007300D01*
X500Y1006300D02*
X7500Y1006300D01*
X3929500Y1006300D02*
X3936500Y1006300D01*
X500Y1005300D02*
X7500Y1005300D01*
X3929500Y1005300D02*
X3936500Y1005300D01*
X500Y1004300D02*
X7500Y1004300D01*
X3929500Y1004300D02*
X3936500Y1004300D01*
X500Y1003300D02*
X7500Y1003300D01*
X3929500Y1003300D02*
X3936500Y1003300D01*
X500Y1002300D02*
X7500Y1002300D01*
X3929500Y1002300D02*
X3936500Y1002300D01*
X500Y1001300D02*
X7500Y1001300D01*
X3929500Y1001300D02*
X3936500Y1001300D01*
X500Y1000300D02*
X7500Y1000300D01*
X3929500Y1000300D02*
X3936500Y1000300D01*
X500Y999300D02*
X7500Y999300D01*
X3929500Y999300D02*
X3936500Y999300D01*
X500Y998300D02*
X7500Y998300D01*
X3929500Y998300D02*
X3936500Y998300D01*
X500Y997300D02*
X7500Y997300D01*
X3929500Y997300D02*
X3936500Y997300D01*
X500Y996300D02*
X7500Y996300D01*
X3929500Y996300D02*
X3936500Y996300D01*
X500Y995300D02*
X7500Y995300D01*
X3929500Y995300D02*
X3936500Y995300D01*
X500Y994300D02*
X7500Y994300D01*
X3929500Y994300D02*
X3936500Y994300D01*
X500Y993300D02*
X7500Y993300D01*
X3929500Y993300D02*
X3936500Y993300D01*
X500Y992300D02*
X7500Y992300D01*
X3929500Y992300D02*
X3936500Y992300D01*
X500Y991300D02*
X7500Y991300D01*
X3929500Y991300D02*
X3936500Y991300D01*
X500Y990300D02*
X7500Y990300D01*
X3929500Y990300D02*
X3936500Y990300D01*
X500Y989300D02*
X7500Y989300D01*
X3929500Y989300D02*
X3936500Y989300D01*
X500Y988300D02*
X7500Y988300D01*
X3929500Y988300D02*
X3936500Y988300D01*
X500Y987300D02*
X7500Y987300D01*
X3929500Y987300D02*
X3936500Y987300D01*
X500Y986300D02*
X7500Y986300D01*
X3929500Y986300D02*
X3936500Y986300D01*
X500Y985300D02*
X7500Y985300D01*
X3929500Y985300D02*
X3936500Y985300D01*
X500Y984300D02*
X7500Y984300D01*
X3929500Y984300D02*
X3936500Y984300D01*
X500Y983300D02*
X7500Y983300D01*
X3929500Y983300D02*
X3936500Y983300D01*
X500Y982300D02*
X7500Y982300D01*
X3929500Y982300D02*
X3936500Y982300D01*
X500Y981300D02*
X7500Y981300D01*
X3929500Y981300D02*
X3936500Y981300D01*
X500Y980300D02*
X7500Y980300D01*
X3929500Y980300D02*
X3936500Y980300D01*
X500Y979300D02*
X7500Y979300D01*
X3929500Y979300D02*
X3936500Y979300D01*
X500Y978300D02*
X7500Y978300D01*
X3929500Y978300D02*
X3936500Y978300D01*
X500Y977300D02*
X7500Y977300D01*
X3929500Y977300D02*
X3936500Y977300D01*
X500Y976300D02*
X7500Y976300D01*
X3929500Y976300D02*
X3936500Y976300D01*
X500Y975300D02*
X7500Y975300D01*
X3929500Y975300D02*
X3936500Y975300D01*
X500Y974300D02*
X7500Y974300D01*
X3929500Y974300D02*
X3936500Y974300D01*
X500Y973300D02*
X7500Y973300D01*
X3929500Y973300D02*
X3936500Y973300D01*
X500Y972300D02*
X7500Y972300D01*
X3929500Y972300D02*
X3936500Y972300D01*
X500Y971300D02*
X7500Y971300D01*
X3929500Y971300D02*
X3936500Y971300D01*
X500Y970300D02*
X7500Y970300D01*
X3929500Y970300D02*
X3936500Y970300D01*
X500Y969300D02*
X7500Y969300D01*
X3929500Y969300D02*
X3936500Y969300D01*
X500Y968300D02*
X7500Y968300D01*
X3929500Y968300D02*
X3936500Y968300D01*
X500Y967300D02*
X7500Y967300D01*
X3929500Y967300D02*
X3936500Y967300D01*
X500Y966300D02*
X7500Y966300D01*
X3929500Y966300D02*
X3936500Y966300D01*
X500Y965300D02*
X7500Y965300D01*
X3929500Y965300D02*
X3936500Y965300D01*
X500Y964300D02*
X7500Y964300D01*
X3929500Y964300D02*
X3936500Y964300D01*
X500Y963300D02*
X7500Y963300D01*
X3929500Y963300D02*
X3936500Y963300D01*
X500Y962300D02*
X7500Y962300D01*
X3929500Y962300D02*
X3936500Y962300D01*
X500Y961300D02*
X7500Y961300D01*
X3929500Y961300D02*
X3936500Y961300D01*
X500Y960300D02*
X7500Y960300D01*
X3929500Y960300D02*
X3936500Y960300D01*
X500Y959300D02*
X7500Y959300D01*
X3929500Y959300D02*
X3936500Y959300D01*
X500Y958300D02*
X7500Y958300D01*
X3929500Y958300D02*
X3936500Y958300D01*
X500Y957300D02*
X7500Y957300D01*
X3929500Y957300D02*
X3936500Y957300D01*
X500Y956300D02*
X7500Y956300D01*
X3929500Y956300D02*
X3936500Y956300D01*
X500Y955300D02*
X7500Y955300D01*
X3929500Y955300D02*
X3936500Y955300D01*
X500Y954300D02*
X7500Y954300D01*
X3929500Y954300D02*
X3936500Y954300D01*
X500Y953300D02*
X7500Y953300D01*
X3929500Y953300D02*
X3936500Y953300D01*
X500Y952300D02*
X7500Y952300D01*
X3929500Y952300D02*
X3936500Y952300D01*
X500Y951300D02*
X7500Y951300D01*
X3929500Y951300D02*
X3936500Y951300D01*
X500Y950300D02*
X7500Y950300D01*
X3929500Y950300D02*
X3936500Y950300D01*
X500Y949300D02*
X7500Y949300D01*
X3929500Y949300D02*
X3936500Y949300D01*
X500Y948300D02*
X7500Y948300D01*
X3929500Y948300D02*
X3936500Y948300D01*
X500Y947300D02*
X7500Y947300D01*
X3929500Y947300D02*
X3936500Y947300D01*
X500Y946300D02*
X7500Y946300D01*
X3929500Y946300D02*
X3936500Y946300D01*
X500Y945300D02*
X7500Y945300D01*
X3929500Y945300D02*
X3936500Y945300D01*
X500Y944300D02*
X7500Y944300D01*
X3929500Y944300D02*
X3936500Y944300D01*
X500Y943300D02*
X7500Y943300D01*
X3929500Y943300D02*
X3936500Y943300D01*
X500Y942300D02*
X7500Y942300D01*
X3929500Y942300D02*
X3936500Y942300D01*
X500Y941300D02*
X7500Y941300D01*
X3929500Y941300D02*
X3936500Y941300D01*
X500Y940300D02*
X7500Y940300D01*
X3929500Y940300D02*
X3936500Y940300D01*
X500Y939300D02*
X7500Y939300D01*
X3929500Y939300D02*
X3936500Y939300D01*
X500Y938300D02*
X7500Y938300D01*
X3929500Y938300D02*
X3936500Y938300D01*
X500Y937300D02*
X7500Y937300D01*
X3929500Y937300D02*
X3936500Y937300D01*
X500Y936300D02*
X7500Y936300D01*
X3929500Y936300D02*
X3936500Y936300D01*
X500Y935300D02*
X7500Y935300D01*
X3929500Y935300D02*
X3936500Y935300D01*
X500Y934300D02*
X7500Y934300D01*
X3929500Y934300D02*
X3936500Y934300D01*
X500Y933300D02*
X7500Y933300D01*
X3929500Y933300D02*
X3936500Y933300D01*
X500Y932300D02*
X7500Y932300D01*
X3929500Y932300D02*
X3936500Y932300D01*
X500Y931300D02*
X7500Y931300D01*
X3929500Y931300D02*
X3936500Y931300D01*
X500Y930300D02*
X7500Y930300D01*
X3929500Y930300D02*
X3936500Y930300D01*
X500Y929300D02*
X7500Y929300D01*
X3929500Y929300D02*
X3936500Y929300D01*
X500Y928300D02*
X7500Y928300D01*
X3929500Y928300D02*
X3936500Y928300D01*
X500Y927300D02*
X7500Y927300D01*
X3929500Y927300D02*
X3936500Y927300D01*
X500Y926300D02*
X7500Y926300D01*
X3929500Y926300D02*
X3936500Y926300D01*
X500Y925300D02*
X7500Y925300D01*
X3929500Y925300D02*
X3936500Y925300D01*
X500Y924300D02*
X7500Y924300D01*
X3929500Y924300D02*
X3936500Y924300D01*
X500Y923300D02*
X7500Y923300D01*
X3929500Y923300D02*
X3936500Y923300D01*
X500Y922300D02*
X7500Y922300D01*
X3929500Y922300D02*
X3936500Y922300D01*
X500Y921300D02*
X7500Y921300D01*
X3929500Y921300D02*
X3936500Y921300D01*
X500Y920300D02*
X7500Y920300D01*
X3929500Y920300D02*
X3936500Y920300D01*
X500Y919300D02*
X7500Y919300D01*
X3929500Y919300D02*
X3936500Y919300D01*
X500Y918300D02*
X7500Y918300D01*
X3929500Y918300D02*
X3936500Y918300D01*
X500Y917300D02*
X7500Y917300D01*
X3929500Y917300D02*
X3936500Y917300D01*
X500Y916300D02*
X7500Y916300D01*
X3929500Y916300D02*
X3936500Y916300D01*
X500Y915300D02*
X7500Y915300D01*
X3929500Y915300D02*
X3936500Y915300D01*
X500Y914300D02*
X7500Y914300D01*
X3929500Y914300D02*
X3936500Y914300D01*
X500Y913300D02*
X7500Y913300D01*
X3929500Y913300D02*
X3936500Y913300D01*
X500Y912300D02*
X7500Y912300D01*
X3929500Y912300D02*
X3936500Y912300D01*
X500Y911300D02*
X7500Y911300D01*
X3929500Y911300D02*
X3936500Y911300D01*
X500Y910300D02*
X7500Y910300D01*
X3929500Y910300D02*
X3936500Y910300D01*
X500Y909300D02*
X7500Y909300D01*
X3929500Y909300D02*
X3936500Y909300D01*
X500Y908300D02*
X7500Y908300D01*
X3929500Y908300D02*
X3936500Y908300D01*
X500Y907300D02*
X7500Y907300D01*
X3929500Y907300D02*
X3936500Y907300D01*
X500Y906300D02*
X7500Y906300D01*
X3929500Y906300D02*
X3936500Y906300D01*
X500Y905300D02*
X7500Y905300D01*
X3929500Y905300D02*
X3936500Y905300D01*
X500Y904300D02*
X7500Y904300D01*
X3929500Y904300D02*
X3936500Y904300D01*
X500Y903300D02*
X7500Y903300D01*
X3929500Y903300D02*
X3936500Y903300D01*
X500Y902300D02*
X7500Y902300D01*
X3929500Y902300D02*
X3936500Y902300D01*
X500Y901300D02*
X7500Y901300D01*
X3929500Y901300D02*
X3936500Y901300D01*
X500Y900300D02*
X7500Y900300D01*
X3929500Y900300D02*
X3936500Y900300D01*
X500Y899300D02*
X7500Y899300D01*
X3929500Y899300D02*
X3936500Y899300D01*
X500Y898300D02*
X7500Y898300D01*
X3929500Y898300D02*
X3936500Y898300D01*
X500Y897300D02*
X7500Y897300D01*
X3929500Y897300D02*
X3936500Y897300D01*
X500Y896300D02*
X7500Y896300D01*
X3929500Y896300D02*
X3936500Y896300D01*
X500Y895300D02*
X7500Y895300D01*
X3929500Y895300D02*
X3936500Y895300D01*
X500Y894300D02*
X7500Y894300D01*
X3929500Y894300D02*
X3936500Y894300D01*
X500Y893300D02*
X7500Y893300D01*
X3929500Y893300D02*
X3936500Y893300D01*
X500Y892300D02*
X7500Y892300D01*
X3929500Y892300D02*
X3936500Y892300D01*
X500Y891300D02*
X7500Y891300D01*
X3929500Y891300D02*
X3936500Y891300D01*
X500Y890300D02*
X7500Y890300D01*
X3929500Y890300D02*
X3936500Y890300D01*
X500Y889300D02*
X7500Y889300D01*
X3929500Y889300D02*
X3936500Y889300D01*
X500Y888300D02*
X7500Y888300D01*
X3929500Y888300D02*
X3936500Y888300D01*
X500Y887300D02*
X7500Y887300D01*
X3929500Y887300D02*
X3936500Y887300D01*
X500Y886300D02*
X7500Y886300D01*
X3929500Y886300D02*
X3936500Y886300D01*
X500Y885300D02*
X7500Y885300D01*
X3929500Y885300D02*
X3936500Y885300D01*
X500Y884300D02*
X7500Y884300D01*
X3929500Y884300D02*
X3936500Y884300D01*
X500Y883300D02*
X7500Y883300D01*
X3929500Y883300D02*
X3936500Y883300D01*
X500Y882300D02*
X7500Y882300D01*
X3929500Y882300D02*
X3936500Y882300D01*
X500Y881300D02*
X7500Y881300D01*
X3929500Y881300D02*
X3936500Y881300D01*
X500Y880300D02*
X7500Y880300D01*
X3929500Y880300D02*
X3936500Y880300D01*
X500Y879300D02*
X7500Y879300D01*
X3929500Y879300D02*
X3936500Y879300D01*
X500Y878300D02*
X7500Y878300D01*
X3929500Y878300D02*
X3936500Y878300D01*
X500Y877300D02*
X7500Y877300D01*
X3929500Y877300D02*
X3936500Y877300D01*
X500Y876300D02*
X7500Y876300D01*
X3929500Y876300D02*
X3936500Y876300D01*
X500Y875300D02*
X7500Y875300D01*
X3929500Y875300D02*
X3936500Y875300D01*
X500Y874300D02*
X7500Y874300D01*
X3929500Y874300D02*
X3936500Y874300D01*
X500Y873300D02*
X7500Y873300D01*
X3929500Y873300D02*
X3936500Y873300D01*
X500Y872300D02*
X7500Y872300D01*
X3929500Y872300D02*
X3936500Y872300D01*
X500Y871300D02*
X7500Y871300D01*
X3929500Y871300D02*
X3936500Y871300D01*
X500Y870300D02*
X7500Y870300D01*
X3929500Y870300D02*
X3936500Y870300D01*
X500Y869300D02*
X7500Y869300D01*
X3929500Y869300D02*
X3936500Y869300D01*
X500Y868300D02*
X7500Y868300D01*
X3929500Y868300D02*
X3936500Y868300D01*
X500Y867300D02*
X7500Y867300D01*
X3929500Y867300D02*
X3936500Y867300D01*
X500Y866300D02*
X7500Y866300D01*
X3929500Y866300D02*
X3936500Y866300D01*
X500Y865300D02*
X7500Y865300D01*
X3929500Y865300D02*
X3936500Y865300D01*
X500Y864300D02*
X7500Y864300D01*
X3929500Y864300D02*
X3936500Y864300D01*
X500Y863300D02*
X7500Y863300D01*
X3929500Y863300D02*
X3936500Y863300D01*
X500Y862300D02*
X7500Y862300D01*
X3929500Y862300D02*
X3936500Y862300D01*
X500Y861300D02*
X7500Y861300D01*
X3929500Y861300D02*
X3936500Y861300D01*
X500Y860300D02*
X7500Y860300D01*
X3929500Y860300D02*
X3936500Y860300D01*
X500Y859300D02*
X7500Y859300D01*
X3929500Y859300D02*
X3936500Y859300D01*
X500Y858300D02*
X7500Y858300D01*
X3929500Y858300D02*
X3936500Y858300D01*
X500Y857300D02*
X7500Y857300D01*
X3929500Y857300D02*
X3936500Y857300D01*
X500Y856300D02*
X7500Y856300D01*
X3929500Y856300D02*
X3936500Y856300D01*
X500Y855300D02*
X7500Y855300D01*
X3929500Y855300D02*
X3936500Y855300D01*
X500Y854300D02*
X7500Y854300D01*
X3929500Y854300D02*
X3936500Y854300D01*
X500Y853300D02*
X7500Y853300D01*
X3929500Y853300D02*
X3936500Y853300D01*
X500Y852300D02*
X7500Y852300D01*
X3929500Y852300D02*
X3936500Y852300D01*
X500Y851300D02*
X7500Y851300D01*
X3929500Y851300D02*
X3936500Y851300D01*
X500Y850300D02*
X7500Y850300D01*
X3929500Y850300D02*
X3936500Y850300D01*
X500Y849300D02*
X7500Y849300D01*
X3929500Y849300D02*
X3936500Y849300D01*
X500Y848300D02*
X7500Y848300D01*
X3929500Y848300D02*
X3936500Y848300D01*
X500Y847300D02*
X7500Y847300D01*
X3929500Y847300D02*
X3936500Y847300D01*
X500Y846300D02*
X7500Y846300D01*
X3929500Y846300D02*
X3936500Y846300D01*
X500Y845300D02*
X7500Y845300D01*
X3929500Y845300D02*
X3936500Y845300D01*
X500Y844300D02*
X7500Y844300D01*
X3929500Y844300D02*
X3936500Y844300D01*
X500Y843300D02*
X7500Y843300D01*
X3929500Y843300D02*
X3936500Y843300D01*
X500Y842300D02*
X7500Y842300D01*
X3929500Y842300D02*
X3936500Y842300D01*
X500Y841300D02*
X7500Y841300D01*
X3929500Y841300D02*
X3936500Y841300D01*
X500Y840300D02*
X7500Y840300D01*
X3929500Y840300D02*
X3936500Y840300D01*
X500Y839300D02*
X7500Y839300D01*
X3929500Y839300D02*
X3936500Y839300D01*
X500Y838300D02*
X7500Y838300D01*
X3929500Y838300D02*
X3936500Y838300D01*
X500Y837300D02*
X7500Y837300D01*
X3929500Y837300D02*
X3936500Y837300D01*
X500Y836300D02*
X7500Y836300D01*
X3929500Y836300D02*
X3936500Y836300D01*
X500Y835300D02*
X7500Y835300D01*
X3929500Y835300D02*
X3936500Y835300D01*
X500Y834300D02*
X7500Y834300D01*
X3929500Y834300D02*
X3936500Y834300D01*
X500Y833300D02*
X7500Y833300D01*
X3929500Y833300D02*
X3936500Y833300D01*
X500Y832300D02*
X7500Y832300D01*
X3929500Y832300D02*
X3936500Y832300D01*
X500Y831300D02*
X7500Y831300D01*
X3929500Y831300D02*
X3936500Y831300D01*
X500Y830300D02*
X7500Y830300D01*
X3929500Y830300D02*
X3936500Y830300D01*
X500Y829300D02*
X7500Y829300D01*
X3929500Y829300D02*
X3936500Y829300D01*
X500Y828300D02*
X7500Y828300D01*
X3929500Y828300D02*
X3936500Y828300D01*
X500Y827300D02*
X7500Y827300D01*
X3929500Y827300D02*
X3936500Y827300D01*
X500Y826300D02*
X7500Y826300D01*
X3929500Y826300D02*
X3936500Y826300D01*
X500Y825300D02*
X7500Y825300D01*
X3929500Y825300D02*
X3936500Y825300D01*
X500Y824300D02*
X7500Y824300D01*
X3929500Y824300D02*
X3936500Y824300D01*
X500Y823300D02*
X7500Y823300D01*
X3929500Y823300D02*
X3936500Y823300D01*
X500Y822300D02*
X7500Y822300D01*
X3929500Y822300D02*
X3936500Y822300D01*
X500Y821300D02*
X7500Y821300D01*
X3929500Y821300D02*
X3936500Y821300D01*
X500Y820300D02*
X7500Y820300D01*
X3929500Y820300D02*
X3936500Y820300D01*
X500Y819300D02*
X7500Y819300D01*
X3929500Y819300D02*
X3936500Y819300D01*
X500Y818300D02*
X7500Y818300D01*
X3929500Y818300D02*
X3936500Y818300D01*
X500Y817300D02*
X7500Y817300D01*
X3929500Y817300D02*
X3936500Y817300D01*
X500Y816300D02*
X7500Y816300D01*
X3929500Y816300D02*
X3936500Y816300D01*
X500Y815300D02*
X7500Y815300D01*
X3929500Y815300D02*
X3936500Y815300D01*
X500Y814300D02*
X7500Y814300D01*
X3929500Y814300D02*
X3936500Y814300D01*
X500Y813300D02*
X7500Y813300D01*
X3929500Y813300D02*
X3936500Y813300D01*
X500Y812300D02*
X7500Y812300D01*
X3929500Y812300D02*
X3936500Y812300D01*
X500Y811300D02*
X7500Y811300D01*
X3929500Y811300D02*
X3936500Y811300D01*
X500Y810300D02*
X7500Y810300D01*
X3929500Y810300D02*
X3936500Y810300D01*
X500Y809300D02*
X7500Y809300D01*
X3929500Y809300D02*
X3936500Y809300D01*
X500Y808300D02*
X7500Y808300D01*
X3929500Y808300D02*
X3936500Y808300D01*
X500Y807300D02*
X7500Y807300D01*
X3929500Y807300D02*
X3936500Y807300D01*
X500Y806300D02*
X7500Y806300D01*
X3929500Y806300D02*
X3936500Y806300D01*
X500Y805300D02*
X7500Y805300D01*
X3929500Y805300D02*
X3936500Y805300D01*
X500Y804300D02*
X7500Y804300D01*
X3929500Y804300D02*
X3936500Y804300D01*
X500Y803300D02*
X7500Y803300D01*
X3929500Y803300D02*
X3936500Y803300D01*
X500Y802300D02*
X7500Y802300D01*
X3929500Y802300D02*
X3936500Y802300D01*
X500Y801300D02*
X7500Y801300D01*
X3929500Y801300D02*
X3936500Y801300D01*
X500Y800300D02*
X7500Y800300D01*
X3929500Y800300D02*
X3936500Y800300D01*
X500Y799300D02*
X7500Y799300D01*
X3929500Y799300D02*
X3936500Y799300D01*
X500Y798300D02*
X7500Y798300D01*
X3929500Y798300D02*
X3936500Y798300D01*
X500Y797300D02*
X7500Y797300D01*
X3929500Y797300D02*
X3936500Y797300D01*
X500Y796300D02*
X7500Y796300D01*
X3929500Y796300D02*
X3936500Y796300D01*
X500Y795300D02*
X7500Y795300D01*
X3929500Y795300D02*
X3936500Y795300D01*
X500Y794300D02*
X7500Y794300D01*
X3929500Y794300D02*
X3936500Y794300D01*
X500Y793300D02*
X7500Y793300D01*
X3929500Y793300D02*
X3936500Y793300D01*
X500Y792300D02*
X7500Y792300D01*
X3929500Y792300D02*
X3936500Y792300D01*
X500Y791300D02*
X7500Y791300D01*
X3929500Y791300D02*
X3936500Y791300D01*
X500Y790300D02*
X7500Y790300D01*
X3929500Y790300D02*
X3936500Y790300D01*
X500Y789300D02*
X7500Y789300D01*
X3929500Y789300D02*
X3936500Y789300D01*
X500Y788300D02*
X7500Y788300D01*
X3929500Y788300D02*
X3936500Y788300D01*
X500Y787300D02*
X7500Y787300D01*
X3929500Y787300D02*
X3936500Y787300D01*
X500Y786300D02*
X7500Y786300D01*
X3929500Y786300D02*
X3936500Y786300D01*
X500Y785300D02*
X7500Y785300D01*
X3929500Y785300D02*
X3936500Y785300D01*
X500Y784300D02*
X7500Y784300D01*
X3929500Y784300D02*
X3936500Y784300D01*
X500Y783300D02*
X7500Y783300D01*
X3929500Y783300D02*
X3936500Y783300D01*
X500Y782300D02*
X7500Y782300D01*
X3929500Y782300D02*
X3936500Y782300D01*
X500Y781300D02*
X7500Y781300D01*
X3929500Y781300D02*
X3936500Y781300D01*
X500Y780300D02*
X7500Y780300D01*
X3929500Y780300D02*
X3936500Y780300D01*
X500Y779300D02*
X7500Y779300D01*
X3929500Y779300D02*
X3936500Y779300D01*
X500Y778300D02*
X7500Y778300D01*
X3929500Y778300D02*
X3936500Y778300D01*
X500Y777300D02*
X7500Y777300D01*
X3929500Y777300D02*
X3936500Y777300D01*
X500Y776300D02*
X7500Y776300D01*
X3929500Y776300D02*
X3936500Y776300D01*
X500Y775300D02*
X7500Y775300D01*
X3929500Y775300D02*
X3936500Y775300D01*
X500Y774300D02*
X7500Y774300D01*
X3929500Y774300D02*
X3936500Y774300D01*
X500Y773300D02*
X7500Y773300D01*
X3929500Y773300D02*
X3936500Y773300D01*
X500Y772300D02*
X7500Y772300D01*
X3929500Y772300D02*
X3936500Y772300D01*
X500Y771300D02*
X7500Y771300D01*
X3929500Y771300D02*
X3936500Y771300D01*
X500Y770300D02*
X7500Y770300D01*
X3929500Y770300D02*
X3936500Y770300D01*
X500Y769300D02*
X7500Y769300D01*
X3929500Y769300D02*
X3936500Y769300D01*
X500Y768300D02*
X7500Y768300D01*
X3929500Y768300D02*
X3936500Y768300D01*
X500Y767300D02*
X7500Y767300D01*
X3929500Y767300D02*
X3936500Y767300D01*
X500Y766300D02*
X7500Y766300D01*
X3929500Y766300D02*
X3936500Y766300D01*
X500Y765300D02*
X7500Y765300D01*
X3929500Y765300D02*
X3936500Y765300D01*
X500Y764300D02*
X7500Y764300D01*
X3929500Y764300D02*
X3936500Y764300D01*
X500Y763300D02*
X7500Y763300D01*
X3929500Y763300D02*
X3936500Y763300D01*
X500Y762300D02*
X7500Y762300D01*
X3929500Y762300D02*
X3936500Y762300D01*
X500Y761300D02*
X7500Y761300D01*
X3929500Y761300D02*
X3936500Y761300D01*
X500Y760300D02*
X7500Y760300D01*
X3929500Y760300D02*
X3936500Y760300D01*
X500Y759300D02*
X7500Y759300D01*
X3929500Y759300D02*
X3936500Y759300D01*
X500Y758300D02*
X7500Y758300D01*
X3929500Y758300D02*
X3936500Y758300D01*
X500Y757300D02*
X7500Y757300D01*
X3929500Y757300D02*
X3936500Y757300D01*
X500Y756300D02*
X7500Y756300D01*
X3929500Y756300D02*
X3936500Y756300D01*
X500Y755300D02*
X7500Y755300D01*
X3929500Y755300D02*
X3936500Y755300D01*
X500Y754300D02*
X7500Y754300D01*
X3929500Y754300D02*
X3936500Y754300D01*
X500Y753300D02*
X7500Y753300D01*
X3929500Y753300D02*
X3936500Y753300D01*
X500Y752300D02*
X7500Y752300D01*
X3929500Y752300D02*
X3936500Y752300D01*
X500Y751300D02*
X7500Y751300D01*
X3929500Y751300D02*
X3936500Y751300D01*
X500Y750300D02*
X7500Y750300D01*
X3929500Y750300D02*
X3936500Y750300D01*
X500Y749300D02*
X7500Y749300D01*
X3929500Y749300D02*
X3936500Y749300D01*
X500Y748300D02*
X7500Y748300D01*
X3929500Y748300D02*
X3936500Y748300D01*
X500Y747300D02*
X7500Y747300D01*
X3929500Y747300D02*
X3936500Y747300D01*
X500Y746300D02*
X7500Y746300D01*
X3929500Y746300D02*
X3936500Y746300D01*
X500Y745300D02*
X7500Y745300D01*
X3929500Y745300D02*
X3936500Y745300D01*
X500Y744300D02*
X7500Y744300D01*
X3929500Y744300D02*
X3936500Y744300D01*
X500Y743300D02*
X7500Y743300D01*
X3929500Y743300D02*
X3936500Y743300D01*
X500Y742300D02*
X7500Y742300D01*
X3929500Y742300D02*
X3936500Y742300D01*
X500Y741300D02*
X7500Y741300D01*
X3929500Y741300D02*
X3936500Y741300D01*
X500Y740300D02*
X7500Y740300D01*
X3929500Y740300D02*
X3936500Y740300D01*
X500Y739300D02*
X7500Y739300D01*
X3929500Y739300D02*
X3936500Y739300D01*
X500Y738300D02*
X7500Y738300D01*
X3929500Y738300D02*
X3936500Y738300D01*
X500Y737300D02*
X7500Y737300D01*
X3929500Y737300D02*
X3936500Y737300D01*
X500Y736300D02*
X7500Y736300D01*
X3929500Y736300D02*
X3936500Y736300D01*
X500Y735300D02*
X7500Y735300D01*
X3929500Y735300D02*
X3936500Y735300D01*
X500Y734300D02*
X7500Y734300D01*
X3929500Y734300D02*
X3936500Y734300D01*
X500Y733300D02*
X7500Y733300D01*
X3929500Y733300D02*
X3936500Y733300D01*
X500Y732300D02*
X7500Y732300D01*
X3929500Y732300D02*
X3936500Y732300D01*
X500Y731300D02*
X7500Y731300D01*
X3929500Y731300D02*
X3936500Y731300D01*
X500Y730300D02*
X7500Y730300D01*
X3929500Y730300D02*
X3936500Y730300D01*
X500Y729300D02*
X7500Y729300D01*
X3929500Y729300D02*
X3936500Y729300D01*
X500Y728300D02*
X7500Y728300D01*
X3929500Y728300D02*
X3936500Y728300D01*
X500Y727300D02*
X7500Y727300D01*
X3929500Y727300D02*
X3936500Y727300D01*
X500Y726300D02*
X7500Y726300D01*
X3929500Y726300D02*
X3936500Y726300D01*
X500Y725300D02*
X7500Y725300D01*
X3929500Y725300D02*
X3936500Y725300D01*
X500Y724300D02*
X7500Y724300D01*
X3929500Y724300D02*
X3936500Y724300D01*
X500Y723300D02*
X7500Y723300D01*
X3929500Y723300D02*
X3936500Y723300D01*
X500Y722300D02*
X7500Y722300D01*
X3929500Y722300D02*
X3936500Y722300D01*
X500Y721300D02*
X7500Y721300D01*
X3929500Y721300D02*
X3936500Y721300D01*
X500Y720300D02*
X7500Y720300D01*
X3929500Y720300D02*
X3936500Y720300D01*
X500Y719300D02*
X7500Y719300D01*
X3929500Y719300D02*
X3936500Y719300D01*
X500Y718300D02*
X7500Y718300D01*
X3929500Y718300D02*
X3936500Y718300D01*
X500Y717300D02*
X7500Y717300D01*
X3929500Y717300D02*
X3936500Y717300D01*
X500Y716300D02*
X7500Y716300D01*
X3929500Y716300D02*
X3936500Y716300D01*
X500Y715300D02*
X7500Y715300D01*
X3929500Y715300D02*
X3936500Y715300D01*
X500Y714300D02*
X7500Y714300D01*
X3929500Y714300D02*
X3936500Y714300D01*
X500Y713300D02*
X7500Y713300D01*
X3929500Y713300D02*
X3936500Y713300D01*
X500Y712300D02*
X7500Y712300D01*
X3929500Y712300D02*
X3936500Y712300D01*
X500Y711300D02*
X7500Y711300D01*
X3929500Y711300D02*
X3936500Y711300D01*
X500Y710300D02*
X7500Y710300D01*
X3929500Y710300D02*
X3936500Y710300D01*
X500Y709300D02*
X7500Y709300D01*
X3929500Y709300D02*
X3936500Y709300D01*
X500Y708300D02*
X7500Y708300D01*
X3929500Y708300D02*
X3936500Y708300D01*
X500Y707300D02*
X7500Y707300D01*
X3929500Y707300D02*
X3936500Y707300D01*
X500Y706300D02*
X7500Y706300D01*
X3929500Y706300D02*
X3936500Y706300D01*
X500Y705300D02*
X7500Y705300D01*
X3929500Y705300D02*
X3936500Y705300D01*
X500Y704300D02*
X7500Y704300D01*
X3929500Y704300D02*
X3936500Y704300D01*
X500Y703300D02*
X7500Y703300D01*
X3929500Y703300D02*
X3936500Y703300D01*
X500Y702300D02*
X7500Y702300D01*
X3929500Y702300D02*
X3936500Y702300D01*
X500Y701300D02*
X7500Y701300D01*
X3929500Y701300D02*
X3936500Y701300D01*
X500Y700300D02*
X7500Y700300D01*
X3929500Y700300D02*
X3936500Y700300D01*
X500Y699300D02*
X7500Y699300D01*
X3929500Y699300D02*
X3936500Y699300D01*
X500Y698300D02*
X7500Y698300D01*
X3929500Y698300D02*
X3936500Y698300D01*
X500Y697300D02*
X7500Y697300D01*
X3929500Y697300D02*
X3936500Y697300D01*
X500Y696300D02*
X7500Y696300D01*
X3929500Y696300D02*
X3936500Y696300D01*
X500Y695300D02*
X7500Y695300D01*
X3929500Y695300D02*
X3936500Y695300D01*
X500Y694300D02*
X7500Y694300D01*
X3929500Y694300D02*
X3936500Y694300D01*
X500Y693300D02*
X7500Y693300D01*
X3929500Y693300D02*
X3936500Y693300D01*
X500Y692300D02*
X7500Y692300D01*
X3929500Y692300D02*
X3936500Y692300D01*
X500Y691300D02*
X7500Y691300D01*
X3929500Y691300D02*
X3936500Y691300D01*
X500Y690300D02*
X7500Y690300D01*
X3929500Y690300D02*
X3936500Y690300D01*
X500Y689300D02*
X7500Y689300D01*
X3929500Y689300D02*
X3936500Y689300D01*
X500Y688300D02*
X7500Y688300D01*
X3929500Y688300D02*
X3936500Y688300D01*
X500Y687300D02*
X7500Y687300D01*
X3929500Y687300D02*
X3936500Y687300D01*
X500Y686300D02*
X7500Y686300D01*
X3929500Y686300D02*
X3936500Y686300D01*
X500Y685300D02*
X7500Y685300D01*
X3929500Y685300D02*
X3936500Y685300D01*
X500Y684300D02*
X7500Y684300D01*
X3929500Y684300D02*
X3936500Y684300D01*
X500Y683300D02*
X7500Y683300D01*
X3929500Y683300D02*
X3936500Y683300D01*
X500Y682300D02*
X7500Y682300D01*
X3929500Y682300D02*
X3936500Y682300D01*
X500Y681300D02*
X7500Y681300D01*
X3929500Y681300D02*
X3936500Y681300D01*
X500Y680300D02*
X7500Y680300D01*
X3929500Y680300D02*
X3936500Y680300D01*
X500Y679300D02*
X7500Y679300D01*
X3929500Y679300D02*
X3936500Y679300D01*
X500Y678300D02*
X7500Y678300D01*
X3929500Y678300D02*
X3936500Y678300D01*
X500Y677300D02*
X7500Y677300D01*
X3929500Y677300D02*
X3936500Y677300D01*
X500Y676300D02*
X7500Y676300D01*
X3929500Y676300D02*
X3936500Y676300D01*
X500Y675300D02*
X7500Y675300D01*
X3929500Y675300D02*
X3936500Y675300D01*
X500Y674300D02*
X7500Y674300D01*
X3929500Y674300D02*
X3936500Y674300D01*
X500Y673300D02*
X7500Y673300D01*
X3929500Y673300D02*
X3936500Y673300D01*
X500Y672300D02*
X7500Y672300D01*
X3929500Y672300D02*
X3936500Y672300D01*
X500Y671300D02*
X7500Y671300D01*
X3929500Y671300D02*
X3936500Y671300D01*
X500Y670300D02*
X7500Y670300D01*
X3929500Y670300D02*
X3936500Y670300D01*
X500Y669300D02*
X7500Y669300D01*
X3929500Y669300D02*
X3936500Y669300D01*
X500Y668300D02*
X7500Y668300D01*
X3929500Y668300D02*
X3936500Y668300D01*
X500Y667300D02*
X7500Y667300D01*
X3929500Y667300D02*
X3936500Y667300D01*
X500Y666300D02*
X7500Y666300D01*
X3929500Y666300D02*
X3936500Y666300D01*
X500Y665300D02*
X7500Y665300D01*
X3929500Y665300D02*
X3936500Y665300D01*
X500Y664300D02*
X7500Y664300D01*
X3929500Y664300D02*
X3936500Y664300D01*
X500Y663300D02*
X7500Y663300D01*
X3929500Y663300D02*
X3936500Y663300D01*
X500Y662300D02*
X7500Y662300D01*
X3929500Y662300D02*
X3936500Y662300D01*
X500Y661300D02*
X7500Y661300D01*
X3929500Y661300D02*
X3936500Y661300D01*
X500Y660300D02*
X7500Y660300D01*
X3929500Y660300D02*
X3936500Y660300D01*
X500Y659300D02*
X7500Y659300D01*
X3929500Y659300D02*
X3936500Y659300D01*
X500Y658300D02*
X7500Y658300D01*
X3929500Y658300D02*
X3936500Y658300D01*
X500Y657300D02*
X7500Y657300D01*
X3929500Y657300D02*
X3936500Y657300D01*
X500Y656300D02*
X7500Y656300D01*
X3929500Y656300D02*
X3936500Y656300D01*
X500Y655300D02*
X7500Y655300D01*
X3929500Y655300D02*
X3936500Y655300D01*
X500Y654300D02*
X7500Y654300D01*
X3929500Y654300D02*
X3936500Y654300D01*
X500Y653300D02*
X7500Y653300D01*
X3929500Y653300D02*
X3936500Y653300D01*
X500Y652300D02*
X7500Y652300D01*
X3929500Y652300D02*
X3936500Y652300D01*
X500Y651300D02*
X7500Y651300D01*
X3929500Y651300D02*
X3936500Y651300D01*
X500Y650300D02*
X7500Y650300D01*
X3929500Y650300D02*
X3936500Y650300D01*
X500Y649300D02*
X7500Y649300D01*
X3929500Y649300D02*
X3936500Y649300D01*
X500Y648300D02*
X7500Y648300D01*
X3929500Y648300D02*
X3936500Y648300D01*
X500Y647300D02*
X7500Y647300D01*
X3929500Y647300D02*
X3936500Y647300D01*
X500Y646300D02*
X7500Y646300D01*
X3929500Y646300D02*
X3936500Y646300D01*
X500Y645300D02*
X7500Y645300D01*
X3929500Y645300D02*
X3936500Y645300D01*
X500Y644300D02*
X7500Y644300D01*
X3929500Y644300D02*
X3936500Y644300D01*
X500Y643300D02*
X7500Y643300D01*
X3929500Y643300D02*
X3936500Y643300D01*
X500Y642300D02*
X7500Y642300D01*
X3929500Y642300D02*
X3936500Y642300D01*
X500Y641300D02*
X7500Y641300D01*
X3929500Y641300D02*
X3936500Y641300D01*
X500Y640300D02*
X7500Y640300D01*
X3929500Y640300D02*
X3936500Y640300D01*
X500Y639300D02*
X7500Y639300D01*
X3929500Y639300D02*
X3936500Y639300D01*
X500Y638300D02*
X7500Y638300D01*
X3929500Y638300D02*
X3936500Y638300D01*
X500Y637300D02*
X7500Y637300D01*
X3929500Y637300D02*
X3936500Y637300D01*
X500Y636300D02*
X7500Y636300D01*
X3929500Y636300D02*
X3936500Y636300D01*
X500Y635300D02*
X7500Y635300D01*
X3929500Y635300D02*
X3936500Y635300D01*
X500Y634300D02*
X7500Y634300D01*
X3929500Y634300D02*
X3936500Y634300D01*
X500Y633300D02*
X7500Y633300D01*
X3929500Y633300D02*
X3936500Y633300D01*
X500Y632300D02*
X7500Y632300D01*
X3929500Y632300D02*
X3936500Y632300D01*
X500Y631300D02*
X7500Y631300D01*
X3929500Y631300D02*
X3936500Y631300D01*
X500Y630300D02*
X7500Y630300D01*
X3929500Y630300D02*
X3936500Y630300D01*
X500Y629300D02*
X7500Y629300D01*
X3929500Y629300D02*
X3936500Y629300D01*
X500Y628300D02*
X7500Y628300D01*
X3929500Y628300D02*
X3936500Y628300D01*
X500Y627300D02*
X7500Y627300D01*
X3929500Y627300D02*
X3936500Y627300D01*
X500Y626300D02*
X7500Y626300D01*
X3929500Y626300D02*
X3936500Y626300D01*
X500Y625300D02*
X7500Y625300D01*
X3929500Y625300D02*
X3936500Y625300D01*
X500Y624300D02*
X7500Y624300D01*
X3929500Y624300D02*
X3936500Y624300D01*
X500Y623300D02*
X7500Y623300D01*
X3929500Y623300D02*
X3936500Y623300D01*
X500Y622300D02*
X7500Y622300D01*
X3929500Y622300D02*
X3936500Y622300D01*
X500Y621300D02*
X7500Y621300D01*
X3929500Y621300D02*
X3936500Y621300D01*
X500Y620300D02*
X7500Y620300D01*
X3929500Y620300D02*
X3936500Y620300D01*
X500Y619300D02*
X7500Y619300D01*
X3929500Y619300D02*
X3936500Y619300D01*
X500Y618300D02*
X7500Y618300D01*
X3929500Y618300D02*
X3936500Y618300D01*
X500Y617300D02*
X7500Y617300D01*
X3929500Y617300D02*
X3936500Y617300D01*
X500Y616300D02*
X7500Y616300D01*
X3929500Y616300D02*
X3936500Y616300D01*
X500Y615300D02*
X7500Y615300D01*
X3929500Y615300D02*
X3936500Y615300D01*
X500Y614300D02*
X7500Y614300D01*
X3929500Y614300D02*
X3936500Y614300D01*
X500Y613300D02*
X7500Y613300D01*
X3929500Y613300D02*
X3936500Y613300D01*
X500Y612300D02*
X7500Y612300D01*
X3929500Y612300D02*
X3936500Y612300D01*
X500Y611300D02*
X7500Y611300D01*
X3929500Y611300D02*
X3936500Y611300D01*
X500Y610300D02*
X7500Y610300D01*
X3929500Y610300D02*
X3936500Y610300D01*
X500Y609300D02*
X7500Y609300D01*
X3929500Y609300D02*
X3936500Y609300D01*
X500Y608300D02*
X7500Y608300D01*
X3929500Y608300D02*
X3936500Y608300D01*
X500Y607300D02*
X7500Y607300D01*
X3929500Y607300D02*
X3936500Y607300D01*
X500Y606300D02*
X7500Y606300D01*
X3929500Y606300D02*
X3936500Y606300D01*
X500Y605300D02*
X7500Y605300D01*
X3929500Y605300D02*
X3936500Y605300D01*
X500Y604300D02*
X7500Y604300D01*
X3929500Y604300D02*
X3936500Y604300D01*
X500Y603300D02*
X7500Y603300D01*
X3929500Y603300D02*
X3936500Y603300D01*
X500Y602300D02*
X7500Y602300D01*
X3929500Y602300D02*
X3936500Y602300D01*
X500Y601300D02*
X7500Y601300D01*
X3929500Y601300D02*
X3936500Y601300D01*
X500Y600300D02*
X7500Y600300D01*
X3929500Y600300D02*
X3936500Y600300D01*
X500Y599300D02*
X7500Y599300D01*
X3929500Y599300D02*
X3936500Y599300D01*
X500Y598300D02*
X7500Y598300D01*
X3929500Y598300D02*
X3936500Y598300D01*
X500Y597300D02*
X7500Y597300D01*
X3929500Y597300D02*
X3936500Y597300D01*
X500Y596300D02*
X7500Y596300D01*
X3929500Y596300D02*
X3936500Y596300D01*
X500Y595300D02*
X7500Y595300D01*
X3929500Y595300D02*
X3936500Y595300D01*
X500Y594300D02*
X7500Y594300D01*
X3929500Y594300D02*
X3936500Y594300D01*
X500Y593300D02*
X7500Y593300D01*
X3929500Y593300D02*
X3936500Y593300D01*
X500Y592300D02*
X7500Y592300D01*
X3929500Y592300D02*
X3936500Y592300D01*
X500Y591300D02*
X7500Y591300D01*
X3929500Y591300D02*
X3936500Y591300D01*
X500Y590300D02*
X7500Y590300D01*
X3929500Y590300D02*
X3936500Y590300D01*
X500Y589300D02*
X7500Y589300D01*
X3929500Y589300D02*
X3936500Y589300D01*
X500Y588300D02*
X7500Y588300D01*
X3929500Y588300D02*
X3936500Y588300D01*
X500Y587300D02*
X7500Y587300D01*
X3929500Y587300D02*
X3936500Y587300D01*
X500Y586300D02*
X7500Y586300D01*
X3929500Y586300D02*
X3936500Y586300D01*
X500Y585300D02*
X7500Y585300D01*
X3929500Y585300D02*
X3936500Y585300D01*
X500Y584300D02*
X7500Y584300D01*
X3929500Y584300D02*
X3936500Y584300D01*
X500Y583300D02*
X7500Y583300D01*
X3929500Y583300D02*
X3936500Y583300D01*
X500Y582300D02*
X7500Y582300D01*
X3929500Y582300D02*
X3936500Y582300D01*
X500Y581300D02*
X7500Y581300D01*
X3929500Y581300D02*
X3936500Y581300D01*
X500Y580300D02*
X7500Y580300D01*
X3929500Y580300D02*
X3936500Y580300D01*
X500Y579300D02*
X7500Y579300D01*
X3929500Y579300D02*
X3936500Y579300D01*
X500Y578300D02*
X7500Y578300D01*
X3929500Y578300D02*
X3936500Y578300D01*
X500Y577300D02*
X7500Y577300D01*
X3929500Y577300D02*
X3936500Y577300D01*
X500Y576300D02*
X7500Y576300D01*
X3929500Y576300D02*
X3936500Y576300D01*
X500Y575300D02*
X7500Y575300D01*
X3929500Y575300D02*
X3936500Y575300D01*
X500Y574300D02*
X7500Y574300D01*
X3929500Y574300D02*
X3936500Y574300D01*
X500Y573300D02*
X7500Y573300D01*
X3929500Y573300D02*
X3936500Y573300D01*
X500Y572300D02*
X7500Y572300D01*
X3929500Y572300D02*
X3936500Y572300D01*
X500Y571300D02*
X7500Y571300D01*
X3929500Y571300D02*
X3936500Y571300D01*
X500Y570300D02*
X7500Y570300D01*
X3929500Y570300D02*
X3936500Y570300D01*
X500Y569300D02*
X7500Y569300D01*
X3929500Y569300D02*
X3936500Y569300D01*
X500Y568300D02*
X7500Y568300D01*
X3929500Y568300D02*
X3936500Y568300D01*
X500Y567300D02*
X7500Y567300D01*
X3929500Y567300D02*
X3936500Y567300D01*
X500Y566300D02*
X7500Y566300D01*
X3929500Y566300D02*
X3936500Y566300D01*
X500Y565300D02*
X7500Y565300D01*
X3929500Y565300D02*
X3936500Y565300D01*
X500Y564300D02*
X7500Y564300D01*
X3929500Y564300D02*
X3936500Y564300D01*
X500Y563300D02*
X7500Y563300D01*
X3929500Y563300D02*
X3936500Y563300D01*
X500Y562300D02*
X7500Y562300D01*
X3929500Y562300D02*
X3936500Y562300D01*
X500Y561300D02*
X7500Y561300D01*
X3929500Y561300D02*
X3936500Y561300D01*
X500Y560300D02*
X7500Y560300D01*
X3929500Y560300D02*
X3936500Y560300D01*
X500Y559300D02*
X7500Y559300D01*
X3929500Y559300D02*
X3936500Y559300D01*
X500Y558300D02*
X7500Y558300D01*
X3929500Y558300D02*
X3936500Y558300D01*
X500Y557300D02*
X7500Y557300D01*
X3929500Y557300D02*
X3936500Y557300D01*
X500Y556300D02*
X7500Y556300D01*
X3929500Y556300D02*
X3936500Y556300D01*
X500Y555300D02*
X7500Y555300D01*
X3929500Y555300D02*
X3936500Y555300D01*
X500Y554300D02*
X7500Y554300D01*
X3929500Y554300D02*
X3936500Y554300D01*
X500Y553300D02*
X7500Y553300D01*
X3929500Y553300D02*
X3936500Y553300D01*
X500Y552300D02*
X7500Y552300D01*
X3929500Y552300D02*
X3936500Y552300D01*
X500Y551300D02*
X7500Y551300D01*
X3929500Y551300D02*
X3936500Y551300D01*
X500Y550300D02*
X7500Y550300D01*
X3929500Y550300D02*
X3936500Y550300D01*
X500Y549300D02*
X7500Y549300D01*
X3929500Y549300D02*
X3936500Y549300D01*
X500Y548300D02*
X7500Y548300D01*
X3929500Y548300D02*
X3936500Y548300D01*
X500Y547300D02*
X7500Y547300D01*
X3929500Y547300D02*
X3936500Y547300D01*
X500Y546300D02*
X7500Y546300D01*
X3929500Y546300D02*
X3936500Y546300D01*
X500Y545300D02*
X7500Y545300D01*
X3929500Y545300D02*
X3936500Y545300D01*
X500Y544300D02*
X7500Y544300D01*
X3929500Y544300D02*
X3936500Y544300D01*
X500Y543300D02*
X7500Y543300D01*
X3929500Y543300D02*
X3936500Y543300D01*
X500Y542300D02*
X7500Y542300D01*
X3929500Y542300D02*
X3936500Y542300D01*
X500Y541300D02*
X7500Y541300D01*
X3929500Y541300D02*
X3936500Y541300D01*
X500Y540300D02*
X7500Y540300D01*
X3929500Y540300D02*
X3936500Y540300D01*
X500Y539300D02*
X7500Y539300D01*
X3929500Y539300D02*
X3936500Y539300D01*
X500Y538300D02*
X7500Y538300D01*
X3929500Y538300D02*
X3936500Y538300D01*
X500Y537300D02*
X7500Y537300D01*
X3929500Y537300D02*
X3936500Y537300D01*
X500Y536300D02*
X7500Y536300D01*
X3929500Y536300D02*
X3936500Y536300D01*
X500Y535300D02*
X7500Y535300D01*
X3929500Y535300D02*
X3936500Y535300D01*
X500Y534300D02*
X7500Y534300D01*
X3929500Y534300D02*
X3936500Y534300D01*
X500Y533300D02*
X7500Y533300D01*
X3929500Y533300D02*
X3936500Y533300D01*
X500Y532300D02*
X7500Y532300D01*
X3929500Y532300D02*
X3936500Y532300D01*
X500Y531300D02*
X7500Y531300D01*
X3929500Y531300D02*
X3936500Y531300D01*
X500Y530300D02*
X7500Y530300D01*
X3929500Y530300D02*
X3936500Y530300D01*
X500Y529300D02*
X7500Y529300D01*
X3929500Y529300D02*
X3936500Y529300D01*
X500Y528300D02*
X7500Y528300D01*
X3929500Y528300D02*
X3936500Y528300D01*
X500Y527300D02*
X7500Y527300D01*
X3929500Y527300D02*
X3936500Y527300D01*
X500Y526300D02*
X7500Y526300D01*
X3929500Y526300D02*
X3936500Y526300D01*
X500Y525300D02*
X7500Y525300D01*
X3929500Y525300D02*
X3936500Y525300D01*
X500Y524300D02*
X7500Y524300D01*
X3929500Y524300D02*
X3936500Y524300D01*
X500Y523300D02*
X7500Y523300D01*
X3929500Y523300D02*
X3936500Y523300D01*
X500Y522300D02*
X7500Y522300D01*
X3929500Y522300D02*
X3936500Y522300D01*
X500Y521300D02*
X7500Y521300D01*
X3929500Y521300D02*
X3936500Y521300D01*
X500Y520300D02*
X7500Y520300D01*
X3929500Y520300D02*
X3936500Y520300D01*
X500Y519300D02*
X7500Y519300D01*
X3929500Y519300D02*
X3936500Y519300D01*
X500Y518300D02*
X7500Y518300D01*
X3929500Y518300D02*
X3936500Y518300D01*
X500Y517300D02*
X7500Y517300D01*
X3929500Y517300D02*
X3936500Y517300D01*
X500Y516300D02*
X7500Y516300D01*
X3929500Y516300D02*
X3936500Y516300D01*
X500Y515300D02*
X7500Y515300D01*
X3929500Y515300D02*
X3936500Y515300D01*
X500Y514300D02*
X7500Y514300D01*
X3929500Y514300D02*
X3936500Y514300D01*
X500Y513300D02*
X7500Y513300D01*
X3929500Y513300D02*
X3936500Y513300D01*
X500Y512300D02*
X7500Y512300D01*
X3929500Y512300D02*
X3936500Y512300D01*
X500Y511300D02*
X7500Y511300D01*
X3929500Y511300D02*
X3936500Y511300D01*
X500Y510300D02*
X7500Y510300D01*
X3929500Y510300D02*
X3936500Y510300D01*
X500Y509300D02*
X7500Y509300D01*
X3929500Y509300D02*
X3936500Y509300D01*
X500Y508300D02*
X7500Y508300D01*
X3929500Y508300D02*
X3936500Y508300D01*
X500Y507300D02*
X7500Y507300D01*
X3929500Y507300D02*
X3936500Y507300D01*
X500Y506300D02*
X7500Y506300D01*
X3929500Y506300D02*
X3936500Y506300D01*
X500Y505300D02*
X7500Y505300D01*
X3929500Y505300D02*
X3936500Y505300D01*
X500Y504300D02*
X7500Y504300D01*
X3929500Y504300D02*
X3936500Y504300D01*
X500Y503300D02*
X7500Y503300D01*
X3929500Y503300D02*
X3936500Y503300D01*
X500Y502300D02*
X7500Y502300D01*
X3929500Y502300D02*
X3936500Y502300D01*
X500Y501300D02*
X7500Y501300D01*
X3929500Y501300D02*
X3936500Y501300D01*
X500Y500300D02*
X7500Y500300D01*
X3929500Y500300D02*
X3936500Y500300D01*
X500Y499300D02*
X7500Y499300D01*
X3929500Y499300D02*
X3936500Y499300D01*
X500Y498300D02*
X7500Y498300D01*
X3929500Y498300D02*
X3936500Y498300D01*
X500Y497300D02*
X7500Y497300D01*
X3929500Y497300D02*
X3936500Y497300D01*
X500Y496300D02*
X7500Y496300D01*
X3929500Y496300D02*
X3936500Y496300D01*
X500Y495300D02*
X7500Y495300D01*
X3929500Y495300D02*
X3936500Y495300D01*
X500Y494300D02*
X7500Y494300D01*
X3929500Y494300D02*
X3936500Y494300D01*
X500Y493300D02*
X7500Y493300D01*
X3929500Y493300D02*
X3936500Y493300D01*
X500Y492300D02*
X7500Y492300D01*
X3929500Y492300D02*
X3936500Y492300D01*
X500Y491300D02*
X7500Y491300D01*
X3929500Y491300D02*
X3936500Y491300D01*
X500Y490300D02*
X7500Y490300D01*
X3929500Y490300D02*
X3936500Y490300D01*
X500Y489300D02*
X7500Y489300D01*
X3929500Y489300D02*
X3936500Y489300D01*
X500Y488300D02*
X7500Y488300D01*
X3929500Y488300D02*
X3936500Y488300D01*
X500Y487300D02*
X7500Y487300D01*
X3929500Y487300D02*
X3936500Y487300D01*
X500Y486300D02*
X7500Y486300D01*
X3929500Y486300D02*
X3936500Y486300D01*
X500Y485300D02*
X7500Y485300D01*
X3929500Y485300D02*
X3936500Y485300D01*
X500Y484300D02*
X7500Y484300D01*
X3929500Y484300D02*
X3936500Y484300D01*
X500Y483300D02*
X7500Y483300D01*
X3929500Y483300D02*
X3936500Y483300D01*
X500Y482300D02*
X7500Y482300D01*
X3929500Y482300D02*
X3936500Y482300D01*
X500Y481300D02*
X7500Y481300D01*
X3929500Y481300D02*
X3936500Y481300D01*
X500Y480300D02*
X7500Y480300D01*
X3929500Y480300D02*
X3936500Y480300D01*
X500Y479300D02*
X7500Y479300D01*
X3929500Y479300D02*
X3936500Y479300D01*
X500Y478300D02*
X7500Y478300D01*
X3929500Y478300D02*
X3936500Y478300D01*
X500Y477300D02*
X7500Y477300D01*
X3929500Y477300D02*
X3936500Y477300D01*
X500Y476300D02*
X7500Y476300D01*
X3929500Y476300D02*
X3936500Y476300D01*
X500Y475300D02*
X7500Y475300D01*
X3929500Y475300D02*
X3936500Y475300D01*
X500Y474300D02*
X7500Y474300D01*
X3929500Y474300D02*
X3936500Y474300D01*
X500Y473300D02*
X7500Y473300D01*
X3929500Y473300D02*
X3936500Y473300D01*
X500Y472300D02*
X7500Y472300D01*
X3929500Y472300D02*
X3936500Y472300D01*
X500Y471300D02*
X7500Y471300D01*
X3929500Y471300D02*
X3936500Y471300D01*
X500Y470300D02*
X7500Y470300D01*
X3929500Y470300D02*
X3936500Y470300D01*
X500Y469300D02*
X7500Y469300D01*
X3929500Y469300D02*
X3936500Y469300D01*
X500Y468300D02*
X7500Y468300D01*
X3929500Y468300D02*
X3936500Y468300D01*
X500Y467300D02*
X7500Y467300D01*
X3929500Y467300D02*
X3936500Y467300D01*
X500Y466300D02*
X7500Y466300D01*
X3929500Y466300D02*
X3936500Y466300D01*
X500Y465300D02*
X7500Y465300D01*
X3929500Y465300D02*
X3936500Y465300D01*
X500Y464300D02*
X7500Y464300D01*
X3929500Y464300D02*
X3936500Y464300D01*
X500Y463300D02*
X7500Y463300D01*
X3929500Y463300D02*
X3936500Y463300D01*
X500Y462300D02*
X7500Y462300D01*
X3929500Y462300D02*
X3936500Y462300D01*
X500Y461300D02*
X7500Y461300D01*
X3929500Y461300D02*
X3936500Y461300D01*
X500Y460300D02*
X7500Y460300D01*
X3929500Y460300D02*
X3936500Y460300D01*
X500Y459300D02*
X7500Y459300D01*
X3929500Y459300D02*
X3936500Y459300D01*
X500Y458300D02*
X7500Y458300D01*
X3929500Y458300D02*
X3936500Y458300D01*
X500Y457300D02*
X7500Y457300D01*
X3929500Y457300D02*
X3936500Y457300D01*
X500Y456300D02*
X7500Y456300D01*
X3929500Y456300D02*
X3936500Y456300D01*
X500Y455300D02*
X7500Y455300D01*
X3929500Y455300D02*
X3936500Y455300D01*
X500Y454300D02*
X7500Y454300D01*
X3929500Y454300D02*
X3936500Y454300D01*
X500Y453300D02*
X7500Y453300D01*
X3929500Y453300D02*
X3936500Y453300D01*
X500Y452300D02*
X7500Y452300D01*
X3929500Y452300D02*
X3936500Y452300D01*
X500Y451300D02*
X7500Y451300D01*
X3929500Y451300D02*
X3936500Y451300D01*
X500Y450300D02*
X7500Y450300D01*
X3929500Y450300D02*
X3936500Y450300D01*
X500Y449300D02*
X7500Y449300D01*
X3929500Y449300D02*
X3936500Y449300D01*
X500Y448300D02*
X7500Y448300D01*
X3929500Y448300D02*
X3936500Y448300D01*
X500Y447300D02*
X7500Y447300D01*
X3929500Y447300D02*
X3936500Y447300D01*
X500Y446300D02*
X7500Y446300D01*
X3929500Y446300D02*
X3936500Y446300D01*
X500Y445300D02*
X7500Y445300D01*
X3929500Y445300D02*
X3936500Y445300D01*
X500Y444300D02*
X7500Y444300D01*
X3929500Y444300D02*
X3936500Y444300D01*
X500Y443300D02*
X7500Y443300D01*
X3929500Y443300D02*
X3936500Y443300D01*
X500Y442300D02*
X7500Y442300D01*
X3929500Y442300D02*
X3936500Y442300D01*
X500Y441300D02*
X7500Y441300D01*
X3929500Y441300D02*
X3936500Y441300D01*
X500Y440300D02*
X7500Y440300D01*
X3929500Y440300D02*
X3936500Y440300D01*
X500Y439300D02*
X7500Y439300D01*
X3929500Y439300D02*
X3936500Y439300D01*
X500Y438300D02*
X7500Y438300D01*
X3929500Y438300D02*
X3936500Y438300D01*
X500Y437300D02*
X7500Y437300D01*
X3929500Y437300D02*
X3936500Y437300D01*
X500Y436300D02*
X7500Y436300D01*
X3929500Y436300D02*
X3936500Y436300D01*
X500Y435300D02*
X7500Y435300D01*
X3929500Y435300D02*
X3936500Y435300D01*
X500Y434300D02*
X7500Y434300D01*
X3929500Y434300D02*
X3936500Y434300D01*
X500Y433300D02*
X7500Y433300D01*
X3929500Y433300D02*
X3936500Y433300D01*
X500Y432300D02*
X7500Y432300D01*
X3929500Y432300D02*
X3936500Y432300D01*
X500Y431300D02*
X7500Y431300D01*
X3929500Y431300D02*
X3936500Y431300D01*
X500Y430300D02*
X7500Y430300D01*
X3929500Y430300D02*
X3936500Y430300D01*
X500Y429300D02*
X7500Y429300D01*
X3929500Y429300D02*
X3936500Y429300D01*
X500Y428300D02*
X7500Y428300D01*
X3929500Y428300D02*
X3936500Y428300D01*
X500Y427300D02*
X7500Y427300D01*
X3929500Y427300D02*
X3936500Y427300D01*
X500Y426300D02*
X7500Y426300D01*
X3929500Y426300D02*
X3936500Y426300D01*
X500Y425300D02*
X7500Y425300D01*
X3929500Y425300D02*
X3936500Y425300D01*
X500Y424300D02*
X7500Y424300D01*
X3929500Y424300D02*
X3936500Y424300D01*
X500Y423300D02*
X7500Y423300D01*
X3929500Y423300D02*
X3936500Y423300D01*
X500Y422300D02*
X7500Y422300D01*
X3929500Y422300D02*
X3936500Y422300D01*
X500Y421300D02*
X7500Y421300D01*
X3929500Y421300D02*
X3936500Y421300D01*
X500Y420300D02*
X7500Y420300D01*
X3929500Y420300D02*
X3936500Y420300D01*
X500Y419300D02*
X7500Y419300D01*
X3929500Y419300D02*
X3936500Y419300D01*
X500Y418300D02*
X7500Y418300D01*
X3929500Y418300D02*
X3936500Y418300D01*
X500Y417300D02*
X7500Y417300D01*
X3929500Y417300D02*
X3936500Y417300D01*
X500Y416300D02*
X7500Y416300D01*
X3929500Y416300D02*
X3936500Y416300D01*
X500Y415300D02*
X7500Y415300D01*
X3929500Y415300D02*
X3936500Y415300D01*
X500Y414300D02*
X7500Y414300D01*
X3929500Y414300D02*
X3936500Y414300D01*
X500Y413300D02*
X7500Y413300D01*
X3929500Y413300D02*
X3936500Y413300D01*
X500Y412300D02*
X7500Y412300D01*
X3929500Y412300D02*
X3936500Y412300D01*
X500Y411300D02*
X7500Y411300D01*
X3929500Y411300D02*
X3936500Y411300D01*
X500Y410300D02*
X7500Y410300D01*
X3929500Y410300D02*
X3936500Y410300D01*
X500Y409300D02*
X7500Y409300D01*
X3929500Y409300D02*
X3936500Y409300D01*
X500Y408300D02*
X7500Y408300D01*
X3929500Y408300D02*
X3936500Y408300D01*
X500Y407300D02*
X7500Y407300D01*
X3929500Y407300D02*
X3936500Y407300D01*
X500Y406300D02*
X7500Y406300D01*
X3929500Y406300D02*
X3936500Y406300D01*
X500Y405300D02*
X7500Y405300D01*
X3929500Y405300D02*
X3936500Y405300D01*
X500Y404300D02*
X7500Y404300D01*
X3929500Y404300D02*
X3936500Y404300D01*
X500Y403300D02*
X7500Y403300D01*
X3929500Y403300D02*
X3936500Y403300D01*
X500Y402300D02*
X7500Y402300D01*
X3929500Y402300D02*
X3936500Y402300D01*
X500Y401300D02*
X7500Y401300D01*
X3929500Y401300D02*
X3936500Y401300D01*
X500Y400300D02*
X7500Y400300D01*
X3929500Y400300D02*
X3936500Y400300D01*
X500Y399300D02*
X7500Y399300D01*
X3929500Y399300D02*
X3936500Y399300D01*
X500Y398300D02*
X7500Y398300D01*
X3929500Y398300D02*
X3936500Y398300D01*
X500Y397300D02*
X7500Y397300D01*
X3929500Y397300D02*
X3936500Y397300D01*
X500Y396300D02*
X7500Y396300D01*
X3929500Y396300D02*
X3936500Y396300D01*
X500Y395300D02*
X7500Y395300D01*
X3929500Y395300D02*
X3936500Y395300D01*
X500Y394300D02*
X7500Y394300D01*
X3929500Y394300D02*
X3936500Y394300D01*
X500Y393300D02*
X7500Y393300D01*
X3929500Y393300D02*
X3936500Y393300D01*
X500Y392300D02*
X7500Y392300D01*
X3929500Y392300D02*
X3936500Y392300D01*
X500Y391300D02*
X7500Y391300D01*
X3929500Y391300D02*
X3936500Y391300D01*
X500Y390300D02*
X7500Y390300D01*
X3929500Y390300D02*
X3936500Y390300D01*
X500Y389300D02*
X7500Y389300D01*
X3929500Y389300D02*
X3936500Y389300D01*
X500Y388300D02*
X7500Y388300D01*
X3929500Y388300D02*
X3936500Y388300D01*
X500Y387300D02*
X7500Y387300D01*
X3929500Y387300D02*
X3936500Y387300D01*
X500Y386300D02*
X7500Y386300D01*
X3929500Y386300D02*
X3936500Y386300D01*
X500Y385300D02*
X7500Y385300D01*
X3929500Y385300D02*
X3936500Y385300D01*
X500Y384300D02*
X7500Y384300D01*
X3929500Y384300D02*
X3936500Y384300D01*
X500Y383300D02*
X7500Y383300D01*
X3929500Y383300D02*
X3936500Y383300D01*
X500Y382300D02*
X7500Y382300D01*
X3929500Y382300D02*
X3936500Y382300D01*
X500Y381300D02*
X7500Y381300D01*
X3929500Y381300D02*
X3936500Y381300D01*
X500Y380300D02*
X7500Y380300D01*
X3929500Y380300D02*
X3936500Y380300D01*
X500Y379300D02*
X7500Y379300D01*
X3929500Y379300D02*
X3936500Y379300D01*
X500Y378300D02*
X7500Y378300D01*
X3929500Y378300D02*
X3936500Y378300D01*
X500Y377300D02*
X7500Y377300D01*
X3929500Y377300D02*
X3936500Y377300D01*
X500Y376300D02*
X7500Y376300D01*
X3929500Y376300D02*
X3936500Y376300D01*
X500Y375300D02*
X7500Y375300D01*
X3929500Y375300D02*
X3936500Y375300D01*
X500Y374300D02*
X7500Y374300D01*
X3929500Y374300D02*
X3936500Y374300D01*
X500Y373300D02*
X7500Y373300D01*
X3929500Y373300D02*
X3936500Y373300D01*
X500Y372300D02*
X7500Y372300D01*
X3929500Y372300D02*
X3936500Y372300D01*
X500Y371300D02*
X7500Y371300D01*
X3929500Y371300D02*
X3936500Y371300D01*
X500Y370300D02*
X7500Y370300D01*
X3929500Y370300D02*
X3936500Y370300D01*
X500Y369300D02*
X7500Y369300D01*
X3929500Y369300D02*
X3936500Y369300D01*
X500Y368300D02*
X7500Y368300D01*
X3929500Y368300D02*
X3936500Y368300D01*
X500Y367300D02*
X7500Y367300D01*
X3929500Y367300D02*
X3936500Y367300D01*
X500Y366300D02*
X7500Y366300D01*
X3929500Y366300D02*
X3936500Y366300D01*
X500Y365300D02*
X7500Y365300D01*
X3929500Y365300D02*
X3936500Y365300D01*
X500Y364300D02*
X7500Y364300D01*
X3929500Y364300D02*
X3936500Y364300D01*
X500Y363300D02*
X7500Y363300D01*
X3929500Y363300D02*
X3936500Y363300D01*
X500Y362300D02*
X7500Y362300D01*
X3929500Y362300D02*
X3936500Y362300D01*
X500Y361300D02*
X7500Y361300D01*
X3929500Y361300D02*
X3936500Y361300D01*
X500Y360300D02*
X7500Y360300D01*
X3929500Y360300D02*
X3936500Y360300D01*
X500Y359300D02*
X7500Y359300D01*
X3929500Y359300D02*
X3936500Y359300D01*
X500Y358300D02*
X7500Y358300D01*
X3929500Y358300D02*
X3936500Y358300D01*
X500Y357300D02*
X7500Y357300D01*
X3929500Y357300D02*
X3936500Y357300D01*
X500Y356300D02*
X7500Y356300D01*
X3929500Y356300D02*
X3936500Y356300D01*
X500Y355300D02*
X7500Y355300D01*
X3929500Y355300D02*
X3936500Y355300D01*
X500Y354300D02*
X7500Y354300D01*
X3929500Y354300D02*
X3936500Y354300D01*
X500Y353300D02*
X7500Y353300D01*
X3929500Y353300D02*
X3936500Y353300D01*
X500Y352300D02*
X7500Y352300D01*
X3929500Y352300D02*
X3936500Y352300D01*
X500Y351300D02*
X7500Y351300D01*
X3929500Y351300D02*
X3936500Y351300D01*
X500Y350300D02*
X7500Y350300D01*
X3929500Y350300D02*
X3936500Y350300D01*
X500Y349300D02*
X7500Y349300D01*
X3929500Y349300D02*
X3936500Y349300D01*
X500Y348300D02*
X7500Y348300D01*
X3929500Y348300D02*
X3936500Y348300D01*
X500Y347300D02*
X7500Y347300D01*
X3929500Y347300D02*
X3936500Y347300D01*
X500Y346300D02*
X7500Y346300D01*
X3929500Y346300D02*
X3936500Y346300D01*
X500Y345300D02*
X7500Y345300D01*
X3929500Y345300D02*
X3936500Y345300D01*
X500Y344300D02*
X7500Y344300D01*
X3929500Y344300D02*
X3936500Y344300D01*
X500Y343300D02*
X7500Y343300D01*
X3929500Y343300D02*
X3936500Y343300D01*
X500Y342300D02*
X7500Y342300D01*
X3929500Y342300D02*
X3936500Y342300D01*
X500Y341300D02*
X7500Y341300D01*
X3929500Y341300D02*
X3936500Y341300D01*
X500Y340300D02*
X7500Y340300D01*
X3929500Y340300D02*
X3936500Y340300D01*
X500Y339300D02*
X7500Y339300D01*
X3929500Y339300D02*
X3936500Y339300D01*
X500Y338300D02*
X7500Y338300D01*
X3929500Y338300D02*
X3936500Y338300D01*
X500Y337300D02*
X7500Y337300D01*
X3929500Y337300D02*
X3936500Y337300D01*
X500Y336300D02*
X7500Y336300D01*
X3929500Y336300D02*
X3936500Y336300D01*
X500Y335300D02*
X7500Y335300D01*
X3929500Y335300D02*
X3936500Y335300D01*
X500Y334300D02*
X7500Y334300D01*
X3929500Y334300D02*
X3936500Y334300D01*
X500Y333300D02*
X7500Y333300D01*
X3929500Y333300D02*
X3936500Y333300D01*
X500Y332300D02*
X7500Y332300D01*
X3929500Y332300D02*
X3936500Y332300D01*
X500Y331300D02*
X7500Y331300D01*
X3929500Y331300D02*
X3936500Y331300D01*
X500Y330300D02*
X7500Y330300D01*
X3929500Y330300D02*
X3936500Y330300D01*
X500Y329300D02*
X7500Y329300D01*
X3929500Y329300D02*
X3936500Y329300D01*
X500Y328300D02*
X7500Y328300D01*
X3929500Y328300D02*
X3936500Y328300D01*
X500Y327300D02*
X7500Y327300D01*
X3929500Y327300D02*
X3936500Y327300D01*
X500Y326300D02*
X7500Y326300D01*
X3929500Y326300D02*
X3936500Y326300D01*
X500Y325300D02*
X7500Y325300D01*
X3929500Y325300D02*
X3936500Y325300D01*
X500Y324300D02*
X7500Y324300D01*
X3929500Y324300D02*
X3936500Y324300D01*
X500Y323300D02*
X7500Y323300D01*
X3929500Y323300D02*
X3936500Y323300D01*
X500Y322300D02*
X7500Y322300D01*
X3929500Y322300D02*
X3936500Y322300D01*
X500Y321300D02*
X7500Y321300D01*
X3929500Y321300D02*
X3936500Y321300D01*
X500Y320300D02*
X7500Y320300D01*
X3929500Y320300D02*
X3936500Y320300D01*
X500Y319300D02*
X7500Y319300D01*
X3929500Y319300D02*
X3936500Y319300D01*
X500Y318300D02*
X7500Y318300D01*
X3929500Y318300D02*
X3936500Y318300D01*
X500Y317300D02*
X7500Y317300D01*
X3929500Y317300D02*
X3936500Y317300D01*
X500Y316300D02*
X7500Y316300D01*
X3929500Y316300D02*
X3936500Y316300D01*
X500Y315300D02*
X7500Y315300D01*
X3929500Y315300D02*
X3936500Y315300D01*
X500Y314300D02*
X7500Y314300D01*
X3929500Y314300D02*
X3936500Y314300D01*
X500Y313300D02*
X7500Y313300D01*
X3929500Y313300D02*
X3936500Y313300D01*
X500Y312300D02*
X7500Y312300D01*
X3929500Y312300D02*
X3936500Y312300D01*
X500Y311300D02*
X7500Y311300D01*
X3929500Y311300D02*
X3936500Y311300D01*
X500Y310300D02*
X7500Y310300D01*
X3929500Y310300D02*
X3936500Y310300D01*
X500Y309300D02*
X7500Y309300D01*
X3929500Y309300D02*
X3936500Y309300D01*
X500Y308300D02*
X7500Y308300D01*
X3929500Y308300D02*
X3936500Y308300D01*
X500Y307300D02*
X7500Y307300D01*
X3929500Y307300D02*
X3936500Y307300D01*
X500Y306300D02*
X7500Y306300D01*
X3929500Y306300D02*
X3936500Y306300D01*
X500Y305300D02*
X7500Y305300D01*
X3929500Y305300D02*
X3936500Y305300D01*
X500Y304300D02*
X7500Y304300D01*
X3929500Y304300D02*
X3936500Y304300D01*
X500Y303300D02*
X7500Y303300D01*
X3929500Y303300D02*
X3936500Y303300D01*
X500Y302300D02*
X7500Y302300D01*
X3929500Y302300D02*
X3936500Y302300D01*
X500Y301300D02*
X7500Y301300D01*
X3929500Y301300D02*
X3936500Y301300D01*
X500Y300300D02*
X7500Y300300D01*
X3929500Y300300D02*
X3936500Y300300D01*
X500Y299300D02*
X7500Y299300D01*
X3929500Y299300D02*
X3936500Y299300D01*
X500Y298300D02*
X7500Y298300D01*
X3929500Y298300D02*
X3936500Y298300D01*
X500Y297300D02*
X7500Y297300D01*
X3929500Y297300D02*
X3936500Y297300D01*
X500Y296300D02*
X7500Y296300D01*
X3929500Y296300D02*
X3936500Y296300D01*
X500Y295300D02*
X7500Y295300D01*
X3929500Y295300D02*
X3936500Y295300D01*
X500Y294300D02*
X7500Y294300D01*
X3929500Y294300D02*
X3936500Y294300D01*
X500Y293300D02*
X7500Y293300D01*
X3929500Y293300D02*
X3936500Y293300D01*
X500Y292300D02*
X7500Y292300D01*
X3929500Y292300D02*
X3936500Y292300D01*
X500Y291300D02*
X7500Y291300D01*
X3929500Y291300D02*
X3936500Y291300D01*
X500Y290300D02*
X7500Y290300D01*
X3929500Y290300D02*
X3936500Y290300D01*
X500Y289300D02*
X7500Y289300D01*
X3929500Y289300D02*
X3936500Y289300D01*
X500Y288300D02*
X7500Y288300D01*
X3929500Y288300D02*
X3936500Y288300D01*
X500Y287300D02*
X7500Y287300D01*
X3929500Y287300D02*
X3936500Y287300D01*
X500Y286300D02*
X7500Y286300D01*
X3929500Y286300D02*
X3936500Y286300D01*
X500Y285300D02*
X7500Y285300D01*
X3929500Y285300D02*
X3936500Y285300D01*
X500Y284300D02*
X7500Y284300D01*
X3929500Y284300D02*
X3936500Y284300D01*
X500Y283300D02*
X7500Y283300D01*
X3929500Y283300D02*
X3936500Y283300D01*
X500Y282300D02*
X7500Y282300D01*
X3929500Y282300D02*
X3936500Y282300D01*
X500Y281300D02*
X7500Y281300D01*
X3929500Y281300D02*
X3936500Y281300D01*
X500Y280300D02*
X7500Y280300D01*
X3929500Y280300D02*
X3936500Y280300D01*
X500Y279300D02*
X7500Y279300D01*
X3929500Y279300D02*
X3936500Y279300D01*
X500Y278300D02*
X7500Y278300D01*
X3929500Y278300D02*
X3936500Y278300D01*
X500Y277300D02*
X7500Y277300D01*
X3929500Y277300D02*
X3936500Y277300D01*
X500Y276300D02*
X7500Y276300D01*
X3929500Y276300D02*
X3936500Y276300D01*
X500Y275300D02*
X7500Y275300D01*
X3929500Y275300D02*
X3936500Y275300D01*
X500Y274300D02*
X7500Y274300D01*
X3929500Y274300D02*
X3936500Y274300D01*
X500Y273300D02*
X7500Y273300D01*
X3929500Y273300D02*
X3936500Y273300D01*
X500Y272300D02*
X7500Y272300D01*
X3929500Y272300D02*
X3936500Y272300D01*
X500Y271300D02*
X7500Y271300D01*
X3929500Y271300D02*
X3936500Y271300D01*
X500Y270300D02*
X7500Y270300D01*
X3929500Y270300D02*
X3936500Y270300D01*
X500Y269300D02*
X7500Y269300D01*
X3929500Y269300D02*
X3936500Y269300D01*
X500Y268300D02*
X7500Y268300D01*
X3929500Y268300D02*
X3936500Y268300D01*
X500Y267300D02*
X7500Y267300D01*
X3929500Y267300D02*
X3936500Y267300D01*
X500Y266300D02*
X7500Y266300D01*
X3929500Y266300D02*
X3936500Y266300D01*
X500Y265300D02*
X7500Y265300D01*
X3929500Y265300D02*
X3936500Y265300D01*
X500Y264300D02*
X7500Y264300D01*
X3929500Y264300D02*
X3936500Y264300D01*
X500Y263300D02*
X7500Y263300D01*
X3929500Y263300D02*
X3936500Y263300D01*
X500Y262300D02*
X7500Y262300D01*
X3929500Y262300D02*
X3936500Y262300D01*
X500Y261300D02*
X7500Y261300D01*
X3929500Y261300D02*
X3936500Y261300D01*
X500Y260300D02*
X7500Y260300D01*
X3929500Y260300D02*
X3936500Y260300D01*
X500Y259300D02*
X7500Y259300D01*
X3929500Y259300D02*
X3936500Y259300D01*
X500Y258300D02*
X7500Y258300D01*
X3929500Y258300D02*
X3936500Y258300D01*
X500Y257300D02*
X7500Y257300D01*
X3929500Y257300D02*
X3936500Y257300D01*
X500Y256300D02*
X7500Y256300D01*
X3929500Y256300D02*
X3936500Y256300D01*
X500Y255300D02*
X7500Y255300D01*
X3929500Y255300D02*
X3936500Y255300D01*
X500Y254300D02*
X7500Y254300D01*
X3929500Y254300D02*
X3936500Y254300D01*
X500Y253300D02*
X7500Y253300D01*
X3929500Y253300D02*
X3936500Y253300D01*
X500Y252300D02*
X7500Y252300D01*
X3929500Y252300D02*
X3936500Y252300D01*
X500Y251300D02*
X7500Y251300D01*
X3929500Y251300D02*
X3936500Y251300D01*
X500Y250300D02*
X7500Y250300D01*
X3929500Y250300D02*
X3936500Y250300D01*
X500Y249300D02*
X7500Y249300D01*
X3929500Y249300D02*
X3936500Y249300D01*
X500Y248300D02*
X7500Y248300D01*
X3929500Y248300D02*
X3936500Y248300D01*
X500Y247300D02*
X7500Y247300D01*
X3929500Y247300D02*
X3936500Y247300D01*
X500Y246300D02*
X7500Y246300D01*
X3929500Y246300D02*
X3936500Y246300D01*
X500Y245300D02*
X7500Y245300D01*
X3929500Y245300D02*
X3936500Y245300D01*
X500Y244300D02*
X7500Y244300D01*
X3929500Y244300D02*
X3936500Y244300D01*
X500Y243300D02*
X7500Y243300D01*
X3929500Y243300D02*
X3936500Y243300D01*
X500Y242300D02*
X7500Y242300D01*
X3929500Y242300D02*
X3936500Y242300D01*
X500Y241300D02*
X7500Y241300D01*
X3929500Y241300D02*
X3936500Y241300D01*
X500Y240300D02*
X7500Y240300D01*
X3929500Y240300D02*
X3936500Y240300D01*
X500Y239300D02*
X7500Y239300D01*
X3929500Y239300D02*
X3936500Y239300D01*
X500Y238300D02*
X7500Y238300D01*
X3929500Y238300D02*
X3936500Y238300D01*
X500Y237300D02*
X7500Y237300D01*
X3929500Y237300D02*
X3936500Y237300D01*
X500Y236300D02*
X7500Y236300D01*
X3929500Y236300D02*
X3936500Y236300D01*
X500Y235300D02*
X7500Y235300D01*
X3929500Y235300D02*
X3936500Y235300D01*
X500Y234300D02*
X7500Y234300D01*
X3929500Y234300D02*
X3936500Y234300D01*
X500Y233300D02*
X7500Y233300D01*
X3929500Y233300D02*
X3936500Y233300D01*
X500Y232300D02*
X7500Y232300D01*
X3929500Y232300D02*
X3936500Y232300D01*
X500Y231300D02*
X7500Y231300D01*
X3929500Y231300D02*
X3936500Y231300D01*
X500Y230300D02*
X7500Y230300D01*
X3929500Y230300D02*
X3936500Y230300D01*
X500Y229300D02*
X7500Y229300D01*
X3929500Y229300D02*
X3936500Y229300D01*
X500Y228300D02*
X7500Y228300D01*
X3929500Y228300D02*
X3936500Y228300D01*
X500Y227300D02*
X7500Y227300D01*
X3929500Y227300D02*
X3936500Y227300D01*
X500Y226300D02*
X7500Y226300D01*
X3929500Y226300D02*
X3936500Y226300D01*
X500Y225300D02*
X7500Y225300D01*
X3929500Y225300D02*
X3936500Y225300D01*
X500Y224300D02*
X7500Y224300D01*
X3929500Y224300D02*
X3936500Y224300D01*
X500Y223300D02*
X7500Y223300D01*
X3929500Y223300D02*
X3936500Y223300D01*
X500Y222300D02*
X7500Y222300D01*
X3929500Y222300D02*
X3936500Y222300D01*
X500Y221300D02*
X7500Y221300D01*
X3929500Y221300D02*
X3936500Y221300D01*
X500Y220300D02*
X7500Y220300D01*
X3929500Y220300D02*
X3936500Y220300D01*
X500Y219300D02*
X7500Y219300D01*
X3929500Y219300D02*
X3936500Y219300D01*
X500Y218300D02*
X7500Y218300D01*
X3929500Y218300D02*
X3936500Y218300D01*
X500Y217300D02*
X7500Y217300D01*
X3929500Y217300D02*
X3936500Y217300D01*
X500Y216300D02*
X7500Y216300D01*
X3929500Y216300D02*
X3936500Y216300D01*
X500Y215300D02*
X7500Y215300D01*
X3929500Y215300D02*
X3936500Y215300D01*
X500Y214300D02*
X7500Y214300D01*
X3929500Y214300D02*
X3936500Y214300D01*
X500Y213300D02*
X7500Y213300D01*
X3929500Y213300D02*
X3936500Y213300D01*
X500Y212300D02*
X7500Y212300D01*
X3929500Y212300D02*
X3936500Y212300D01*
X500Y211300D02*
X7500Y211300D01*
X3929500Y211300D02*
X3936500Y211300D01*
X500Y210300D02*
X7500Y210300D01*
X3929500Y210300D02*
X3936500Y210300D01*
X500Y209300D02*
X7500Y209300D01*
X3929500Y209300D02*
X3936500Y209300D01*
X500Y208300D02*
X7500Y208300D01*
X3929500Y208300D02*
X3936500Y208300D01*
X500Y207300D02*
X7500Y207300D01*
X3929500Y207300D02*
X3936500Y207300D01*
X500Y206300D02*
X7500Y206300D01*
X3929500Y206300D02*
X3936500Y206300D01*
X500Y205300D02*
X7500Y205300D01*
X3929500Y205300D02*
X3936500Y205300D01*
X500Y204300D02*
X7500Y204300D01*
X3929500Y204300D02*
X3936500Y204300D01*
X500Y203300D02*
X7500Y203300D01*
X3929500Y203300D02*
X3936500Y203300D01*
X500Y202300D02*
X7500Y202300D01*
X3929500Y202300D02*
X3936500Y202300D01*
X500Y201300D02*
X7500Y201300D01*
X3929500Y201300D02*
X3936500Y201300D01*
X500Y200300D02*
X7500Y200300D01*
X3929500Y200300D02*
X3936500Y200300D01*
X500Y199300D02*
X7500Y199300D01*
X3929500Y199300D02*
X3936500Y199300D01*
X500Y198300D02*
X7500Y198300D01*
X3929500Y198300D02*
X3936500Y198300D01*
X500Y197300D02*
X7500Y197300D01*
X3929500Y197300D02*
X3936500Y197300D01*
X500Y196300D02*
X7500Y196300D01*
X3929500Y196300D02*
X3936500Y196300D01*
X500Y195300D02*
X7500Y195300D01*
X3929500Y195300D02*
X3936500Y195300D01*
X500Y194300D02*
X7500Y194300D01*
X3929500Y194300D02*
X3936500Y194300D01*
X500Y193300D02*
X7500Y193300D01*
X3929500Y193300D02*
X3936500Y193300D01*
X500Y192300D02*
X7500Y192300D01*
X3929500Y192300D02*
X3936500Y192300D01*
X500Y191300D02*
X7500Y191300D01*
X3929500Y191300D02*
X3936500Y191300D01*
X500Y190300D02*
X7500Y190300D01*
X3929500Y190300D02*
X3936500Y190300D01*
X500Y189300D02*
X7500Y189300D01*
X3929500Y189300D02*
X3936500Y189300D01*
X500Y188300D02*
X7500Y188300D01*
X3929500Y188300D02*
X3936500Y188300D01*
X500Y187300D02*
X7500Y187300D01*
X3929500Y187300D02*
X3936500Y187300D01*
X500Y186300D02*
X7500Y186300D01*
X3929500Y186300D02*
X3936500Y186300D01*
X500Y185300D02*
X7500Y185300D01*
X3929500Y185300D02*
X3936500Y185300D01*
X500Y184300D02*
X7500Y184300D01*
X3929500Y184300D02*
X3936500Y184300D01*
X500Y183300D02*
X7500Y183300D01*
X3929500Y183300D02*
X3936500Y183300D01*
X500Y182300D02*
X7500Y182300D01*
X3929500Y182300D02*
X3936500Y182300D01*
X500Y181300D02*
X7500Y181300D01*
X3929500Y181300D02*
X3936500Y181300D01*
X500Y180300D02*
X7500Y180300D01*
X3929500Y180300D02*
X3936500Y180300D01*
X500Y179300D02*
X7500Y179300D01*
X3929500Y179300D02*
X3936500Y179300D01*
X500Y178300D02*
X7500Y178300D01*
X3929500Y178300D02*
X3936500Y178300D01*
X500Y177300D02*
X7500Y177300D01*
X3929500Y177300D02*
X3936500Y177300D01*
X500Y176300D02*
X7500Y176300D01*
X3929500Y176300D02*
X3936500Y176300D01*
X500Y175300D02*
X7500Y175300D01*
X3929500Y175300D02*
X3936500Y175300D01*
X500Y174300D02*
X7500Y174300D01*
X3929500Y174300D02*
X3936500Y174300D01*
X500Y173300D02*
X7500Y173300D01*
X3929500Y173300D02*
X3936500Y173300D01*
X500Y172300D02*
X7500Y172300D01*
X3929500Y172300D02*
X3936500Y172300D01*
X500Y171300D02*
X7500Y171300D01*
X3929500Y171300D02*
X3936500Y171300D01*
X500Y170300D02*
X7500Y170300D01*
X3929500Y170300D02*
X3936500Y170300D01*
X500Y169300D02*
X7500Y169300D01*
X3929500Y169300D02*
X3936500Y169300D01*
X500Y168300D02*
X7500Y168300D01*
X3929500Y168300D02*
X3936500Y168300D01*
X500Y167300D02*
X7500Y167300D01*
X3929500Y167300D02*
X3936500Y167300D01*
X500Y166300D02*
X7500Y166300D01*
X3929500Y166300D02*
X3936500Y166300D01*
X500Y165300D02*
X7500Y165300D01*
X3929500Y165300D02*
X3936500Y165300D01*
X500Y164300D02*
X7500Y164300D01*
X3929500Y164300D02*
X3936500Y164300D01*
X500Y163300D02*
X7500Y163300D01*
X3929500Y163300D02*
X3936500Y163300D01*
X500Y162300D02*
X7500Y162300D01*
X3929500Y162300D02*
X3936500Y162300D01*
X500Y161300D02*
X7500Y161300D01*
X3929500Y161300D02*
X3936500Y161300D01*
X500Y160300D02*
X7500Y160300D01*
X3929500Y160300D02*
X3936500Y160300D01*
X500Y159300D02*
X7500Y159300D01*
X3929500Y159300D02*
X3936500Y159300D01*
X500Y158300D02*
X7500Y158300D01*
X3929500Y158300D02*
X3936500Y158300D01*
X500Y157300D02*
X7500Y157300D01*
X3929500Y157300D02*
X3936500Y157300D01*
X500Y156300D02*
X7500Y156300D01*
X3929500Y156300D02*
X3936500Y156300D01*
X500Y155300D02*
X7500Y155300D01*
X3929500Y155300D02*
X3936500Y155300D01*
X500Y154300D02*
X7500Y154300D01*
X3929500Y154300D02*
X3936500Y154300D01*
X500Y153300D02*
X7500Y153300D01*
X3929500Y153300D02*
X3936500Y153300D01*
X500Y152300D02*
X7500Y152300D01*
X3929500Y152300D02*
X3936500Y152300D01*
X500Y151300D02*
X7500Y151300D01*
X3929500Y151300D02*
X3936500Y151300D01*
X500Y150300D02*
X7500Y150300D01*
X3929500Y150300D02*
X3936500Y150300D01*
X500Y149300D02*
X7500Y149300D01*
X3929500Y149300D02*
X3936500Y149300D01*
X500Y148300D02*
X7500Y148300D01*
X3929500Y148300D02*
X3936500Y148300D01*
X500Y147300D02*
X7500Y147300D01*
X3929500Y147300D02*
X3936500Y147300D01*
X500Y146300D02*
X7500Y146300D01*
X3929500Y146300D02*
X3936500Y146300D01*
X500Y145300D02*
X7500Y145300D01*
X3929500Y145300D02*
X3936500Y145300D01*
X500Y144300D02*
X7500Y144300D01*
X3929500Y144300D02*
X3936500Y144300D01*
X500Y143300D02*
X7500Y143300D01*
X3929500Y143300D02*
X3936500Y143300D01*
X500Y142300D02*
X7500Y142300D01*
X3929500Y142300D02*
X3936500Y142300D01*
X500Y141300D02*
X7500Y141300D01*
X3929500Y141300D02*
X3936500Y141300D01*
X500Y140300D02*
X7500Y140300D01*
X3929500Y140300D02*
X3936500Y140300D01*
X500Y139300D02*
X7500Y139300D01*
X3929500Y139300D02*
X3936500Y139300D01*
X500Y138300D02*
X7500Y138300D01*
X3929500Y138300D02*
X3936500Y138300D01*
X500Y137300D02*
X7500Y137300D01*
X3929500Y137300D02*
X3936500Y137300D01*
X500Y136300D02*
X7500Y136300D01*
X3929500Y136300D02*
X3936500Y136300D01*
X500Y135300D02*
X7500Y135300D01*
X3929500Y135300D02*
X3936500Y135300D01*
X500Y134300D02*
X7500Y134300D01*
X3929500Y134300D02*
X3936500Y134300D01*
X500Y133300D02*
X7500Y133300D01*
X3929500Y133300D02*
X3936500Y133300D01*
X500Y132300D02*
X7500Y132300D01*
X3929500Y132300D02*
X3936500Y132300D01*
X500Y131300D02*
X7500Y131300D01*
X3929500Y131300D02*
X3936500Y131300D01*
X500Y130300D02*
X7500Y130300D01*
X3929500Y130300D02*
X3936500Y130300D01*
X500Y129300D02*
X7500Y129300D01*
X3929500Y129300D02*
X3936500Y129300D01*
X500Y128300D02*
X7500Y128300D01*
X3929500Y128300D02*
X3936500Y128300D01*
X500Y127300D02*
X7500Y127300D01*
X3929500Y127300D02*
X3936500Y127300D01*
X500Y126300D02*
X7500Y126300D01*
X3929500Y126300D02*
X3936500Y126300D01*
X500Y125300D02*
X7500Y125300D01*
X3929500Y125300D02*
X3936500Y125300D01*
X500Y124300D02*
X7500Y124300D01*
X3929500Y124300D02*
X3936500Y124300D01*
X500Y123300D02*
X7500Y123300D01*
X3929500Y123300D02*
X3936500Y123300D01*
X500Y122300D02*
X7500Y122300D01*
X3929500Y122300D02*
X3936500Y122300D01*
X500Y121300D02*
X7500Y121300D01*
X3929500Y121300D02*
X3936500Y121300D01*
X500Y120300D02*
X7500Y120300D01*
X3929500Y120300D02*
X3936500Y120300D01*
X500Y119300D02*
X7500Y119300D01*
X3929500Y119300D02*
X3936500Y119300D01*
X500Y118300D02*
X7500Y118300D01*
X3929500Y118300D02*
X3936500Y118300D01*
X500Y117300D02*
X7500Y117300D01*
X3929500Y117300D02*
X3936500Y117300D01*
X500Y116300D02*
X7500Y116300D01*
X3929500Y116300D02*
X3936500Y116300D01*
X500Y115300D02*
X7500Y115300D01*
X3929500Y115300D02*
X3936500Y115300D01*
X500Y114300D02*
X7500Y114300D01*
X3929500Y114300D02*
X3936500Y114300D01*
X500Y113300D02*
X7500Y113300D01*
X3929500Y113300D02*
X3936500Y113300D01*
X500Y112300D02*
X7500Y112300D01*
X3929500Y112300D02*
X3936500Y112300D01*
X500Y111300D02*
X7500Y111300D01*
X3929500Y111300D02*
X3936500Y111300D01*
X500Y110300D02*
X7500Y110300D01*
X3929500Y110300D02*
X3936500Y110300D01*
X500Y109300D02*
X7500Y109300D01*
X3929500Y109300D02*
X3936500Y109300D01*
X500Y108300D02*
X7500Y108300D01*
X3929500Y108300D02*
X3936500Y108300D01*
X500Y107300D02*
X7500Y107300D01*
X3929500Y107300D02*
X3936500Y107300D01*
X500Y106300D02*
X7500Y106300D01*
X3929500Y106300D02*
X3936500Y106300D01*
X500Y105300D02*
X7500Y105300D01*
X3929500Y105300D02*
X3936500Y105300D01*
X500Y104300D02*
X7500Y104300D01*
X3929500Y104300D02*
X3936500Y104300D01*
X500Y103300D02*
X7500Y103300D01*
X3929500Y103300D02*
X3936500Y103300D01*
X500Y102300D02*
X7500Y102300D01*
X3929500Y102300D02*
X3936500Y102300D01*
X500Y101300D02*
X7500Y101300D01*
X3929500Y101300D02*
X3936500Y101300D01*
X500Y100300D02*
X7500Y100300D01*
X3930500Y100300D02*
X3936500Y100300D01*
X500Y99300D02*
X7500Y99300D01*
X3930500Y99300D02*
X3936500Y99300D01*
X500Y98300D02*
X7500Y98300D01*
X3930500Y98300D02*
X3936500Y98300D01*
X500Y97300D02*
X7500Y97300D01*
X3931500Y97300D02*
X3936500Y97300D01*
X500Y96300D02*
X7500Y96300D01*
X3931500Y96300D02*
X3936500Y96300D01*
X500Y95300D02*
X7500Y95300D01*
X3931500Y95300D02*
X3936500Y95300D01*
X500Y94300D02*
X7500Y94300D01*
X3932500Y94300D02*
X3936500Y94300D01*
X500Y93300D02*
X7500Y93300D01*
X3932500Y93300D02*
X3936500Y93300D01*
X500Y92300D02*
X7500Y92300D01*
X3932500Y92300D02*
X3936500Y92300D01*
X500Y91300D02*
X7500Y91300D01*
X3932500Y91300D02*
X3936500Y91300D01*
X500Y90300D02*
X7500Y90300D01*
X3932500Y90300D02*
X3936500Y90300D01*
X500Y89300D02*
X7500Y89300D01*
X3932500Y89300D02*
X3936500Y89300D01*
X500Y88300D02*
X7500Y88300D01*
X3932500Y88300D02*
X3936500Y88300D01*
X500Y87300D02*
X7500Y87300D01*
X3932500Y87300D02*
X3936500Y87300D01*
X500Y86300D02*
X7500Y86300D01*
X3931500Y86300D02*
X3936500Y86300D01*
X500Y85300D02*
X7500Y85300D01*
X3931500Y85300D02*
X3936500Y85300D01*
X500Y84300D02*
X7500Y84300D01*
X3931500Y84300D02*
X3936500Y84300D01*
X500Y83300D02*
X7500Y83300D01*
X3931500Y83300D02*
X3936500Y83300D01*
X500Y82300D02*
X7500Y82300D01*
X3930500Y82300D02*
X3936500Y82300D01*
X500Y81300D02*
X7500Y81300D01*
X3930500Y81300D02*
X3936500Y81300D01*
X500Y80300D02*
X7500Y80300D01*
X3929500Y80300D02*
X3936500Y80300D01*
X500Y79300D02*
X7500Y79300D01*
X3929500Y79300D02*
X3936500Y79300D01*
X500Y78300D02*
X7500Y78300D01*
X3929500Y78300D02*
X3936500Y78300D01*
X500Y77300D02*
X7500Y77300D01*
X3929500Y77300D02*
X3936500Y77300D01*
X500Y76300D02*
X7500Y76300D01*
X3929500Y76300D02*
X3936500Y76300D01*
X500Y75300D02*
X7500Y75300D01*
X3929500Y75300D02*
X3936500Y75300D01*
X500Y74300D02*
X7500Y74300D01*
X3929500Y74300D02*
X3936500Y74300D01*
X500Y73300D02*
X7500Y73300D01*
X3929500Y73300D02*
X3936500Y73300D01*
X500Y72300D02*
X7500Y72300D01*
X3929500Y72300D02*
X3936500Y72300D01*
X500Y71300D02*
X7500Y71300D01*
X3929500Y71300D02*
X3936500Y71300D01*
X500Y70300D02*
X7500Y70300D01*
X3929500Y70300D02*
X3936500Y70300D01*
X500Y69300D02*
X7500Y69300D01*
X3929500Y69300D02*
X3936500Y69300D01*
X500Y68300D02*
X7500Y68300D01*
X3929500Y68300D02*
X3936500Y68300D01*
X500Y67300D02*
X7500Y67300D01*
X3929500Y67300D02*
X3936500Y67300D01*
X500Y66300D02*
X7500Y66300D01*
X3929500Y66300D02*
X3936500Y66300D01*
X500Y65300D02*
X7500Y65300D01*
X3929500Y65300D02*
X3936500Y65300D01*
X500Y64300D02*
X7500Y64300D01*
X3929500Y64300D02*
X3936500Y64300D01*
X500Y63300D02*
X7500Y63300D01*
X3929500Y63300D02*
X3936500Y63300D01*
X500Y62300D02*
X7500Y62300D01*
X3929500Y62300D02*
X3936500Y62300D01*
X500Y61300D02*
X7500Y61300D01*
X3929500Y61300D02*
X3936500Y61300D01*
X500Y60300D02*
X7500Y60300D01*
X3929500Y60300D02*
X3936500Y60300D01*
X500Y59300D02*
X7500Y59300D01*
X3929500Y59300D02*
X3936500Y59300D01*
X500Y58300D02*
X7500Y58300D01*
X3929500Y58300D02*
X3936500Y58300D01*
X500Y57300D02*
X7500Y57300D01*
X3929500Y57300D02*
X3936500Y57300D01*
X500Y56300D02*
X7500Y56300D01*
X3929500Y56300D02*
X3936500Y56300D01*
X500Y55300D02*
X7500Y55300D01*
X3929500Y55300D02*
X3936500Y55300D01*
X500Y54300D02*
X7500Y54300D01*
X3929500Y54300D02*
X3936500Y54300D01*
X500Y53300D02*
X7500Y53300D01*
X3929500Y53300D02*
X3936500Y53300D01*
X500Y52300D02*
X7500Y52300D01*
X3929500Y52300D02*
X3936500Y52300D01*
X500Y51300D02*
X7500Y51300D01*
X3929500Y51300D02*
X3936500Y51300D01*
X500Y50300D02*
X7500Y50300D01*
X3929500Y50300D02*
X3936500Y50300D01*
X500Y49300D02*
X7500Y49300D01*
X3929500Y49300D02*
X3936500Y49300D01*
X500Y48300D02*
X7500Y48300D01*
X3929500Y48300D02*
X3936500Y48300D01*
X500Y47300D02*
X7500Y47300D01*
X3929500Y47300D02*
X3936500Y47300D01*
X500Y46300D02*
X7500Y46300D01*
X3929500Y46300D02*
X3936500Y46300D01*
X500Y45300D02*
X7500Y45300D01*
X3929500Y45300D02*
X3936500Y45300D01*
X500Y44300D02*
X7500Y44300D01*
X3929500Y44300D02*
X3936500Y44300D01*
X500Y43300D02*
X7500Y43300D01*
X3929500Y43300D02*
X3936500Y43300D01*
X500Y42300D02*
X7500Y42300D01*
X3929500Y42300D02*
X3936500Y42300D01*
X500Y41300D02*
X7500Y41300D01*
X3929500Y41300D02*
X3936500Y41300D01*
X500Y40300D02*
X7500Y40300D01*
X3929500Y40300D02*
X3936500Y40300D01*
X500Y39300D02*
X7500Y39300D01*
X3929500Y39300D02*
X3936500Y39300D01*
X500Y38300D02*
X7500Y38300D01*
X3929500Y38300D02*
X3936500Y38300D01*
X500Y37300D02*
X7500Y37300D01*
X3929500Y37300D02*
X3936500Y37300D01*
X500Y36300D02*
X7500Y36300D01*
X3929500Y36300D02*
X3936500Y36300D01*
X500Y35300D02*
X7500Y35300D01*
X3929500Y35300D02*
X3936500Y35300D01*
X500Y34300D02*
X7500Y34300D01*
X3929500Y34300D02*
X3936500Y34300D01*
X500Y33300D02*
X7500Y33300D01*
X3929500Y33300D02*
X3936500Y33300D01*
X500Y32300D02*
X7500Y32300D01*
X3929500Y32300D02*
X3936500Y32300D01*
X500Y31300D02*
X7500Y31300D01*
X3929500Y31300D02*
X3936500Y31300D01*
X500Y30300D02*
X7500Y30300D01*
X3929500Y30300D02*
X3936500Y30300D01*
X500Y29300D02*
X7500Y29300D01*
X3929500Y29300D02*
X3936500Y29300D01*
X500Y28300D02*
X7500Y28300D01*
X3929500Y28300D02*
X3936500Y28300D01*
X500Y27300D02*
X7500Y27300D01*
X3929500Y27300D02*
X3936500Y27300D01*
X500Y26300D02*
X7500Y26300D01*
X3929500Y26300D02*
X3936500Y26300D01*
X500Y25300D02*
X7500Y25300D01*
X3929500Y25300D02*
X3936500Y25300D01*
X500Y24300D02*
X7500Y24300D01*
X3929500Y24300D02*
X3936500Y24300D01*
X500Y23300D02*
X7500Y23300D01*
X3929500Y23300D02*
X3936500Y23300D01*
X500Y22300D02*
X7500Y22300D01*
X3929500Y22300D02*
X3936500Y22300D01*
X500Y21300D02*
X7500Y21300D01*
X3929500Y21300D02*
X3936500Y21300D01*
X500Y20300D02*
X7500Y20300D01*
X3929500Y20300D02*
X3936500Y20300D01*
X500Y19300D02*
X7500Y19300D01*
X3929500Y19300D02*
X3936500Y19300D01*
X500Y18300D02*
X7500Y18300D01*
X3929500Y18300D02*
X3936500Y18300D01*
X500Y17300D02*
X7500Y17300D01*
X3929500Y17300D02*
X3936500Y17300D01*
X500Y16300D02*
X7500Y16300D01*
X3929500Y16300D02*
X3936500Y16300D01*
X500Y15300D02*
X7500Y15300D01*
X3929500Y15300D02*
X3936500Y15300D01*
X500Y14300D02*
X7500Y14300D01*
X3929500Y14300D02*
X3936500Y14300D01*
X500Y13300D02*
X7500Y13300D01*
X3929500Y13300D02*
X3936500Y13300D01*
X500Y12300D02*
X7500Y12300D01*
X3929500Y12300D02*
X3936500Y12300D01*
X500Y11300D02*
X7500Y11300D01*
X3929500Y11300D02*
X3936500Y11300D01*
X500Y10300D02*
X7500Y10300D01*
X3929500Y10300D02*
X3936500Y10300D01*
X500Y9300D02*
X7500Y9300D01*
X3929500Y9300D02*
X3936500Y9300D01*
X500Y8300D02*
X3936500Y8300D01*
X500Y7300D02*
X3936500Y7300D01*
X500Y6300D02*
X3936500Y6300D01*
X500Y5300D02*
X3936500Y5300D01*
X500Y4300D02*
X3936500Y4300D01*
X500Y3300D02*
X3936500Y3300D01*
X500Y2300D02*
X3936500Y2300D01*
X500Y1300D02*
X3936500Y1300D01*
D02*
G04 End of Silk0*
M02*