G04 MADE WITH FRITZING*
G04 WWW.FRITZING.ORG*
G04 DOUBLE SIDED*
G04 HOLES PLATED*
G04 CONTOUR ON CENTER OF CONTOUR VECTOR*
%FSLAX26Y26*%
%MOIN*%
%ADD10C,0.075000*%
%ADD11C,0.216536*%
%ADD12C,0.083307*%
%ADD13C,0.078000*%
%ADD14C,0.137795*%
%ADD15R,0.083307X0.083307*%
%ADD16C,0.024000*%
%ADD17C,0.000100*%
%ADD18R,0.001000X0.001000*%
G04 COPPER1*
%FSLAX26Y26*%
%MOIN*%
D10*
X643600Y781000D03*
X844533Y139330D03*
X122566Y139700D03*
X845300Y1058767D03*
X122300Y1058333D03*
X237000Y457500D03*
D11*
X853041Y130880D03*
X130901Y1049957D03*
X853390Y1049870D03*
D12*
X306421Y325003D03*
X406421Y325003D03*
X575163Y325412D03*
X675163Y325412D03*
D13*
X232480Y876093D03*
X332485Y876093D03*
X432489Y876093D03*
X532493Y876093D03*
X632497Y876093D03*
X732501Y876093D03*
D14*
X281437Y574913D03*
X690502Y572171D03*
D11*
X130990Y131200D03*
D15*
X306421Y325003D03*
X575164Y325412D03*
D16*
X574844Y788064D02*
X575149Y347066D01*
D02*
X168117Y416033D02*
X288335Y336908D01*
D02*
X222959Y859650D02*
X168116Y764932D01*
D02*
X540730Y858971D02*
X574844Y788064D01*
D02*
X516414Y239944D02*
X486833Y304251D01*
D02*
X488101Y768789D02*
X441231Y859224D01*
D02*
X407141Y763006D02*
X342952Y860236D01*
D02*
X168117Y764933D02*
X168117Y416033D01*
D02*
X486834Y304251D02*
X488102Y768789D01*
D02*
X645029Y239944D02*
X516416Y239944D01*
D02*
X667963Y304991D02*
X645028Y239944D01*
D02*
X406457Y346657D02*
X407141Y763006D01*
D17*
G36*
X859567Y189467D02*
X865100Y188667D01*
X870433Y187234D01*
X875867Y185200D01*
X881667Y182434D01*
X885933Y179870D01*
X890400Y176430D01*
X894667Y172570D01*
X898633Y168200D01*
X902100Y163600D01*
X904733Y159230D01*
X907300Y153700D01*
X909400Y148130D01*
X910767Y142730D01*
X911633Y137130D01*
X911900Y130900D01*
X911600Y124530D01*
X910733Y118830D01*
X909333Y113530D01*
X907233Y107900D01*
X904633Y102400D01*
X901967Y98000D01*
X898600Y93570D01*
X894733Y89300D01*
X890333Y85300D01*
X885833Y81900D01*
X881433Y79230D01*
X875667Y76530D01*
X870200Y74470D01*
X864833Y73100D01*
X859300Y72300D01*
X852900Y72030D01*
X846433Y72330D01*
X840933Y73130D01*
X835600Y74570D01*
X830000Y76670D01*
X824633Y79230D01*
X819900Y82100D01*
X815600Y85370D01*
X811200Y89430D01*
X807166Y93830D01*
X803900Y98230D01*
X801266Y102630D01*
X798733Y108100D01*
X796600Y113770D01*
X795200Y119270D01*
X794400Y124670D01*
X794133Y130900D01*
X794433Y137530D01*
X795233Y142800D01*
X796733Y148400D01*
X798800Y153900D01*
X801433Y159470D01*
X804033Y163770D01*
X807466Y168300D01*
X811533Y172700D01*
X815800Y176600D01*
X820166Y179870D01*
X824900Y182734D01*
X830200Y185200D01*
X835833Y187334D01*
X841200Y188700D01*
X846700Y189500D01*
X852900Y189767D01*
X859567Y189467D01*
D02*
G37*
D02*
G36*
X137533Y189800D02*
X142866Y189000D01*
X148466Y187500D01*
X153966Y185433D01*
X159533Y182800D01*
X163933Y180100D01*
X168566Y176600D01*
X172466Y173030D01*
X176733Y168330D01*
X179966Y164030D01*
X182766Y159370D01*
X185266Y154030D01*
X187400Y148400D01*
X188733Y143100D01*
X189533Y137770D01*
X189833Y131300D01*
X189533Y124670D01*
X188733Y119130D01*
X187300Y113800D01*
X185200Y108200D01*
X182733Y103070D01*
X179833Y98200D01*
X176666Y94000D01*
X172333Y89270D01*
X168366Y85670D01*
X163733Y82200D01*
X159300Y79500D01*
X153766Y76930D01*
X148200Y74830D01*
X142800Y73470D01*
X137133Y72600D01*
X130867Y72330D01*
X124500Y72630D01*
X118900Y73500D01*
X113500Y74930D01*
X107967Y77000D01*
X102400Y79630D01*
X98000Y82330D01*
X93633Y85630D01*
X89167Y89730D01*
X85167Y94130D01*
X81967Y98430D01*
X79167Y103100D01*
X76533Y108670D01*
X74667Y113770D01*
X73167Y119600D01*
X72367Y124930D01*
X72100Y131300D01*
X72433Y138000D01*
X73200Y143100D01*
X74767Y148900D01*
X76600Y153970D01*
X79467Y159800D01*
X82100Y164230D01*
X85400Y168600D01*
X89400Y172900D01*
X93867Y177000D01*
X98200Y180230D01*
X102633Y182933D01*
X108167Y185500D01*
X113700Y187600D01*
X119333Y189033D01*
X124666Y189833D01*
X130867Y190100D01*
X137533Y189800D01*
D02*
G37*
D02*
G36*
X859934Y1108467D02*
X865234Y1107667D01*
X870934Y1106167D01*
X876367Y1104100D01*
X881734Y1101533D01*
X886401Y1098700D01*
X890767Y1095400D01*
X895034Y1091500D01*
X899067Y1087067D01*
X902301Y1082767D01*
X905134Y1078033D01*
X907567Y1072900D01*
X909734Y1067200D01*
X911167Y1061500D01*
X911967Y1056233D01*
X912234Y1049967D01*
X911934Y1043400D01*
X911134Y1038000D01*
X909667Y1032467D01*
X907567Y1026867D01*
X905034Y1021600D01*
X902234Y1016900D01*
X899001Y1012600D01*
X894901Y1008133D01*
X890567Y1004200D01*
X886301Y1001000D01*
X881501Y998100D01*
X876167Y995600D01*
X870534Y993467D01*
X865234Y992133D01*
X859534Y991267D01*
X853267Y991000D01*
X846934Y991300D01*
X841201Y992167D01*
X835934Y993567D01*
X830334Y995667D01*
X825000Y998200D01*
X820167Y1001133D01*
X815767Y1004467D01*
X811867Y1008067D01*
X807500Y1012866D01*
X804367Y1017066D01*
X801534Y1021800D01*
X799067Y1027066D01*
X796934Y1032700D01*
X795600Y1038000D01*
X794734Y1043800D01*
X794467Y1049900D01*
X794767Y1056367D01*
X795634Y1062033D01*
X797034Y1067300D01*
X799134Y1072900D01*
X801700Y1078267D01*
X804534Y1082967D01*
X807667Y1087100D01*
X812000Y1091833D01*
X816234Y1095633D01*
X820600Y1098967D01*
X825200Y1101667D01*
X830500Y1104167D01*
X836034Y1106267D01*
X841734Y1107700D01*
X847067Y1108500D01*
X853267Y1108767D01*
X859934Y1108467D01*
D02*
G37*
D02*
G36*
X137300Y1108567D02*
X143034Y1107700D01*
X148300Y1106300D01*
X153900Y1104200D01*
X159267Y1101633D01*
X164000Y1098767D01*
X168200Y1095567D01*
X172834Y1091333D01*
X176434Y1087367D01*
X179967Y1082700D01*
X182400Y1078633D01*
X185234Y1072633D01*
X187300Y1067167D01*
X188600Y1062067D01*
X189500Y1056200D01*
X189767Y1049967D01*
X189467Y1043600D01*
X188600Y1037900D01*
X187200Y1032600D01*
X185100Y1026967D01*
X182600Y1021733D01*
X179734Y1016966D01*
X176467Y1012633D01*
X172500Y1008300D01*
X168067Y1004267D01*
X163767Y1001033D01*
X159167Y998267D01*
X153400Y995533D01*
X148334Y993667D01*
X142500Y992167D01*
X137167Y991367D01*
X130767Y991100D01*
X124334Y991400D01*
X119000Y992200D01*
X113200Y993767D01*
X108133Y995600D01*
X102400Y998400D01*
X97800Y1001167D01*
X93500Y1004433D01*
X89133Y1008433D01*
X85133Y1012833D01*
X81900Y1017166D01*
X79033Y1021967D01*
X76600Y1027167D01*
X74467Y1032833D01*
X73067Y1038333D01*
X72267Y1043733D01*
X72000Y1049967D01*
X72300Y1056600D01*
X73100Y1061867D01*
X74600Y1067567D01*
X76600Y1072833D01*
X79500Y1078867D01*
X81933Y1082900D01*
X85500Y1087567D01*
X89067Y1091467D01*
X93767Y1095733D01*
X97967Y1098900D01*
X102733Y1101767D01*
X108067Y1104267D01*
X113700Y1106400D01*
X119000Y1107733D01*
X124733Y1108600D01*
X130767Y1108867D01*
X137300Y1108567D01*
D02*
G37*
D02*
G36*
X629866Y299433D02*
X630599Y299133D01*
X631233Y298600D01*
X632399Y296600D01*
X632999Y295733D01*
X637999Y289567D01*
X638366Y288833D01*
X638466Y288033D01*
X638333Y287267D01*
X629833Y263267D01*
X629333Y262633D01*
X628633Y262167D01*
X627866Y261967D01*
X531666Y262000D01*
X530533Y262467D01*
X530000Y263067D01*
X526033Y271700D01*
X525933Y272100D01*
X526000Y272933D01*
X526300Y273667D01*
X526833Y274300D01*
X527533Y274700D01*
X528333Y274867D01*
X529433Y274667D01*
X530900Y274100D01*
X532466Y273833D01*
X533466Y273767D01*
X616799Y273767D01*
X619233Y274067D01*
X620766Y274600D01*
X622199Y275367D01*
X623633Y276467D01*
X624633Y277567D01*
X625633Y279067D01*
X626199Y280367D01*
X626633Y282067D01*
X626799Y283767D01*
X626833Y297400D01*
X627299Y298533D01*
X627899Y299067D01*
X628633Y299400D01*
X629033Y299500D01*
X629866Y299433D01*
D02*
G37*
D02*
G36*
X483367Y866833D02*
X484367Y866133D01*
X484600Y865800D01*
X484834Y865267D01*
X487500Y857133D01*
X491900Y848767D01*
X497667Y841633D01*
X498800Y840600D01*
X504934Y835733D01*
X505800Y835200D01*
X513367Y831200D01*
X514267Y830833D01*
X522534Y828233D01*
X527200Y827433D01*
X530567Y827167D01*
X531300Y826867D01*
X531934Y826333D01*
X532267Y825833D01*
X552567Y783633D01*
X552800Y782533D01*
X553100Y379167D01*
X552634Y378034D01*
X552034Y377500D01*
X551300Y377167D01*
X550900Y377067D01*
X532667Y377034D01*
X531034Y376767D01*
X529500Y376234D01*
X528067Y375467D01*
X526634Y374367D01*
X525634Y373267D01*
X524734Y371934D01*
X524067Y370467D01*
X523634Y368767D01*
X523467Y367067D01*
X523434Y288167D01*
X522967Y287034D01*
X522367Y286500D01*
X521634Y286167D01*
X521234Y286067D01*
X520400Y286134D01*
X519667Y286434D01*
X519034Y286967D01*
X518700Y287534D01*
X508900Y308900D01*
X508800Y309567D01*
X510034Y770267D01*
X509634Y773100D01*
X508667Y776533D01*
X507600Y778933D01*
X472800Y846100D01*
X472567Y846900D01*
X472567Y847700D01*
X472867Y848533D01*
X477434Y857133D01*
X480234Y865633D01*
X480734Y866300D01*
X481400Y866767D01*
X482167Y866967D01*
X482600Y867000D01*
X483367Y866833D01*
D02*
G37*
D02*
G36*
X695033Y611167D02*
X698500Y610667D01*
X702600Y609634D01*
X705633Y608534D01*
X712467Y604700D01*
X718000Y600067D01*
X723267Y593767D01*
X726967Y587000D01*
X728067Y583867D01*
X728967Y580134D01*
X729467Y576600D01*
X729667Y572200D01*
X729467Y567600D01*
X728933Y564000D01*
X728033Y560400D01*
X726767Y556967D01*
X723333Y550667D01*
X718000Y544367D01*
X712000Y539334D01*
X705367Y535734D01*
X702200Y534634D01*
X698400Y533700D01*
X694767Y533167D01*
X690400Y533000D01*
X685833Y533234D01*
X682300Y533734D01*
X678500Y534700D01*
X675200Y535900D01*
X668433Y539667D01*
X662800Y544434D01*
X657900Y550300D01*
X653967Y557434D01*
X652900Y560467D01*
X651967Y564367D01*
X651467Y567867D01*
X651300Y572200D01*
X651533Y576800D01*
X652000Y580234D01*
X653133Y584767D01*
X654067Y587267D01*
X657900Y594100D01*
X662967Y600100D01*
X668467Y604700D01*
X675667Y608700D01*
X678567Y609700D01*
X682700Y610700D01*
X686100Y611167D01*
X690400Y611367D01*
X695033Y611167D01*
D02*
G37*
D02*
G36*
X286000Y613900D02*
X289466Y613400D01*
X293433Y612400D01*
X296600Y611233D01*
X303300Y607500D01*
X309500Y602267D01*
X313933Y596967D01*
X317800Y590000D01*
X318900Y586967D01*
X319900Y582867D01*
X320433Y579300D01*
X320600Y574933D01*
X320400Y570367D01*
X319866Y566767D01*
X318933Y563033D01*
X317700Y559667D01*
X314266Y553400D01*
X308933Y547100D01*
X302933Y542067D01*
X296366Y538500D01*
X293200Y537367D01*
X289233Y536400D01*
X285933Y535967D01*
X281333Y535767D01*
X276666Y536000D01*
X273266Y536433D01*
X269433Y537433D01*
X266266Y538600D01*
X259733Y542200D01*
X253700Y547267D01*
X248866Y552967D01*
X248566Y553400D01*
X244966Y560033D01*
X243833Y563267D01*
X242933Y567000D01*
X242400Y570633D01*
X242233Y574933D01*
X242433Y579567D01*
X242966Y583100D01*
X243933Y586967D01*
X245200Y590333D01*
X248900Y596967D01*
X253666Y602600D01*
X259600Y607533D01*
X266566Y611400D01*
X269500Y612433D01*
X273633Y613433D01*
X277033Y613900D01*
X281333Y614100D01*
X286000Y613900D01*
D02*
G37*
D02*
D18*
X199500Y1150600D02*
X784500Y1150600D01*
X198500Y1149600D02*
X785500Y1149600D01*
X198500Y1148600D02*
X785500Y1148600D01*
X198500Y1147600D02*
X785500Y1147600D01*
X199500Y1146600D02*
X784500Y1146600D01*
X200500Y1145600D02*
X783500Y1145600D01*
X202500Y1144600D02*
X782500Y1144600D01*
X203500Y1143600D02*
X780500Y1143600D01*
X204500Y1142600D02*
X779500Y1142600D01*
X206500Y1141600D02*
X778500Y1141600D01*
X207500Y1140600D02*
X776500Y1140600D01*
X208500Y1139600D02*
X775500Y1139600D01*
X209500Y1138600D02*
X774500Y1138600D01*
X210500Y1137600D02*
X773500Y1137600D01*
X211500Y1136600D02*
X772500Y1136600D01*
X212500Y1135600D02*
X771500Y1135600D01*
X213500Y1134600D02*
X770500Y1134600D01*
X214500Y1133600D02*
X769500Y1133600D01*
X215500Y1132600D02*
X768500Y1132600D01*
X216500Y1131600D02*
X767500Y1131600D01*
X217500Y1130600D02*
X766500Y1130600D01*
X218500Y1129600D02*
X765500Y1129600D01*
X219500Y1128600D02*
X764500Y1128600D01*
X220500Y1127600D02*
X763500Y1127600D01*
X221500Y1126600D02*
X762500Y1126600D01*
X222500Y1125600D02*
X761500Y1125600D01*
X222500Y1124600D02*
X761500Y1124600D01*
X223500Y1123600D02*
X760500Y1123600D01*
X224500Y1122600D02*
X759500Y1122600D01*
X225500Y1121600D02*
X758500Y1121600D01*
X225500Y1120600D02*
X758500Y1120600D01*
X226500Y1119600D02*
X757500Y1119600D01*
X227500Y1118600D02*
X756500Y1118600D01*
X228500Y1117600D02*
X755500Y1117600D01*
X228500Y1116600D02*
X755500Y1116600D01*
X229500Y1115600D02*
X754500Y1115600D01*
X230500Y1114600D02*
X753500Y1114600D01*
X230500Y1113600D02*
X753500Y1113600D01*
X231500Y1112600D02*
X752500Y1112600D01*
X232500Y1111600D02*
X752500Y1111600D01*
X232500Y1110600D02*
X751500Y1110600D01*
X233500Y1109600D02*
X750500Y1109600D01*
X233500Y1108600D02*
X750500Y1108600D01*
X234500Y1107600D02*
X749500Y1107600D01*
X235500Y1106600D02*
X748500Y1106600D01*
X235500Y1105600D02*
X748500Y1105600D01*
X236500Y1104600D02*
X747500Y1104600D01*
X236500Y1103600D02*
X747500Y1103600D01*
X237500Y1102600D02*
X746500Y1102600D01*
X237500Y1101600D02*
X746500Y1101600D01*
X237500Y1100600D02*
X745500Y1100600D01*
X238500Y1099600D02*
X745500Y1099600D01*
X238500Y1098600D02*
X745500Y1098600D01*
X239500Y1097600D02*
X744500Y1097600D01*
X239500Y1096600D02*
X744500Y1096600D01*
X240500Y1095600D02*
X743500Y1095600D01*
X240500Y1094600D02*
X743500Y1094600D01*
X241500Y1093600D02*
X742500Y1093600D01*
X241500Y1092600D02*
X742500Y1092600D01*
X241500Y1091600D02*
X742500Y1091600D01*
X242500Y1090600D02*
X741500Y1090600D01*
X242500Y1089600D02*
X741500Y1089600D01*
X242500Y1088600D02*
X741500Y1088600D01*
X243500Y1087600D02*
X740500Y1087600D01*
X243500Y1086600D02*
X740500Y1086600D01*
X244500Y1085600D02*
X739500Y1085600D01*
X244500Y1084600D02*
X739500Y1084600D01*
X244500Y1083600D02*
X739500Y1083600D01*
X244500Y1082600D02*
X739500Y1082600D01*
X245500Y1081600D02*
X738500Y1081600D01*
X245500Y1080600D02*
X738500Y1080600D01*
X245500Y1079600D02*
X738500Y1079600D01*
X245500Y1078600D02*
X738500Y1078600D01*
X246500Y1077600D02*
X737500Y1077600D01*
X246500Y1076600D02*
X737500Y1076600D01*
X246500Y1075600D02*
X737500Y1075600D01*
X246500Y1074600D02*
X737500Y1074600D01*
X247500Y1073600D02*
X736500Y1073600D01*
X247500Y1072600D02*
X736500Y1072600D01*
X247500Y1071600D02*
X736500Y1071600D01*
X247500Y1070600D02*
X736500Y1070600D01*
X247500Y1069600D02*
X736500Y1069600D01*
X247500Y1068600D02*
X736500Y1068600D01*
X248500Y1067600D02*
X735500Y1067600D01*
X248500Y1066600D02*
X735500Y1066600D01*
X248500Y1065600D02*
X735500Y1065600D01*
X248500Y1064600D02*
X735500Y1064600D01*
X248500Y1063600D02*
X735500Y1063600D01*
X248500Y1062600D02*
X735500Y1062600D01*
X248500Y1061600D02*
X735500Y1061600D01*
X249500Y1060600D02*
X734500Y1060600D01*
X249500Y1059600D02*
X734500Y1059600D01*
X249500Y1058600D02*
X734500Y1058600D01*
X249500Y1057600D02*
X734500Y1057600D01*
X249500Y1056600D02*
X734500Y1056600D01*
X249500Y1055600D02*
X734500Y1055600D01*
X249500Y1054600D02*
X734500Y1054600D01*
X249500Y1053600D02*
X734500Y1053600D01*
X249500Y1052600D02*
X734500Y1052600D01*
X249500Y1051600D02*
X734500Y1051600D01*
X249500Y1050600D02*
X734500Y1050600D01*
X249500Y1049600D02*
X734500Y1049600D01*
X249500Y1048600D02*
X734500Y1048600D01*
X249500Y1047600D02*
X734500Y1047600D01*
X249500Y1046600D02*
X734500Y1046600D01*
X249500Y1045600D02*
X734500Y1045600D01*
X249500Y1044600D02*
X734500Y1044600D01*
X249500Y1043600D02*
X734500Y1043600D01*
X249500Y1042600D02*
X734500Y1042600D01*
X249500Y1041600D02*
X734500Y1041600D01*
X249500Y1040600D02*
X734500Y1040600D01*
X249500Y1039600D02*
X734500Y1039600D01*
X248500Y1038600D02*
X735500Y1038600D01*
X248500Y1037600D02*
X735500Y1037600D01*
X248500Y1036600D02*
X735500Y1036600D01*
X248500Y1035600D02*
X735500Y1035600D01*
X248500Y1034600D02*
X735500Y1034600D01*
X248500Y1033600D02*
X735500Y1033600D01*
X248500Y1032600D02*
X735500Y1032600D01*
X247500Y1031600D02*
X736500Y1031600D01*
X247500Y1030600D02*
X736500Y1030600D01*
X247500Y1029600D02*
X736500Y1029600D01*
X247500Y1028600D02*
X736500Y1028600D01*
X247500Y1027600D02*
X736500Y1027600D01*
X247500Y1026600D02*
X736500Y1026600D01*
X246500Y1025600D02*
X737500Y1025600D01*
X246500Y1024600D02*
X737500Y1024600D01*
X246500Y1023600D02*
X737500Y1023600D01*
X246500Y1022600D02*
X737500Y1022600D01*
X245500Y1021600D02*
X738500Y1021600D01*
X245500Y1020600D02*
X738500Y1020600D01*
X245500Y1019600D02*
X738500Y1019600D01*
X245500Y1018600D02*
X738500Y1018600D01*
X244500Y1017600D02*
X739500Y1017600D01*
X244500Y1016600D02*
X739500Y1016600D01*
X244500Y1015600D02*
X739500Y1015600D01*
X244500Y1014600D02*
X739500Y1014600D01*
X243500Y1013600D02*
X740500Y1013600D01*
X243500Y1012600D02*
X740500Y1012600D01*
X243500Y1011600D02*
X740500Y1011600D01*
X242500Y1010600D02*
X741500Y1010600D01*
X242500Y1009600D02*
X741500Y1009600D01*
X241500Y1008600D02*
X742500Y1008600D01*
X241500Y1007600D02*
X742500Y1007600D01*
X241500Y1006600D02*
X742500Y1006600D01*
X240500Y1005600D02*
X743500Y1005600D01*
X240500Y1004600D02*
X743500Y1004600D01*
X240500Y1003600D02*
X743500Y1003600D01*
X239500Y1002600D02*
X744500Y1002600D01*
X239500Y1001600D02*
X744500Y1001600D01*
X238500Y1000600D02*
X745500Y1000600D01*
X238500Y999600D02*
X745500Y999600D01*
X237500Y998600D02*
X746500Y998600D01*
X237500Y997600D02*
X746500Y997600D01*
X236500Y996600D02*
X747500Y996600D01*
X236500Y995600D02*
X747500Y995600D01*
X235500Y994600D02*
X748500Y994600D01*
X235500Y993600D02*
X748500Y993600D01*
X234500Y992600D02*
X749500Y992600D01*
X233500Y991600D02*
X749500Y991600D01*
X233500Y990600D02*
X750500Y990600D01*
X232500Y989600D02*
X751500Y989600D01*
X232500Y988600D02*
X751500Y988600D01*
X231500Y987600D02*
X752500Y987600D01*
X230500Y986600D02*
X752500Y986600D01*
X230500Y985600D02*
X753500Y985600D01*
X229500Y984600D02*
X754500Y984600D01*
X229500Y983600D02*
X754500Y983600D01*
X32500Y982600D02*
X32500Y982600D01*
X228500Y982600D02*
X755500Y982600D01*
X951500Y982600D02*
X951500Y982600D01*
X30500Y981600D02*
X34500Y981600D01*
X227500Y981600D02*
X756500Y981600D01*
X949500Y981600D02*
X952500Y981600D01*
X30500Y980600D02*
X34500Y980600D01*
X226500Y980600D02*
X757500Y980600D01*
X949500Y980600D02*
X953500Y980600D01*
X30500Y979600D02*
X35500Y979600D01*
X226500Y979600D02*
X757500Y979600D01*
X948500Y979600D02*
X953500Y979600D01*
X30500Y978600D02*
X36500Y978600D01*
X225500Y978600D02*
X758500Y978600D01*
X947500Y978600D02*
X953500Y978600D01*
X30500Y977600D02*
X37500Y977600D01*
X224500Y977600D02*
X759500Y977600D01*
X947500Y977600D02*
X953500Y977600D01*
X30500Y976600D02*
X37500Y976600D01*
X223500Y976600D02*
X760500Y976600D01*
X946500Y976600D02*
X953500Y976600D01*
X30500Y975600D02*
X38500Y975600D01*
X223500Y975600D02*
X760500Y975600D01*
X945500Y975600D02*
X953500Y975600D01*
X30500Y974600D02*
X39500Y974600D01*
X222500Y974600D02*
X761500Y974600D01*
X944500Y974600D02*
X953500Y974600D01*
X30500Y973600D02*
X40500Y973600D01*
X221500Y973600D02*
X762500Y973600D01*
X943500Y973600D02*
X953500Y973600D01*
X30500Y972600D02*
X41500Y972600D01*
X220500Y972600D02*
X763500Y972600D01*
X942500Y972600D02*
X953500Y972600D01*
X30500Y971600D02*
X41500Y971600D01*
X219500Y971600D02*
X764500Y971600D01*
X942500Y971600D02*
X953500Y971600D01*
X30500Y970600D02*
X42500Y970600D01*
X218500Y970600D02*
X765500Y970600D01*
X941500Y970600D02*
X953500Y970600D01*
X30500Y969600D02*
X43500Y969600D01*
X217500Y969600D02*
X766500Y969600D01*
X940500Y969600D02*
X953500Y969600D01*
X30500Y968600D02*
X44500Y968600D01*
X216500Y968600D02*
X766500Y968600D01*
X939500Y968600D02*
X953500Y968600D01*
X30500Y967600D02*
X45500Y967600D01*
X216500Y967600D02*
X767500Y967600D01*
X938500Y967600D02*
X953500Y967600D01*
X30500Y966600D02*
X46500Y966600D01*
X215500Y966600D02*
X768500Y966600D01*
X937500Y966600D02*
X953500Y966600D01*
X30500Y965600D02*
X47500Y965600D01*
X214500Y965600D02*
X769500Y965600D01*
X936500Y965600D02*
X953500Y965600D01*
X30500Y964600D02*
X48500Y964600D01*
X213500Y964600D02*
X770500Y964600D01*
X935500Y964600D02*
X953500Y964600D01*
X30500Y963600D02*
X49500Y963600D01*
X211500Y963600D02*
X771500Y963600D01*
X934500Y963600D02*
X953500Y963600D01*
X30500Y962600D02*
X50500Y962600D01*
X210500Y962600D02*
X773500Y962600D01*
X933500Y962600D02*
X953500Y962600D01*
X30500Y961600D02*
X52500Y961600D01*
X209500Y961600D02*
X774500Y961600D01*
X932500Y961600D02*
X953500Y961600D01*
X30500Y960600D02*
X53500Y960600D01*
X208500Y960600D02*
X775500Y960600D01*
X930500Y960600D02*
X953500Y960600D01*
X30500Y959600D02*
X54500Y959600D01*
X207500Y959600D02*
X776500Y959600D01*
X929500Y959600D02*
X953500Y959600D01*
X30500Y958600D02*
X55500Y958600D01*
X206500Y958600D02*
X777500Y958600D01*
X928500Y958600D02*
X953500Y958600D01*
X30500Y957600D02*
X56500Y957600D01*
X204500Y957600D02*
X778500Y957600D01*
X927500Y957600D02*
X953500Y957600D01*
X30500Y956600D02*
X58500Y956600D01*
X203500Y956600D02*
X780500Y956600D01*
X925500Y956600D02*
X953500Y956600D01*
X30500Y955600D02*
X59500Y955600D01*
X202500Y955600D02*
X781500Y955600D01*
X924500Y955600D02*
X953500Y955600D01*
X30500Y954600D02*
X60500Y954600D01*
X200500Y954600D02*
X783500Y954600D01*
X923500Y954600D02*
X953500Y954600D01*
X30500Y953600D02*
X62500Y953600D01*
X199500Y953600D02*
X784500Y953600D01*
X921500Y953600D02*
X953500Y953600D01*
X30500Y952600D02*
X63500Y952600D01*
X198500Y952600D02*
X785500Y952600D01*
X920500Y952600D02*
X953500Y952600D01*
X30500Y951600D02*
X65500Y951600D01*
X196500Y951600D02*
X787500Y951600D01*
X919500Y951600D02*
X953500Y951600D01*
X30500Y950600D02*
X66500Y950600D01*
X195500Y950600D02*
X788500Y950600D01*
X917500Y950600D02*
X953500Y950600D01*
X30500Y949600D02*
X68500Y949600D01*
X193500Y949600D02*
X790500Y949600D01*
X915500Y949600D02*
X953500Y949600D01*
X30500Y948600D02*
X69500Y948600D01*
X191500Y948600D02*
X792500Y948600D01*
X914500Y948600D02*
X953500Y948600D01*
X30500Y947600D02*
X71500Y947600D01*
X190500Y947600D02*
X793500Y947600D01*
X912500Y947600D02*
X953500Y947600D01*
X30500Y946600D02*
X73500Y946600D01*
X188500Y946600D02*
X795500Y946600D01*
X910500Y946600D02*
X953500Y946600D01*
X30500Y945600D02*
X74500Y945600D01*
X186500Y945600D02*
X797500Y945600D01*
X909500Y945600D02*
X953500Y945600D01*
X30500Y944600D02*
X76500Y944600D01*
X184500Y944600D02*
X799500Y944600D01*
X907500Y944600D02*
X953500Y944600D01*
X30500Y943600D02*
X79500Y943600D01*
X182500Y943600D02*
X801500Y943600D01*
X904500Y943600D02*
X953500Y943600D01*
X30500Y942600D02*
X81500Y942600D01*
X180500Y942600D02*
X803500Y942600D01*
X902500Y942600D02*
X953500Y942600D01*
X30500Y941600D02*
X83500Y941600D01*
X178500Y941600D02*
X805500Y941600D01*
X900500Y941600D02*
X953500Y941600D01*
X30500Y940600D02*
X85500Y940600D01*
X176500Y940600D02*
X807500Y940600D01*
X898500Y940600D02*
X953500Y940600D01*
X30500Y939600D02*
X88500Y939600D01*
X173500Y939600D02*
X810500Y939600D01*
X895500Y939600D02*
X953500Y939600D01*
X30500Y938600D02*
X91500Y938600D01*
X170500Y938600D02*
X813500Y938600D01*
X893500Y938600D02*
X953500Y938600D01*
X30500Y937600D02*
X93500Y937600D01*
X167500Y937600D02*
X815500Y937600D01*
X890500Y937600D02*
X953500Y937600D01*
X30500Y936600D02*
X97500Y936600D01*
X164500Y936600D02*
X819500Y936600D01*
X887500Y936600D02*
X953500Y936600D01*
X30500Y935600D02*
X101500Y935600D01*
X160500Y935600D02*
X823500Y935600D01*
X883500Y935600D02*
X953500Y935600D01*
X30500Y934600D02*
X104500Y934600D01*
X156500Y934600D02*
X827500Y934600D01*
X879500Y934600D02*
X953500Y934600D01*
X30500Y933600D02*
X110500Y933600D01*
X150500Y933600D02*
X832500Y933600D01*
X873500Y933600D02*
X953500Y933600D01*
X30500Y932600D02*
X117500Y932600D01*
X144500Y932600D02*
X838500Y932600D01*
X867500Y932600D02*
X953500Y932600D01*
X30500Y931600D02*
X953500Y931600D01*
X30500Y930600D02*
X953500Y930600D01*
X30500Y929600D02*
X953500Y929600D01*
X30500Y928600D02*
X953500Y928600D01*
X30500Y927600D02*
X953500Y927600D01*
X30500Y926600D02*
X953500Y926600D01*
X30500Y925600D02*
X953500Y925600D01*
X30500Y924600D02*
X225500Y924600D01*
X239500Y924600D02*
X325500Y924600D01*
X339500Y924600D02*
X425500Y924600D01*
X439500Y924600D02*
X525500Y924600D01*
X539500Y924600D02*
X625500Y924600D01*
X639500Y924600D02*
X725500Y924600D01*
X739500Y924600D02*
X953500Y924600D01*
X30500Y923600D02*
X220500Y923600D01*
X244500Y923600D02*
X320500Y923600D01*
X344500Y923600D02*
X420500Y923600D01*
X444500Y923600D02*
X520500Y923600D01*
X544500Y923600D02*
X620500Y923600D01*
X644500Y923600D02*
X720500Y923600D01*
X744500Y923600D02*
X953500Y923600D01*
X30500Y922600D02*
X217500Y922600D01*
X247500Y922600D02*
X317500Y922600D01*
X347500Y922600D02*
X417500Y922600D01*
X447500Y922600D02*
X517500Y922600D01*
X547500Y922600D02*
X617500Y922600D01*
X647500Y922600D02*
X717500Y922600D01*
X747500Y922600D02*
X953500Y922600D01*
X30500Y921600D02*
X214500Y921600D01*
X250500Y921600D02*
X314500Y921600D01*
X350500Y921600D02*
X414500Y921600D01*
X450500Y921600D02*
X514500Y921600D01*
X550500Y921600D02*
X614500Y921600D01*
X650500Y921600D02*
X714500Y921600D01*
X750500Y921600D02*
X953500Y921600D01*
X30500Y920600D02*
X211500Y920600D01*
X252500Y920600D02*
X311500Y920600D01*
X352500Y920600D02*
X411500Y920600D01*
X452500Y920600D02*
X511500Y920600D01*
X552500Y920600D02*
X611500Y920600D01*
X652500Y920600D02*
X711500Y920600D01*
X752500Y920600D02*
X953500Y920600D01*
X30500Y919600D02*
X210500Y919600D01*
X254500Y919600D02*
X310500Y919600D01*
X354500Y919600D02*
X410500Y919600D01*
X454500Y919600D02*
X509500Y919600D01*
X554500Y919600D02*
X609500Y919600D01*
X654500Y919600D02*
X709500Y919600D01*
X754500Y919600D02*
X953500Y919600D01*
X30500Y918600D02*
X208500Y918600D01*
X256500Y918600D02*
X308500Y918600D01*
X356500Y918600D02*
X408500Y918600D01*
X456500Y918600D02*
X508500Y918600D01*
X556500Y918600D02*
X608500Y918600D01*
X656500Y918600D02*
X708500Y918600D01*
X756500Y918600D02*
X953500Y918600D01*
X30500Y917600D02*
X206500Y917600D01*
X258500Y917600D02*
X306500Y917600D01*
X358500Y917600D02*
X406500Y917600D01*
X458500Y917600D02*
X506500Y917600D01*
X558500Y917600D02*
X606500Y917600D01*
X658500Y917600D02*
X706500Y917600D01*
X758500Y917600D02*
X953500Y917600D01*
X30500Y916600D02*
X204500Y916600D01*
X260500Y916600D02*
X304500Y916600D01*
X360500Y916600D02*
X404500Y916600D01*
X460500Y916600D02*
X504500Y916600D01*
X560500Y916600D02*
X604500Y916600D01*
X660500Y916600D02*
X704500Y916600D01*
X760500Y916600D02*
X953500Y916600D01*
X30500Y915600D02*
X203500Y915600D01*
X261500Y915600D02*
X303500Y915600D01*
X361500Y915600D02*
X403500Y915600D01*
X461500Y915600D02*
X503500Y915600D01*
X561500Y915600D02*
X603500Y915600D01*
X661500Y915600D02*
X703500Y915600D01*
X761500Y915600D02*
X953500Y915600D01*
X30500Y914600D02*
X202500Y914600D01*
X262500Y914600D02*
X301500Y914600D01*
X362500Y914600D02*
X401500Y914600D01*
X462500Y914600D02*
X501500Y914600D01*
X562500Y914600D02*
X601500Y914600D01*
X662500Y914600D02*
X701500Y914600D01*
X762500Y914600D02*
X953500Y914600D01*
X30500Y913600D02*
X200500Y913600D01*
X264500Y913600D02*
X300500Y913600D01*
X364500Y913600D02*
X400500Y913600D01*
X464500Y913600D02*
X500500Y913600D01*
X564500Y913600D02*
X600500Y913600D01*
X663500Y913600D02*
X700500Y913600D01*
X763500Y913600D02*
X953500Y913600D01*
X30500Y912600D02*
X199500Y912600D01*
X265500Y912600D02*
X299500Y912600D01*
X365500Y912600D02*
X399500Y912600D01*
X465500Y912600D02*
X499500Y912600D01*
X565500Y912600D02*
X599500Y912600D01*
X665500Y912600D02*
X699500Y912600D01*
X765500Y912600D02*
X953500Y912600D01*
X30500Y911600D02*
X198500Y911600D01*
X266500Y911600D02*
X298500Y911600D01*
X366500Y911600D02*
X398500Y911600D01*
X466500Y911600D02*
X498500Y911600D01*
X566500Y911600D02*
X598500Y911600D01*
X666500Y911600D02*
X698500Y911600D01*
X766500Y911600D02*
X953500Y911600D01*
X30500Y910600D02*
X197500Y910600D01*
X267500Y910600D02*
X297500Y910600D01*
X367500Y910600D02*
X397500Y910600D01*
X467500Y910600D02*
X497500Y910600D01*
X567500Y910600D02*
X597500Y910600D01*
X667500Y910600D02*
X696500Y910600D01*
X767500Y910600D02*
X953500Y910600D01*
X30500Y909600D02*
X196500Y909600D01*
X268500Y909600D02*
X296500Y909600D01*
X368500Y909600D02*
X396500Y909600D01*
X468500Y909600D02*
X496500Y909600D01*
X568500Y909600D02*
X596500Y909600D01*
X668500Y909600D02*
X696500Y909600D01*
X768500Y909600D02*
X953500Y909600D01*
X30500Y908600D02*
X195500Y908600D01*
X269500Y908600D02*
X295500Y908600D01*
X369500Y908600D02*
X395500Y908600D01*
X469500Y908600D02*
X495500Y908600D01*
X569500Y908600D02*
X595500Y908600D01*
X669500Y908600D02*
X695500Y908600D01*
X769500Y908600D02*
X953500Y908600D01*
X30500Y907600D02*
X194500Y907600D01*
X270500Y907600D02*
X294500Y907600D01*
X370500Y907600D02*
X394500Y907600D01*
X470500Y907600D02*
X494500Y907600D01*
X570500Y907600D02*
X594500Y907600D01*
X670500Y907600D02*
X694500Y907600D01*
X770500Y907600D02*
X953500Y907600D01*
X30500Y906600D02*
X193500Y906600D01*
X270500Y906600D02*
X293500Y906600D01*
X370500Y906600D02*
X393500Y906600D01*
X470500Y906600D02*
X493500Y906600D01*
X570500Y906600D02*
X593500Y906600D01*
X670500Y906600D02*
X693500Y906600D01*
X770500Y906600D02*
X953500Y906600D01*
X30500Y905600D02*
X193500Y905600D01*
X271500Y905600D02*
X293500Y905600D01*
X371500Y905600D02*
X393500Y905600D01*
X471500Y905600D02*
X492500Y905600D01*
X571500Y905600D02*
X592500Y905600D01*
X671500Y905600D02*
X692500Y905600D01*
X771500Y905600D02*
X953500Y905600D01*
X30500Y904600D02*
X192500Y904600D01*
X272500Y904600D02*
X292500Y904600D01*
X372500Y904600D02*
X392500Y904600D01*
X472500Y904600D02*
X492500Y904600D01*
X572500Y904600D02*
X592500Y904600D01*
X672500Y904600D02*
X692500Y904600D01*
X772500Y904600D02*
X953500Y904600D01*
X30500Y903600D02*
X191500Y903600D01*
X273500Y903600D02*
X291500Y903600D01*
X373500Y903600D02*
X391500Y903600D01*
X473500Y903600D02*
X491500Y903600D01*
X573500Y903600D02*
X591500Y903600D01*
X673500Y903600D02*
X691500Y903600D01*
X773500Y903600D02*
X953500Y903600D01*
X30500Y902600D02*
X190500Y902600D01*
X273500Y902600D02*
X290500Y902600D01*
X373500Y902600D02*
X390500Y902600D01*
X473500Y902600D02*
X490500Y902600D01*
X573500Y902600D02*
X590500Y902600D01*
X673500Y902600D02*
X690500Y902600D01*
X773500Y902600D02*
X953500Y902600D01*
X30500Y901600D02*
X190500Y901600D01*
X274500Y901600D02*
X290500Y901600D01*
X374500Y901600D02*
X390500Y901600D01*
X474500Y901600D02*
X490500Y901600D01*
X574500Y901600D02*
X590500Y901600D01*
X674500Y901600D02*
X690500Y901600D01*
X774500Y901600D02*
X953500Y901600D01*
X30500Y900600D02*
X189500Y900600D01*
X274500Y900600D02*
X289500Y900600D01*
X374500Y900600D02*
X389500Y900600D01*
X474500Y900600D02*
X489500Y900600D01*
X574500Y900600D02*
X589500Y900600D01*
X674500Y900600D02*
X689500Y900600D01*
X774500Y900600D02*
X953500Y900600D01*
X30500Y899600D02*
X189500Y899600D01*
X275500Y899600D02*
X289500Y899600D01*
X375500Y899600D02*
X389500Y899600D01*
X475500Y899600D02*
X489500Y899600D01*
X575500Y899600D02*
X589500Y899600D01*
X675500Y899600D02*
X689500Y899600D01*
X775500Y899600D02*
X953500Y899600D01*
X30500Y898600D02*
X188500Y898600D01*
X276500Y898600D02*
X288500Y898600D01*
X375500Y898600D02*
X388500Y898600D01*
X475500Y898600D02*
X488500Y898600D01*
X575500Y898600D02*
X588500Y898600D01*
X675500Y898600D02*
X688500Y898600D01*
X775500Y898600D02*
X953500Y898600D01*
X30500Y897600D02*
X188500Y897600D01*
X276500Y897600D02*
X288500Y897600D01*
X376500Y897600D02*
X388500Y897600D01*
X476500Y897600D02*
X488500Y897600D01*
X576500Y897600D02*
X588500Y897600D01*
X676500Y897600D02*
X688500Y897600D01*
X776500Y897600D02*
X953500Y897600D01*
X30500Y896600D02*
X187500Y896600D01*
X277500Y896600D02*
X287500Y896600D01*
X377500Y896600D02*
X387500Y896600D01*
X477500Y896600D02*
X487500Y896600D01*
X577500Y896600D02*
X587500Y896600D01*
X676500Y896600D02*
X687500Y896600D01*
X776500Y896600D02*
X953500Y896600D01*
X30500Y895600D02*
X187500Y895600D01*
X277500Y895600D02*
X287500Y895600D01*
X377500Y895600D02*
X387500Y895600D01*
X477500Y895600D02*
X487500Y895600D01*
X577500Y895600D02*
X587500Y895600D01*
X677500Y895600D02*
X687500Y895600D01*
X777500Y895600D02*
X953500Y895600D01*
X30500Y894600D02*
X186500Y894600D01*
X278500Y894600D02*
X286500Y894600D01*
X377500Y894600D02*
X386500Y894600D01*
X477500Y894600D02*
X486500Y894600D01*
X577500Y894600D02*
X586500Y894600D01*
X677500Y894600D02*
X686500Y894600D01*
X777500Y894600D02*
X953500Y894600D01*
X30500Y893600D02*
X186500Y893600D01*
X278500Y893600D02*
X286500Y893600D01*
X378500Y893600D02*
X386500Y893600D01*
X478500Y893600D02*
X486500Y893600D01*
X578500Y893600D02*
X586500Y893600D01*
X678500Y893600D02*
X686500Y893600D01*
X778500Y893600D02*
X953500Y893600D01*
X30500Y892600D02*
X186500Y892600D01*
X278500Y892600D02*
X286500Y892600D01*
X378500Y892600D02*
X386500Y892600D01*
X478500Y892600D02*
X486500Y892600D01*
X578500Y892600D02*
X586500Y892600D01*
X678500Y892600D02*
X686500Y892600D01*
X778500Y892600D02*
X953500Y892600D01*
X30500Y891600D02*
X185500Y891600D01*
X278500Y891600D02*
X285500Y891600D01*
X378500Y891600D02*
X385500Y891600D01*
X478500Y891600D02*
X485500Y891600D01*
X578500Y891600D02*
X585500Y891600D01*
X678500Y891600D02*
X685500Y891600D01*
X778500Y891600D02*
X953500Y891600D01*
X30500Y890600D02*
X185500Y890600D01*
X279500Y890600D02*
X285500Y890600D01*
X379500Y890600D02*
X385500Y890600D01*
X479500Y890600D02*
X485500Y890600D01*
X579500Y890600D02*
X585500Y890600D01*
X679500Y890600D02*
X685500Y890600D01*
X779500Y890600D02*
X953500Y890600D01*
X30500Y889600D02*
X185500Y889600D01*
X279500Y889600D02*
X285500Y889600D01*
X379500Y889600D02*
X385500Y889600D01*
X479500Y889600D02*
X485500Y889600D01*
X579500Y889600D02*
X585500Y889600D01*
X679500Y889600D02*
X685500Y889600D01*
X779500Y889600D02*
X953500Y889600D01*
X30500Y888600D02*
X184500Y888600D01*
X279500Y888600D02*
X284500Y888600D01*
X379500Y888600D02*
X384500Y888600D01*
X479500Y888600D02*
X484500Y888600D01*
X579500Y888600D02*
X584500Y888600D01*
X679500Y888600D02*
X684500Y888600D01*
X779500Y888600D02*
X953500Y888600D01*
X30500Y887600D02*
X184500Y887600D01*
X280500Y887600D02*
X284500Y887600D01*
X380500Y887600D02*
X384500Y887600D01*
X480500Y887600D02*
X484500Y887600D01*
X580500Y887600D02*
X584500Y887600D01*
X680500Y887600D02*
X684500Y887600D01*
X780500Y887600D02*
X953500Y887600D01*
X30500Y886600D02*
X184500Y886600D01*
X280500Y886600D02*
X284500Y886600D01*
X380500Y886600D02*
X384500Y886600D01*
X480500Y886600D02*
X484500Y886600D01*
X580500Y886600D02*
X584500Y886600D01*
X680500Y886600D02*
X683500Y886600D01*
X780500Y886600D02*
X953500Y886600D01*
X30500Y885600D02*
X183500Y885600D01*
X281500Y885600D02*
X283500Y885600D01*
X381500Y885600D02*
X383500Y885600D01*
X481500Y885600D02*
X483500Y885600D01*
X581500Y885600D02*
X583500Y885600D01*
X681500Y885600D02*
X683500Y885600D01*
X780500Y885600D02*
X953500Y885600D01*
X30500Y884600D02*
X183500Y884600D01*
X780500Y884600D02*
X953500Y884600D01*
X30500Y883600D02*
X183500Y883600D01*
X781500Y883600D02*
X953500Y883600D01*
X30500Y882600D02*
X183500Y882600D01*
X781500Y882600D02*
X953500Y882600D01*
X30500Y881600D02*
X183500Y881600D01*
X781500Y881600D02*
X953500Y881600D01*
X30500Y880600D02*
X183500Y880600D01*
X781500Y880600D02*
X953500Y880600D01*
X30500Y879600D02*
X183500Y879600D01*
X781500Y879600D02*
X953500Y879600D01*
X30500Y878600D02*
X183500Y878600D01*
X781500Y878600D02*
X953500Y878600D01*
X30500Y877600D02*
X182500Y877600D01*
X781500Y877600D02*
X953500Y877600D01*
X30500Y876600D02*
X182500Y876600D01*
X781500Y876600D02*
X953500Y876600D01*
X30500Y875600D02*
X182500Y875600D01*
X781500Y875600D02*
X953500Y875600D01*
X30500Y874600D02*
X182500Y874600D01*
X781500Y874600D02*
X953500Y874600D01*
X30500Y873600D02*
X183500Y873600D01*
X781500Y873600D02*
X953500Y873600D01*
X30500Y872600D02*
X183500Y872600D01*
X781500Y872600D02*
X953500Y872600D01*
X30500Y871600D02*
X183500Y871600D01*
X781500Y871600D02*
X953500Y871600D01*
X30500Y870600D02*
X183500Y870600D01*
X781500Y870600D02*
X953500Y870600D01*
X30500Y869600D02*
X183500Y869600D01*
X781500Y869600D02*
X953500Y869600D01*
X30500Y868600D02*
X183500Y868600D01*
X781500Y868600D02*
X953500Y868600D01*
X30500Y867600D02*
X183500Y867600D01*
X780500Y867600D02*
X953500Y867600D01*
X30500Y866600D02*
X183500Y866600D01*
X281500Y866600D02*
X283500Y866600D01*
X381500Y866600D02*
X383500Y866600D01*
X581500Y866600D02*
X583500Y866600D01*
X681500Y866600D02*
X683500Y866600D01*
X780500Y866600D02*
X953500Y866600D01*
X30500Y865600D02*
X184500Y865600D01*
X280500Y865600D02*
X284500Y865600D01*
X380500Y865600D02*
X384500Y865600D01*
X580500Y865600D02*
X584500Y865600D01*
X680500Y865600D02*
X684500Y865600D01*
X780500Y865600D02*
X953500Y865600D01*
X30500Y864600D02*
X184500Y864600D01*
X280500Y864600D02*
X284500Y864600D01*
X380500Y864600D02*
X384500Y864600D01*
X580500Y864600D02*
X584500Y864600D01*
X680500Y864600D02*
X684500Y864600D01*
X780500Y864600D02*
X953500Y864600D01*
X30500Y863600D02*
X184500Y863600D01*
X279500Y863600D02*
X284500Y863600D01*
X379500Y863600D02*
X384500Y863600D01*
X579500Y863600D02*
X584500Y863600D01*
X679500Y863600D02*
X684500Y863600D01*
X779500Y863600D02*
X953500Y863600D01*
X30500Y862600D02*
X185500Y862600D01*
X279500Y862600D02*
X285500Y862600D01*
X379500Y862600D02*
X385500Y862600D01*
X579500Y862600D02*
X585500Y862600D01*
X679500Y862600D02*
X685500Y862600D01*
X779500Y862600D02*
X953500Y862600D01*
X30500Y861600D02*
X185500Y861600D01*
X279500Y861600D02*
X285500Y861600D01*
X379500Y861600D02*
X385500Y861600D01*
X579500Y861600D02*
X585500Y861600D01*
X679500Y861600D02*
X685500Y861600D01*
X779500Y861600D02*
X953500Y861600D01*
X30500Y860600D02*
X185500Y860600D01*
X278500Y860600D02*
X285500Y860600D01*
X378500Y860600D02*
X385500Y860600D01*
X578500Y860600D02*
X585500Y860600D01*
X678500Y860600D02*
X685500Y860600D01*
X778500Y860600D02*
X953500Y860600D01*
X30500Y859600D02*
X186500Y859600D01*
X278500Y859600D02*
X286500Y859600D01*
X378500Y859600D02*
X386500Y859600D01*
X578500Y859600D02*
X586500Y859600D01*
X678500Y859600D02*
X686500Y859600D01*
X778500Y859600D02*
X953500Y859600D01*
X30500Y858600D02*
X186500Y858600D01*
X278500Y858600D02*
X286500Y858600D01*
X378500Y858600D02*
X386500Y858600D01*
X578500Y858600D02*
X586500Y858600D01*
X678500Y858600D02*
X686500Y858600D01*
X778500Y858600D02*
X953500Y858600D01*
X30500Y857600D02*
X186500Y857600D01*
X277500Y857600D02*
X286500Y857600D01*
X377500Y857600D02*
X386500Y857600D01*
X577500Y857600D02*
X586500Y857600D01*
X677500Y857600D02*
X686500Y857600D01*
X777500Y857600D02*
X953500Y857600D01*
X30500Y856600D02*
X187500Y856600D01*
X277500Y856600D02*
X287500Y856600D01*
X377500Y856600D02*
X387500Y856600D01*
X577500Y856600D02*
X587500Y856600D01*
X677500Y856600D02*
X687500Y856600D01*
X777500Y856600D02*
X953500Y856600D01*
X30500Y855600D02*
X187500Y855600D01*
X277500Y855600D02*
X287500Y855600D01*
X377500Y855600D02*
X387500Y855600D01*
X576500Y855600D02*
X587500Y855600D01*
X676500Y855600D02*
X687500Y855600D01*
X776500Y855600D02*
X953500Y855600D01*
X30500Y854600D02*
X188500Y854600D01*
X276500Y854600D02*
X288500Y854600D01*
X376500Y854600D02*
X388500Y854600D01*
X576500Y854600D02*
X588500Y854600D01*
X676500Y854600D02*
X688500Y854600D01*
X776500Y854600D02*
X953500Y854600D01*
X30500Y853600D02*
X188500Y853600D01*
X275500Y853600D02*
X288500Y853600D01*
X376500Y853600D02*
X388500Y853600D01*
X575500Y853600D02*
X588500Y853600D01*
X675500Y853600D02*
X688500Y853600D01*
X775500Y853600D02*
X953500Y853600D01*
X30500Y852600D02*
X189500Y852600D01*
X275500Y852600D02*
X289500Y852600D01*
X375500Y852600D02*
X389500Y852600D01*
X575500Y852600D02*
X589500Y852600D01*
X675500Y852600D02*
X689500Y852600D01*
X775500Y852600D02*
X953500Y852600D01*
X30500Y851600D02*
X189500Y851600D01*
X274500Y851600D02*
X289500Y851600D01*
X375500Y851600D02*
X389500Y851600D01*
X574500Y851600D02*
X589500Y851600D01*
X674500Y851600D02*
X689500Y851600D01*
X774500Y851600D02*
X953500Y851600D01*
X30500Y850600D02*
X190500Y850600D01*
X274500Y850600D02*
X290500Y850600D01*
X376500Y850600D02*
X390500Y850600D01*
X574500Y850600D02*
X590500Y850600D01*
X674500Y850600D02*
X690500Y850600D01*
X774500Y850600D02*
X953500Y850600D01*
X30500Y849600D02*
X190500Y849600D01*
X273500Y849600D02*
X290500Y849600D01*
X376500Y849600D02*
X390500Y849600D01*
X573500Y849600D02*
X590500Y849600D01*
X673500Y849600D02*
X690500Y849600D01*
X773500Y849600D02*
X953500Y849600D01*
X30500Y848600D02*
X190500Y848600D01*
X273500Y848600D02*
X291500Y848600D01*
X377500Y848600D02*
X391500Y848600D01*
X573500Y848600D02*
X591500Y848600D01*
X673500Y848600D02*
X691500Y848600D01*
X773500Y848600D02*
X953500Y848600D01*
X30500Y847600D02*
X189500Y847600D01*
X272500Y847600D02*
X292500Y847600D01*
X378500Y847600D02*
X392500Y847600D01*
X572500Y847600D02*
X592500Y847600D01*
X672500Y847600D02*
X692500Y847600D01*
X772500Y847600D02*
X953500Y847600D01*
X30500Y846600D02*
X189500Y846600D01*
X271500Y846600D02*
X293500Y846600D01*
X378500Y846600D02*
X393500Y846600D01*
X572500Y846600D02*
X593500Y846600D01*
X671500Y846600D02*
X692500Y846600D01*
X771500Y846600D02*
X953500Y846600D01*
X30500Y845600D02*
X188500Y845600D01*
X270500Y845600D02*
X293500Y845600D01*
X379500Y845600D02*
X393500Y845600D01*
X572500Y845600D02*
X593500Y845600D01*
X670500Y845600D02*
X693500Y845600D01*
X770500Y845600D02*
X953500Y845600D01*
X30500Y844600D02*
X188500Y844600D01*
X270500Y844600D02*
X294500Y844600D01*
X380500Y844600D02*
X394500Y844600D01*
X572500Y844600D02*
X594500Y844600D01*
X669500Y844600D02*
X694500Y844600D01*
X769500Y844600D02*
X953500Y844600D01*
X30500Y843600D02*
X187500Y843600D01*
X269500Y843600D02*
X295500Y843600D01*
X380500Y843600D02*
X395500Y843600D01*
X572500Y843600D02*
X595500Y843600D01*
X669500Y843600D02*
X695500Y843600D01*
X769500Y843600D02*
X953500Y843600D01*
X30500Y842600D02*
X187500Y842600D01*
X268500Y842600D02*
X296500Y842600D01*
X381500Y842600D02*
X396500Y842600D01*
X573500Y842600D02*
X596500Y842600D01*
X668500Y842600D02*
X696500Y842600D01*
X768500Y842600D02*
X953500Y842600D01*
X30500Y841600D02*
X186500Y841600D01*
X267500Y841600D02*
X297500Y841600D01*
X382500Y841600D02*
X397500Y841600D01*
X573500Y841600D02*
X597500Y841600D01*
X667500Y841600D02*
X697500Y841600D01*
X767500Y841600D02*
X953500Y841600D01*
X30500Y840600D02*
X185500Y840600D01*
X266500Y840600D02*
X298500Y840600D01*
X382500Y840600D02*
X398500Y840600D01*
X574500Y840600D02*
X598500Y840600D01*
X666500Y840600D02*
X698500Y840600D01*
X766500Y840600D02*
X953500Y840600D01*
X30500Y839600D02*
X185500Y839600D01*
X265500Y839600D02*
X299500Y839600D01*
X383500Y839600D02*
X399500Y839600D01*
X574500Y839600D02*
X599500Y839600D01*
X665500Y839600D02*
X699500Y839600D01*
X765500Y839600D02*
X953500Y839600D01*
X30500Y838600D02*
X184500Y838600D01*
X264500Y838600D02*
X300500Y838600D01*
X383500Y838600D02*
X400500Y838600D01*
X575500Y838600D02*
X600500Y838600D01*
X663500Y838600D02*
X700500Y838600D01*
X763500Y838600D02*
X953500Y838600D01*
X30500Y837600D02*
X184500Y837600D01*
X262500Y837600D02*
X302500Y837600D01*
X384500Y837600D02*
X402500Y837600D01*
X575500Y837600D02*
X601500Y837600D01*
X662500Y837600D02*
X701500Y837600D01*
X762500Y837600D02*
X953500Y837600D01*
X30500Y836600D02*
X183500Y836600D01*
X261500Y836600D02*
X303500Y836600D01*
X385500Y836600D02*
X403500Y836600D01*
X576500Y836600D02*
X603500Y836600D01*
X661500Y836600D02*
X703500Y836600D01*
X761500Y836600D02*
X953500Y836600D01*
X30500Y835600D02*
X183500Y835600D01*
X260500Y835600D02*
X304500Y835600D01*
X385500Y835600D02*
X404500Y835600D01*
X576500Y835600D02*
X604500Y835600D01*
X660500Y835600D02*
X704500Y835600D01*
X760500Y835600D02*
X953500Y835600D01*
X30500Y834600D02*
X182500Y834600D01*
X258500Y834600D02*
X306500Y834600D01*
X386500Y834600D02*
X406500Y834600D01*
X577500Y834600D02*
X606500Y834600D01*
X658500Y834600D02*
X706500Y834600D01*
X758500Y834600D02*
X953500Y834600D01*
X30500Y833600D02*
X181500Y833600D01*
X256500Y833600D02*
X308500Y833600D01*
X387500Y833600D02*
X408500Y833600D01*
X577500Y833600D02*
X608500Y833600D01*
X656500Y833600D02*
X708500Y833600D01*
X756500Y833600D02*
X953500Y833600D01*
X30500Y832600D02*
X181500Y832600D01*
X254500Y832600D02*
X310500Y832600D01*
X387500Y832600D02*
X410500Y832600D01*
X578500Y832600D02*
X610500Y832600D01*
X654500Y832600D02*
X710500Y832600D01*
X754500Y832600D02*
X953500Y832600D01*
X30500Y831600D02*
X180500Y831600D01*
X252500Y831600D02*
X312500Y831600D01*
X388500Y831600D02*
X412500Y831600D01*
X578500Y831600D02*
X612500Y831600D01*
X652500Y831600D02*
X711500Y831600D01*
X752500Y831600D02*
X953500Y831600D01*
X30500Y830600D02*
X180500Y830600D01*
X250500Y830600D02*
X314500Y830600D01*
X389500Y830600D02*
X414500Y830600D01*
X579500Y830600D02*
X614500Y830600D01*
X650500Y830600D02*
X714500Y830600D01*
X749500Y830600D02*
X953500Y830600D01*
X30500Y829600D02*
X179500Y829600D01*
X247500Y829600D02*
X317500Y829600D01*
X389500Y829600D02*
X417500Y829600D01*
X579500Y829600D02*
X617500Y829600D01*
X646500Y829600D02*
X717500Y829600D01*
X746500Y829600D02*
X953500Y829600D01*
X30500Y828600D02*
X178500Y828600D01*
X243500Y828600D02*
X320500Y828600D01*
X390500Y828600D02*
X420500Y828600D01*
X580500Y828600D02*
X620500Y828600D01*
X643500Y828600D02*
X720500Y828600D01*
X743500Y828600D02*
X953500Y828600D01*
X30500Y827600D02*
X178500Y827600D01*
X238500Y827600D02*
X325500Y827600D01*
X391500Y827600D02*
X425500Y827600D01*
X580500Y827600D02*
X625500Y827600D01*
X638500Y827600D02*
X725500Y827600D01*
X738500Y827600D02*
X953500Y827600D01*
X30500Y826600D02*
X177500Y826600D01*
X229500Y826600D02*
X338500Y826600D01*
X391500Y826600D02*
X432500Y826600D01*
X581500Y826600D02*
X953500Y826600D01*
X30500Y825600D02*
X177500Y825600D01*
X229500Y825600D02*
X338500Y825600D01*
X392500Y825600D02*
X433500Y825600D01*
X581500Y825600D02*
X953500Y825600D01*
X30500Y824600D02*
X176500Y824600D01*
X228500Y824600D02*
X339500Y824600D01*
X393500Y824600D02*
X433500Y824600D01*
X581500Y824600D02*
X953500Y824600D01*
X30500Y823600D02*
X176500Y823600D01*
X227500Y823600D02*
X340500Y823600D01*
X393500Y823600D02*
X434500Y823600D01*
X582500Y823600D02*
X953500Y823600D01*
X30500Y822600D02*
X175500Y822600D01*
X227500Y822600D02*
X340500Y822600D01*
X394500Y822600D02*
X434500Y822600D01*
X582500Y822600D02*
X953500Y822600D01*
X30500Y821600D02*
X174500Y821600D01*
X226500Y821600D02*
X341500Y821600D01*
X395500Y821600D02*
X435500Y821600D01*
X583500Y821600D02*
X953500Y821600D01*
X30500Y820600D02*
X174500Y820600D01*
X226500Y820600D02*
X342500Y820600D01*
X395500Y820600D02*
X435500Y820600D01*
X583500Y820600D02*
X953500Y820600D01*
X30500Y819600D02*
X173500Y819600D01*
X225500Y819600D02*
X342500Y819600D01*
X396500Y819600D02*
X436500Y819600D01*
X584500Y819600D02*
X953500Y819600D01*
X30500Y818600D02*
X173500Y818600D01*
X225500Y818600D02*
X343500Y818600D01*
X397500Y818600D02*
X436500Y818600D01*
X584500Y818600D02*
X953500Y818600D01*
X30500Y817600D02*
X172500Y817600D01*
X224500Y817600D02*
X344500Y817600D01*
X397500Y817600D02*
X437500Y817600D01*
X585500Y817600D02*
X953500Y817600D01*
X30500Y816600D02*
X172500Y816600D01*
X223500Y816600D02*
X344500Y816600D01*
X398500Y816600D02*
X437500Y816600D01*
X585500Y816600D02*
X953500Y816600D01*
X30500Y815600D02*
X171500Y815600D01*
X223500Y815600D02*
X345500Y815600D01*
X399500Y815600D02*
X438500Y815600D01*
X586500Y815600D02*
X953500Y815600D01*
X30500Y814600D02*
X170500Y814600D01*
X222500Y814600D02*
X346500Y814600D01*
X399500Y814600D02*
X438500Y814600D01*
X586500Y814600D02*
X953500Y814600D01*
X30500Y813600D02*
X170500Y813600D01*
X222500Y813600D02*
X346500Y813600D01*
X400500Y813600D02*
X439500Y813600D01*
X587500Y813600D02*
X953500Y813600D01*
X30500Y812600D02*
X169500Y812600D01*
X221500Y812600D02*
X347500Y812600D01*
X401500Y812600D02*
X439500Y812600D01*
X587500Y812600D02*
X953500Y812600D01*
X30500Y811600D02*
X169500Y811600D01*
X220500Y811600D02*
X348500Y811600D01*
X401500Y811600D02*
X440500Y811600D01*
X588500Y811600D02*
X953500Y811600D01*
X30500Y810600D02*
X168500Y810600D01*
X220500Y810600D02*
X348500Y810600D01*
X402500Y810600D02*
X441500Y810600D01*
X588500Y810600D02*
X953500Y810600D01*
X30500Y809600D02*
X168500Y809600D01*
X219500Y809600D02*
X349500Y809600D01*
X403500Y809600D02*
X441500Y809600D01*
X589500Y809600D02*
X953500Y809600D01*
X30500Y808600D02*
X167500Y808600D01*
X219500Y808600D02*
X350500Y808600D01*
X403500Y808600D02*
X442500Y808600D01*
X589500Y808600D02*
X953500Y808600D01*
X30500Y807600D02*
X166500Y807600D01*
X218500Y807600D02*
X350500Y807600D01*
X404500Y807600D02*
X442500Y807600D01*
X590500Y807600D02*
X953500Y807600D01*
X30500Y806600D02*
X166500Y806600D01*
X218500Y806600D02*
X351500Y806600D01*
X405500Y806600D02*
X443500Y806600D01*
X590500Y806600D02*
X953500Y806600D01*
X30500Y805600D02*
X165500Y805600D01*
X217500Y805600D02*
X352500Y805600D01*
X405500Y805600D02*
X443500Y805600D01*
X591500Y805600D02*
X953500Y805600D01*
X30500Y804600D02*
X165500Y804600D01*
X216500Y804600D02*
X352500Y804600D01*
X406500Y804600D02*
X444500Y804600D01*
X591500Y804600D02*
X953500Y804600D01*
X30500Y803600D02*
X164500Y803600D01*
X216500Y803600D02*
X353500Y803600D01*
X407500Y803600D02*
X444500Y803600D01*
X592500Y803600D02*
X953500Y803600D01*
X30500Y802600D02*
X163500Y802600D01*
X215500Y802600D02*
X354500Y802600D01*
X407500Y802600D02*
X445500Y802600D01*
X592500Y802600D02*
X953500Y802600D01*
X30500Y801600D02*
X163500Y801600D01*
X215500Y801600D02*
X354500Y801600D01*
X408500Y801600D02*
X445500Y801600D01*
X593500Y801600D02*
X953500Y801600D01*
X30500Y800600D02*
X162500Y800600D01*
X214500Y800600D02*
X355500Y800600D01*
X409500Y800600D02*
X446500Y800600D01*
X593500Y800600D02*
X953500Y800600D01*
X30500Y799600D02*
X162500Y799600D01*
X214500Y799600D02*
X356500Y799600D01*
X409500Y799600D02*
X446500Y799600D01*
X593500Y799600D02*
X953500Y799600D01*
X30500Y798600D02*
X161500Y798600D01*
X213500Y798600D02*
X356500Y798600D01*
X410500Y798600D02*
X447500Y798600D01*
X594500Y798600D02*
X953500Y798600D01*
X30500Y797600D02*
X161500Y797600D01*
X212500Y797600D02*
X357500Y797600D01*
X411500Y797600D02*
X447500Y797600D01*
X594500Y797600D02*
X953500Y797600D01*
X30500Y796600D02*
X160500Y796600D01*
X212500Y796600D02*
X358500Y796600D01*
X411500Y796600D02*
X448500Y796600D01*
X595500Y796600D02*
X953500Y796600D01*
X30500Y795600D02*
X159500Y795600D01*
X211500Y795600D02*
X358500Y795600D01*
X412500Y795600D02*
X448500Y795600D01*
X595500Y795600D02*
X953500Y795600D01*
X30500Y794600D02*
X159500Y794600D01*
X211500Y794600D02*
X359500Y794600D01*
X412500Y794600D02*
X449500Y794600D01*
X596500Y794600D02*
X953500Y794600D01*
X30500Y793600D02*
X158500Y793600D01*
X210500Y793600D02*
X360500Y793600D01*
X413500Y793600D02*
X449500Y793600D01*
X596500Y793600D02*
X953500Y793600D01*
X30500Y792600D02*
X158500Y792600D01*
X209500Y792600D02*
X360500Y792600D01*
X414500Y792600D02*
X450500Y792600D01*
X596500Y792600D02*
X953500Y792600D01*
X30500Y791600D02*
X157500Y791600D01*
X209500Y791600D02*
X361500Y791600D01*
X414500Y791600D02*
X450500Y791600D01*
X596500Y791600D02*
X953500Y791600D01*
X30500Y790600D02*
X157500Y790600D01*
X208500Y790600D02*
X361500Y790600D01*
X415500Y790600D02*
X451500Y790600D01*
X596500Y790600D02*
X953500Y790600D01*
X30500Y789600D02*
X156500Y789600D01*
X208500Y789600D02*
X362500Y789600D01*
X416500Y789600D02*
X451500Y789600D01*
X597500Y789600D02*
X953500Y789600D01*
X30500Y788600D02*
X155500Y788600D01*
X207500Y788600D02*
X363500Y788600D01*
X416500Y788600D02*
X452500Y788600D01*
X597500Y788600D02*
X953500Y788600D01*
X30500Y787600D02*
X155500Y787600D01*
X207500Y787600D02*
X363500Y787600D01*
X417500Y787600D02*
X452500Y787600D01*
X597500Y787600D02*
X953500Y787600D01*
X30500Y786600D02*
X154500Y786600D01*
X206500Y786600D02*
X364500Y786600D01*
X418500Y786600D02*
X453500Y786600D01*
X597500Y786600D02*
X953500Y786600D01*
X30500Y785600D02*
X154500Y785600D01*
X205500Y785600D02*
X365500Y785600D01*
X418500Y785600D02*
X454500Y785600D01*
X597500Y785600D02*
X953500Y785600D01*
X30500Y784600D02*
X153500Y784600D01*
X205500Y784600D02*
X365500Y784600D01*
X419500Y784600D02*
X454500Y784600D01*
X597500Y784600D02*
X953500Y784600D01*
X30500Y783600D02*
X152500Y783600D01*
X204500Y783600D02*
X366500Y783600D01*
X420500Y783600D02*
X455500Y783600D01*
X597500Y783600D02*
X953500Y783600D01*
X30500Y782600D02*
X152500Y782600D01*
X204500Y782600D02*
X367500Y782600D01*
X420500Y782600D02*
X455500Y782600D01*
X597500Y782600D02*
X953500Y782600D01*
X30500Y781600D02*
X151500Y781600D01*
X203500Y781600D02*
X367500Y781600D01*
X421500Y781600D02*
X456500Y781600D01*
X597500Y781600D02*
X953500Y781600D01*
X30500Y780600D02*
X151500Y780600D01*
X203500Y780600D02*
X368500Y780600D01*
X422500Y780600D02*
X456500Y780600D01*
X597500Y780600D02*
X953500Y780600D01*
X30500Y779600D02*
X150500Y779600D01*
X202500Y779600D02*
X369500Y779600D01*
X422500Y779600D02*
X457500Y779600D01*
X597500Y779600D02*
X953500Y779600D01*
X30500Y778600D02*
X150500Y778600D01*
X201500Y778600D02*
X369500Y778600D01*
X423500Y778600D02*
X457500Y778600D01*
X597500Y778600D02*
X953500Y778600D01*
X30500Y777600D02*
X149500Y777600D01*
X201500Y777600D02*
X370500Y777600D01*
X424500Y777600D02*
X458500Y777600D01*
X597500Y777600D02*
X953500Y777600D01*
X30500Y776600D02*
X148500Y776600D01*
X200500Y776600D02*
X371500Y776600D01*
X424500Y776600D02*
X458500Y776600D01*
X597500Y776600D02*
X953500Y776600D01*
X30500Y775600D02*
X148500Y775600D01*
X200500Y775600D02*
X371500Y775600D01*
X425500Y775600D02*
X459500Y775600D01*
X597500Y775600D02*
X953500Y775600D01*
X30500Y774600D02*
X147500Y774600D01*
X199500Y774600D02*
X372500Y774600D01*
X426500Y774600D02*
X459500Y774600D01*
X597500Y774600D02*
X953500Y774600D01*
X30500Y773600D02*
X147500Y773600D01*
X198500Y773600D02*
X373500Y773600D01*
X426500Y773600D02*
X460500Y773600D01*
X597500Y773600D02*
X953500Y773600D01*
X30500Y772600D02*
X147500Y772600D01*
X198500Y772600D02*
X373500Y772600D01*
X427500Y772600D02*
X460500Y772600D01*
X597500Y772600D02*
X953500Y772600D01*
X30500Y771600D02*
X146500Y771600D01*
X197500Y771600D02*
X374500Y771600D01*
X427500Y771600D02*
X461500Y771600D01*
X597500Y771600D02*
X953500Y771600D01*
X30500Y770600D02*
X146500Y770600D01*
X197500Y770600D02*
X375500Y770600D01*
X428500Y770600D02*
X461500Y770600D01*
X597500Y770600D02*
X953500Y770600D01*
X30500Y769600D02*
X146500Y769600D01*
X196500Y769600D02*
X375500Y769600D01*
X428500Y769600D02*
X462500Y769600D01*
X597500Y769600D02*
X953500Y769600D01*
X30500Y768600D02*
X145500Y768600D01*
X196500Y768600D02*
X376500Y768600D01*
X428500Y768600D02*
X462500Y768600D01*
X597500Y768600D02*
X953500Y768600D01*
X30500Y767600D02*
X145500Y767600D01*
X195500Y767600D02*
X377500Y767600D01*
X428500Y767600D02*
X463500Y767600D01*
X597500Y767600D02*
X953500Y767600D01*
X30500Y766600D02*
X145500Y766600D01*
X194500Y766600D02*
X377500Y766600D01*
X429500Y766600D02*
X463500Y766600D01*
X597500Y766600D02*
X953500Y766600D01*
X30500Y765600D02*
X145500Y765600D01*
X194500Y765600D02*
X378500Y765600D01*
X429500Y765600D02*
X464500Y765600D01*
X597500Y765600D02*
X953500Y765600D01*
X30500Y764600D02*
X145500Y764600D01*
X193500Y764600D02*
X379500Y764600D01*
X429500Y764600D02*
X464500Y764600D01*
X597500Y764600D02*
X953500Y764600D01*
X30500Y763600D02*
X145500Y763600D01*
X193500Y763600D02*
X379500Y763600D01*
X429500Y763600D02*
X465500Y763600D01*
X597500Y763600D02*
X953500Y763600D01*
X30500Y762600D02*
X145500Y762600D01*
X192500Y762600D02*
X380500Y762600D01*
X429500Y762600D02*
X465500Y762600D01*
X597500Y762600D02*
X953500Y762600D01*
X30500Y761600D02*
X145500Y761600D01*
X192500Y761600D02*
X381500Y761600D01*
X429500Y761600D02*
X465500Y761600D01*
X597500Y761600D02*
X953500Y761600D01*
X30500Y760600D02*
X145500Y760600D01*
X191500Y760600D02*
X381500Y760600D01*
X429500Y760600D02*
X465500Y760600D01*
X597500Y760600D02*
X953500Y760600D01*
X30500Y759600D02*
X145500Y759600D01*
X190500Y759600D02*
X382500Y759600D01*
X429500Y759600D02*
X465500Y759600D01*
X597500Y759600D02*
X953500Y759600D01*
X30500Y758600D02*
X145500Y758600D01*
X190500Y758600D02*
X383500Y758600D01*
X429500Y758600D02*
X465500Y758600D01*
X597500Y758600D02*
X953500Y758600D01*
X30500Y757600D02*
X145500Y757600D01*
X190500Y757600D02*
X383500Y757600D01*
X429500Y757600D02*
X465500Y757600D01*
X597500Y757600D02*
X953500Y757600D01*
X30500Y756600D02*
X145500Y756600D01*
X190500Y756600D02*
X384500Y756600D01*
X429500Y756600D02*
X465500Y756600D01*
X597500Y756600D02*
X953500Y756600D01*
X30500Y755600D02*
X145500Y755600D01*
X190500Y755600D02*
X384500Y755600D01*
X429500Y755600D02*
X465500Y755600D01*
X597500Y755600D02*
X953500Y755600D01*
X30500Y754600D02*
X145500Y754600D01*
X190500Y754600D02*
X384500Y754600D01*
X429500Y754600D02*
X465500Y754600D01*
X597500Y754600D02*
X953500Y754600D01*
X30500Y753600D02*
X145500Y753600D01*
X190500Y753600D02*
X384500Y753600D01*
X429500Y753600D02*
X465500Y753600D01*
X597500Y753600D02*
X953500Y753600D01*
X30500Y752600D02*
X145500Y752600D01*
X190500Y752600D02*
X384500Y752600D01*
X429500Y752600D02*
X465500Y752600D01*
X597500Y752600D02*
X953500Y752600D01*
X30500Y751600D02*
X145500Y751600D01*
X190500Y751600D02*
X384500Y751600D01*
X429500Y751600D02*
X465500Y751600D01*
X597500Y751600D02*
X953500Y751600D01*
X30500Y750600D02*
X145500Y750600D01*
X190500Y750600D02*
X384500Y750600D01*
X429500Y750600D02*
X465500Y750600D01*
X597500Y750600D02*
X953500Y750600D01*
X30500Y749600D02*
X145500Y749600D01*
X190500Y749600D02*
X384500Y749600D01*
X429500Y749600D02*
X465500Y749600D01*
X597500Y749600D02*
X953500Y749600D01*
X30500Y748600D02*
X145500Y748600D01*
X190500Y748600D02*
X384500Y748600D01*
X429500Y748600D02*
X465500Y748600D01*
X597500Y748600D02*
X953500Y748600D01*
X30500Y747600D02*
X145500Y747600D01*
X190500Y747600D02*
X384500Y747600D01*
X429500Y747600D02*
X465500Y747600D01*
X597500Y747600D02*
X953500Y747600D01*
X30500Y746600D02*
X145500Y746600D01*
X190500Y746600D02*
X384500Y746600D01*
X429500Y746600D02*
X465500Y746600D01*
X597500Y746600D02*
X953500Y746600D01*
X30500Y745600D02*
X145500Y745600D01*
X190500Y745600D02*
X384500Y745600D01*
X429500Y745600D02*
X465500Y745600D01*
X597500Y745600D02*
X953500Y745600D01*
X30500Y744600D02*
X145500Y744600D01*
X190500Y744600D02*
X384500Y744600D01*
X429500Y744600D02*
X465500Y744600D01*
X597500Y744600D02*
X953500Y744600D01*
X30500Y743600D02*
X145500Y743600D01*
X190500Y743600D02*
X384500Y743600D01*
X429500Y743600D02*
X465500Y743600D01*
X597500Y743600D02*
X953500Y743600D01*
X30500Y742600D02*
X145500Y742600D01*
X190500Y742600D02*
X384500Y742600D01*
X429500Y742600D02*
X465500Y742600D01*
X597500Y742600D02*
X953500Y742600D01*
X30500Y741600D02*
X145500Y741600D01*
X190500Y741600D02*
X384500Y741600D01*
X429500Y741600D02*
X465500Y741600D01*
X597500Y741600D02*
X953500Y741600D01*
X30500Y740600D02*
X145500Y740600D01*
X190500Y740600D02*
X384500Y740600D01*
X429500Y740600D02*
X465500Y740600D01*
X597500Y740600D02*
X953500Y740600D01*
X30500Y739600D02*
X145500Y739600D01*
X190500Y739600D02*
X384500Y739600D01*
X429500Y739600D02*
X465500Y739600D01*
X597500Y739600D02*
X953500Y739600D01*
X30500Y738600D02*
X145500Y738600D01*
X190500Y738600D02*
X384500Y738600D01*
X429500Y738600D02*
X465500Y738600D01*
X597500Y738600D02*
X953500Y738600D01*
X30500Y737600D02*
X145500Y737600D01*
X190500Y737600D02*
X384500Y737600D01*
X429500Y737600D02*
X465500Y737600D01*
X597500Y737600D02*
X953500Y737600D01*
X30500Y736600D02*
X145500Y736600D01*
X190500Y736600D02*
X384500Y736600D01*
X429500Y736600D02*
X465500Y736600D01*
X597500Y736600D02*
X953500Y736600D01*
X30500Y735600D02*
X145500Y735600D01*
X190500Y735600D02*
X384500Y735600D01*
X429500Y735600D02*
X465500Y735600D01*
X597500Y735600D02*
X953500Y735600D01*
X30500Y734600D02*
X145500Y734600D01*
X190500Y734600D02*
X384500Y734600D01*
X429500Y734600D02*
X465500Y734600D01*
X597500Y734600D02*
X953500Y734600D01*
X30500Y733600D02*
X145500Y733600D01*
X190500Y733600D02*
X384500Y733600D01*
X429500Y733600D02*
X465500Y733600D01*
X597500Y733600D02*
X953500Y733600D01*
X30500Y732600D02*
X145500Y732600D01*
X190500Y732600D02*
X384500Y732600D01*
X429500Y732600D02*
X465500Y732600D01*
X597500Y732600D02*
X953500Y732600D01*
X30500Y731600D02*
X145500Y731600D01*
X190500Y731600D02*
X384500Y731600D01*
X429500Y731600D02*
X465500Y731600D01*
X597500Y731600D02*
X953500Y731600D01*
X30500Y730600D02*
X145500Y730600D01*
X190500Y730600D02*
X384500Y730600D01*
X429500Y730600D02*
X465500Y730600D01*
X597500Y730600D02*
X953500Y730600D01*
X30500Y729600D02*
X145500Y729600D01*
X190500Y729600D02*
X384500Y729600D01*
X429500Y729600D02*
X465500Y729600D01*
X597500Y729600D02*
X953500Y729600D01*
X30500Y728600D02*
X145500Y728600D01*
X190500Y728600D02*
X384500Y728600D01*
X429500Y728600D02*
X465500Y728600D01*
X597500Y728600D02*
X953500Y728600D01*
X30500Y727600D02*
X145500Y727600D01*
X190500Y727600D02*
X384500Y727600D01*
X429500Y727600D02*
X465500Y727600D01*
X597500Y727600D02*
X953500Y727600D01*
X30500Y726600D02*
X145500Y726600D01*
X190500Y726600D02*
X384500Y726600D01*
X429500Y726600D02*
X465500Y726600D01*
X597500Y726600D02*
X953500Y726600D01*
X30500Y725600D02*
X145500Y725600D01*
X190500Y725600D02*
X384500Y725600D01*
X429500Y725600D02*
X465500Y725600D01*
X597500Y725600D02*
X953500Y725600D01*
X30500Y724600D02*
X145500Y724600D01*
X190500Y724600D02*
X384500Y724600D01*
X429500Y724600D02*
X465500Y724600D01*
X597500Y724600D02*
X953500Y724600D01*
X30500Y723600D02*
X145500Y723600D01*
X190500Y723600D02*
X384500Y723600D01*
X429500Y723600D02*
X465500Y723600D01*
X597500Y723600D02*
X953500Y723600D01*
X30500Y722600D02*
X145500Y722600D01*
X190500Y722600D02*
X384500Y722600D01*
X429500Y722600D02*
X465500Y722600D01*
X597500Y722600D02*
X953500Y722600D01*
X30500Y721600D02*
X145500Y721600D01*
X190500Y721600D02*
X384500Y721600D01*
X429500Y721600D02*
X465500Y721600D01*
X597500Y721600D02*
X953500Y721600D01*
X30500Y720600D02*
X145500Y720600D01*
X190500Y720600D02*
X384500Y720600D01*
X429500Y720600D02*
X465500Y720600D01*
X597500Y720600D02*
X953500Y720600D01*
X30500Y719600D02*
X145500Y719600D01*
X190500Y719600D02*
X384500Y719600D01*
X429500Y719600D02*
X465500Y719600D01*
X597500Y719600D02*
X953500Y719600D01*
X30500Y718600D02*
X145500Y718600D01*
X190500Y718600D02*
X384500Y718600D01*
X429500Y718600D02*
X465500Y718600D01*
X597500Y718600D02*
X953500Y718600D01*
X30500Y717600D02*
X145500Y717600D01*
X190500Y717600D02*
X384500Y717600D01*
X429500Y717600D02*
X465500Y717600D01*
X597500Y717600D02*
X953500Y717600D01*
X30500Y716600D02*
X145500Y716600D01*
X190500Y716600D02*
X384500Y716600D01*
X429500Y716600D02*
X465500Y716600D01*
X597500Y716600D02*
X953500Y716600D01*
X30500Y715600D02*
X145500Y715600D01*
X190500Y715600D02*
X384500Y715600D01*
X429500Y715600D02*
X465500Y715600D01*
X597500Y715600D02*
X953500Y715600D01*
X30500Y714600D02*
X145500Y714600D01*
X190500Y714600D02*
X384500Y714600D01*
X429500Y714600D02*
X465500Y714600D01*
X597500Y714600D02*
X953500Y714600D01*
X30500Y713600D02*
X145500Y713600D01*
X190500Y713600D02*
X384500Y713600D01*
X429500Y713600D02*
X465500Y713600D01*
X597500Y713600D02*
X953500Y713600D01*
X30500Y712600D02*
X145500Y712600D01*
X190500Y712600D02*
X384500Y712600D01*
X429500Y712600D02*
X465500Y712600D01*
X597500Y712600D02*
X953500Y712600D01*
X30500Y711600D02*
X145500Y711600D01*
X190500Y711600D02*
X384500Y711600D01*
X429500Y711600D02*
X465500Y711600D01*
X597500Y711600D02*
X953500Y711600D01*
X30500Y710600D02*
X145500Y710600D01*
X190500Y710600D02*
X384500Y710600D01*
X429500Y710600D02*
X465500Y710600D01*
X597500Y710600D02*
X953500Y710600D01*
X30500Y709600D02*
X145500Y709600D01*
X190500Y709600D02*
X384500Y709600D01*
X429500Y709600D02*
X465500Y709600D01*
X597500Y709600D02*
X953500Y709600D01*
X30500Y708600D02*
X145500Y708600D01*
X190500Y708600D02*
X384500Y708600D01*
X429500Y708600D02*
X465500Y708600D01*
X597500Y708600D02*
X953500Y708600D01*
X30500Y707600D02*
X145500Y707600D01*
X190500Y707600D02*
X384500Y707600D01*
X429500Y707600D02*
X465500Y707600D01*
X597500Y707600D02*
X953500Y707600D01*
X30500Y706600D02*
X145500Y706600D01*
X190500Y706600D02*
X384500Y706600D01*
X429500Y706600D02*
X465500Y706600D01*
X597500Y706600D02*
X953500Y706600D01*
X30500Y705600D02*
X145500Y705600D01*
X190500Y705600D02*
X384500Y705600D01*
X429500Y705600D02*
X465500Y705600D01*
X597500Y705600D02*
X953500Y705600D01*
X30500Y704600D02*
X145500Y704600D01*
X190500Y704600D02*
X384500Y704600D01*
X429500Y704600D02*
X465500Y704600D01*
X597500Y704600D02*
X953500Y704600D01*
X30500Y703600D02*
X145500Y703600D01*
X190500Y703600D02*
X384500Y703600D01*
X429500Y703600D02*
X465500Y703600D01*
X597500Y703600D02*
X953500Y703600D01*
X30500Y702600D02*
X145500Y702600D01*
X190500Y702600D02*
X384500Y702600D01*
X429500Y702600D02*
X465500Y702600D01*
X597500Y702600D02*
X953500Y702600D01*
X30500Y701600D02*
X145500Y701600D01*
X190500Y701600D02*
X384500Y701600D01*
X429500Y701600D02*
X465500Y701600D01*
X597500Y701600D02*
X953500Y701600D01*
X30500Y700600D02*
X145500Y700600D01*
X190500Y700600D02*
X384500Y700600D01*
X429500Y700600D02*
X465500Y700600D01*
X597500Y700600D02*
X953500Y700600D01*
X30500Y699600D02*
X145500Y699600D01*
X190500Y699600D02*
X384500Y699600D01*
X429500Y699600D02*
X465500Y699600D01*
X597500Y699600D02*
X953500Y699600D01*
X30500Y698600D02*
X145500Y698600D01*
X190500Y698600D02*
X384500Y698600D01*
X429500Y698600D02*
X465500Y698600D01*
X597500Y698600D02*
X953500Y698600D01*
X30500Y697600D02*
X145500Y697600D01*
X190500Y697600D02*
X384500Y697600D01*
X429500Y697600D02*
X465500Y697600D01*
X597500Y697600D02*
X953500Y697600D01*
X30500Y696600D02*
X145500Y696600D01*
X190500Y696600D02*
X384500Y696600D01*
X429500Y696600D02*
X465500Y696600D01*
X597500Y696600D02*
X953500Y696600D01*
X30500Y695600D02*
X145500Y695600D01*
X190500Y695600D02*
X384500Y695600D01*
X429500Y695600D02*
X465500Y695600D01*
X597500Y695600D02*
X953500Y695600D01*
X30500Y694600D02*
X145500Y694600D01*
X190500Y694600D02*
X384500Y694600D01*
X429500Y694600D02*
X465500Y694600D01*
X597500Y694600D02*
X953500Y694600D01*
X30500Y693600D02*
X145500Y693600D01*
X190500Y693600D02*
X384500Y693600D01*
X429500Y693600D02*
X465500Y693600D01*
X597500Y693600D02*
X953500Y693600D01*
X30500Y692600D02*
X145500Y692600D01*
X190500Y692600D02*
X384500Y692600D01*
X429500Y692600D02*
X465500Y692600D01*
X597500Y692600D02*
X953500Y692600D01*
X30500Y691600D02*
X145500Y691600D01*
X190500Y691600D02*
X384500Y691600D01*
X429500Y691600D02*
X465500Y691600D01*
X597500Y691600D02*
X953500Y691600D01*
X30500Y690600D02*
X145500Y690600D01*
X190500Y690600D02*
X384500Y690600D01*
X429500Y690600D02*
X465500Y690600D01*
X597500Y690600D02*
X953500Y690600D01*
X30500Y689600D02*
X145500Y689600D01*
X190500Y689600D02*
X384500Y689600D01*
X429500Y689600D02*
X465500Y689600D01*
X597500Y689600D02*
X953500Y689600D01*
X30500Y688600D02*
X145500Y688600D01*
X190500Y688600D02*
X384500Y688600D01*
X429500Y688600D02*
X465500Y688600D01*
X597500Y688600D02*
X953500Y688600D01*
X30500Y687600D02*
X145500Y687600D01*
X190500Y687600D02*
X384500Y687600D01*
X429500Y687600D02*
X465500Y687600D01*
X597500Y687600D02*
X953500Y687600D01*
X30500Y686600D02*
X145500Y686600D01*
X190500Y686600D02*
X384500Y686600D01*
X429500Y686600D02*
X465500Y686600D01*
X597500Y686600D02*
X953500Y686600D01*
X30500Y685600D02*
X145500Y685600D01*
X190500Y685600D02*
X384500Y685600D01*
X429500Y685600D02*
X465500Y685600D01*
X597500Y685600D02*
X953500Y685600D01*
X30500Y684600D02*
X145500Y684600D01*
X190500Y684600D02*
X384500Y684600D01*
X429500Y684600D02*
X465500Y684600D01*
X597500Y684600D02*
X953500Y684600D01*
X30500Y683600D02*
X145500Y683600D01*
X190500Y683600D02*
X384500Y683600D01*
X429500Y683600D02*
X465500Y683600D01*
X597500Y683600D02*
X953500Y683600D01*
X30500Y682600D02*
X145500Y682600D01*
X190500Y682600D02*
X384500Y682600D01*
X429500Y682600D02*
X465500Y682600D01*
X597500Y682600D02*
X953500Y682600D01*
X30500Y681600D02*
X145500Y681600D01*
X190500Y681600D02*
X384500Y681600D01*
X429500Y681600D02*
X465500Y681600D01*
X597500Y681600D02*
X953500Y681600D01*
X30500Y680600D02*
X145500Y680600D01*
X190500Y680600D02*
X384500Y680600D01*
X429500Y680600D02*
X465500Y680600D01*
X597500Y680600D02*
X953500Y680600D01*
X30500Y679600D02*
X145500Y679600D01*
X190500Y679600D02*
X384500Y679600D01*
X429500Y679600D02*
X465500Y679600D01*
X597500Y679600D02*
X953500Y679600D01*
X30500Y678600D02*
X145500Y678600D01*
X190500Y678600D02*
X384500Y678600D01*
X429500Y678600D02*
X465500Y678600D01*
X597500Y678600D02*
X953500Y678600D01*
X30500Y677600D02*
X145500Y677600D01*
X190500Y677600D02*
X384500Y677600D01*
X429500Y677600D02*
X465500Y677600D01*
X597500Y677600D02*
X953500Y677600D01*
X30500Y676600D02*
X145500Y676600D01*
X190500Y676600D02*
X384500Y676600D01*
X429500Y676600D02*
X465500Y676600D01*
X597500Y676600D02*
X953500Y676600D01*
X30500Y675600D02*
X145500Y675600D01*
X190500Y675600D02*
X384500Y675600D01*
X429500Y675600D02*
X465500Y675600D01*
X597500Y675600D02*
X953500Y675600D01*
X30500Y674600D02*
X145500Y674600D01*
X190500Y674600D02*
X384500Y674600D01*
X429500Y674600D02*
X465500Y674600D01*
X597500Y674600D02*
X953500Y674600D01*
X30500Y673600D02*
X145500Y673600D01*
X190500Y673600D02*
X384500Y673600D01*
X429500Y673600D02*
X465500Y673600D01*
X597500Y673600D02*
X953500Y673600D01*
X30500Y672600D02*
X145500Y672600D01*
X190500Y672600D02*
X384500Y672600D01*
X429500Y672600D02*
X465500Y672600D01*
X597500Y672600D02*
X953500Y672600D01*
X30500Y671600D02*
X145500Y671600D01*
X190500Y671600D02*
X384500Y671600D01*
X429500Y671600D02*
X465500Y671600D01*
X597500Y671600D02*
X953500Y671600D01*
X30500Y670600D02*
X145500Y670600D01*
X190500Y670600D02*
X384500Y670600D01*
X429500Y670600D02*
X465500Y670600D01*
X597500Y670600D02*
X953500Y670600D01*
X30500Y669600D02*
X145500Y669600D01*
X190500Y669600D02*
X384500Y669600D01*
X429500Y669600D02*
X465500Y669600D01*
X597500Y669600D02*
X953500Y669600D01*
X30500Y668600D02*
X145500Y668600D01*
X190500Y668600D02*
X384500Y668600D01*
X429500Y668600D02*
X465500Y668600D01*
X597500Y668600D02*
X953500Y668600D01*
X30500Y667600D02*
X145500Y667600D01*
X190500Y667600D02*
X384500Y667600D01*
X429500Y667600D02*
X465500Y667600D01*
X597500Y667600D02*
X953500Y667600D01*
X30500Y666600D02*
X145500Y666600D01*
X190500Y666600D02*
X384500Y666600D01*
X429500Y666600D02*
X465500Y666600D01*
X597500Y666600D02*
X953500Y666600D01*
X30500Y665600D02*
X145500Y665600D01*
X190500Y665600D02*
X384500Y665600D01*
X429500Y665600D02*
X465500Y665600D01*
X597500Y665600D02*
X953500Y665600D01*
X30500Y664600D02*
X145500Y664600D01*
X190500Y664600D02*
X384500Y664600D01*
X429500Y664600D02*
X465500Y664600D01*
X597500Y664600D02*
X953500Y664600D01*
X30500Y663600D02*
X145500Y663600D01*
X190500Y663600D02*
X384500Y663600D01*
X429500Y663600D02*
X465500Y663600D01*
X597500Y663600D02*
X953500Y663600D01*
X30500Y662600D02*
X145500Y662600D01*
X190500Y662600D02*
X384500Y662600D01*
X429500Y662600D02*
X465500Y662600D01*
X597500Y662600D02*
X953500Y662600D01*
X30500Y661600D02*
X145500Y661600D01*
X190500Y661600D02*
X384500Y661600D01*
X429500Y661600D02*
X465500Y661600D01*
X597500Y661600D02*
X953500Y661600D01*
X30500Y660600D02*
X145500Y660600D01*
X190500Y660600D02*
X384500Y660600D01*
X429500Y660600D02*
X465500Y660600D01*
X597500Y660600D02*
X953500Y660600D01*
X30500Y659600D02*
X145500Y659600D01*
X190500Y659600D02*
X384500Y659600D01*
X429500Y659600D02*
X465500Y659600D01*
X597500Y659600D02*
X953500Y659600D01*
X30500Y658600D02*
X145500Y658600D01*
X190500Y658600D02*
X384500Y658600D01*
X429500Y658600D02*
X465500Y658600D01*
X597500Y658600D02*
X953500Y658600D01*
X30500Y657600D02*
X145500Y657600D01*
X190500Y657600D02*
X384500Y657600D01*
X429500Y657600D02*
X465500Y657600D01*
X597500Y657600D02*
X953500Y657600D01*
X30500Y656600D02*
X145500Y656600D01*
X190500Y656600D02*
X384500Y656600D01*
X429500Y656600D02*
X465500Y656600D01*
X597500Y656600D02*
X953500Y656600D01*
X30500Y655600D02*
X145500Y655600D01*
X190500Y655600D02*
X384500Y655600D01*
X429500Y655600D02*
X465500Y655600D01*
X597500Y655600D02*
X953500Y655600D01*
X30500Y654600D02*
X145500Y654600D01*
X190500Y654600D02*
X384500Y654600D01*
X429500Y654600D02*
X465500Y654600D01*
X597500Y654600D02*
X953500Y654600D01*
X30500Y653600D02*
X145500Y653600D01*
X190500Y653600D02*
X275500Y653600D01*
X287500Y653600D02*
X384500Y653600D01*
X429500Y653600D02*
X465500Y653600D01*
X597500Y653600D02*
X953500Y653600D01*
X30500Y652600D02*
X145500Y652600D01*
X190500Y652600D02*
X267500Y652600D01*
X294500Y652600D02*
X384500Y652600D01*
X429500Y652600D02*
X465500Y652600D01*
X597500Y652600D02*
X953500Y652600D01*
X30500Y651600D02*
X145500Y651600D01*
X190500Y651600D02*
X262500Y651600D01*
X299500Y651600D02*
X384500Y651600D01*
X429500Y651600D02*
X465500Y651600D01*
X597500Y651600D02*
X953500Y651600D01*
X30500Y650600D02*
X145500Y650600D01*
X190500Y650600D02*
X259500Y650600D01*
X303500Y650600D02*
X384500Y650600D01*
X429500Y650600D02*
X465500Y650600D01*
X597500Y650600D02*
X681500Y650600D01*
X699500Y650600D02*
X953500Y650600D01*
X30500Y649600D02*
X145500Y649600D01*
X190500Y649600D02*
X255500Y649600D01*
X306500Y649600D02*
X384500Y649600D01*
X429500Y649600D02*
X465500Y649600D01*
X597500Y649600D02*
X675500Y649600D01*
X705500Y649600D02*
X953500Y649600D01*
X30500Y648600D02*
X145500Y648600D01*
X190500Y648600D02*
X253500Y648600D01*
X309500Y648600D02*
X384500Y648600D01*
X429500Y648600D02*
X465500Y648600D01*
X597500Y648600D02*
X670500Y648600D01*
X709500Y648600D02*
X953500Y648600D01*
X30500Y647600D02*
X145500Y647600D01*
X190500Y647600D02*
X250500Y647600D01*
X312500Y647600D02*
X384500Y647600D01*
X429500Y647600D02*
X465500Y647600D01*
X597500Y647600D02*
X667500Y647600D01*
X713500Y647600D02*
X953500Y647600D01*
X30500Y646600D02*
X145500Y646600D01*
X190500Y646600D02*
X248500Y646600D01*
X314500Y646600D02*
X384500Y646600D01*
X429500Y646600D02*
X465500Y646600D01*
X597500Y646600D02*
X664500Y646600D01*
X716500Y646600D02*
X953500Y646600D01*
X30500Y645600D02*
X145500Y645600D01*
X190500Y645600D02*
X246500Y645600D01*
X316500Y645600D02*
X384500Y645600D01*
X429500Y645600D02*
X465500Y645600D01*
X597500Y645600D02*
X661500Y645600D01*
X719500Y645600D02*
X953500Y645600D01*
X30500Y644600D02*
X145500Y644600D01*
X190500Y644600D02*
X244500Y644600D01*
X318500Y644600D02*
X384500Y644600D01*
X429500Y644600D02*
X465500Y644600D01*
X597500Y644600D02*
X658500Y644600D01*
X721500Y644600D02*
X953500Y644600D01*
X30500Y643600D02*
X145500Y643600D01*
X190500Y643600D02*
X242500Y643600D01*
X320500Y643600D02*
X384500Y643600D01*
X429500Y643600D02*
X465500Y643600D01*
X597500Y643600D02*
X656500Y643600D01*
X723500Y643600D02*
X953500Y643600D01*
X30500Y642600D02*
X145500Y642600D01*
X190500Y642600D02*
X240500Y642600D01*
X321500Y642600D02*
X384500Y642600D01*
X429500Y642600D02*
X465500Y642600D01*
X597500Y642600D02*
X654500Y642600D01*
X725500Y642600D02*
X953500Y642600D01*
X30500Y641600D02*
X145500Y641600D01*
X190500Y641600D02*
X239500Y641600D01*
X323500Y641600D02*
X384500Y641600D01*
X429500Y641600D02*
X465500Y641600D01*
X597500Y641600D02*
X652500Y641600D01*
X728500Y641600D02*
X953500Y641600D01*
X30500Y640600D02*
X145500Y640600D01*
X190500Y640600D02*
X237500Y640600D01*
X325500Y640600D02*
X384500Y640600D01*
X429500Y640600D02*
X465500Y640600D01*
X597500Y640600D02*
X650500Y640600D01*
X729500Y640600D02*
X953500Y640600D01*
X30500Y639600D02*
X145500Y639600D01*
X190500Y639600D02*
X235500Y639600D01*
X326500Y639600D02*
X384500Y639600D01*
X429500Y639600D02*
X465500Y639600D01*
X597500Y639600D02*
X649500Y639600D01*
X731500Y639600D02*
X953500Y639600D01*
X30500Y638600D02*
X145500Y638600D01*
X190500Y638600D02*
X234500Y638600D01*
X328500Y638600D02*
X384500Y638600D01*
X429500Y638600D02*
X465500Y638600D01*
X597500Y638600D02*
X647500Y638600D01*
X733500Y638600D02*
X953500Y638600D01*
X30500Y637600D02*
X145500Y637600D01*
X190500Y637600D02*
X233500Y637600D01*
X329500Y637600D02*
X384500Y637600D01*
X429500Y637600D02*
X465500Y637600D01*
X597500Y637600D02*
X645500Y637600D01*
X734500Y637600D02*
X953500Y637600D01*
X30500Y636600D02*
X145500Y636600D01*
X190500Y636600D02*
X231500Y636600D01*
X331500Y636600D02*
X384500Y636600D01*
X429500Y636600D02*
X465500Y636600D01*
X597500Y636600D02*
X644500Y636600D01*
X736500Y636600D02*
X953500Y636600D01*
X30500Y635600D02*
X145500Y635600D01*
X190500Y635600D02*
X230500Y635600D01*
X332500Y635600D02*
X384500Y635600D01*
X429500Y635600D02*
X465500Y635600D01*
X597500Y635600D02*
X643500Y635600D01*
X737500Y635600D02*
X953500Y635600D01*
X30500Y634600D02*
X145500Y634600D01*
X190500Y634600D02*
X229500Y634600D01*
X333500Y634600D02*
X384500Y634600D01*
X429500Y634600D02*
X465500Y634600D01*
X597500Y634600D02*
X641500Y634600D01*
X738500Y634600D02*
X953500Y634600D01*
X30500Y633600D02*
X145500Y633600D01*
X190500Y633600D02*
X228500Y633600D01*
X334500Y633600D02*
X384500Y633600D01*
X429500Y633600D02*
X465500Y633600D01*
X597500Y633600D02*
X640500Y633600D01*
X740500Y633600D02*
X953500Y633600D01*
X30500Y632600D02*
X145500Y632600D01*
X190500Y632600D02*
X227500Y632600D01*
X335500Y632600D02*
X384500Y632600D01*
X429500Y632600D02*
X465500Y632600D01*
X597500Y632600D02*
X639500Y632600D01*
X741500Y632600D02*
X953500Y632600D01*
X30500Y631600D02*
X145500Y631600D01*
X190500Y631600D02*
X226500Y631600D01*
X336500Y631600D02*
X384500Y631600D01*
X429500Y631600D02*
X465500Y631600D01*
X597500Y631600D02*
X638500Y631600D01*
X742500Y631600D02*
X953500Y631600D01*
X30500Y630600D02*
X145500Y630600D01*
X190500Y630600D02*
X224500Y630600D01*
X337500Y630600D02*
X384500Y630600D01*
X429500Y630600D02*
X465500Y630600D01*
X597500Y630600D02*
X636500Y630600D01*
X743500Y630600D02*
X953500Y630600D01*
X30500Y629600D02*
X145500Y629600D01*
X190500Y629600D02*
X224500Y629600D01*
X338500Y629600D02*
X384500Y629600D01*
X429500Y629600D02*
X465500Y629600D01*
X597500Y629600D02*
X635500Y629600D01*
X744500Y629600D02*
X953500Y629600D01*
X30500Y628600D02*
X145500Y628600D01*
X190500Y628600D02*
X223500Y628600D01*
X339500Y628600D02*
X384500Y628600D01*
X429500Y628600D02*
X465500Y628600D01*
X597500Y628600D02*
X634500Y628600D01*
X745500Y628600D02*
X953500Y628600D01*
X30500Y627600D02*
X145500Y627600D01*
X190500Y627600D02*
X222500Y627600D01*
X340500Y627600D02*
X384500Y627600D01*
X429500Y627600D02*
X465500Y627600D01*
X597500Y627600D02*
X633500Y627600D01*
X746500Y627600D02*
X953500Y627600D01*
X30500Y626600D02*
X145500Y626600D01*
X190500Y626600D02*
X221500Y626600D01*
X341500Y626600D02*
X384500Y626600D01*
X429500Y626600D02*
X465500Y626600D01*
X597500Y626600D02*
X632500Y626600D01*
X747500Y626600D02*
X953500Y626600D01*
X30500Y625600D02*
X145500Y625600D01*
X190500Y625600D02*
X220500Y625600D01*
X342500Y625600D02*
X384500Y625600D01*
X429500Y625600D02*
X465500Y625600D01*
X597500Y625600D02*
X631500Y625600D01*
X748500Y625600D02*
X953500Y625600D01*
X30500Y624600D02*
X145500Y624600D01*
X190500Y624600D02*
X219500Y624600D01*
X343500Y624600D02*
X384500Y624600D01*
X429500Y624600D02*
X465500Y624600D01*
X597500Y624600D02*
X630500Y624600D01*
X749500Y624600D02*
X953500Y624600D01*
X30500Y623600D02*
X145500Y623600D01*
X190500Y623600D02*
X218500Y623600D01*
X343500Y623600D02*
X384500Y623600D01*
X429500Y623600D02*
X465500Y623600D01*
X597500Y623600D02*
X630500Y623600D01*
X750500Y623600D02*
X953500Y623600D01*
X30500Y622600D02*
X145500Y622600D01*
X190500Y622600D02*
X218500Y622600D01*
X344500Y622600D02*
X384500Y622600D01*
X429500Y622600D02*
X465500Y622600D01*
X597500Y622600D02*
X629500Y622600D01*
X751500Y622600D02*
X953500Y622600D01*
X30500Y621600D02*
X145500Y621600D01*
X190500Y621600D02*
X217500Y621600D01*
X345500Y621600D02*
X384500Y621600D01*
X429500Y621600D02*
X465500Y621600D01*
X597500Y621600D02*
X628500Y621600D01*
X752500Y621600D02*
X953500Y621600D01*
X30500Y620600D02*
X145500Y620600D01*
X190500Y620600D02*
X216500Y620600D01*
X346500Y620600D02*
X384500Y620600D01*
X429500Y620600D02*
X465500Y620600D01*
X597500Y620600D02*
X627500Y620600D01*
X752500Y620600D02*
X953500Y620600D01*
X30500Y619600D02*
X145500Y619600D01*
X190500Y619600D02*
X215500Y619600D01*
X346500Y619600D02*
X384500Y619600D01*
X429500Y619600D02*
X465500Y619600D01*
X597500Y619600D02*
X626500Y619600D01*
X753500Y619600D02*
X953500Y619600D01*
X30500Y618600D02*
X145500Y618600D01*
X190500Y618600D02*
X215500Y618600D01*
X347500Y618600D02*
X384500Y618600D01*
X429500Y618600D02*
X465500Y618600D01*
X597500Y618600D02*
X626500Y618600D01*
X754500Y618600D02*
X953500Y618600D01*
X30500Y617600D02*
X145500Y617600D01*
X190500Y617600D02*
X214500Y617600D01*
X347500Y617600D02*
X384500Y617600D01*
X429500Y617600D02*
X465500Y617600D01*
X597500Y617600D02*
X625500Y617600D01*
X755500Y617600D02*
X953500Y617600D01*
X30500Y616600D02*
X145500Y616600D01*
X190500Y616600D02*
X214500Y616600D01*
X348500Y616600D02*
X384500Y616600D01*
X429500Y616600D02*
X465500Y616600D01*
X597500Y616600D02*
X624500Y616600D01*
X755500Y616600D02*
X953500Y616600D01*
X30500Y615600D02*
X145500Y615600D01*
X190500Y615600D02*
X213500Y615600D01*
X349500Y615600D02*
X384500Y615600D01*
X429500Y615600D02*
X465500Y615600D01*
X597500Y615600D02*
X624500Y615600D01*
X756500Y615600D02*
X953500Y615600D01*
X30500Y614600D02*
X145500Y614600D01*
X190500Y614600D02*
X212500Y614600D01*
X349500Y614600D02*
X384500Y614600D01*
X429500Y614600D02*
X465500Y614600D01*
X597500Y614600D02*
X623500Y614600D01*
X757500Y614600D02*
X953500Y614600D01*
X30500Y613600D02*
X145500Y613600D01*
X190500Y613600D02*
X212500Y613600D01*
X350500Y613600D02*
X384500Y613600D01*
X429500Y613600D02*
X465500Y613600D01*
X597500Y613600D02*
X622500Y613600D01*
X757500Y613600D02*
X953500Y613600D01*
X30500Y612600D02*
X145500Y612600D01*
X190500Y612600D02*
X211500Y612600D01*
X350500Y612600D02*
X384500Y612600D01*
X429500Y612600D02*
X465500Y612600D01*
X597500Y612600D02*
X622500Y612600D01*
X758500Y612600D02*
X953500Y612600D01*
X30500Y611600D02*
X145500Y611600D01*
X190500Y611600D02*
X211500Y611600D01*
X351500Y611600D02*
X384500Y611600D01*
X429500Y611600D02*
X465500Y611600D01*
X597500Y611600D02*
X621500Y611600D01*
X758500Y611600D02*
X953500Y611600D01*
X30500Y610600D02*
X145500Y610600D01*
X190500Y610600D02*
X210500Y610600D01*
X351500Y610600D02*
X384500Y610600D01*
X429500Y610600D02*
X465500Y610600D01*
X597500Y610600D02*
X621500Y610600D01*
X759500Y610600D02*
X953500Y610600D01*
X30500Y609600D02*
X145500Y609600D01*
X190500Y609600D02*
X210500Y609600D01*
X352500Y609600D02*
X384500Y609600D01*
X429500Y609600D02*
X465500Y609600D01*
X597500Y609600D02*
X620500Y609600D01*
X760500Y609600D02*
X953500Y609600D01*
X30500Y608600D02*
X145500Y608600D01*
X190500Y608600D02*
X209500Y608600D01*
X352500Y608600D02*
X384500Y608600D01*
X429500Y608600D02*
X465500Y608600D01*
X597500Y608600D02*
X620500Y608600D01*
X760500Y608600D02*
X953500Y608600D01*
X30500Y607600D02*
X145500Y607600D01*
X190500Y607600D02*
X209500Y607600D01*
X353500Y607600D02*
X384500Y607600D01*
X429500Y607600D02*
X465500Y607600D01*
X597500Y607600D02*
X619500Y607600D01*
X761500Y607600D02*
X953500Y607600D01*
X30500Y606600D02*
X145500Y606600D01*
X190500Y606600D02*
X208500Y606600D01*
X353500Y606600D02*
X384500Y606600D01*
X429500Y606600D02*
X465500Y606600D01*
X597500Y606600D02*
X619500Y606600D01*
X761500Y606600D02*
X953500Y606600D01*
X30500Y605600D02*
X145500Y605600D01*
X190500Y605600D02*
X208500Y605600D01*
X354500Y605600D02*
X384500Y605600D01*
X429500Y605600D02*
X465500Y605600D01*
X597500Y605600D02*
X618500Y605600D01*
X761500Y605600D02*
X953500Y605600D01*
X30500Y604600D02*
X145500Y604600D01*
X190500Y604600D02*
X207500Y604600D01*
X354500Y604600D02*
X384500Y604600D01*
X429500Y604600D02*
X465500Y604600D01*
X597500Y604600D02*
X618500Y604600D01*
X762500Y604600D02*
X953500Y604600D01*
X30500Y603600D02*
X145500Y603600D01*
X190500Y603600D02*
X207500Y603600D01*
X355500Y603600D02*
X384500Y603600D01*
X429500Y603600D02*
X465500Y603600D01*
X597500Y603600D02*
X617500Y603600D01*
X762500Y603600D02*
X953500Y603600D01*
X30500Y602600D02*
X145500Y602600D01*
X190500Y602600D02*
X207500Y602600D01*
X355500Y602600D02*
X384500Y602600D01*
X429500Y602600D02*
X465500Y602600D01*
X597500Y602600D02*
X617500Y602600D01*
X763500Y602600D02*
X953500Y602600D01*
X30500Y601600D02*
X145500Y601600D01*
X190500Y601600D02*
X206500Y601600D01*
X355500Y601600D02*
X384500Y601600D01*
X429500Y601600D02*
X465500Y601600D01*
X597500Y601600D02*
X616500Y601600D01*
X763500Y601600D02*
X953500Y601600D01*
X30500Y600600D02*
X145500Y600600D01*
X190500Y600600D02*
X206500Y600600D01*
X356500Y600600D02*
X384500Y600600D01*
X429500Y600600D02*
X464500Y600600D01*
X597500Y600600D02*
X616500Y600600D01*
X764500Y600600D02*
X953500Y600600D01*
X30500Y599600D02*
X145500Y599600D01*
X190500Y599600D02*
X206500Y599600D01*
X356500Y599600D02*
X384500Y599600D01*
X429500Y599600D02*
X464500Y599600D01*
X597500Y599600D02*
X616500Y599600D01*
X764500Y599600D02*
X953500Y599600D01*
X30500Y598600D02*
X145500Y598600D01*
X190500Y598600D02*
X205500Y598600D01*
X356500Y598600D02*
X384500Y598600D01*
X429500Y598600D02*
X464500Y598600D01*
X597500Y598600D02*
X615500Y598600D01*
X764500Y598600D02*
X953500Y598600D01*
X30500Y597600D02*
X145500Y597600D01*
X190500Y597600D02*
X205500Y597600D01*
X357500Y597600D02*
X384500Y597600D01*
X429500Y597600D02*
X464500Y597600D01*
X597500Y597600D02*
X615500Y597600D01*
X765500Y597600D02*
X953500Y597600D01*
X30500Y596600D02*
X145500Y596600D01*
X190500Y596600D02*
X205500Y596600D01*
X357500Y596600D02*
X384500Y596600D01*
X429500Y596600D02*
X464500Y596600D01*
X597500Y596600D02*
X614500Y596600D01*
X765500Y596600D02*
X953500Y596600D01*
X30500Y595600D02*
X145500Y595600D01*
X190500Y595600D02*
X204500Y595600D01*
X357500Y595600D02*
X384500Y595600D01*
X429500Y595600D02*
X464500Y595600D01*
X597500Y595600D02*
X614500Y595600D01*
X765500Y595600D02*
X953500Y595600D01*
X30500Y594600D02*
X145500Y594600D01*
X190500Y594600D02*
X204500Y594600D01*
X358500Y594600D02*
X384500Y594600D01*
X429500Y594600D02*
X464500Y594600D01*
X597500Y594600D02*
X614500Y594600D01*
X766500Y594600D02*
X953500Y594600D01*
X30500Y593600D02*
X145500Y593600D01*
X190500Y593600D02*
X204500Y593600D01*
X358500Y593600D02*
X384500Y593600D01*
X429500Y593600D02*
X464500Y593600D01*
X597500Y593600D02*
X614500Y593600D01*
X766500Y593600D02*
X953500Y593600D01*
X30500Y592600D02*
X145500Y592600D01*
X190500Y592600D02*
X204500Y592600D01*
X358500Y592600D02*
X384500Y592600D01*
X429500Y592600D02*
X464500Y592600D01*
X597500Y592600D02*
X613500Y592600D01*
X766500Y592600D02*
X953500Y592600D01*
X30500Y591600D02*
X145500Y591600D01*
X190500Y591600D02*
X203500Y591600D01*
X358500Y591600D02*
X384500Y591600D01*
X429500Y591600D02*
X464500Y591600D01*
X597500Y591600D02*
X613500Y591600D01*
X767500Y591600D02*
X953500Y591600D01*
X30500Y590600D02*
X145500Y590600D01*
X190500Y590600D02*
X203500Y590600D01*
X359500Y590600D02*
X384500Y590600D01*
X429500Y590600D02*
X464500Y590600D01*
X597500Y590600D02*
X613500Y590600D01*
X767500Y590600D02*
X953500Y590600D01*
X30500Y589600D02*
X145500Y589600D01*
X190500Y589600D02*
X203500Y589600D01*
X359500Y589600D02*
X384500Y589600D01*
X429500Y589600D02*
X464500Y589600D01*
X597500Y589600D02*
X612500Y589600D01*
X767500Y589600D02*
X953500Y589600D01*
X30500Y588600D02*
X145500Y588600D01*
X190500Y588600D02*
X203500Y588600D01*
X359500Y588600D02*
X384500Y588600D01*
X429500Y588600D02*
X464500Y588600D01*
X597500Y588600D02*
X612500Y588600D01*
X767500Y588600D02*
X953500Y588600D01*
X30500Y587600D02*
X145500Y587600D01*
X190500Y587600D02*
X203500Y587600D01*
X359500Y587600D02*
X384500Y587600D01*
X429500Y587600D02*
X464500Y587600D01*
X597500Y587600D02*
X612500Y587600D01*
X768500Y587600D02*
X953500Y587600D01*
X30500Y586600D02*
X145500Y586600D01*
X190500Y586600D02*
X203500Y586600D01*
X359500Y586600D02*
X384500Y586600D01*
X429500Y586600D02*
X464500Y586600D01*
X597500Y586600D02*
X612500Y586600D01*
X768500Y586600D02*
X953500Y586600D01*
X30500Y585600D02*
X145500Y585600D01*
X190500Y585600D02*
X202500Y585600D01*
X359500Y585600D02*
X384500Y585600D01*
X429500Y585600D02*
X464500Y585600D01*
X597500Y585600D02*
X612500Y585600D01*
X768500Y585600D02*
X953500Y585600D01*
X30500Y584600D02*
X145500Y584600D01*
X190500Y584600D02*
X202500Y584600D01*
X359500Y584600D02*
X384500Y584600D01*
X429500Y584600D02*
X464500Y584600D01*
X597500Y584600D02*
X612500Y584600D01*
X768500Y584600D02*
X953500Y584600D01*
X30500Y583600D02*
X145500Y583600D01*
X190500Y583600D02*
X202500Y583600D01*
X360500Y583600D02*
X384500Y583600D01*
X429500Y583600D02*
X464500Y583600D01*
X597500Y583600D02*
X611500Y583600D01*
X768500Y583600D02*
X953500Y583600D01*
X30500Y582600D02*
X145500Y582600D01*
X190500Y582600D02*
X202500Y582600D01*
X360500Y582600D02*
X384500Y582600D01*
X429500Y582600D02*
X464500Y582600D01*
X597500Y582600D02*
X611500Y582600D01*
X768500Y582600D02*
X953500Y582600D01*
X30500Y581600D02*
X145500Y581600D01*
X190500Y581600D02*
X202500Y581600D01*
X360500Y581600D02*
X384500Y581600D01*
X429500Y581600D02*
X464500Y581600D01*
X597500Y581600D02*
X611500Y581600D01*
X768500Y581600D02*
X953500Y581600D01*
X30500Y580600D02*
X145500Y580600D01*
X190500Y580600D02*
X202500Y580600D01*
X360500Y580600D02*
X384500Y580600D01*
X429500Y580600D02*
X464500Y580600D01*
X597500Y580600D02*
X611500Y580600D01*
X769500Y580600D02*
X953500Y580600D01*
X30500Y579600D02*
X145500Y579600D01*
X190500Y579600D02*
X202500Y579600D01*
X360500Y579600D02*
X384500Y579600D01*
X429500Y579600D02*
X464500Y579600D01*
X597500Y579600D02*
X611500Y579600D01*
X769500Y579600D02*
X953500Y579600D01*
X30500Y578600D02*
X145500Y578600D01*
X190500Y578600D02*
X202500Y578600D01*
X360500Y578600D02*
X384500Y578600D01*
X429500Y578600D02*
X464500Y578600D01*
X597500Y578600D02*
X611500Y578600D01*
X769500Y578600D02*
X953500Y578600D01*
X30500Y577600D02*
X145500Y577600D01*
X190500Y577600D02*
X202500Y577600D01*
X360500Y577600D02*
X384500Y577600D01*
X429500Y577600D02*
X464500Y577600D01*
X597500Y577600D02*
X611500Y577600D01*
X769500Y577600D02*
X953500Y577600D01*
X30500Y576600D02*
X145500Y576600D01*
X190500Y576600D02*
X202500Y576600D01*
X360500Y576600D02*
X384500Y576600D01*
X429500Y576600D02*
X464500Y576600D01*
X597500Y576600D02*
X611500Y576600D01*
X769500Y576600D02*
X953500Y576600D01*
X30500Y575600D02*
X145500Y575600D01*
X190500Y575600D02*
X201500Y575600D01*
X360500Y575600D02*
X384500Y575600D01*
X429500Y575600D02*
X464500Y575600D01*
X597500Y575600D02*
X611500Y575600D01*
X769500Y575600D02*
X953500Y575600D01*
X30500Y574600D02*
X145500Y574600D01*
X190500Y574600D02*
X201500Y574600D01*
X360500Y574600D02*
X384500Y574600D01*
X429500Y574600D02*
X464500Y574600D01*
X597500Y574600D02*
X611500Y574600D01*
X769500Y574600D02*
X953500Y574600D01*
X30500Y573600D02*
X145500Y573600D01*
X190500Y573600D02*
X202500Y573600D01*
X360500Y573600D02*
X384500Y573600D01*
X429500Y573600D02*
X464500Y573600D01*
X597500Y573600D02*
X610500Y573600D01*
X769500Y573600D02*
X953500Y573600D01*
X30500Y572600D02*
X145500Y572600D01*
X190500Y572600D02*
X202500Y572600D01*
X360500Y572600D02*
X384500Y572600D01*
X429500Y572600D02*
X464500Y572600D01*
X597500Y572600D02*
X610500Y572600D01*
X769500Y572600D02*
X953500Y572600D01*
X30500Y571600D02*
X145500Y571600D01*
X190500Y571600D02*
X202500Y571600D01*
X360500Y571600D02*
X384500Y571600D01*
X429500Y571600D02*
X464500Y571600D01*
X597500Y571600D02*
X610500Y571600D01*
X769500Y571600D02*
X953500Y571600D01*
X30500Y570600D02*
X145500Y570600D01*
X190500Y570600D02*
X202500Y570600D01*
X360500Y570600D02*
X384500Y570600D01*
X429500Y570600D02*
X464500Y570600D01*
X597500Y570600D02*
X611500Y570600D01*
X769500Y570600D02*
X953500Y570600D01*
X30500Y569600D02*
X145500Y569600D01*
X190500Y569600D02*
X202500Y569600D01*
X360500Y569600D02*
X384500Y569600D01*
X429500Y569600D02*
X464500Y569600D01*
X597500Y569600D02*
X611500Y569600D01*
X769500Y569600D02*
X953500Y569600D01*
X30500Y568600D02*
X145500Y568600D01*
X190500Y568600D02*
X202500Y568600D01*
X360500Y568600D02*
X384500Y568600D01*
X429500Y568600D02*
X464500Y568600D01*
X597500Y568600D02*
X611500Y568600D01*
X769500Y568600D02*
X953500Y568600D01*
X30500Y567600D02*
X145500Y567600D01*
X190500Y567600D02*
X202500Y567600D01*
X360500Y567600D02*
X384500Y567600D01*
X429500Y567600D02*
X464500Y567600D01*
X597500Y567600D02*
X611500Y567600D01*
X769500Y567600D02*
X953500Y567600D01*
X30500Y566600D02*
X145500Y566600D01*
X190500Y566600D02*
X202500Y566600D01*
X360500Y566600D02*
X384500Y566600D01*
X429500Y566600D02*
X464500Y566600D01*
X597500Y566600D02*
X611500Y566600D01*
X769500Y566600D02*
X953500Y566600D01*
X30500Y565600D02*
X145500Y565600D01*
X190500Y565600D02*
X202500Y565600D01*
X360500Y565600D02*
X384500Y565600D01*
X429500Y565600D02*
X464500Y565600D01*
X597500Y565600D02*
X611500Y565600D01*
X769500Y565600D02*
X953500Y565600D01*
X30500Y564600D02*
X145500Y564600D01*
X190500Y564600D02*
X202500Y564600D01*
X359500Y564600D02*
X384500Y564600D01*
X429500Y564600D02*
X464500Y564600D01*
X597500Y564600D02*
X611500Y564600D01*
X769500Y564600D02*
X953500Y564600D01*
X30500Y563600D02*
X145500Y563600D01*
X190500Y563600D02*
X202500Y563600D01*
X359500Y563600D02*
X384500Y563600D01*
X429500Y563600D02*
X464500Y563600D01*
X597500Y563600D02*
X611500Y563600D01*
X769500Y563600D02*
X953500Y563600D01*
X30500Y562600D02*
X145500Y562600D01*
X190500Y562600D02*
X203500Y562600D01*
X359500Y562600D02*
X384500Y562600D01*
X429500Y562600D02*
X464500Y562600D01*
X597500Y562600D02*
X611500Y562600D01*
X768500Y562600D02*
X953500Y562600D01*
X30500Y561600D02*
X145500Y561600D01*
X190500Y561600D02*
X203500Y561600D01*
X359500Y561600D02*
X384500Y561600D01*
X429500Y561600D02*
X464500Y561600D01*
X597500Y561600D02*
X611500Y561600D01*
X768500Y561600D02*
X953500Y561600D01*
X30500Y560600D02*
X145500Y560600D01*
X190500Y560600D02*
X203500Y560600D01*
X359500Y560600D02*
X384500Y560600D01*
X429500Y560600D02*
X464500Y560600D01*
X597500Y560600D02*
X611500Y560600D01*
X768500Y560600D02*
X953500Y560600D01*
X30500Y559600D02*
X145500Y559600D01*
X190500Y559600D02*
X203500Y559600D01*
X359500Y559600D02*
X384500Y559600D01*
X429500Y559600D02*
X464500Y559600D01*
X597500Y559600D02*
X612500Y559600D01*
X768500Y559600D02*
X953500Y559600D01*
X30500Y558600D02*
X145500Y558600D01*
X190500Y558600D02*
X203500Y558600D01*
X358500Y558600D02*
X384500Y558600D01*
X429500Y558600D02*
X464500Y558600D01*
X597500Y558600D02*
X612500Y558600D01*
X768500Y558600D02*
X953500Y558600D01*
X30500Y557600D02*
X145500Y557600D01*
X190500Y557600D02*
X204500Y557600D01*
X358500Y557600D02*
X384500Y557600D01*
X429500Y557600D02*
X464500Y557600D01*
X597500Y557600D02*
X612500Y557600D01*
X768500Y557600D02*
X953500Y557600D01*
X30500Y556600D02*
X145500Y556600D01*
X190500Y556600D02*
X204500Y556600D01*
X358500Y556600D02*
X384500Y556600D01*
X429500Y556600D02*
X464500Y556600D01*
X597500Y556600D02*
X612500Y556600D01*
X767500Y556600D02*
X953500Y556600D01*
X30500Y555600D02*
X145500Y555600D01*
X190500Y555600D02*
X204500Y555600D01*
X358500Y555600D02*
X384500Y555600D01*
X429500Y555600D02*
X464500Y555600D01*
X597500Y555600D02*
X612500Y555600D01*
X767500Y555600D02*
X953500Y555600D01*
X30500Y554600D02*
X145500Y554600D01*
X190500Y554600D02*
X204500Y554600D01*
X357500Y554600D02*
X384500Y554600D01*
X429500Y554600D02*
X464500Y554600D01*
X597500Y554600D02*
X613500Y554600D01*
X767500Y554600D02*
X953500Y554600D01*
X30500Y553600D02*
X145500Y553600D01*
X190500Y553600D02*
X205500Y553600D01*
X357500Y553600D02*
X384500Y553600D01*
X429500Y553600D02*
X464500Y553600D01*
X597500Y553600D02*
X613500Y553600D01*
X767500Y553600D02*
X953500Y553600D01*
X30500Y552600D02*
X145500Y552600D01*
X190500Y552600D02*
X205500Y552600D01*
X357500Y552600D02*
X384500Y552600D01*
X429500Y552600D02*
X464500Y552600D01*
X597500Y552600D02*
X613500Y552600D01*
X766500Y552600D02*
X953500Y552600D01*
X30500Y551600D02*
X145500Y551600D01*
X190500Y551600D02*
X205500Y551600D01*
X356500Y551600D02*
X384500Y551600D01*
X429500Y551600D02*
X464500Y551600D01*
X597500Y551600D02*
X613500Y551600D01*
X766500Y551600D02*
X953500Y551600D01*
X30500Y550600D02*
X145500Y550600D01*
X190500Y550600D02*
X206500Y550600D01*
X356500Y550600D02*
X384500Y550600D01*
X429500Y550600D02*
X464500Y550600D01*
X597500Y550600D02*
X614500Y550600D01*
X766500Y550600D02*
X953500Y550600D01*
X30500Y549600D02*
X145500Y549600D01*
X190500Y549600D02*
X206500Y549600D01*
X356500Y549600D02*
X384500Y549600D01*
X429500Y549600D02*
X464500Y549600D01*
X597500Y549600D02*
X614500Y549600D01*
X766500Y549600D02*
X953500Y549600D01*
X30500Y548600D02*
X145500Y548600D01*
X190500Y548600D02*
X206500Y548600D01*
X355500Y548600D02*
X384500Y548600D01*
X429500Y548600D02*
X464500Y548600D01*
X597500Y548600D02*
X614500Y548600D01*
X765500Y548600D02*
X953500Y548600D01*
X30500Y547600D02*
X145500Y547600D01*
X190500Y547600D02*
X207500Y547600D01*
X355500Y547600D02*
X384500Y547600D01*
X429500Y547600D02*
X464500Y547600D01*
X597500Y547600D02*
X615500Y547600D01*
X765500Y547600D02*
X953500Y547600D01*
X30500Y546600D02*
X145500Y546600D01*
X190500Y546600D02*
X207500Y546600D01*
X355500Y546600D02*
X384500Y546600D01*
X429500Y546600D02*
X464500Y546600D01*
X597500Y546600D02*
X615500Y546600D01*
X765500Y546600D02*
X953500Y546600D01*
X30500Y545600D02*
X145500Y545600D01*
X190500Y545600D02*
X207500Y545600D01*
X354500Y545600D02*
X384500Y545600D01*
X429500Y545600D02*
X464500Y545600D01*
X597500Y545600D02*
X615500Y545600D01*
X764500Y545600D02*
X953500Y545600D01*
X30500Y544600D02*
X145500Y544600D01*
X190500Y544600D02*
X208500Y544600D01*
X354500Y544600D02*
X384500Y544600D01*
X429500Y544600D02*
X464500Y544600D01*
X597500Y544600D02*
X616500Y544600D01*
X764500Y544600D02*
X953500Y544600D01*
X30500Y543600D02*
X145500Y543600D01*
X190500Y543600D02*
X208500Y543600D01*
X353500Y543600D02*
X384500Y543600D01*
X429500Y543600D02*
X464500Y543600D01*
X597500Y543600D02*
X616500Y543600D01*
X764500Y543600D02*
X953500Y543600D01*
X30500Y542600D02*
X145500Y542600D01*
X190500Y542600D02*
X209500Y542600D01*
X353500Y542600D02*
X384500Y542600D01*
X429500Y542600D02*
X464500Y542600D01*
X597500Y542600D02*
X616500Y542600D01*
X763500Y542600D02*
X953500Y542600D01*
X30500Y541600D02*
X145500Y541600D01*
X190500Y541600D02*
X209500Y541600D01*
X353500Y541600D02*
X384500Y541600D01*
X429500Y541600D02*
X464500Y541600D01*
X597500Y541600D02*
X617500Y541600D01*
X763500Y541600D02*
X953500Y541600D01*
X30500Y540600D02*
X145500Y540600D01*
X190500Y540600D02*
X210500Y540600D01*
X352500Y540600D02*
X384500Y540600D01*
X429500Y540600D02*
X464500Y540600D01*
X597500Y540600D02*
X617500Y540600D01*
X762500Y540600D02*
X953500Y540600D01*
X30500Y539600D02*
X145500Y539600D01*
X190500Y539600D02*
X210500Y539600D01*
X352500Y539600D02*
X384500Y539600D01*
X429500Y539600D02*
X464500Y539600D01*
X597500Y539600D02*
X618500Y539600D01*
X762500Y539600D02*
X953500Y539600D01*
X30500Y538600D02*
X145500Y538600D01*
X190500Y538600D02*
X211500Y538600D01*
X351500Y538600D02*
X384500Y538600D01*
X429500Y538600D02*
X464500Y538600D01*
X597500Y538600D02*
X618500Y538600D01*
X761500Y538600D02*
X953500Y538600D01*
X30500Y537600D02*
X145500Y537600D01*
X190500Y537600D02*
X211500Y537600D01*
X351500Y537600D02*
X384500Y537600D01*
X429500Y537600D02*
X464500Y537600D01*
X597500Y537600D02*
X619500Y537600D01*
X761500Y537600D02*
X953500Y537600D01*
X30500Y536600D02*
X145500Y536600D01*
X190500Y536600D02*
X212500Y536600D01*
X350500Y536600D02*
X384500Y536600D01*
X429500Y536600D02*
X464500Y536600D01*
X597500Y536600D02*
X619500Y536600D01*
X760500Y536600D02*
X953500Y536600D01*
X30500Y535600D02*
X145500Y535600D01*
X190500Y535600D02*
X212500Y535600D01*
X349500Y535600D02*
X384500Y535600D01*
X429500Y535600D02*
X464500Y535600D01*
X597500Y535600D02*
X620500Y535600D01*
X760500Y535600D02*
X953500Y535600D01*
X30500Y534600D02*
X145500Y534600D01*
X190500Y534600D02*
X213500Y534600D01*
X349500Y534600D02*
X384500Y534600D01*
X429500Y534600D02*
X464500Y534600D01*
X597500Y534600D02*
X620500Y534600D01*
X759500Y534600D02*
X953500Y534600D01*
X30500Y533600D02*
X145500Y533600D01*
X190500Y533600D02*
X213500Y533600D01*
X348500Y533600D02*
X384500Y533600D01*
X429500Y533600D02*
X464500Y533600D01*
X597500Y533600D02*
X621500Y533600D01*
X759500Y533600D02*
X953500Y533600D01*
X30500Y532600D02*
X145500Y532600D01*
X190500Y532600D02*
X214500Y532600D01*
X348500Y532600D02*
X384500Y532600D01*
X429500Y532600D02*
X464500Y532600D01*
X597500Y532600D02*
X621500Y532600D01*
X758500Y532600D02*
X953500Y532600D01*
X30500Y531600D02*
X145500Y531600D01*
X190500Y531600D02*
X215500Y531600D01*
X347500Y531600D02*
X384500Y531600D01*
X429500Y531600D02*
X464500Y531600D01*
X597500Y531600D02*
X622500Y531600D01*
X758500Y531600D02*
X953500Y531600D01*
X30500Y530600D02*
X145500Y530600D01*
X190500Y530600D02*
X215500Y530600D01*
X346500Y530600D02*
X384500Y530600D01*
X429500Y530600D02*
X464500Y530600D01*
X597500Y530600D02*
X623500Y530600D01*
X757500Y530600D02*
X953500Y530600D01*
X30500Y529600D02*
X145500Y529600D01*
X190500Y529600D02*
X216500Y529600D01*
X346500Y529600D02*
X384500Y529600D01*
X429500Y529600D02*
X464500Y529600D01*
X597500Y529600D02*
X623500Y529600D01*
X756500Y529600D02*
X953500Y529600D01*
X30500Y528600D02*
X145500Y528600D01*
X190500Y528600D02*
X217500Y528600D01*
X345500Y528600D02*
X384500Y528600D01*
X429500Y528600D02*
X464500Y528600D01*
X597500Y528600D02*
X624500Y528600D01*
X756500Y528600D02*
X953500Y528600D01*
X30500Y527600D02*
X145500Y527600D01*
X190500Y527600D02*
X217500Y527600D01*
X344500Y527600D02*
X384500Y527600D01*
X429500Y527600D02*
X464500Y527600D01*
X597500Y527600D02*
X624500Y527600D01*
X755500Y527600D02*
X953500Y527600D01*
X30500Y526600D02*
X145500Y526600D01*
X190500Y526600D02*
X218500Y526600D01*
X343500Y526600D02*
X384500Y526600D01*
X429500Y526600D02*
X464500Y526600D01*
X597500Y526600D02*
X625500Y526600D01*
X754500Y526600D02*
X953500Y526600D01*
X30500Y525600D02*
X145500Y525600D01*
X190500Y525600D02*
X219500Y525600D01*
X343500Y525600D02*
X384500Y525600D01*
X429500Y525600D02*
X464500Y525600D01*
X597500Y525600D02*
X626500Y525600D01*
X754500Y525600D02*
X953500Y525600D01*
X30500Y524600D02*
X145500Y524600D01*
X190500Y524600D02*
X220500Y524600D01*
X342500Y524600D02*
X384500Y524600D01*
X429500Y524600D02*
X464500Y524600D01*
X597500Y524600D02*
X627500Y524600D01*
X753500Y524600D02*
X953500Y524600D01*
X30500Y523600D02*
X145500Y523600D01*
X190500Y523600D02*
X221500Y523600D01*
X341500Y523600D02*
X384500Y523600D01*
X429500Y523600D02*
X464500Y523600D01*
X597500Y523600D02*
X627500Y523600D01*
X752500Y523600D02*
X953500Y523600D01*
X30500Y522600D02*
X145500Y522600D01*
X190500Y522600D02*
X222500Y522600D01*
X340500Y522600D02*
X384500Y522600D01*
X429500Y522600D02*
X464500Y522600D01*
X597500Y522600D02*
X628500Y522600D01*
X752500Y522600D02*
X953500Y522600D01*
X30500Y521600D02*
X145500Y521600D01*
X190500Y521600D02*
X222500Y521600D01*
X339500Y521600D02*
X384500Y521600D01*
X429500Y521600D02*
X464500Y521600D01*
X597500Y521600D02*
X629500Y521600D01*
X751500Y521600D02*
X953500Y521600D01*
X30500Y520600D02*
X145500Y520600D01*
X190500Y520600D02*
X223500Y520600D01*
X338500Y520600D02*
X384500Y520600D01*
X429500Y520600D02*
X464500Y520600D01*
X597500Y520600D02*
X630500Y520600D01*
X750500Y520600D02*
X953500Y520600D01*
X30500Y519600D02*
X145500Y519600D01*
X190500Y519600D02*
X224500Y519600D01*
X337500Y519600D02*
X384500Y519600D01*
X429500Y519600D02*
X464500Y519600D01*
X597500Y519600D02*
X631500Y519600D01*
X749500Y519600D02*
X953500Y519600D01*
X30500Y518600D02*
X145500Y518600D01*
X190500Y518600D02*
X225500Y518600D01*
X336500Y518600D02*
X384500Y518600D01*
X429500Y518600D02*
X464500Y518600D01*
X597500Y518600D02*
X632500Y518600D01*
X748500Y518600D02*
X953500Y518600D01*
X30500Y517600D02*
X145500Y517600D01*
X190500Y517600D02*
X226500Y517600D01*
X335500Y517600D02*
X384500Y517600D01*
X429500Y517600D02*
X464500Y517600D01*
X597500Y517600D02*
X632500Y517600D01*
X747500Y517600D02*
X953500Y517600D01*
X30500Y516600D02*
X145500Y516600D01*
X190500Y516600D02*
X227500Y516600D01*
X334500Y516600D02*
X384500Y516600D01*
X429500Y516600D02*
X464500Y516600D01*
X597500Y516600D02*
X633500Y516600D01*
X746500Y516600D02*
X953500Y516600D01*
X30500Y515600D02*
X145500Y515600D01*
X190500Y515600D02*
X229500Y515600D01*
X333500Y515600D02*
X384500Y515600D01*
X429500Y515600D02*
X464500Y515600D01*
X597500Y515600D02*
X634500Y515600D01*
X745500Y515600D02*
X953500Y515600D01*
X30500Y514600D02*
X145500Y514600D01*
X190500Y514600D02*
X230500Y514600D01*
X332500Y514600D02*
X384500Y514600D01*
X429500Y514600D02*
X464500Y514600D01*
X597500Y514600D02*
X636500Y514600D01*
X744500Y514600D02*
X953500Y514600D01*
X30500Y513600D02*
X145500Y513600D01*
X190500Y513600D02*
X231500Y513600D01*
X331500Y513600D02*
X384500Y513600D01*
X429500Y513600D02*
X464500Y513600D01*
X597500Y513600D02*
X637500Y513600D01*
X743500Y513600D02*
X953500Y513600D01*
X30500Y512600D02*
X145500Y512600D01*
X190500Y512600D02*
X232500Y512600D01*
X329500Y512600D02*
X384500Y512600D01*
X429500Y512600D02*
X464500Y512600D01*
X597500Y512600D02*
X638500Y512600D01*
X742500Y512600D02*
X953500Y512600D01*
X30500Y511600D02*
X145500Y511600D01*
X190500Y511600D02*
X234500Y511600D01*
X328500Y511600D02*
X384500Y511600D01*
X429500Y511600D02*
X464500Y511600D01*
X597500Y511600D02*
X639500Y511600D01*
X741500Y511600D02*
X953500Y511600D01*
X30500Y510600D02*
X145500Y510600D01*
X190500Y510600D02*
X235500Y510600D01*
X327500Y510600D02*
X384500Y510600D01*
X429500Y510600D02*
X464500Y510600D01*
X597500Y510600D02*
X640500Y510600D01*
X739500Y510600D02*
X953500Y510600D01*
X30500Y509600D02*
X145500Y509600D01*
X190500Y509600D02*
X236500Y509600D01*
X325500Y509600D02*
X384500Y509600D01*
X429500Y509600D02*
X464500Y509600D01*
X597500Y509600D02*
X642500Y509600D01*
X738500Y509600D02*
X953500Y509600D01*
X30500Y508600D02*
X145500Y508600D01*
X190500Y508600D02*
X238500Y508600D01*
X324500Y508600D02*
X384500Y508600D01*
X429500Y508600D02*
X464500Y508600D01*
X597500Y508600D02*
X643500Y508600D01*
X737500Y508600D02*
X953500Y508600D01*
X30500Y507600D02*
X145500Y507600D01*
X190500Y507600D02*
X240500Y507600D01*
X322500Y507600D02*
X384500Y507600D01*
X429500Y507600D02*
X464500Y507600D01*
X597500Y507600D02*
X644500Y507600D01*
X735500Y507600D02*
X953500Y507600D01*
X30500Y506600D02*
X145500Y506600D01*
X190500Y506600D02*
X241500Y506600D01*
X320500Y506600D02*
X384500Y506600D01*
X429500Y506600D02*
X464500Y506600D01*
X597500Y506600D02*
X646500Y506600D01*
X734500Y506600D02*
X953500Y506600D01*
X30500Y505600D02*
X145500Y505600D01*
X190500Y505600D02*
X243500Y505600D01*
X318500Y505600D02*
X384500Y505600D01*
X429500Y505600D02*
X464500Y505600D01*
X597500Y505600D02*
X648500Y505600D01*
X732500Y505600D02*
X953500Y505600D01*
X30500Y504600D02*
X145500Y504600D01*
X190500Y504600D02*
X245500Y504600D01*
X316500Y504600D02*
X384500Y504600D01*
X429500Y504600D02*
X464500Y504600D01*
X597500Y504600D02*
X649500Y504600D01*
X730500Y504600D02*
X953500Y504600D01*
X30500Y503600D02*
X145500Y503600D01*
X190500Y503600D02*
X247500Y503600D01*
X314500Y503600D02*
X384500Y503600D01*
X429500Y503600D02*
X464500Y503600D01*
X597500Y503600D02*
X651500Y503600D01*
X729500Y503600D02*
X953500Y503600D01*
X30500Y502600D02*
X145500Y502600D01*
X190500Y502600D02*
X249500Y502600D01*
X312500Y502600D02*
X384500Y502600D01*
X429500Y502600D02*
X464500Y502600D01*
X597500Y502600D02*
X653500Y502600D01*
X727500Y502600D02*
X953500Y502600D01*
X30500Y501600D02*
X145500Y501600D01*
X190500Y501600D02*
X252500Y501600D01*
X310500Y501600D02*
X384500Y501600D01*
X429500Y501600D02*
X464500Y501600D01*
X597500Y501600D02*
X655500Y501600D01*
X725500Y501600D02*
X953500Y501600D01*
X30500Y500600D02*
X145500Y500600D01*
X190500Y500600D02*
X255500Y500600D01*
X307500Y500600D02*
X384500Y500600D01*
X429500Y500600D02*
X464500Y500600D01*
X597500Y500600D02*
X657500Y500600D01*
X723500Y500600D02*
X953500Y500600D01*
X30500Y499600D02*
X145500Y499600D01*
X190500Y499600D02*
X258500Y499600D01*
X304500Y499600D02*
X384500Y499600D01*
X429500Y499600D02*
X464500Y499600D01*
X597500Y499600D02*
X659500Y499600D01*
X720500Y499600D02*
X953500Y499600D01*
X30500Y498600D02*
X145500Y498600D01*
X190500Y498600D02*
X261500Y498600D01*
X300500Y498600D02*
X384500Y498600D01*
X429500Y498600D02*
X464500Y498600D01*
X597500Y498600D02*
X662500Y498600D01*
X718500Y498600D02*
X953500Y498600D01*
X30500Y497600D02*
X145500Y497600D01*
X190500Y497600D02*
X266500Y497600D01*
X296500Y497600D02*
X384500Y497600D01*
X429500Y497600D02*
X464500Y497600D01*
X597500Y497600D02*
X664500Y497600D01*
X715500Y497600D02*
X953500Y497600D01*
X30500Y496600D02*
X145500Y496600D01*
X190500Y496600D02*
X272500Y496600D01*
X290500Y496600D02*
X384500Y496600D01*
X429500Y496600D02*
X464500Y496600D01*
X597500Y496600D02*
X668500Y496600D01*
X712500Y496600D02*
X953500Y496600D01*
X30500Y495600D02*
X145500Y495600D01*
X190500Y495600D02*
X384500Y495600D01*
X429500Y495600D02*
X464500Y495600D01*
X597500Y495600D02*
X671500Y495600D01*
X708500Y495600D02*
X953500Y495600D01*
X30500Y494600D02*
X145500Y494600D01*
X190500Y494600D02*
X384500Y494600D01*
X429500Y494600D02*
X464500Y494600D01*
X597500Y494600D02*
X677500Y494600D01*
X703500Y494600D02*
X953500Y494600D01*
X30500Y493600D02*
X145500Y493600D01*
X190500Y493600D02*
X384500Y493600D01*
X429500Y493600D02*
X464500Y493600D01*
X597500Y493600D02*
X685500Y493600D01*
X695500Y493600D02*
X953500Y493600D01*
X30500Y492600D02*
X145500Y492600D01*
X190500Y492600D02*
X384500Y492600D01*
X429500Y492600D02*
X464500Y492600D01*
X597500Y492600D02*
X953500Y492600D01*
X30500Y491600D02*
X145500Y491600D01*
X190500Y491600D02*
X384500Y491600D01*
X429500Y491600D02*
X464500Y491600D01*
X597500Y491600D02*
X953500Y491600D01*
X30500Y490600D02*
X145500Y490600D01*
X190500Y490600D02*
X384500Y490600D01*
X429500Y490600D02*
X464500Y490600D01*
X597500Y490600D02*
X953500Y490600D01*
X30500Y489600D02*
X145500Y489600D01*
X190500Y489600D02*
X384500Y489600D01*
X429500Y489600D02*
X464500Y489600D01*
X597500Y489600D02*
X953500Y489600D01*
X30500Y488600D02*
X145500Y488600D01*
X190500Y488600D02*
X384500Y488600D01*
X429500Y488600D02*
X464500Y488600D01*
X597500Y488600D02*
X953500Y488600D01*
X30500Y487600D02*
X145500Y487600D01*
X190500Y487600D02*
X384500Y487600D01*
X429500Y487600D02*
X464500Y487600D01*
X597500Y487600D02*
X953500Y487600D01*
X30500Y486600D02*
X145500Y486600D01*
X190500Y486600D02*
X384500Y486600D01*
X428500Y486600D02*
X464500Y486600D01*
X597500Y486600D02*
X953500Y486600D01*
X30500Y485600D02*
X145500Y485600D01*
X190500Y485600D02*
X384500Y485600D01*
X428500Y485600D02*
X464500Y485600D01*
X597500Y485600D02*
X953500Y485600D01*
X30500Y484600D02*
X145500Y484600D01*
X190500Y484600D02*
X384500Y484600D01*
X428500Y484600D02*
X464500Y484600D01*
X597500Y484600D02*
X953500Y484600D01*
X30500Y483600D02*
X145500Y483600D01*
X190500Y483600D02*
X384500Y483600D01*
X428500Y483600D02*
X464500Y483600D01*
X597500Y483600D02*
X953500Y483600D01*
X30500Y482600D02*
X145500Y482600D01*
X190500Y482600D02*
X384500Y482600D01*
X428500Y482600D02*
X464500Y482600D01*
X597500Y482600D02*
X953500Y482600D01*
X30500Y481600D02*
X145500Y481600D01*
X190500Y481600D02*
X384500Y481600D01*
X428500Y481600D02*
X464500Y481600D01*
X597500Y481600D02*
X953500Y481600D01*
X30500Y480600D02*
X145500Y480600D01*
X190500Y480600D02*
X384500Y480600D01*
X428500Y480600D02*
X464500Y480600D01*
X597500Y480600D02*
X953500Y480600D01*
X30500Y479600D02*
X145500Y479600D01*
X190500Y479600D02*
X384500Y479600D01*
X428500Y479600D02*
X464500Y479600D01*
X597500Y479600D02*
X953500Y479600D01*
X30500Y478600D02*
X145500Y478600D01*
X190500Y478600D02*
X384500Y478600D01*
X428500Y478600D02*
X464500Y478600D01*
X597500Y478600D02*
X953500Y478600D01*
X30500Y477600D02*
X145500Y477600D01*
X190500Y477600D02*
X384500Y477600D01*
X428500Y477600D02*
X464500Y477600D01*
X597500Y477600D02*
X953500Y477600D01*
X30500Y476600D02*
X145500Y476600D01*
X190500Y476600D02*
X384500Y476600D01*
X428500Y476600D02*
X464500Y476600D01*
X597500Y476600D02*
X953500Y476600D01*
X30500Y475600D02*
X145500Y475600D01*
X190500Y475600D02*
X384500Y475600D01*
X428500Y475600D02*
X464500Y475600D01*
X597500Y475600D02*
X953500Y475600D01*
X30500Y474600D02*
X145500Y474600D01*
X190500Y474600D02*
X384500Y474600D01*
X428500Y474600D02*
X464500Y474600D01*
X597500Y474600D02*
X953500Y474600D01*
X30500Y473600D02*
X145500Y473600D01*
X190500Y473600D02*
X384500Y473600D01*
X428500Y473600D02*
X464500Y473600D01*
X597500Y473600D02*
X953500Y473600D01*
X30500Y472600D02*
X145500Y472600D01*
X190500Y472600D02*
X384500Y472600D01*
X428500Y472600D02*
X464500Y472600D01*
X597500Y472600D02*
X953500Y472600D01*
X30500Y471600D02*
X145500Y471600D01*
X190500Y471600D02*
X384500Y471600D01*
X428500Y471600D02*
X464500Y471600D01*
X597500Y471600D02*
X953500Y471600D01*
X30500Y470600D02*
X145500Y470600D01*
X190500Y470600D02*
X384500Y470600D01*
X428500Y470600D02*
X464500Y470600D01*
X597500Y470600D02*
X953500Y470600D01*
X30500Y469600D02*
X145500Y469600D01*
X190500Y469600D02*
X383500Y469600D01*
X428500Y469600D02*
X464500Y469600D01*
X597500Y469600D02*
X953500Y469600D01*
X30500Y468600D02*
X145500Y468600D01*
X190500Y468600D02*
X383500Y468600D01*
X428500Y468600D02*
X464500Y468600D01*
X597500Y468600D02*
X953500Y468600D01*
X30500Y467600D02*
X145500Y467600D01*
X190500Y467600D02*
X383500Y467600D01*
X428500Y467600D02*
X464500Y467600D01*
X597500Y467600D02*
X953500Y467600D01*
X30500Y466600D02*
X145500Y466600D01*
X190500Y466600D02*
X383500Y466600D01*
X428500Y466600D02*
X464500Y466600D01*
X597500Y466600D02*
X953500Y466600D01*
X30500Y465600D02*
X145500Y465600D01*
X190500Y465600D02*
X383500Y465600D01*
X428500Y465600D02*
X464500Y465600D01*
X597500Y465600D02*
X953500Y465600D01*
X30500Y464600D02*
X145500Y464600D01*
X190500Y464600D02*
X383500Y464600D01*
X428500Y464600D02*
X464500Y464600D01*
X597500Y464600D02*
X953500Y464600D01*
X30500Y463600D02*
X145500Y463600D01*
X190500Y463600D02*
X383500Y463600D01*
X428500Y463600D02*
X464500Y463600D01*
X597500Y463600D02*
X953500Y463600D01*
X30500Y462600D02*
X145500Y462600D01*
X190500Y462600D02*
X383500Y462600D01*
X428500Y462600D02*
X464500Y462600D01*
X597500Y462600D02*
X953500Y462600D01*
X30500Y461600D02*
X145500Y461600D01*
X190500Y461600D02*
X383500Y461600D01*
X428500Y461600D02*
X464500Y461600D01*
X597500Y461600D02*
X953500Y461600D01*
X30500Y460600D02*
X145500Y460600D01*
X190500Y460600D02*
X383500Y460600D01*
X428500Y460600D02*
X464500Y460600D01*
X597500Y460600D02*
X953500Y460600D01*
X30500Y459600D02*
X145500Y459600D01*
X190500Y459600D02*
X383500Y459600D01*
X428500Y459600D02*
X464500Y459600D01*
X597500Y459600D02*
X953500Y459600D01*
X30500Y458600D02*
X145500Y458600D01*
X190500Y458600D02*
X383500Y458600D01*
X428500Y458600D02*
X464500Y458600D01*
X597500Y458600D02*
X953500Y458600D01*
X30500Y457600D02*
X145500Y457600D01*
X190500Y457600D02*
X383500Y457600D01*
X428500Y457600D02*
X464500Y457600D01*
X597500Y457600D02*
X953500Y457600D01*
X30500Y456600D02*
X145500Y456600D01*
X190500Y456600D02*
X383500Y456600D01*
X428500Y456600D02*
X464500Y456600D01*
X597500Y456600D02*
X953500Y456600D01*
X30500Y455600D02*
X145500Y455600D01*
X190500Y455600D02*
X383500Y455600D01*
X428500Y455600D02*
X464500Y455600D01*
X597500Y455600D02*
X953500Y455600D01*
X30500Y454600D02*
X145500Y454600D01*
X190500Y454600D02*
X383500Y454600D01*
X428500Y454600D02*
X464500Y454600D01*
X597500Y454600D02*
X953500Y454600D01*
X30500Y453600D02*
X145500Y453600D01*
X190500Y453600D02*
X383500Y453600D01*
X428500Y453600D02*
X464500Y453600D01*
X597500Y453600D02*
X953500Y453600D01*
X30500Y452600D02*
X145500Y452600D01*
X190500Y452600D02*
X383500Y452600D01*
X428500Y452600D02*
X464500Y452600D01*
X597500Y452600D02*
X953500Y452600D01*
X30500Y451600D02*
X145500Y451600D01*
X190500Y451600D02*
X383500Y451600D01*
X428500Y451600D02*
X464500Y451600D01*
X597500Y451600D02*
X953500Y451600D01*
X30500Y450600D02*
X145500Y450600D01*
X190500Y450600D02*
X383500Y450600D01*
X428500Y450600D02*
X464500Y450600D01*
X597500Y450600D02*
X953500Y450600D01*
X30500Y449600D02*
X145500Y449600D01*
X190500Y449600D02*
X383500Y449600D01*
X428500Y449600D02*
X464500Y449600D01*
X597500Y449600D02*
X953500Y449600D01*
X30500Y448600D02*
X145500Y448600D01*
X190500Y448600D02*
X383500Y448600D01*
X428500Y448600D02*
X464500Y448600D01*
X597500Y448600D02*
X953500Y448600D01*
X30500Y447600D02*
X145500Y447600D01*
X190500Y447600D02*
X383500Y447600D01*
X428500Y447600D02*
X464500Y447600D01*
X597500Y447600D02*
X953500Y447600D01*
X30500Y446600D02*
X145500Y446600D01*
X190500Y446600D02*
X383500Y446600D01*
X428500Y446600D02*
X464500Y446600D01*
X597500Y446600D02*
X953500Y446600D01*
X30500Y445600D02*
X145500Y445600D01*
X190500Y445600D02*
X383500Y445600D01*
X428500Y445600D02*
X464500Y445600D01*
X597500Y445600D02*
X953500Y445600D01*
X30500Y444600D02*
X145500Y444600D01*
X190500Y444600D02*
X383500Y444600D01*
X428500Y444600D02*
X464500Y444600D01*
X597500Y444600D02*
X953500Y444600D01*
X30500Y443600D02*
X145500Y443600D01*
X190500Y443600D02*
X383500Y443600D01*
X428500Y443600D02*
X464500Y443600D01*
X597500Y443600D02*
X953500Y443600D01*
X30500Y442600D02*
X145500Y442600D01*
X190500Y442600D02*
X383500Y442600D01*
X428500Y442600D02*
X464500Y442600D01*
X597500Y442600D02*
X953500Y442600D01*
X30500Y441600D02*
X145500Y441600D01*
X190500Y441600D02*
X383500Y441600D01*
X428500Y441600D02*
X464500Y441600D01*
X597500Y441600D02*
X953500Y441600D01*
X30500Y440600D02*
X145500Y440600D01*
X190500Y440600D02*
X383500Y440600D01*
X428500Y440600D02*
X464500Y440600D01*
X597500Y440600D02*
X953500Y440600D01*
X30500Y439600D02*
X145500Y439600D01*
X190500Y439600D02*
X383500Y439600D01*
X428500Y439600D02*
X464500Y439600D01*
X597500Y439600D02*
X953500Y439600D01*
X30500Y438600D02*
X145500Y438600D01*
X190500Y438600D02*
X383500Y438600D01*
X428500Y438600D02*
X464500Y438600D01*
X597500Y438600D02*
X953500Y438600D01*
X30500Y437600D02*
X145500Y437600D01*
X190500Y437600D02*
X383500Y437600D01*
X428500Y437600D02*
X464500Y437600D01*
X597500Y437600D02*
X953500Y437600D01*
X30500Y436600D02*
X145500Y436600D01*
X190500Y436600D02*
X383500Y436600D01*
X428500Y436600D02*
X464500Y436600D01*
X597500Y436600D02*
X953500Y436600D01*
X30500Y435600D02*
X145500Y435600D01*
X190500Y435600D02*
X383500Y435600D01*
X428500Y435600D02*
X464500Y435600D01*
X597500Y435600D02*
X953500Y435600D01*
X30500Y434600D02*
X145500Y434600D01*
X190500Y434600D02*
X383500Y434600D01*
X428500Y434600D02*
X464500Y434600D01*
X597500Y434600D02*
X953500Y434600D01*
X30500Y433600D02*
X145500Y433600D01*
X190500Y433600D02*
X383500Y433600D01*
X428500Y433600D02*
X464500Y433600D01*
X597500Y433600D02*
X953500Y433600D01*
X30500Y432600D02*
X145500Y432600D01*
X190500Y432600D02*
X383500Y432600D01*
X428500Y432600D02*
X464500Y432600D01*
X597500Y432600D02*
X953500Y432600D01*
X30500Y431600D02*
X145500Y431600D01*
X190500Y431600D02*
X383500Y431600D01*
X428500Y431600D02*
X464500Y431600D01*
X597500Y431600D02*
X953500Y431600D01*
X30500Y430600D02*
X145500Y430600D01*
X190500Y430600D02*
X383500Y430600D01*
X428500Y430600D02*
X464500Y430600D01*
X597500Y430600D02*
X953500Y430600D01*
X30500Y429600D02*
X145500Y429600D01*
X190500Y429600D02*
X383500Y429600D01*
X428500Y429600D02*
X464500Y429600D01*
X597500Y429600D02*
X953500Y429600D01*
X30500Y428600D02*
X145500Y428600D01*
X190500Y428600D02*
X383500Y428600D01*
X428500Y428600D02*
X464500Y428600D01*
X597500Y428600D02*
X953500Y428600D01*
X30500Y427600D02*
X145500Y427600D01*
X191500Y427600D02*
X383500Y427600D01*
X428500Y427600D02*
X464500Y427600D01*
X597500Y427600D02*
X953500Y427600D01*
X30500Y426600D02*
X145500Y426600D01*
X192500Y426600D02*
X383500Y426600D01*
X428500Y426600D02*
X464500Y426600D01*
X597500Y426600D02*
X953500Y426600D01*
X30500Y425600D02*
X145500Y425600D01*
X194500Y425600D02*
X383500Y425600D01*
X428500Y425600D02*
X464500Y425600D01*
X597500Y425600D02*
X953500Y425600D01*
X30500Y424600D02*
X145500Y424600D01*
X195500Y424600D02*
X383500Y424600D01*
X428500Y424600D02*
X464500Y424600D01*
X597500Y424600D02*
X953500Y424600D01*
X30500Y423600D02*
X145500Y423600D01*
X197500Y423600D02*
X383500Y423600D01*
X428500Y423600D02*
X464500Y423600D01*
X597500Y423600D02*
X953500Y423600D01*
X30500Y422600D02*
X145500Y422600D01*
X198500Y422600D02*
X383500Y422600D01*
X428500Y422600D02*
X464500Y422600D01*
X597500Y422600D02*
X953500Y422600D01*
X30500Y421600D02*
X145500Y421600D01*
X200500Y421600D02*
X383500Y421600D01*
X428500Y421600D02*
X464500Y421600D01*
X597500Y421600D02*
X953500Y421600D01*
X30500Y420600D02*
X145500Y420600D01*
X201500Y420600D02*
X383500Y420600D01*
X428500Y420600D02*
X464500Y420600D01*
X597500Y420600D02*
X953500Y420600D01*
X30500Y419600D02*
X145500Y419600D01*
X203500Y419600D02*
X383500Y419600D01*
X428500Y419600D02*
X464500Y419600D01*
X597500Y419600D02*
X953500Y419600D01*
X30500Y418600D02*
X145500Y418600D01*
X204500Y418600D02*
X383500Y418600D01*
X428500Y418600D02*
X464500Y418600D01*
X597500Y418600D02*
X953500Y418600D01*
X30500Y417600D02*
X145500Y417600D01*
X206500Y417600D02*
X383500Y417600D01*
X428500Y417600D02*
X464500Y417600D01*
X597500Y417600D02*
X953500Y417600D01*
X30500Y416600D02*
X145500Y416600D01*
X207500Y416600D02*
X383500Y416600D01*
X428500Y416600D02*
X464500Y416600D01*
X597500Y416600D02*
X953500Y416600D01*
X30500Y415600D02*
X145500Y415600D01*
X209500Y415600D02*
X383500Y415600D01*
X428500Y415600D02*
X464500Y415600D01*
X597500Y415600D02*
X953500Y415600D01*
X30500Y414600D02*
X145500Y414600D01*
X210500Y414600D02*
X383500Y414600D01*
X428500Y414600D02*
X464500Y414600D01*
X597500Y414600D02*
X953500Y414600D01*
X30500Y413600D02*
X145500Y413600D01*
X212500Y413600D02*
X383500Y413600D01*
X428500Y413600D02*
X464500Y413600D01*
X597500Y413600D02*
X953500Y413600D01*
X30500Y412600D02*
X145500Y412600D01*
X213500Y412600D02*
X383500Y412600D01*
X428500Y412600D02*
X464500Y412600D01*
X597500Y412600D02*
X953500Y412600D01*
X30500Y411600D02*
X146500Y411600D01*
X215500Y411600D02*
X383500Y411600D01*
X428500Y411600D02*
X464500Y411600D01*
X597500Y411600D02*
X953500Y411600D01*
X30500Y410600D02*
X146500Y410600D01*
X216500Y410600D02*
X383500Y410600D01*
X428500Y410600D02*
X464500Y410600D01*
X597500Y410600D02*
X953500Y410600D01*
X30500Y409600D02*
X146500Y409600D01*
X218500Y409600D02*
X383500Y409600D01*
X428500Y409600D02*
X464500Y409600D01*
X597500Y409600D02*
X953500Y409600D01*
X30500Y408600D02*
X146500Y408600D01*
X220500Y408600D02*
X383500Y408600D01*
X428500Y408600D02*
X464500Y408600D01*
X597500Y408600D02*
X953500Y408600D01*
X30500Y407600D02*
X147500Y407600D01*
X221500Y407600D02*
X383500Y407600D01*
X428500Y407600D02*
X464500Y407600D01*
X597500Y407600D02*
X953500Y407600D01*
X30500Y406600D02*
X147500Y406600D01*
X223500Y406600D02*
X383500Y406600D01*
X428500Y406600D02*
X464500Y406600D01*
X597500Y406600D02*
X953500Y406600D01*
X30500Y405600D02*
X148500Y405600D01*
X224500Y405600D02*
X383500Y405600D01*
X428500Y405600D02*
X464500Y405600D01*
X597500Y405600D02*
X953500Y405600D01*
X30500Y404600D02*
X148500Y404600D01*
X226500Y404600D02*
X383500Y404600D01*
X428500Y404600D02*
X464500Y404600D01*
X597500Y404600D02*
X953500Y404600D01*
X30500Y403600D02*
X149500Y403600D01*
X227500Y403600D02*
X383500Y403600D01*
X428500Y403600D02*
X464500Y403600D01*
X597500Y403600D02*
X953500Y403600D01*
X30500Y402600D02*
X150500Y402600D01*
X229500Y402600D02*
X383500Y402600D01*
X428500Y402600D02*
X464500Y402600D01*
X597500Y402600D02*
X953500Y402600D01*
X30500Y401600D02*
X151500Y401600D01*
X230500Y401600D02*
X383500Y401600D01*
X428500Y401600D02*
X464500Y401600D01*
X597500Y401600D02*
X953500Y401600D01*
X30500Y400600D02*
X152500Y400600D01*
X232500Y400600D02*
X383500Y400600D01*
X428500Y400600D02*
X464500Y400600D01*
X597500Y400600D02*
X953500Y400600D01*
X30500Y399600D02*
X153500Y399600D01*
X233500Y399600D02*
X383500Y399600D01*
X428500Y399600D02*
X464500Y399600D01*
X597500Y399600D02*
X953500Y399600D01*
X30500Y398600D02*
X154500Y398600D01*
X235500Y398600D02*
X383500Y398600D01*
X428500Y398600D02*
X464500Y398600D01*
X597500Y398600D02*
X953500Y398600D01*
X30500Y397600D02*
X155500Y397600D01*
X236500Y397600D02*
X383500Y397600D01*
X428500Y397600D02*
X464500Y397600D01*
X597500Y397600D02*
X953500Y397600D01*
X30500Y396600D02*
X157500Y396600D01*
X238500Y396600D02*
X383500Y396600D01*
X428500Y396600D02*
X464500Y396600D01*
X597500Y396600D02*
X953500Y396600D01*
X30500Y395600D02*
X158500Y395600D01*
X239500Y395600D02*
X383500Y395600D01*
X428500Y395600D02*
X464500Y395600D01*
X597500Y395600D02*
X953500Y395600D01*
X30500Y394600D02*
X160500Y394600D01*
X241500Y394600D02*
X383500Y394600D01*
X428500Y394600D02*
X464500Y394600D01*
X597500Y394600D02*
X953500Y394600D01*
X30500Y393600D02*
X161500Y393600D01*
X242500Y393600D02*
X383500Y393600D01*
X428500Y393600D02*
X464500Y393600D01*
X597500Y393600D02*
X953500Y393600D01*
X30500Y392600D02*
X163500Y392600D01*
X244500Y392600D02*
X383500Y392600D01*
X428500Y392600D02*
X464500Y392600D01*
X597500Y392600D02*
X953500Y392600D01*
X30500Y391600D02*
X164500Y391600D01*
X245500Y391600D02*
X383500Y391600D01*
X428500Y391600D02*
X464500Y391600D01*
X597500Y391600D02*
X953500Y391600D01*
X30500Y390600D02*
X166500Y390600D01*
X247500Y390600D02*
X383500Y390600D01*
X428500Y390600D02*
X464500Y390600D01*
X597500Y390600D02*
X953500Y390600D01*
X30500Y389600D02*
X167500Y389600D01*
X248500Y389600D02*
X383500Y389600D01*
X428500Y389600D02*
X464500Y389600D01*
X597500Y389600D02*
X953500Y389600D01*
X30500Y388600D02*
X169500Y388600D01*
X250500Y388600D02*
X383500Y388600D01*
X428500Y388600D02*
X464500Y388600D01*
X597500Y388600D02*
X953500Y388600D01*
X30500Y387600D02*
X170500Y387600D01*
X251500Y387600D02*
X383500Y387600D01*
X428500Y387600D02*
X464500Y387600D01*
X597500Y387600D02*
X953500Y387600D01*
X30500Y386600D02*
X172500Y386600D01*
X253500Y386600D02*
X383500Y386600D01*
X428500Y386600D02*
X464500Y386600D01*
X597500Y386600D02*
X953500Y386600D01*
X30500Y385600D02*
X173500Y385600D01*
X254500Y385600D02*
X383500Y385600D01*
X428500Y385600D02*
X464500Y385600D01*
X597500Y385600D02*
X953500Y385600D01*
X30500Y384600D02*
X175500Y384600D01*
X256500Y384600D02*
X383500Y384600D01*
X428500Y384600D02*
X464500Y384600D01*
X597500Y384600D02*
X953500Y384600D01*
X30500Y383600D02*
X176500Y383600D01*
X258500Y383600D02*
X383500Y383600D01*
X428500Y383600D02*
X464500Y383600D01*
X597500Y383600D02*
X953500Y383600D01*
X30500Y382600D02*
X178500Y382600D01*
X259500Y382600D02*
X383500Y382600D01*
X428500Y382600D02*
X464500Y382600D01*
X597500Y382600D02*
X953500Y382600D01*
X30500Y381600D02*
X179500Y381600D01*
X261500Y381600D02*
X383500Y381600D01*
X428500Y381600D02*
X464500Y381600D01*
X597500Y381600D02*
X953500Y381600D01*
X30500Y380600D02*
X181500Y380600D01*
X262500Y380600D02*
X383500Y380600D01*
X428500Y380600D02*
X464500Y380600D01*
X597500Y380600D02*
X953500Y380600D01*
X30500Y379600D02*
X182500Y379600D01*
X264500Y379600D02*
X383500Y379600D01*
X428500Y379600D02*
X464500Y379600D01*
X597500Y379600D02*
X953500Y379600D01*
X30500Y378600D02*
X184500Y378600D01*
X265500Y378600D02*
X383500Y378600D01*
X428500Y378600D02*
X464500Y378600D01*
X597500Y378600D02*
X953500Y378600D01*
X30500Y377600D02*
X185500Y377600D01*
X267500Y377600D02*
X383500Y377600D01*
X428500Y377600D02*
X464500Y377600D01*
X598500Y377600D02*
X953500Y377600D01*
X30500Y376600D02*
X187500Y376600D01*
X349500Y376600D02*
X383500Y376600D01*
X428500Y376600D02*
X464500Y376600D01*
X620500Y376600D02*
X667500Y376600D01*
X681500Y376600D02*
X953500Y376600D01*
X30500Y375600D02*
X189500Y375600D01*
X353500Y375600D02*
X383500Y375600D01*
X428500Y375600D02*
X464500Y375600D01*
X622500Y375600D02*
X662500Y375600D01*
X687500Y375600D02*
X953500Y375600D01*
X30500Y374600D02*
X190500Y374600D01*
X354500Y374600D02*
X383500Y374600D01*
X428500Y374600D02*
X464500Y374600D01*
X623500Y374600D02*
X659500Y374600D01*
X690500Y374600D02*
X953500Y374600D01*
X30500Y373600D02*
X192500Y373600D01*
X355500Y373600D02*
X383500Y373600D01*
X428500Y373600D02*
X464500Y373600D01*
X624500Y373600D02*
X656500Y373600D01*
X693500Y373600D02*
X953500Y373600D01*
X30500Y372600D02*
X193500Y372600D01*
X356500Y372600D02*
X383500Y372600D01*
X428500Y372600D02*
X464500Y372600D01*
X625500Y372600D02*
X653500Y372600D01*
X696500Y372600D02*
X953500Y372600D01*
X30500Y371600D02*
X195500Y371600D01*
X357500Y371600D02*
X383500Y371600D01*
X429500Y371600D02*
X464500Y371600D01*
X626500Y371600D02*
X651500Y371600D01*
X697500Y371600D02*
X953500Y371600D01*
X30500Y370600D02*
X196500Y370600D01*
X357500Y370600D02*
X382500Y370600D01*
X430500Y370600D02*
X464500Y370600D01*
X626500Y370600D02*
X650500Y370600D01*
X699500Y370600D02*
X953500Y370600D01*
X30500Y369600D02*
X198500Y369600D01*
X358500Y369600D02*
X380500Y369600D01*
X432500Y369600D02*
X464500Y369600D01*
X626500Y369600D02*
X648500Y369600D01*
X701500Y369600D02*
X953500Y369600D01*
X30500Y368600D02*
X199500Y368600D01*
X358500Y368600D02*
X378500Y368600D01*
X434500Y368600D02*
X464500Y368600D01*
X626500Y368600D02*
X646500Y368600D01*
X703500Y368600D02*
X953500Y368600D01*
X30500Y367600D02*
X201500Y367600D01*
X358500Y367600D02*
X376500Y367600D01*
X435500Y367600D02*
X464500Y367600D01*
X627500Y367600D02*
X644500Y367600D01*
X705500Y367600D02*
X953500Y367600D01*
X30500Y366600D02*
X202500Y366600D01*
X358500Y366600D02*
X375500Y366600D01*
X437500Y366600D02*
X464500Y366600D01*
X627500Y366600D02*
X643500Y366600D01*
X706500Y366600D02*
X953500Y366600D01*
X30500Y365600D02*
X204500Y365600D01*
X358500Y365600D02*
X374500Y365600D01*
X438500Y365600D02*
X464500Y365600D01*
X627500Y365600D02*
X642500Y365600D01*
X707500Y365600D02*
X953500Y365600D01*
X30500Y364600D02*
X205500Y364600D01*
X358500Y364600D02*
X372500Y364600D01*
X439500Y364600D02*
X464500Y364600D01*
X627500Y364600D02*
X641500Y364600D01*
X708500Y364600D02*
X953500Y364600D01*
X30500Y363600D02*
X207500Y363600D01*
X358500Y363600D02*
X371500Y363600D01*
X440500Y363600D02*
X464500Y363600D01*
X627500Y363600D02*
X639500Y363600D01*
X710500Y363600D02*
X953500Y363600D01*
X30500Y362600D02*
X208500Y362600D01*
X358500Y362600D02*
X370500Y362600D01*
X442500Y362600D02*
X464500Y362600D01*
X627500Y362600D02*
X638500Y362600D01*
X711500Y362600D02*
X953500Y362600D01*
X30500Y361600D02*
X210500Y361600D01*
X358500Y361600D02*
X369500Y361600D01*
X443500Y361600D02*
X464500Y361600D01*
X627500Y361600D02*
X637500Y361600D01*
X712500Y361600D02*
X953500Y361600D01*
X30500Y360600D02*
X211500Y360600D01*
X358500Y360600D02*
X368500Y360600D01*
X444500Y360600D02*
X464500Y360600D01*
X627500Y360600D02*
X636500Y360600D01*
X713500Y360600D02*
X953500Y360600D01*
X30500Y359600D02*
X213500Y359600D01*
X358500Y359600D02*
X367500Y359600D01*
X444500Y359600D02*
X464500Y359600D01*
X627500Y359600D02*
X635500Y359600D01*
X713500Y359600D02*
X953500Y359600D01*
X30500Y358600D02*
X214500Y358600D01*
X358500Y358600D02*
X366500Y358600D01*
X445500Y358600D02*
X464500Y358600D01*
X627500Y358600D02*
X635500Y358600D01*
X714500Y358600D02*
X953500Y358600D01*
X30500Y357600D02*
X216500Y357600D01*
X358500Y357600D02*
X365500Y357600D01*
X446500Y357600D02*
X464500Y357600D01*
X627500Y357600D02*
X634500Y357600D01*
X715500Y357600D02*
X953500Y357600D01*
X30500Y356600D02*
X217500Y356600D01*
X358500Y356600D02*
X365500Y356600D01*
X447500Y356600D02*
X464500Y356600D01*
X627500Y356600D02*
X633500Y356600D01*
X716500Y356600D02*
X953500Y356600D01*
X30500Y355600D02*
X219500Y355600D01*
X358500Y355600D02*
X364500Y355600D01*
X448500Y355600D02*
X464500Y355600D01*
X627500Y355600D02*
X632500Y355600D01*
X717500Y355600D02*
X953500Y355600D01*
X30500Y354600D02*
X220500Y354600D01*
X358500Y354600D02*
X363500Y354600D01*
X449500Y354600D02*
X464500Y354600D01*
X627500Y354600D02*
X631500Y354600D01*
X717500Y354600D02*
X953500Y354600D01*
X30500Y353600D02*
X222500Y353600D01*
X358500Y353600D02*
X362500Y353600D01*
X449500Y353600D02*
X464500Y353600D01*
X627500Y353600D02*
X631500Y353600D01*
X718500Y353600D02*
X953500Y353600D01*
X30500Y352600D02*
X223500Y352600D01*
X358500Y352600D02*
X362500Y352600D01*
X450500Y352600D02*
X464500Y352600D01*
X627500Y352600D02*
X630500Y352600D01*
X719500Y352600D02*
X953500Y352600D01*
X30500Y351600D02*
X225500Y351600D01*
X359500Y351600D02*
X361500Y351600D01*
X450500Y351600D02*
X464500Y351600D01*
X628500Y351600D02*
X629500Y351600D01*
X719500Y351600D02*
X953500Y351600D01*
X30500Y350600D02*
X226500Y350600D01*
X451500Y350600D02*
X464500Y350600D01*
X720500Y350600D02*
X953500Y350600D01*
X30500Y349600D02*
X228500Y349600D01*
X451500Y349600D02*
X464500Y349600D01*
X720500Y349600D02*
X953500Y349600D01*
X30500Y348600D02*
X230500Y348600D01*
X452500Y348600D02*
X464500Y348600D01*
X721500Y348600D02*
X953500Y348600D01*
X30500Y347600D02*
X231500Y347600D01*
X452500Y347600D02*
X464500Y347600D01*
X721500Y347600D02*
X953500Y347600D01*
X30500Y346600D02*
X233500Y346600D01*
X453500Y346600D02*
X464500Y346600D01*
X722500Y346600D02*
X953500Y346600D01*
X30500Y345600D02*
X234500Y345600D01*
X453500Y345600D02*
X464500Y345600D01*
X722500Y345600D02*
X953500Y345600D01*
X30500Y344600D02*
X236500Y344600D01*
X454500Y344600D02*
X464500Y344600D01*
X723500Y344600D02*
X953500Y344600D01*
X30500Y343600D02*
X237500Y343600D01*
X454500Y343600D02*
X464500Y343600D01*
X723500Y343600D02*
X953500Y343600D01*
X30500Y342600D02*
X239500Y342600D01*
X455500Y342600D02*
X464500Y342600D01*
X723500Y342600D02*
X953500Y342600D01*
X30500Y341600D02*
X240500Y341600D01*
X455500Y341600D02*
X464500Y341600D01*
X724500Y341600D02*
X953500Y341600D01*
X30500Y340600D02*
X242500Y340600D01*
X455500Y340600D02*
X464500Y340600D01*
X724500Y340600D02*
X953500Y340600D01*
X30500Y339600D02*
X243500Y339600D01*
X455500Y339600D02*
X464500Y339600D01*
X724500Y339600D02*
X953500Y339600D01*
X30500Y338600D02*
X245500Y338600D01*
X456500Y338600D02*
X464500Y338600D01*
X725500Y338600D02*
X953500Y338600D01*
X30500Y337600D02*
X246500Y337600D01*
X456500Y337600D02*
X464500Y337600D01*
X725500Y337600D02*
X953500Y337600D01*
X30500Y336600D02*
X248500Y336600D01*
X456500Y336600D02*
X464500Y336600D01*
X725500Y336600D02*
X953500Y336600D01*
X30500Y335600D02*
X249500Y335600D01*
X457500Y335600D02*
X464500Y335600D01*
X725500Y335600D02*
X953500Y335600D01*
X30500Y334600D02*
X251500Y334600D01*
X457500Y334600D02*
X464500Y334600D01*
X726500Y334600D02*
X953500Y334600D01*
X30500Y333600D02*
X252500Y333600D01*
X457500Y333600D02*
X464500Y333600D01*
X726500Y333600D02*
X953500Y333600D01*
X30500Y332600D02*
X253500Y332600D01*
X457500Y332600D02*
X464500Y332600D01*
X726500Y332600D02*
X953500Y332600D01*
X30500Y331600D02*
X254500Y331600D01*
X457500Y331600D02*
X464500Y331600D01*
X726500Y331600D02*
X953500Y331600D01*
X30500Y330600D02*
X254500Y330600D01*
X458500Y330600D02*
X464500Y330600D01*
X726500Y330600D02*
X953500Y330600D01*
X30500Y329600D02*
X254500Y329600D01*
X458500Y329600D02*
X464500Y329600D01*
X726500Y329600D02*
X953500Y329600D01*
X30500Y328600D02*
X254500Y328600D01*
X458500Y328600D02*
X464500Y328600D01*
X726500Y328600D02*
X953500Y328600D01*
X30500Y327600D02*
X254500Y327600D01*
X458500Y327600D02*
X464500Y327600D01*
X727500Y327600D02*
X953500Y327600D01*
X30500Y326600D02*
X254500Y326600D01*
X458500Y326600D02*
X464500Y326600D01*
X727500Y326600D02*
X953500Y326600D01*
X30500Y325600D02*
X254500Y325600D01*
X458500Y325600D02*
X464500Y325600D01*
X727500Y325600D02*
X953500Y325600D01*
X30500Y324600D02*
X254500Y324600D01*
X458500Y324600D02*
X464500Y324600D01*
X727500Y324600D02*
X953500Y324600D01*
X30500Y323600D02*
X254500Y323600D01*
X458500Y323600D02*
X464500Y323600D01*
X727500Y323600D02*
X953500Y323600D01*
X30500Y322600D02*
X254500Y322600D01*
X458500Y322600D02*
X464500Y322600D01*
X726500Y322600D02*
X953500Y322600D01*
X30500Y321600D02*
X254500Y321600D01*
X458500Y321600D02*
X464500Y321600D01*
X726500Y321600D02*
X953500Y321600D01*
X30500Y320600D02*
X254500Y320600D01*
X458500Y320600D02*
X464500Y320600D01*
X726500Y320600D02*
X953500Y320600D01*
X30500Y319600D02*
X254500Y319600D01*
X458500Y319600D02*
X464500Y319600D01*
X726500Y319600D02*
X953500Y319600D01*
X30500Y318600D02*
X254500Y318600D01*
X457500Y318600D02*
X464500Y318600D01*
X726500Y318600D02*
X953500Y318600D01*
X30500Y317600D02*
X254500Y317600D01*
X457500Y317600D02*
X464500Y317600D01*
X726500Y317600D02*
X953500Y317600D01*
X30500Y316600D02*
X254500Y316600D01*
X457500Y316600D02*
X464500Y316600D01*
X726500Y316600D02*
X953500Y316600D01*
X30500Y315600D02*
X254500Y315600D01*
X457500Y315600D02*
X464500Y315600D01*
X726500Y315600D02*
X953500Y315600D01*
X30500Y314600D02*
X254500Y314600D01*
X457500Y314600D02*
X464500Y314600D01*
X725500Y314600D02*
X953500Y314600D01*
X30500Y313600D02*
X254500Y313600D01*
X456500Y313600D02*
X464500Y313600D01*
X725500Y313600D02*
X953500Y313600D01*
X30500Y312600D02*
X254500Y312600D01*
X456500Y312600D02*
X464500Y312600D01*
X725500Y312600D02*
X953500Y312600D01*
X30500Y311600D02*
X254500Y311600D01*
X456500Y311600D02*
X464500Y311600D01*
X724500Y311600D02*
X953500Y311600D01*
X30500Y310600D02*
X254500Y310600D01*
X455500Y310600D02*
X464500Y310600D01*
X724500Y310600D02*
X953500Y310600D01*
X30500Y309600D02*
X254500Y309600D01*
X455500Y309600D02*
X464500Y309600D01*
X724500Y309600D02*
X953500Y309600D01*
X30500Y308600D02*
X254500Y308600D01*
X455500Y308600D02*
X464500Y308600D01*
X723500Y308600D02*
X953500Y308600D01*
X30500Y307600D02*
X254500Y307600D01*
X455500Y307600D02*
X464500Y307600D01*
X723500Y307600D02*
X953500Y307600D01*
X30500Y306600D02*
X254500Y306600D01*
X454500Y306600D02*
X464500Y306600D01*
X723500Y306600D02*
X953500Y306600D01*
X30500Y305600D02*
X254500Y305600D01*
X454500Y305600D02*
X464500Y305600D01*
X722500Y305600D02*
X953500Y305600D01*
X30500Y304600D02*
X254500Y304600D01*
X453500Y304600D02*
X464500Y304600D01*
X722500Y304600D02*
X953500Y304600D01*
X30500Y303600D02*
X254500Y303600D01*
X453500Y303600D02*
X464500Y303600D01*
X721500Y303600D02*
X953500Y303600D01*
X30500Y302600D02*
X254500Y302600D01*
X452500Y302600D02*
X464500Y302600D01*
X721500Y302600D02*
X953500Y302600D01*
X30500Y301600D02*
X254500Y301600D01*
X452500Y301600D02*
X464500Y301600D01*
X720500Y301600D02*
X953500Y301600D01*
X30500Y300600D02*
X254500Y300600D01*
X451500Y300600D02*
X464500Y300600D01*
X720500Y300600D02*
X953500Y300600D01*
X30500Y299600D02*
X254500Y299600D01*
X451500Y299600D02*
X464500Y299600D01*
X719500Y299600D02*
X953500Y299600D01*
X30500Y298600D02*
X254500Y298600D01*
X359500Y298600D02*
X361500Y298600D01*
X450500Y298600D02*
X464500Y298600D01*
X719500Y298600D02*
X953500Y298600D01*
X30500Y297600D02*
X254500Y297600D01*
X358500Y297600D02*
X362500Y297600D01*
X450500Y297600D02*
X465500Y297600D01*
X718500Y297600D02*
X953500Y297600D01*
X30500Y296600D02*
X254500Y296600D01*
X358500Y296600D02*
X362500Y296600D01*
X449500Y296600D02*
X465500Y296600D01*
X718500Y296600D02*
X953500Y296600D01*
X30500Y295600D02*
X254500Y295600D01*
X358500Y295600D02*
X363500Y295600D01*
X449500Y295600D02*
X466500Y295600D01*
X717500Y295600D02*
X953500Y295600D01*
X30500Y294600D02*
X254500Y294600D01*
X358500Y294600D02*
X364500Y294600D01*
X448500Y294600D02*
X466500Y294600D01*
X716500Y294600D02*
X953500Y294600D01*
X30500Y293600D02*
X254500Y293600D01*
X358500Y293600D02*
X365500Y293600D01*
X447500Y293600D02*
X466500Y293600D01*
X715500Y293600D02*
X953500Y293600D01*
X30500Y292600D02*
X254500Y292600D01*
X358500Y292600D02*
X365500Y292600D01*
X446500Y292600D02*
X467500Y292600D01*
X714500Y292600D02*
X953500Y292600D01*
X30500Y291600D02*
X254500Y291600D01*
X358500Y291600D02*
X366500Y291600D01*
X445500Y291600D02*
X467500Y291600D01*
X714500Y291600D02*
X953500Y291600D01*
X30500Y290600D02*
X254500Y290600D01*
X358500Y290600D02*
X367500Y290600D01*
X444500Y290600D02*
X468500Y290600D01*
X713500Y290600D02*
X953500Y290600D01*
X30500Y289600D02*
X254500Y289600D01*
X358500Y289600D02*
X368500Y289600D01*
X444500Y289600D02*
X468500Y289600D01*
X712500Y289600D02*
X953500Y289600D01*
X30500Y288600D02*
X254500Y288600D01*
X358500Y288600D02*
X369500Y288600D01*
X443500Y288600D02*
X469500Y288600D01*
X711500Y288600D02*
X953500Y288600D01*
X30500Y287600D02*
X254500Y287600D01*
X358500Y287600D02*
X370500Y287600D01*
X442500Y287600D02*
X469500Y287600D01*
X710500Y287600D02*
X953500Y287600D01*
X30500Y286600D02*
X254500Y286600D01*
X358500Y286600D02*
X371500Y286600D01*
X440500Y286600D02*
X470500Y286600D01*
X709500Y286600D02*
X953500Y286600D01*
X30500Y285600D02*
X254500Y285600D01*
X358500Y285600D02*
X372500Y285600D01*
X439500Y285600D02*
X470500Y285600D01*
X707500Y285600D02*
X953500Y285600D01*
X30500Y284600D02*
X254500Y284600D01*
X358500Y284600D02*
X374500Y284600D01*
X438500Y284600D02*
X471500Y284600D01*
X706500Y284600D02*
X953500Y284600D01*
X30500Y283600D02*
X254500Y283600D01*
X358500Y283600D02*
X375500Y283600D01*
X437500Y283600D02*
X471500Y283600D01*
X705500Y283600D02*
X953500Y283600D01*
X30500Y282600D02*
X254500Y282600D01*
X358500Y282600D02*
X376500Y282600D01*
X435500Y282600D02*
X471500Y282600D01*
X703500Y282600D02*
X953500Y282600D01*
X30500Y281600D02*
X254500Y281600D01*
X358500Y281600D02*
X378500Y281600D01*
X434500Y281600D02*
X472500Y281600D01*
X702500Y281600D02*
X953500Y281600D01*
X30500Y280600D02*
X254500Y280600D01*
X358500Y280600D02*
X380500Y280600D01*
X432500Y280600D02*
X472500Y280600D01*
X700500Y280600D02*
X953500Y280600D01*
X30500Y279600D02*
X254500Y279600D01*
X357500Y279600D02*
X382500Y279600D01*
X430500Y279600D02*
X473500Y279600D01*
X698500Y279600D02*
X953500Y279600D01*
X30500Y278600D02*
X255500Y278600D01*
X357500Y278600D02*
X384500Y278600D01*
X428500Y278600D02*
X473500Y278600D01*
X696500Y278600D02*
X953500Y278600D01*
X30500Y277600D02*
X256500Y277600D01*
X356500Y277600D02*
X386500Y277600D01*
X426500Y277600D02*
X474500Y277600D01*
X694500Y277600D02*
X953500Y277600D01*
X30500Y276600D02*
X256500Y276600D01*
X355500Y276600D02*
X389500Y276600D01*
X423500Y276600D02*
X474500Y276600D01*
X690500Y276600D02*
X953500Y276600D01*
X30500Y275600D02*
X258500Y275600D01*
X354500Y275600D02*
X392500Y275600D01*
X420500Y275600D02*
X475500Y275600D01*
X687500Y275600D02*
X953500Y275600D01*
X30500Y274600D02*
X259500Y274600D01*
X353500Y274600D02*
X395500Y274600D01*
X416500Y274600D02*
X475500Y274600D01*
X683500Y274600D02*
X953500Y274600D01*
X30500Y273600D02*
X262500Y273600D01*
X350500Y273600D02*
X402500Y273600D01*
X410500Y273600D02*
X476500Y273600D01*
X680500Y273600D02*
X953500Y273600D01*
X30500Y272600D02*
X476500Y272600D01*
X680500Y272600D02*
X953500Y272600D01*
X30500Y271600D02*
X477500Y271600D01*
X679500Y271600D02*
X953500Y271600D01*
X30500Y270600D02*
X477500Y270600D01*
X679500Y270600D02*
X953500Y270600D01*
X30500Y269600D02*
X477500Y269600D01*
X679500Y269600D02*
X953500Y269600D01*
X30500Y268600D02*
X478500Y268600D01*
X678500Y268600D02*
X953500Y268600D01*
X30500Y267600D02*
X478500Y267600D01*
X678500Y267600D02*
X953500Y267600D01*
X30500Y266600D02*
X479500Y266600D01*
X678500Y266600D02*
X953500Y266600D01*
X30500Y265600D02*
X479500Y265600D01*
X677500Y265600D02*
X953500Y265600D01*
X30500Y264600D02*
X480500Y264600D01*
X677500Y264600D02*
X953500Y264600D01*
X30500Y263600D02*
X480500Y263600D01*
X676500Y263600D02*
X953500Y263600D01*
X30500Y262600D02*
X481500Y262600D01*
X676500Y262600D02*
X953500Y262600D01*
X30500Y261600D02*
X481500Y261600D01*
X676500Y261600D02*
X953500Y261600D01*
X30500Y260600D02*
X482500Y260600D01*
X675500Y260600D02*
X953500Y260600D01*
X30500Y259600D02*
X482500Y259600D01*
X675500Y259600D02*
X953500Y259600D01*
X30500Y258600D02*
X483500Y258600D01*
X675500Y258600D02*
X953500Y258600D01*
X30500Y257600D02*
X483500Y257600D01*
X674500Y257600D02*
X953500Y257600D01*
X30500Y256600D02*
X483500Y256600D01*
X674500Y256600D02*
X953500Y256600D01*
X30500Y255600D02*
X484500Y255600D01*
X674500Y255600D02*
X953500Y255600D01*
X30500Y254600D02*
X484500Y254600D01*
X673500Y254600D02*
X953500Y254600D01*
X30500Y253600D02*
X485500Y253600D01*
X673500Y253600D02*
X953500Y253600D01*
X30500Y252600D02*
X485500Y252600D01*
X673500Y252600D02*
X953500Y252600D01*
X30500Y251600D02*
X486500Y251600D01*
X672500Y251600D02*
X953500Y251600D01*
X30500Y250600D02*
X486500Y250600D01*
X672500Y250600D02*
X953500Y250600D01*
X30500Y249600D02*
X487500Y249600D01*
X672500Y249600D02*
X953500Y249600D01*
X30500Y248600D02*
X116500Y248600D01*
X145500Y248600D02*
X487500Y248600D01*
X671500Y248600D02*
X840500Y248600D01*
X864500Y248600D02*
X953500Y248600D01*
X30500Y247600D02*
X110500Y247600D01*
X151500Y247600D02*
X488500Y247600D01*
X671500Y247600D02*
X834500Y247600D01*
X871500Y247600D02*
X953500Y247600D01*
X30500Y246600D02*
X104500Y246600D01*
X157500Y246600D02*
X488500Y246600D01*
X670500Y246600D02*
X827500Y246600D01*
X877500Y246600D02*
X953500Y246600D01*
X30500Y245600D02*
X100500Y245600D01*
X161500Y245600D02*
X489500Y245600D01*
X670500Y245600D02*
X823500Y245600D01*
X881500Y245600D02*
X953500Y245600D01*
X30500Y244600D02*
X96500Y244600D01*
X164500Y244600D02*
X489500Y244600D01*
X670500Y244600D02*
X820500Y244600D01*
X885500Y244600D02*
X953500Y244600D01*
X30500Y243600D02*
X93500Y243600D01*
X168500Y243600D02*
X489500Y243600D01*
X669500Y243600D02*
X816500Y243600D01*
X889500Y243600D02*
X953500Y243600D01*
X30500Y242600D02*
X91500Y242600D01*
X170500Y242600D02*
X490500Y242600D01*
X669500Y242600D02*
X813500Y242600D01*
X892500Y242600D02*
X953500Y242600D01*
X30500Y241600D02*
X88500Y241600D01*
X173500Y241600D02*
X490500Y241600D01*
X669500Y241600D02*
X810500Y241600D01*
X894500Y241600D02*
X953500Y241600D01*
X30500Y240600D02*
X85500Y240600D01*
X176500Y240600D02*
X491500Y240600D01*
X668500Y240600D02*
X808500Y240600D01*
X897500Y240600D02*
X953500Y240600D01*
X30500Y239600D02*
X83500Y239600D01*
X178500Y239600D02*
X491500Y239600D01*
X668500Y239600D02*
X805500Y239600D01*
X899500Y239600D02*
X953500Y239600D01*
X30500Y238600D02*
X81500Y238600D01*
X180500Y238600D02*
X492500Y238600D01*
X668500Y238600D02*
X803500Y238600D01*
X902500Y238600D02*
X953500Y238600D01*
X30500Y237600D02*
X79500Y237600D01*
X182500Y237600D02*
X492500Y237600D01*
X667500Y237600D02*
X801500Y237600D01*
X904500Y237600D02*
X953500Y237600D01*
X30500Y236600D02*
X76500Y236600D01*
X184500Y236600D02*
X493500Y236600D01*
X667500Y236600D02*
X799500Y236600D01*
X906500Y236600D02*
X953500Y236600D01*
X30500Y235600D02*
X74500Y235600D01*
X186500Y235600D02*
X493500Y235600D01*
X667500Y235600D02*
X797500Y235600D01*
X908500Y235600D02*
X953500Y235600D01*
X30500Y234600D02*
X73500Y234600D01*
X188500Y234600D02*
X494500Y234600D01*
X666500Y234600D02*
X795500Y234600D01*
X910500Y234600D02*
X953500Y234600D01*
X30500Y233600D02*
X71500Y233600D01*
X190500Y233600D02*
X494500Y233600D01*
X666500Y233600D02*
X793500Y233600D01*
X911500Y233600D02*
X953500Y233600D01*
X30500Y232600D02*
X69500Y232600D01*
X191500Y232600D02*
X495500Y232600D01*
X666500Y232600D02*
X792500Y232600D01*
X913500Y232600D02*
X953500Y232600D01*
X30500Y231600D02*
X68500Y231600D01*
X193500Y231600D02*
X495500Y231600D01*
X665500Y231600D02*
X790500Y231600D01*
X914500Y231600D02*
X953500Y231600D01*
X30500Y230600D02*
X66500Y230600D01*
X195500Y230600D02*
X495500Y230600D01*
X665500Y230600D02*
X788500Y230600D01*
X916500Y230600D02*
X953500Y230600D01*
X30500Y229600D02*
X64500Y229600D01*
X196500Y229600D02*
X496500Y229600D01*
X664500Y229600D02*
X787500Y229600D01*
X918500Y229600D02*
X953500Y229600D01*
X30500Y228600D02*
X63500Y228600D01*
X198500Y228600D02*
X497500Y228600D01*
X664500Y228600D02*
X785500Y228600D01*
X919500Y228600D02*
X953500Y228600D01*
X30500Y227600D02*
X62500Y227600D01*
X199500Y227600D02*
X497500Y227600D01*
X663500Y227600D02*
X784500Y227600D01*
X921500Y227600D02*
X953500Y227600D01*
X30500Y226600D02*
X60500Y226600D01*
X201500Y226600D02*
X498500Y226600D01*
X662500Y226600D02*
X783500Y226600D01*
X922500Y226600D02*
X953500Y226600D01*
X30500Y225600D02*
X59500Y225600D01*
X202500Y225600D02*
X499500Y225600D01*
X661500Y225600D02*
X781500Y225600D01*
X923500Y225600D02*
X953500Y225600D01*
X30500Y224600D02*
X58500Y224600D01*
X203500Y224600D02*
X500500Y224600D01*
X660500Y224600D02*
X780500Y224600D01*
X925500Y224600D02*
X953500Y224600D01*
X30500Y223600D02*
X56500Y223600D01*
X205500Y223600D02*
X501500Y223600D01*
X659500Y223600D02*
X779500Y223600D01*
X926500Y223600D02*
X953500Y223600D01*
X30500Y222600D02*
X55500Y222600D01*
X206500Y222600D02*
X502500Y222600D01*
X658500Y222600D02*
X777500Y222600D01*
X927500Y222600D02*
X953500Y222600D01*
X30500Y221600D02*
X54500Y221600D01*
X207500Y221600D02*
X504500Y221600D01*
X657500Y221600D02*
X776500Y221600D01*
X929500Y221600D02*
X953500Y221600D01*
X30500Y220600D02*
X53500Y220600D01*
X208500Y220600D02*
X505500Y220600D01*
X655500Y220600D02*
X775500Y220600D01*
X930500Y220600D02*
X953500Y220600D01*
X30500Y219600D02*
X51500Y219600D01*
X209500Y219600D02*
X507500Y219600D01*
X653500Y219600D02*
X774500Y219600D01*
X931500Y219600D02*
X953500Y219600D01*
X30500Y218600D02*
X50500Y218600D01*
X210500Y218600D02*
X511500Y218600D01*
X650500Y218600D02*
X773500Y218600D01*
X932500Y218600D02*
X953500Y218600D01*
X30500Y217600D02*
X49500Y217600D01*
X212500Y217600D02*
X771500Y217600D01*
X933500Y217600D02*
X953500Y217600D01*
X30500Y216600D02*
X48500Y216600D01*
X213500Y216600D02*
X770500Y216600D01*
X934500Y216600D02*
X953500Y216600D01*
X30500Y215600D02*
X47500Y215600D01*
X214500Y215600D02*
X769500Y215600D01*
X935500Y215600D02*
X953500Y215600D01*
X30500Y214600D02*
X46500Y214600D01*
X215500Y214600D02*
X768500Y214600D01*
X936500Y214600D02*
X953500Y214600D01*
X30500Y213600D02*
X45500Y213600D01*
X216500Y213600D02*
X767500Y213600D01*
X937500Y213600D02*
X953500Y213600D01*
X30500Y212600D02*
X44500Y212600D01*
X217500Y212600D02*
X766500Y212600D01*
X938500Y212600D02*
X953500Y212600D01*
X30500Y211600D02*
X43500Y211600D01*
X218500Y211600D02*
X765500Y211600D01*
X939500Y211600D02*
X953500Y211600D01*
X30500Y210600D02*
X42500Y210600D01*
X218500Y210600D02*
X765500Y210600D01*
X940500Y210600D02*
X953500Y210600D01*
X30500Y209600D02*
X42500Y209600D01*
X219500Y209600D02*
X764500Y209600D01*
X941500Y209600D02*
X953500Y209600D01*
X30500Y208600D02*
X41500Y208600D01*
X220500Y208600D02*
X763500Y208600D01*
X942500Y208600D02*
X953500Y208600D01*
X30500Y207600D02*
X40500Y207600D01*
X221500Y207600D02*
X762500Y207600D01*
X943500Y207600D02*
X953500Y207600D01*
X30500Y206600D02*
X39500Y206600D01*
X222500Y206600D02*
X761500Y206600D01*
X944500Y206600D02*
X953500Y206600D01*
X30500Y205600D02*
X38500Y205600D01*
X223500Y205600D02*
X760500Y205600D01*
X944500Y205600D02*
X953500Y205600D01*
X30500Y204600D02*
X37500Y204600D01*
X223500Y204600D02*
X759500Y204600D01*
X945500Y204600D02*
X953500Y204600D01*
X30500Y203600D02*
X37500Y203600D01*
X224500Y203600D02*
X759500Y203600D01*
X946500Y203600D02*
X953500Y203600D01*
X30500Y202600D02*
X36500Y202600D01*
X225500Y202600D02*
X758500Y202600D01*
X947500Y202600D02*
X953500Y202600D01*
X30500Y201600D02*
X35500Y201600D01*
X226500Y201600D02*
X757500Y201600D01*
X947500Y201600D02*
X953500Y201600D01*
X30500Y200600D02*
X34500Y200600D01*
X227500Y200600D02*
X756500Y200600D01*
X948500Y200600D02*
X953500Y200600D01*
X30500Y199600D02*
X34500Y199600D01*
X227500Y199600D02*
X756500Y199600D01*
X949500Y199600D02*
X953500Y199600D01*
X32500Y198600D02*
X32500Y198600D01*
X228500Y198600D02*
X755500Y198600D01*
X950500Y198600D02*
X952500Y198600D01*
X229500Y197600D02*
X754500Y197600D01*
X229500Y196600D02*
X754500Y196600D01*
X230500Y195600D02*
X753500Y195600D01*
X231500Y194600D02*
X752500Y194600D01*
X231500Y193600D02*
X752500Y193600D01*
X232500Y192600D02*
X751500Y192600D01*
X232500Y191600D02*
X750500Y191600D01*
X233500Y190600D02*
X750500Y190600D01*
X234500Y189600D02*
X749500Y189600D01*
X234500Y188600D02*
X749500Y188600D01*
X235500Y187600D02*
X748500Y187600D01*
X235500Y186600D02*
X748500Y186600D01*
X236500Y185600D02*
X747500Y185600D01*
X236500Y184600D02*
X747500Y184600D01*
X237500Y183600D02*
X746500Y183600D01*
X237500Y182600D02*
X746500Y182600D01*
X238500Y181600D02*
X745500Y181600D01*
X238500Y180600D02*
X745500Y180600D01*
X239500Y179600D02*
X744500Y179600D01*
X239500Y178600D02*
X744500Y178600D01*
X240500Y177600D02*
X743500Y177600D01*
X240500Y176600D02*
X743500Y176600D01*
X240500Y175600D02*
X742500Y175600D01*
X241500Y174600D02*
X742500Y174600D01*
X241500Y173600D02*
X742500Y173600D01*
X242500Y172600D02*
X741500Y172600D01*
X242500Y171600D02*
X741500Y171600D01*
X242500Y170600D02*
X741500Y170600D01*
X243500Y169600D02*
X740500Y169600D01*
X243500Y168600D02*
X740500Y168600D01*
X243500Y167600D02*
X739500Y167600D01*
X244500Y166600D02*
X739500Y166600D01*
X244500Y165600D02*
X739500Y165600D01*
X244500Y164600D02*
X739500Y164600D01*
X245500Y163600D02*
X738500Y163600D01*
X245500Y162600D02*
X738500Y162600D01*
X245500Y161600D02*
X738500Y161600D01*
X245500Y160600D02*
X738500Y160600D01*
X246500Y159600D02*
X737500Y159600D01*
X246500Y158600D02*
X737500Y158600D01*
X246500Y157600D02*
X737500Y157600D01*
X246500Y156600D02*
X736500Y156600D01*
X247500Y155600D02*
X736500Y155600D01*
X247500Y154600D02*
X736500Y154600D01*
X247500Y153600D02*
X736500Y153600D01*
X247500Y152600D02*
X736500Y152600D01*
X247500Y151600D02*
X736500Y151600D01*
X247500Y150600D02*
X735500Y150600D01*
X247500Y149600D02*
X735500Y149600D01*
X248500Y148600D02*
X735500Y148600D01*
X248500Y147600D02*
X735500Y147600D01*
X248500Y146600D02*
X735500Y146600D01*
X248500Y145600D02*
X735500Y145600D01*
X248500Y144600D02*
X734500Y144600D01*
X248500Y143600D02*
X734500Y143600D01*
X249500Y142600D02*
X734500Y142600D01*
X249500Y141600D02*
X734500Y141600D01*
X249500Y140600D02*
X734500Y140600D01*
X249500Y139600D02*
X734500Y139600D01*
X249500Y138600D02*
X734500Y138600D01*
X249500Y137600D02*
X734500Y137600D01*
X249500Y136600D02*
X734500Y136600D01*
X249500Y135600D02*
X734500Y135600D01*
X249500Y134600D02*
X734500Y134600D01*
X249500Y133600D02*
X734500Y133600D01*
X249500Y132600D02*
X734500Y132600D01*
X249500Y131600D02*
X734500Y131600D01*
X249500Y130600D02*
X734500Y130600D01*
X249500Y129600D02*
X734500Y129600D01*
X249500Y128600D02*
X734500Y128600D01*
X249500Y127600D02*
X734500Y127600D01*
X249500Y126600D02*
X734500Y126600D01*
X249500Y125600D02*
X734500Y125600D01*
X249500Y124600D02*
X734500Y124600D01*
X249500Y123600D02*
X734500Y123600D01*
X249500Y122600D02*
X734500Y122600D01*
X249500Y121600D02*
X734500Y121600D01*
X249500Y120600D02*
X734500Y120600D01*
X248500Y119600D02*
X734500Y119600D01*
X248500Y118600D02*
X734500Y118600D01*
X248500Y117600D02*
X734500Y117600D01*
X248500Y116600D02*
X735500Y116600D01*
X248500Y115600D02*
X735500Y115600D01*
X248500Y114600D02*
X735500Y114600D01*
X248500Y113600D02*
X735500Y113600D01*
X247500Y112600D02*
X735500Y112600D01*
X247500Y111600D02*
X735500Y111600D01*
X247500Y110600D02*
X736500Y110600D01*
X247500Y109600D02*
X736500Y109600D01*
X247500Y108600D02*
X736500Y108600D01*
X247500Y107600D02*
X736500Y107600D01*
X246500Y106600D02*
X736500Y106600D01*
X246500Y105600D02*
X736500Y105600D01*
X246500Y104600D02*
X737500Y104600D01*
X246500Y103600D02*
X737500Y103600D01*
X245500Y102600D02*
X737500Y102600D01*
X245500Y101600D02*
X737500Y101600D01*
X245500Y100600D02*
X738500Y100600D01*
X245500Y99600D02*
X738500Y99600D01*
X244500Y98600D02*
X738500Y98600D01*
X244500Y97600D02*
X738500Y97600D01*
X244500Y96600D02*
X739500Y96600D01*
X244500Y95600D02*
X739500Y95600D01*
X243500Y94600D02*
X739500Y94600D01*
X243500Y93600D02*
X740500Y93600D01*
X242500Y92600D02*
X740500Y92600D01*
X242500Y91600D02*
X741500Y91600D01*
X242500Y90600D02*
X741500Y90600D01*
X241500Y89600D02*
X741500Y89600D01*
X241500Y88600D02*
X742500Y88600D01*
X241500Y87600D02*
X742500Y87600D01*
X240500Y86600D02*
X742500Y86600D01*
X240500Y85600D02*
X743500Y85600D01*
X240500Y84600D02*
X743500Y84600D01*
X239500Y83600D02*
X744500Y83600D01*
X239500Y82600D02*
X744500Y82600D01*
X238500Y81600D02*
X744500Y81600D01*
X238500Y80600D02*
X745500Y80600D01*
X237500Y79600D02*
X745500Y79600D01*
X237500Y78600D02*
X746500Y78600D01*
X236500Y77600D02*
X746500Y77600D01*
X236500Y76600D02*
X747500Y76600D01*
X235500Y75600D02*
X747500Y75600D01*
X235500Y74600D02*
X748500Y74600D01*
X234500Y73600D02*
X748500Y73600D01*
X233500Y72600D02*
X749500Y72600D01*
X233500Y71600D02*
X750500Y71600D01*
X232500Y70600D02*
X750500Y70600D01*
X232500Y69600D02*
X751500Y69600D01*
X231500Y68600D02*
X752500Y68600D01*
X230500Y67600D02*
X752500Y67600D01*
X230500Y66600D02*
X753500Y66600D01*
X229500Y65600D02*
X753500Y65600D01*
X228500Y64600D02*
X754500Y64600D01*
X228500Y63600D02*
X755500Y63600D01*
X227500Y62600D02*
X756500Y62600D01*
X226500Y61600D02*
X756500Y61600D01*
X225500Y60600D02*
X757500Y60600D01*
X225500Y59600D02*
X758500Y59600D01*
X224500Y58600D02*
X759500Y58600D01*
X223500Y57600D02*
X759500Y57600D01*
X222500Y56600D02*
X760500Y56600D01*
X222500Y55600D02*
X761500Y55600D01*
X221500Y54600D02*
X762500Y54600D01*
X220500Y53600D02*
X763500Y53600D01*
X219500Y52600D02*
X763500Y52600D01*
X218500Y51600D02*
X764500Y51600D01*
X217500Y50600D02*
X765500Y50600D01*
X216500Y49600D02*
X766500Y49600D01*
X215500Y48600D02*
X767500Y48600D01*
X214500Y47600D02*
X768500Y47600D01*
X213500Y46600D02*
X769500Y46600D01*
X212500Y45600D02*
X770500Y45600D01*
X211500Y44600D02*
X771500Y44600D01*
X210500Y43600D02*
X772500Y43600D01*
X209500Y42600D02*
X773500Y42600D01*
X208500Y41600D02*
X775500Y41600D01*
X207500Y40600D02*
X776500Y40600D01*
X205500Y39600D02*
X777500Y39600D01*
X204500Y38600D02*
X778500Y38600D01*
X203500Y37600D02*
X780500Y37600D01*
X201500Y36600D02*
X781500Y36600D01*
X200500Y35600D02*
X782500Y35600D01*
X199500Y34600D02*
X784500Y34600D01*
X198500Y33600D02*
X784500Y33600D01*
X198500Y32600D02*
X785500Y32600D01*
X198500Y31600D02*
X784500Y31600D01*
X199500Y30600D02*
X783500Y30600D01*
D02*
G04 End of Copper1*
M02*