G04 MADE WITH FRITZING*
G04 WWW.FRITZING.ORG*
G04 DOUBLE SIDED*
G04 HOLES PLATED*
G04 CONTOUR ON CENTER OF CONTOUR VECTOR*
%FSLAX26Y26*%
%MOIN*%
%ADD10R,0.984252X1.181100X0.968252X1.165100*%
%ADD11C,0.008000*%
%ADD12C,0.010000*%
%ADD13C,0.005000*%
%ADD14R,0.001000X0.001000*%
G04 SILK1*
%FSLAX26Y26*%
%MOIN*%
D11*
X4000Y1177100D02*
X980252Y1177100D01*
X980252Y4000D01*
X4000Y4000D01*
X4000Y1177100D01*
D02*
D12*
X251421Y237003D02*
X461421Y237003D01*
D02*
X461421Y237003D02*
X461421Y453003D01*
D02*
X461421Y453003D02*
X251421Y453003D01*
D02*
X251421Y453003D02*
X251421Y237003D01*
D13*
D02*
X461421Y413003D02*
X251421Y413003D01*
D12*
D02*
X520163Y237412D02*
X730163Y237412D01*
D02*
X730163Y237412D02*
X730163Y453412D01*
D02*
X730163Y453412D02*
X520163Y453412D01*
D02*
X520163Y453412D02*
X520163Y237412D01*
D13*
D02*
X730163Y413412D02*
X520163Y413412D01*
D14*
X262500Y1121600D02*
X264500Y1121600D01*
X285500Y1121600D02*
X286500Y1121600D01*
X409500Y1121600D02*
X411500Y1121600D01*
X519500Y1121600D02*
X520500Y1121600D01*
X261500Y1120600D02*
X265500Y1120600D01*
X284500Y1120600D02*
X287500Y1120600D01*
X408500Y1120600D02*
X412500Y1120600D01*
X518500Y1120600D02*
X521500Y1120600D01*
X261500Y1119600D02*
X265500Y1119600D01*
X284500Y1119600D02*
X288500Y1119600D01*
X378500Y1119600D02*
X379500Y1119600D01*
X408500Y1119600D02*
X412500Y1119600D01*
X517500Y1119600D02*
X521500Y1119600D01*
X261500Y1118600D02*
X265500Y1118600D01*
X284500Y1118600D02*
X288500Y1118600D01*
X377500Y1118600D02*
X380500Y1118600D01*
X408500Y1118600D02*
X412500Y1118600D01*
X517500Y1118600D02*
X521500Y1118600D01*
X261500Y1117600D02*
X265500Y1117600D01*
X284500Y1117600D02*
X288500Y1117600D01*
X377500Y1117600D02*
X381500Y1117600D01*
X408500Y1117600D02*
X412500Y1117600D01*
X517500Y1117600D02*
X521500Y1117600D01*
X261500Y1116600D02*
X265500Y1116600D01*
X284500Y1116600D02*
X288500Y1116600D01*
X376500Y1116600D02*
X381500Y1116600D01*
X408500Y1116600D02*
X412500Y1116600D01*
X517500Y1116600D02*
X521500Y1116600D01*
X261500Y1115600D02*
X265500Y1115600D01*
X284500Y1115600D02*
X288500Y1115600D01*
X376500Y1115600D02*
X381500Y1115600D01*
X408500Y1115600D02*
X412500Y1115600D01*
X517500Y1115600D02*
X521500Y1115600D01*
X261500Y1114600D02*
X265500Y1114600D01*
X284500Y1114600D02*
X288500Y1114600D01*
X376500Y1114600D02*
X381500Y1114600D01*
X408500Y1114600D02*
X412500Y1114600D01*
X517500Y1114600D02*
X521500Y1114600D01*
X261500Y1113600D02*
X265500Y1113600D01*
X284500Y1113600D02*
X288500Y1113600D01*
X376500Y1113600D02*
X381500Y1113600D01*
X408500Y1113600D02*
X412500Y1113600D01*
X517500Y1113600D02*
X521500Y1113600D01*
X261500Y1112600D02*
X265500Y1112600D01*
X284500Y1112600D02*
X288500Y1112600D01*
X376500Y1112600D02*
X381500Y1112600D01*
X408500Y1112600D02*
X412500Y1112600D01*
X517500Y1112600D02*
X521500Y1112600D01*
X261500Y1111600D02*
X265500Y1111600D01*
X284500Y1111600D02*
X288500Y1111600D01*
X376500Y1111600D02*
X381500Y1111600D01*
X408500Y1111600D02*
X412500Y1111600D01*
X517500Y1111600D02*
X521500Y1111600D01*
X261500Y1110600D02*
X265500Y1110600D01*
X284500Y1110600D02*
X288500Y1110600D01*
X305500Y1110600D02*
X317500Y1110600D01*
X340500Y1110600D02*
X354500Y1110600D01*
X372500Y1110600D02*
X391500Y1110600D01*
X408500Y1110600D02*
X412500Y1110600D01*
X419500Y1110600D02*
X427500Y1110600D01*
X451500Y1110600D02*
X462500Y1110600D01*
X482500Y1110600D02*
X484500Y1110600D01*
X492500Y1110600D02*
X501500Y1110600D01*
X517500Y1110600D02*
X521500Y1110600D01*
X560500Y1110600D02*
X572500Y1110600D01*
X592500Y1110600D02*
X594500Y1110600D01*
X611500Y1110600D02*
X613500Y1110600D01*
X261500Y1109600D02*
X265500Y1109600D01*
X284500Y1109600D02*
X288500Y1109600D01*
X303500Y1109600D02*
X318500Y1109600D01*
X339500Y1109600D02*
X356500Y1109600D01*
X372500Y1109600D02*
X391500Y1109600D01*
X408500Y1109600D02*
X412500Y1109600D01*
X417500Y1109600D02*
X429500Y1109600D01*
X449500Y1109600D02*
X464500Y1109600D01*
X481500Y1109600D02*
X485500Y1109600D01*
X490500Y1109600D02*
X503500Y1109600D01*
X517500Y1109600D02*
X521500Y1109600D01*
X558500Y1109600D02*
X573500Y1109600D01*
X591500Y1109600D02*
X595500Y1109600D01*
X610500Y1109600D02*
X614500Y1109600D01*
X261500Y1108600D02*
X265500Y1108600D01*
X284500Y1108600D02*
X288500Y1108600D01*
X302500Y1108600D02*
X320500Y1108600D01*
X339500Y1108600D02*
X357500Y1108600D01*
X372500Y1108600D02*
X392500Y1108600D01*
X408500Y1108600D02*
X412500Y1108600D01*
X416500Y1108600D02*
X430500Y1108600D01*
X448500Y1108600D02*
X465500Y1108600D01*
X481500Y1108600D02*
X485500Y1108600D01*
X489500Y1108600D02*
X504500Y1108600D01*
X517500Y1108600D02*
X521500Y1108600D01*
X557500Y1108600D02*
X575500Y1108600D01*
X591500Y1108600D02*
X596500Y1108600D01*
X609500Y1108600D02*
X614500Y1108600D01*
X261500Y1107600D02*
X265500Y1107600D01*
X274500Y1107600D02*
X275500Y1107600D01*
X284500Y1107600D02*
X288500Y1107600D01*
X301500Y1107600D02*
X320500Y1107600D01*
X339500Y1107600D02*
X358500Y1107600D01*
X372500Y1107600D02*
X391500Y1107600D01*
X408500Y1107600D02*
X412500Y1107600D01*
X414500Y1107600D02*
X430500Y1107600D01*
X447500Y1107600D02*
X466500Y1107600D01*
X481500Y1107600D02*
X485500Y1107600D01*
X488500Y1107600D02*
X504500Y1107600D01*
X517500Y1107600D02*
X521500Y1107600D01*
X556500Y1107600D02*
X576500Y1107600D01*
X591500Y1107600D02*
X597500Y1107600D01*
X608500Y1107600D02*
X614500Y1107600D01*
X261500Y1106600D02*
X265500Y1106600D01*
X273500Y1106600D02*
X276500Y1106600D01*
X284500Y1106600D02*
X288500Y1106600D01*
X300500Y1106600D02*
X321500Y1106600D01*
X340500Y1106600D02*
X359500Y1106600D01*
X373500Y1106600D02*
X390500Y1106600D01*
X408500Y1106600D02*
X431500Y1106600D01*
X446500Y1106600D02*
X467500Y1106600D01*
X481500Y1106600D02*
X485500Y1106600D01*
X487500Y1106600D02*
X505500Y1106600D01*
X517500Y1106600D02*
X521500Y1106600D01*
X555500Y1106600D02*
X576500Y1106600D01*
X592500Y1106600D02*
X597500Y1106600D01*
X607500Y1106600D02*
X613500Y1106600D01*
X261500Y1105600D02*
X265500Y1105600D01*
X272500Y1105600D02*
X276500Y1105600D01*
X284500Y1105600D02*
X288500Y1105600D01*
X300500Y1105600D02*
X305500Y1105600D01*
X316500Y1105600D02*
X322500Y1105600D01*
X354500Y1105600D02*
X359500Y1105600D01*
X376500Y1105600D02*
X381500Y1105600D01*
X408500Y1105600D02*
X419500Y1105600D01*
X426500Y1105600D02*
X431500Y1105600D01*
X445500Y1105600D02*
X451500Y1105600D01*
X462500Y1105600D02*
X468500Y1105600D01*
X481500Y1105600D02*
X493500Y1105600D01*
X500500Y1105600D02*
X505500Y1105600D01*
X517500Y1105600D02*
X521500Y1105600D01*
X555500Y1105600D02*
X561500Y1105600D01*
X571500Y1105600D02*
X577500Y1105600D01*
X593500Y1105600D02*
X598500Y1105600D01*
X606500Y1105600D02*
X612500Y1105600D01*
X261500Y1104600D02*
X265500Y1104600D01*
X272500Y1104600D02*
X276500Y1104600D01*
X284500Y1104600D02*
X288500Y1104600D01*
X299500Y1104600D02*
X304500Y1104600D01*
X317500Y1104600D02*
X322500Y1104600D01*
X355500Y1104600D02*
X359500Y1104600D01*
X376500Y1104600D02*
X381500Y1104600D01*
X408500Y1104600D02*
X418500Y1104600D01*
X427500Y1104600D02*
X431500Y1104600D01*
X445500Y1104600D02*
X450500Y1104600D01*
X463500Y1104600D02*
X468500Y1104600D01*
X481500Y1104600D02*
X491500Y1104600D01*
X501500Y1104600D02*
X505500Y1104600D01*
X517500Y1104600D02*
X521500Y1104600D01*
X554500Y1104600D02*
X559500Y1104600D01*
X573500Y1104600D02*
X577500Y1104600D01*
X593500Y1104600D02*
X599500Y1104600D01*
X606500Y1104600D02*
X611500Y1104600D01*
X261500Y1103600D02*
X265500Y1103600D01*
X272500Y1103600D02*
X276500Y1103600D01*
X284500Y1103600D02*
X288500Y1103600D01*
X299500Y1103600D02*
X303500Y1103600D01*
X318500Y1103600D02*
X323500Y1103600D01*
X355500Y1103600D02*
X359500Y1103600D01*
X376500Y1103600D02*
X381500Y1103600D01*
X408500Y1103600D02*
X416500Y1103600D01*
X427500Y1103600D02*
X432500Y1103600D01*
X445500Y1103600D02*
X449500Y1103600D01*
X464500Y1103600D02*
X468500Y1103600D01*
X481500Y1103600D02*
X490500Y1103600D01*
X501500Y1103600D02*
X505500Y1103600D01*
X517500Y1103600D02*
X521500Y1103600D01*
X554500Y1103600D02*
X558500Y1103600D01*
X573500Y1103600D02*
X578500Y1103600D01*
X594500Y1103600D02*
X600500Y1103600D01*
X605500Y1103600D02*
X610500Y1103600D01*
X261500Y1102600D02*
X265500Y1102600D01*
X272500Y1102600D02*
X276500Y1102600D01*
X284500Y1102600D02*
X288500Y1102600D01*
X299500Y1102600D02*
X303500Y1102600D01*
X319500Y1102600D02*
X323500Y1102600D01*
X355500Y1102600D02*
X359500Y1102600D01*
X376500Y1102600D02*
X381500Y1102600D01*
X408500Y1102600D02*
X415500Y1102600D01*
X427500Y1102600D02*
X432500Y1102600D01*
X444500Y1102600D02*
X449500Y1102600D01*
X464500Y1102600D02*
X469500Y1102600D01*
X481500Y1102600D02*
X489500Y1102600D01*
X501500Y1102600D02*
X505500Y1102600D01*
X517500Y1102600D02*
X521500Y1102600D01*
X554500Y1102600D02*
X558500Y1102600D01*
X574500Y1102600D02*
X578500Y1102600D01*
X595500Y1102600D02*
X601500Y1102600D01*
X604500Y1102600D02*
X610500Y1102600D01*
X261500Y1101600D02*
X265500Y1101600D01*
X272500Y1101600D02*
X276500Y1101600D01*
X284500Y1101600D02*
X288500Y1101600D01*
X299500Y1101600D02*
X303500Y1101600D01*
X319500Y1101600D02*
X323500Y1101600D01*
X355500Y1101600D02*
X359500Y1101600D01*
X376500Y1101600D02*
X381500Y1101600D01*
X408500Y1101600D02*
X413500Y1101600D01*
X427500Y1101600D02*
X432500Y1101600D01*
X444500Y1101600D02*
X449500Y1101600D01*
X465500Y1101600D02*
X469500Y1101600D01*
X481500Y1101600D02*
X488500Y1101600D01*
X501500Y1101600D02*
X505500Y1101600D01*
X517500Y1101600D02*
X521500Y1101600D01*
X554500Y1101600D02*
X558500Y1101600D01*
X574500Y1101600D02*
X578500Y1101600D01*
X596500Y1101600D02*
X609500Y1101600D01*
X261500Y1100600D02*
X265500Y1100600D01*
X272500Y1100600D02*
X276500Y1100600D01*
X284500Y1100600D02*
X288500Y1100600D01*
X299500Y1100600D02*
X303500Y1100600D01*
X319500Y1100600D02*
X323500Y1100600D01*
X355500Y1100600D02*
X359500Y1100600D01*
X376500Y1100600D02*
X381500Y1100600D01*
X408500Y1100600D02*
X412500Y1100600D01*
X428500Y1100600D02*
X432500Y1100600D01*
X444500Y1100600D02*
X449500Y1100600D01*
X465500Y1100600D02*
X469500Y1100600D01*
X481500Y1100600D02*
X487500Y1100600D01*
X502500Y1100600D02*
X504500Y1100600D01*
X517500Y1100600D02*
X521500Y1100600D01*
X554500Y1100600D02*
X558500Y1100600D01*
X574500Y1100600D02*
X578500Y1100600D01*
X597500Y1100600D02*
X608500Y1100600D01*
X261500Y1099600D02*
X265500Y1099600D01*
X272500Y1099600D02*
X276500Y1099600D01*
X284500Y1099600D02*
X288500Y1099600D01*
X299500Y1099600D02*
X303500Y1099600D01*
X319500Y1099600D02*
X323500Y1099600D01*
X339500Y1099600D02*
X359500Y1099600D01*
X376500Y1099600D02*
X381500Y1099600D01*
X408500Y1099600D02*
X412500Y1099600D01*
X428500Y1099600D02*
X432500Y1099600D01*
X444500Y1099600D02*
X449500Y1099600D01*
X464500Y1099600D02*
X469500Y1099600D01*
X481500Y1099600D02*
X486500Y1099600D01*
X517500Y1099600D02*
X521500Y1099600D01*
X554500Y1099600D02*
X558500Y1099600D01*
X574500Y1099600D02*
X578500Y1099600D01*
X598500Y1099600D02*
X607500Y1099600D01*
X261500Y1098600D02*
X265500Y1098600D01*
X272500Y1098600D02*
X276500Y1098600D01*
X284500Y1098600D02*
X288500Y1098600D01*
X299500Y1098600D02*
X323500Y1098600D01*
X338500Y1098600D02*
X359500Y1098600D01*
X376500Y1098600D02*
X381500Y1098600D01*
X408500Y1098600D02*
X412500Y1098600D01*
X428500Y1098600D02*
X432500Y1098600D01*
X444500Y1098600D02*
X469500Y1098600D01*
X481500Y1098600D02*
X485500Y1098600D01*
X517500Y1098600D02*
X521500Y1098600D01*
X554500Y1098600D02*
X558500Y1098600D01*
X574500Y1098600D02*
X578500Y1098600D01*
X598500Y1098600D02*
X606500Y1098600D01*
X261500Y1097600D02*
X265500Y1097600D01*
X272500Y1097600D02*
X276500Y1097600D01*
X284500Y1097600D02*
X288500Y1097600D01*
X299500Y1097600D02*
X323500Y1097600D01*
X337500Y1097600D02*
X359500Y1097600D01*
X376500Y1097600D02*
X381500Y1097600D01*
X408500Y1097600D02*
X412500Y1097600D01*
X428500Y1097600D02*
X432500Y1097600D01*
X444500Y1097600D02*
X469500Y1097600D01*
X481500Y1097600D02*
X485500Y1097600D01*
X517500Y1097600D02*
X521500Y1097600D01*
X554500Y1097600D02*
X558500Y1097600D01*
X574500Y1097600D02*
X578500Y1097600D01*
X599500Y1097600D02*
X605500Y1097600D01*
X261500Y1096600D02*
X265500Y1096600D01*
X272500Y1096600D02*
X276500Y1096600D01*
X284500Y1096600D02*
X288500Y1096600D01*
X299500Y1096600D02*
X323500Y1096600D01*
X336500Y1096600D02*
X359500Y1096600D01*
X376500Y1096600D02*
X381500Y1096600D01*
X408500Y1096600D02*
X412500Y1096600D01*
X428500Y1096600D02*
X432500Y1096600D01*
X444500Y1096600D02*
X469500Y1096600D01*
X481500Y1096600D02*
X485500Y1096600D01*
X517500Y1096600D02*
X521500Y1096600D01*
X554500Y1096600D02*
X558500Y1096600D01*
X574500Y1096600D02*
X578500Y1096600D01*
X599500Y1096600D02*
X606500Y1096600D01*
X261500Y1095600D02*
X265500Y1095600D01*
X272500Y1095600D02*
X276500Y1095600D01*
X284500Y1095600D02*
X288500Y1095600D01*
X299500Y1095600D02*
X322500Y1095600D01*
X336500Y1095600D02*
X341500Y1095600D01*
X353500Y1095600D02*
X359500Y1095600D01*
X376500Y1095600D02*
X381500Y1095600D01*
X408500Y1095600D02*
X412500Y1095600D01*
X428500Y1095600D02*
X432500Y1095600D01*
X444500Y1095600D02*
X468500Y1095600D01*
X481500Y1095600D02*
X485500Y1095600D01*
X517500Y1095600D02*
X521500Y1095600D01*
X554500Y1095600D02*
X558500Y1095600D01*
X574500Y1095600D02*
X578500Y1095600D01*
X598500Y1095600D02*
X606500Y1095600D01*
X261500Y1094600D02*
X265500Y1094600D01*
X272500Y1094600D02*
X276500Y1094600D01*
X284500Y1094600D02*
X288500Y1094600D01*
X299500Y1094600D02*
X321500Y1094600D01*
X335500Y1094600D02*
X339500Y1094600D01*
X355500Y1094600D02*
X359500Y1094600D01*
X376500Y1094600D02*
X381500Y1094600D01*
X408500Y1094600D02*
X412500Y1094600D01*
X428500Y1094600D02*
X432500Y1094600D01*
X444500Y1094600D02*
X467500Y1094600D01*
X481500Y1094600D02*
X485500Y1094600D01*
X517500Y1094600D02*
X521500Y1094600D01*
X554500Y1094600D02*
X558500Y1094600D01*
X574500Y1094600D02*
X578500Y1094600D01*
X597500Y1094600D02*
X607500Y1094600D01*
X261500Y1093600D02*
X265500Y1093600D01*
X272500Y1093600D02*
X276500Y1093600D01*
X284500Y1093600D02*
X288500Y1093600D01*
X299500Y1093600D02*
X303500Y1093600D01*
X335500Y1093600D02*
X339500Y1093600D01*
X355500Y1093600D02*
X359500Y1093600D01*
X376500Y1093600D02*
X381500Y1093600D01*
X408500Y1093600D02*
X412500Y1093600D01*
X428500Y1093600D02*
X432500Y1093600D01*
X444500Y1093600D02*
X449500Y1093600D01*
X481500Y1093600D02*
X485500Y1093600D01*
X517500Y1093600D02*
X521500Y1093600D01*
X554500Y1093600D02*
X558500Y1093600D01*
X574500Y1093600D02*
X578500Y1093600D01*
X596500Y1093600D02*
X608500Y1093600D01*
X261500Y1092600D02*
X265500Y1092600D01*
X272500Y1092600D02*
X276500Y1092600D01*
X284500Y1092600D02*
X288500Y1092600D01*
X299500Y1092600D02*
X303500Y1092600D01*
X335500Y1092600D02*
X339500Y1092600D01*
X355500Y1092600D02*
X359500Y1092600D01*
X376500Y1092600D02*
X381500Y1092600D01*
X408500Y1092600D02*
X412500Y1092600D01*
X428500Y1092600D02*
X432500Y1092600D01*
X444500Y1092600D02*
X449500Y1092600D01*
X481500Y1092600D02*
X485500Y1092600D01*
X517500Y1092600D02*
X521500Y1092600D01*
X554500Y1092600D02*
X558500Y1092600D01*
X574500Y1092600D02*
X578500Y1092600D01*
X596500Y1092600D02*
X601500Y1092600D01*
X603500Y1092600D02*
X609500Y1092600D01*
X261500Y1091600D02*
X265500Y1091600D01*
X272500Y1091600D02*
X276500Y1091600D01*
X284500Y1091600D02*
X288500Y1091600D01*
X299500Y1091600D02*
X303500Y1091600D01*
X335500Y1091600D02*
X339500Y1091600D01*
X355500Y1091600D02*
X359500Y1091600D01*
X376500Y1091600D02*
X381500Y1091600D01*
X393500Y1091600D02*
X394500Y1091600D01*
X408500Y1091600D02*
X412500Y1091600D01*
X428500Y1091600D02*
X432500Y1091600D01*
X444500Y1091600D02*
X449500Y1091600D01*
X481500Y1091600D02*
X485500Y1091600D01*
X517500Y1091600D02*
X521500Y1091600D01*
X554500Y1091600D02*
X558500Y1091600D01*
X574500Y1091600D02*
X578500Y1091600D01*
X595500Y1091600D02*
X600500Y1091600D01*
X604500Y1091600D02*
X610500Y1091600D01*
X261500Y1090600D02*
X265500Y1090600D01*
X272500Y1090600D02*
X276500Y1090600D01*
X284500Y1090600D02*
X288500Y1090600D01*
X299500Y1090600D02*
X303500Y1090600D01*
X335500Y1090600D02*
X339500Y1090600D01*
X355500Y1090600D02*
X359500Y1090600D01*
X376500Y1090600D02*
X381500Y1090600D01*
X392500Y1090600D02*
X395500Y1090600D01*
X408500Y1090600D02*
X412500Y1090600D01*
X428500Y1090600D02*
X432500Y1090600D01*
X445500Y1090600D02*
X449500Y1090600D01*
X481500Y1090600D02*
X485500Y1090600D01*
X517500Y1090600D02*
X521500Y1090600D01*
X554500Y1090600D02*
X558500Y1090600D01*
X573500Y1090600D02*
X578500Y1090600D01*
X594500Y1090600D02*
X600500Y1090600D01*
X605500Y1090600D02*
X611500Y1090600D01*
X261500Y1089600D02*
X265500Y1089600D01*
X272500Y1089600D02*
X277500Y1089600D01*
X283500Y1089600D02*
X288500Y1089600D01*
X299500Y1089600D02*
X304500Y1089600D01*
X335500Y1089600D02*
X339500Y1089600D01*
X353500Y1089600D02*
X359500Y1089600D01*
X377500Y1089600D02*
X381500Y1089600D01*
X392500Y1089600D02*
X396500Y1089600D01*
X408500Y1089600D02*
X412500Y1089600D01*
X428500Y1089600D02*
X432500Y1089600D01*
X445500Y1089600D02*
X450500Y1089600D01*
X481500Y1089600D02*
X485500Y1089600D01*
X517500Y1089600D02*
X521500Y1089600D01*
X554500Y1089600D02*
X559500Y1089600D01*
X573500Y1089600D02*
X578500Y1089600D01*
X593500Y1089600D02*
X599500Y1089600D01*
X606500Y1089600D02*
X611500Y1089600D01*
X261500Y1088600D02*
X266500Y1088600D01*
X271500Y1088600D02*
X277500Y1088600D01*
X283500Y1088600D02*
X288500Y1088600D01*
X299500Y1088600D02*
X305500Y1088600D01*
X335500Y1088600D02*
X339500Y1088600D01*
X352500Y1088600D02*
X359500Y1088600D01*
X377500Y1088600D02*
X381500Y1088600D01*
X391500Y1088600D02*
X396500Y1088600D01*
X408500Y1088600D02*
X412500Y1088600D01*
X428500Y1088600D02*
X432500Y1088600D01*
X445500Y1088600D02*
X451500Y1088600D01*
X481500Y1088600D02*
X485500Y1088600D01*
X517500Y1088600D02*
X521500Y1088600D01*
X554500Y1088600D02*
X560500Y1088600D01*
X572500Y1088600D02*
X577500Y1088600D01*
X592500Y1088600D02*
X598500Y1088600D01*
X607500Y1088600D02*
X612500Y1088600D01*
X262500Y1087600D02*
X287500Y1087600D01*
X300500Y1087600D02*
X321500Y1087600D01*
X336500Y1087600D02*
X340500Y1087600D01*
X350500Y1087600D02*
X359500Y1087600D01*
X377500Y1087600D02*
X395500Y1087600D01*
X408500Y1087600D02*
X412500Y1087600D01*
X428500Y1087600D02*
X432500Y1087600D01*
X446500Y1087600D02*
X466500Y1087600D01*
X481500Y1087600D02*
X485500Y1087600D01*
X517500Y1087600D02*
X539500Y1087600D01*
X555500Y1087600D02*
X577500Y1087600D01*
X591500Y1087600D02*
X597500Y1087600D01*
X607500Y1087600D02*
X613500Y1087600D01*
X262500Y1086600D02*
X286500Y1086600D01*
X301500Y1086600D02*
X322500Y1086600D01*
X336500Y1086600D02*
X359500Y1086600D01*
X377500Y1086600D02*
X395500Y1086600D01*
X408500Y1086600D02*
X412500Y1086600D01*
X428500Y1086600D02*
X432500Y1086600D01*
X446500Y1086600D02*
X468500Y1086600D01*
X481500Y1086600D02*
X485500Y1086600D01*
X517500Y1086600D02*
X541500Y1086600D01*
X556500Y1086600D02*
X576500Y1086600D01*
X591500Y1086600D02*
X596500Y1086600D01*
X608500Y1086600D02*
X614500Y1086600D01*
X263500Y1085600D02*
X286500Y1085600D01*
X302500Y1085600D02*
X323500Y1085600D01*
X337500Y1085600D02*
X359500Y1085600D01*
X378500Y1085600D02*
X394500Y1085600D01*
X408500Y1085600D02*
X412500Y1085600D01*
X428500Y1085600D02*
X432500Y1085600D01*
X448500Y1085600D02*
X469500Y1085600D01*
X481500Y1085600D02*
X485500Y1085600D01*
X517500Y1085600D02*
X541500Y1085600D01*
X557500Y1085600D02*
X575500Y1085600D01*
X590500Y1085600D02*
X595500Y1085600D01*
X609500Y1085600D02*
X614500Y1085600D01*
X263500Y1084600D02*
X285500Y1084600D01*
X303500Y1084600D02*
X323500Y1084600D01*
X338500Y1084600D02*
X359500Y1084600D01*
X379500Y1084600D02*
X393500Y1084600D01*
X408500Y1084600D02*
X412500Y1084600D01*
X428500Y1084600D02*
X432500Y1084600D01*
X449500Y1084600D02*
X469500Y1084600D01*
X481500Y1084600D02*
X485500Y1084600D01*
X517500Y1084600D02*
X541500Y1084600D01*
X558500Y1084600D02*
X574500Y1084600D01*
X590500Y1084600D02*
X595500Y1084600D01*
X610500Y1084600D02*
X614500Y1084600D01*
X264500Y1083600D02*
X273500Y1083600D01*
X275500Y1083600D02*
X285500Y1083600D01*
X304500Y1083600D02*
X322500Y1083600D01*
X339500Y1083600D02*
X352500Y1083600D01*
X356500Y1083600D02*
X359500Y1083600D01*
X380500Y1083600D02*
X392500Y1083600D01*
X409500Y1083600D02*
X412500Y1083600D01*
X429500Y1083600D02*
X432500Y1083600D01*
X450500Y1083600D02*
X468500Y1083600D01*
X481500Y1083600D02*
X484500Y1083600D01*
X517500Y1083600D02*
X541500Y1083600D01*
X559500Y1083600D02*
X572500Y1083600D01*
X591500Y1083600D02*
X594500Y1083600D01*
X611500Y1083600D02*
X614500Y1083600D01*
X266500Y1082600D02*
X271500Y1082600D01*
X277500Y1082600D02*
X283500Y1082600D01*
X308500Y1082600D02*
X321500Y1082600D01*
X342500Y1082600D02*
X349500Y1082600D01*
X384500Y1082600D02*
X389500Y1082600D01*
X410500Y1082600D02*
X410500Y1082600D01*
X430500Y1082600D02*
X430500Y1082600D01*
X453500Y1082600D02*
X466500Y1082600D01*
X518500Y1082600D02*
X539500Y1082600D01*
X563500Y1082600D02*
X569500Y1082600D01*
X423500Y1049600D02*
X428500Y1049600D01*
X422500Y1048600D02*
X429500Y1048600D01*
X262500Y1047600D02*
X264500Y1047600D01*
X283500Y1047600D02*
X285500Y1047600D01*
X422500Y1047600D02*
X429500Y1047600D01*
X568500Y1047600D02*
X581500Y1047600D01*
X646500Y1047600D02*
X665500Y1047600D01*
X684500Y1047600D02*
X704500Y1047600D01*
X261500Y1046600D02*
X265500Y1046600D01*
X282500Y1046600D02*
X286500Y1046600D01*
X422500Y1046600D02*
X429500Y1046600D01*
X567500Y1046600D02*
X582500Y1046600D01*
X645500Y1046600D02*
X667500Y1046600D01*
X683500Y1046600D02*
X705500Y1046600D01*
X261500Y1045600D02*
X265500Y1045600D01*
X282500Y1045600D02*
X286500Y1045600D01*
X422500Y1045600D02*
X429500Y1045600D01*
X567500Y1045600D02*
X582500Y1045600D01*
X644500Y1045600D02*
X668500Y1045600D01*
X682500Y1045600D02*
X706500Y1045600D01*
X261500Y1044600D02*
X265500Y1044600D01*
X282500Y1044600D02*
X286500Y1044600D01*
X422500Y1044600D02*
X429500Y1044600D01*
X567500Y1044600D02*
X582500Y1044600D01*
X643500Y1044600D02*
X668500Y1044600D01*
X682500Y1044600D02*
X706500Y1044600D01*
X261500Y1043600D02*
X265500Y1043600D01*
X282500Y1043600D02*
X286500Y1043600D01*
X423500Y1043600D02*
X428500Y1043600D01*
X568500Y1043600D02*
X582500Y1043600D01*
X643500Y1043600D02*
X668500Y1043600D01*
X681500Y1043600D02*
X707500Y1043600D01*
X261500Y1042600D02*
X265500Y1042600D01*
X282500Y1042600D02*
X286500Y1042600D01*
X577500Y1042600D02*
X582500Y1042600D01*
X643500Y1042600D02*
X648500Y1042600D01*
X664500Y1042600D02*
X668500Y1042600D01*
X681500Y1042600D02*
X686500Y1042600D01*
X702500Y1042600D02*
X707500Y1042600D01*
X261500Y1041600D02*
X265500Y1041600D01*
X282500Y1041600D02*
X286500Y1041600D01*
X577500Y1041600D02*
X582500Y1041600D01*
X643500Y1041600D02*
X647500Y1041600D01*
X664500Y1041600D02*
X669500Y1041600D01*
X681500Y1041600D02*
X686500Y1041600D01*
X702500Y1041600D02*
X707500Y1041600D01*
X261500Y1040600D02*
X265500Y1040600D01*
X282500Y1040600D02*
X286500Y1040600D01*
X577500Y1040600D02*
X582500Y1040600D01*
X643500Y1040600D02*
X647500Y1040600D01*
X664500Y1040600D02*
X669500Y1040600D01*
X681500Y1040600D02*
X686500Y1040600D01*
X702500Y1040600D02*
X707500Y1040600D01*
X261500Y1039600D02*
X265500Y1039600D01*
X282500Y1039600D02*
X286500Y1039600D01*
X577500Y1039600D02*
X582500Y1039600D01*
X643500Y1039600D02*
X647500Y1039600D01*
X664500Y1039600D02*
X669500Y1039600D01*
X681500Y1039600D02*
X686500Y1039600D01*
X702500Y1039600D02*
X707500Y1039600D01*
X261500Y1038600D02*
X265500Y1038600D01*
X282500Y1038600D02*
X286500Y1038600D01*
X577500Y1038600D02*
X582500Y1038600D01*
X643500Y1038600D02*
X647500Y1038600D01*
X664500Y1038600D02*
X669500Y1038600D01*
X681500Y1038600D02*
X686500Y1038600D01*
X702500Y1038600D02*
X707500Y1038600D01*
X261500Y1037600D02*
X265500Y1037600D01*
X282500Y1037600D02*
X286500Y1037600D01*
X577500Y1037600D02*
X582500Y1037600D01*
X643500Y1037600D02*
X647500Y1037600D01*
X664500Y1037600D02*
X669500Y1037600D01*
X681500Y1037600D02*
X686500Y1037600D01*
X702500Y1037600D02*
X707500Y1037600D01*
X261500Y1036600D02*
X266500Y1036600D01*
X282500Y1036600D02*
X286500Y1036600D01*
X307500Y1036600D02*
X317500Y1036600D01*
X339500Y1036600D02*
X340500Y1036600D01*
X349500Y1036600D02*
X358500Y1036600D01*
X381500Y1036600D02*
X395500Y1036600D01*
X418500Y1036600D02*
X427500Y1036600D01*
X460500Y1036600D02*
X470500Y1036600D01*
X492500Y1036600D02*
X494500Y1036600D01*
X503500Y1036600D02*
X510500Y1036600D01*
X577500Y1036600D02*
X582500Y1036600D01*
X643500Y1036600D02*
X647500Y1036600D01*
X664500Y1036600D02*
X669500Y1036600D01*
X681500Y1036600D02*
X686500Y1036600D01*
X702500Y1036600D02*
X707500Y1036600D01*
X261500Y1035600D02*
X266500Y1035600D01*
X282500Y1035600D02*
X286500Y1035600D01*
X305500Y1035600D02*
X319500Y1035600D01*
X338500Y1035600D02*
X341500Y1035600D01*
X348500Y1035600D02*
X360500Y1035600D01*
X379500Y1035600D02*
X398500Y1035600D01*
X417500Y1035600D02*
X428500Y1035600D01*
X458500Y1035600D02*
X472500Y1035600D01*
X491500Y1035600D02*
X495500Y1035600D01*
X501500Y1035600D02*
X512500Y1035600D01*
X577500Y1035600D02*
X582500Y1035600D01*
X643500Y1035600D02*
X647500Y1035600D01*
X664500Y1035600D02*
X669500Y1035600D01*
X681500Y1035600D02*
X686500Y1035600D01*
X702500Y1035600D02*
X707500Y1035600D01*
X262500Y1034600D02*
X266500Y1034600D01*
X281500Y1034600D02*
X286500Y1034600D01*
X303500Y1034600D02*
X321500Y1034600D01*
X337500Y1034600D02*
X342500Y1034600D01*
X347500Y1034600D02*
X361500Y1034600D01*
X378500Y1034600D02*
X399500Y1034600D01*
X417500Y1034600D02*
X429500Y1034600D01*
X456500Y1034600D02*
X473500Y1034600D01*
X491500Y1034600D02*
X495500Y1034600D01*
X499500Y1034600D02*
X513500Y1034600D01*
X577500Y1034600D02*
X582500Y1034600D01*
X643500Y1034600D02*
X647500Y1034600D01*
X664500Y1034600D02*
X669500Y1034600D01*
X681500Y1034600D02*
X686500Y1034600D01*
X702500Y1034600D02*
X707500Y1034600D01*
X262500Y1033600D02*
X267500Y1033600D01*
X281500Y1033600D02*
X285500Y1033600D01*
X302500Y1033600D02*
X322500Y1033600D01*
X337500Y1033600D02*
X342500Y1033600D01*
X346500Y1033600D02*
X362500Y1033600D01*
X377500Y1033600D02*
X400500Y1033600D01*
X417500Y1033600D02*
X429500Y1033600D01*
X455500Y1033600D02*
X475500Y1033600D01*
X491500Y1033600D02*
X495500Y1033600D01*
X498500Y1033600D02*
X514500Y1033600D01*
X577500Y1033600D02*
X582500Y1033600D01*
X643500Y1033600D02*
X647500Y1033600D01*
X664500Y1033600D02*
X669500Y1033600D01*
X681500Y1033600D02*
X686500Y1033600D01*
X702500Y1033600D02*
X707500Y1033600D01*
X262500Y1032600D02*
X267500Y1032600D01*
X280500Y1032600D02*
X285500Y1032600D01*
X301500Y1032600D02*
X323500Y1032600D01*
X337500Y1032600D02*
X342500Y1032600D01*
X345500Y1032600D02*
X362500Y1032600D01*
X377500Y1032600D02*
X400500Y1032600D01*
X417500Y1032600D02*
X429500Y1032600D01*
X454500Y1032600D02*
X475500Y1032600D01*
X491500Y1032600D02*
X515500Y1032600D01*
X577500Y1032600D02*
X582500Y1032600D01*
X643500Y1032600D02*
X647500Y1032600D01*
X664500Y1032600D02*
X669500Y1032600D01*
X681500Y1032600D02*
X686500Y1032600D01*
X702500Y1032600D02*
X707500Y1032600D01*
X263500Y1031600D02*
X267500Y1031600D01*
X280500Y1031600D02*
X285500Y1031600D01*
X301500Y1031600D02*
X323500Y1031600D01*
X337500Y1031600D02*
X363500Y1031600D01*
X376500Y1031600D02*
X400500Y1031600D01*
X419500Y1031600D02*
X429500Y1031600D01*
X453500Y1031600D02*
X476500Y1031600D01*
X491500Y1031600D02*
X515500Y1031600D01*
X577500Y1031600D02*
X582500Y1031600D01*
X643500Y1031600D02*
X647500Y1031600D01*
X664500Y1031600D02*
X669500Y1031600D01*
X681500Y1031600D02*
X686500Y1031600D01*
X702500Y1031600D02*
X707500Y1031600D01*
X263500Y1030600D02*
X268500Y1030600D01*
X280500Y1030600D02*
X284500Y1030600D01*
X300500Y1030600D02*
X306500Y1030600D01*
X318500Y1030600D02*
X324500Y1030600D01*
X337500Y1030600D02*
X349500Y1030600D01*
X358500Y1030600D02*
X363500Y1030600D01*
X376500Y1030600D02*
X381500Y1030600D01*
X396500Y1030600D02*
X400500Y1030600D01*
X424500Y1030600D02*
X429500Y1030600D01*
X453500Y1030600D02*
X459500Y1030600D01*
X471500Y1030600D02*
X477500Y1030600D01*
X491500Y1030600D02*
X502500Y1030600D01*
X510500Y1030600D02*
X515500Y1030600D01*
X577500Y1030600D02*
X582500Y1030600D01*
X643500Y1030600D02*
X647500Y1030600D01*
X664500Y1030600D02*
X669500Y1030600D01*
X681500Y1030600D02*
X686500Y1030600D01*
X702500Y1030600D02*
X707500Y1030600D01*
X263500Y1029600D02*
X268500Y1029600D01*
X279500Y1029600D02*
X284500Y1029600D01*
X300500Y1029600D02*
X305500Y1029600D01*
X319500Y1029600D02*
X324500Y1029600D01*
X337500Y1029600D02*
X348500Y1029600D01*
X358500Y1029600D02*
X363500Y1029600D01*
X376500Y1029600D02*
X381500Y1029600D01*
X398500Y1029600D02*
X399500Y1029600D01*
X424500Y1029600D02*
X429500Y1029600D01*
X452500Y1029600D02*
X458500Y1029600D01*
X472500Y1029600D02*
X477500Y1029600D01*
X491500Y1029600D02*
X501500Y1029600D01*
X511500Y1029600D02*
X515500Y1029600D01*
X577500Y1029600D02*
X582500Y1029600D01*
X643500Y1029600D02*
X647500Y1029600D01*
X664500Y1029600D02*
X669500Y1029600D01*
X681500Y1029600D02*
X686500Y1029600D01*
X702500Y1029600D02*
X707500Y1029600D01*
X264500Y1028600D02*
X269500Y1028600D01*
X279500Y1028600D02*
X284500Y1028600D01*
X299500Y1028600D02*
X304500Y1028600D01*
X320500Y1028600D02*
X325500Y1028600D01*
X337500Y1028600D02*
X347500Y1028600D01*
X359500Y1028600D02*
X363500Y1028600D01*
X377500Y1028600D02*
X382500Y1028600D01*
X424500Y1028600D02*
X429500Y1028600D01*
X452500Y1028600D02*
X457500Y1028600D01*
X473500Y1028600D02*
X477500Y1028600D01*
X491500Y1028600D02*
X499500Y1028600D01*
X511500Y1028600D02*
X515500Y1028600D01*
X577500Y1028600D02*
X582500Y1028600D01*
X643500Y1028600D02*
X647500Y1028600D01*
X664500Y1028600D02*
X669500Y1028600D01*
X681500Y1028600D02*
X686500Y1028600D01*
X702500Y1028600D02*
X707500Y1028600D01*
X264500Y1027600D02*
X269500Y1027600D01*
X278500Y1027600D02*
X283500Y1027600D01*
X299500Y1027600D02*
X304500Y1027600D01*
X320500Y1027600D02*
X325500Y1027600D01*
X337500Y1027600D02*
X346500Y1027600D01*
X359500Y1027600D02*
X363500Y1027600D01*
X377500Y1027600D02*
X384500Y1027600D01*
X424500Y1027600D02*
X429500Y1027600D01*
X452500Y1027600D02*
X457500Y1027600D01*
X473500Y1027600D02*
X477500Y1027600D01*
X491500Y1027600D02*
X497500Y1027600D01*
X511500Y1027600D02*
X515500Y1027600D01*
X577500Y1027600D02*
X582500Y1027600D01*
X643500Y1027600D02*
X647500Y1027600D01*
X664500Y1027600D02*
X669500Y1027600D01*
X681500Y1027600D02*
X686500Y1027600D01*
X702500Y1027600D02*
X707500Y1027600D01*
X265500Y1026600D02*
X269500Y1026600D01*
X278500Y1026600D02*
X283500Y1026600D01*
X299500Y1026600D02*
X304500Y1026600D01*
X320500Y1026600D02*
X325500Y1026600D01*
X337500Y1026600D02*
X345500Y1026600D01*
X359500Y1026600D02*
X363500Y1026600D01*
X377500Y1026600D02*
X386500Y1026600D01*
X424500Y1026600D02*
X429500Y1026600D01*
X452500Y1026600D02*
X456500Y1026600D01*
X473500Y1026600D02*
X478500Y1026600D01*
X491500Y1026600D02*
X496500Y1026600D01*
X511500Y1026600D02*
X515500Y1026600D01*
X577500Y1026600D02*
X582500Y1026600D01*
X643500Y1026600D02*
X647500Y1026600D01*
X664500Y1026600D02*
X669500Y1026600D01*
X681500Y1026600D02*
X686500Y1026600D01*
X702500Y1026600D02*
X707500Y1026600D01*
X265500Y1025600D02*
X270500Y1025600D01*
X278500Y1025600D02*
X282500Y1025600D01*
X299500Y1025600D02*
X304500Y1025600D01*
X320500Y1025600D02*
X325500Y1025600D01*
X337500Y1025600D02*
X344500Y1025600D01*
X360500Y1025600D02*
X361500Y1025600D01*
X378500Y1025600D02*
X389500Y1025600D01*
X424500Y1025600D02*
X429500Y1025600D01*
X452500Y1025600D02*
X456500Y1025600D01*
X473500Y1025600D02*
X478500Y1025600D01*
X491500Y1025600D02*
X495500Y1025600D01*
X511500Y1025600D02*
X515500Y1025600D01*
X577500Y1025600D02*
X582500Y1025600D01*
X643500Y1025600D02*
X647500Y1025600D01*
X664500Y1025600D02*
X669500Y1025600D01*
X681500Y1025600D02*
X686500Y1025600D01*
X702500Y1025600D02*
X707500Y1025600D01*
X265500Y1024600D02*
X270500Y1024600D01*
X277500Y1024600D02*
X282500Y1024600D01*
X299500Y1024600D02*
X304500Y1024600D01*
X320500Y1024600D02*
X325500Y1024600D01*
X337500Y1024600D02*
X342500Y1024600D01*
X379500Y1024600D02*
X391500Y1024600D01*
X424500Y1024600D02*
X429500Y1024600D01*
X452500Y1024600D02*
X456500Y1024600D01*
X473500Y1024600D02*
X478500Y1024600D01*
X491500Y1024600D02*
X495500Y1024600D01*
X511500Y1024600D02*
X515500Y1024600D01*
X577500Y1024600D02*
X582500Y1024600D01*
X643500Y1024600D02*
X647500Y1024600D01*
X664500Y1024600D02*
X669500Y1024600D01*
X681500Y1024600D02*
X686500Y1024600D01*
X702500Y1024600D02*
X707500Y1024600D01*
X266500Y1023600D02*
X271500Y1023600D01*
X277500Y1023600D02*
X282500Y1023600D01*
X299500Y1023600D02*
X325500Y1023600D01*
X337500Y1023600D02*
X342500Y1023600D01*
X381500Y1023600D02*
X393500Y1023600D01*
X424500Y1023600D02*
X429500Y1023600D01*
X452500Y1023600D02*
X456500Y1023600D01*
X473500Y1023600D02*
X478500Y1023600D01*
X491500Y1023600D02*
X495500Y1023600D01*
X511500Y1023600D02*
X515500Y1023600D01*
X577500Y1023600D02*
X582500Y1023600D01*
X643500Y1023600D02*
X647500Y1023600D01*
X664500Y1023600D02*
X669500Y1023600D01*
X681500Y1023600D02*
X686500Y1023600D01*
X702500Y1023600D02*
X707500Y1023600D01*
X266500Y1022600D02*
X271500Y1022600D01*
X276500Y1022600D02*
X281500Y1022600D01*
X299500Y1022600D02*
X325500Y1022600D01*
X337500Y1022600D02*
X342500Y1022600D01*
X383500Y1022600D02*
X396500Y1022600D01*
X424500Y1022600D02*
X429500Y1022600D01*
X452500Y1022600D02*
X456500Y1022600D01*
X473500Y1022600D02*
X478500Y1022600D01*
X491500Y1022600D02*
X495500Y1022600D01*
X511500Y1022600D02*
X515500Y1022600D01*
X577500Y1022600D02*
X582500Y1022600D01*
X589500Y1022600D02*
X590500Y1022600D01*
X643500Y1022600D02*
X647500Y1022600D01*
X664500Y1022600D02*
X669500Y1022600D01*
X681500Y1022600D02*
X686500Y1022600D01*
X702500Y1022600D02*
X707500Y1022600D01*
X267500Y1021600D02*
X271500Y1021600D01*
X276500Y1021600D02*
X281500Y1021600D01*
X299500Y1021600D02*
X325500Y1021600D01*
X337500Y1021600D02*
X342500Y1021600D01*
X386500Y1021600D02*
X397500Y1021600D01*
X424500Y1021600D02*
X429500Y1021600D01*
X452500Y1021600D02*
X456500Y1021600D01*
X473500Y1021600D02*
X478500Y1021600D01*
X491500Y1021600D02*
X495500Y1021600D01*
X511500Y1021600D02*
X515500Y1021600D01*
X577500Y1021600D02*
X582500Y1021600D01*
X588500Y1021600D02*
X592500Y1021600D01*
X643500Y1021600D02*
X647500Y1021600D01*
X664500Y1021600D02*
X669500Y1021600D01*
X681500Y1021600D02*
X686500Y1021600D01*
X702500Y1021600D02*
X707500Y1021600D01*
X267500Y1020600D02*
X272500Y1020600D01*
X276500Y1020600D02*
X280500Y1020600D01*
X299500Y1020600D02*
X324500Y1020600D01*
X337500Y1020600D02*
X342500Y1020600D01*
X388500Y1020600D02*
X399500Y1020600D01*
X424500Y1020600D02*
X429500Y1020600D01*
X452500Y1020600D02*
X456500Y1020600D01*
X473500Y1020600D02*
X478500Y1020600D01*
X491500Y1020600D02*
X495500Y1020600D01*
X511500Y1020600D02*
X515500Y1020600D01*
X577500Y1020600D02*
X582500Y1020600D01*
X588500Y1020600D02*
X592500Y1020600D01*
X615500Y1020600D02*
X620500Y1020600D01*
X643500Y1020600D02*
X647500Y1020600D01*
X664500Y1020600D02*
X669500Y1020600D01*
X681500Y1020600D02*
X686500Y1020600D01*
X702500Y1020600D02*
X707500Y1020600D01*
X267500Y1019600D02*
X272500Y1019600D01*
X275500Y1019600D02*
X280500Y1019600D01*
X299500Y1019600D02*
X323500Y1019600D01*
X337500Y1019600D02*
X342500Y1019600D01*
X390500Y1019600D02*
X400500Y1019600D01*
X424500Y1019600D02*
X429500Y1019600D01*
X452500Y1019600D02*
X456500Y1019600D01*
X473500Y1019600D02*
X478500Y1019600D01*
X491500Y1019600D02*
X495500Y1019600D01*
X511500Y1019600D02*
X515500Y1019600D01*
X577500Y1019600D02*
X582500Y1019600D01*
X588500Y1019600D02*
X592500Y1019600D01*
X613500Y1019600D02*
X622500Y1019600D01*
X643500Y1019600D02*
X647500Y1019600D01*
X664500Y1019600D02*
X669500Y1019600D01*
X681500Y1019600D02*
X686500Y1019600D01*
X702500Y1019600D02*
X707500Y1019600D01*
X268500Y1018600D02*
X273500Y1018600D01*
X275500Y1018600D02*
X280500Y1018600D01*
X299500Y1018600D02*
X304500Y1018600D01*
X337500Y1018600D02*
X342500Y1018600D01*
X393500Y1018600D02*
X400500Y1018600D01*
X424500Y1018600D02*
X429500Y1018600D01*
X452500Y1018600D02*
X456500Y1018600D01*
X473500Y1018600D02*
X478500Y1018600D01*
X491500Y1018600D02*
X495500Y1018600D01*
X511500Y1018600D02*
X515500Y1018600D01*
X577500Y1018600D02*
X582500Y1018600D01*
X588500Y1018600D02*
X592500Y1018600D01*
X613500Y1018600D02*
X622500Y1018600D01*
X643500Y1018600D02*
X647500Y1018600D01*
X664500Y1018600D02*
X669500Y1018600D01*
X681500Y1018600D02*
X686500Y1018600D01*
X702500Y1018600D02*
X707500Y1018600D01*
X268500Y1017600D02*
X279500Y1017600D01*
X299500Y1017600D02*
X304500Y1017600D01*
X337500Y1017600D02*
X342500Y1017600D01*
X395500Y1017600D02*
X401500Y1017600D01*
X424500Y1017600D02*
X429500Y1017600D01*
X452500Y1017600D02*
X456500Y1017600D01*
X473500Y1017600D02*
X478500Y1017600D01*
X491500Y1017600D02*
X495500Y1017600D01*
X511500Y1017600D02*
X515500Y1017600D01*
X577500Y1017600D02*
X582500Y1017600D01*
X588500Y1017600D02*
X592500Y1017600D01*
X613500Y1017600D02*
X622500Y1017600D01*
X643500Y1017600D02*
X647500Y1017600D01*
X664500Y1017600D02*
X669500Y1017600D01*
X681500Y1017600D02*
X686500Y1017600D01*
X702500Y1017600D02*
X707500Y1017600D01*
X268500Y1016600D02*
X279500Y1016600D01*
X299500Y1016600D02*
X304500Y1016600D01*
X337500Y1016600D02*
X342500Y1016600D01*
X396500Y1016600D02*
X401500Y1016600D01*
X424500Y1016600D02*
X429500Y1016600D01*
X452500Y1016600D02*
X456500Y1016600D01*
X473500Y1016600D02*
X478500Y1016600D01*
X491500Y1016600D02*
X495500Y1016600D01*
X511500Y1016600D02*
X515500Y1016600D01*
X577500Y1016600D02*
X582500Y1016600D01*
X588500Y1016600D02*
X592500Y1016600D01*
X613500Y1016600D02*
X622500Y1016600D01*
X643500Y1016600D02*
X647500Y1016600D01*
X664500Y1016600D02*
X669500Y1016600D01*
X681500Y1016600D02*
X686500Y1016600D01*
X702500Y1016600D02*
X707500Y1016600D01*
X269500Y1015600D02*
X278500Y1015600D01*
X299500Y1015600D02*
X304500Y1015600D01*
X337500Y1015600D02*
X342500Y1015600D01*
X396500Y1015600D02*
X401500Y1015600D01*
X424500Y1015600D02*
X429500Y1015600D01*
X452500Y1015600D02*
X457500Y1015600D01*
X473500Y1015600D02*
X477500Y1015600D01*
X491500Y1015600D02*
X495500Y1015600D01*
X511500Y1015600D02*
X515500Y1015600D01*
X577500Y1015600D02*
X582500Y1015600D01*
X588500Y1015600D02*
X592500Y1015600D01*
X613500Y1015600D02*
X622500Y1015600D01*
X643500Y1015600D02*
X647500Y1015600D01*
X664500Y1015600D02*
X669500Y1015600D01*
X681500Y1015600D02*
X686500Y1015600D01*
X702500Y1015600D02*
X707500Y1015600D01*
X269500Y1014600D02*
X278500Y1014600D01*
X299500Y1014600D02*
X304500Y1014600D01*
X337500Y1014600D02*
X342500Y1014600D01*
X397500Y1014600D02*
X401500Y1014600D01*
X424500Y1014600D02*
X429500Y1014600D01*
X452500Y1014600D02*
X457500Y1014600D01*
X472500Y1014600D02*
X477500Y1014600D01*
X491500Y1014600D02*
X495500Y1014600D01*
X511500Y1014600D02*
X515500Y1014600D01*
X577500Y1014600D02*
X582500Y1014600D01*
X588500Y1014600D02*
X592500Y1014600D01*
X613500Y1014600D02*
X622500Y1014600D01*
X643500Y1014600D02*
X647500Y1014600D01*
X664500Y1014600D02*
X669500Y1014600D01*
X681500Y1014600D02*
X686500Y1014600D01*
X702500Y1014600D02*
X707500Y1014600D01*
X270500Y1013600D02*
X278500Y1013600D01*
X300500Y1013600D02*
X305500Y1013600D01*
X337500Y1013600D02*
X342500Y1013600D01*
X377500Y1013600D02*
X379500Y1013600D01*
X396500Y1013600D02*
X401500Y1013600D01*
X424500Y1013600D02*
X429500Y1013600D01*
X453500Y1013600D02*
X458500Y1013600D01*
X471500Y1013600D02*
X477500Y1013600D01*
X491500Y1013600D02*
X495500Y1013600D01*
X511500Y1013600D02*
X515500Y1013600D01*
X577500Y1013600D02*
X582500Y1013600D01*
X588500Y1013600D02*
X592500Y1013600D01*
X613500Y1013600D02*
X622500Y1013600D01*
X643500Y1013600D02*
X647500Y1013600D01*
X664500Y1013600D02*
X669500Y1013600D01*
X681500Y1013600D02*
X686500Y1013600D01*
X702500Y1013600D02*
X707500Y1013600D01*
X270500Y1012600D02*
X277500Y1012600D01*
X300500Y1012600D02*
X307500Y1012600D01*
X337500Y1012600D02*
X342500Y1012600D01*
X376500Y1012600D02*
X381500Y1012600D01*
X395500Y1012600D02*
X401500Y1012600D01*
X424500Y1012600D02*
X429500Y1012600D01*
X453500Y1012600D02*
X460500Y1012600D01*
X470500Y1012600D02*
X476500Y1012600D01*
X491500Y1012600D02*
X495500Y1012600D01*
X511500Y1012600D02*
X515500Y1012600D01*
X577500Y1012600D02*
X582500Y1012600D01*
X588500Y1012600D02*
X592500Y1012600D01*
X613500Y1012600D02*
X622500Y1012600D01*
X643500Y1012600D02*
X647500Y1012600D01*
X664500Y1012600D02*
X669500Y1012600D01*
X681500Y1012600D02*
X686500Y1012600D01*
X702500Y1012600D02*
X707500Y1012600D01*
X270500Y1011600D02*
X277500Y1011600D01*
X301500Y1011600D02*
X323500Y1011600D01*
X337500Y1011600D02*
X342500Y1011600D01*
X376500Y1011600D02*
X400500Y1011600D01*
X418500Y1011600D02*
X435500Y1011600D01*
X454500Y1011600D02*
X476500Y1011600D01*
X491500Y1011600D02*
X495500Y1011600D01*
X511500Y1011600D02*
X515500Y1011600D01*
X568500Y1011600D02*
X592500Y1011600D01*
X614500Y1011600D02*
X622500Y1011600D01*
X643500Y1011600D02*
X668500Y1011600D01*
X681500Y1011600D02*
X707500Y1011600D01*
X271500Y1010600D02*
X277500Y1010600D01*
X302500Y1010600D02*
X324500Y1010600D01*
X337500Y1010600D02*
X342500Y1010600D01*
X376500Y1010600D02*
X400500Y1010600D01*
X417500Y1010600D02*
X436500Y1010600D01*
X455500Y1010600D02*
X475500Y1010600D01*
X491500Y1010600D02*
X495500Y1010600D01*
X511500Y1010600D02*
X515500Y1010600D01*
X567500Y1010600D02*
X592500Y1010600D01*
X643500Y1010600D02*
X668500Y1010600D01*
X682500Y1010600D02*
X706500Y1010600D01*
X271500Y1009600D02*
X276500Y1009600D01*
X303500Y1009600D02*
X325500Y1009600D01*
X337500Y1009600D02*
X342500Y1009600D01*
X377500Y1009600D02*
X399500Y1009600D01*
X417500Y1009600D02*
X437500Y1009600D01*
X456500Y1009600D02*
X474500Y1009600D01*
X491500Y1009600D02*
X495500Y1009600D01*
X511500Y1009600D02*
X515500Y1009600D01*
X567500Y1009600D02*
X592500Y1009600D01*
X644500Y1009600D02*
X668500Y1009600D01*
X682500Y1009600D02*
X706500Y1009600D01*
X272500Y1008600D02*
X276500Y1008600D01*
X304500Y1008600D02*
X324500Y1008600D01*
X338500Y1008600D02*
X342500Y1008600D01*
X378500Y1008600D02*
X398500Y1008600D01*
X417500Y1008600D02*
X436500Y1008600D01*
X457500Y1008600D02*
X472500Y1008600D01*
X491500Y1008600D02*
X495500Y1008600D01*
X511500Y1008600D02*
X515500Y1008600D01*
X567500Y1008600D02*
X592500Y1008600D01*
X645500Y1008600D02*
X667500Y1008600D01*
X683500Y1008600D02*
X705500Y1008600D01*
X272500Y1007600D02*
X275500Y1007600D01*
X306500Y1007600D02*
X324500Y1007600D01*
X338500Y1007600D02*
X341500Y1007600D01*
X380500Y1007600D02*
X396500Y1007600D01*
X417500Y1007600D02*
X436500Y1007600D01*
X459500Y1007600D02*
X471500Y1007600D01*
X491500Y1007600D02*
X494500Y1007600D01*
X512500Y1007600D02*
X514500Y1007600D01*
X567500Y1007600D02*
X591500Y1007600D01*
X646500Y1007600D02*
X666500Y1007600D01*
X684500Y1007600D02*
X704500Y1007600D01*
X79500Y849600D02*
X81500Y849600D01*
X78500Y848600D02*
X82500Y848600D01*
X68500Y847600D02*
X68500Y847600D01*
X79500Y847600D02*
X83500Y847600D01*
X67500Y846600D02*
X69500Y846600D01*
X81500Y846600D02*
X83500Y846600D01*
X67500Y845600D02*
X69500Y845600D01*
X81500Y845600D02*
X83500Y845600D01*
X67500Y844600D02*
X69500Y844600D01*
X81500Y844600D02*
X83500Y844600D01*
X67500Y843600D02*
X69500Y843600D01*
X81500Y843600D02*
X83500Y843600D01*
X67500Y842600D02*
X69500Y842600D01*
X81500Y842600D02*
X83500Y842600D01*
X67500Y841600D02*
X69500Y841600D01*
X80500Y841600D02*
X83500Y841600D01*
X62500Y840600D02*
X83500Y840600D01*
X61500Y839600D02*
X82500Y839600D01*
X62500Y838600D02*
X81500Y838600D01*
X67500Y837600D02*
X69500Y837600D01*
X67500Y836600D02*
X69500Y836600D01*
X67500Y835600D02*
X68500Y835600D01*
X61500Y827600D02*
X83500Y827600D01*
X60500Y826600D02*
X83500Y826600D01*
X61500Y825600D02*
X83500Y825600D01*
X68500Y824600D02*
X72500Y824600D01*
X78500Y824600D02*
X81500Y824600D01*
X68500Y823600D02*
X71500Y823600D01*
X79500Y823600D02*
X82500Y823600D01*
X67500Y822600D02*
X70500Y822600D01*
X80500Y822600D02*
X83500Y822600D01*
X67500Y821600D02*
X69500Y821600D01*
X81500Y821600D02*
X83500Y821600D01*
X67500Y820600D02*
X69500Y820600D01*
X81500Y820600D02*
X83500Y820600D01*
X67500Y819600D02*
X69500Y819600D01*
X81500Y819600D02*
X83500Y819600D01*
X67500Y818600D02*
X69500Y818600D01*
X81500Y818600D02*
X83500Y818600D01*
X67500Y817600D02*
X69500Y817600D01*
X81500Y817600D02*
X83500Y817600D01*
X67500Y816600D02*
X70500Y816600D01*
X80500Y816600D02*
X83500Y816600D01*
X68500Y815600D02*
X82500Y815600D01*
X69500Y814600D02*
X81500Y814600D01*
X70500Y813600D02*
X80500Y813600D01*
X70500Y805600D02*
X75500Y805600D01*
X82500Y805600D02*
X83500Y805600D01*
X69500Y804600D02*
X76500Y804600D01*
X81500Y804600D02*
X83500Y804600D01*
X68500Y803600D02*
X76500Y803600D01*
X81500Y803600D02*
X83500Y803600D01*
X67500Y802600D02*
X70500Y802600D01*
X74500Y802600D02*
X76500Y802600D01*
X81500Y802600D02*
X83500Y802600D01*
X67500Y801600D02*
X69500Y801600D01*
X74500Y801600D02*
X76500Y801600D01*
X81500Y801600D02*
X83500Y801600D01*
X67500Y800600D02*
X69500Y800600D01*
X74500Y800600D02*
X76500Y800600D01*
X81500Y800600D02*
X83500Y800600D01*
X830500Y800600D02*
X845500Y800600D01*
X67500Y799600D02*
X69500Y799600D01*
X74500Y799600D02*
X76500Y799600D01*
X81500Y799600D02*
X83500Y799600D01*
X830500Y799600D02*
X846500Y799600D01*
X67500Y798600D02*
X69500Y798600D01*
X74500Y798600D02*
X76500Y798600D01*
X81500Y798600D02*
X83500Y798600D01*
X829500Y798600D02*
X846500Y798600D01*
X67500Y797600D02*
X69500Y797600D01*
X74500Y797600D02*
X76500Y797600D01*
X81500Y797600D02*
X83500Y797600D01*
X829500Y797600D02*
X846500Y797600D01*
X67500Y796600D02*
X69500Y796600D01*
X74500Y796600D02*
X76500Y796600D01*
X81500Y796600D02*
X83500Y796600D01*
X829500Y796600D02*
X846500Y796600D01*
X67500Y795600D02*
X69500Y795600D01*
X74500Y795600D02*
X76500Y795600D01*
X81500Y795600D02*
X83500Y795600D01*
X829500Y795600D02*
X847500Y795600D01*
X67500Y794600D02*
X70500Y794600D01*
X74500Y794600D02*
X76500Y794600D01*
X80500Y794600D02*
X83500Y794600D01*
X829500Y794600D02*
X847500Y794600D01*
X68500Y793600D02*
X82500Y793600D01*
X828500Y793600D02*
X847500Y793600D01*
X68500Y792600D02*
X81500Y792600D01*
X828500Y792600D02*
X847500Y792600D01*
X70500Y791600D02*
X80500Y791600D01*
X828500Y791600D02*
X847500Y791600D01*
X828500Y790600D02*
X847500Y790600D01*
X828500Y789600D02*
X848500Y789600D01*
X828500Y788600D02*
X848500Y788600D01*
X800500Y787600D02*
X802500Y787600D01*
X827500Y787600D02*
X848500Y787600D01*
X873500Y787600D02*
X875500Y787600D01*
X799500Y786600D02*
X803500Y786600D01*
X827500Y786600D02*
X848500Y786600D01*
X872500Y786600D02*
X876500Y786600D01*
X798500Y785600D02*
X805500Y785600D01*
X827500Y785600D02*
X848500Y785600D01*
X871500Y785600D02*
X877500Y785600D01*
X797500Y784600D02*
X806500Y784600D01*
X827500Y784600D02*
X849500Y784600D01*
X869500Y784600D02*
X878500Y784600D01*
X79500Y783600D02*
X80500Y783600D01*
X796500Y783600D02*
X808500Y783600D01*
X826500Y783600D02*
X850500Y783600D01*
X868500Y783600D02*
X879500Y783600D01*
X78500Y782600D02*
X82500Y782600D01*
X795500Y782600D02*
X809500Y782600D01*
X823500Y782600D02*
X852500Y782600D01*
X866500Y782600D02*
X880500Y782600D01*
X79500Y781600D02*
X82500Y781600D01*
X794500Y781600D02*
X811500Y781600D01*
X821500Y781600D02*
X854500Y781600D01*
X865500Y781600D02*
X881500Y781600D01*
X67500Y780600D02*
X68500Y780600D01*
X80500Y780600D02*
X83500Y780600D01*
X793500Y780600D02*
X812500Y780600D01*
X818500Y780600D02*
X857500Y780600D01*
X863500Y780600D02*
X882500Y780600D01*
X67500Y779600D02*
X69500Y779600D01*
X81500Y779600D02*
X83500Y779600D01*
X792500Y779600D02*
X814500Y779600D01*
X816500Y779600D02*
X859500Y779600D01*
X862500Y779600D02*
X883500Y779600D01*
X67500Y778600D02*
X69500Y778600D01*
X81500Y778600D02*
X83500Y778600D01*
X791500Y778600D02*
X884500Y778600D01*
X67500Y777600D02*
X69500Y777600D01*
X81500Y777600D02*
X83500Y777600D01*
X790500Y777600D02*
X885500Y777600D01*
X67500Y776600D02*
X69500Y776600D01*
X81500Y776600D02*
X83500Y776600D01*
X790500Y776600D02*
X886500Y776600D01*
X67500Y775600D02*
X69500Y775600D01*
X81500Y775600D02*
X83500Y775600D01*
X790500Y775600D02*
X885500Y775600D01*
X63500Y774600D02*
X83500Y774600D01*
X791500Y774600D02*
X884500Y774600D01*
X62500Y773600D02*
X82500Y773600D01*
X792500Y773600D02*
X884500Y773600D01*
X62500Y772600D02*
X81500Y772600D01*
X792500Y772600D02*
X883500Y772600D01*
X63500Y771600D02*
X78500Y771600D01*
X793500Y771600D02*
X882500Y771600D01*
X67500Y770600D02*
X69500Y770600D01*
X794500Y770600D02*
X882500Y770600D01*
X67500Y769600D02*
X69500Y769600D01*
X794500Y769600D02*
X881500Y769600D01*
X795500Y768600D02*
X880500Y768600D01*
X796500Y767600D02*
X880500Y767600D01*
X796500Y766600D02*
X879500Y766600D01*
X797500Y765600D02*
X878500Y765600D01*
X798500Y764600D02*
X878500Y764600D01*
X798500Y763600D02*
X877500Y763600D01*
X798500Y762600D02*
X877500Y762600D01*
X79500Y761600D02*
X79500Y761600D01*
X336500Y761600D02*
X361500Y761600D01*
X383500Y761600D02*
X392500Y761600D01*
X414500Y761600D02*
X423500Y761600D01*
X437500Y761600D02*
X468500Y761600D01*
X487500Y761600D02*
X516500Y761600D01*
X543500Y761600D02*
X562500Y761600D01*
X590500Y761600D02*
X616500Y761600D01*
X798500Y761600D02*
X877500Y761600D01*
X68500Y760600D02*
X70500Y760600D01*
X76500Y760600D02*
X81500Y760600D01*
X336500Y760600D02*
X363500Y760600D01*
X383500Y760600D02*
X392500Y760600D01*
X414500Y760600D02*
X423500Y760600D01*
X437500Y760600D02*
X468500Y760600D01*
X487500Y760600D02*
X518500Y760600D01*
X543500Y760600D02*
X563500Y760600D01*
X588500Y760600D02*
X617500Y760600D01*
X798500Y760600D02*
X878500Y760600D01*
X67500Y759600D02*
X70500Y759600D01*
X76500Y759600D02*
X82500Y759600D01*
X336500Y759600D02*
X364500Y759600D01*
X383500Y759600D02*
X393500Y759600D01*
X413500Y759600D02*
X423500Y759600D01*
X437500Y759600D02*
X469500Y759600D01*
X486500Y759600D02*
X518500Y759600D01*
X542500Y759600D02*
X563500Y759600D01*
X587500Y759600D02*
X618500Y759600D01*
X797500Y759600D02*
X878500Y759600D01*
X67500Y758600D02*
X69500Y758600D01*
X75500Y758600D02*
X83500Y758600D01*
X336500Y758600D02*
X366500Y758600D01*
X383500Y758600D02*
X393500Y758600D01*
X413500Y758600D02*
X423500Y758600D01*
X437500Y758600D02*
X469500Y758600D01*
X486500Y758600D02*
X519500Y758600D01*
X542500Y758600D02*
X563500Y758600D01*
X587500Y758600D02*
X619500Y758600D01*
X797500Y758600D02*
X879500Y758600D01*
X67500Y757600D02*
X69500Y757600D01*
X75500Y757600D02*
X77500Y757600D01*
X81500Y757600D02*
X83500Y757600D01*
X336500Y757600D02*
X366500Y757600D01*
X383500Y757600D02*
X394500Y757600D01*
X412500Y757600D02*
X423500Y757600D01*
X437500Y757600D02*
X468500Y757600D01*
X487500Y757600D02*
X519500Y757600D01*
X542500Y757600D02*
X563500Y757600D01*
X586500Y757600D02*
X619500Y757600D01*
X796500Y757600D02*
X879500Y757600D01*
X67500Y756600D02*
X69500Y756600D01*
X74500Y756600D02*
X76500Y756600D01*
X81500Y756600D02*
X83500Y756600D01*
X336500Y756600D02*
X367500Y756600D01*
X383500Y756600D02*
X394500Y756600D01*
X412500Y756600D02*
X423500Y756600D01*
X437500Y756600D02*
X468500Y756600D01*
X487500Y756600D02*
X520500Y756600D01*
X542500Y756600D02*
X563500Y756600D01*
X586500Y756600D02*
X620500Y756600D01*
X796500Y756600D02*
X835500Y756600D01*
X840500Y756600D02*
X879500Y756600D01*
X67500Y755600D02*
X69500Y755600D01*
X74500Y755600D02*
X76500Y755600D01*
X81500Y755600D02*
X83500Y755600D01*
X336500Y755600D02*
X368500Y755600D01*
X383500Y755600D02*
X395500Y755600D01*
X411500Y755600D02*
X423500Y755600D01*
X437500Y755600D02*
X465500Y755600D01*
X490500Y755600D02*
X520500Y755600D01*
X542500Y755600D02*
X563500Y755600D01*
X586500Y755600D02*
X620500Y755600D01*
X795500Y755600D02*
X831500Y755600D01*
X844500Y755600D02*
X880500Y755600D01*
X67500Y754600D02*
X69500Y754600D01*
X73500Y754600D02*
X76500Y754600D01*
X81500Y754600D02*
X83500Y754600D01*
X336500Y754600D02*
X342500Y754600D01*
X360500Y754600D02*
X368500Y754600D01*
X383500Y754600D02*
X395500Y754600D01*
X411500Y754600D02*
X423500Y754600D01*
X437500Y754600D02*
X443500Y754600D01*
X514500Y754600D02*
X520500Y754600D01*
X542500Y754600D02*
X548500Y754600D01*
X557500Y754600D02*
X563500Y754600D01*
X586500Y754600D02*
X592500Y754600D01*
X614500Y754600D02*
X620500Y754600D01*
X795500Y754600D02*
X829500Y754600D01*
X846500Y754600D02*
X880500Y754600D01*
X67500Y753600D02*
X69500Y753600D01*
X73500Y753600D02*
X75500Y753600D01*
X81500Y753600D02*
X83500Y753600D01*
X336500Y753600D02*
X342500Y753600D01*
X362500Y753600D02*
X369500Y753600D01*
X383500Y753600D02*
X396500Y753600D01*
X410500Y753600D02*
X423500Y753600D01*
X437500Y753600D02*
X443500Y753600D01*
X514500Y753600D02*
X520500Y753600D01*
X542500Y753600D02*
X548500Y753600D01*
X557500Y753600D02*
X563500Y753600D01*
X586500Y753600D02*
X592500Y753600D01*
X614500Y753600D02*
X620500Y753600D01*
X795500Y753600D02*
X827500Y753600D01*
X848500Y753600D02*
X881500Y753600D01*
X67500Y752600D02*
X69500Y752600D01*
X72500Y752600D02*
X75500Y752600D01*
X81500Y752600D02*
X83500Y752600D01*
X336500Y752600D02*
X342500Y752600D01*
X362500Y752600D02*
X369500Y752600D01*
X383500Y752600D02*
X396500Y752600D01*
X410500Y752600D02*
X423500Y752600D01*
X437500Y752600D02*
X443500Y752600D01*
X514500Y752600D02*
X520500Y752600D01*
X542500Y752600D02*
X548500Y752600D01*
X557500Y752600D02*
X563500Y752600D01*
X586500Y752600D02*
X592500Y752600D01*
X614500Y752600D02*
X620500Y752600D01*
X794500Y752600D02*
X826500Y752600D01*
X849500Y752600D02*
X881500Y752600D01*
X67500Y751600D02*
X69500Y751600D01*
X72500Y751600D02*
X74500Y751600D01*
X81500Y751600D02*
X83500Y751600D01*
X336500Y751600D02*
X342500Y751600D01*
X363500Y751600D02*
X369500Y751600D01*
X383500Y751600D02*
X397500Y751600D01*
X409500Y751600D02*
X423500Y751600D01*
X437500Y751600D02*
X443500Y751600D01*
X514500Y751600D02*
X520500Y751600D01*
X542500Y751600D02*
X548500Y751600D01*
X557500Y751600D02*
X563500Y751600D01*
X586500Y751600D02*
X592500Y751600D01*
X614500Y751600D02*
X620500Y751600D01*
X794500Y751600D02*
X825500Y751600D01*
X850500Y751600D02*
X882500Y751600D01*
X67500Y750600D02*
X69500Y750600D01*
X71500Y750600D02*
X74500Y750600D01*
X81500Y750600D02*
X83500Y750600D01*
X336500Y750600D02*
X342500Y750600D01*
X363500Y750600D02*
X370500Y750600D01*
X383500Y750600D02*
X397500Y750600D01*
X409500Y750600D02*
X423500Y750600D01*
X437500Y750600D02*
X443500Y750600D01*
X514500Y750600D02*
X520500Y750600D01*
X542500Y750600D02*
X548500Y750600D01*
X557500Y750600D02*
X563500Y750600D01*
X586500Y750600D02*
X592500Y750600D01*
X614500Y750600D02*
X620500Y750600D01*
X790500Y750600D02*
X824500Y750600D01*
X851500Y750600D02*
X886500Y750600D01*
X67500Y749600D02*
X73500Y749600D01*
X80500Y749600D02*
X83500Y749600D01*
X336500Y749600D02*
X342500Y749600D01*
X364500Y749600D02*
X370500Y749600D01*
X383500Y749600D02*
X389500Y749600D01*
X391500Y749600D02*
X398500Y749600D01*
X408500Y749600D02*
X415500Y749600D01*
X417500Y749600D02*
X423500Y749600D01*
X437500Y749600D02*
X443500Y749600D01*
X514500Y749600D02*
X520500Y749600D01*
X542500Y749600D02*
X548500Y749600D01*
X557500Y749600D02*
X563500Y749600D01*
X586500Y749600D02*
X592500Y749600D01*
X614500Y749600D02*
X620500Y749600D01*
X784500Y749600D02*
X823500Y749600D01*
X852500Y749600D02*
X891500Y749600D01*
X67500Y748600D02*
X73500Y748600D01*
X80500Y748600D02*
X82500Y748600D01*
X336500Y748600D02*
X342500Y748600D01*
X364500Y748600D02*
X370500Y748600D01*
X383500Y748600D02*
X389500Y748600D01*
X391500Y748600D02*
X398500Y748600D01*
X408500Y748600D02*
X415500Y748600D01*
X417500Y748600D02*
X423500Y748600D01*
X437500Y748600D02*
X443500Y748600D01*
X514500Y748600D02*
X520500Y748600D01*
X542500Y748600D02*
X548500Y748600D01*
X557500Y748600D02*
X563500Y748600D01*
X586500Y748600D02*
X592500Y748600D01*
X614500Y748600D02*
X620500Y748600D01*
X779500Y748600D02*
X823500Y748600D01*
X853500Y748600D02*
X896500Y748600D01*
X68500Y747600D02*
X72500Y747600D01*
X80500Y747600D02*
X82500Y747600D01*
X336500Y747600D02*
X342500Y747600D01*
X364500Y747600D02*
X370500Y747600D01*
X383500Y747600D02*
X389500Y747600D01*
X392500Y747600D02*
X398500Y747600D01*
X407500Y747600D02*
X414500Y747600D01*
X417500Y747600D02*
X423500Y747600D01*
X437500Y747600D02*
X443500Y747600D01*
X514500Y747600D02*
X520500Y747600D01*
X542500Y747600D02*
X548500Y747600D01*
X557500Y747600D02*
X563500Y747600D01*
X586500Y747600D02*
X592500Y747600D01*
X614500Y747600D02*
X620500Y747600D01*
X777500Y747600D02*
X822500Y747600D01*
X853500Y747600D02*
X898500Y747600D01*
X81500Y746600D02*
X81500Y746600D01*
X336500Y746600D02*
X342500Y746600D01*
X364500Y746600D02*
X370500Y746600D01*
X383500Y746600D02*
X389500Y746600D01*
X392500Y746600D02*
X399500Y746600D01*
X407500Y746600D02*
X414500Y746600D01*
X417500Y746600D02*
X423500Y746600D01*
X437500Y746600D02*
X443500Y746600D01*
X514500Y746600D02*
X520500Y746600D01*
X542500Y746600D02*
X548500Y746600D01*
X557500Y746600D02*
X563500Y746600D01*
X586500Y746600D02*
X592500Y746600D01*
X614500Y746600D02*
X620500Y746600D01*
X777500Y746600D02*
X822500Y746600D01*
X854500Y746600D02*
X898500Y746600D01*
X336500Y745600D02*
X342500Y745600D01*
X364500Y745600D02*
X370500Y745600D01*
X383500Y745600D02*
X389500Y745600D01*
X393500Y745600D02*
X399500Y745600D01*
X406500Y745600D02*
X413500Y745600D01*
X417500Y745600D02*
X423500Y745600D01*
X437500Y745600D02*
X443500Y745600D01*
X514500Y745600D02*
X520500Y745600D01*
X542500Y745600D02*
X548500Y745600D01*
X557500Y745600D02*
X563500Y745600D01*
X586500Y745600D02*
X592500Y745600D01*
X614500Y745600D02*
X620500Y745600D01*
X777500Y745600D02*
X821500Y745600D01*
X854500Y745600D02*
X898500Y745600D01*
X336500Y744600D02*
X342500Y744600D01*
X364500Y744600D02*
X370500Y744600D01*
X383500Y744600D02*
X389500Y744600D01*
X393500Y744600D02*
X400500Y744600D01*
X406500Y744600D02*
X413500Y744600D01*
X417500Y744600D02*
X423500Y744600D01*
X437500Y744600D02*
X443500Y744600D01*
X514500Y744600D02*
X520500Y744600D01*
X542500Y744600D02*
X548500Y744600D01*
X557500Y744600D02*
X563500Y744600D01*
X586500Y744600D02*
X592500Y744600D01*
X614500Y744600D02*
X620500Y744600D01*
X777500Y744600D02*
X821500Y744600D01*
X854500Y744600D02*
X898500Y744600D01*
X336500Y743600D02*
X342500Y743600D01*
X363500Y743600D02*
X370500Y743600D01*
X383500Y743600D02*
X389500Y743600D01*
X394500Y743600D02*
X400500Y743600D01*
X406500Y743600D02*
X412500Y743600D01*
X417500Y743600D02*
X423500Y743600D01*
X437500Y743600D02*
X443500Y743600D01*
X514500Y743600D02*
X520500Y743600D01*
X542500Y743600D02*
X548500Y743600D01*
X557500Y743600D02*
X563500Y743600D01*
X586500Y743600D02*
X592500Y743600D01*
X614500Y743600D02*
X620500Y743600D01*
X777500Y743600D02*
X821500Y743600D01*
X855500Y743600D02*
X898500Y743600D01*
X336500Y742600D02*
X342500Y742600D01*
X363500Y742600D02*
X369500Y742600D01*
X383500Y742600D02*
X389500Y742600D01*
X394500Y742600D02*
X401500Y742600D01*
X405500Y742600D02*
X412500Y742600D01*
X417500Y742600D02*
X423500Y742600D01*
X437500Y742600D02*
X443500Y742600D01*
X514500Y742600D02*
X520500Y742600D01*
X542500Y742600D02*
X548500Y742600D01*
X557500Y742600D02*
X563500Y742600D01*
X586500Y742600D02*
X592500Y742600D01*
X614500Y742600D02*
X620500Y742600D01*
X777500Y742600D02*
X821500Y742600D01*
X855500Y742600D02*
X898500Y742600D01*
X336500Y741600D02*
X342500Y741600D01*
X362500Y741600D02*
X369500Y741600D01*
X383500Y741600D02*
X389500Y741600D01*
X395500Y741600D02*
X401500Y741600D01*
X405500Y741600D02*
X411500Y741600D01*
X417500Y741600D02*
X423500Y741600D01*
X437500Y741600D02*
X443500Y741600D01*
X514500Y741600D02*
X520500Y741600D01*
X542500Y741600D02*
X548500Y741600D01*
X557500Y741600D02*
X563500Y741600D01*
X586500Y741600D02*
X592500Y741600D01*
X614500Y741600D02*
X620500Y741600D01*
X777500Y741600D02*
X820500Y741600D01*
X855500Y741600D02*
X898500Y741600D01*
X336500Y740600D02*
X342500Y740600D01*
X361500Y740600D02*
X369500Y740600D01*
X383500Y740600D02*
X389500Y740600D01*
X395500Y740600D02*
X402500Y740600D01*
X404500Y740600D02*
X411500Y740600D01*
X417500Y740600D02*
X423500Y740600D01*
X437500Y740600D02*
X443500Y740600D01*
X514500Y740600D02*
X520500Y740600D01*
X542500Y740600D02*
X548500Y740600D01*
X557500Y740600D02*
X563500Y740600D01*
X586500Y740600D02*
X592500Y740600D01*
X614500Y740600D02*
X620500Y740600D01*
X777500Y740600D02*
X820500Y740600D01*
X855500Y740600D02*
X898500Y740600D01*
X336500Y739600D02*
X342500Y739600D01*
X359500Y739600D02*
X368500Y739600D01*
X383500Y739600D02*
X389500Y739600D01*
X396500Y739600D02*
X410500Y739600D01*
X417500Y739600D02*
X423500Y739600D01*
X437500Y739600D02*
X443500Y739600D01*
X514500Y739600D02*
X520500Y739600D01*
X542500Y739600D02*
X548500Y739600D01*
X557500Y739600D02*
X563500Y739600D01*
X586500Y739600D02*
X592500Y739600D01*
X614500Y739600D02*
X620500Y739600D01*
X777500Y739600D02*
X820500Y739600D01*
X855500Y739600D02*
X898500Y739600D01*
X69500Y738600D02*
X83500Y738600D01*
X336500Y738600D02*
X368500Y738600D01*
X383500Y738600D02*
X389500Y738600D01*
X396500Y738600D02*
X410500Y738600D01*
X417500Y738600D02*
X423500Y738600D01*
X437500Y738600D02*
X456500Y738600D01*
X491500Y738600D02*
X520500Y738600D01*
X540500Y738600D02*
X566500Y738600D01*
X586500Y738600D02*
X592500Y738600D01*
X614500Y738600D02*
X620500Y738600D01*
X777500Y738600D02*
X820500Y738600D01*
X855500Y738600D02*
X898500Y738600D01*
X68500Y737600D02*
X83500Y737600D01*
X336500Y737600D02*
X367500Y737600D01*
X383500Y737600D02*
X389500Y737600D01*
X396500Y737600D02*
X409500Y737600D01*
X417500Y737600D02*
X423500Y737600D01*
X437500Y737600D02*
X457500Y737600D01*
X489500Y737600D02*
X520500Y737600D01*
X538500Y737600D02*
X567500Y737600D01*
X586500Y737600D02*
X592500Y737600D01*
X614500Y737600D02*
X620500Y737600D01*
X777500Y737600D02*
X820500Y737600D01*
X855500Y737600D02*
X898500Y737600D01*
X67500Y736600D02*
X82500Y736600D01*
X336500Y736600D02*
X366500Y736600D01*
X383500Y736600D02*
X389500Y736600D01*
X397500Y736600D02*
X409500Y736600D01*
X417500Y736600D02*
X423500Y736600D01*
X437500Y736600D02*
X457500Y736600D01*
X488500Y736600D02*
X519500Y736600D01*
X538500Y736600D02*
X568500Y736600D01*
X586500Y736600D02*
X592500Y736600D01*
X614500Y736600D02*
X620500Y736600D01*
X777500Y736600D02*
X821500Y736600D01*
X855500Y736600D02*
X898500Y736600D01*
X67500Y735600D02*
X69500Y735600D01*
X336500Y735600D02*
X365500Y735600D01*
X383500Y735600D02*
X389500Y735600D01*
X397500Y735600D02*
X408500Y735600D01*
X417500Y735600D02*
X423500Y735600D01*
X437500Y735600D02*
X458500Y735600D01*
X487500Y735600D02*
X519500Y735600D01*
X537500Y735600D02*
X569500Y735600D01*
X586500Y735600D02*
X592500Y735600D01*
X614500Y735600D02*
X620500Y735600D01*
X777500Y735600D02*
X821500Y735600D01*
X855500Y735600D02*
X898500Y735600D01*
X67500Y734600D02*
X69500Y734600D01*
X336500Y734600D02*
X366500Y734600D01*
X383500Y734600D02*
X389500Y734600D01*
X398500Y734600D02*
X408500Y734600D01*
X417500Y734600D02*
X423500Y734600D01*
X437500Y734600D02*
X457500Y734600D01*
X487500Y734600D02*
X518500Y734600D01*
X537500Y734600D02*
X569500Y734600D01*
X586500Y734600D02*
X592500Y734600D01*
X614500Y734600D02*
X620500Y734600D01*
X777500Y734600D02*
X821500Y734600D01*
X854500Y734600D02*
X898500Y734600D01*
X67500Y733600D02*
X69500Y733600D01*
X336500Y733600D02*
X367500Y733600D01*
X383500Y733600D02*
X389500Y733600D01*
X398500Y733600D02*
X407500Y733600D01*
X417500Y733600D02*
X423500Y733600D01*
X437500Y733600D02*
X457500Y733600D01*
X486500Y733600D02*
X517500Y733600D01*
X536500Y733600D02*
X570500Y733600D01*
X586500Y733600D02*
X592500Y733600D01*
X614500Y733600D02*
X620500Y733600D01*
X777500Y733600D02*
X821500Y733600D01*
X854500Y733600D02*
X898500Y733600D01*
X67500Y732600D02*
X69500Y732600D01*
X336500Y732600D02*
X368500Y732600D01*
X383500Y732600D02*
X389500Y732600D01*
X399500Y732600D02*
X407500Y732600D01*
X417500Y732600D02*
X423500Y732600D01*
X437500Y732600D02*
X456500Y732600D01*
X486500Y732600D02*
X515500Y732600D01*
X536500Y732600D02*
X570500Y732600D01*
X586500Y732600D02*
X592500Y732600D01*
X614500Y732600D02*
X620500Y732600D01*
X777500Y732600D02*
X822500Y732600D01*
X853500Y732600D02*
X898500Y732600D01*
X67500Y731600D02*
X69500Y731600D01*
X336500Y731600D02*
X342500Y731600D01*
X359500Y731600D02*
X368500Y731600D01*
X383500Y731600D02*
X389500Y731600D01*
X399500Y731600D02*
X406500Y731600D01*
X417500Y731600D02*
X423500Y731600D01*
X437500Y731600D02*
X443500Y731600D01*
X486500Y731600D02*
X492500Y731600D01*
X536500Y731600D02*
X542500Y731600D01*
X564500Y731600D02*
X570500Y731600D01*
X586500Y731600D02*
X592500Y731600D01*
X614500Y731600D02*
X620500Y731600D01*
X778500Y731600D02*
X822500Y731600D01*
X853500Y731600D02*
X897500Y731600D01*
X67500Y730600D02*
X70500Y730600D01*
X336500Y730600D02*
X342500Y730600D01*
X361500Y730600D02*
X369500Y730600D01*
X383500Y730600D02*
X389500Y730600D01*
X400500Y730600D02*
X406500Y730600D01*
X417500Y730600D02*
X423500Y730600D01*
X437500Y730600D02*
X443500Y730600D01*
X486500Y730600D02*
X492500Y730600D01*
X536500Y730600D02*
X542500Y730600D01*
X564500Y730600D02*
X570500Y730600D01*
X586500Y730600D02*
X592500Y730600D01*
X614500Y730600D02*
X620500Y730600D01*
X782500Y730600D02*
X823500Y730600D01*
X852500Y730600D02*
X893500Y730600D01*
X68500Y729600D02*
X71500Y729600D01*
X336500Y729600D02*
X342500Y729600D01*
X362500Y729600D02*
X369500Y729600D01*
X383500Y729600D02*
X389500Y729600D01*
X400500Y729600D02*
X405500Y729600D01*
X417500Y729600D02*
X423500Y729600D01*
X437500Y729600D02*
X443500Y729600D01*
X486500Y729600D02*
X492500Y729600D01*
X536500Y729600D02*
X542500Y729600D01*
X564500Y729600D02*
X570500Y729600D01*
X586500Y729600D02*
X592500Y729600D01*
X614500Y729600D02*
X620500Y729600D01*
X788500Y729600D02*
X824500Y729600D01*
X852500Y729600D02*
X888500Y729600D01*
X69500Y728600D02*
X71500Y728600D01*
X336500Y728600D02*
X342500Y728600D01*
X363500Y728600D02*
X369500Y728600D01*
X383500Y728600D02*
X389500Y728600D01*
X401500Y728600D02*
X405500Y728600D01*
X417500Y728600D02*
X423500Y728600D01*
X437500Y728600D02*
X443500Y728600D01*
X486500Y728600D02*
X492500Y728600D01*
X536500Y728600D02*
X542500Y728600D01*
X564500Y728600D02*
X570500Y728600D01*
X586500Y728600D02*
X592500Y728600D01*
X614500Y728600D02*
X620500Y728600D01*
X793500Y728600D02*
X825500Y728600D01*
X851500Y728600D02*
X883500Y728600D01*
X69500Y727600D02*
X72500Y727600D01*
X336500Y727600D02*
X342500Y727600D01*
X363500Y727600D02*
X369500Y727600D01*
X383500Y727600D02*
X389500Y727600D01*
X402500Y727600D02*
X404500Y727600D01*
X417500Y727600D02*
X423500Y727600D01*
X437500Y727600D02*
X443500Y727600D01*
X486500Y727600D02*
X492500Y727600D01*
X536500Y727600D02*
X542500Y727600D01*
X564500Y727600D02*
X570500Y727600D01*
X586500Y727600D02*
X592500Y727600D01*
X614500Y727600D02*
X620500Y727600D01*
X794500Y727600D02*
X826500Y727600D01*
X850500Y727600D02*
X882500Y727600D01*
X67500Y726600D02*
X83500Y726600D01*
X336500Y726600D02*
X342500Y726600D01*
X364500Y726600D02*
X370500Y726600D01*
X383500Y726600D02*
X389500Y726600D01*
X417500Y726600D02*
X423500Y726600D01*
X437500Y726600D02*
X443500Y726600D01*
X486500Y726600D02*
X492500Y726600D01*
X536500Y726600D02*
X542500Y726600D01*
X564500Y726600D02*
X570500Y726600D01*
X586500Y726600D02*
X592500Y726600D01*
X614500Y726600D02*
X620500Y726600D01*
X794500Y726600D02*
X827500Y726600D01*
X849500Y726600D02*
X881500Y726600D01*
X67500Y725600D02*
X83500Y725600D01*
X336500Y725600D02*
X342500Y725600D01*
X364500Y725600D02*
X370500Y725600D01*
X383500Y725600D02*
X389500Y725600D01*
X417500Y725600D02*
X423500Y725600D01*
X437500Y725600D02*
X443500Y725600D01*
X486500Y725600D02*
X492500Y725600D01*
X536500Y725600D02*
X542500Y725600D01*
X564500Y725600D02*
X570500Y725600D01*
X586500Y725600D02*
X592500Y725600D01*
X614500Y725600D02*
X620500Y725600D01*
X794500Y725600D02*
X828500Y725600D01*
X847500Y725600D02*
X881500Y725600D01*
X68500Y724600D02*
X82500Y724600D01*
X336500Y724600D02*
X342500Y724600D01*
X364500Y724600D02*
X370500Y724600D01*
X383500Y724600D02*
X389500Y724600D01*
X417500Y724600D02*
X423500Y724600D01*
X437500Y724600D02*
X443500Y724600D01*
X486500Y724600D02*
X492500Y724600D01*
X536500Y724600D02*
X542500Y724600D01*
X564500Y724600D02*
X570500Y724600D01*
X586500Y724600D02*
X592500Y724600D01*
X614500Y724600D02*
X620500Y724600D01*
X795500Y724600D02*
X830500Y724600D01*
X846500Y724600D02*
X880500Y724600D01*
X336500Y723600D02*
X342500Y723600D01*
X364500Y723600D02*
X370500Y723600D01*
X383500Y723600D02*
X389500Y723600D01*
X417500Y723600D02*
X423500Y723600D01*
X437500Y723600D02*
X443500Y723600D01*
X486500Y723600D02*
X492500Y723600D01*
X536500Y723600D02*
X542500Y723600D01*
X564500Y723600D02*
X570500Y723600D01*
X586500Y723600D02*
X592500Y723600D01*
X614500Y723600D02*
X620500Y723600D01*
X795500Y723600D02*
X831500Y723600D01*
X845500Y723600D02*
X880500Y723600D01*
X336500Y722600D02*
X342500Y722600D01*
X364500Y722600D02*
X370500Y722600D01*
X383500Y722600D02*
X389500Y722600D01*
X417500Y722600D02*
X423500Y722600D01*
X437500Y722600D02*
X443500Y722600D01*
X486500Y722600D02*
X492500Y722600D01*
X536500Y722600D02*
X542500Y722600D01*
X564500Y722600D02*
X570500Y722600D01*
X586500Y722600D02*
X592500Y722600D01*
X614500Y722600D02*
X620500Y722600D01*
X796500Y722600D02*
X830500Y722600D01*
X845500Y722600D02*
X880500Y722600D01*
X336500Y721600D02*
X342500Y721600D01*
X364500Y721600D02*
X370500Y721600D01*
X383500Y721600D02*
X389500Y721600D01*
X417500Y721600D02*
X423500Y721600D01*
X437500Y721600D02*
X443500Y721600D01*
X486500Y721600D02*
X492500Y721600D01*
X536500Y721600D02*
X542500Y721600D01*
X564500Y721600D02*
X570500Y721600D01*
X586500Y721600D02*
X592500Y721600D01*
X614500Y721600D02*
X620500Y721600D01*
X796500Y721600D02*
X830500Y721600D01*
X845500Y721600D02*
X879500Y721600D01*
X336500Y720600D02*
X342500Y720600D01*
X363500Y720600D02*
X370500Y720600D01*
X383500Y720600D02*
X389500Y720600D01*
X417500Y720600D02*
X423500Y720600D01*
X437500Y720600D02*
X443500Y720600D01*
X486500Y720600D02*
X492500Y720600D01*
X536500Y720600D02*
X542500Y720600D01*
X564500Y720600D02*
X570500Y720600D01*
X586500Y720600D02*
X592500Y720600D01*
X614500Y720600D02*
X620500Y720600D01*
X796500Y720600D02*
X830500Y720600D01*
X846500Y720600D02*
X879500Y720600D01*
X336500Y719600D02*
X342500Y719600D01*
X363500Y719600D02*
X369500Y719600D01*
X383500Y719600D02*
X389500Y719600D01*
X417500Y719600D02*
X423500Y719600D01*
X437500Y719600D02*
X443500Y719600D01*
X486500Y719600D02*
X492500Y719600D01*
X536500Y719600D02*
X542500Y719600D01*
X564500Y719600D02*
X570500Y719600D01*
X586500Y719600D02*
X592500Y719600D01*
X614500Y719600D02*
X620500Y719600D01*
X797500Y719600D02*
X829500Y719600D01*
X846500Y719600D02*
X878500Y719600D01*
X336500Y718600D02*
X342500Y718600D01*
X363500Y718600D02*
X369500Y718600D01*
X383500Y718600D02*
X389500Y718600D01*
X417500Y718600D02*
X423500Y718600D01*
X437500Y718600D02*
X443500Y718600D01*
X486500Y718600D02*
X492500Y718600D01*
X536500Y718600D02*
X542500Y718600D01*
X564500Y718600D02*
X570500Y718600D01*
X586500Y718600D02*
X592500Y718600D01*
X614500Y718600D02*
X620500Y718600D01*
X797500Y718600D02*
X829500Y718600D01*
X847500Y718600D02*
X878500Y718600D01*
X336500Y717600D02*
X342500Y717600D01*
X362500Y717600D02*
X369500Y717600D01*
X383500Y717600D02*
X389500Y717600D01*
X417500Y717600D02*
X423500Y717600D01*
X437500Y717600D02*
X443500Y717600D01*
X486500Y717600D02*
X492500Y717600D01*
X536500Y717600D02*
X542500Y717600D01*
X564500Y717600D02*
X570500Y717600D01*
X586500Y717600D02*
X592500Y717600D01*
X614500Y717600D02*
X620500Y717600D01*
X798500Y717600D02*
X828500Y717600D01*
X847500Y717600D02*
X878500Y717600D01*
X70500Y716600D02*
X76500Y716600D01*
X81500Y716600D02*
X83500Y716600D01*
X336500Y716600D02*
X342500Y716600D01*
X361500Y716600D02*
X368500Y716600D01*
X383500Y716600D02*
X389500Y716600D01*
X417500Y716600D02*
X423500Y716600D01*
X437500Y716600D02*
X443500Y716600D01*
X486500Y716600D02*
X492500Y716600D01*
X536500Y716600D02*
X542500Y716600D01*
X564500Y716600D02*
X570500Y716600D01*
X586500Y716600D02*
X592500Y716600D01*
X614500Y716600D02*
X620500Y716600D01*
X798500Y716600D02*
X828500Y716600D01*
X847500Y716600D02*
X877500Y716600D01*
X69500Y715600D02*
X76500Y715600D01*
X81500Y715600D02*
X83500Y715600D01*
X336500Y715600D02*
X342500Y715600D01*
X358500Y715600D02*
X368500Y715600D01*
X383500Y715600D02*
X389500Y715600D01*
X417500Y715600D02*
X423500Y715600D01*
X437500Y715600D02*
X443500Y715600D01*
X486500Y715600D02*
X492500Y715600D01*
X536500Y715600D02*
X542500Y715600D01*
X563500Y715600D02*
X570500Y715600D01*
X586500Y715600D02*
X592500Y715600D01*
X613500Y715600D02*
X620500Y715600D01*
X798500Y715600D02*
X827500Y715600D01*
X848500Y715600D02*
X877500Y715600D01*
X68500Y714600D02*
X76500Y714600D01*
X81500Y714600D02*
X83500Y714600D01*
X336500Y714600D02*
X367500Y714600D01*
X383500Y714600D02*
X389500Y714600D01*
X417500Y714600D02*
X423500Y714600D01*
X437500Y714600D02*
X467500Y714600D01*
X486500Y714600D02*
X518500Y714600D01*
X536500Y714600D02*
X570500Y714600D01*
X586500Y714600D02*
X620500Y714600D01*
X797500Y714600D02*
X827500Y714600D01*
X848500Y714600D02*
X878500Y714600D01*
X67500Y713600D02*
X70500Y713600D01*
X74500Y713600D02*
X76500Y713600D01*
X81500Y713600D02*
X83500Y713600D01*
X336500Y713600D02*
X367500Y713600D01*
X383500Y713600D02*
X389500Y713600D01*
X417500Y713600D02*
X423500Y713600D01*
X437500Y713600D02*
X468500Y713600D01*
X486500Y713600D02*
X519500Y713600D01*
X536500Y713600D02*
X569500Y713600D01*
X586500Y713600D02*
X619500Y713600D01*
X797500Y713600D02*
X827500Y713600D01*
X849500Y713600D02*
X879500Y713600D01*
X67500Y712600D02*
X69500Y712600D01*
X74500Y712600D02*
X76500Y712600D01*
X81500Y712600D02*
X83500Y712600D01*
X336500Y712600D02*
X366500Y712600D01*
X383500Y712600D02*
X389500Y712600D01*
X417500Y712600D02*
X423500Y712600D01*
X437500Y712600D02*
X469500Y712600D01*
X486500Y712600D02*
X520500Y712600D01*
X537500Y712600D02*
X569500Y712600D01*
X587500Y712600D02*
X619500Y712600D01*
X796500Y712600D02*
X826500Y712600D01*
X849500Y712600D02*
X879500Y712600D01*
X67500Y711600D02*
X69500Y711600D01*
X74500Y711600D02*
X76500Y711600D01*
X81500Y711600D02*
X83500Y711600D01*
X336500Y711600D02*
X365500Y711600D01*
X383500Y711600D02*
X389500Y711600D01*
X417500Y711600D02*
X423500Y711600D01*
X437500Y711600D02*
X469500Y711600D01*
X486500Y711600D02*
X520500Y711600D01*
X537500Y711600D02*
X569500Y711600D01*
X587500Y711600D02*
X619500Y711600D01*
X795500Y711600D02*
X826500Y711600D01*
X850500Y711600D02*
X880500Y711600D01*
X67500Y710600D02*
X69500Y710600D01*
X74500Y710600D02*
X76500Y710600D01*
X81500Y710600D02*
X83500Y710600D01*
X336500Y710600D02*
X363500Y710600D01*
X384500Y710600D02*
X389500Y710600D01*
X417500Y710600D02*
X422500Y710600D01*
X437500Y710600D02*
X469500Y710600D01*
X486500Y710600D02*
X519500Y710600D01*
X538500Y710600D02*
X568500Y710600D01*
X588500Y710600D02*
X618500Y710600D01*
X795500Y710600D02*
X825500Y710600D01*
X850500Y710600D02*
X881500Y710600D01*
X67500Y709600D02*
X69500Y709600D01*
X74500Y709600D02*
X76500Y709600D01*
X81500Y709600D02*
X83500Y709600D01*
X336500Y709600D02*
X361500Y709600D01*
X384500Y709600D02*
X388500Y709600D01*
X418500Y709600D02*
X422500Y709600D01*
X437500Y709600D02*
X468500Y709600D01*
X486500Y709600D02*
X519500Y709600D01*
X539500Y709600D02*
X567500Y709600D01*
X589500Y709600D02*
X617500Y709600D01*
X794500Y709600D02*
X825500Y709600D01*
X850500Y709600D02*
X881500Y709600D01*
X67500Y708600D02*
X69500Y708600D01*
X74500Y708600D02*
X76500Y708600D01*
X81500Y708600D02*
X83500Y708600D01*
X337500Y708600D02*
X358500Y708600D01*
X386500Y708600D02*
X387500Y708600D01*
X419500Y708600D02*
X420500Y708600D01*
X438500Y708600D02*
X466500Y708600D01*
X486500Y708600D02*
X517500Y708600D01*
X542500Y708600D02*
X564500Y708600D01*
X592500Y708600D02*
X614500Y708600D01*
X793500Y708600D02*
X825500Y708600D01*
X851500Y708600D02*
X882500Y708600D01*
X67500Y707600D02*
X69500Y707600D01*
X74500Y707600D02*
X76500Y707600D01*
X81500Y707600D02*
X83500Y707600D01*
X793500Y707600D02*
X824500Y707600D01*
X851500Y707600D02*
X883500Y707600D01*
X67500Y706600D02*
X69500Y706600D01*
X74500Y706600D02*
X76500Y706600D01*
X80500Y706600D02*
X83500Y706600D01*
X792500Y706600D02*
X824500Y706600D01*
X852500Y706600D02*
X884500Y706600D01*
X67500Y705600D02*
X70500Y705600D01*
X74500Y705600D02*
X76500Y705600D01*
X79500Y705600D02*
X82500Y705600D01*
X791500Y705600D02*
X823500Y705600D01*
X852500Y705600D02*
X884500Y705600D01*
X68500Y704600D02*
X82500Y704600D01*
X790500Y704600D02*
X823500Y704600D01*
X852500Y704600D02*
X885500Y704600D01*
X69500Y703600D02*
X81500Y703600D01*
X790500Y703600D02*
X822500Y703600D01*
X853500Y703600D02*
X886500Y703600D01*
X70500Y702600D02*
X80500Y702600D01*
X790500Y702600D02*
X822500Y702600D01*
X853500Y702600D02*
X886500Y702600D01*
X791500Y701600D02*
X822500Y701600D01*
X854500Y701600D02*
X885500Y701600D01*
X792500Y700600D02*
X821500Y700600D01*
X854500Y700600D02*
X884500Y700600D01*
X793500Y699600D02*
X821500Y699600D01*
X855500Y699600D02*
X883500Y699600D01*
X794500Y698600D02*
X811500Y698600D01*
X816500Y698600D02*
X820500Y698600D01*
X855500Y698600D02*
X859500Y698600D01*
X864500Y698600D02*
X882500Y698600D01*
X795500Y697600D02*
X810500Y697600D01*
X818500Y697600D02*
X820500Y697600D01*
X855500Y697600D02*
X857500Y697600D01*
X866500Y697600D02*
X881500Y697600D01*
X796500Y696600D02*
X808500Y696600D01*
X867500Y696600D02*
X880500Y696600D01*
X797500Y695600D02*
X807500Y695600D01*
X869500Y695600D02*
X879500Y695600D01*
X798500Y694600D02*
X805500Y694600D01*
X870500Y694600D02*
X878500Y694600D01*
X82500Y693600D02*
X82500Y693600D01*
X799500Y693600D02*
X804500Y693600D01*
X871500Y693600D02*
X877500Y693600D01*
X81500Y692600D02*
X83500Y692600D01*
X800500Y692600D02*
X802500Y692600D01*
X873500Y692600D02*
X876500Y692600D01*
X81500Y691600D02*
X83500Y691600D01*
X801500Y691600D02*
X801500Y691600D01*
X874500Y691600D02*
X875500Y691600D01*
X81500Y690600D02*
X83500Y690600D01*
X81500Y689600D02*
X83500Y689600D01*
X61500Y688600D02*
X83500Y688600D01*
X60500Y687600D02*
X83500Y687600D01*
X60500Y686600D02*
X83500Y686600D01*
X60500Y685600D02*
X62500Y685600D01*
X81500Y685600D02*
X83500Y685600D01*
X60500Y684600D02*
X62500Y684600D01*
X81500Y684600D02*
X83500Y684600D01*
X60500Y683600D02*
X62500Y683600D01*
X81500Y683600D02*
X83500Y683600D01*
X60500Y682600D02*
X62500Y682600D01*
X81500Y682600D02*
X83500Y682600D01*
X61500Y681600D02*
X61500Y681600D01*
X82500Y681600D02*
X82500Y681600D01*
X764500Y678600D02*
X768500Y678600D01*
X776500Y678600D02*
X779500Y678600D01*
X782500Y678600D02*
X785500Y678600D01*
X796500Y678600D02*
X800500Y678600D01*
X808500Y678600D02*
X810500Y678600D01*
X813500Y678600D02*
X816500Y678600D01*
X834500Y678600D02*
X839500Y678600D01*
X850500Y678600D02*
X854500Y678600D01*
X862500Y678600D02*
X864500Y678600D01*
X871500Y678600D02*
X873500Y678600D01*
X878500Y678600D02*
X880500Y678600D01*
X884500Y678600D02*
X887500Y678600D01*
X894500Y678600D02*
X897500Y678600D01*
X907500Y678600D02*
X911500Y678600D01*
X763500Y677600D02*
X770500Y677600D01*
X776500Y677600D02*
X787500Y677600D01*
X794500Y677600D02*
X801500Y677600D01*
X808500Y677600D02*
X818500Y677600D01*
X832500Y677600D02*
X841500Y677600D01*
X848500Y677600D02*
X855500Y677600D01*
X862500Y677600D02*
X864500Y677600D01*
X871500Y677600D02*
X874500Y677600D01*
X878500Y677600D02*
X888500Y677600D01*
X892500Y677600D02*
X899500Y677600D01*
X905500Y677600D02*
X913500Y677600D01*
X762500Y676600D02*
X771500Y676600D01*
X776500Y676600D02*
X787500Y676600D01*
X793500Y676600D02*
X802500Y676600D01*
X808500Y676600D02*
X819500Y676600D01*
X831500Y676600D02*
X842500Y676600D01*
X847500Y676600D02*
X856500Y676600D01*
X862500Y676600D02*
X864500Y676600D01*
X871500Y676600D02*
X874500Y676600D01*
X878500Y676600D02*
X887500Y676600D01*
X891500Y676600D02*
X901500Y676600D01*
X904500Y676600D02*
X914500Y676600D01*
X761500Y675600D02*
X772500Y675600D01*
X776500Y675600D02*
X788500Y675600D01*
X793500Y675600D02*
X796500Y675600D01*
X799500Y675600D02*
X803500Y675600D01*
X808500Y675600D02*
X819500Y675600D01*
X831500Y675600D02*
X834500Y675600D01*
X838500Y675600D02*
X841500Y675600D01*
X846500Y675600D02*
X857500Y675600D01*
X862500Y675600D02*
X864500Y675600D01*
X871500Y675600D02*
X874500Y675600D01*
X878500Y675600D02*
X886500Y675600D01*
X890500Y675600D02*
X901500Y675600D01*
X904500Y675600D02*
X907500Y675600D01*
X911500Y675600D02*
X914500Y675600D01*
X761500Y674600D02*
X764500Y674600D01*
X769500Y674600D02*
X772500Y674600D01*
X776500Y674600D02*
X780500Y674600D01*
X785500Y674600D02*
X788500Y674600D01*
X792500Y674600D02*
X795500Y674600D01*
X801500Y674600D02*
X804500Y674600D01*
X808500Y674600D02*
X811500Y674600D01*
X817500Y674600D02*
X820500Y674600D01*
X831500Y674600D02*
X833500Y674600D01*
X846500Y674600D02*
X849500Y674600D01*
X854500Y674600D02*
X857500Y674600D01*
X862500Y674600D02*
X864500Y674600D01*
X871500Y674600D02*
X874500Y674600D01*
X878500Y674600D02*
X881500Y674600D01*
X889500Y674600D02*
X892500Y674600D01*
X899500Y674600D02*
X899500Y674600D01*
X903500Y674600D02*
X906500Y674600D01*
X912500Y674600D02*
X915500Y674600D01*
X760500Y673600D02*
X763500Y673600D01*
X770500Y673600D02*
X772500Y673600D01*
X776500Y673600D02*
X779500Y673600D01*
X786500Y673600D02*
X788500Y673600D01*
X792500Y673600D02*
X794500Y673600D01*
X801500Y673600D02*
X804500Y673600D01*
X808500Y673600D02*
X810500Y673600D01*
X817500Y673600D02*
X820500Y673600D01*
X831500Y673600D02*
X833500Y673600D01*
X846500Y673600D02*
X848500Y673600D01*
X855500Y673600D02*
X858500Y673600D01*
X862500Y673600D02*
X864500Y673600D01*
X871500Y673600D02*
X874500Y673600D01*
X878500Y673600D02*
X881500Y673600D01*
X889500Y673600D02*
X892500Y673600D01*
X903500Y673600D02*
X905500Y673600D01*
X71500Y672600D02*
X83500Y672600D01*
X760500Y672600D02*
X763500Y672600D01*
X770500Y672600D02*
X773500Y672600D01*
X776500Y672600D02*
X779500Y672600D01*
X786500Y672600D02*
X788500Y672600D01*
X792500Y672600D02*
X794500Y672600D01*
X802500Y672600D02*
X804500Y672600D01*
X808500Y672600D02*
X810500Y672600D01*
X817500Y672600D02*
X820500Y672600D01*
X831500Y672600D02*
X834500Y672600D01*
X845500Y672600D02*
X848500Y672600D01*
X855500Y672600D02*
X858500Y672600D01*
X862500Y672600D02*
X864500Y672600D01*
X871500Y672600D02*
X874500Y672600D01*
X878500Y672600D02*
X881500Y672600D01*
X889500Y672600D02*
X891500Y672600D01*
X903500Y672600D02*
X905500Y672600D01*
X913500Y672600D02*
X915500Y672600D01*
X68500Y671600D02*
X83500Y671600D01*
X760500Y671600D02*
X763500Y671600D01*
X770500Y671600D02*
X773500Y671600D01*
X776500Y671600D02*
X779500Y671600D01*
X786500Y671600D02*
X788500Y671600D01*
X792500Y671600D02*
X804500Y671600D01*
X808500Y671600D02*
X810500Y671600D01*
X817500Y671600D02*
X820500Y671600D01*
X831500Y671600D02*
X840500Y671600D01*
X845500Y671600D02*
X848500Y671600D01*
X855500Y671600D02*
X858500Y671600D01*
X862500Y671600D02*
X864500Y671600D01*
X871500Y671600D02*
X874500Y671600D01*
X878500Y671600D02*
X880500Y671600D01*
X889500Y671600D02*
X891500Y671600D01*
X903500Y671600D02*
X915500Y671600D01*
X67500Y670600D02*
X83500Y670600D01*
X760500Y670600D02*
X762500Y670600D01*
X770500Y670600D02*
X773500Y670600D01*
X776500Y670600D02*
X779500Y670600D01*
X786500Y670600D02*
X788500Y670600D01*
X792500Y670600D02*
X804500Y670600D01*
X808500Y670600D02*
X810500Y670600D01*
X817500Y670600D02*
X820500Y670600D01*
X832500Y670600D02*
X841500Y670600D01*
X845500Y670600D02*
X848500Y670600D01*
X855500Y670600D02*
X858500Y670600D01*
X862500Y670600D02*
X864500Y670600D01*
X871500Y670600D02*
X874500Y670600D01*
X878500Y670600D02*
X880500Y670600D01*
X889500Y670600D02*
X891500Y670600D01*
X903500Y670600D02*
X915500Y670600D01*
X67500Y669600D02*
X71500Y669600D01*
X760500Y669600D02*
X763500Y669600D01*
X770500Y669600D02*
X773500Y669600D01*
X776500Y669600D02*
X779500Y669600D01*
X786500Y669600D02*
X788500Y669600D01*
X792500Y669600D02*
X804500Y669600D01*
X808500Y669600D02*
X810500Y669600D01*
X817500Y669600D02*
X820500Y669600D01*
X834500Y669600D02*
X842500Y669600D01*
X845500Y669600D02*
X848500Y669600D01*
X855500Y669600D02*
X858500Y669600D01*
X862500Y669600D02*
X864500Y669600D01*
X871500Y669600D02*
X874500Y669600D01*
X878500Y669600D02*
X880500Y669600D01*
X889500Y669600D02*
X891500Y669600D01*
X903500Y669600D02*
X915500Y669600D01*
X67500Y668600D02*
X69500Y668600D01*
X760500Y668600D02*
X763500Y668600D01*
X770500Y668600D02*
X773500Y668600D01*
X776500Y668600D02*
X779500Y668600D01*
X786500Y668600D02*
X788500Y668600D01*
X792500Y668600D02*
X794500Y668600D01*
X808500Y668600D02*
X810500Y668600D01*
X817500Y668600D02*
X820500Y668600D01*
X839500Y668600D02*
X842500Y668600D01*
X845500Y668600D02*
X848500Y668600D01*
X855500Y668600D02*
X858500Y668600D01*
X862500Y668600D02*
X864500Y668600D01*
X871500Y668600D02*
X874500Y668600D01*
X878500Y668600D02*
X880500Y668600D01*
X889500Y668600D02*
X891500Y668600D01*
X903500Y668600D02*
X905500Y668600D01*
X67500Y667600D02*
X69500Y667600D01*
X760500Y667600D02*
X763500Y667600D01*
X770500Y667600D02*
X772500Y667600D01*
X776500Y667600D02*
X779500Y667600D01*
X786500Y667600D02*
X788500Y667600D01*
X792500Y667600D02*
X794500Y667600D01*
X808500Y667600D02*
X810500Y667600D01*
X817500Y667600D02*
X820500Y667600D01*
X840500Y667600D02*
X843500Y667600D01*
X846500Y667600D02*
X848500Y667600D01*
X855500Y667600D02*
X858500Y667600D01*
X862500Y667600D02*
X864500Y667600D01*
X871500Y667600D02*
X874500Y667600D01*
X878500Y667600D02*
X880500Y667600D01*
X889500Y667600D02*
X892500Y667600D01*
X903500Y667600D02*
X905500Y667600D01*
X67500Y666600D02*
X69500Y666600D01*
X761500Y666600D02*
X763500Y666600D01*
X769500Y666600D02*
X772500Y666600D01*
X776500Y666600D02*
X780500Y666600D01*
X785500Y666600D02*
X788500Y666600D01*
X792500Y666600D02*
X795500Y666600D01*
X802500Y666600D02*
X802500Y666600D01*
X808500Y666600D02*
X810500Y666600D01*
X817500Y666600D02*
X820500Y666600D01*
X831500Y666600D02*
X832500Y666600D01*
X840500Y666600D02*
X843500Y666600D01*
X846500Y666600D02*
X849500Y666600D01*
X854500Y666600D02*
X857500Y666600D01*
X862500Y666600D02*
X865500Y666600D01*
X870500Y666600D02*
X874500Y666600D01*
X878500Y666600D02*
X880500Y666600D01*
X889500Y666600D02*
X892500Y666600D01*
X899500Y666600D02*
X899500Y666600D01*
X903500Y666600D02*
X906500Y666600D01*
X913500Y666600D02*
X913500Y666600D01*
X67500Y665600D02*
X69500Y665600D01*
X761500Y665600D02*
X772500Y665600D01*
X776500Y665600D02*
X788500Y665600D01*
X793500Y665600D02*
X796500Y665600D01*
X800500Y665600D02*
X803500Y665600D01*
X808500Y665600D02*
X810500Y665600D01*
X817500Y665600D02*
X820500Y665600D01*
X830500Y665600D02*
X834500Y665600D01*
X838500Y665600D02*
X842500Y665600D01*
X846500Y665600D02*
X857500Y665600D01*
X862500Y665600D02*
X874500Y665600D01*
X878500Y665600D02*
X880500Y665600D01*
X890500Y665600D02*
X901500Y665600D01*
X904500Y665600D02*
X908500Y665600D01*
X911500Y665600D02*
X914500Y665600D01*
X67500Y664600D02*
X70500Y664600D01*
X762500Y664600D02*
X771500Y664600D01*
X776500Y664600D02*
X787500Y664600D01*
X793500Y664600D02*
X803500Y664600D01*
X808500Y664600D02*
X810500Y664600D01*
X817500Y664600D02*
X820500Y664600D01*
X830500Y664600D02*
X842500Y664600D01*
X847500Y664600D02*
X856500Y664600D01*
X862500Y664600D02*
X874500Y664600D01*
X878500Y664600D02*
X880500Y664600D01*
X891500Y664600D02*
X901500Y664600D01*
X904500Y664600D02*
X915500Y664600D01*
X68500Y663600D02*
X70500Y663600D01*
X763500Y663600D02*
X770500Y663600D01*
X776500Y663600D02*
X787500Y663600D01*
X794500Y663600D02*
X802500Y663600D01*
X808500Y663600D02*
X810500Y663600D01*
X817500Y663600D02*
X820500Y663600D01*
X832500Y663600D02*
X841500Y663600D01*
X848500Y663600D02*
X855500Y663600D01*
X863500Y663600D02*
X874500Y663600D01*
X878500Y663600D02*
X880500Y663600D01*
X892500Y663600D02*
X899500Y663600D01*
X905500Y663600D02*
X914500Y663600D01*
X68500Y662600D02*
X71500Y662600D01*
X764500Y662600D02*
X768500Y662600D01*
X776500Y662600D02*
X779500Y662600D01*
X782500Y662600D02*
X785500Y662600D01*
X796500Y662600D02*
X800500Y662600D01*
X808500Y662600D02*
X810500Y662600D01*
X818500Y662600D02*
X820500Y662600D01*
X834500Y662600D02*
X839500Y662600D01*
X850500Y662600D02*
X854500Y662600D01*
X865500Y662600D02*
X868500Y662600D01*
X871500Y662600D02*
X873500Y662600D01*
X878500Y662600D02*
X880500Y662600D01*
X894500Y662600D02*
X897500Y662600D01*
X907500Y662600D02*
X912500Y662600D01*
X69500Y661600D02*
X72500Y661600D01*
X776500Y661600D02*
X779500Y661600D01*
X61500Y660600D02*
X82500Y660600D01*
X776500Y660600D02*
X779500Y660600D01*
X60500Y659600D02*
X83500Y659600D01*
X776500Y659600D02*
X779500Y659600D01*
X829500Y659600D02*
X831500Y659600D01*
X60500Y658600D02*
X83500Y658600D01*
X776500Y658600D02*
X779500Y658600D01*
X829500Y658600D02*
X831500Y658600D01*
X776500Y657600D02*
X779500Y657600D01*
X829500Y657600D02*
X831500Y657600D01*
X776500Y656600D02*
X779500Y656600D01*
X829500Y656600D02*
X831500Y656600D01*
X776500Y655600D02*
X779500Y655600D01*
X829500Y655600D02*
X831500Y655600D01*
X776500Y654600D02*
X779500Y654600D01*
X829500Y654600D02*
X831500Y654600D01*
X776500Y653600D02*
X779500Y653600D01*
X829500Y653600D02*
X831500Y653600D01*
X776500Y652600D02*
X779500Y652600D01*
X781500Y652600D02*
X786500Y652600D01*
X794500Y652600D02*
X801500Y652600D01*
X808500Y652600D02*
X811500Y652600D01*
X813500Y652600D02*
X818500Y652600D01*
X822500Y652600D02*
X827500Y652600D01*
X829500Y652600D02*
X831500Y652600D01*
X834500Y652600D02*
X837500Y652600D01*
X844500Y652600D02*
X846500Y652600D01*
X854500Y652600D02*
X856500Y652600D01*
X860500Y652600D02*
X867500Y652600D01*
X874500Y652600D02*
X876500Y652600D01*
X879500Y652600D02*
X883500Y652600D01*
X889500Y652600D02*
X894500Y652600D01*
X776500Y651600D02*
X787500Y651600D01*
X793500Y651600D02*
X802500Y651600D01*
X808500Y651600D02*
X818500Y651600D01*
X821500Y651600D02*
X831500Y651600D01*
X834500Y651600D02*
X837500Y651600D01*
X844500Y651600D02*
X846500Y651600D01*
X853500Y651600D02*
X856500Y651600D01*
X859500Y651600D02*
X868500Y651600D01*
X874500Y651600D02*
X884500Y651600D01*
X887500Y651600D02*
X895500Y651600D01*
X67500Y650600D02*
X68500Y650600D01*
X82500Y650600D02*
X82500Y650600D01*
X776500Y650600D02*
X788500Y650600D01*
X793500Y650600D02*
X803500Y650600D01*
X808500Y650600D02*
X817500Y650600D01*
X820500Y650600D02*
X831500Y650600D01*
X835500Y650600D02*
X837500Y650600D01*
X844500Y650600D02*
X847500Y650600D01*
X853500Y650600D02*
X855500Y650600D01*
X859500Y650600D02*
X869500Y650600D01*
X874500Y650600D02*
X883500Y650600D01*
X887500Y650600D02*
X896500Y650600D01*
X67500Y649600D02*
X69500Y649600D01*
X81500Y649600D02*
X83500Y649600D01*
X776500Y649600D02*
X781500Y649600D01*
X784500Y649600D02*
X788500Y649600D01*
X794500Y649600D02*
X795500Y649600D01*
X801500Y649600D02*
X804500Y649600D01*
X808500Y649600D02*
X812500Y649600D01*
X816500Y649600D02*
X816500Y649600D01*
X820500Y649600D02*
X823500Y649600D01*
X827500Y649600D02*
X831500Y649600D01*
X835500Y649600D02*
X838500Y649600D01*
X843500Y649600D02*
X847500Y649600D01*
X853500Y649600D02*
X855500Y649600D01*
X860500Y649600D02*
X861500Y649600D01*
X866500Y649600D02*
X869500Y649600D01*
X874500Y649600D02*
X878500Y649600D01*
X882500Y649600D02*
X882500Y649600D01*
X886500Y649600D02*
X889500Y649600D01*
X894500Y649600D02*
X897500Y649600D01*
X67500Y648600D02*
X69500Y648600D01*
X81500Y648600D02*
X83500Y648600D01*
X776500Y648600D02*
X779500Y648600D01*
X785500Y648600D02*
X788500Y648600D01*
X801500Y648600D02*
X804500Y648600D01*
X808500Y648600D02*
X811500Y648600D01*
X819500Y648600D02*
X822500Y648600D01*
X828500Y648600D02*
X831500Y648600D01*
X835500Y648600D02*
X838500Y648600D01*
X843500Y648600D02*
X847500Y648600D01*
X852500Y648600D02*
X855500Y648600D01*
X867500Y648600D02*
X870500Y648600D01*
X874500Y648600D02*
X877500Y648600D01*
X886500Y648600D02*
X888500Y648600D01*
X895500Y648600D02*
X897500Y648600D01*
X67500Y647600D02*
X69500Y647600D01*
X81500Y647600D02*
X83500Y647600D01*
X776500Y647600D02*
X779500Y647600D01*
X786500Y647600D02*
X788500Y647600D01*
X801500Y647600D02*
X804500Y647600D01*
X808500Y647600D02*
X811500Y647600D01*
X819500Y647600D02*
X822500Y647600D01*
X829500Y647600D02*
X831500Y647600D01*
X836500Y647600D02*
X838500Y647600D01*
X843500Y647600D02*
X848500Y647600D01*
X852500Y647600D02*
X855500Y647600D01*
X867500Y647600D02*
X870500Y647600D01*
X874500Y647600D02*
X877500Y647600D01*
X885500Y647600D02*
X888500Y647600D01*
X895500Y647600D02*
X897500Y647600D01*
X67500Y646600D02*
X69500Y646600D01*
X81500Y646600D02*
X83500Y646600D01*
X776500Y646600D02*
X779500Y646600D01*
X786500Y646600D02*
X788500Y646600D01*
X801500Y646600D02*
X804500Y646600D01*
X808500Y646600D02*
X811500Y646600D01*
X819500Y646600D02*
X822500Y646600D01*
X829500Y646600D02*
X831500Y646600D01*
X836500Y646600D02*
X838500Y646600D01*
X842500Y646600D02*
X844500Y646600D01*
X846500Y646600D02*
X848500Y646600D01*
X852500Y646600D02*
X854500Y646600D01*
X867500Y646600D02*
X870500Y646600D01*
X874500Y646600D02*
X876500Y646600D01*
X885500Y646600D02*
X888500Y646600D01*
X895500Y646600D02*
X898500Y646600D01*
X67500Y645600D02*
X69500Y645600D01*
X81500Y645600D02*
X83500Y645600D01*
X776500Y645600D02*
X779500Y645600D01*
X786500Y645600D02*
X788500Y645600D01*
X794500Y645600D02*
X804500Y645600D01*
X808500Y645600D02*
X811500Y645600D01*
X819500Y645600D02*
X822500Y645600D01*
X829500Y645600D02*
X831500Y645600D01*
X836500Y645600D02*
X839500Y645600D01*
X842500Y645600D02*
X844500Y645600D01*
X846500Y645600D02*
X848500Y645600D01*
X852500Y645600D02*
X854500Y645600D01*
X859500Y645600D02*
X870500Y645600D01*
X874500Y645600D02*
X876500Y645600D01*
X885500Y645600D02*
X898500Y645600D01*
X67500Y644600D02*
X69500Y644600D01*
X81500Y644600D02*
X83500Y644600D01*
X776500Y644600D02*
X779500Y644600D01*
X786500Y644600D02*
X788500Y644600D01*
X793500Y644600D02*
X804500Y644600D01*
X808500Y644600D02*
X811500Y644600D01*
X819500Y644600D02*
X822500Y644600D01*
X829500Y644600D02*
X831500Y644600D01*
X837500Y644600D02*
X839500Y644600D01*
X842500Y644600D02*
X844500Y644600D01*
X847500Y644600D02*
X849500Y644600D01*
X851500Y644600D02*
X854500Y644600D01*
X858500Y644600D02*
X870500Y644600D01*
X874500Y644600D02*
X876500Y644600D01*
X885500Y644600D02*
X898500Y644600D01*
X67500Y643600D02*
X69500Y643600D01*
X81500Y643600D02*
X83500Y643600D01*
X776500Y643600D02*
X779500Y643600D01*
X786500Y643600D02*
X788500Y643600D01*
X792500Y643600D02*
X804500Y643600D01*
X808500Y643600D02*
X811500Y643600D01*
X819500Y643600D02*
X822500Y643600D01*
X829500Y643600D02*
X831500Y643600D01*
X837500Y643600D02*
X839500Y643600D01*
X841500Y643600D02*
X843500Y643600D01*
X847500Y643600D02*
X849500Y643600D01*
X851500Y643600D02*
X853500Y643600D01*
X858500Y643600D02*
X870500Y643600D01*
X874500Y643600D02*
X876500Y643600D01*
X885500Y643600D02*
X897500Y643600D01*
X67500Y642600D02*
X69500Y642600D01*
X81500Y642600D02*
X83500Y642600D01*
X776500Y642600D02*
X779500Y642600D01*
X786500Y642600D02*
X788500Y642600D01*
X792500Y642600D02*
X794500Y642600D01*
X801500Y642600D02*
X804500Y642600D01*
X808500Y642600D02*
X811500Y642600D01*
X819500Y642600D02*
X822500Y642600D01*
X829500Y642600D02*
X831500Y642600D01*
X837500Y642600D02*
X843500Y642600D01*
X847500Y642600D02*
X853500Y642600D01*
X857500Y642600D02*
X860500Y642600D01*
X867500Y642600D02*
X870500Y642600D01*
X874500Y642600D02*
X876500Y642600D01*
X885500Y642600D02*
X888500Y642600D01*
X67500Y641600D02*
X69500Y641600D01*
X80500Y641600D02*
X83500Y641600D01*
X776500Y641600D02*
X779500Y641600D01*
X786500Y641600D02*
X788500Y641600D01*
X792500Y641600D02*
X794500Y641600D01*
X801500Y641600D02*
X804500Y641600D01*
X808500Y641600D02*
X811500Y641600D01*
X819500Y641600D02*
X822500Y641600D01*
X829500Y641600D02*
X831500Y641600D01*
X838500Y641600D02*
X843500Y641600D01*
X848500Y641600D02*
X853500Y641600D01*
X857500Y641600D02*
X860500Y641600D01*
X867500Y641600D02*
X870500Y641600D01*
X874500Y641600D02*
X876500Y641600D01*
X885500Y641600D02*
X888500Y641600D01*
X67500Y640600D02*
X70500Y640600D01*
X80500Y640600D02*
X82500Y640600D01*
X776500Y640600D02*
X779500Y640600D01*
X786500Y640600D02*
X788500Y640600D01*
X792500Y640600D02*
X794500Y640600D01*
X801500Y640600D02*
X804500Y640600D01*
X808500Y640600D02*
X811500Y640600D01*
X820500Y640600D02*
X823500Y640600D01*
X828500Y640600D02*
X831500Y640600D01*
X838500Y640600D02*
X842500Y640600D01*
X848500Y640600D02*
X852500Y640600D01*
X857500Y640600D02*
X860500Y640600D01*
X867500Y640600D02*
X870500Y640600D01*
X874500Y640600D02*
X876500Y640600D01*
X886500Y640600D02*
X889500Y640600D01*
X895500Y640600D02*
X896500Y640600D01*
X68500Y639600D02*
X71500Y639600D01*
X79500Y639600D02*
X82500Y639600D01*
X776500Y639600D02*
X779500Y639600D01*
X786500Y639600D02*
X788500Y639600D01*
X792500Y639600D02*
X804500Y639600D01*
X808500Y639600D02*
X811500Y639600D01*
X820500Y639600D02*
X831500Y639600D01*
X838500Y639600D02*
X842500Y639600D01*
X848500Y639600D02*
X852500Y639600D01*
X858500Y639600D02*
X870500Y639600D01*
X874500Y639600D02*
X876500Y639600D01*
X886500Y639600D02*
X897500Y639600D01*
X69500Y638600D02*
X81500Y638600D01*
X776500Y638600D02*
X779500Y638600D01*
X786500Y638600D02*
X788500Y638600D01*
X793500Y638600D02*
X804500Y638600D01*
X808500Y638600D02*
X811500Y638600D01*
X821500Y638600D02*
X831500Y638600D01*
X839500Y638600D02*
X842500Y638600D01*
X848500Y638600D02*
X852500Y638600D01*
X858500Y638600D02*
X870500Y638600D01*
X874500Y638600D02*
X876500Y638600D01*
X887500Y638600D02*
X897500Y638600D01*
X70500Y637600D02*
X80500Y637600D01*
X776500Y637600D02*
X779500Y637600D01*
X786500Y637600D02*
X788500Y637600D01*
X794500Y637600D02*
X804500Y637600D01*
X808500Y637600D02*
X811500Y637600D01*
X822500Y637600D02*
X827500Y637600D01*
X829500Y637600D02*
X831500Y637600D01*
X839500Y637600D02*
X842500Y637600D01*
X849500Y637600D02*
X851500Y637600D01*
X859500Y637600D02*
X870500Y637600D01*
X874500Y637600D02*
X876500Y637600D01*
X888500Y637600D02*
X895500Y637600D01*
X71500Y636600D02*
X79500Y636600D01*
X796500Y636600D02*
X798500Y636600D01*
X824500Y636600D02*
X825500Y636600D01*
X862500Y636600D02*
X864500Y636600D01*
X891500Y636600D02*
X893500Y636600D01*
X63500Y628600D02*
X64500Y628600D01*
X80500Y628600D02*
X81500Y628600D01*
X61500Y627600D02*
X65500Y627600D01*
X78500Y627600D02*
X82500Y627600D01*
X61500Y626600D02*
X65500Y626600D01*
X77500Y626600D02*
X83500Y626600D01*
X60500Y625600D02*
X63500Y625600D01*
X75500Y625600D02*
X83500Y625600D01*
X60500Y624600D02*
X62500Y624600D01*
X74500Y624600D02*
X78500Y624600D01*
X81500Y624600D02*
X83500Y624600D01*
X60500Y623600D02*
X62500Y623600D01*
X73500Y623600D02*
X77500Y623600D01*
X81500Y623600D02*
X83500Y623600D01*
X60500Y622600D02*
X62500Y622600D01*
X71500Y622600D02*
X76500Y622600D01*
X81500Y622600D02*
X83500Y622600D01*
X60500Y621600D02*
X62500Y621600D01*
X70500Y621600D02*
X74500Y621600D01*
X81500Y621600D02*
X83500Y621600D01*
X60500Y620600D02*
X62500Y620600D01*
X69500Y620600D02*
X73500Y620600D01*
X81500Y620600D02*
X83500Y620600D01*
X60500Y619600D02*
X62500Y619600D01*
X68500Y619600D02*
X72500Y619600D01*
X81500Y619600D02*
X83500Y619600D01*
X60500Y618600D02*
X62500Y618600D01*
X66500Y618600D02*
X70500Y618600D01*
X81500Y618600D02*
X83500Y618600D01*
X60500Y617600D02*
X62500Y617600D01*
X65500Y617600D02*
X69500Y617600D01*
X81500Y617600D02*
X83500Y617600D01*
X60500Y616600D02*
X68500Y616600D01*
X80500Y616600D02*
X83500Y616600D01*
X60500Y615600D02*
X67500Y615600D01*
X79500Y615600D02*
X83500Y615600D01*
X61500Y614600D02*
X65500Y614600D01*
X78500Y614600D02*
X82500Y614600D01*
X63500Y613600D02*
X63500Y613600D01*
X80500Y613600D02*
X80500Y613600D01*
X82500Y582600D02*
X82500Y582600D01*
X81500Y581600D02*
X83500Y581600D01*
X81500Y580600D02*
X83500Y580600D01*
X81500Y579600D02*
X83500Y579600D01*
X81500Y578600D02*
X83500Y578600D01*
X60500Y577600D02*
X83500Y577600D01*
X60500Y576600D02*
X83500Y576600D01*
X60500Y575600D02*
X83500Y575600D01*
X60500Y574600D02*
X62500Y574600D01*
X81500Y574600D02*
X83500Y574600D01*
X60500Y573600D02*
X62500Y573600D01*
X81500Y573600D02*
X83500Y573600D01*
X60500Y572600D02*
X62500Y572600D01*
X81500Y572600D02*
X83500Y572600D01*
X60500Y571600D02*
X62500Y571600D01*
X81500Y571600D02*
X83500Y571600D01*
X70500Y561600D02*
X76500Y561600D01*
X81500Y561600D02*
X83500Y561600D01*
X69500Y560600D02*
X76500Y560600D01*
X81500Y560600D02*
X83500Y560600D01*
X68500Y559600D02*
X76500Y559600D01*
X81500Y559600D02*
X83500Y559600D01*
X67500Y558600D02*
X70500Y558600D01*
X74500Y558600D02*
X76500Y558600D01*
X81500Y558600D02*
X83500Y558600D01*
X67500Y557600D02*
X69500Y557600D01*
X74500Y557600D02*
X76500Y557600D01*
X81500Y557600D02*
X83500Y557600D01*
X67500Y556600D02*
X69500Y556600D01*
X74500Y556600D02*
X76500Y556600D01*
X81500Y556600D02*
X83500Y556600D01*
X67500Y555600D02*
X69500Y555600D01*
X74500Y555600D02*
X76500Y555600D01*
X81500Y555600D02*
X83500Y555600D01*
X67500Y554600D02*
X69500Y554600D01*
X74500Y554600D02*
X76500Y554600D01*
X81500Y554600D02*
X83500Y554600D01*
X67500Y553600D02*
X69500Y553600D01*
X74500Y553600D02*
X76500Y553600D01*
X81500Y553600D02*
X83500Y553600D01*
X67500Y552600D02*
X69500Y552600D01*
X74500Y552600D02*
X76500Y552600D01*
X81500Y552600D02*
X83500Y552600D01*
X67500Y551600D02*
X69500Y551600D01*
X74500Y551600D02*
X76500Y551600D01*
X81500Y551600D02*
X83500Y551600D01*
X67500Y550600D02*
X70500Y550600D01*
X74500Y550600D02*
X76500Y550600D01*
X80500Y550600D02*
X83500Y550600D01*
X68500Y549600D02*
X82500Y549600D01*
X69500Y548600D02*
X81500Y548600D01*
X70500Y547600D02*
X80500Y547600D01*
X69500Y539600D02*
X83500Y539600D01*
X68500Y538600D02*
X83500Y538600D01*
X67500Y537600D02*
X83500Y537600D01*
X67500Y536600D02*
X69500Y536600D01*
X73500Y536600D02*
X76500Y536600D01*
X79500Y536600D02*
X82500Y536600D01*
X67500Y535600D02*
X69500Y535600D01*
X73500Y535600D02*
X75500Y535600D01*
X80500Y535600D02*
X82500Y535600D01*
X67500Y534600D02*
X69500Y534600D01*
X73500Y534600D02*
X75500Y534600D01*
X81500Y534600D02*
X83500Y534600D01*
X67500Y533600D02*
X69500Y533600D01*
X73500Y533600D02*
X75500Y533600D01*
X81500Y533600D02*
X83500Y533600D01*
X67500Y532600D02*
X69500Y532600D01*
X73500Y532600D02*
X75500Y532600D01*
X81500Y532600D02*
X83500Y532600D01*
X67500Y531600D02*
X69500Y531600D01*
X73500Y531600D02*
X75500Y531600D01*
X81500Y531600D02*
X83500Y531600D01*
X67500Y530600D02*
X69500Y530600D01*
X73500Y530600D02*
X75500Y530600D01*
X81500Y530600D02*
X83500Y530600D01*
X67500Y529600D02*
X69500Y529600D01*
X73500Y529600D02*
X75500Y529600D01*
X81500Y529600D02*
X83500Y529600D01*
X67500Y528600D02*
X69500Y528600D01*
X73500Y528600D02*
X75500Y528600D01*
X81500Y528600D02*
X83500Y528600D01*
X67500Y527600D02*
X68500Y527600D01*
X74500Y527600D02*
X83500Y527600D01*
X74500Y526600D02*
X82500Y526600D01*
X75500Y525600D02*
X81500Y525600D01*
X71500Y517600D02*
X82500Y517600D01*
X68500Y516600D02*
X83500Y516600D01*
X68500Y515600D02*
X83500Y515600D01*
X67500Y514600D02*
X73500Y514600D01*
X67500Y513600D02*
X69500Y513600D01*
X67500Y512600D02*
X69500Y512600D01*
X67500Y511600D02*
X69500Y511600D01*
X67500Y510600D02*
X69500Y510600D01*
X67500Y509600D02*
X70500Y509600D01*
X67500Y508600D02*
X70500Y508600D01*
X68500Y507600D02*
X71500Y507600D01*
X69500Y506600D02*
X71500Y506600D01*
X61500Y505600D02*
X82500Y505600D01*
X60500Y504600D02*
X83500Y504600D01*
X60500Y503600D02*
X83500Y503600D01*
X67500Y495600D02*
X68500Y495600D01*
X82500Y495600D02*
X82500Y495600D01*
X67500Y494600D02*
X69500Y494600D01*
X81500Y494600D02*
X83500Y494600D01*
X67500Y493600D02*
X69500Y493600D01*
X81500Y493600D02*
X83500Y493600D01*
X67500Y492600D02*
X69500Y492600D01*
X81500Y492600D02*
X83500Y492600D01*
X67500Y491600D02*
X69500Y491600D01*
X81500Y491600D02*
X83500Y491600D01*
X67500Y490600D02*
X69500Y490600D01*
X81500Y490600D02*
X83500Y490600D01*
X67500Y489600D02*
X69500Y489600D01*
X81500Y489600D02*
X83500Y489600D01*
X67500Y488600D02*
X69500Y488600D01*
X81500Y488600D02*
X83500Y488600D01*
X67500Y487600D02*
X69500Y487600D01*
X81500Y487600D02*
X83500Y487600D01*
X67500Y486600D02*
X69500Y486600D01*
X80500Y486600D02*
X83500Y486600D01*
X67500Y485600D02*
X70500Y485600D01*
X80500Y485600D02*
X83500Y485600D01*
X68500Y484600D02*
X71500Y484600D01*
X79500Y484600D02*
X82500Y484600D01*
X69500Y483600D02*
X81500Y483600D01*
X70500Y482600D02*
X80500Y482600D01*
X71500Y481600D02*
X79500Y481600D01*
X73500Y480600D02*
X77500Y480600D01*
X82500Y471600D02*
X83500Y471600D01*
X81500Y470600D02*
X83500Y470600D01*
X81500Y469600D02*
X83500Y469600D01*
X81500Y468600D02*
X83500Y468600D01*
X81500Y467600D02*
X83500Y467600D01*
X59500Y466600D02*
X62500Y466600D01*
X67500Y466600D02*
X83500Y466600D01*
X59500Y465600D02*
X62500Y465600D01*
X67500Y465600D02*
X83500Y465600D01*
X59500Y464600D02*
X62500Y464600D01*
X67500Y464600D02*
X83500Y464600D01*
X59500Y463600D02*
X62500Y463600D01*
X67500Y463600D02*
X69500Y463600D01*
X81500Y463600D02*
X83500Y463600D01*
X67500Y462600D02*
X69500Y462600D01*
X81500Y462600D02*
X83500Y462600D01*
X67500Y461600D02*
X69500Y461600D01*
X81500Y461600D02*
X83500Y461600D01*
X67500Y460600D02*
X68500Y460600D01*
X81500Y460600D02*
X83500Y460600D01*
X60500Y452600D02*
X82500Y452600D01*
X60500Y451600D02*
X83500Y451600D01*
X60500Y450600D02*
X83500Y450600D01*
X60500Y449600D02*
X65500Y449600D01*
X61500Y448600D02*
X67500Y448600D01*
X63500Y447600D02*
X69500Y447600D01*
X65500Y446600D02*
X71500Y446600D01*
X67500Y445600D02*
X73500Y445600D01*
X69500Y444600D02*
X74500Y444600D01*
X70500Y443600D02*
X75500Y443600D01*
X68500Y442600D02*
X74500Y442600D01*
X66500Y441600D02*
X72500Y441600D01*
X64500Y440600D02*
X70500Y440600D01*
X61500Y439600D02*
X68500Y439600D01*
X60500Y438600D02*
X66500Y438600D01*
X60500Y437600D02*
X83500Y437600D01*
X60500Y436600D02*
X83500Y436600D01*
X60500Y435600D02*
X83500Y435600D01*
X66500Y402600D02*
X77500Y402600D01*
X65500Y401600D02*
X79500Y401600D01*
X63500Y400600D02*
X80500Y400600D01*
X62500Y399600D02*
X66500Y399600D01*
X77500Y399600D02*
X81500Y399600D01*
X61500Y398600D02*
X65500Y398600D01*
X78500Y398600D02*
X82500Y398600D01*
X60500Y397600D02*
X64500Y397600D01*
X80500Y397600D02*
X83500Y397600D01*
X60500Y396600D02*
X62500Y396600D01*
X81500Y396600D02*
X83500Y396600D01*
X67500Y384600D02*
X68500Y384600D01*
X82500Y384600D02*
X83500Y384600D01*
X67500Y383600D02*
X69500Y383600D01*
X81500Y383600D02*
X83500Y383600D01*
X67500Y382600D02*
X69500Y382600D01*
X81500Y382600D02*
X83500Y382600D01*
X67500Y381600D02*
X69500Y381600D01*
X81500Y381600D02*
X83500Y381600D01*
X67500Y380600D02*
X69500Y380600D01*
X81500Y380600D02*
X83500Y380600D01*
X67500Y379600D02*
X69500Y379600D01*
X81500Y379600D02*
X83500Y379600D01*
X67500Y378600D02*
X69500Y378600D01*
X81500Y378600D02*
X83500Y378600D01*
X67500Y377600D02*
X69500Y377600D01*
X81500Y377600D02*
X83500Y377600D01*
X67500Y376600D02*
X69500Y376600D01*
X81500Y376600D02*
X83500Y376600D01*
X67500Y375600D02*
X70500Y375600D01*
X80500Y375600D02*
X83500Y375600D01*
X67500Y374600D02*
X70500Y374600D01*
X79500Y374600D02*
X82500Y374600D01*
X68500Y373600D02*
X71500Y373600D01*
X79500Y373600D02*
X82500Y373600D01*
X69500Y372600D02*
X81500Y372600D01*
X70500Y371600D02*
X80500Y371600D01*
X71500Y370600D02*
X79500Y370600D01*
X61500Y358600D02*
X62500Y358600D01*
X81500Y358600D02*
X83500Y358600D01*
X60500Y357600D02*
X63500Y357600D01*
X80500Y357600D02*
X83500Y357600D01*
X60500Y356600D02*
X64500Y356600D01*
X79500Y356600D02*
X83500Y356600D01*
X62500Y355600D02*
X66500Y355600D01*
X78500Y355600D02*
X82500Y355600D01*
X63500Y354600D02*
X68500Y354600D01*
X76500Y354600D02*
X80500Y354600D01*
X64500Y353600D02*
X79500Y353600D01*
X66500Y352600D02*
X78500Y352600D01*
X68500Y351600D02*
X75500Y351600D01*
X236500Y197600D02*
X266500Y197600D01*
X437500Y197600D02*
X453500Y197600D01*
X234500Y196600D02*
X268500Y196600D01*
X435500Y196600D02*
X454500Y196600D01*
X503500Y196600D02*
X534500Y196600D01*
X704500Y196600D02*
X731500Y196600D01*
X234500Y195600D02*
X268500Y195600D01*
X435500Y195600D02*
X454500Y195600D01*
X502500Y195600D02*
X535500Y195600D01*
X703500Y195600D02*
X733500Y195600D01*
X234500Y194600D02*
X268500Y194600D01*
X434500Y194600D02*
X454500Y194600D01*
X501500Y194600D02*
X536500Y194600D01*
X702500Y194600D02*
X734500Y194600D01*
X234500Y193600D02*
X269500Y193600D01*
X434500Y193600D02*
X454500Y193600D01*
X501500Y193600D02*
X536500Y193600D01*
X702500Y193600D02*
X734500Y193600D01*
X234500Y192600D02*
X269500Y192600D01*
X435500Y192600D02*
X454500Y192600D01*
X501500Y192600D02*
X536500Y192600D01*
X702500Y192600D02*
X735500Y192600D01*
X234500Y191600D02*
X269500Y191600D01*
X436500Y191600D02*
X454500Y191600D01*
X501500Y191600D02*
X536500Y191600D01*
X702500Y191600D02*
X735500Y191600D01*
X234500Y190600D02*
X240500Y190600D01*
X248500Y190600D02*
X254500Y190600D01*
X262500Y190600D02*
X269500Y190600D01*
X448500Y190600D02*
X454500Y190600D01*
X501500Y190600D02*
X536500Y190600D01*
X704500Y190600D02*
X735500Y190600D01*
X234500Y189600D02*
X240500Y189600D01*
X248500Y189600D02*
X254500Y189600D01*
X263500Y189600D02*
X269500Y189600D01*
X448500Y189600D02*
X454500Y189600D01*
X501500Y189600D02*
X507500Y189600D01*
X516500Y189600D02*
X522500Y189600D01*
X530500Y189600D02*
X536500Y189600D01*
X729500Y189600D02*
X735500Y189600D01*
X234500Y188600D02*
X239500Y188600D01*
X248500Y188600D02*
X254500Y188600D01*
X263500Y188600D02*
X269500Y188600D01*
X448500Y188600D02*
X454500Y188600D01*
X501500Y188600D02*
X507500Y188600D01*
X516500Y188600D02*
X522500Y188600D01*
X530500Y188600D02*
X536500Y188600D01*
X729500Y188600D02*
X735500Y188600D01*
X234500Y187600D02*
X239500Y187600D01*
X248500Y187600D02*
X254500Y187600D01*
X263500Y187600D02*
X268500Y187600D01*
X448500Y187600D02*
X454500Y187600D01*
X501500Y187600D02*
X507500Y187600D01*
X516500Y187600D02*
X522500Y187600D01*
X530500Y187600D02*
X536500Y187600D01*
X729500Y187600D02*
X735500Y187600D01*
X234500Y186600D02*
X239500Y186600D01*
X248500Y186600D02*
X254500Y186600D01*
X263500Y186600D02*
X268500Y186600D01*
X448500Y186600D02*
X454500Y186600D01*
X501500Y186600D02*
X507500Y186600D01*
X516500Y186600D02*
X522500Y186600D01*
X530500Y186600D02*
X536500Y186600D01*
X729500Y186600D02*
X735500Y186600D01*
X235500Y185600D02*
X238500Y185600D01*
X248500Y185600D02*
X254500Y185600D01*
X264500Y185600D02*
X267500Y185600D01*
X448500Y185600D02*
X454500Y185600D01*
X502500Y185600D02*
X506500Y185600D01*
X516500Y185600D02*
X522500Y185600D01*
X531500Y185600D02*
X535500Y185600D01*
X729500Y185600D02*
X735500Y185600D01*
X248500Y184600D02*
X254500Y184600D01*
X448500Y184600D02*
X454500Y184600D01*
X503500Y184600D02*
X505500Y184600D01*
X516500Y184600D02*
X522500Y184600D01*
X532500Y184600D02*
X534500Y184600D01*
X729500Y184600D02*
X735500Y184600D01*
X248500Y183600D02*
X254500Y183600D01*
X385500Y183600D02*
X389500Y183600D01*
X397500Y183600D02*
X405500Y183600D01*
X448500Y183600D02*
X454500Y183600D01*
X516500Y183600D02*
X522500Y183600D01*
X654500Y183600D02*
X656500Y183600D01*
X667500Y183600D02*
X671500Y183600D01*
X729500Y183600D02*
X735500Y183600D01*
X248500Y182600D02*
X254500Y182600D01*
X294500Y182600D02*
X308500Y182600D01*
X336500Y182600D02*
X338500Y182600D01*
X344500Y182600D02*
X348500Y182600D01*
X359500Y182600D02*
X362500Y182600D01*
X385500Y182600D02*
X390500Y182600D01*
X395500Y182600D02*
X407500Y182600D01*
X448500Y182600D02*
X454500Y182600D01*
X516500Y182600D02*
X522500Y182600D01*
X653500Y182600D02*
X657500Y182600D01*
X664500Y182600D02*
X674500Y182600D01*
X729500Y182600D02*
X735500Y182600D01*
X248500Y181600D02*
X254500Y181600D01*
X292500Y181600D02*
X310500Y181600D01*
X334500Y181600D02*
X339500Y181600D01*
X342500Y181600D02*
X350500Y181600D01*
X356500Y181600D02*
X364500Y181600D01*
X384500Y181600D02*
X390500Y181600D01*
X394500Y181600D02*
X409500Y181600D01*
X448500Y181600D02*
X454500Y181600D01*
X516500Y181600D02*
X522500Y181600D01*
X561500Y181600D02*
X576500Y181600D01*
X603500Y181600D02*
X606500Y181600D01*
X611500Y181600D02*
X616500Y181600D01*
X625500Y181600D02*
X630500Y181600D01*
X652500Y181600D02*
X657500Y181600D01*
X662500Y181600D02*
X675500Y181600D01*
X729500Y181600D02*
X735500Y181600D01*
X248500Y180600D02*
X254500Y180600D01*
X290500Y180600D02*
X312500Y180600D01*
X334500Y180600D02*
X351500Y180600D01*
X355500Y180600D02*
X365500Y180600D01*
X384500Y180600D02*
X390500Y180600D01*
X393500Y180600D02*
X410500Y180600D01*
X448500Y180600D02*
X454500Y180600D01*
X516500Y180600D02*
X522500Y180600D01*
X559500Y180600D02*
X578500Y180600D01*
X602500Y180600D02*
X607500Y180600D01*
X609500Y180600D02*
X618500Y180600D01*
X623500Y180600D02*
X632500Y180600D01*
X652500Y180600D02*
X658500Y180600D01*
X661500Y180600D02*
X677500Y180600D01*
X729500Y180600D02*
X735500Y180600D01*
X248500Y179600D02*
X254500Y179600D01*
X289500Y179600D02*
X313500Y179600D01*
X334500Y179600D02*
X366500Y179600D01*
X384500Y179600D02*
X411500Y179600D01*
X448500Y179600D02*
X454500Y179600D01*
X516500Y179600D02*
X522500Y179600D01*
X558500Y179600D02*
X580500Y179600D01*
X601500Y179600D02*
X619500Y179600D01*
X622500Y179600D02*
X633500Y179600D01*
X652500Y179600D02*
X658500Y179600D01*
X660500Y179600D02*
X678500Y179600D01*
X729500Y179600D02*
X735500Y179600D01*
X248500Y178600D02*
X254500Y178600D01*
X288500Y178600D02*
X314500Y178600D01*
X334500Y178600D02*
X367500Y178600D01*
X384500Y178600D02*
X412500Y178600D01*
X448500Y178600D02*
X454500Y178600D01*
X516500Y178600D02*
X522500Y178600D01*
X556500Y178600D02*
X581500Y178600D01*
X601500Y178600D02*
X634500Y178600D01*
X652500Y178600D02*
X679500Y178600D01*
X729500Y178600D02*
X735500Y178600D01*
X248500Y177600D02*
X254500Y177600D01*
X287500Y177600D02*
X315500Y177600D01*
X334500Y177600D02*
X368500Y177600D01*
X384500Y177600D02*
X413500Y177600D01*
X448500Y177600D02*
X454500Y177600D01*
X516500Y177600D02*
X522500Y177600D01*
X555500Y177600D02*
X582500Y177600D01*
X601500Y177600D02*
X635500Y177600D01*
X652500Y177600D02*
X680500Y177600D01*
X729500Y177600D02*
X735500Y177600D01*
X248500Y176600D02*
X254500Y176600D01*
X286500Y176600D02*
X316500Y176600D01*
X334500Y176600D02*
X368500Y176600D01*
X384500Y176600D02*
X398500Y176600D01*
X405500Y176600D02*
X414500Y176600D01*
X448500Y176600D02*
X454500Y176600D01*
X516500Y176600D02*
X522500Y176600D01*
X555500Y176600D02*
X583500Y176600D01*
X601500Y176600D02*
X635500Y176600D01*
X652500Y176600D02*
X666500Y176600D01*
X671500Y176600D02*
X681500Y176600D01*
X729500Y176600D02*
X735500Y176600D01*
X248500Y175600D02*
X254500Y175600D01*
X286500Y175600D02*
X295500Y175600D01*
X308500Y175600D02*
X316500Y175600D01*
X334500Y175600D02*
X344500Y175600D01*
X347500Y175600D02*
X359500Y175600D01*
X362500Y175600D02*
X368500Y175600D01*
X384500Y175600D02*
X397500Y175600D01*
X406500Y175600D02*
X415500Y175600D01*
X448500Y175600D02*
X454500Y175600D01*
X516500Y175600D02*
X522500Y175600D01*
X554500Y175600D02*
X584500Y175600D01*
X601500Y175600D02*
X636500Y175600D01*
X652500Y175600D02*
X665500Y175600D01*
X673500Y175600D02*
X682500Y175600D01*
X729500Y175600D02*
X735500Y175600D01*
X248500Y174600D02*
X254500Y174600D01*
X285500Y174600D02*
X293500Y174600D01*
X309500Y174600D02*
X317500Y174600D01*
X334500Y174600D02*
X343500Y174600D01*
X348500Y174600D02*
X358500Y174600D01*
X362500Y174600D02*
X368500Y174600D01*
X384500Y174600D02*
X396500Y174600D01*
X407500Y174600D02*
X416500Y174600D01*
X448500Y174600D02*
X454500Y174600D01*
X516500Y174600D02*
X522500Y174600D01*
X553500Y174600D02*
X562500Y174600D01*
X576500Y174600D02*
X584500Y174600D01*
X601500Y174600D02*
X612500Y174600D01*
X615500Y174600D02*
X626500Y174600D01*
X630500Y174600D02*
X636500Y174600D01*
X652500Y174600D02*
X664500Y174600D01*
X674500Y174600D02*
X683500Y174600D01*
X729500Y174600D02*
X735500Y174600D01*
X248500Y173600D02*
X254500Y173600D01*
X285500Y173600D02*
X292500Y173600D01*
X310500Y173600D02*
X317500Y173600D01*
X334500Y173600D02*
X342500Y173600D01*
X348500Y173600D02*
X356500Y173600D01*
X362500Y173600D02*
X368500Y173600D01*
X384500Y173600D02*
X395500Y173600D01*
X408500Y173600D02*
X417500Y173600D01*
X448500Y173600D02*
X454500Y173600D01*
X516500Y173600D02*
X522500Y173600D01*
X553500Y173600D02*
X560500Y173600D01*
X577500Y173600D02*
X585500Y173600D01*
X601500Y173600D02*
X610500Y173600D01*
X616500Y173600D02*
X625500Y173600D01*
X630500Y173600D02*
X636500Y173600D01*
X652500Y173600D02*
X663500Y173600D01*
X675500Y173600D02*
X684500Y173600D01*
X729500Y173600D02*
X735500Y173600D01*
X248500Y172600D02*
X254500Y172600D01*
X285500Y172600D02*
X291500Y172600D01*
X311500Y172600D02*
X318500Y172600D01*
X334500Y172600D02*
X341500Y172600D01*
X348500Y172600D02*
X355500Y172600D01*
X362500Y172600D02*
X368500Y172600D01*
X384500Y172600D02*
X394500Y172600D01*
X409500Y172600D02*
X417500Y172600D01*
X448500Y172600D02*
X454500Y172600D01*
X516500Y172600D02*
X522500Y172600D01*
X552500Y172600D02*
X559500Y172600D01*
X578500Y172600D02*
X585500Y172600D01*
X601500Y172600D02*
X609500Y172600D01*
X616500Y172600D02*
X624500Y172600D01*
X630500Y172600D02*
X636500Y172600D01*
X652500Y172600D02*
X662500Y172600D01*
X676500Y172600D02*
X684500Y172600D01*
X706500Y172600D02*
X735500Y172600D01*
X248500Y171600D02*
X254500Y171600D01*
X284500Y171600D02*
X291500Y171600D01*
X312500Y171600D02*
X318500Y171600D01*
X334500Y171600D02*
X340500Y171600D01*
X348500Y171600D02*
X354500Y171600D01*
X362500Y171600D02*
X368500Y171600D01*
X384500Y171600D02*
X393500Y171600D01*
X410500Y171600D02*
X417500Y171600D01*
X448500Y171600D02*
X454500Y171600D01*
X516500Y171600D02*
X522500Y171600D01*
X552500Y171600D02*
X559500Y171600D01*
X579500Y171600D02*
X585500Y171600D01*
X601500Y171600D02*
X608500Y171600D01*
X616500Y171600D02*
X622500Y171600D01*
X630500Y171600D02*
X636500Y171600D01*
X652500Y171600D02*
X661500Y171600D01*
X677500Y171600D02*
X685500Y171600D01*
X704500Y171600D02*
X735500Y171600D01*
X248500Y170600D02*
X254500Y170600D01*
X284500Y170600D02*
X290500Y170600D01*
X312500Y170600D02*
X318500Y170600D01*
X334500Y170600D02*
X340500Y170600D01*
X348500Y170600D02*
X354500Y170600D01*
X362500Y170600D02*
X368500Y170600D01*
X384500Y170600D02*
X392500Y170600D01*
X411500Y170600D02*
X418500Y170600D01*
X448500Y170600D02*
X454500Y170600D01*
X516500Y170600D02*
X522500Y170600D01*
X552500Y170600D02*
X558500Y170600D01*
X579500Y170600D02*
X585500Y170600D01*
X601500Y170600D02*
X607500Y170600D01*
X616500Y170600D02*
X622500Y170600D01*
X630500Y170600D02*
X636500Y170600D01*
X652500Y170600D02*
X660500Y170600D01*
X678500Y170600D02*
X685500Y170600D01*
X703500Y170600D02*
X735500Y170600D01*
X248500Y169600D02*
X254500Y169600D01*
X284500Y169600D02*
X290500Y169600D01*
X312500Y169600D02*
X318500Y169600D01*
X334500Y169600D02*
X340500Y169600D01*
X348500Y169600D02*
X354500Y169600D01*
X362500Y169600D02*
X368500Y169600D01*
X384500Y169600D02*
X391500Y169600D01*
X412500Y169600D02*
X418500Y169600D01*
X448500Y169600D02*
X454500Y169600D01*
X516500Y169600D02*
X522500Y169600D01*
X552500Y169600D02*
X558500Y169600D01*
X579500Y169600D02*
X585500Y169600D01*
X601500Y169600D02*
X607500Y169600D01*
X616500Y169600D02*
X622500Y169600D01*
X630500Y169600D02*
X636500Y169600D01*
X652500Y169600D02*
X659500Y169600D01*
X679500Y169600D02*
X685500Y169600D01*
X703500Y169600D02*
X734500Y169600D01*
X248500Y168600D02*
X254500Y168600D01*
X284500Y168600D02*
X290500Y168600D01*
X312500Y168600D02*
X318500Y168600D01*
X334500Y168600D02*
X340500Y168600D01*
X348500Y168600D02*
X354500Y168600D01*
X362500Y168600D02*
X368500Y168600D01*
X384500Y168600D02*
X390500Y168600D01*
X412500Y168600D02*
X418500Y168600D01*
X448500Y168600D02*
X454500Y168600D01*
X516500Y168600D02*
X522500Y168600D01*
X552500Y168600D02*
X558500Y168600D01*
X579500Y168600D02*
X585500Y168600D01*
X601500Y168600D02*
X607500Y168600D01*
X616500Y168600D02*
X622500Y168600D01*
X630500Y168600D02*
X636500Y168600D01*
X652500Y168600D02*
X658500Y168600D01*
X679500Y168600D02*
X685500Y168600D01*
X702500Y168600D02*
X733500Y168600D01*
X248500Y167600D02*
X254500Y167600D01*
X284500Y167600D02*
X290500Y167600D01*
X312500Y167600D02*
X318500Y167600D01*
X334500Y167600D02*
X340500Y167600D01*
X348500Y167600D02*
X354500Y167600D01*
X362500Y167600D02*
X368500Y167600D01*
X384500Y167600D02*
X390500Y167600D01*
X412500Y167600D02*
X418500Y167600D01*
X448500Y167600D02*
X454500Y167600D01*
X516500Y167600D02*
X522500Y167600D01*
X552500Y167600D02*
X558500Y167600D01*
X579500Y167600D02*
X585500Y167600D01*
X601500Y167600D02*
X607500Y167600D01*
X616500Y167600D02*
X622500Y167600D01*
X630500Y167600D02*
X636500Y167600D01*
X652500Y167600D02*
X658500Y167600D01*
X679500Y167600D02*
X685500Y167600D01*
X702500Y167600D02*
X732500Y167600D01*
X248500Y166600D02*
X254500Y166600D01*
X284500Y166600D02*
X318500Y166600D01*
X334500Y166600D02*
X340500Y166600D01*
X348500Y166600D02*
X354500Y166600D01*
X362500Y166600D02*
X368500Y166600D01*
X384500Y166600D02*
X390500Y166600D01*
X412500Y166600D02*
X418500Y166600D01*
X448500Y166600D02*
X454500Y166600D01*
X516500Y166600D02*
X522500Y166600D01*
X552500Y166600D02*
X558500Y166600D01*
X579500Y166600D02*
X585500Y166600D01*
X601500Y166600D02*
X607500Y166600D01*
X616500Y166600D02*
X622500Y166600D01*
X630500Y166600D02*
X636500Y166600D01*
X652500Y166600D02*
X658500Y166600D01*
X679500Y166600D02*
X685500Y166600D01*
X702500Y166600D02*
X729500Y166600D01*
X248500Y165600D02*
X254500Y165600D01*
X284500Y165600D02*
X318500Y165600D01*
X334500Y165600D02*
X340500Y165600D01*
X348500Y165600D02*
X354500Y165600D01*
X362500Y165600D02*
X368500Y165600D01*
X384500Y165600D02*
X390500Y165600D01*
X412500Y165600D02*
X418500Y165600D01*
X448500Y165600D02*
X454500Y165600D01*
X516500Y165600D02*
X522500Y165600D01*
X552500Y165600D02*
X585500Y165600D01*
X601500Y165600D02*
X607500Y165600D01*
X616500Y165600D02*
X622500Y165600D01*
X630500Y165600D02*
X636500Y165600D01*
X652500Y165600D02*
X658500Y165600D01*
X679500Y165600D02*
X685500Y165600D01*
X702500Y165600D02*
X708500Y165600D01*
X248500Y164600D02*
X254500Y164600D01*
X284500Y164600D02*
X318500Y164600D01*
X334500Y164600D02*
X340500Y164600D01*
X348500Y164600D02*
X354500Y164600D01*
X362500Y164600D02*
X368500Y164600D01*
X384500Y164600D02*
X390500Y164600D01*
X412500Y164600D02*
X418500Y164600D01*
X448500Y164600D02*
X454500Y164600D01*
X516500Y164600D02*
X522500Y164600D01*
X552500Y164600D02*
X585500Y164600D01*
X601500Y164600D02*
X607500Y164600D01*
X616500Y164600D02*
X622500Y164600D01*
X630500Y164600D02*
X636500Y164600D01*
X652500Y164600D02*
X658500Y164600D01*
X679500Y164600D02*
X685500Y164600D01*
X702500Y164600D02*
X708500Y164600D01*
X248500Y163600D02*
X254500Y163600D01*
X284500Y163600D02*
X318500Y163600D01*
X334500Y163600D02*
X340500Y163600D01*
X348500Y163600D02*
X354500Y163600D01*
X362500Y163600D02*
X368500Y163600D01*
X384500Y163600D02*
X390500Y163600D01*
X412500Y163600D02*
X418500Y163600D01*
X448500Y163600D02*
X454500Y163600D01*
X463500Y163600D02*
X467500Y163600D01*
X516500Y163600D02*
X522500Y163600D01*
X552500Y163600D02*
X585500Y163600D01*
X601500Y163600D02*
X607500Y163600D01*
X616500Y163600D02*
X622500Y163600D01*
X630500Y163600D02*
X636500Y163600D01*
X652500Y163600D02*
X658500Y163600D01*
X679500Y163600D02*
X685500Y163600D01*
X702500Y163600D02*
X708500Y163600D01*
X248500Y162600D02*
X254500Y162600D01*
X284500Y162600D02*
X318500Y162600D01*
X334500Y162600D02*
X340500Y162600D01*
X348500Y162600D02*
X354500Y162600D01*
X362500Y162600D02*
X368500Y162600D01*
X384500Y162600D02*
X390500Y162600D01*
X412500Y162600D02*
X418500Y162600D01*
X448500Y162600D02*
X454500Y162600D01*
X462500Y162600D02*
X467500Y162600D01*
X516500Y162600D02*
X522500Y162600D01*
X552500Y162600D02*
X585500Y162600D01*
X601500Y162600D02*
X607500Y162600D01*
X616500Y162600D02*
X622500Y162600D01*
X630500Y162600D02*
X636500Y162600D01*
X652500Y162600D02*
X658500Y162600D01*
X679500Y162600D02*
X685500Y162600D01*
X702500Y162600D02*
X708500Y162600D01*
X248500Y161600D02*
X254500Y161600D01*
X284500Y161600D02*
X317500Y161600D01*
X334500Y161600D02*
X340500Y161600D01*
X348500Y161600D02*
X354500Y161600D01*
X362500Y161600D02*
X368500Y161600D01*
X384500Y161600D02*
X390500Y161600D01*
X412500Y161600D02*
X418500Y161600D01*
X448500Y161600D02*
X454500Y161600D01*
X462500Y161600D02*
X468500Y161600D01*
X516500Y161600D02*
X522500Y161600D01*
X552500Y161600D02*
X585500Y161600D01*
X601500Y161600D02*
X607500Y161600D01*
X616500Y161600D02*
X622500Y161600D01*
X630500Y161600D02*
X636500Y161600D01*
X652500Y161600D02*
X658500Y161600D01*
X679500Y161600D02*
X685500Y161600D01*
X702500Y161600D02*
X708500Y161600D01*
X248500Y160600D02*
X254500Y160600D01*
X284500Y160600D02*
X317500Y160600D01*
X334500Y160600D02*
X340500Y160600D01*
X348500Y160600D02*
X354500Y160600D01*
X362500Y160600D02*
X368500Y160600D01*
X384500Y160600D02*
X390500Y160600D01*
X412500Y160600D02*
X418500Y160600D01*
X448500Y160600D02*
X454500Y160600D01*
X462500Y160600D02*
X468500Y160600D01*
X516500Y160600D02*
X522500Y160600D01*
X552500Y160600D02*
X585500Y160600D01*
X601500Y160600D02*
X607500Y160600D01*
X616500Y160600D02*
X622500Y160600D01*
X630500Y160600D02*
X636500Y160600D01*
X652500Y160600D02*
X658500Y160600D01*
X679500Y160600D02*
X685500Y160600D01*
X702500Y160600D02*
X708500Y160600D01*
X248500Y159600D02*
X254500Y159600D01*
X284500Y159600D02*
X291500Y159600D01*
X334500Y159600D02*
X340500Y159600D01*
X348500Y159600D02*
X354500Y159600D01*
X362500Y159600D02*
X368500Y159600D01*
X384500Y159600D02*
X390500Y159600D01*
X412500Y159600D02*
X418500Y159600D01*
X448500Y159600D02*
X454500Y159600D01*
X462500Y159600D02*
X468500Y159600D01*
X516500Y159600D02*
X522500Y159600D01*
X552500Y159600D02*
X584500Y159600D01*
X601500Y159600D02*
X607500Y159600D01*
X616500Y159600D02*
X622500Y159600D01*
X630500Y159600D02*
X636500Y159600D01*
X652500Y159600D02*
X658500Y159600D01*
X679500Y159600D02*
X685500Y159600D01*
X702500Y159600D02*
X708500Y159600D01*
X248500Y158600D02*
X254500Y158600D01*
X284500Y158600D02*
X290500Y158600D01*
X334500Y158600D02*
X340500Y158600D01*
X348500Y158600D02*
X354500Y158600D01*
X362500Y158600D02*
X368500Y158600D01*
X384500Y158600D02*
X390500Y158600D01*
X412500Y158600D02*
X418500Y158600D01*
X448500Y158600D02*
X454500Y158600D01*
X462500Y158600D02*
X468500Y158600D01*
X516500Y158600D02*
X522500Y158600D01*
X552500Y158600D02*
X558500Y158600D01*
X601500Y158600D02*
X607500Y158600D01*
X616500Y158600D02*
X622500Y158600D01*
X630500Y158600D02*
X636500Y158600D01*
X652500Y158600D02*
X658500Y158600D01*
X679500Y158600D02*
X685500Y158600D01*
X702500Y158600D02*
X708500Y158600D01*
X248500Y157600D02*
X254500Y157600D01*
X284500Y157600D02*
X290500Y157600D01*
X334500Y157600D02*
X340500Y157600D01*
X348500Y157600D02*
X354500Y157600D01*
X362500Y157600D02*
X368500Y157600D01*
X384500Y157600D02*
X390500Y157600D01*
X412500Y157600D02*
X418500Y157600D01*
X448500Y157600D02*
X454500Y157600D01*
X462500Y157600D02*
X468500Y157600D01*
X516500Y157600D02*
X522500Y157600D01*
X552500Y157600D02*
X558500Y157600D01*
X601500Y157600D02*
X607500Y157600D01*
X616500Y157600D02*
X622500Y157600D01*
X630500Y157600D02*
X636500Y157600D01*
X652500Y157600D02*
X658500Y157600D01*
X679500Y157600D02*
X685500Y157600D01*
X702500Y157600D02*
X708500Y157600D01*
X248500Y156600D02*
X254500Y156600D01*
X284500Y156600D02*
X290500Y156600D01*
X334500Y156600D02*
X340500Y156600D01*
X348500Y156600D02*
X354500Y156600D01*
X362500Y156600D02*
X368500Y156600D01*
X384500Y156600D02*
X391500Y156600D01*
X412500Y156600D02*
X418500Y156600D01*
X448500Y156600D02*
X454500Y156600D01*
X462500Y156600D02*
X468500Y156600D01*
X516500Y156600D02*
X522500Y156600D01*
X552500Y156600D02*
X558500Y156600D01*
X601500Y156600D02*
X607500Y156600D01*
X616500Y156600D02*
X622500Y156600D01*
X630500Y156600D02*
X636500Y156600D01*
X652500Y156600D02*
X658500Y156600D01*
X679500Y156600D02*
X685500Y156600D01*
X702500Y156600D02*
X708500Y156600D01*
X248500Y155600D02*
X254500Y155600D01*
X284500Y155600D02*
X290500Y155600D01*
X334500Y155600D02*
X340500Y155600D01*
X348500Y155600D02*
X354500Y155600D01*
X362500Y155600D02*
X368500Y155600D01*
X384500Y155600D02*
X392500Y155600D01*
X411500Y155600D02*
X418500Y155600D01*
X448500Y155600D02*
X454500Y155600D01*
X462500Y155600D02*
X468500Y155600D01*
X516500Y155600D02*
X522500Y155600D01*
X552500Y155600D02*
X558500Y155600D01*
X601500Y155600D02*
X607500Y155600D01*
X616500Y155600D02*
X622500Y155600D01*
X630500Y155600D02*
X636500Y155600D01*
X652500Y155600D02*
X659500Y155600D01*
X679500Y155600D02*
X685500Y155600D01*
X702500Y155600D02*
X708500Y155600D01*
X248500Y154600D02*
X254500Y154600D01*
X284500Y154600D02*
X291500Y154600D01*
X334500Y154600D02*
X340500Y154600D01*
X348500Y154600D02*
X354500Y154600D01*
X362500Y154600D02*
X368500Y154600D01*
X384500Y154600D02*
X393500Y154600D01*
X410500Y154600D02*
X417500Y154600D01*
X448500Y154600D02*
X454500Y154600D01*
X462500Y154600D02*
X468500Y154600D01*
X516500Y154600D02*
X522500Y154600D01*
X552500Y154600D02*
X558500Y154600D01*
X601500Y154600D02*
X607500Y154600D01*
X616500Y154600D02*
X622500Y154600D01*
X630500Y154600D02*
X636500Y154600D01*
X652500Y154600D02*
X660500Y154600D01*
X678500Y154600D02*
X685500Y154600D01*
X702500Y154600D02*
X708500Y154600D01*
X248500Y153600D02*
X254500Y153600D01*
X285500Y153600D02*
X292500Y153600D01*
X334500Y153600D02*
X340500Y153600D01*
X348500Y153600D02*
X354500Y153600D01*
X362500Y153600D02*
X368500Y153600D01*
X384500Y153600D02*
X394500Y153600D01*
X409500Y153600D02*
X417500Y153600D01*
X448500Y153600D02*
X454500Y153600D01*
X462500Y153600D02*
X468500Y153600D01*
X516500Y153600D02*
X522500Y153600D01*
X552500Y153600D02*
X559500Y153600D01*
X601500Y153600D02*
X607500Y153600D01*
X616500Y153600D02*
X622500Y153600D01*
X630500Y153600D02*
X636500Y153600D01*
X652500Y153600D02*
X661500Y153600D01*
X677500Y153600D02*
X685500Y153600D01*
X702500Y153600D02*
X708500Y153600D01*
X248500Y152600D02*
X254500Y152600D01*
X285500Y152600D02*
X293500Y152600D01*
X334500Y152600D02*
X340500Y152600D01*
X348500Y152600D02*
X354500Y152600D01*
X362500Y152600D02*
X368500Y152600D01*
X384500Y152600D02*
X395500Y152600D01*
X408500Y152600D02*
X416500Y152600D01*
X448500Y152600D02*
X454500Y152600D01*
X462500Y152600D02*
X468500Y152600D01*
X516500Y152600D02*
X522500Y152600D01*
X552500Y152600D02*
X559500Y152600D01*
X601500Y152600D02*
X607500Y152600D01*
X616500Y152600D02*
X622500Y152600D01*
X630500Y152600D02*
X636500Y152600D01*
X652500Y152600D02*
X662500Y152600D01*
X676500Y152600D02*
X684500Y152600D01*
X702500Y152600D02*
X708500Y152600D01*
X248500Y151600D02*
X254500Y151600D01*
X285500Y151600D02*
X294500Y151600D01*
X334500Y151600D02*
X340500Y151600D01*
X348500Y151600D02*
X354500Y151600D01*
X362500Y151600D02*
X368500Y151600D01*
X384500Y151600D02*
X396500Y151600D01*
X406500Y151600D02*
X416500Y151600D01*
X448500Y151600D02*
X454500Y151600D01*
X462500Y151600D02*
X468500Y151600D01*
X516500Y151600D02*
X522500Y151600D01*
X553500Y151600D02*
X560500Y151600D01*
X601500Y151600D02*
X607500Y151600D01*
X616500Y151600D02*
X622500Y151600D01*
X630500Y151600D02*
X636500Y151600D01*
X652500Y151600D02*
X663500Y151600D01*
X675500Y151600D02*
X684500Y151600D01*
X702500Y151600D02*
X708500Y151600D01*
X248500Y150600D02*
X254500Y150600D01*
X286500Y150600D02*
X314500Y150600D01*
X334500Y150600D02*
X340500Y150600D01*
X348500Y150600D02*
X354500Y150600D01*
X362500Y150600D02*
X368500Y150600D01*
X384500Y150600D02*
X397500Y150600D01*
X405500Y150600D02*
X415500Y150600D01*
X438500Y150600D02*
X468500Y150600D01*
X516500Y150600D02*
X522500Y150600D01*
X553500Y150600D02*
X562500Y150600D01*
X601500Y150600D02*
X607500Y150600D01*
X616500Y150600D02*
X622500Y150600D01*
X630500Y150600D02*
X636500Y150600D01*
X652500Y150600D02*
X664500Y150600D01*
X674500Y150600D02*
X683500Y150600D01*
X702500Y150600D02*
X708500Y150600D01*
X248500Y149600D02*
X254500Y149600D01*
X287500Y149600D02*
X317500Y149600D01*
X334500Y149600D02*
X340500Y149600D01*
X348500Y149600D02*
X354500Y149600D01*
X362500Y149600D02*
X368500Y149600D01*
X384500Y149600D02*
X398500Y149600D01*
X404500Y149600D02*
X414500Y149600D01*
X435500Y149600D02*
X468500Y149600D01*
X516500Y149600D02*
X522500Y149600D01*
X554500Y149600D02*
X583500Y149600D01*
X601500Y149600D02*
X607500Y149600D01*
X616500Y149600D02*
X622500Y149600D01*
X630500Y149600D02*
X636500Y149600D01*
X652500Y149600D02*
X665500Y149600D01*
X672500Y149600D02*
X682500Y149600D01*
X702500Y149600D02*
X733500Y149600D01*
X248500Y148600D02*
X254500Y148600D01*
X288500Y148600D02*
X317500Y148600D01*
X334500Y148600D02*
X340500Y148600D01*
X348500Y148600D02*
X354500Y148600D01*
X362500Y148600D02*
X368500Y148600D01*
X384500Y148600D02*
X413500Y148600D01*
X435500Y148600D02*
X468500Y148600D01*
X516500Y148600D02*
X522500Y148600D01*
X554500Y148600D02*
X585500Y148600D01*
X601500Y148600D02*
X607500Y148600D01*
X616500Y148600D02*
X622500Y148600D01*
X630500Y148600D02*
X636500Y148600D01*
X652500Y148600D02*
X667500Y148600D01*
X671500Y148600D02*
X681500Y148600D01*
X702500Y148600D02*
X735500Y148600D01*
X248500Y147600D02*
X254500Y147600D01*
X289500Y147600D02*
X318500Y147600D01*
X334500Y147600D02*
X340500Y147600D01*
X348500Y147600D02*
X354500Y147600D01*
X362500Y147600D02*
X368500Y147600D01*
X384500Y147600D02*
X412500Y147600D01*
X434500Y147600D02*
X468500Y147600D01*
X516500Y147600D02*
X522500Y147600D01*
X555500Y147600D02*
X585500Y147600D01*
X601500Y147600D02*
X607500Y147600D01*
X616500Y147600D02*
X622500Y147600D01*
X630500Y147600D02*
X636500Y147600D01*
X652500Y147600D02*
X680500Y147600D01*
X702500Y147600D02*
X735500Y147600D01*
X248500Y146600D02*
X254500Y146600D01*
X290500Y146600D02*
X318500Y146600D01*
X334500Y146600D02*
X340500Y146600D01*
X348500Y146600D02*
X354500Y146600D01*
X362500Y146600D02*
X368500Y146600D01*
X384500Y146600D02*
X390500Y146600D01*
X392500Y146600D02*
X411500Y146600D01*
X434500Y146600D02*
X468500Y146600D01*
X516500Y146600D02*
X522500Y146600D01*
X557500Y146600D02*
X585500Y146600D01*
X601500Y146600D02*
X607500Y146600D01*
X616500Y146600D02*
X622500Y146600D01*
X630500Y146600D02*
X636500Y146600D01*
X652500Y146600D02*
X679500Y146600D01*
X702500Y146600D02*
X735500Y146600D01*
X248500Y145600D02*
X254500Y145600D01*
X291500Y145600D02*
X317500Y145600D01*
X334500Y145600D02*
X339500Y145600D01*
X348500Y145600D02*
X354500Y145600D01*
X363500Y145600D02*
X368500Y145600D01*
X384500Y145600D02*
X390500Y145600D01*
X393500Y145600D02*
X409500Y145600D01*
X435500Y145600D02*
X467500Y145600D01*
X516500Y145600D02*
X521500Y145600D01*
X558500Y145600D02*
X585500Y145600D01*
X601500Y145600D02*
X607500Y145600D01*
X616500Y145600D02*
X621500Y145600D01*
X630500Y145600D02*
X636500Y145600D01*
X652500Y145600D02*
X658500Y145600D01*
X660500Y145600D02*
X678500Y145600D01*
X702500Y145600D02*
X735500Y145600D01*
X249500Y144600D02*
X253500Y144600D01*
X293500Y144600D02*
X317500Y144600D01*
X335500Y144600D02*
X338500Y144600D01*
X349500Y144600D02*
X353500Y144600D01*
X364500Y144600D02*
X367500Y144600D01*
X384500Y144600D02*
X390500Y144600D01*
X394500Y144600D02*
X408500Y144600D01*
X435500Y144600D02*
X467500Y144600D01*
X516500Y144600D02*
X521500Y144600D01*
X559500Y144600D02*
X585500Y144600D01*
X602500Y144600D02*
X607500Y144600D01*
X616500Y144600D02*
X621500Y144600D01*
X631500Y144600D02*
X635500Y144600D01*
X652500Y144600D02*
X658500Y144600D01*
X661500Y144600D02*
X677500Y144600D01*
X702500Y144600D02*
X735500Y144600D01*
X384500Y143600D02*
X390500Y143600D01*
X396500Y143600D02*
X407500Y143600D01*
X517500Y143600D02*
X520500Y143600D01*
X561500Y143600D02*
X584500Y143600D01*
X603500Y143600D02*
X606500Y143600D01*
X617500Y143600D02*
X620500Y143600D01*
X632500Y143600D02*
X634500Y143600D01*
X652500Y143600D02*
X658500Y143600D01*
X662500Y143600D02*
X675500Y143600D01*
X702500Y143600D02*
X734500Y143600D01*
X384500Y142600D02*
X390500Y142600D01*
X398500Y142600D02*
X404500Y142600D01*
X652500Y142600D02*
X658500Y142600D01*
X664500Y142600D02*
X674500Y142600D01*
X384500Y141600D02*
X390500Y141600D01*
X652500Y141600D02*
X658500Y141600D01*
X667500Y141600D02*
X670500Y141600D01*
X384500Y140600D02*
X390500Y140600D01*
X652500Y140600D02*
X658500Y140600D01*
X384500Y139600D02*
X390500Y139600D01*
X652500Y139600D02*
X658500Y139600D01*
X384500Y138600D02*
X390500Y138600D01*
X652500Y138600D02*
X658500Y138600D01*
X384500Y137600D02*
X390500Y137600D01*
X652500Y137600D02*
X658500Y137600D01*
X384500Y136600D02*
X390500Y136600D01*
X652500Y136600D02*
X658500Y136600D01*
X384500Y135600D02*
X390500Y135600D01*
X652500Y135600D02*
X658500Y135600D01*
X384500Y134600D02*
X390500Y134600D01*
X652500Y134600D02*
X658500Y134600D01*
X384500Y133600D02*
X390500Y133600D01*
X652500Y133600D02*
X658500Y133600D01*
X384500Y132600D02*
X390500Y132600D01*
X652500Y132600D02*
X658500Y132600D01*
X384500Y131600D02*
X390500Y131600D01*
X652500Y131600D02*
X658500Y131600D01*
X385500Y130600D02*
X390500Y130600D01*
X652500Y130600D02*
X658500Y130600D01*
X386500Y129600D02*
X389500Y129600D01*
X653500Y129600D02*
X657500Y129600D01*
X654500Y128600D02*
X656500Y128600D01*
D02*
G04 End of Silk1*
M02*