<svg version="1.1" xmlns="http://www.w3.org/2000/svg" xmlns:xlink="http://www.w3.org/1999/xlink" stroke-linecap="round" stroke-linejoin="round" stroke-width="0" fill-rule="evenodd" width="0.949025in" height="1.145613in" viewBox="17.633 17.612 949.025 1145.613" id="dsk3LlyDml7QJL4-_9yH"><defs><circle cx="0" cy="0" r="113.268" id="dsk3LlyDml7QJL4-_9yH_pad-10"/><circle cx="0" cy="0" r="46.6535" id="dsk3LlyDml7QJL4-_9yH_pad-11"/><circle cx="0" cy="0" r="44" id="dsk3LlyDml7QJL4-_9yH_pad-12"/><circle cx="0" cy="0" r="73.8975" id="dsk3LlyDml7QJL4-_9yH_pad-13"/><rect x="-46.6535" y="-46.6535" width="93.307" height="93.307" id="dsk3LlyDml7QJL4-_9yH_pad-14"/></defs><g transform="translate(0,1180.837) scale(1,-1)" fill="currentColor" stroke="currentColor"><use xlink:href="#dsk3LlyDml7QJL4-_9yH_pad-10" x="853.041" y="130.88"/><use xlink:href="#dsk3LlyDml7QJL4-_9yH_pad-10" x="130.901" y="1049.957"/><use xlink:href="#dsk3LlyDml7QJL4-_9yH_pad-10" x="853.39" y="1049.87"/><use xlink:href="#dsk3LlyDml7QJL4-_9yH_pad-11" x="564.428" y="1012.642"/><use xlink:href="#dsk3LlyDml7QJL4-_9yH_pad-11" x="664.428" y="1012.642"/><use xlink:href="#dsk3LlyDml7QJL4-_9yH_pad-11" x="418.643" y="176.11"/><use xlink:href="#dsk3LlyDml7QJL4-_9yH_pad-11" x="318.643" y="176.11"/><use xlink:href="#dsk3LlyDml7QJL4-_9yH_pad-11" x="317.739" y="1012.655"/><use xlink:href="#dsk3LlyDml7QJL4-_9yH_pad-11" x="417.739" y="1012.655"/><use xlink:href="#dsk3LlyDml7QJL4-_9yH_pad-11" x="665.163" y="176.52"/><use xlink:href="#dsk3LlyDml7QJL4-_9yH_pad-11" x="565.163" y="176.52"/><use xlink:href="#dsk3LlyDml7QJL4-_9yH_pad-12" x="232.48" y="742.759"/><use xlink:href="#dsk3LlyDml7QJL4-_9yH_pad-12" x="332.485" y="742.759"/><use xlink:href="#dsk3LlyDml7QJL4-_9yH_pad-12" x="432.489" y="742.759"/><use xlink:href="#dsk3LlyDml7QJL4-_9yH_pad-12" x="532.493" y="742.759"/><use xlink:href="#dsk3LlyDml7QJL4-_9yH_pad-12" x="632.497" y="742.759"/><use xlink:href="#dsk3LlyDml7QJL4-_9yH_pad-12" x="732.501" y="742.759"/><use xlink:href="#dsk3LlyDml7QJL4-_9yH_pad-13" x="281.437" y="441.58"/><use xlink:href="#dsk3LlyDml7QJL4-_9yH_pad-13" x="690.502" y="438.838"/><use xlink:href="#dsk3LlyDml7QJL4-_9yH_pad-10" x="130.99" y="131.2"/><use xlink:href="#dsk3LlyDml7QJL4-_9yH_pad-14" x="564.428" y="1012.642"/><use xlink:href="#dsk3LlyDml7QJL4-_9yH_pad-14" x="418.643" y="176.114"/><use xlink:href="#dsk3LlyDml7QJL4-_9yH_pad-14" x="317.74" y="1012.655"/><use xlink:href="#dsk3LlyDml7QJL4-_9yH_pad-14" x="665.163" y="176.523"/></g></svg>