<svg version="1.1" xmlns="http://www.w3.org/2000/svg" xmlns:xlink="http://www.w3.org/1999/xlink" stroke-linecap="round" stroke-linejoin="round" stroke-width="0" fill-rule="evenodd" width="3.236184in" height="1.449374in" viewBox="133.308 42.826 3236.184 1449.374" id="QDyyS2EFN2S9M8Q5G0h7"><defs><circle cx="0" cy="0" r="21.6535" id="QDyyS2EFN2S9M8Q5G0h7_pad-100"/><circle cx="0" cy="0" r="19.685" id="QDyyS2EFN2S9M8Q5G0h7_pad-101"/><circle cx="0" cy="0" r="49.2125" id="QDyyS2EFN2S9M8Q5G0h7_pad-102"/><circle cx="0" cy="0" r="17.5" id="QDyyS2EFN2S9M8Q5G0h7_pad-103"/><circle cx="0" cy="0" r="7.874" id="QDyyS2EFN2S9M8Q5G0h7_pad-104"/><circle cx="0" cy="0" r="62.992" id="QDyyS2EFN2S9M8Q5G0h7_pad-105"/><circle cx="0" cy="0" r="19" id="QDyyS2EFN2S9M8Q5G0h7_pad-106"/></defs><g transform="translate(0,1535.026) scale(1,-1)" fill="currentColor" stroke="currentColor"><use xlink:href="#QDyyS2EFN2S9M8Q5G0h7_pad-100" x="668.9" y="128.4"/><use xlink:href="#QDyyS2EFN2S9M8Q5G0h7_pad-100" x="3124.4" y="126.9"/><use xlink:href="#QDyyS2EFN2S9M8Q5G0h7_pad-100" x="791.4" y="1451.9"/><use xlink:href="#QDyyS2EFN2S9M8Q5G0h7_pad-100" x="3024.4" y="126.9"/><use xlink:href="#QDyyS2EFN2S9M8Q5G0h7_pad-100" x="3224.4" y="126.9"/><use xlink:href="#QDyyS2EFN2S9M8Q5G0h7_pad-100" x="2448.3" y="128.2"/><use xlink:href="#QDyyS2EFN2S9M8Q5G0h7_pad-100" x="473.9" y="131.5"/><use xlink:href="#QDyyS2EFN2S9M8Q5G0h7_pad-100" x="2045.4" y="130.7"/><use xlink:href="#QDyyS2EFN2S9M8Q5G0h7_pad-100" x="2245.4" y="130.7"/><use xlink:href="#QDyyS2EFN2S9M8Q5G0h7_pad-100" x="2852.4" y="127.4"/><use xlink:href="#QDyyS2EFN2S9M8Q5G0h7_pad-100" x="2145.4" y="130.7"/><use xlink:href="#QDyyS2EFN2S9M8Q5G0h7_pad-100" x="1458.2" y="128.8"/><use xlink:href="#QDyyS2EFN2S9M8Q5G0h7_pad-100" x="1264.6" y="128.4"/><use xlink:href="#QDyyS2EFN2S9M8Q5G0h7_pad-100" x="891.4" y="1451.9"/><use xlink:href="#QDyyS2EFN2S9M8Q5G0h7_pad-100" x="768.9" y="128.4"/><use xlink:href="#QDyyS2EFN2S9M8Q5G0h7_pad-100" x="531.4" y="1451"/><use xlink:href="#QDyyS2EFN2S9M8Q5G0h7_pad-100" x="1164.6" y="128.4"/><use xlink:href="#QDyyS2EFN2S9M8Q5G0h7_pad-100" x="2548.3" y="128.2"/><use xlink:href="#QDyyS2EFN2S9M8Q5G0h7_pad-100" x="373.9" y="131.5"/><use xlink:href="#QDyyS2EFN2S9M8Q5G0h7_pad-100" x="1755.8" y="128.6"/><use xlink:href="#QDyyS2EFN2S9M8Q5G0h7_pad-100" x="1855.8" y="128.6"/><use xlink:href="#QDyyS2EFN2S9M8Q5G0h7_pad-100" x="631.4" y="1451"/><use xlink:href="#QDyyS2EFN2S9M8Q5G0h7_pad-100" x="1558.2" y="128.8"/><use xlink:href="#QDyyS2EFN2S9M8Q5G0h7_pad-100" x="2752.4" y="127.4"/><use xlink:href="#QDyyS2EFN2S9M8Q5G0h7_pad-101" x="284.9" y="942"/><use xlink:href="#QDyyS2EFN2S9M8Q5G0h7_pad-101" x="384.9" y="942"/><use xlink:href="#QDyyS2EFN2S9M8Q5G0h7_pad-101" x="784.9" y="942"/><use xlink:href="#QDyyS2EFN2S9M8Q5G0h7_pad-101" x="1084.9" y="942"/><use xlink:href="#QDyyS2EFN2S9M8Q5G0h7_pad-101" x="1184.9" y="942"/><use xlink:href="#QDyyS2EFN2S9M8Q5G0h7_pad-101" x="584.9" y="942"/><use xlink:href="#QDyyS2EFN2S9M8Q5G0h7_pad-101" x="984.9" y="942"/><use xlink:href="#QDyyS2EFN2S9M8Q5G0h7_pad-101" x="884.9" y="942"/><use xlink:href="#QDyyS2EFN2S9M8Q5G0h7_pad-101" x="484.9" y="942"/><use xlink:href="#QDyyS2EFN2S9M8Q5G0h7_pad-101" x="684.9" y="942"/><use xlink:href="#QDyyS2EFN2S9M8Q5G0h7_pad-102" x="1178" y="1432.8"/><use xlink:href="#QDyyS2EFN2S9M8Q5G0h7_pad-102" x="292.3" y="1432.8"/><use xlink:href="#QDyyS2EFN2S9M8Q5G0h7_pad-103" x="1835.3" y="1283.8"/><use xlink:href="#QDyyS2EFN2S9M8Q5G0h7_pad-103" x="1616.9" y="725.1"/><use xlink:href="#QDyyS2EFN2S9M8Q5G0h7_pad-103" x="1734" y="1125.5"/><use xlink:href="#QDyyS2EFN2S9M8Q5G0h7_pad-103" x="1497.4" y="1125.8"/><use xlink:href="#QDyyS2EFN2S9M8Q5G0h7_pad-103" x="2235.3" y="1283.8"/><use xlink:href="#QDyyS2EFN2S9M8Q5G0h7_pad-103" x="1616.9" y="1125.1"/><use xlink:href="#QDyyS2EFN2S9M8Q5G0h7_pad-103" x="1734" y="725.5"/><use xlink:href="#QDyyS2EFN2S9M8Q5G0h7_pad-103" x="1849.4" y="727.9"/><use xlink:href="#QDyyS2EFN2S9M8Q5G0h7_pad-103" x="1497.4" y="725.8"/><use xlink:href="#QDyyS2EFN2S9M8Q5G0h7_pad-103" x="2826.2" y="1282.8"/><use xlink:href="#QDyyS2EFN2S9M8Q5G0h7_pad-103" x="2426.2" y="1282.8"/><use xlink:href="#QDyyS2EFN2S9M8Q5G0h7_pad-103" x="1849.4" y="1127.9"/><use xlink:href="#QDyyS2EFN2S9M8Q5G0h7_pad-104" x="2916" y="674.8"/><use xlink:href="#QDyyS2EFN2S9M8Q5G0h7_pad-104" x="2652" y="242.7"/><use xlink:href="#QDyyS2EFN2S9M8Q5G0h7_pad-104" x="1956" y="266.7"/><use xlink:href="#QDyyS2EFN2S9M8Q5G0h7_pad-104" x="1932" y="794.8"/><use xlink:href="#QDyyS2EFN2S9M8Q5G0h7_pad-104" x="1356" y="50.7"/><use xlink:href="#QDyyS2EFN2S9M8Q5G0h7_pad-104" x="923.9" y="1274.8"/><use xlink:href="#QDyyS2EFN2S9M8Q5G0h7_pad-104" x="2004" y="674.8"/><use xlink:href="#QDyyS2EFN2S9M8Q5G0h7_pad-104" x="2748" y="554.8"/><use xlink:href="#QDyyS2EFN2S9M8Q5G0h7_pad-104" x="2196" y="314.7"/><use xlink:href="#QDyyS2EFN2S9M8Q5G0h7_pad-104" x="1332" y="1370.8"/><use xlink:href="#QDyyS2EFN2S9M8Q5G0h7_pad-104" x="1068" y="626.8"/><use xlink:href="#QDyyS2EFN2S9M8Q5G0h7_pad-104" x="2364" y="314.7"/><use xlink:href="#QDyyS2EFN2S9M8Q5G0h7_pad-104" x="1428" y="266.7"/><use xlink:href="#QDyyS2EFN2S9M8Q5G0h7_pad-104" x="2940" y="242.7"/><use xlink:href="#QDyyS2EFN2S9M8Q5G0h7_pad-105" x="3306.5" y="790.7"/><use xlink:href="#QDyyS2EFN2S9M8Q5G0h7_pad-105" x="196.3" y="790.7"/><use xlink:href="#QDyyS2EFN2S9M8Q5G0h7_pad-106" x="1501" y="473.3"/><use xlink:href="#QDyyS2EFN2S9M8Q5G0h7_pad-106" x="193.5" y="106.5"/><use xlink:href="#QDyyS2EFN2S9M8Q5G0h7_pad-106" x="2501" y="473.3"/><use xlink:href="#QDyyS2EFN2S9M8Q5G0h7_pad-106" x="2801" y="473.3"/><use xlink:href="#QDyyS2EFN2S9M8Q5G0h7_pad-106" x="3101" y="473.3"/><use xlink:href="#QDyyS2EFN2S9M8Q5G0h7_pad-106" x="1801" y="473.3"/><use xlink:href="#QDyyS2EFN2S9M8Q5G0h7_pad-106" x="2101" y="473.3"/><use xlink:href="#QDyyS2EFN2S9M8Q5G0h7_pad-106" x="924.1" y="626.5"/><use xlink:href="#QDyyS2EFN2S9M8Q5G0h7_pad-106" x="923.5" y="206.5"/><use xlink:href="#QDyyS2EFN2S9M8Q5G0h7_pad-106" x="1601" y="1473.2"/><use xlink:href="#QDyyS2EFN2S9M8Q5G0h7_pad-106" x="2601" y="1473.2"/><use xlink:href="#QDyyS2EFN2S9M8Q5G0h7_pad-106" x="3201" y="473.3"/><use xlink:href="#QDyyS2EFN2S9M8Q5G0h7_pad-106" x="2201" y="473.3"/><use xlink:href="#QDyyS2EFN2S9M8Q5G0h7_pad-106" x="2401" y="473.3"/><use xlink:href="#QDyyS2EFN2S9M8Q5G0h7_pad-106" x="193.5" y="526.5"/><use xlink:href="#QDyyS2EFN2S9M8Q5G0h7_pad-106" x="1401" y="473.3"/><use xlink:href="#QDyyS2EFN2S9M8Q5G0h7_pad-106" x="1901" y="1473.2"/><use xlink:href="#QDyyS2EFN2S9M8Q5G0h7_pad-106" x="2301" y="473.3"/><use xlink:href="#QDyyS2EFN2S9M8Q5G0h7_pad-106" x="2901" y="1473.2"/><use xlink:href="#QDyyS2EFN2S9M8Q5G0h7_pad-106" x="3001" y="473.3"/><use xlink:href="#QDyyS2EFN2S9M8Q5G0h7_pad-106" x="1701" y="473.3"/><use xlink:href="#QDyyS2EFN2S9M8Q5G0h7_pad-106" x="2001" y="473.3"/><use xlink:href="#QDyyS2EFN2S9M8Q5G0h7_pad-106" x="2701" y="473.3"/><use xlink:href="#QDyyS2EFN2S9M8Q5G0h7_pad-106" x="2401" y="1473.2"/><use xlink:href="#QDyyS2EFN2S9M8Q5G0h7_pad-106" x="1401" y="1473.2"/><use xlink:href="#QDyyS2EFN2S9M8Q5G0h7_pad-106" x="924.1" y="526.5"/><use xlink:href="#QDyyS2EFN2S9M8Q5G0h7_pad-106" x="2201" y="1473.2"/><use xlink:href="#QDyyS2EFN2S9M8Q5G0h7_pad-106" x="3201" y="1473.2"/><use xlink:href="#QDyyS2EFN2S9M8Q5G0h7_pad-106" x="2001" y="1473.2"/><use xlink:href="#QDyyS2EFN2S9M8Q5G0h7_pad-106" x="1701" y="1473.2"/><use xlink:href="#QDyyS2EFN2S9M8Q5G0h7_pad-106" x="3001" y="1473.2"/><use xlink:href="#QDyyS2EFN2S9M8Q5G0h7_pad-106" x="2701" y="1473.2"/><use xlink:href="#QDyyS2EFN2S9M8Q5G0h7_pad-106" x="2301" y="1473.2"/><use xlink:href="#QDyyS2EFN2S9M8Q5G0h7_pad-106" x="1901" y="473.3"/><use xlink:href="#QDyyS2EFN2S9M8Q5G0h7_pad-106" x="2901" y="473.3"/><use xlink:href="#QDyyS2EFN2S9M8Q5G0h7_pad-106" x="2801" y="1473.2"/><use xlink:href="#QDyyS2EFN2S9M8Q5G0h7_pad-106" x="2101" y="1473.2"/><use xlink:href="#QDyyS2EFN2S9M8Q5G0h7_pad-106" x="1801" y="1473.2"/><use xlink:href="#QDyyS2EFN2S9M8Q5G0h7_pad-106" x="3101" y="1473.2"/><use xlink:href="#QDyyS2EFN2S9M8Q5G0h7_pad-106" x="1501" y="1473.2"/><use xlink:href="#QDyyS2EFN2S9M8Q5G0h7_pad-106" x="193.5" y="206.5"/><use xlink:href="#QDyyS2EFN2S9M8Q5G0h7_pad-106" x="2501" y="1473.2"/><use xlink:href="#QDyyS2EFN2S9M8Q5G0h7_pad-106" x="923.5" y="106.5"/><use xlink:href="#QDyyS2EFN2S9M8Q5G0h7_pad-106" x="1601" y="473.3"/><use xlink:href="#QDyyS2EFN2S9M8Q5G0h7_pad-106" x="193.5" y="626.5"/><use xlink:href="#QDyyS2EFN2S9M8Q5G0h7_pad-106" x="2601" y="473.3"/></g></svg>