<svg version="1.1" xmlns="http://www.w3.org/2000/svg" xmlns:xlink="http://www.w3.org/1999/xlink" stroke-linecap="round" stroke-linejoin="round" stroke-width="0" fill-rule="evenodd" width="3.32496in" height="1.491136in" viewBox="88.9625 26.115 3324.96 1491.136" id="g7HtfQZKtmUGWOrpYyNX"><defs><circle cx="0" cy="0" r="24.685" id="g7HtfQZKtmUGWOrpYyNX_pad-10"/><circle cx="0" cy="0" r="107.3625" id="g7HtfQZKtmUGWOrpYyNX_pad-11"/><circle cx="0" cy="0" r="73.8975" id="g7HtfQZKtmUGWOrpYyNX_pad-12"/><circle cx="0" cy="0" r="44" id="g7HtfQZKtmUGWOrpYyNX_pad-13"/><circle cx="0" cy="0" r="42.5" id="g7HtfQZKtmUGWOrpYyNX_pad-14"/><circle cx="0" cy="0" r="46.6535" id="g7HtfQZKtmUGWOrpYyNX_pad-15"/><circle cx="0" cy="0" r="40" id="g7HtfQZKtmUGWOrpYyNX_pad-16"/><rect x="-46.6535" y="-46.6535" width="93.307" height="93.307" id="g7HtfQZKtmUGWOrpYyNX_pad-17"/><rect x="-44" y="-44" width="88" height="88" id="g7HtfQZKtmUGWOrpYyNX_pad-18"/></defs><g transform="translate(0,1543.366) scale(1,-1)" fill="currentColor" stroke="currentColor"><use xlink:href="#g7HtfQZKtmUGWOrpYyNX_pad-10" x="1356" y="50.8"/><use xlink:href="#g7HtfQZKtmUGWOrpYyNX_pad-10" x="1068" y="626.801"/><use xlink:href="#g7HtfQZKtmUGWOrpYyNX_pad-10" x="1428" y="266.8"/><use xlink:href="#g7HtfQZKtmUGWOrpYyNX_pad-10" x="1932" y="794.801"/><use xlink:href="#g7HtfQZKtmUGWOrpYyNX_pad-10" x="2748" y="554.8"/><use xlink:href="#g7HtfQZKtmUGWOrpYyNX_pad-10" x="1956" y="266.8"/><use xlink:href="#g7HtfQZKtmUGWOrpYyNX_pad-10" x="2652" y="242.8"/><use xlink:href="#g7HtfQZKtmUGWOrpYyNX_pad-10" x="923.999" y="1274.801"/><use xlink:href="#g7HtfQZKtmUGWOrpYyNX_pad-10" x="2916" y="674.801"/><use xlink:href="#g7HtfQZKtmUGWOrpYyNX_pad-10" x="2004" y="674.801"/><use xlink:href="#g7HtfQZKtmUGWOrpYyNX_pad-10" x="1332" y="1370.801"/><use xlink:href="#g7HtfQZKtmUGWOrpYyNX_pad-10" x="2940" y="242.8"/><use xlink:href="#g7HtfQZKtmUGWOrpYyNX_pad-10" x="2196" y="314.8"/><use xlink:href="#g7HtfQZKtmUGWOrpYyNX_pad-10" x="2364" y="314.8"/><use xlink:href="#g7HtfQZKtmUGWOrpYyNX_pad-11" x="196.325" y="790.767"/><use xlink:href="#g7HtfQZKtmUGWOrpYyNX_pad-12" x="1178.05" y="1432.853"/><use xlink:href="#g7HtfQZKtmUGWOrpYyNX_pad-13" x="3201.06" y="1473.251"/><use xlink:href="#g7HtfQZKtmUGWOrpYyNX_pad-13" x="3101.05" y="1473.251"/><use xlink:href="#g7HtfQZKtmUGWOrpYyNX_pad-13" x="3001.05" y="1473.251"/><use xlink:href="#g7HtfQZKtmUGWOrpYyNX_pad-13" x="2901.05" y="1473.251"/><use xlink:href="#g7HtfQZKtmUGWOrpYyNX_pad-13" x="2801.05" y="1473.251"/><use xlink:href="#g7HtfQZKtmUGWOrpYyNX_pad-13" x="2701.05" y="1473.251"/><use xlink:href="#g7HtfQZKtmUGWOrpYyNX_pad-13" x="2601.03" y="1473.251"/><use xlink:href="#g7HtfQZKtmUGWOrpYyNX_pad-13" x="2501.03" y="1473.251"/><use xlink:href="#g7HtfQZKtmUGWOrpYyNX_pad-13" x="2401.03" y="1473.251"/><use xlink:href="#g7HtfQZKtmUGWOrpYyNX_pad-13" x="2301.02" y="1473.251"/><use xlink:href="#g7HtfQZKtmUGWOrpYyNX_pad-13" x="2201.02" y="1473.251"/><use xlink:href="#g7HtfQZKtmUGWOrpYyNX_pad-13" x="2101.02" y="1473.251"/><use xlink:href="#g7HtfQZKtmUGWOrpYyNX_pad-13" x="2001.02" y="1473.251"/><use xlink:href="#g7HtfQZKtmUGWOrpYyNX_pad-13" x="1901.02" y="1473.251"/><use xlink:href="#g7HtfQZKtmUGWOrpYyNX_pad-13" x="1801.01" y="1473.251"/><use xlink:href="#g7HtfQZKtmUGWOrpYyNX_pad-13" x="1701.01" y="1473.251"/><use xlink:href="#g7HtfQZKtmUGWOrpYyNX_pad-13" x="1601.01" y="1473.251"/><use xlink:href="#g7HtfQZKtmUGWOrpYyNX_pad-13" x="1501.01" y="1473.251"/><use xlink:href="#g7HtfQZKtmUGWOrpYyNX_pad-13" x="1401.01" y="1473.251"/><use xlink:href="#g7HtfQZKtmUGWOrpYyNX_pad-13" x="1401.05" y="473.36"/><use xlink:href="#g7HtfQZKtmUGWOrpYyNX_pad-13" x="1501.05" y="473.36"/><use xlink:href="#g7HtfQZKtmUGWOrpYyNX_pad-13" x="1601.05" y="473.36"/><use xlink:href="#g7HtfQZKtmUGWOrpYyNX_pad-13" x="1701.05" y="473.36"/><use xlink:href="#g7HtfQZKtmUGWOrpYyNX_pad-13" x="1801.05" y="473.36"/><use xlink:href="#g7HtfQZKtmUGWOrpYyNX_pad-13" x="1901.05" y="473.36"/><use xlink:href="#g7HtfQZKtmUGWOrpYyNX_pad-13" x="2001.06" y="473.36"/><use xlink:href="#g7HtfQZKtmUGWOrpYyNX_pad-13" x="2101.06" y="473.36"/><use xlink:href="#g7HtfQZKtmUGWOrpYyNX_pad-13" x="2201.06" y="473.36"/><use xlink:href="#g7HtfQZKtmUGWOrpYyNX_pad-13" x="2301.06" y="473.36"/><use xlink:href="#g7HtfQZKtmUGWOrpYyNX_pad-13" x="2401.08" y="473.36"/><use xlink:href="#g7HtfQZKtmUGWOrpYyNX_pad-13" x="2501.08" y="473.36"/><use xlink:href="#g7HtfQZKtmUGWOrpYyNX_pad-13" x="2601.08" y="473.36"/><use xlink:href="#g7HtfQZKtmUGWOrpYyNX_pad-13" x="2701.09" y="473.36"/><use xlink:href="#g7HtfQZKtmUGWOrpYyNX_pad-13" x="2801.09" y="473.36"/><use xlink:href="#g7HtfQZKtmUGWOrpYyNX_pad-13" x="2901.09" y="473.36"/><use xlink:href="#g7HtfQZKtmUGWOrpYyNX_pad-13" x="3001.09" y="473.36"/><use xlink:href="#g7HtfQZKtmUGWOrpYyNX_pad-13" x="3101.09" y="473.36"/><use xlink:href="#g7HtfQZKtmUGWOrpYyNX_pad-13" x="3201.09" y="473.36"/><use xlink:href="#g7HtfQZKtmUGWOrpYyNX_pad-14" x="2426.29" y="1282.864"/><use xlink:href="#g7HtfQZKtmUGWOrpYyNX_pad-14" x="2826.29" y="1282.864"/><use xlink:href="#g7HtfQZKtmUGWOrpYyNX_pad-14" x="1497.41" y="1125.873"/><use xlink:href="#g7HtfQZKtmUGWOrpYyNX_pad-14" x="1497.41" y="725.873"/><use xlink:href="#g7HtfQZKtmUGWOrpYyNX_pad-14" x="2235.33" y="1283.898"/><use xlink:href="#g7HtfQZKtmUGWOrpYyNX_pad-14" x="1835.33" y="1283.898"/><use xlink:href="#g7HtfQZKtmUGWOrpYyNX_pad-15" x="2448.31" y="128.21"/><use xlink:href="#g7HtfQZKtmUGWOrpYyNX_pad-15" x="2548.31" y="128.21"/><use xlink:href="#g7HtfQZKtmUGWOrpYyNX_pad-15" x="2752.47" y="127.49"/><use xlink:href="#g7HtfQZKtmUGWOrpYyNX_pad-15" x="2852.47" y="127.49"/><use xlink:href="#g7HtfQZKtmUGWOrpYyNX_pad-15" x="3024.41" y="126.94"/><use xlink:href="#g7HtfQZKtmUGWOrpYyNX_pad-15" x="3124.41" y="126.94"/><use xlink:href="#g7HtfQZKtmUGWOrpYyNX_pad-15" x="3224.41" y="126.94"/><use xlink:href="#g7HtfQZKtmUGWOrpYyNX_pad-15" x="2045.49" y="130.71"/><use xlink:href="#g7HtfQZKtmUGWOrpYyNX_pad-15" x="2145.49" y="130.71"/><use xlink:href="#g7HtfQZKtmUGWOrpYyNX_pad-15" x="2245.49" y="130.71"/><use xlink:href="#g7HtfQZKtmUGWOrpYyNX_pad-15" x="1755.82" y="128.67"/><use xlink:href="#g7HtfQZKtmUGWOrpYyNX_pad-15" x="1855.82" y="128.67"/><use xlink:href="#g7HtfQZKtmUGWOrpYyNX_pad-15" x="631.406" y="1451.051"/><use xlink:href="#g7HtfQZKtmUGWOrpYyNX_pad-15" x="531.406" y="1451.051"/><use xlink:href="#g7HtfQZKtmUGWOrpYyNX_pad-15" x="891.467" y="1451.917"/><use xlink:href="#g7HtfQZKtmUGWOrpYyNX_pad-15" x="791.467" y="1451.917"/><use xlink:href="#g7HtfQZKtmUGWOrpYyNX_pad-15" x="1458.22" y="128.82"/><use xlink:href="#g7HtfQZKtmUGWOrpYyNX_pad-15" x="1558.22" y="128.82"/><use xlink:href="#g7HtfQZKtmUGWOrpYyNX_pad-15" x="1164.62" y="128.41"/><use xlink:href="#g7HtfQZKtmUGWOrpYyNX_pad-15" x="1264.62" y="128.41"/><use xlink:href="#g7HtfQZKtmUGWOrpYyNX_pad-15" x="373.9" y="131.53"/><use xlink:href="#g7HtfQZKtmUGWOrpYyNX_pad-15" x="473.9" y="131.53"/><use xlink:href="#g7HtfQZKtmUGWOrpYyNX_pad-15" x="668.993" y="128.49"/><use xlink:href="#g7HtfQZKtmUGWOrpYyNX_pad-15" x="768.993" y="128.49"/><use xlink:href="#g7HtfQZKtmUGWOrpYyNX_pad-16" x="1184.91" y="942.08"/><use xlink:href="#g7HtfQZKtmUGWOrpYyNX_pad-16" x="1084.91" y="942.08"/><use xlink:href="#g7HtfQZKtmUGWOrpYyNX_pad-16" x="984.906" y="942.08"/><use xlink:href="#g7HtfQZKtmUGWOrpYyNX_pad-16" x="884.906" y="942.08"/><use xlink:href="#g7HtfQZKtmUGWOrpYyNX_pad-16" x="784.906" y="942.08"/><use xlink:href="#g7HtfQZKtmUGWOrpYyNX_pad-16" x="684.906" y="942.08"/><use xlink:href="#g7HtfQZKtmUGWOrpYyNX_pad-16" x="584.906" y="942.08"/><use xlink:href="#g7HtfQZKtmUGWOrpYyNX_pad-16" x="484.906" y="942.08"/><use xlink:href="#g7HtfQZKtmUGWOrpYyNX_pad-16" x="384.906" y="942.08"/><use xlink:href="#g7HtfQZKtmUGWOrpYyNX_pad-16" x="284.906" y="942.08"/><use xlink:href="#g7HtfQZKtmUGWOrpYyNX_pad-14" x="1734.07" y="1125.581"/><use xlink:href="#g7HtfQZKtmUGWOrpYyNX_pad-14" x="1734.07" y="725.581"/><use xlink:href="#g7HtfQZKtmUGWOrpYyNX_pad-14" x="1616.92" y="1125.117"/><use xlink:href="#g7HtfQZKtmUGWOrpYyNX_pad-14" x="1616.92" y="725.117"/><use xlink:href="#g7HtfQZKtmUGWOrpYyNX_pad-14" x="1849.49" y="1127.949"/><use xlink:href="#g7HtfQZKtmUGWOrpYyNX_pad-14" x="1849.49" y="727.949"/><use xlink:href="#g7HtfQZKtmUGWOrpYyNX_pad-11" x="3306.56" y="790.767"/><use xlink:href="#g7HtfQZKtmUGWOrpYyNX_pad-12" x="292.362" y="1432.837"/><use xlink:href="#g7HtfQZKtmUGWOrpYyNX_pad-13" x="193.569" y="626.594"/><use xlink:href="#g7HtfQZKtmUGWOrpYyNX_pad-13" x="193.569" y="206.59"/><use xlink:href="#g7HtfQZKtmUGWOrpYyNX_pad-13" x="924.139" y="626.594"/><use xlink:href="#g7HtfQZKtmUGWOrpYyNX_pad-13" x="924.139" y="526.59"/><use xlink:href="#g7HtfQZKtmUGWOrpYyNX_pad-13" x="923.567" y="206.59"/><use xlink:href="#g7HtfQZKtmUGWOrpYyNX_pad-13" x="193.569" y="526.59"/><use xlink:href="#g7HtfQZKtmUGWOrpYyNX_pad-13" x="193.569" y="106.59"/><use xlink:href="#g7HtfQZKtmUGWOrpYyNX_pad-13" x="923.567" y="106.59"/><use xlink:href="#g7HtfQZKtmUGWOrpYyNX_pad-17" x="2448.314" y="128.206"/><use xlink:href="#g7HtfQZKtmUGWOrpYyNX_pad-17" x="2752.474" y="127.486"/><use xlink:href="#g7HtfQZKtmUGWOrpYyNX_pad-17" x="3024.414" y="126.936"/><use xlink:href="#g7HtfQZKtmUGWOrpYyNX_pad-17" x="2045.494" y="130.706"/><use xlink:href="#g7HtfQZKtmUGWOrpYyNX_pad-17" x="1755.824" y="128.666"/><use xlink:href="#g7HtfQZKtmUGWOrpYyNX_pad-17" x="631.406" y="1451.051"/><use xlink:href="#g7HtfQZKtmUGWOrpYyNX_pad-17" x="891.467" y="1451.917"/><use xlink:href="#g7HtfQZKtmUGWOrpYyNX_pad-17" x="1458.224" y="128.816"/><use xlink:href="#g7HtfQZKtmUGWOrpYyNX_pad-17" x="1164.624" y="128.406"/><use xlink:href="#g7HtfQZKtmUGWOrpYyNX_pad-17" x="373.9" y="131.526"/><use xlink:href="#g7HtfQZKtmUGWOrpYyNX_pad-17" x="668.994" y="128.486"/><use xlink:href="#g7HtfQZKtmUGWOrpYyNX_pad-18" x="924.522" y="526.6"/><use xlink:href="#g7HtfQZKtmUGWOrpYyNX_pad-18" x="193.522" y="526.6"/><use xlink:href="#g7HtfQZKtmUGWOrpYyNX_pad-18" x="193.522" y="106.6"/><use xlink:href="#g7HtfQZKtmUGWOrpYyNX_pad-18" x="924.522" y="106.6"/></g></svg>