<svg version="1.1" xmlns="http://www.w3.org/2000/svg" xmlns:xlink="http://www.w3.org/1999/xlink" stroke-linecap="round" stroke-linejoin="round" stroke-width="0" fill-rule="evenodd" width="3.8178739999999998in" height="1.469848in" viewBox="97.3 66.826 3817.874 1469.848" id="kTvqd_i2QYxO4N5CQSSn"><defs><circle cx="0" cy="0" r="21.6535" id="kTvqd_i2QYxO4N5CQSSn_pad-100"/><circle cx="0" cy="0" r="17.5" id="kTvqd_i2QYxO4N5CQSSn_pad-101"/><circle cx="0" cy="0" r="62.992" id="kTvqd_i2QYxO4N5CQSSn_pad-102"/><circle cx="0" cy="0" r="7.874" id="kTvqd_i2QYxO4N5CQSSn_pad-103"/><circle cx="0" cy="0" r="19" id="kTvqd_i2QYxO4N5CQSSn_pad-104"/><circle cx="0" cy="0" r="19.685" id="kTvqd_i2QYxO4N5CQSSn_pad-105"/><circle cx="0" cy="0" r="49.2125" id="kTvqd_i2QYxO4N5CQSSn_pad-106"/></defs><g transform="translate(0,1603.5) scale(1,-1)" fill="currentColor" stroke="currentColor"><use xlink:href="#kTvqd_i2QYxO4N5CQSSn_pad-100" x="3761" y="302.4"/><use xlink:href="#kTvqd_i2QYxO4N5CQSSn_pad-100" x="322.2" y="186.9"/><use xlink:href="#kTvqd_i2QYxO4N5CQSSn_pad-100" x="3148" y="180.8"/><use xlink:href="#kTvqd_i2QYxO4N5CQSSn_pad-100" x="571.7" y="180.8"/><use xlink:href="#kTvqd_i2QYxO4N5CQSSn_pad-100" x="3762.6" y="545.3"/><use xlink:href="#kTvqd_i2QYxO4N5CQSSn_pad-100" x="2793" y="180.3"/><use xlink:href="#kTvqd_i2QYxO4N5CQSSn_pad-100" x="3757.5" y="1482.8"/><use xlink:href="#kTvqd_i2QYxO4N5CQSSn_pad-100" x="3757.5" y="1282.8"/><use xlink:href="#kTvqd_i2QYxO4N5CQSSn_pad-100" x="1422.5" y="182.2"/><use xlink:href="#kTvqd_i2QYxO4N5CQSSn_pad-100" x="1928.5" y="179.9"/><use xlink:href="#kTvqd_i2QYxO4N5CQSSn_pad-100" x="3757.5" y="1382.8"/><use xlink:href="#kTvqd_i2QYxO4N5CQSSn_pad-100" x="3402.3" y="180.7"/><use xlink:href="#kTvqd_i2QYxO4N5CQSSn_pad-100" x="803.3" y="1402.3"/><use xlink:href="#kTvqd_i2QYxO4N5CQSSn_pad-100" x="422.2" y="186.9"/><use xlink:href="#kTvqd_i2QYxO4N5CQSSn_pad-100" x="176.5" y="1268.7"/><use xlink:href="#kTvqd_i2QYxO4N5CQSSn_pad-100" x="1828.5" y="179.9"/><use xlink:href="#kTvqd_i2QYxO4N5CQSSn_pad-100" x="1068.4" y="181.7"/><use xlink:href="#kTvqd_i2QYxO4N5CQSSn_pad-100" x="3048" y="180.8"/><use xlink:href="#kTvqd_i2QYxO4N5CQSSn_pad-100" x="3757.5" y="1037"/><use xlink:href="#kTvqd_i2QYxO4N5CQSSn_pad-100" x="2593" y="180.3"/><use xlink:href="#kTvqd_i2QYxO4N5CQSSn_pad-100" x="3761" y="202.4"/><use xlink:href="#kTvqd_i2QYxO4N5CQSSn_pad-100" x="1575.6" y="181.3"/><use xlink:href="#kTvqd_i2QYxO4N5CQSSn_pad-100" x="1046" y="1403.1"/><use xlink:href="#kTvqd_i2QYxO4N5CQSSn_pad-100" x="176" y="1125.4"/><use xlink:href="#kTvqd_i2QYxO4N5CQSSn_pad-100" x="671.7" y="180.8"/><use xlink:href="#kTvqd_i2QYxO4N5CQSSn_pad-100" x="1322.5" y="182.2"/><use xlink:href="#kTvqd_i2QYxO4N5CQSSn_pad-100" x="3757.5" y="1137"/><use xlink:href="#kTvqd_i2QYxO4N5CQSSn_pad-100" x="3302.3" y="180.7"/><use xlink:href="#kTvqd_i2QYxO4N5CQSSn_pad-100" x="3761" y="102.4"/><use xlink:href="#kTvqd_i2QYxO4N5CQSSn_pad-100" x="2948" y="180.8"/><use xlink:href="#kTvqd_i2QYxO4N5CQSSn_pad-100" x="2183.1" y="179.3"/><use xlink:href="#kTvqd_i2QYxO4N5CQSSn_pad-100" x="703.3" y="1402.3"/><use xlink:href="#kTvqd_i2QYxO4N5CQSSn_pad-100" x="2438.2" y="179"/><use xlink:href="#kTvqd_i2QYxO4N5CQSSn_pad-100" x="1675.6" y="181.3"/><use xlink:href="#kTvqd_i2QYxO4N5CQSSn_pad-100" x="2338.2" y="179"/><use xlink:href="#kTvqd_i2QYxO4N5CQSSn_pad-100" x="176" y="1025.4"/><use xlink:href="#kTvqd_i2QYxO4N5CQSSn_pad-100" x="176.5" y="1368.7"/><use xlink:href="#kTvqd_i2QYxO4N5CQSSn_pad-100" x="2083.1" y="179.3"/><use xlink:href="#kTvqd_i2QYxO4N5CQSSn_pad-100" x="946" y="1403.1"/><use xlink:href="#kTvqd_i2QYxO4N5CQSSn_pad-100" x="1168.4" y="181.7"/><use xlink:href="#kTvqd_i2QYxO4N5CQSSn_pad-100" x="2693" y="180.3"/><use xlink:href="#kTvqd_i2QYxO4N5CQSSn_pad-100" x="3762.6" y="445.3"/><use xlink:href="#kTvqd_i2QYxO4N5CQSSn_pad-101" x="1959.4" y="880.8"/><use xlink:href="#kTvqd_i2QYxO4N5CQSSn_pad-101" x="1598.7" y="1083.2"/><use xlink:href="#kTvqd_i2QYxO4N5CQSSn_pad-101" x="2149.1" y="1276.4"/><use xlink:href="#kTvqd_i2QYxO4N5CQSSn_pad-101" x="1959.4" y="1280.8"/><use xlink:href="#kTvqd_i2QYxO4N5CQSSn_pad-101" x="2664.9" y="707.9"/><use xlink:href="#kTvqd_i2QYxO4N5CQSSn_pad-101" x="2264.9" y="707.9"/><use xlink:href="#kTvqd_i2QYxO4N5CQSSn_pad-101" x="3171.2" y="1275.8"/><use xlink:href="#kTvqd_i2QYxO4N5CQSSn_pad-101" x="2771.2" y="1275.8"/><use xlink:href="#kTvqd_i2QYxO4N5CQSSn_pad-101" x="1205.6" y="1206.1"/><use xlink:href="#kTvqd_i2QYxO4N5CQSSn_pad-101" x="1809" y="876.8"/><use xlink:href="#kTvqd_i2QYxO4N5CQSSn_pad-101" x="1809" y="1276.8"/><use xlink:href="#kTvqd_i2QYxO4N5CQSSn_pad-101" x="1198.7" y="1083.2"/><use xlink:href="#kTvqd_i2QYxO4N5CQSSn_pad-101" x="2549.1" y="1276.4"/><use xlink:href="#kTvqd_i2QYxO4N5CQSSn_pad-101" x="1605.6" y="1206.1"/><use xlink:href="#kTvqd_i2QYxO4N5CQSSn_pad-102" x="196.3" y="790.7"/><use xlink:href="#kTvqd_i2QYxO4N5CQSSn_pad-102" x="3700.2" y="790.7"/><use xlink:href="#kTvqd_i2QYxO4N5CQSSn_pad-103" x="2412" y="1274.8"/><use xlink:href="#kTvqd_i2QYxO4N5CQSSn_pad-103" x="3622.6" y="399.8"/><use xlink:href="#kTvqd_i2QYxO4N5CQSSn_pad-103" x="3548.8" y="351.2"/><use xlink:href="#kTvqd_i2QYxO4N5CQSSn_pad-103" x="3060" y="1082.8"/><use xlink:href="#kTvqd_i2QYxO4N5CQSSn_pad-103" x="3907.3" y="89.9"/><use xlink:href="#kTvqd_i2QYxO4N5CQSSn_pad-103" x="3584.3" y="1495.1"/><use xlink:href="#kTvqd_i2QYxO4N5CQSSn_pad-103" x="3623.6" y="234.4"/><use xlink:href="#kTvqd_i2QYxO4N5CQSSn_pad-103" x="3252" y="1154.8"/><use xlink:href="#kTvqd_i2QYxO4N5CQSSn_pad-103" x="1524" y="338.7"/><use xlink:href="#kTvqd_i2QYxO4N5CQSSn_pad-103" x="1476" y="1226.8"/><use xlink:href="#kTvqd_i2QYxO4N5CQSSn_pad-103" x="1740" y="386.7"/><use xlink:href="#kTvqd_i2QYxO4N5CQSSn_pad-103" x="3586.9" y="102.2"/><use xlink:href="#kTvqd_i2QYxO4N5CQSSn_pad-103" x="2916" y="746.8"/><use xlink:href="#kTvqd_i2QYxO4N5CQSSn_pad-103" x="3517.2" y="1355.6"/><use xlink:href="#kTvqd_i2QYxO4N5CQSSn_pad-103" x="3486.2" y="175.7"/><use xlink:href="#kTvqd_i2QYxO4N5CQSSn_pad-103" x="2772" y="1082.8"/><use xlink:href="#kTvqd_i2QYxO4N5CQSSn_pad-103" x="3852" y="146.7"/><use xlink:href="#kTvqd_i2QYxO4N5CQSSn_pad-103" x="2893.9" y="351.2"/><use xlink:href="#kTvqd_i2QYxO4N5CQSSn_pad-103" x="2916" y="818.8"/><use xlink:href="#kTvqd_i2QYxO4N5CQSSn_pad-103" x="273.5" y="1528.8"/><use xlink:href="#kTvqd_i2QYxO4N5CQSSn_pad-103" x="1188" y="74.7"/><use xlink:href="#kTvqd_i2QYxO4N5CQSSn_pad-103" x="707.9" y="674.8"/><use xlink:href="#kTvqd_i2QYxO4N5CQSSn_pad-103" x="707.9" y="578.8"/><use xlink:href="#kTvqd_i2QYxO4N5CQSSn_pad-104" x="3039.7" y="488.1"/><use xlink:href="#kTvqd_i2QYxO4N5CQSSn_pad-104" x="3039.7" y="1488"/><use xlink:href="#kTvqd_i2QYxO4N5CQSSn_pad-104" x="2139.7" y="488.1"/><use xlink:href="#kTvqd_i2QYxO4N5CQSSn_pad-104" x="2739.7" y="488.1"/><use xlink:href="#kTvqd_i2QYxO4N5CQSSn_pad-104" x="2739.7" y="1488"/><use xlink:href="#kTvqd_i2QYxO4N5CQSSn_pad-104" x="2239.6" y="1488"/><use xlink:href="#kTvqd_i2QYxO4N5CQSSn_pad-104" x="2839.7" y="488.1"/><use xlink:href="#kTvqd_i2QYxO4N5CQSSn_pad-104" x="2139.6" y="1488"/><use xlink:href="#kTvqd_i2QYxO4N5CQSSn_pad-104" x="2839.7" y="1488"/><use xlink:href="#kTvqd_i2QYxO4N5CQSSn_pad-104" x="3239.7" y="1488"/><use xlink:href="#kTvqd_i2QYxO4N5CQSSn_pad-104" x="3239.7" y="488.1"/><use xlink:href="#kTvqd_i2QYxO4N5CQSSn_pad-104" x="2339.7" y="488.1"/><use xlink:href="#kTvqd_i2QYxO4N5CQSSn_pad-104" x="1839.6" y="1488"/><use xlink:href="#kTvqd_i2QYxO4N5CQSSn_pad-104" x="2439.7" y="488.1"/><use xlink:href="#kTvqd_i2QYxO4N5CQSSn_pad-104" x="846.9" y="615"/><use xlink:href="#kTvqd_i2QYxO4N5CQSSn_pad-104" x="2439.6" y="1488"/><use xlink:href="#kTvqd_i2QYxO4N5CQSSn_pad-104" x="846.9" y="515"/><use xlink:href="#kTvqd_i2QYxO4N5CQSSn_pad-104" x="1939.6" y="1488"/><use xlink:href="#kTvqd_i2QYxO4N5CQSSn_pad-104" x="2939.7" y="1488"/><use xlink:href="#kTvqd_i2QYxO4N5CQSSn_pad-104" x="2639.7" y="488.1"/><use xlink:href="#kTvqd_i2QYxO4N5CQSSn_pad-104" x="2639.7" y="1488"/><use xlink:href="#kTvqd_i2QYxO4N5CQSSn_pad-104" x="2939.7" y="488.1"/><use xlink:href="#kTvqd_i2QYxO4N5CQSSn_pad-104" x="1739.6" y="1488"/><use xlink:href="#kTvqd_i2QYxO4N5CQSSn_pad-104" x="1839.7" y="488.1"/><use xlink:href="#kTvqd_i2QYxO4N5CQSSn_pad-104" x="846.3" y="95"/><use xlink:href="#kTvqd_i2QYxO4N5CQSSn_pad-104" x="1639.6" y="1488"/><use xlink:href="#kTvqd_i2QYxO4N5CQSSn_pad-104" x="116.3" y="95"/><use xlink:href="#kTvqd_i2QYxO4N5CQSSn_pad-104" x="1739.7" y="488.1"/><use xlink:href="#kTvqd_i2QYxO4N5CQSSn_pad-104" x="2039.6" y="1488"/><use xlink:href="#kTvqd_i2QYxO4N5CQSSn_pad-104" x="116.3" y="195"/><use xlink:href="#kTvqd_i2QYxO4N5CQSSn_pad-104" x="3339.7" y="488.1"/><use xlink:href="#kTvqd_i2QYxO4N5CQSSn_pad-104" x="2239.7" y="488.1"/><use xlink:href="#kTvqd_i2QYxO4N5CQSSn_pad-104" x="1639.7" y="488.1"/><use xlink:href="#kTvqd_i2QYxO4N5CQSSn_pad-104" x="1939.7" y="488.1"/><use xlink:href="#kTvqd_i2QYxO4N5CQSSn_pad-104" x="2339.6" y="1488"/><use xlink:href="#kTvqd_i2QYxO4N5CQSSn_pad-104" x="3339.7" y="1488"/><use xlink:href="#kTvqd_i2QYxO4N5CQSSn_pad-104" x="3439.7" y="1488"/><use xlink:href="#kTvqd_i2QYxO4N5CQSSn_pad-104" x="3439.7" y="488.1"/><use xlink:href="#kTvqd_i2QYxO4N5CQSSn_pad-104" x="116.3" y="515"/><use xlink:href="#kTvqd_i2QYxO4N5CQSSn_pad-104" x="2039.7" y="488.1"/><use xlink:href="#kTvqd_i2QYxO4N5CQSSn_pad-104" x="3139.7" y="1488"/><use xlink:href="#kTvqd_i2QYxO4N5CQSSn_pad-104" x="3139.7" y="488.1"/><use xlink:href="#kTvqd_i2QYxO4N5CQSSn_pad-104" x="2539.6" y="1488"/><use xlink:href="#kTvqd_i2QYxO4N5CQSSn_pad-104" x="846.3" y="195"/><use xlink:href="#kTvqd_i2QYxO4N5CQSSn_pad-104" x="116.3" y="615"/><use xlink:href="#kTvqd_i2QYxO4N5CQSSn_pad-104" x="2539.7" y="488.1"/><use xlink:href="#kTvqd_i2QYxO4N5CQSSn_pad-105" x="954.6" y="937.9"/><use xlink:href="#kTvqd_i2QYxO4N5CQSSn_pad-105" x="1254.6" y="937.9"/><use xlink:href="#kTvqd_i2QYxO4N5CQSSn_pad-105" x="454.6" y="937.9"/><use xlink:href="#kTvqd_i2QYxO4N5CQSSn_pad-105" x="754.6" y="937.9"/><use xlink:href="#kTvqd_i2QYxO4N5CQSSn_pad-105" x="1054.6" y="937.9"/><use xlink:href="#kTvqd_i2QYxO4N5CQSSn_pad-105" x="554.6" y="937.9"/><use xlink:href="#kTvqd_i2QYxO4N5CQSSn_pad-105" x="1154.6" y="937.9"/><use xlink:href="#kTvqd_i2QYxO4N5CQSSn_pad-105" x="1354.6" y="937.9"/><use xlink:href="#kTvqd_i2QYxO4N5CQSSn_pad-105" x="854.6" y="937.9"/><use xlink:href="#kTvqd_i2QYxO4N5CQSSn_pad-105" x="654.6" y="937.9"/><use xlink:href="#kTvqd_i2QYxO4N5CQSSn_pad-106" x="1349.6" y="1432.8"/><use xlink:href="#kTvqd_i2QYxO4N5CQSSn_pad-106" x="463.9" y="1432.8"/></g></svg>