<svg version="1.1" xmlns="http://www.w3.org/2000/svg" xmlns:xlink="http://www.w3.org/1999/xlink" stroke-linecap="round" stroke-linejoin="round" stroke-width="0" fill-rule="evenodd" width="3.859684in" height="1.50339in" viewBox="72.321 50.115 3859.684 1503.39" id="wXlQzsDylOd_PtxG1JTG"><defs><circle cx="0" cy="0" r="24.685" id="wXlQzsDylOd_PtxG1JTG_pad-10"/><circle cx="0" cy="0" r="44" id="wXlQzsDylOd_PtxG1JTG_pad-11"/><circle cx="0" cy="0" r="40" id="wXlQzsDylOd_PtxG1JTG_pad-12"/><circle cx="0" cy="0" r="107.3625" id="wXlQzsDylOd_PtxG1JTG_pad-13"/><circle cx="0" cy="0" r="73.8975" id="wXlQzsDylOd_PtxG1JTG_pad-14"/><circle cx="0" cy="0" r="42.5" id="wXlQzsDylOd_PtxG1JTG_pad-15"/><circle cx="0" cy="0" r="46.6535" id="wXlQzsDylOd_PtxG1JTG_pad-16"/><rect x="-44" y="-44" width="88" height="88" id="wXlQzsDylOd_PtxG1JTG_pad-17"/><rect x="-46.6535" y="-46.6535" width="93.307" height="93.307" id="wXlQzsDylOd_PtxG1JTG_pad-18"/></defs><g transform="translate(0,1603.6200000000001) scale(1,-1)" fill="currentColor" stroke="currentColor"><use xlink:href="#wXlQzsDylOd_PtxG1JTG_pad-10" x="273.584" y="1528.82"/><use xlink:href="#wXlQzsDylOd_PtxG1JTG_pad-10" x="3907.32" y="89.98"/><use xlink:href="#wXlQzsDylOd_PtxG1JTG_pad-10" x="3586.99" y="102.2"/><use xlink:href="#wXlQzsDylOd_PtxG1JTG_pad-10" x="3548.89" y="351.3"/><use xlink:href="#wXlQzsDylOd_PtxG1JTG_pad-10" x="2893.91" y="351.3"/><use xlink:href="#wXlQzsDylOd_PtxG1JTG_pad-10" x="3486.25" y="175.75"/><use xlink:href="#wXlQzsDylOd_PtxG1JTG_pad-10" x="1740" y="386.8"/><use xlink:href="#wXlQzsDylOd_PtxG1JTG_pad-10" x="2916" y="746.801"/><use xlink:href="#wXlQzsDylOd_PtxG1JTG_pad-10" x="707.999" y="674.801"/><use xlink:href="#wXlQzsDylOd_PtxG1JTG_pad-10" x="2772" y="1082.801"/><use xlink:href="#wXlQzsDylOd_PtxG1JTG_pad-10" x="3060" y="1082.801"/><use xlink:href="#wXlQzsDylOd_PtxG1JTG_pad-10" x="1188" y="74.8"/><use xlink:href="#wXlQzsDylOd_PtxG1JTG_pad-10" x="3852" y="146.8"/><use xlink:href="#wXlQzsDylOd_PtxG1JTG_pad-10" x="3252" y="1154.801"/><use xlink:href="#wXlQzsDylOd_PtxG1JTG_pad-10" x="2916" y="818.801"/><use xlink:href="#wXlQzsDylOd_PtxG1JTG_pad-10" x="1476" y="1226.801"/><use xlink:href="#wXlQzsDylOd_PtxG1JTG_pad-10" x="1524" y="338.8"/><use xlink:href="#wXlQzsDylOd_PtxG1JTG_pad-10" x="2412" y="1274.801"/><use xlink:href="#wXlQzsDylOd_PtxG1JTG_pad-10" x="707.999" y="578.801"/><use xlink:href="#wXlQzsDylOd_PtxG1JTG_pad-10" x="3584.31" y="1495.102"/><use xlink:href="#wXlQzsDylOd_PtxG1JTG_pad-10" x="3517.2" y="1355.631"/><use xlink:href="#wXlQzsDylOd_PtxG1JTG_pad-10" x="3622.6" y="399.85"/><use xlink:href="#wXlQzsDylOd_PtxG1JTG_pad-10" x="3623.68" y="234.45"/><use xlink:href="#wXlQzsDylOd_PtxG1JTG_pad-11" x="116.368" y="615.028"/><use xlink:href="#wXlQzsDylOd_PtxG1JTG_pad-11" x="116.368" y="195.03"/><use xlink:href="#wXlQzsDylOd_PtxG1JTG_pad-11" x="846.938" y="615.028"/><use xlink:href="#wXlQzsDylOd_PtxG1JTG_pad-11" x="846.938" y="515.03"/><use xlink:href="#wXlQzsDylOd_PtxG1JTG_pad-11" x="846.366" y="195.03"/><use xlink:href="#wXlQzsDylOd_PtxG1JTG_pad-11" x="116.368" y="515.03"/><use xlink:href="#wXlQzsDylOd_PtxG1JTG_pad-11" x="116.368" y="95.03"/><use xlink:href="#wXlQzsDylOd_PtxG1JTG_pad-11" x="846.366" y="95.03"/><use xlink:href="#wXlQzsDylOd_PtxG1JTG_pad-11" x="3439.73" y="1488.01"/><use xlink:href="#wXlQzsDylOd_PtxG1JTG_pad-11" x="3339.72" y="1488.01"/><use xlink:href="#wXlQzsDylOd_PtxG1JTG_pad-11" x="3239.72" y="1488.01"/><use xlink:href="#wXlQzsDylOd_PtxG1JTG_pad-11" x="3139.72" y="1488.01"/><use xlink:href="#wXlQzsDylOd_PtxG1JTG_pad-11" x="3039.72" y="1488.01"/><use xlink:href="#wXlQzsDylOd_PtxG1JTG_pad-11" x="2939.72" y="1488.01"/><use xlink:href="#wXlQzsDylOd_PtxG1JTG_pad-11" x="2839.7" y="1488.01"/><use xlink:href="#wXlQzsDylOd_PtxG1JTG_pad-11" x="2739.7" y="1488.01"/><use xlink:href="#wXlQzsDylOd_PtxG1JTG_pad-11" x="2639.7" y="1488.01"/><use xlink:href="#wXlQzsDylOd_PtxG1JTG_pad-11" x="2539.69" y="1488.01"/><use xlink:href="#wXlQzsDylOd_PtxG1JTG_pad-11" x="2439.69" y="1488.01"/><use xlink:href="#wXlQzsDylOd_PtxG1JTG_pad-11" x="2339.69" y="1488.01"/><use xlink:href="#wXlQzsDylOd_PtxG1JTG_pad-11" x="2239.69" y="1488.01"/><use xlink:href="#wXlQzsDylOd_PtxG1JTG_pad-11" x="2139.69" y="1488.01"/><use xlink:href="#wXlQzsDylOd_PtxG1JTG_pad-11" x="2039.68" y="1488.01"/><use xlink:href="#wXlQzsDylOd_PtxG1JTG_pad-11" x="1939.68" y="1488.01"/><use xlink:href="#wXlQzsDylOd_PtxG1JTG_pad-11" x="1839.68" y="1488.01"/><use xlink:href="#wXlQzsDylOd_PtxG1JTG_pad-11" x="1739.68" y="1488.01"/><use xlink:href="#wXlQzsDylOd_PtxG1JTG_pad-11" x="1639.68" y="1488.01"/><use xlink:href="#wXlQzsDylOd_PtxG1JTG_pad-11" x="1639.72" y="488.12"/><use xlink:href="#wXlQzsDylOd_PtxG1JTG_pad-11" x="1739.72" y="488.12"/><use xlink:href="#wXlQzsDylOd_PtxG1JTG_pad-11" x="1839.72" y="488.12"/><use xlink:href="#wXlQzsDylOd_PtxG1JTG_pad-11" x="1939.72" y="488.12"/><use xlink:href="#wXlQzsDylOd_PtxG1JTG_pad-11" x="2039.72" y="488.12"/><use xlink:href="#wXlQzsDylOd_PtxG1JTG_pad-11" x="2139.72" y="488.12"/><use xlink:href="#wXlQzsDylOd_PtxG1JTG_pad-11" x="2239.73" y="488.12"/><use xlink:href="#wXlQzsDylOd_PtxG1JTG_pad-11" x="2339.73" y="488.12"/><use xlink:href="#wXlQzsDylOd_PtxG1JTG_pad-11" x="2439.73" y="488.12"/><use xlink:href="#wXlQzsDylOd_PtxG1JTG_pad-11" x="2539.73" y="488.12"/><use xlink:href="#wXlQzsDylOd_PtxG1JTG_pad-11" x="2639.75" y="488.12"/><use xlink:href="#wXlQzsDylOd_PtxG1JTG_pad-11" x="2739.75" y="488.12"/><use xlink:href="#wXlQzsDylOd_PtxG1JTG_pad-11" x="2839.75" y="488.12"/><use xlink:href="#wXlQzsDylOd_PtxG1JTG_pad-11" x="2939.76" y="488.12"/><use xlink:href="#wXlQzsDylOd_PtxG1JTG_pad-11" x="3039.76" y="488.12"/><use xlink:href="#wXlQzsDylOd_PtxG1JTG_pad-11" x="3139.76" y="488.12"/><use xlink:href="#wXlQzsDylOd_PtxG1JTG_pad-11" x="3239.76" y="488.12"/><use xlink:href="#wXlQzsDylOd_PtxG1JTG_pad-11" x="3339.76" y="488.12"/><use xlink:href="#wXlQzsDylOd_PtxG1JTG_pad-11" x="3439.76" y="488.12"/><use xlink:href="#wXlQzsDylOd_PtxG1JTG_pad-12" x="1354.6" y="937.983"/><use xlink:href="#wXlQzsDylOd_PtxG1JTG_pad-12" x="1254.6" y="937.983"/><use xlink:href="#wXlQzsDylOd_PtxG1JTG_pad-12" x="1154.6" y="937.983"/><use xlink:href="#wXlQzsDylOd_PtxG1JTG_pad-12" x="1054.6" y="937.983"/><use xlink:href="#wXlQzsDylOd_PtxG1JTG_pad-12" x="954.602" y="937.983"/><use xlink:href="#wXlQzsDylOd_PtxG1JTG_pad-12" x="854.602" y="937.983"/><use xlink:href="#wXlQzsDylOd_PtxG1JTG_pad-12" x="754.602" y="937.983"/><use xlink:href="#wXlQzsDylOd_PtxG1JTG_pad-12" x="654.602" y="937.983"/><use xlink:href="#wXlQzsDylOd_PtxG1JTG_pad-12" x="554.602" y="937.983"/><use xlink:href="#wXlQzsDylOd_PtxG1JTG_pad-12" x="454.602" y="937.983"/><use xlink:href="#wXlQzsDylOd_PtxG1JTG_pad-13" x="196.325" y="790.767"/><use xlink:href="#wXlQzsDylOd_PtxG1JTG_pad-14" x="1349.65" y="1432.853"/><use xlink:href="#wXlQzsDylOd_PtxG1JTG_pad-15" x="2264.94" y="707.974"/><use xlink:href="#wXlQzsDylOd_PtxG1JTG_pad-15" x="2664.94" y="707.974"/><use xlink:href="#wXlQzsDylOd_PtxG1JTG_pad-15" x="2771.29" y="1275.82"/><use xlink:href="#wXlQzsDylOd_PtxG1JTG_pad-15" x="3171.29" y="1275.82"/><use xlink:href="#wXlQzsDylOd_PtxG1JTG_pad-15" x="1205.63" y="1206.15"/><use xlink:href="#wXlQzsDylOd_PtxG1JTG_pad-15" x="1605.63" y="1206.15"/><use xlink:href="#wXlQzsDylOd_PtxG1JTG_pad-15" x="2549.12" y="1276.424"/><use xlink:href="#wXlQzsDylOd_PtxG1JTG_pad-15" x="2149.12" y="1276.424"/><use xlink:href="#wXlQzsDylOd_PtxG1JTG_pad-16" x="2183.17" y="179.37"/><use xlink:href="#wXlQzsDylOd_PtxG1JTG_pad-16" x="2083.17" y="179.37"/><use xlink:href="#wXlQzsDylOd_PtxG1JTG_pad-16" x="2438.27" y="179.1"/><use xlink:href="#wXlQzsDylOd_PtxG1JTG_pad-16" x="2338.27" y="179.1"/><use xlink:href="#wXlQzsDylOd_PtxG1JTG_pad-16" x="2793.06" y="180.34"/><use xlink:href="#wXlQzsDylOd_PtxG1JTG_pad-16" x="2693.06" y="180.34"/><use xlink:href="#wXlQzsDylOd_PtxG1JTG_pad-16" x="2593.06" y="180.34"/><use xlink:href="#wXlQzsDylOd_PtxG1JTG_pad-16" x="3757.54" y="1482.899"/><use xlink:href="#wXlQzsDylOd_PtxG1JTG_pad-16" x="3757.54" y="1382.899"/><use xlink:href="#wXlQzsDylOd_PtxG1JTG_pad-16" x="3757.54" y="1282.899"/><use xlink:href="#wXlQzsDylOd_PtxG1JTG_pad-16" x="3762.61" y="545.4"/><use xlink:href="#wXlQzsDylOd_PtxG1JTG_pad-16" x="3762.61" y="445.4"/><use xlink:href="#wXlQzsDylOd_PtxG1JTG_pad-16" x="703.351" y="1402.311"/><use xlink:href="#wXlQzsDylOd_PtxG1JTG_pad-16" x="803.351" y="1402.311"/><use xlink:href="#wXlQzsDylOd_PtxG1JTG_pad-16" x="946.029" y="1403.105"/><use xlink:href="#wXlQzsDylOd_PtxG1JTG_pad-16" x="1046.03" y="1403.105"/><use xlink:href="#wXlQzsDylOd_PtxG1JTG_pad-16" x="176.019" y="1025.498"/><use xlink:href="#wXlQzsDylOd_PtxG1JTG_pad-16" x="176.019" y="1125.498"/><use xlink:href="#wXlQzsDylOd_PtxG1JTG_pad-16" x="176.562" y="1268.714"/><use xlink:href="#wXlQzsDylOd_PtxG1JTG_pad-16" x="176.562" y="1368.714"/><use xlink:href="#wXlQzsDylOd_PtxG1JTG_pad-16" x="1928.54" y="179.98"/><use xlink:href="#wXlQzsDylOd_PtxG1JTG_pad-16" x="1828.54" y="179.98"/><use xlink:href="#wXlQzsDylOd_PtxG1JTG_pad-16" x="1422.52" y="182.26"/><use xlink:href="#wXlQzsDylOd_PtxG1JTG_pad-16" x="1322.52" y="182.26"/><use xlink:href="#wXlQzsDylOd_PtxG1JTG_pad-16" x="3148.06" y="180.81"/><use xlink:href="#wXlQzsDylOd_PtxG1JTG_pad-16" x="3048.06" y="180.81"/><use xlink:href="#wXlQzsDylOd_PtxG1JTG_pad-16" x="2948.06" y="180.81"/><use xlink:href="#wXlQzsDylOd_PtxG1JTG_pad-16" x="3402.34" y="180.76"/><use xlink:href="#wXlQzsDylOd_PtxG1JTG_pad-16" x="3302.34" y="180.76"/><use xlink:href="#wXlQzsDylOd_PtxG1JTG_pad-16" x="3757.54" y="1137.046"/><use xlink:href="#wXlQzsDylOd_PtxG1JTG_pad-16" x="3757.54" y="1037.046"/><use xlink:href="#wXlQzsDylOd_PtxG1JTG_pad-16" x="1675.66" y="181.33"/><use xlink:href="#wXlQzsDylOd_PtxG1JTG_pad-16" x="1575.66" y="181.33"/><use xlink:href="#wXlQzsDylOd_PtxG1JTG_pad-16" x="3761.03" y="302.43"/><use xlink:href="#wXlQzsDylOd_PtxG1JTG_pad-16" x="3761.03" y="202.43"/><use xlink:href="#wXlQzsDylOd_PtxG1JTG_pad-16" x="3761.03" y="102.43"/><use xlink:href="#wXlQzsDylOd_PtxG1JTG_pad-16" x="1168.47" y="181.8"/><use xlink:href="#wXlQzsDylOd_PtxG1JTG_pad-16" x="1068.47" y="181.8"/><use xlink:href="#wXlQzsDylOd_PtxG1JTG_pad-16" x="422.247" y="186.98"/><use xlink:href="#wXlQzsDylOd_PtxG1JTG_pad-16" x="322.247" y="186.98"/><use xlink:href="#wXlQzsDylOd_PtxG1JTG_pad-16" x="671.727" y="180.86"/><use xlink:href="#wXlQzsDylOd_PtxG1JTG_pad-16" x="571.727" y="180.86"/><use xlink:href="#wXlQzsDylOd_PtxG1JTG_pad-15" x="1198.72" y="1083.27"/><use xlink:href="#wXlQzsDylOd_PtxG1JTG_pad-15" x="1598.72" y="1083.27"/><use xlink:href="#wXlQzsDylOd_PtxG1JTG_pad-15" x="1959.41" y="1280.882"/><use xlink:href="#wXlQzsDylOd_PtxG1JTG_pad-15" x="1959.41" y="880.882"/><use xlink:href="#wXlQzsDylOd_PtxG1JTG_pad-15" x="1809.06" y="1276.842"/><use xlink:href="#wXlQzsDylOd_PtxG1JTG_pad-15" x="1809.06" y="876.842"/><use xlink:href="#wXlQzsDylOd_PtxG1JTG_pad-13" x="3700.25" y="790.767"/><use xlink:href="#wXlQzsDylOd_PtxG1JTG_pad-14" x="463.963" y="1432.837"/><use xlink:href="#wXlQzsDylOd_PtxG1JTG_pad-17" x="847.321" y="515.03"/><use xlink:href="#wXlQzsDylOd_PtxG1JTG_pad-17" x="116.321" y="515.03"/><use xlink:href="#wXlQzsDylOd_PtxG1JTG_pad-17" x="116.321" y="95.03"/><use xlink:href="#wXlQzsDylOd_PtxG1JTG_pad-17" x="847.321" y="95.03"/><use xlink:href="#wXlQzsDylOd_PtxG1JTG_pad-18" x="2183.174" y="179.366"/><use xlink:href="#wXlQzsDylOd_PtxG1JTG_pad-18" x="2438.274" y="179.096"/><use xlink:href="#wXlQzsDylOd_PtxG1JTG_pad-18" x="2793.064" y="180.336"/><use xlink:href="#wXlQzsDylOd_PtxG1JTG_pad-18" x="3757.544" y="1482.899"/><use xlink:href="#wXlQzsDylOd_PtxG1JTG_pad-18" x="3762.614" y="545.397"/><use xlink:href="#wXlQzsDylOd_PtxG1JTG_pad-18" x="703.351" y="1402.311"/><use xlink:href="#wXlQzsDylOd_PtxG1JTG_pad-18" x="946.029" y="1403.105"/><use xlink:href="#wXlQzsDylOd_PtxG1JTG_pad-18" x="176.019" y="1025.498"/><use xlink:href="#wXlQzsDylOd_PtxG1JTG_pad-18" x="176.562" y="1268.714"/><use xlink:href="#wXlQzsDylOd_PtxG1JTG_pad-18" x="1928.544" y="179.976"/><use xlink:href="#wXlQzsDylOd_PtxG1JTG_pad-18" x="1422.524" y="182.256"/><use xlink:href="#wXlQzsDylOd_PtxG1JTG_pad-18" x="3148.064" y="180.806"/><use xlink:href="#wXlQzsDylOd_PtxG1JTG_pad-18" x="3402.344" y="180.756"/><use xlink:href="#wXlQzsDylOd_PtxG1JTG_pad-18" x="3757.544" y="1137.045"/><use xlink:href="#wXlQzsDylOd_PtxG1JTG_pad-18" x="1675.664" y="181.326"/><use xlink:href="#wXlQzsDylOd_PtxG1JTG_pad-18" x="3761.034" y="302.426"/><use xlink:href="#wXlQzsDylOd_PtxG1JTG_pad-18" x="1168.474" y="181.796"/><use xlink:href="#wXlQzsDylOd_PtxG1JTG_pad-18" x="422.247" y="186.976"/><use xlink:href="#wXlQzsDylOd_PtxG1JTG_pad-18" x="671.727" y="180.856"/></g></svg>