; NON-PLATED HOLES START AT T1
; THROUGH (PLATED) HOLES START AT T100
M48
INCH
T1C0.098425
T100C0.098425
T101C0.015748
T102C0.043307
T103C0.038000
T104C0.035000
T105C0.039370
T106C0.125984
%
T1
X021498Y006446
X012575Y006175
X014728Y006441
X008088Y006163
X014734Y014453
X021492Y014454
T100
X012584Y006177
X008084Y006177
X014736Y006449
X014736Y014449
X012544Y009781
X002916Y010992
X021492Y006449
X005911Y011007
X021492Y014449
X008105Y009766
T101
X023400Y013948
X017400Y010108
X021960Y010348
X015480Y003627
X013320Y004348
X010920Y003867
X020040Y013948
T102
X031727Y014797
X018228Y001400
X028691Y001391
X025727Y014797
X030727Y014797
X027727Y014797
X022402Y001402
X026546Y001400
X024727Y014797
X019228Y001400
X021402Y001402
X029727Y014797
X025546Y001400
X028727Y014797
X026727Y014797
X032727Y014797
X024546Y001400
X033727Y014797
X023727Y014797
X029691Y001391
T103
X005268Y001477
X010359Y014580
X011363Y014580
X003271Y001477
X009359Y014580
X004268Y001477
T104
X014482Y002116
X015482Y002116
T105
X014836Y008799
X014836Y012799
X014836Y009799
X012334Y001677
X009334Y001677
X010334Y001677
X014836Y010799
X021177Y011119
X008334Y001677
X021177Y009741
X014836Y007799
X014836Y011799
X011334Y001677
T106
X002169Y007748
X033272Y007748
T00
M30
