G04 MADE WITH FRITZING*
G04 WWW.FRITZING.ORG*
G04 DOUBLE SIDED*
G04 HOLES PLATED*
G04 CONTOUR ON CENTER OF CONTOUR VECTOR*
%FSLAX26Y26*%
%MOIN*%
%ADD10C,0.135984*%
%ADD11C,0.096000*%
%ADD12C,0.080000*%
%ADD13C,0.049370*%
%ADD14C,0.108425*%
%ADD15C,0.093307*%
%ADD16C,0.148425*%
%ADD17C,0.076000*%
%ADD18C,0.088000*%
%ADD19C,0.085000*%
%ADD20C,0.147795*%
%ADD21C,0.214725*%
%ADD22R,0.080000X0.080000*%
%ADD23R,0.093307X0.093307*%
%ADD24R,0.088000X0.088000*%
%ADD25R,0.085000X0.085000*%
G04 MASK0*
%FSLAX26Y26*%
%MOIN*%
D10*
X2149220Y644979D03*
D11*
X2117730Y1111908D03*
X2117730Y974112D03*
D12*
X1483630Y1279979D03*
D10*
X1473630Y1444979D03*
D12*
X1483630Y1179979D03*
X1483630Y1079979D03*
X1483630Y979979D03*
X1483630Y879979D03*
X1483630Y779979D03*
D10*
X1473630Y644979D03*
X2149220Y1444979D03*
D13*
X2340010Y1394800D03*
X2196010Y1034800D03*
X1740010Y1010800D03*
X2004010Y1394800D03*
X1548010Y362790D03*
X1332010Y434800D03*
X1092000Y386790D03*
D14*
X808873Y616381D03*
X1257500Y617515D03*
X1472830Y644164D03*
X2149850Y644694D03*
X1473430Y1445322D03*
X2149240Y1445446D03*
D15*
X2372750Y1479781D03*
X2472750Y1479781D03*
X2572750Y1479781D03*
X2672750Y1479781D03*
X2772750Y1479781D03*
X2872750Y1479781D03*
X2972750Y1479781D03*
X3072750Y1479781D03*
X3172750Y1479781D03*
X3272750Y1479781D03*
X3372750Y1479781D03*
X2869140Y139120D03*
X2969140Y139120D03*
X2454640Y140060D03*
X2554640Y140060D03*
X2654640Y140060D03*
X2140260Y140270D03*
X2240260Y140270D03*
X1822880Y140030D03*
X1922880Y140030D03*
D16*
X808434Y617797D03*
D17*
X833434Y167800D03*
X933434Y167800D03*
X1033430Y167800D03*
X1133430Y167800D03*
D16*
X1258430Y617797D03*
D17*
X1233430Y167800D03*
D18*
X327158Y147720D03*
X426843Y147720D03*
X526843Y147720D03*
X1136340Y1458031D03*
X1035930Y1458031D03*
X935929Y1458031D03*
D19*
X1448200Y211630D03*
X1548200Y211630D03*
D20*
X1254470Y978144D03*
X591143Y1100704D03*
D21*
X216978Y774863D03*
X3327210Y774863D03*
D20*
X810525Y976696D03*
X291637Y1099256D03*
D22*
X1483633Y1279980D03*
D23*
X2869144Y139116D03*
X2454644Y140056D03*
X2140264Y140266D03*
X1822884Y140026D03*
D24*
X935930Y1458474D03*
D25*
X1448200Y211630D03*
G04 End of Mask0*
M02*