G04 MADE WITH FRITZING*
G04 WWW.FRITZING.ORG*
G04 DOUBLE SIDED*
G04 HOLES PLATED*
G04 CONTOUR ON CENTER OF CONTOUR VECTOR*
%ASAXBY*%
%FSLAX23Y23*%
%MOIN*%
%OFA0B0*%
%SFA1.0B1.0*%
%ADD10C,0.049370*%
%ADD11C,0.135984*%
%ADD12C,0.096000*%
%ADD13C,0.080000*%
%ADD14C,0.108425*%
%ADD15C,0.093307*%
%ADD16C,0.148425*%
%ADD17C,0.076000*%
%ADD18C,0.088000*%
%ADD19C,0.085000*%
%ADD20C,0.147795*%
%ADD21C,0.214725*%
%ADD22R,0.080000X0.080000*%
%ADD23R,0.093307X0.093307*%
%ADD24R,0.088000X0.088000*%
%ADD25R,0.085000X0.085000*%
%LNMASK1*%
G90*
G70*
G54D10*
X1404Y315D03*
X2052Y1203D03*
X2316Y651D03*
X2292Y1347D03*
X1404Y483D03*
X2028Y1443D03*
X1980Y963D03*
X1980Y1299D03*
G54D11*
X2149Y1445D03*
G54D12*
X2118Y978D03*
X2118Y1116D03*
G54D13*
X1484Y810D03*
G54D11*
X1474Y645D03*
G54D13*
X1484Y910D03*
X1484Y1010D03*
X1484Y1110D03*
X1484Y1210D03*
X1484Y1310D03*
G54D11*
X1474Y1445D03*
X2149Y645D03*
X2149Y1445D03*
G54D12*
X2118Y978D03*
X2118Y1116D03*
G54D13*
X1484Y810D03*
G54D11*
X1474Y645D03*
G54D13*
X1484Y910D03*
X1484Y1010D03*
X1484Y1110D03*
X1484Y1210D03*
X1484Y1310D03*
G54D11*
X1474Y1445D03*
X2149Y645D03*
G54D14*
X809Y616D03*
X1258Y618D03*
X1473Y644D03*
X2150Y645D03*
X1473Y1445D03*
X2149Y1445D03*
G54D15*
X2373Y1480D03*
X2473Y1480D03*
X2573Y1480D03*
X2673Y1480D03*
X2773Y1480D03*
X2873Y1480D03*
X2973Y1480D03*
X3073Y1480D03*
X3173Y1480D03*
X3273Y1480D03*
X3373Y1480D03*
X2373Y1480D03*
X2473Y1480D03*
X2573Y1480D03*
X2673Y1480D03*
X2773Y1480D03*
X2873Y1480D03*
X2973Y1480D03*
X3073Y1480D03*
X3173Y1480D03*
X3273Y1480D03*
X3373Y1480D03*
X2135Y162D03*
X2235Y162D03*
X2135Y162D03*
X2235Y162D03*
X2385Y163D03*
X2485Y163D03*
X2585Y163D03*
X2385Y163D03*
X2485Y163D03*
X2585Y163D03*
X2737Y161D03*
X2837Y161D03*
X2737Y161D03*
X2837Y161D03*
X1528Y160D03*
X1628Y160D03*
X1528Y160D03*
X1628Y160D03*
X2982Y163D03*
X3082Y163D03*
X2982Y163D03*
X3082Y163D03*
X1778Y161D03*
X1878Y161D03*
X1778Y161D03*
X1878Y161D03*
G54D16*
X808Y618D03*
G54D17*
X833Y168D03*
X933Y168D03*
X1033Y168D03*
X1133Y168D03*
G54D16*
X1258Y618D03*
G54D17*
X1233Y168D03*
G54D18*
X338Y148D03*
X438Y148D03*
X538Y148D03*
X1125Y1458D03*
X1025Y1458D03*
X925Y1458D03*
G54D19*
X3358Y397D03*
X3258Y397D03*
X3358Y397D03*
X3258Y397D03*
G54D20*
X1254Y978D03*
X580Y1101D03*
G54D21*
X217Y775D03*
X3327Y775D03*
G54D20*
X811Y977D03*
X3034Y733D03*
X314Y1099D03*
X2739Y730D03*
G54D22*
X1484Y810D03*
X1484Y810D03*
G54D23*
X2135Y162D03*
X2135Y162D03*
X2385Y163D03*
X2385Y163D03*
X2737Y161D03*
X2737Y161D03*
X1528Y160D03*
X1528Y160D03*
X2982Y163D03*
X2982Y163D03*
X1778Y161D03*
X1778Y161D03*
G54D24*
X925Y1458D03*
G54D25*
X3358Y397D03*
X3358Y397D03*
G04 End of Mask1*
M02*