G04 MADE WITH FRITZING*
G04 WWW.FRITZING.ORG*
G04 DOUBLE SIDED*
G04 HOLES PLATED*
G04 CONTOUR ON CENTER OF CONTOUR VECTOR*
%ASAXBY*%
%FSLAX23Y23*%
%MOIN*%
%OFA0B0*%
%SFA1.0B1.0*%
%ADD10C,0.075000*%
%ADD11C,0.125984*%
%ADD12C,0.086000*%
%ADD13C,0.070000*%
%ADD14C,0.039370*%
%ADD15C,0.083307*%
%ADD16C,0.138425*%
%ADD17C,0.066000*%
%ADD18C,0.078000*%
%ADD19C,0.137795*%
%ADD20C,0.204725*%
%ADD21R,0.070000X0.070000*%
%ADD22R,0.083307X0.083307*%
%ADD23R,0.078000X0.078000*%
%ADD24R,0.075000X0.075000*%
%ADD25C,0.024000*%
%ADD26C,0.000100*%
%LNCOPPER1*%
G90*
G70*
G54D10*
X1306Y1470D03*
X1599Y1482D03*
X2275Y1453D03*
X215Y776D03*
X3325Y776D03*
X1286Y774D03*
X3138Y1346D03*
G54D11*
X2149Y645D03*
G54D12*
X2118Y1112D03*
X2118Y974D03*
G54D13*
X1484Y1280D03*
G54D11*
X1474Y1445D03*
G54D13*
X1484Y1180D03*
X1484Y1080D03*
X1484Y980D03*
X1484Y880D03*
X1484Y780D03*
G54D11*
X1474Y645D03*
X2149Y1445D03*
G54D14*
X2340Y1395D03*
X2196Y1035D03*
X1740Y1011D03*
X2004Y1395D03*
X1548Y363D03*
X1332Y435D03*
X1092Y387D03*
G54D15*
X2373Y1480D03*
X2473Y1480D03*
X2573Y1480D03*
X2673Y1480D03*
X2773Y1480D03*
X2873Y1480D03*
X2973Y1480D03*
X3073Y1480D03*
X3173Y1480D03*
X3273Y1480D03*
X3373Y1480D03*
X2869Y139D03*
X2969Y139D03*
X2455Y140D03*
X2555Y140D03*
X2655Y140D03*
X2140Y140D03*
X2240Y140D03*
X1823Y140D03*
X1923Y140D03*
G54D16*
X808Y618D03*
G54D17*
X833Y168D03*
X933Y168D03*
X1033Y168D03*
X1133Y168D03*
G54D16*
X1258Y618D03*
G54D17*
X1233Y168D03*
G54D18*
X327Y148D03*
X427Y148D03*
X527Y148D03*
X1136Y1458D03*
X1036Y1458D03*
X936Y1458D03*
G54D10*
X1448Y212D03*
X1548Y212D03*
G54D19*
X1254Y978D03*
X591Y1101D03*
G54D20*
X217Y775D03*
X3327Y775D03*
G54D19*
X811Y977D03*
X292Y1099D03*
G54D21*
X1484Y1280D03*
G54D22*
X2869Y139D03*
X2455Y140D03*
X2140Y140D03*
X1823Y140D03*
G54D23*
X936Y1458D03*
G54D24*
X1448Y212D03*
G54D25*
X2906Y337D02*
X2912Y1225D01*
D02*
X3061Y1304D02*
X3071Y1458D01*
D02*
X2912Y1225D02*
X3061Y1304D01*
D02*
X2672Y153D02*
X2906Y337D01*
D02*
X1565Y727D02*
X2088Y59D01*
D02*
X1500Y769D02*
X1565Y727D01*
D02*
X2794Y61D02*
X2854Y124D01*
D02*
X2088Y59D02*
X2794Y61D01*
D02*
X1639Y1271D02*
X1639Y958D01*
D02*
X1565Y1344D02*
X1639Y1271D01*
D02*
X1370Y1348D02*
X1565Y1344D01*
D02*
X1154Y1450D02*
X1370Y1348D01*
D02*
X2170Y242D02*
X2454Y246D01*
D02*
X2454Y246D02*
X2454Y162D01*
D02*
X1400Y1046D02*
X1328Y888D01*
D02*
X1639Y958D02*
X2170Y242D01*
D02*
X1465Y1073D02*
X1400Y1046D01*
D02*
X1328Y888D02*
X1164Y795D01*
D02*
X1164Y195D02*
X1148Y181D01*
D02*
X1164Y795D02*
X1164Y195D01*
D02*
X2794Y1480D02*
X2851Y1480D01*
D02*
X2732Y1403D02*
X2763Y1461D01*
D02*
X2542Y1403D02*
X2732Y1403D01*
D02*
X2487Y1464D02*
X2542Y1403D01*
D02*
X1376Y1180D02*
X1464Y1180D01*
D02*
X2422Y1399D02*
X2461Y1461D01*
D02*
X2348Y1395D02*
X2422Y1399D01*
D02*
X998Y1359D02*
X1376Y1180D01*
D02*
X946Y1442D02*
X998Y1359D01*
D02*
X1284Y99D02*
X1434Y202D01*
D02*
X1092Y99D02*
X1284Y99D01*
D02*
X1046Y153D02*
X1092Y99D01*
D02*
X1524Y291D02*
X1460Y224D01*
D02*
X1822Y292D02*
X1524Y291D01*
D02*
X1911Y158D02*
X1822Y292D01*
D02*
X968Y79D02*
X1022Y152D01*
D02*
X468Y87D02*
X968Y79D01*
D02*
X437Y132D02*
X468Y87D01*
D02*
X1414Y922D02*
X1371Y529D01*
D02*
X1469Y967D02*
X1414Y922D01*
D02*
X1240Y444D02*
X1234Y187D01*
D02*
X1371Y529D02*
X1240Y444D01*
D02*
X2127Y157D02*
X1496Y964D01*
D02*
X2256Y985D02*
X2252Y878D01*
D02*
X2252Y878D02*
X2074Y878D01*
D02*
X2202Y1030D02*
X2256Y985D01*
D02*
X2074Y878D02*
X1747Y1008D01*
D02*
X2355Y1493D02*
X2296Y1537D01*
D02*
X2919Y1336D02*
X2965Y1459D01*
D02*
X2148Y1340D02*
X2919Y1336D01*
D02*
X2052Y1395D02*
X2148Y1340D01*
D02*
X2076Y1539D02*
X2052Y1395D01*
D02*
X2296Y1537D02*
X2076Y1539D01*
D02*
X2012Y1395D02*
X2052Y1395D01*
D02*
X1541Y365D02*
X1339Y432D01*
D02*
X1802Y145D02*
X1565Y207D01*
D02*
X945Y184D02*
X1087Y380D01*
G54D26*
G36*
X40Y1535D02*
X40Y1507D01*
X1146Y1507D01*
X1146Y1505D01*
X1154Y1505D01*
X1154Y1503D01*
X1158Y1503D01*
X1158Y1501D01*
X1162Y1501D01*
X1162Y1499D01*
X1164Y1499D01*
X1164Y1497D01*
X1168Y1497D01*
X1168Y1495D01*
X1170Y1495D01*
X1170Y1493D01*
X1172Y1493D01*
X1172Y1491D01*
X1174Y1491D01*
X1174Y1487D01*
X1176Y1487D01*
X1176Y1485D01*
X1178Y1485D01*
X1178Y1481D01*
X1180Y1481D01*
X1180Y1479D01*
X1182Y1479D01*
X1182Y1473D01*
X1184Y1473D01*
X1184Y1463D01*
X1186Y1463D01*
X1186Y1459D01*
X1188Y1459D01*
X1188Y1457D01*
X1192Y1457D01*
X1192Y1455D01*
X1198Y1455D01*
X1198Y1453D01*
X1202Y1453D01*
X1202Y1451D01*
X1206Y1451D01*
X1206Y1449D01*
X1210Y1449D01*
X1210Y1447D01*
X1214Y1447D01*
X1214Y1445D01*
X1218Y1445D01*
X1218Y1443D01*
X1222Y1443D01*
X1222Y1441D01*
X1226Y1441D01*
X1226Y1439D01*
X1232Y1439D01*
X1232Y1437D01*
X1236Y1437D01*
X1236Y1435D01*
X1240Y1435D01*
X1240Y1433D01*
X1244Y1433D01*
X1244Y1431D01*
X1248Y1431D01*
X1248Y1429D01*
X1252Y1429D01*
X1252Y1427D01*
X1256Y1427D01*
X1256Y1425D01*
X1260Y1425D01*
X1260Y1423D01*
X1266Y1423D01*
X1266Y1421D01*
X1270Y1421D01*
X1270Y1419D01*
X1274Y1419D01*
X1274Y1417D01*
X1278Y1417D01*
X1278Y1415D01*
X1282Y1415D01*
X1282Y1413D01*
X1286Y1413D01*
X1286Y1411D01*
X1290Y1411D01*
X1290Y1409D01*
X1296Y1409D01*
X1296Y1407D01*
X1300Y1407D01*
X1300Y1405D01*
X1304Y1405D01*
X1304Y1403D01*
X1308Y1403D01*
X1308Y1401D01*
X1312Y1401D01*
X1312Y1399D01*
X1316Y1399D01*
X1316Y1397D01*
X1320Y1397D01*
X1320Y1395D01*
X1324Y1395D01*
X1324Y1393D01*
X1330Y1393D01*
X1330Y1391D01*
X1334Y1391D01*
X1334Y1389D01*
X1338Y1389D01*
X1338Y1387D01*
X1342Y1387D01*
X1342Y1385D01*
X1346Y1385D01*
X1346Y1383D01*
X1350Y1383D01*
X1350Y1381D01*
X1354Y1381D01*
X1354Y1379D01*
X1358Y1379D01*
X1358Y1377D01*
X1364Y1377D01*
X1364Y1375D01*
X1368Y1375D01*
X1368Y1373D01*
X1372Y1373D01*
X1372Y1371D01*
X1392Y1371D01*
X1392Y1369D01*
X1428Y1369D01*
X1428Y1389D01*
X1426Y1389D01*
X1426Y1391D01*
X1424Y1391D01*
X1424Y1393D01*
X1422Y1393D01*
X1422Y1395D01*
X1420Y1395D01*
X1420Y1397D01*
X1418Y1397D01*
X1418Y1399D01*
X1416Y1399D01*
X1416Y1401D01*
X1414Y1401D01*
X1414Y1405D01*
X1412Y1405D01*
X1412Y1407D01*
X1410Y1407D01*
X1410Y1411D01*
X1408Y1411D01*
X1408Y1415D01*
X1406Y1415D01*
X1406Y1421D01*
X1404Y1421D01*
X1404Y1427D01*
X1402Y1427D01*
X1402Y1439D01*
X1400Y1439D01*
X1400Y1451D01*
X1402Y1451D01*
X1402Y1463D01*
X1404Y1463D01*
X1404Y1469D01*
X1406Y1469D01*
X1406Y1475D01*
X1408Y1475D01*
X1408Y1479D01*
X1410Y1479D01*
X1410Y1483D01*
X1412Y1483D01*
X1412Y1485D01*
X1414Y1485D01*
X1414Y1489D01*
X1416Y1489D01*
X1416Y1491D01*
X1418Y1491D01*
X1418Y1493D01*
X1420Y1493D01*
X1420Y1495D01*
X1422Y1495D01*
X1422Y1497D01*
X1424Y1497D01*
X1424Y1499D01*
X1426Y1499D01*
X1426Y1501D01*
X1428Y1501D01*
X1428Y1503D01*
X1430Y1503D01*
X1430Y1505D01*
X1434Y1505D01*
X1434Y1507D01*
X1436Y1507D01*
X1436Y1509D01*
X1440Y1509D01*
X1440Y1511D01*
X1444Y1511D01*
X1444Y1513D01*
X1450Y1513D01*
X1450Y1515D01*
X1456Y1515D01*
X1456Y1535D01*
X40Y1535D01*
G37*
D02*
G36*
X40Y1507D02*
X40Y1409D01*
X904Y1409D01*
X904Y1411D01*
X898Y1411D01*
X898Y1413D01*
X894Y1413D01*
X894Y1415D01*
X892Y1415D01*
X892Y1417D01*
X890Y1417D01*
X890Y1421D01*
X888Y1421D01*
X888Y1429D01*
X886Y1429D01*
X886Y1489D01*
X888Y1489D01*
X888Y1497D01*
X890Y1497D01*
X890Y1499D01*
X892Y1499D01*
X892Y1501D01*
X894Y1501D01*
X894Y1503D01*
X896Y1503D01*
X896Y1505D01*
X900Y1505D01*
X900Y1507D01*
X40Y1507D01*
G37*
D02*
G36*
X972Y1507D02*
X972Y1505D01*
X976Y1505D01*
X976Y1503D01*
X978Y1503D01*
X978Y1501D01*
X980Y1501D01*
X980Y1499D01*
X982Y1499D01*
X982Y1497D01*
X984Y1497D01*
X984Y1495D01*
X1006Y1495D01*
X1006Y1497D01*
X1008Y1497D01*
X1008Y1499D01*
X1010Y1499D01*
X1010Y1501D01*
X1014Y1501D01*
X1014Y1503D01*
X1018Y1503D01*
X1018Y1505D01*
X1026Y1505D01*
X1026Y1507D01*
X972Y1507D01*
G37*
D02*
G36*
X1046Y1507D02*
X1046Y1505D01*
X1052Y1505D01*
X1052Y1503D01*
X1058Y1503D01*
X1058Y1501D01*
X1062Y1501D01*
X1062Y1499D01*
X1064Y1499D01*
X1064Y1497D01*
X1066Y1497D01*
X1066Y1495D01*
X1070Y1495D01*
X1070Y1493D01*
X1072Y1493D01*
X1072Y1489D01*
X1074Y1489D01*
X1074Y1487D01*
X1076Y1487D01*
X1076Y1485D01*
X1096Y1485D01*
X1096Y1487D01*
X1098Y1487D01*
X1098Y1489D01*
X1100Y1489D01*
X1100Y1493D01*
X1104Y1493D01*
X1104Y1495D01*
X1106Y1495D01*
X1106Y1497D01*
X1108Y1497D01*
X1108Y1499D01*
X1112Y1499D01*
X1112Y1501D01*
X1114Y1501D01*
X1114Y1503D01*
X1120Y1503D01*
X1120Y1505D01*
X1126Y1505D01*
X1126Y1507D01*
X1046Y1507D01*
G37*
D02*
G36*
X1076Y1431D02*
X1076Y1429D01*
X1074Y1429D01*
X1074Y1427D01*
X1072Y1427D01*
X1072Y1425D01*
X1070Y1425D01*
X1070Y1423D01*
X1068Y1423D01*
X1068Y1421D01*
X1066Y1421D01*
X1066Y1419D01*
X1064Y1419D01*
X1064Y1417D01*
X1060Y1417D01*
X1060Y1415D01*
X1056Y1415D01*
X1056Y1413D01*
X1052Y1413D01*
X1052Y1411D01*
X1044Y1411D01*
X1044Y1409D01*
X1128Y1409D01*
X1128Y1411D01*
X1120Y1411D01*
X1120Y1413D01*
X1116Y1413D01*
X1116Y1415D01*
X1112Y1415D01*
X1112Y1417D01*
X1108Y1417D01*
X1108Y1419D01*
X1106Y1419D01*
X1106Y1421D01*
X1104Y1421D01*
X1104Y1423D01*
X1102Y1423D01*
X1102Y1425D01*
X1100Y1425D01*
X1100Y1427D01*
X1098Y1427D01*
X1098Y1429D01*
X1096Y1429D01*
X1096Y1431D01*
X1076Y1431D01*
G37*
D02*
G36*
X984Y1423D02*
X984Y1421D01*
X982Y1421D01*
X982Y1417D01*
X980Y1417D01*
X980Y1415D01*
X978Y1415D01*
X978Y1413D01*
X974Y1413D01*
X974Y1411D01*
X968Y1411D01*
X968Y1409D01*
X1028Y1409D01*
X1028Y1411D01*
X1020Y1411D01*
X1020Y1413D01*
X1016Y1413D01*
X1016Y1415D01*
X1012Y1415D01*
X1012Y1417D01*
X1008Y1417D01*
X1008Y1419D01*
X1006Y1419D01*
X1006Y1421D01*
X1004Y1421D01*
X1004Y1423D01*
X984Y1423D01*
G37*
D02*
G36*
X1158Y1415D02*
X1158Y1413D01*
X1152Y1413D01*
X1152Y1411D01*
X1144Y1411D01*
X1144Y1409D01*
X1188Y1409D01*
X1188Y1411D01*
X1184Y1411D01*
X1184Y1413D01*
X1178Y1413D01*
X1178Y1415D01*
X1158Y1415D01*
G37*
D02*
G36*
X40Y1409D02*
X40Y1407D01*
X1192Y1407D01*
X1192Y1409D01*
X40Y1409D01*
G37*
D02*
G36*
X40Y1409D02*
X40Y1407D01*
X1192Y1407D01*
X1192Y1409D01*
X40Y1409D01*
G37*
D02*
G36*
X40Y1409D02*
X40Y1407D01*
X1192Y1407D01*
X1192Y1409D01*
X40Y1409D01*
G37*
D02*
G36*
X40Y1409D02*
X40Y1407D01*
X1192Y1407D01*
X1192Y1409D01*
X40Y1409D01*
G37*
D02*
G36*
X40Y1407D02*
X40Y1179D01*
X608Y1179D01*
X608Y1177D01*
X616Y1177D01*
X616Y1175D01*
X620Y1175D01*
X620Y1173D01*
X626Y1173D01*
X626Y1171D01*
X630Y1171D01*
X630Y1169D01*
X632Y1169D01*
X632Y1167D01*
X636Y1167D01*
X636Y1165D01*
X638Y1165D01*
X638Y1163D01*
X640Y1163D01*
X640Y1161D01*
X644Y1161D01*
X644Y1159D01*
X646Y1159D01*
X646Y1157D01*
X648Y1157D01*
X648Y1155D01*
X650Y1155D01*
X650Y1153D01*
X652Y1153D01*
X652Y1149D01*
X654Y1149D01*
X654Y1147D01*
X656Y1147D01*
X656Y1145D01*
X658Y1145D01*
X658Y1141D01*
X660Y1141D01*
X660Y1137D01*
X662Y1137D01*
X662Y1133D01*
X664Y1133D01*
X664Y1129D01*
X666Y1129D01*
X666Y1123D01*
X668Y1123D01*
X668Y1113D01*
X670Y1113D01*
X670Y1089D01*
X668Y1089D01*
X668Y1079D01*
X666Y1079D01*
X666Y1073D01*
X664Y1073D01*
X664Y1069D01*
X662Y1069D01*
X662Y1065D01*
X660Y1065D01*
X660Y1061D01*
X658Y1061D01*
X658Y1057D01*
X1268Y1057D01*
X1268Y1055D01*
X1276Y1055D01*
X1276Y1053D01*
X1282Y1053D01*
X1282Y1051D01*
X1288Y1051D01*
X1288Y1049D01*
X1292Y1049D01*
X1292Y1047D01*
X1294Y1047D01*
X1294Y1045D01*
X1298Y1045D01*
X1298Y1043D01*
X1300Y1043D01*
X1300Y1041D01*
X1304Y1041D01*
X1304Y1039D01*
X1306Y1039D01*
X1306Y1037D01*
X1308Y1037D01*
X1308Y1035D01*
X1310Y1035D01*
X1310Y1033D01*
X1312Y1033D01*
X1312Y1031D01*
X1314Y1031D01*
X1314Y1029D01*
X1316Y1029D01*
X1316Y1027D01*
X1318Y1027D01*
X1318Y1023D01*
X1320Y1023D01*
X1320Y1021D01*
X1322Y1021D01*
X1322Y1017D01*
X1324Y1017D01*
X1324Y1013D01*
X1326Y1013D01*
X1326Y1009D01*
X1328Y1009D01*
X1328Y1003D01*
X1330Y1003D01*
X1330Y997D01*
X1332Y997D01*
X1332Y993D01*
X1352Y993D01*
X1352Y997D01*
X1354Y997D01*
X1354Y1001D01*
X1356Y1001D01*
X1356Y1005D01*
X1358Y1005D01*
X1358Y1009D01*
X1360Y1009D01*
X1360Y1015D01*
X1362Y1015D01*
X1362Y1019D01*
X1364Y1019D01*
X1364Y1023D01*
X1366Y1023D01*
X1366Y1027D01*
X1368Y1027D01*
X1368Y1033D01*
X1370Y1033D01*
X1370Y1037D01*
X1372Y1037D01*
X1372Y1041D01*
X1374Y1041D01*
X1374Y1045D01*
X1376Y1045D01*
X1376Y1049D01*
X1378Y1049D01*
X1378Y1055D01*
X1380Y1055D01*
X1380Y1057D01*
X1382Y1057D01*
X1382Y1061D01*
X1384Y1061D01*
X1384Y1063D01*
X1386Y1063D01*
X1386Y1065D01*
X1390Y1065D01*
X1390Y1067D01*
X1396Y1067D01*
X1396Y1069D01*
X1400Y1069D01*
X1400Y1071D01*
X1406Y1071D01*
X1406Y1073D01*
X1410Y1073D01*
X1410Y1075D01*
X1414Y1075D01*
X1414Y1077D01*
X1420Y1077D01*
X1420Y1079D01*
X1424Y1079D01*
X1424Y1081D01*
X1430Y1081D01*
X1430Y1083D01*
X1434Y1083D01*
X1434Y1085D01*
X1440Y1085D01*
X1440Y1093D01*
X1442Y1093D01*
X1442Y1099D01*
X1444Y1099D01*
X1444Y1103D01*
X1446Y1103D01*
X1446Y1107D01*
X1448Y1107D01*
X1448Y1109D01*
X1450Y1109D01*
X1450Y1111D01*
X1452Y1111D01*
X1452Y1113D01*
X1454Y1113D01*
X1454Y1115D01*
X1456Y1115D01*
X1456Y1117D01*
X1460Y1117D01*
X1460Y1119D01*
X1464Y1119D01*
X1464Y1141D01*
X1460Y1141D01*
X1460Y1143D01*
X1458Y1143D01*
X1458Y1145D01*
X1454Y1145D01*
X1454Y1147D01*
X1452Y1147D01*
X1452Y1149D01*
X1450Y1149D01*
X1450Y1151D01*
X1448Y1151D01*
X1448Y1155D01*
X1446Y1155D01*
X1446Y1157D01*
X1444Y1157D01*
X1444Y1161D01*
X1442Y1161D01*
X1442Y1167D01*
X1440Y1167D01*
X1440Y1175D01*
X1438Y1175D01*
X1438Y1185D01*
X1440Y1185D01*
X1440Y1193D01*
X1442Y1193D01*
X1442Y1199D01*
X1444Y1199D01*
X1444Y1203D01*
X1446Y1203D01*
X1446Y1207D01*
X1448Y1207D01*
X1448Y1209D01*
X1450Y1209D01*
X1450Y1211D01*
X1452Y1211D01*
X1452Y1213D01*
X1454Y1213D01*
X1454Y1215D01*
X1456Y1215D01*
X1456Y1235D01*
X1452Y1235D01*
X1452Y1237D01*
X1446Y1237D01*
X1446Y1239D01*
X1444Y1239D01*
X1444Y1241D01*
X1442Y1241D01*
X1442Y1245D01*
X1440Y1245D01*
X1440Y1249D01*
X1438Y1249D01*
X1438Y1325D01*
X1390Y1325D01*
X1390Y1327D01*
X1362Y1327D01*
X1362Y1329D01*
X1358Y1329D01*
X1358Y1331D01*
X1354Y1331D01*
X1354Y1333D01*
X1350Y1333D01*
X1350Y1335D01*
X1344Y1335D01*
X1344Y1337D01*
X1340Y1337D01*
X1340Y1339D01*
X1336Y1339D01*
X1336Y1341D01*
X1332Y1341D01*
X1332Y1343D01*
X1328Y1343D01*
X1328Y1345D01*
X1324Y1345D01*
X1324Y1347D01*
X1320Y1347D01*
X1320Y1349D01*
X1316Y1349D01*
X1316Y1351D01*
X1310Y1351D01*
X1310Y1353D01*
X1306Y1353D01*
X1306Y1355D01*
X1302Y1355D01*
X1302Y1357D01*
X1298Y1357D01*
X1298Y1359D01*
X1294Y1359D01*
X1294Y1361D01*
X1290Y1361D01*
X1290Y1363D01*
X1286Y1363D01*
X1286Y1365D01*
X1280Y1365D01*
X1280Y1367D01*
X1276Y1367D01*
X1276Y1369D01*
X1272Y1369D01*
X1272Y1371D01*
X1268Y1371D01*
X1268Y1373D01*
X1264Y1373D01*
X1264Y1375D01*
X1260Y1375D01*
X1260Y1377D01*
X1256Y1377D01*
X1256Y1379D01*
X1252Y1379D01*
X1252Y1381D01*
X1246Y1381D01*
X1246Y1383D01*
X1242Y1383D01*
X1242Y1385D01*
X1238Y1385D01*
X1238Y1387D01*
X1234Y1387D01*
X1234Y1389D01*
X1230Y1389D01*
X1230Y1391D01*
X1226Y1391D01*
X1226Y1393D01*
X1222Y1393D01*
X1222Y1395D01*
X1218Y1395D01*
X1218Y1397D01*
X1212Y1397D01*
X1212Y1399D01*
X1208Y1399D01*
X1208Y1401D01*
X1204Y1401D01*
X1204Y1403D01*
X1200Y1403D01*
X1200Y1405D01*
X1196Y1405D01*
X1196Y1407D01*
X40Y1407D01*
G37*
D02*
G36*
X40Y1179D02*
X40Y1021D01*
X278Y1021D01*
X278Y1023D01*
X268Y1023D01*
X268Y1025D01*
X264Y1025D01*
X264Y1027D01*
X258Y1027D01*
X258Y1029D01*
X254Y1029D01*
X254Y1031D01*
X252Y1031D01*
X252Y1033D01*
X248Y1033D01*
X248Y1035D01*
X246Y1035D01*
X246Y1037D01*
X242Y1037D01*
X242Y1039D01*
X240Y1039D01*
X240Y1041D01*
X238Y1041D01*
X238Y1043D01*
X236Y1043D01*
X236Y1045D01*
X234Y1045D01*
X234Y1047D01*
X232Y1047D01*
X232Y1049D01*
X230Y1049D01*
X230Y1051D01*
X228Y1051D01*
X228Y1055D01*
X226Y1055D01*
X226Y1057D01*
X224Y1057D01*
X224Y1061D01*
X222Y1061D01*
X222Y1065D01*
X220Y1065D01*
X220Y1069D01*
X218Y1069D01*
X218Y1075D01*
X216Y1075D01*
X216Y1081D01*
X214Y1081D01*
X214Y1095D01*
X212Y1095D01*
X212Y1105D01*
X214Y1105D01*
X214Y1117D01*
X216Y1117D01*
X216Y1125D01*
X218Y1125D01*
X218Y1131D01*
X220Y1131D01*
X220Y1135D01*
X222Y1135D01*
X222Y1139D01*
X224Y1139D01*
X224Y1141D01*
X226Y1141D01*
X226Y1145D01*
X228Y1145D01*
X228Y1147D01*
X230Y1147D01*
X230Y1149D01*
X232Y1149D01*
X232Y1153D01*
X234Y1153D01*
X234Y1155D01*
X236Y1155D01*
X236Y1157D01*
X238Y1157D01*
X238Y1159D01*
X242Y1159D01*
X242Y1161D01*
X244Y1161D01*
X244Y1163D01*
X246Y1163D01*
X246Y1165D01*
X250Y1165D01*
X250Y1167D01*
X252Y1167D01*
X252Y1169D01*
X256Y1169D01*
X256Y1171D01*
X260Y1171D01*
X260Y1173D01*
X266Y1173D01*
X266Y1175D01*
X274Y1175D01*
X274Y1177D01*
X286Y1177D01*
X286Y1179D01*
X40Y1179D01*
G37*
D02*
G36*
X298Y1179D02*
X298Y1177D01*
X310Y1177D01*
X310Y1175D01*
X318Y1175D01*
X318Y1173D01*
X322Y1173D01*
X322Y1171D01*
X326Y1171D01*
X326Y1169D01*
X330Y1169D01*
X330Y1167D01*
X334Y1167D01*
X334Y1165D01*
X336Y1165D01*
X336Y1163D01*
X340Y1163D01*
X340Y1161D01*
X342Y1161D01*
X342Y1159D01*
X344Y1159D01*
X344Y1157D01*
X346Y1157D01*
X346Y1155D01*
X348Y1155D01*
X348Y1153D01*
X350Y1153D01*
X350Y1151D01*
X352Y1151D01*
X352Y1149D01*
X354Y1149D01*
X354Y1147D01*
X356Y1147D01*
X356Y1143D01*
X358Y1143D01*
X358Y1141D01*
X360Y1141D01*
X360Y1137D01*
X362Y1137D01*
X362Y1133D01*
X364Y1133D01*
X364Y1129D01*
X366Y1129D01*
X366Y1123D01*
X368Y1123D01*
X368Y1115D01*
X370Y1115D01*
X370Y1085D01*
X368Y1085D01*
X368Y1077D01*
X366Y1077D01*
X366Y1071D01*
X364Y1071D01*
X364Y1067D01*
X362Y1067D01*
X362Y1063D01*
X360Y1063D01*
X360Y1059D01*
X358Y1059D01*
X358Y1055D01*
X356Y1055D01*
X356Y1053D01*
X354Y1053D01*
X354Y1051D01*
X352Y1051D01*
X352Y1047D01*
X350Y1047D01*
X350Y1045D01*
X348Y1045D01*
X348Y1043D01*
X346Y1043D01*
X346Y1041D01*
X344Y1041D01*
X344Y1039D01*
X340Y1039D01*
X340Y1037D01*
X338Y1037D01*
X338Y1035D01*
X336Y1035D01*
X336Y1033D01*
X332Y1033D01*
X332Y1031D01*
X328Y1031D01*
X328Y1029D01*
X324Y1029D01*
X324Y1027D01*
X320Y1027D01*
X320Y1025D01*
X314Y1025D01*
X314Y1023D01*
X574Y1023D01*
X574Y1025D01*
X566Y1025D01*
X566Y1027D01*
X562Y1027D01*
X562Y1029D01*
X556Y1029D01*
X556Y1031D01*
X552Y1031D01*
X552Y1033D01*
X550Y1033D01*
X550Y1035D01*
X546Y1035D01*
X546Y1037D01*
X544Y1037D01*
X544Y1039D01*
X542Y1039D01*
X542Y1041D01*
X538Y1041D01*
X538Y1043D01*
X536Y1043D01*
X536Y1045D01*
X534Y1045D01*
X534Y1047D01*
X532Y1047D01*
X532Y1049D01*
X530Y1049D01*
X530Y1053D01*
X528Y1053D01*
X528Y1055D01*
X526Y1055D01*
X526Y1059D01*
X524Y1059D01*
X524Y1061D01*
X522Y1061D01*
X522Y1065D01*
X520Y1065D01*
X520Y1069D01*
X518Y1069D01*
X518Y1075D01*
X516Y1075D01*
X516Y1081D01*
X514Y1081D01*
X514Y1091D01*
X512Y1091D01*
X512Y1111D01*
X514Y1111D01*
X514Y1121D01*
X516Y1121D01*
X516Y1127D01*
X518Y1127D01*
X518Y1133D01*
X520Y1133D01*
X520Y1137D01*
X522Y1137D01*
X522Y1141D01*
X524Y1141D01*
X524Y1143D01*
X526Y1143D01*
X526Y1147D01*
X528Y1147D01*
X528Y1149D01*
X530Y1149D01*
X530Y1151D01*
X532Y1151D01*
X532Y1155D01*
X534Y1155D01*
X534Y1157D01*
X536Y1157D01*
X536Y1159D01*
X540Y1159D01*
X540Y1161D01*
X542Y1161D01*
X542Y1163D01*
X544Y1163D01*
X544Y1165D01*
X546Y1165D01*
X546Y1167D01*
X550Y1167D01*
X550Y1169D01*
X554Y1169D01*
X554Y1171D01*
X558Y1171D01*
X558Y1173D01*
X562Y1173D01*
X562Y1175D01*
X568Y1175D01*
X568Y1177D01*
X574Y1177D01*
X574Y1179D01*
X298Y1179D01*
G37*
D02*
G36*
X656Y1057D02*
X656Y1055D01*
X826Y1055D01*
X826Y1053D01*
X834Y1053D01*
X834Y1051D01*
X840Y1051D01*
X840Y1049D01*
X844Y1049D01*
X844Y1047D01*
X848Y1047D01*
X848Y1045D01*
X852Y1045D01*
X852Y1043D01*
X854Y1043D01*
X854Y1041D01*
X858Y1041D01*
X858Y1039D01*
X860Y1039D01*
X860Y1037D01*
X862Y1037D01*
X862Y1035D01*
X864Y1035D01*
X864Y1033D01*
X866Y1033D01*
X866Y1031D01*
X868Y1031D01*
X868Y1029D01*
X870Y1029D01*
X870Y1027D01*
X872Y1027D01*
X872Y1025D01*
X874Y1025D01*
X874Y1023D01*
X876Y1023D01*
X876Y1019D01*
X878Y1019D01*
X878Y1015D01*
X880Y1015D01*
X880Y1013D01*
X882Y1013D01*
X882Y1009D01*
X884Y1009D01*
X884Y1003D01*
X886Y1003D01*
X886Y995D01*
X888Y995D01*
X888Y985D01*
X890Y985D01*
X890Y969D01*
X888Y969D01*
X888Y959D01*
X886Y959D01*
X886Y951D01*
X884Y951D01*
X884Y945D01*
X882Y945D01*
X882Y941D01*
X880Y941D01*
X880Y937D01*
X878Y937D01*
X878Y935D01*
X876Y935D01*
X876Y931D01*
X874Y931D01*
X874Y929D01*
X872Y929D01*
X872Y927D01*
X870Y927D01*
X870Y925D01*
X868Y925D01*
X868Y921D01*
X866Y921D01*
X866Y919D01*
X862Y919D01*
X862Y917D01*
X860Y917D01*
X860Y915D01*
X858Y915D01*
X858Y913D01*
X856Y913D01*
X856Y911D01*
X852Y911D01*
X852Y909D01*
X848Y909D01*
X848Y907D01*
X844Y907D01*
X844Y905D01*
X840Y905D01*
X840Y903D01*
X836Y903D01*
X836Y901D01*
X828Y901D01*
X828Y899D01*
X1246Y899D01*
X1246Y901D01*
X1236Y901D01*
X1236Y903D01*
X1228Y903D01*
X1228Y905D01*
X1224Y905D01*
X1224Y907D01*
X1218Y907D01*
X1218Y909D01*
X1216Y909D01*
X1216Y911D01*
X1212Y911D01*
X1212Y913D01*
X1210Y913D01*
X1210Y915D01*
X1206Y915D01*
X1206Y917D01*
X1204Y917D01*
X1204Y919D01*
X1202Y919D01*
X1202Y921D01*
X1200Y921D01*
X1200Y923D01*
X1198Y923D01*
X1198Y925D01*
X1196Y925D01*
X1196Y927D01*
X1194Y927D01*
X1194Y929D01*
X1192Y929D01*
X1192Y931D01*
X1190Y931D01*
X1190Y935D01*
X1188Y935D01*
X1188Y937D01*
X1186Y937D01*
X1186Y941D01*
X1184Y941D01*
X1184Y945D01*
X1182Y945D01*
X1182Y949D01*
X1180Y949D01*
X1180Y955D01*
X1178Y955D01*
X1178Y965D01*
X1176Y965D01*
X1176Y993D01*
X1178Y993D01*
X1178Y1001D01*
X1180Y1001D01*
X1180Y1007D01*
X1182Y1007D01*
X1182Y1011D01*
X1184Y1011D01*
X1184Y1015D01*
X1186Y1015D01*
X1186Y1019D01*
X1188Y1019D01*
X1188Y1023D01*
X1190Y1023D01*
X1190Y1025D01*
X1192Y1025D01*
X1192Y1027D01*
X1194Y1027D01*
X1194Y1031D01*
X1196Y1031D01*
X1196Y1033D01*
X1198Y1033D01*
X1198Y1035D01*
X1200Y1035D01*
X1200Y1037D01*
X1202Y1037D01*
X1202Y1039D01*
X1206Y1039D01*
X1206Y1041D01*
X1208Y1041D01*
X1208Y1043D01*
X1210Y1043D01*
X1210Y1045D01*
X1214Y1045D01*
X1214Y1047D01*
X1218Y1047D01*
X1218Y1049D01*
X1222Y1049D01*
X1222Y1051D01*
X1226Y1051D01*
X1226Y1053D01*
X1232Y1053D01*
X1232Y1055D01*
X1242Y1055D01*
X1242Y1057D01*
X656Y1057D01*
G37*
D02*
G36*
X654Y1055D02*
X654Y1053D01*
X652Y1053D01*
X652Y1049D01*
X650Y1049D01*
X650Y1047D01*
X648Y1047D01*
X648Y1045D01*
X646Y1045D01*
X646Y1043D01*
X644Y1043D01*
X644Y1041D01*
X642Y1041D01*
X642Y1039D01*
X638Y1039D01*
X638Y1037D01*
X636Y1037D01*
X636Y1035D01*
X632Y1035D01*
X632Y1033D01*
X630Y1033D01*
X630Y1031D01*
X626Y1031D01*
X626Y1029D01*
X622Y1029D01*
X622Y1027D01*
X616Y1027D01*
X616Y1025D01*
X608Y1025D01*
X608Y1023D01*
X748Y1023D01*
X748Y1027D01*
X750Y1027D01*
X750Y1029D01*
X752Y1029D01*
X752Y1031D01*
X754Y1031D01*
X754Y1033D01*
X756Y1033D01*
X756Y1035D01*
X758Y1035D01*
X758Y1037D01*
X760Y1037D01*
X760Y1039D01*
X764Y1039D01*
X764Y1041D01*
X766Y1041D01*
X766Y1043D01*
X770Y1043D01*
X770Y1045D01*
X772Y1045D01*
X772Y1047D01*
X776Y1047D01*
X776Y1049D01*
X780Y1049D01*
X780Y1051D01*
X786Y1051D01*
X786Y1053D01*
X794Y1053D01*
X794Y1055D01*
X654Y1055D01*
G37*
D02*
G36*
X306Y1023D02*
X306Y1021D01*
X746Y1021D01*
X746Y1023D01*
X306Y1023D01*
G37*
D02*
G36*
X306Y1023D02*
X306Y1021D01*
X746Y1021D01*
X746Y1023D01*
X306Y1023D01*
G37*
D02*
G36*
X40Y1021D02*
X40Y1019D01*
X744Y1019D01*
X744Y1021D01*
X40Y1021D01*
G37*
D02*
G36*
X40Y1021D02*
X40Y1019D01*
X744Y1019D01*
X744Y1021D01*
X40Y1021D01*
G37*
D02*
G36*
X40Y1019D02*
X40Y899D01*
X794Y899D01*
X794Y901D01*
X786Y901D01*
X786Y903D01*
X780Y903D01*
X780Y905D01*
X776Y905D01*
X776Y907D01*
X772Y907D01*
X772Y909D01*
X768Y909D01*
X768Y911D01*
X766Y911D01*
X766Y913D01*
X764Y913D01*
X764Y915D01*
X760Y915D01*
X760Y917D01*
X758Y917D01*
X758Y919D01*
X756Y919D01*
X756Y921D01*
X754Y921D01*
X754Y923D01*
X752Y923D01*
X752Y925D01*
X750Y925D01*
X750Y927D01*
X748Y927D01*
X748Y931D01*
X746Y931D01*
X746Y933D01*
X744Y933D01*
X744Y937D01*
X742Y937D01*
X742Y939D01*
X740Y939D01*
X740Y943D01*
X738Y943D01*
X738Y949D01*
X736Y949D01*
X736Y955D01*
X734Y955D01*
X734Y963D01*
X732Y963D01*
X732Y991D01*
X734Y991D01*
X734Y999D01*
X736Y999D01*
X736Y1005D01*
X738Y1005D01*
X738Y1011D01*
X740Y1011D01*
X740Y1015D01*
X742Y1015D01*
X742Y1017D01*
X744Y1017D01*
X744Y1019D01*
X40Y1019D01*
G37*
D02*
G36*
X40Y899D02*
X40Y897D01*
X1272Y897D01*
X1272Y899D01*
X40Y899D01*
G37*
D02*
G36*
X40Y899D02*
X40Y897D01*
X1272Y897D01*
X1272Y899D01*
X40Y899D01*
G37*
D02*
G36*
X40Y897D02*
X40Y887D01*
X234Y887D01*
X234Y885D01*
X244Y885D01*
X244Y883D01*
X252Y883D01*
X252Y881D01*
X256Y881D01*
X256Y879D01*
X262Y879D01*
X262Y877D01*
X266Y877D01*
X266Y875D01*
X270Y875D01*
X270Y873D01*
X274Y873D01*
X274Y871D01*
X276Y871D01*
X276Y869D01*
X280Y869D01*
X280Y867D01*
X282Y867D01*
X282Y865D01*
X286Y865D01*
X286Y863D01*
X288Y863D01*
X288Y861D01*
X290Y861D01*
X290Y859D01*
X292Y859D01*
X292Y857D01*
X294Y857D01*
X294Y855D01*
X296Y855D01*
X296Y853D01*
X298Y853D01*
X298Y851D01*
X300Y851D01*
X300Y849D01*
X302Y849D01*
X302Y847D01*
X304Y847D01*
X304Y845D01*
X306Y845D01*
X306Y841D01*
X308Y841D01*
X308Y839D01*
X310Y839D01*
X310Y837D01*
X312Y837D01*
X312Y833D01*
X314Y833D01*
X314Y829D01*
X316Y829D01*
X316Y825D01*
X318Y825D01*
X318Y821D01*
X320Y821D01*
X320Y817D01*
X322Y817D01*
X322Y811D01*
X324Y811D01*
X324Y805D01*
X326Y805D01*
X326Y797D01*
X328Y797D01*
X328Y781D01*
X330Y781D01*
X330Y769D01*
X328Y769D01*
X328Y753D01*
X326Y753D01*
X326Y745D01*
X324Y745D01*
X324Y739D01*
X322Y739D01*
X322Y733D01*
X320Y733D01*
X320Y729D01*
X318Y729D01*
X318Y725D01*
X316Y725D01*
X316Y721D01*
X314Y721D01*
X314Y717D01*
X312Y717D01*
X312Y713D01*
X310Y713D01*
X310Y711D01*
X308Y711D01*
X308Y709D01*
X306Y709D01*
X306Y705D01*
X304Y705D01*
X304Y703D01*
X302Y703D01*
X302Y701D01*
X300Y701D01*
X300Y699D01*
X298Y699D01*
X298Y697D01*
X822Y697D01*
X822Y695D01*
X830Y695D01*
X830Y693D01*
X836Y693D01*
X836Y691D01*
X842Y691D01*
X842Y689D01*
X846Y689D01*
X846Y687D01*
X848Y687D01*
X848Y685D01*
X852Y685D01*
X852Y683D01*
X854Y683D01*
X854Y681D01*
X858Y681D01*
X858Y679D01*
X860Y679D01*
X860Y677D01*
X862Y677D01*
X862Y675D01*
X864Y675D01*
X864Y673D01*
X866Y673D01*
X866Y671D01*
X868Y671D01*
X868Y669D01*
X870Y669D01*
X870Y667D01*
X872Y667D01*
X872Y663D01*
X874Y663D01*
X874Y661D01*
X876Y661D01*
X876Y657D01*
X878Y657D01*
X878Y653D01*
X880Y653D01*
X880Y649D01*
X882Y649D01*
X882Y645D01*
X884Y645D01*
X884Y637D01*
X886Y637D01*
X886Y627D01*
X888Y627D01*
X888Y609D01*
X886Y609D01*
X886Y599D01*
X884Y599D01*
X884Y591D01*
X882Y591D01*
X882Y587D01*
X880Y587D01*
X880Y583D01*
X878Y583D01*
X878Y579D01*
X876Y579D01*
X876Y575D01*
X874Y575D01*
X874Y573D01*
X872Y573D01*
X872Y569D01*
X870Y569D01*
X870Y567D01*
X868Y567D01*
X868Y565D01*
X866Y565D01*
X866Y563D01*
X864Y563D01*
X864Y561D01*
X862Y561D01*
X862Y559D01*
X860Y559D01*
X860Y557D01*
X858Y557D01*
X858Y555D01*
X854Y555D01*
X854Y553D01*
X852Y553D01*
X852Y551D01*
X848Y551D01*
X848Y549D01*
X846Y549D01*
X846Y547D01*
X842Y547D01*
X842Y545D01*
X836Y545D01*
X836Y543D01*
X830Y543D01*
X830Y541D01*
X822Y541D01*
X822Y539D01*
X1142Y539D01*
X1142Y801D01*
X1144Y801D01*
X1144Y805D01*
X1146Y805D01*
X1146Y809D01*
X1148Y809D01*
X1148Y811D01*
X1150Y811D01*
X1150Y813D01*
X1152Y813D01*
X1152Y815D01*
X1156Y815D01*
X1156Y817D01*
X1160Y817D01*
X1160Y819D01*
X1164Y819D01*
X1164Y821D01*
X1166Y821D01*
X1166Y823D01*
X1170Y823D01*
X1170Y825D01*
X1174Y825D01*
X1174Y827D01*
X1178Y827D01*
X1178Y829D01*
X1180Y829D01*
X1180Y831D01*
X1184Y831D01*
X1184Y833D01*
X1188Y833D01*
X1188Y835D01*
X1192Y835D01*
X1192Y837D01*
X1194Y837D01*
X1194Y839D01*
X1198Y839D01*
X1198Y841D01*
X1202Y841D01*
X1202Y843D01*
X1206Y843D01*
X1206Y845D01*
X1210Y845D01*
X1210Y847D01*
X1212Y847D01*
X1212Y849D01*
X1216Y849D01*
X1216Y851D01*
X1220Y851D01*
X1220Y853D01*
X1224Y853D01*
X1224Y855D01*
X1226Y855D01*
X1226Y857D01*
X1230Y857D01*
X1230Y859D01*
X1234Y859D01*
X1234Y861D01*
X1238Y861D01*
X1238Y863D01*
X1240Y863D01*
X1240Y865D01*
X1244Y865D01*
X1244Y867D01*
X1248Y867D01*
X1248Y869D01*
X1252Y869D01*
X1252Y871D01*
X1254Y871D01*
X1254Y873D01*
X1258Y873D01*
X1258Y875D01*
X1262Y875D01*
X1262Y877D01*
X1266Y877D01*
X1266Y879D01*
X1268Y879D01*
X1268Y881D01*
X1272Y881D01*
X1272Y897D01*
X40Y897D01*
G37*
D02*
G36*
X40Y887D02*
X40Y663D01*
X202Y663D01*
X202Y665D01*
X190Y665D01*
X190Y667D01*
X184Y667D01*
X184Y669D01*
X178Y669D01*
X178Y671D01*
X172Y671D01*
X172Y673D01*
X168Y673D01*
X168Y675D01*
X164Y675D01*
X164Y677D01*
X160Y677D01*
X160Y679D01*
X158Y679D01*
X158Y681D01*
X154Y681D01*
X154Y683D01*
X152Y683D01*
X152Y685D01*
X148Y685D01*
X148Y687D01*
X146Y687D01*
X146Y689D01*
X144Y689D01*
X144Y691D01*
X142Y691D01*
X142Y693D01*
X140Y693D01*
X140Y695D01*
X138Y695D01*
X138Y697D01*
X136Y697D01*
X136Y699D01*
X134Y699D01*
X134Y701D01*
X132Y701D01*
X132Y703D01*
X130Y703D01*
X130Y705D01*
X128Y705D01*
X128Y709D01*
X126Y709D01*
X126Y711D01*
X124Y711D01*
X124Y713D01*
X122Y713D01*
X122Y717D01*
X120Y717D01*
X120Y721D01*
X118Y721D01*
X118Y725D01*
X116Y725D01*
X116Y729D01*
X114Y729D01*
X114Y733D01*
X112Y733D01*
X112Y739D01*
X110Y739D01*
X110Y745D01*
X108Y745D01*
X108Y753D01*
X106Y753D01*
X106Y769D01*
X104Y769D01*
X104Y781D01*
X106Y781D01*
X106Y797D01*
X108Y797D01*
X108Y805D01*
X110Y805D01*
X110Y811D01*
X112Y811D01*
X112Y817D01*
X114Y817D01*
X114Y821D01*
X116Y821D01*
X116Y827D01*
X118Y827D01*
X118Y829D01*
X120Y829D01*
X120Y833D01*
X122Y833D01*
X122Y837D01*
X124Y837D01*
X124Y839D01*
X126Y839D01*
X126Y841D01*
X128Y841D01*
X128Y845D01*
X130Y845D01*
X130Y847D01*
X132Y847D01*
X132Y849D01*
X134Y849D01*
X134Y851D01*
X136Y851D01*
X136Y853D01*
X138Y853D01*
X138Y855D01*
X140Y855D01*
X140Y857D01*
X142Y857D01*
X142Y859D01*
X144Y859D01*
X144Y861D01*
X146Y861D01*
X146Y863D01*
X148Y863D01*
X148Y865D01*
X152Y865D01*
X152Y867D01*
X154Y867D01*
X154Y869D01*
X158Y869D01*
X158Y871D01*
X160Y871D01*
X160Y873D01*
X164Y873D01*
X164Y875D01*
X168Y875D01*
X168Y877D01*
X172Y877D01*
X172Y879D01*
X178Y879D01*
X178Y881D01*
X182Y881D01*
X182Y883D01*
X190Y883D01*
X190Y885D01*
X200Y885D01*
X200Y887D01*
X40Y887D01*
G37*
D02*
G36*
X1492Y737D02*
X1492Y735D01*
X1490Y735D01*
X1490Y715D01*
X1498Y715D01*
X1498Y713D01*
X1502Y713D01*
X1502Y711D01*
X1508Y711D01*
X1508Y709D01*
X1510Y709D01*
X1510Y707D01*
X1514Y707D01*
X1514Y705D01*
X1516Y705D01*
X1516Y703D01*
X1520Y703D01*
X1520Y701D01*
X1522Y701D01*
X1522Y699D01*
X1524Y699D01*
X1524Y697D01*
X1526Y697D01*
X1526Y695D01*
X1528Y695D01*
X1528Y693D01*
X1530Y693D01*
X1530Y691D01*
X1532Y691D01*
X1532Y687D01*
X1534Y687D01*
X1534Y685D01*
X1536Y685D01*
X1536Y681D01*
X1538Y681D01*
X1538Y677D01*
X1540Y677D01*
X1540Y673D01*
X1542Y673D01*
X1542Y667D01*
X1544Y667D01*
X1544Y661D01*
X1546Y661D01*
X1546Y631D01*
X1544Y631D01*
X1544Y623D01*
X1542Y623D01*
X1542Y617D01*
X1540Y617D01*
X1540Y613D01*
X1538Y613D01*
X1538Y609D01*
X1536Y609D01*
X1536Y605D01*
X1534Y605D01*
X1534Y603D01*
X1532Y603D01*
X1532Y601D01*
X1530Y601D01*
X1530Y597D01*
X1528Y597D01*
X1528Y595D01*
X1526Y595D01*
X1526Y593D01*
X1524Y593D01*
X1524Y591D01*
X1522Y591D01*
X1522Y589D01*
X1518Y589D01*
X1518Y587D01*
X1516Y587D01*
X1516Y585D01*
X1514Y585D01*
X1514Y583D01*
X1510Y583D01*
X1510Y581D01*
X1506Y581D01*
X1506Y579D01*
X1502Y579D01*
X1502Y577D01*
X1496Y577D01*
X1496Y575D01*
X1490Y575D01*
X1490Y573D01*
X1658Y573D01*
X1658Y575D01*
X1656Y575D01*
X1656Y577D01*
X1654Y577D01*
X1654Y579D01*
X1652Y579D01*
X1652Y581D01*
X1650Y581D01*
X1650Y585D01*
X1648Y585D01*
X1648Y587D01*
X1646Y587D01*
X1646Y589D01*
X1644Y589D01*
X1644Y593D01*
X1642Y593D01*
X1642Y595D01*
X1640Y595D01*
X1640Y597D01*
X1638Y597D01*
X1638Y599D01*
X1636Y599D01*
X1636Y603D01*
X1634Y603D01*
X1634Y605D01*
X1632Y605D01*
X1632Y607D01*
X1630Y607D01*
X1630Y609D01*
X1628Y609D01*
X1628Y613D01*
X1626Y613D01*
X1626Y615D01*
X1624Y615D01*
X1624Y617D01*
X1622Y617D01*
X1622Y621D01*
X1620Y621D01*
X1620Y623D01*
X1618Y623D01*
X1618Y625D01*
X1616Y625D01*
X1616Y627D01*
X1614Y627D01*
X1614Y631D01*
X1612Y631D01*
X1612Y633D01*
X1610Y633D01*
X1610Y635D01*
X1608Y635D01*
X1608Y639D01*
X1606Y639D01*
X1606Y641D01*
X1604Y641D01*
X1604Y643D01*
X1602Y643D01*
X1602Y645D01*
X1600Y645D01*
X1600Y649D01*
X1598Y649D01*
X1598Y651D01*
X1596Y651D01*
X1596Y653D01*
X1594Y653D01*
X1594Y655D01*
X1592Y655D01*
X1592Y659D01*
X1590Y659D01*
X1590Y661D01*
X1588Y661D01*
X1588Y663D01*
X1586Y663D01*
X1586Y667D01*
X1584Y667D01*
X1584Y669D01*
X1582Y669D01*
X1582Y671D01*
X1580Y671D01*
X1580Y673D01*
X1578Y673D01*
X1578Y677D01*
X1576Y677D01*
X1576Y679D01*
X1574Y679D01*
X1574Y681D01*
X1572Y681D01*
X1572Y683D01*
X1570Y683D01*
X1570Y687D01*
X1568Y687D01*
X1568Y689D01*
X1566Y689D01*
X1566Y691D01*
X1564Y691D01*
X1564Y695D01*
X1562Y695D01*
X1562Y697D01*
X1560Y697D01*
X1560Y699D01*
X1558Y699D01*
X1558Y701D01*
X1556Y701D01*
X1556Y705D01*
X1554Y705D01*
X1554Y707D01*
X1552Y707D01*
X1552Y709D01*
X1550Y709D01*
X1550Y711D01*
X1548Y711D01*
X1548Y713D01*
X1544Y713D01*
X1544Y715D01*
X1542Y715D01*
X1542Y717D01*
X1538Y717D01*
X1538Y719D01*
X1536Y719D01*
X1536Y721D01*
X1532Y721D01*
X1532Y723D01*
X1530Y723D01*
X1530Y725D01*
X1526Y725D01*
X1526Y727D01*
X1524Y727D01*
X1524Y729D01*
X1520Y729D01*
X1520Y731D01*
X1518Y731D01*
X1518Y733D01*
X1514Y733D01*
X1514Y735D01*
X1512Y735D01*
X1512Y737D01*
X1492Y737D01*
G37*
D02*
G36*
X296Y697D02*
X296Y695D01*
X294Y695D01*
X294Y693D01*
X292Y693D01*
X292Y691D01*
X290Y691D01*
X290Y689D01*
X288Y689D01*
X288Y687D01*
X286Y687D01*
X286Y685D01*
X282Y685D01*
X282Y683D01*
X280Y683D01*
X280Y681D01*
X276Y681D01*
X276Y679D01*
X274Y679D01*
X274Y677D01*
X270Y677D01*
X270Y675D01*
X266Y675D01*
X266Y673D01*
X262Y673D01*
X262Y671D01*
X256Y671D01*
X256Y669D01*
X250Y669D01*
X250Y667D01*
X244Y667D01*
X244Y665D01*
X232Y665D01*
X232Y663D01*
X744Y663D01*
X744Y665D01*
X746Y665D01*
X746Y667D01*
X748Y667D01*
X748Y671D01*
X750Y671D01*
X750Y673D01*
X752Y673D01*
X752Y675D01*
X754Y675D01*
X754Y677D01*
X756Y677D01*
X756Y679D01*
X760Y679D01*
X760Y681D01*
X762Y681D01*
X762Y683D01*
X764Y683D01*
X764Y685D01*
X768Y685D01*
X768Y687D01*
X772Y687D01*
X772Y689D01*
X776Y689D01*
X776Y691D01*
X780Y691D01*
X780Y693D01*
X786Y693D01*
X786Y695D01*
X796Y695D01*
X796Y697D01*
X296Y697D01*
G37*
D02*
G36*
X40Y663D02*
X40Y661D01*
X742Y661D01*
X742Y663D01*
X40Y663D01*
G37*
D02*
G36*
X40Y663D02*
X40Y661D01*
X742Y661D01*
X742Y663D01*
X40Y663D01*
G37*
D02*
G36*
X40Y661D02*
X40Y539D01*
X796Y539D01*
X796Y541D01*
X786Y541D01*
X786Y543D01*
X780Y543D01*
X780Y545D01*
X776Y545D01*
X776Y547D01*
X772Y547D01*
X772Y549D01*
X768Y549D01*
X768Y551D01*
X764Y551D01*
X764Y553D01*
X762Y553D01*
X762Y555D01*
X760Y555D01*
X760Y557D01*
X756Y557D01*
X756Y559D01*
X754Y559D01*
X754Y561D01*
X752Y561D01*
X752Y563D01*
X750Y563D01*
X750Y565D01*
X748Y565D01*
X748Y569D01*
X746Y569D01*
X746Y571D01*
X744Y571D01*
X744Y573D01*
X742Y573D01*
X742Y577D01*
X740Y577D01*
X740Y581D01*
X738Y581D01*
X738Y583D01*
X736Y583D01*
X736Y589D01*
X734Y589D01*
X734Y595D01*
X732Y595D01*
X732Y601D01*
X730Y601D01*
X730Y635D01*
X732Y635D01*
X732Y641D01*
X734Y641D01*
X734Y647D01*
X736Y647D01*
X736Y653D01*
X738Y653D01*
X738Y655D01*
X740Y655D01*
X740Y659D01*
X742Y659D01*
X742Y661D01*
X40Y661D01*
G37*
D02*
G36*
X1400Y597D02*
X1400Y579D01*
X1398Y579D01*
X1398Y573D01*
X1458Y573D01*
X1458Y575D01*
X1450Y575D01*
X1450Y577D01*
X1446Y577D01*
X1446Y579D01*
X1440Y579D01*
X1440Y581D01*
X1438Y581D01*
X1438Y583D01*
X1434Y583D01*
X1434Y585D01*
X1432Y585D01*
X1432Y587D01*
X1428Y587D01*
X1428Y589D01*
X1426Y589D01*
X1426Y591D01*
X1424Y591D01*
X1424Y593D01*
X1422Y593D01*
X1422Y595D01*
X1420Y595D01*
X1420Y597D01*
X1400Y597D01*
G37*
D02*
G36*
X1398Y573D02*
X1398Y571D01*
X1658Y571D01*
X1658Y573D01*
X1398Y573D01*
G37*
D02*
G36*
X1398Y573D02*
X1398Y571D01*
X1658Y571D01*
X1658Y573D01*
X1398Y573D01*
G37*
D02*
G36*
X1398Y571D02*
X1398Y561D01*
X1396Y561D01*
X1396Y543D01*
X1394Y543D01*
X1394Y525D01*
X1392Y525D01*
X1392Y519D01*
X1390Y519D01*
X1390Y515D01*
X1388Y515D01*
X1388Y513D01*
X1386Y513D01*
X1386Y511D01*
X1382Y511D01*
X1382Y509D01*
X1380Y509D01*
X1380Y507D01*
X1376Y507D01*
X1376Y505D01*
X1374Y505D01*
X1374Y503D01*
X1370Y503D01*
X1370Y501D01*
X1368Y501D01*
X1368Y499D01*
X1364Y499D01*
X1364Y497D01*
X1362Y497D01*
X1362Y495D01*
X1358Y495D01*
X1358Y493D01*
X1354Y493D01*
X1354Y491D01*
X1352Y491D01*
X1352Y489D01*
X1348Y489D01*
X1348Y487D01*
X1346Y487D01*
X1346Y485D01*
X1342Y485D01*
X1342Y483D01*
X1340Y483D01*
X1340Y463D01*
X1344Y463D01*
X1344Y461D01*
X1348Y461D01*
X1348Y459D01*
X1350Y459D01*
X1350Y457D01*
X1352Y457D01*
X1352Y455D01*
X1354Y455D01*
X1354Y453D01*
X1356Y453D01*
X1356Y451D01*
X1358Y451D01*
X1358Y449D01*
X1362Y449D01*
X1362Y447D01*
X1368Y447D01*
X1368Y445D01*
X1374Y445D01*
X1374Y443D01*
X1380Y443D01*
X1380Y441D01*
X1386Y441D01*
X1386Y439D01*
X1392Y439D01*
X1392Y437D01*
X1398Y437D01*
X1398Y435D01*
X1404Y435D01*
X1404Y433D01*
X1410Y433D01*
X1410Y431D01*
X1416Y431D01*
X1416Y429D01*
X1422Y429D01*
X1422Y427D01*
X1428Y427D01*
X1428Y425D01*
X1434Y425D01*
X1434Y423D01*
X1440Y423D01*
X1440Y421D01*
X1446Y421D01*
X1446Y419D01*
X1452Y419D01*
X1452Y417D01*
X1458Y417D01*
X1458Y415D01*
X1464Y415D01*
X1464Y413D01*
X1470Y413D01*
X1470Y411D01*
X1476Y411D01*
X1476Y409D01*
X1482Y409D01*
X1482Y407D01*
X1488Y407D01*
X1488Y405D01*
X1494Y405D01*
X1494Y403D01*
X1500Y403D01*
X1500Y401D01*
X1506Y401D01*
X1506Y399D01*
X1512Y399D01*
X1512Y397D01*
X1518Y397D01*
X1518Y395D01*
X1524Y395D01*
X1524Y393D01*
X1554Y393D01*
X1554Y391D01*
X1560Y391D01*
X1560Y389D01*
X1564Y389D01*
X1564Y387D01*
X1566Y387D01*
X1566Y385D01*
X1568Y385D01*
X1568Y383D01*
X1570Y383D01*
X1570Y381D01*
X1572Y381D01*
X1572Y379D01*
X1574Y379D01*
X1574Y375D01*
X1576Y375D01*
X1576Y369D01*
X1578Y369D01*
X1578Y357D01*
X1576Y357D01*
X1576Y351D01*
X1574Y351D01*
X1574Y347D01*
X1572Y347D01*
X1572Y345D01*
X1570Y345D01*
X1570Y343D01*
X1568Y343D01*
X1568Y341D01*
X1566Y341D01*
X1566Y339D01*
X1564Y339D01*
X1564Y337D01*
X1560Y337D01*
X1560Y335D01*
X1554Y335D01*
X1554Y333D01*
X1846Y333D01*
X1846Y335D01*
X1844Y335D01*
X1844Y337D01*
X1842Y337D01*
X1842Y339D01*
X1840Y339D01*
X1840Y341D01*
X1838Y341D01*
X1838Y345D01*
X1836Y345D01*
X1836Y347D01*
X1834Y347D01*
X1834Y349D01*
X1832Y349D01*
X1832Y351D01*
X1830Y351D01*
X1830Y355D01*
X1828Y355D01*
X1828Y357D01*
X1826Y357D01*
X1826Y359D01*
X1824Y359D01*
X1824Y363D01*
X1822Y363D01*
X1822Y365D01*
X1820Y365D01*
X1820Y367D01*
X1818Y367D01*
X1818Y369D01*
X1816Y369D01*
X1816Y373D01*
X1814Y373D01*
X1814Y375D01*
X1812Y375D01*
X1812Y377D01*
X1810Y377D01*
X1810Y381D01*
X1808Y381D01*
X1808Y383D01*
X1806Y383D01*
X1806Y385D01*
X1804Y385D01*
X1804Y387D01*
X1802Y387D01*
X1802Y391D01*
X1800Y391D01*
X1800Y393D01*
X1798Y393D01*
X1798Y395D01*
X1796Y395D01*
X1796Y397D01*
X1794Y397D01*
X1794Y401D01*
X1792Y401D01*
X1792Y403D01*
X1790Y403D01*
X1790Y405D01*
X1788Y405D01*
X1788Y409D01*
X1786Y409D01*
X1786Y411D01*
X1784Y411D01*
X1784Y413D01*
X1782Y413D01*
X1782Y415D01*
X1780Y415D01*
X1780Y419D01*
X1778Y419D01*
X1778Y421D01*
X1776Y421D01*
X1776Y423D01*
X1774Y423D01*
X1774Y427D01*
X1772Y427D01*
X1772Y429D01*
X1770Y429D01*
X1770Y431D01*
X1768Y431D01*
X1768Y433D01*
X1766Y433D01*
X1766Y437D01*
X1764Y437D01*
X1764Y439D01*
X1762Y439D01*
X1762Y441D01*
X1760Y441D01*
X1760Y443D01*
X1758Y443D01*
X1758Y447D01*
X1756Y447D01*
X1756Y449D01*
X1754Y449D01*
X1754Y451D01*
X1752Y451D01*
X1752Y455D01*
X1750Y455D01*
X1750Y457D01*
X1748Y457D01*
X1748Y459D01*
X1746Y459D01*
X1746Y461D01*
X1744Y461D01*
X1744Y465D01*
X1742Y465D01*
X1742Y467D01*
X1740Y467D01*
X1740Y469D01*
X1738Y469D01*
X1738Y471D01*
X1736Y471D01*
X1736Y475D01*
X1734Y475D01*
X1734Y477D01*
X1732Y477D01*
X1732Y479D01*
X1730Y479D01*
X1730Y483D01*
X1728Y483D01*
X1728Y485D01*
X1726Y485D01*
X1726Y487D01*
X1724Y487D01*
X1724Y489D01*
X1722Y489D01*
X1722Y493D01*
X1720Y493D01*
X1720Y495D01*
X1718Y495D01*
X1718Y497D01*
X1716Y497D01*
X1716Y501D01*
X1714Y501D01*
X1714Y503D01*
X1712Y503D01*
X1712Y505D01*
X1710Y505D01*
X1710Y507D01*
X1708Y507D01*
X1708Y511D01*
X1706Y511D01*
X1706Y513D01*
X1704Y513D01*
X1704Y515D01*
X1702Y515D01*
X1702Y517D01*
X1700Y517D01*
X1700Y521D01*
X1698Y521D01*
X1698Y523D01*
X1696Y523D01*
X1696Y525D01*
X1694Y525D01*
X1694Y529D01*
X1692Y529D01*
X1692Y531D01*
X1690Y531D01*
X1690Y533D01*
X1688Y533D01*
X1688Y535D01*
X1686Y535D01*
X1686Y539D01*
X1684Y539D01*
X1684Y541D01*
X1682Y541D01*
X1682Y543D01*
X1680Y543D01*
X1680Y547D01*
X1678Y547D01*
X1678Y549D01*
X1676Y549D01*
X1676Y551D01*
X1674Y551D01*
X1674Y553D01*
X1672Y553D01*
X1672Y557D01*
X1670Y557D01*
X1670Y559D01*
X1668Y559D01*
X1668Y561D01*
X1666Y561D01*
X1666Y563D01*
X1664Y563D01*
X1664Y567D01*
X1662Y567D01*
X1662Y569D01*
X1660Y569D01*
X1660Y571D01*
X1398Y571D01*
G37*
D02*
G36*
X40Y539D02*
X40Y537D01*
X1142Y537D01*
X1142Y539D01*
X40Y539D01*
G37*
D02*
G36*
X40Y539D02*
X40Y537D01*
X1142Y537D01*
X1142Y539D01*
X40Y539D01*
G37*
D02*
G36*
X40Y537D02*
X40Y417D01*
X1098Y417D01*
X1098Y415D01*
X1104Y415D01*
X1104Y413D01*
X1108Y413D01*
X1108Y411D01*
X1110Y411D01*
X1110Y409D01*
X1112Y409D01*
X1112Y407D01*
X1114Y407D01*
X1114Y405D01*
X1116Y405D01*
X1116Y403D01*
X1118Y403D01*
X1118Y399D01*
X1120Y399D01*
X1120Y393D01*
X1122Y393D01*
X1122Y381D01*
X1120Y381D01*
X1120Y375D01*
X1118Y375D01*
X1118Y371D01*
X1116Y371D01*
X1116Y369D01*
X1114Y369D01*
X1114Y367D01*
X1112Y367D01*
X1112Y365D01*
X1110Y365D01*
X1110Y363D01*
X1108Y363D01*
X1108Y361D01*
X1104Y361D01*
X1104Y359D01*
X1098Y359D01*
X1098Y357D01*
X1096Y357D01*
X1096Y353D01*
X1094Y353D01*
X1094Y351D01*
X1092Y351D01*
X1092Y349D01*
X1090Y349D01*
X1090Y345D01*
X1088Y345D01*
X1088Y343D01*
X1086Y343D01*
X1086Y339D01*
X1084Y339D01*
X1084Y337D01*
X1082Y337D01*
X1082Y335D01*
X1080Y335D01*
X1080Y331D01*
X1078Y331D01*
X1078Y329D01*
X1076Y329D01*
X1076Y327D01*
X1074Y327D01*
X1074Y323D01*
X1072Y323D01*
X1072Y321D01*
X1070Y321D01*
X1070Y317D01*
X1068Y317D01*
X1068Y315D01*
X1066Y315D01*
X1066Y313D01*
X1064Y313D01*
X1064Y309D01*
X1062Y309D01*
X1062Y307D01*
X1060Y307D01*
X1060Y303D01*
X1058Y303D01*
X1058Y301D01*
X1056Y301D01*
X1056Y299D01*
X1054Y299D01*
X1054Y295D01*
X1052Y295D01*
X1052Y293D01*
X1050Y293D01*
X1050Y291D01*
X1048Y291D01*
X1048Y287D01*
X1046Y287D01*
X1046Y285D01*
X1044Y285D01*
X1044Y281D01*
X1042Y281D01*
X1042Y279D01*
X1040Y279D01*
X1040Y277D01*
X1038Y277D01*
X1038Y273D01*
X1036Y273D01*
X1036Y271D01*
X1034Y271D01*
X1034Y269D01*
X1032Y269D01*
X1032Y265D01*
X1030Y265D01*
X1030Y263D01*
X1028Y263D01*
X1028Y259D01*
X1026Y259D01*
X1026Y257D01*
X1024Y257D01*
X1024Y255D01*
X1022Y255D01*
X1022Y251D01*
X1020Y251D01*
X1020Y249D01*
X1018Y249D01*
X1018Y245D01*
X1016Y245D01*
X1016Y243D01*
X1014Y243D01*
X1014Y241D01*
X1012Y241D01*
X1012Y237D01*
X1010Y237D01*
X1010Y235D01*
X1008Y235D01*
X1008Y233D01*
X1006Y233D01*
X1006Y229D01*
X1004Y229D01*
X1004Y227D01*
X1002Y227D01*
X1002Y223D01*
X1000Y223D01*
X1000Y221D01*
X998Y221D01*
X998Y219D01*
X996Y219D01*
X996Y215D01*
X994Y215D01*
X994Y213D01*
X992Y213D01*
X992Y211D01*
X1042Y211D01*
X1042Y209D01*
X1048Y209D01*
X1048Y207D01*
X1054Y207D01*
X1054Y205D01*
X1056Y205D01*
X1056Y203D01*
X1060Y203D01*
X1060Y201D01*
X1062Y201D01*
X1062Y199D01*
X1064Y199D01*
X1064Y197D01*
X1066Y197D01*
X1066Y195D01*
X1068Y195D01*
X1068Y191D01*
X1070Y191D01*
X1070Y189D01*
X1072Y189D01*
X1072Y185D01*
X1074Y185D01*
X1074Y183D01*
X1094Y183D01*
X1094Y187D01*
X1096Y187D01*
X1096Y191D01*
X1098Y191D01*
X1098Y193D01*
X1100Y193D01*
X1100Y195D01*
X1102Y195D01*
X1102Y199D01*
X1104Y199D01*
X1104Y201D01*
X1108Y201D01*
X1108Y203D01*
X1110Y203D01*
X1110Y205D01*
X1114Y205D01*
X1114Y207D01*
X1118Y207D01*
X1118Y209D01*
X1124Y209D01*
X1124Y211D01*
X1142Y211D01*
X1142Y537D01*
X40Y537D01*
G37*
D02*
G36*
X1280Y445D02*
X1280Y443D01*
X1278Y443D01*
X1278Y441D01*
X1274Y441D01*
X1274Y439D01*
X1272Y439D01*
X1272Y437D01*
X1268Y437D01*
X1268Y435D01*
X1264Y435D01*
X1264Y433D01*
X1262Y433D01*
X1262Y417D01*
X1260Y417D01*
X1260Y333D01*
X1542Y333D01*
X1542Y335D01*
X1536Y335D01*
X1536Y337D01*
X1532Y337D01*
X1532Y339D01*
X1530Y339D01*
X1530Y341D01*
X1528Y341D01*
X1528Y343D01*
X1526Y343D01*
X1526Y345D01*
X1524Y345D01*
X1524Y347D01*
X1522Y347D01*
X1522Y349D01*
X1518Y349D01*
X1518Y351D01*
X1512Y351D01*
X1512Y353D01*
X1506Y353D01*
X1506Y355D01*
X1500Y355D01*
X1500Y357D01*
X1494Y357D01*
X1494Y359D01*
X1488Y359D01*
X1488Y361D01*
X1482Y361D01*
X1482Y363D01*
X1476Y363D01*
X1476Y365D01*
X1470Y365D01*
X1470Y367D01*
X1464Y367D01*
X1464Y369D01*
X1458Y369D01*
X1458Y371D01*
X1452Y371D01*
X1452Y373D01*
X1446Y373D01*
X1446Y375D01*
X1440Y375D01*
X1440Y377D01*
X1434Y377D01*
X1434Y379D01*
X1428Y379D01*
X1428Y381D01*
X1422Y381D01*
X1422Y383D01*
X1416Y383D01*
X1416Y385D01*
X1410Y385D01*
X1410Y387D01*
X1404Y387D01*
X1404Y389D01*
X1398Y389D01*
X1398Y391D01*
X1392Y391D01*
X1392Y393D01*
X1386Y393D01*
X1386Y395D01*
X1380Y395D01*
X1380Y397D01*
X1374Y397D01*
X1374Y399D01*
X1368Y399D01*
X1368Y401D01*
X1362Y401D01*
X1362Y403D01*
X1356Y403D01*
X1356Y405D01*
X1326Y405D01*
X1326Y407D01*
X1320Y407D01*
X1320Y409D01*
X1316Y409D01*
X1316Y411D01*
X1314Y411D01*
X1314Y413D01*
X1312Y413D01*
X1312Y415D01*
X1310Y415D01*
X1310Y417D01*
X1308Y417D01*
X1308Y419D01*
X1306Y419D01*
X1306Y423D01*
X1304Y423D01*
X1304Y429D01*
X1302Y429D01*
X1302Y445D01*
X1280Y445D01*
G37*
D02*
G36*
X40Y417D02*
X40Y211D01*
X842Y211D01*
X842Y209D01*
X848Y209D01*
X848Y207D01*
X854Y207D01*
X854Y205D01*
X856Y205D01*
X856Y203D01*
X860Y203D01*
X860Y201D01*
X862Y201D01*
X862Y199D01*
X864Y199D01*
X864Y197D01*
X866Y197D01*
X866Y195D01*
X868Y195D01*
X868Y191D01*
X870Y191D01*
X870Y189D01*
X872Y189D01*
X872Y185D01*
X874Y185D01*
X874Y183D01*
X894Y183D01*
X894Y187D01*
X896Y187D01*
X896Y191D01*
X898Y191D01*
X898Y193D01*
X900Y193D01*
X900Y195D01*
X902Y195D01*
X902Y199D01*
X904Y199D01*
X904Y201D01*
X908Y201D01*
X908Y203D01*
X910Y203D01*
X910Y205D01*
X914Y205D01*
X914Y207D01*
X918Y207D01*
X918Y209D01*
X924Y209D01*
X924Y211D01*
X938Y211D01*
X938Y213D01*
X940Y213D01*
X940Y215D01*
X942Y215D01*
X942Y219D01*
X944Y219D01*
X944Y221D01*
X946Y221D01*
X946Y225D01*
X948Y225D01*
X948Y227D01*
X950Y227D01*
X950Y229D01*
X952Y229D01*
X952Y233D01*
X954Y233D01*
X954Y235D01*
X956Y235D01*
X956Y239D01*
X958Y239D01*
X958Y241D01*
X960Y241D01*
X960Y243D01*
X962Y243D01*
X962Y247D01*
X964Y247D01*
X964Y249D01*
X966Y249D01*
X966Y251D01*
X968Y251D01*
X968Y255D01*
X970Y255D01*
X970Y257D01*
X972Y257D01*
X972Y261D01*
X974Y261D01*
X974Y263D01*
X976Y263D01*
X976Y265D01*
X978Y265D01*
X978Y269D01*
X980Y269D01*
X980Y271D01*
X982Y271D01*
X982Y273D01*
X984Y273D01*
X984Y277D01*
X986Y277D01*
X986Y279D01*
X988Y279D01*
X988Y283D01*
X990Y283D01*
X990Y285D01*
X992Y285D01*
X992Y287D01*
X994Y287D01*
X994Y291D01*
X996Y291D01*
X996Y293D01*
X998Y293D01*
X998Y297D01*
X1000Y297D01*
X1000Y299D01*
X1002Y299D01*
X1002Y301D01*
X1004Y301D01*
X1004Y305D01*
X1006Y305D01*
X1006Y307D01*
X1008Y307D01*
X1008Y309D01*
X1010Y309D01*
X1010Y313D01*
X1012Y313D01*
X1012Y315D01*
X1014Y315D01*
X1014Y319D01*
X1016Y319D01*
X1016Y321D01*
X1018Y321D01*
X1018Y323D01*
X1020Y323D01*
X1020Y327D01*
X1022Y327D01*
X1022Y329D01*
X1024Y329D01*
X1024Y331D01*
X1026Y331D01*
X1026Y335D01*
X1028Y335D01*
X1028Y337D01*
X1030Y337D01*
X1030Y341D01*
X1032Y341D01*
X1032Y343D01*
X1034Y343D01*
X1034Y345D01*
X1036Y345D01*
X1036Y349D01*
X1038Y349D01*
X1038Y351D01*
X1040Y351D01*
X1040Y355D01*
X1042Y355D01*
X1042Y357D01*
X1044Y357D01*
X1044Y359D01*
X1046Y359D01*
X1046Y363D01*
X1048Y363D01*
X1048Y365D01*
X1050Y365D01*
X1050Y367D01*
X1052Y367D01*
X1052Y371D01*
X1054Y371D01*
X1054Y373D01*
X1056Y373D01*
X1056Y377D01*
X1058Y377D01*
X1058Y379D01*
X1060Y379D01*
X1060Y381D01*
X1062Y381D01*
X1062Y393D01*
X1064Y393D01*
X1064Y399D01*
X1066Y399D01*
X1066Y403D01*
X1068Y403D01*
X1068Y405D01*
X1070Y405D01*
X1070Y407D01*
X1072Y407D01*
X1072Y409D01*
X1074Y409D01*
X1074Y411D01*
X1076Y411D01*
X1076Y413D01*
X1080Y413D01*
X1080Y415D01*
X1086Y415D01*
X1086Y417D01*
X40Y417D01*
G37*
D02*
G36*
X1260Y333D02*
X1260Y331D01*
X1846Y331D01*
X1846Y333D01*
X1260Y333D01*
G37*
D02*
G36*
X1260Y333D02*
X1260Y331D01*
X1846Y331D01*
X1846Y333D01*
X1260Y333D01*
G37*
D02*
G36*
X1260Y331D02*
X1260Y327D01*
X1258Y327D01*
X1258Y259D01*
X1558Y259D01*
X1558Y257D01*
X1566Y257D01*
X1566Y255D01*
X1570Y255D01*
X1570Y253D01*
X1574Y253D01*
X1574Y251D01*
X1576Y251D01*
X1576Y249D01*
X1578Y249D01*
X1578Y247D01*
X1582Y247D01*
X1582Y243D01*
X1584Y243D01*
X1584Y241D01*
X1586Y241D01*
X1586Y239D01*
X1588Y239D01*
X1588Y235D01*
X1590Y235D01*
X1590Y233D01*
X1592Y233D01*
X1592Y227D01*
X1594Y227D01*
X1594Y223D01*
X1596Y223D01*
X1596Y221D01*
X1604Y221D01*
X1604Y219D01*
X1612Y219D01*
X1612Y217D01*
X1620Y217D01*
X1620Y215D01*
X1628Y215D01*
X1628Y213D01*
X1634Y213D01*
X1634Y211D01*
X1642Y211D01*
X1642Y209D01*
X1650Y209D01*
X1650Y207D01*
X1658Y207D01*
X1658Y205D01*
X1666Y205D01*
X1666Y203D01*
X1674Y203D01*
X1674Y201D01*
X1680Y201D01*
X1680Y199D01*
X1688Y199D01*
X1688Y197D01*
X1696Y197D01*
X1696Y195D01*
X1704Y195D01*
X1704Y193D01*
X1796Y193D01*
X1796Y191D01*
X1862Y191D01*
X1862Y189D01*
X1866Y189D01*
X1866Y187D01*
X1868Y187D01*
X1868Y185D01*
X1870Y185D01*
X1870Y183D01*
X1872Y183D01*
X1872Y181D01*
X1892Y181D01*
X1892Y183D01*
X1896Y183D01*
X1896Y185D01*
X1900Y185D01*
X1900Y187D01*
X1904Y187D01*
X1904Y189D01*
X1910Y189D01*
X1910Y191D01*
X1946Y191D01*
X1946Y207D01*
X1944Y207D01*
X1944Y209D01*
X1942Y209D01*
X1942Y211D01*
X1940Y211D01*
X1940Y215D01*
X1938Y215D01*
X1938Y217D01*
X1936Y217D01*
X1936Y219D01*
X1934Y219D01*
X1934Y221D01*
X1932Y221D01*
X1932Y225D01*
X1930Y225D01*
X1930Y227D01*
X1928Y227D01*
X1928Y229D01*
X1926Y229D01*
X1926Y231D01*
X1924Y231D01*
X1924Y235D01*
X1922Y235D01*
X1922Y237D01*
X1920Y237D01*
X1920Y239D01*
X1918Y239D01*
X1918Y243D01*
X1916Y243D01*
X1916Y245D01*
X1914Y245D01*
X1914Y247D01*
X1912Y247D01*
X1912Y249D01*
X1910Y249D01*
X1910Y253D01*
X1908Y253D01*
X1908Y255D01*
X1906Y255D01*
X1906Y257D01*
X1904Y257D01*
X1904Y259D01*
X1902Y259D01*
X1902Y263D01*
X1900Y263D01*
X1900Y265D01*
X1898Y265D01*
X1898Y267D01*
X1896Y267D01*
X1896Y271D01*
X1894Y271D01*
X1894Y273D01*
X1892Y273D01*
X1892Y275D01*
X1890Y275D01*
X1890Y277D01*
X1888Y277D01*
X1888Y281D01*
X1886Y281D01*
X1886Y283D01*
X1884Y283D01*
X1884Y285D01*
X1882Y285D01*
X1882Y289D01*
X1880Y289D01*
X1880Y291D01*
X1878Y291D01*
X1878Y293D01*
X1876Y293D01*
X1876Y295D01*
X1874Y295D01*
X1874Y299D01*
X1872Y299D01*
X1872Y301D01*
X1870Y301D01*
X1870Y303D01*
X1868Y303D01*
X1868Y305D01*
X1866Y305D01*
X1866Y309D01*
X1864Y309D01*
X1864Y311D01*
X1862Y311D01*
X1862Y313D01*
X1860Y313D01*
X1860Y317D01*
X1858Y317D01*
X1858Y319D01*
X1856Y319D01*
X1856Y321D01*
X1854Y321D01*
X1854Y323D01*
X1852Y323D01*
X1852Y327D01*
X1850Y327D01*
X1850Y329D01*
X1848Y329D01*
X1848Y331D01*
X1260Y331D01*
G37*
D02*
G36*
X1258Y259D02*
X1258Y237D01*
X1256Y237D01*
X1256Y203D01*
X1260Y203D01*
X1260Y201D01*
X1262Y201D01*
X1262Y199D01*
X1264Y199D01*
X1264Y197D01*
X1266Y197D01*
X1266Y195D01*
X1268Y195D01*
X1268Y191D01*
X1270Y191D01*
X1270Y189D01*
X1272Y189D01*
X1272Y185D01*
X1274Y185D01*
X1274Y179D01*
X1276Y179D01*
X1276Y165D01*
X1412Y165D01*
X1412Y167D01*
X1410Y167D01*
X1410Y169D01*
X1406Y169D01*
X1406Y173D01*
X1404Y173D01*
X1404Y175D01*
X1402Y175D01*
X1402Y181D01*
X1400Y181D01*
X1400Y243D01*
X1402Y243D01*
X1402Y249D01*
X1404Y249D01*
X1404Y251D01*
X1406Y251D01*
X1406Y253D01*
X1408Y253D01*
X1408Y255D01*
X1410Y255D01*
X1410Y257D01*
X1414Y257D01*
X1414Y259D01*
X1258Y259D01*
G37*
D02*
G36*
X1482Y259D02*
X1482Y257D01*
X1486Y257D01*
X1486Y255D01*
X1490Y255D01*
X1490Y253D01*
X1492Y253D01*
X1492Y249D01*
X1494Y249D01*
X1494Y245D01*
X1516Y245D01*
X1516Y247D01*
X1518Y247D01*
X1518Y249D01*
X1520Y249D01*
X1520Y251D01*
X1524Y251D01*
X1524Y253D01*
X1526Y253D01*
X1526Y255D01*
X1532Y255D01*
X1532Y257D01*
X1538Y257D01*
X1538Y259D01*
X1482Y259D01*
G37*
D02*
G36*
X40Y211D02*
X40Y197D01*
X536Y197D01*
X536Y195D01*
X542Y195D01*
X542Y193D01*
X548Y193D01*
X548Y191D01*
X552Y191D01*
X552Y189D01*
X554Y189D01*
X554Y187D01*
X558Y187D01*
X558Y185D01*
X560Y185D01*
X560Y183D01*
X562Y183D01*
X562Y181D01*
X564Y181D01*
X564Y179D01*
X566Y179D01*
X566Y175D01*
X568Y175D01*
X568Y173D01*
X570Y173D01*
X570Y169D01*
X572Y169D01*
X572Y163D01*
X574Y163D01*
X574Y157D01*
X576Y157D01*
X576Y139D01*
X574Y139D01*
X574Y133D01*
X572Y133D01*
X572Y127D01*
X570Y127D01*
X570Y125D01*
X824Y125D01*
X824Y127D01*
X818Y127D01*
X818Y129D01*
X814Y129D01*
X814Y131D01*
X810Y131D01*
X810Y133D01*
X808Y133D01*
X808Y135D01*
X804Y135D01*
X804Y137D01*
X802Y137D01*
X802Y141D01*
X800Y141D01*
X800Y143D01*
X798Y143D01*
X798Y145D01*
X796Y145D01*
X796Y149D01*
X794Y149D01*
X794Y153D01*
X792Y153D01*
X792Y161D01*
X790Y161D01*
X790Y175D01*
X792Y175D01*
X792Y183D01*
X794Y183D01*
X794Y187D01*
X796Y187D01*
X796Y191D01*
X798Y191D01*
X798Y193D01*
X800Y193D01*
X800Y195D01*
X802Y195D01*
X802Y199D01*
X804Y199D01*
X804Y201D01*
X808Y201D01*
X808Y203D01*
X810Y203D01*
X810Y205D01*
X814Y205D01*
X814Y207D01*
X818Y207D01*
X818Y209D01*
X824Y209D01*
X824Y211D01*
X40Y211D01*
G37*
D02*
G36*
X990Y211D02*
X990Y207D01*
X988Y207D01*
X988Y205D01*
X986Y205D01*
X986Y201D01*
X984Y201D01*
X984Y199D01*
X982Y199D01*
X982Y197D01*
X980Y197D01*
X980Y193D01*
X978Y193D01*
X978Y191D01*
X976Y191D01*
X976Y187D01*
X996Y187D01*
X996Y191D01*
X998Y191D01*
X998Y193D01*
X1000Y193D01*
X1000Y195D01*
X1002Y195D01*
X1002Y199D01*
X1004Y199D01*
X1004Y201D01*
X1008Y201D01*
X1008Y203D01*
X1010Y203D01*
X1010Y205D01*
X1014Y205D01*
X1014Y207D01*
X1018Y207D01*
X1018Y209D01*
X1024Y209D01*
X1024Y211D01*
X990Y211D01*
G37*
D02*
G36*
X40Y197D02*
X40Y99D01*
X318Y99D01*
X318Y101D01*
X310Y101D01*
X310Y103D01*
X306Y103D01*
X306Y105D01*
X302Y105D01*
X302Y107D01*
X300Y107D01*
X300Y109D01*
X296Y109D01*
X296Y111D01*
X294Y111D01*
X294Y113D01*
X292Y113D01*
X292Y115D01*
X290Y115D01*
X290Y117D01*
X288Y117D01*
X288Y121D01*
X286Y121D01*
X286Y123D01*
X284Y123D01*
X284Y127D01*
X282Y127D01*
X282Y133D01*
X280Y133D01*
X280Y139D01*
X278Y139D01*
X278Y157D01*
X280Y157D01*
X280Y163D01*
X282Y163D01*
X282Y169D01*
X284Y169D01*
X284Y173D01*
X286Y173D01*
X286Y175D01*
X288Y175D01*
X288Y179D01*
X290Y179D01*
X290Y181D01*
X292Y181D01*
X292Y183D01*
X294Y183D01*
X294Y185D01*
X296Y185D01*
X296Y187D01*
X300Y187D01*
X300Y189D01*
X302Y189D01*
X302Y191D01*
X306Y191D01*
X306Y193D01*
X312Y193D01*
X312Y195D01*
X318Y195D01*
X318Y197D01*
X40Y197D01*
G37*
D02*
G36*
X336Y197D02*
X336Y195D01*
X344Y195D01*
X344Y193D01*
X348Y193D01*
X348Y191D01*
X352Y191D01*
X352Y189D01*
X356Y189D01*
X356Y187D01*
X358Y187D01*
X358Y185D01*
X360Y185D01*
X360Y183D01*
X362Y183D01*
X362Y181D01*
X364Y181D01*
X364Y179D01*
X366Y179D01*
X366Y177D01*
X388Y177D01*
X388Y179D01*
X390Y179D01*
X390Y181D01*
X392Y181D01*
X392Y183D01*
X394Y183D01*
X394Y185D01*
X396Y185D01*
X396Y187D01*
X398Y187D01*
X398Y189D01*
X402Y189D01*
X402Y191D01*
X406Y191D01*
X406Y193D01*
X410Y193D01*
X410Y195D01*
X418Y195D01*
X418Y197D01*
X336Y197D01*
G37*
D02*
G36*
X436Y197D02*
X436Y195D01*
X442Y195D01*
X442Y193D01*
X448Y193D01*
X448Y191D01*
X452Y191D01*
X452Y189D01*
X454Y189D01*
X454Y187D01*
X458Y187D01*
X458Y185D01*
X460Y185D01*
X460Y183D01*
X462Y183D01*
X462Y181D01*
X464Y181D01*
X464Y179D01*
X466Y179D01*
X466Y175D01*
X486Y175D01*
X486Y177D01*
X488Y177D01*
X488Y179D01*
X490Y179D01*
X490Y181D01*
X492Y181D01*
X492Y183D01*
X494Y183D01*
X494Y185D01*
X496Y185D01*
X496Y187D01*
X498Y187D01*
X498Y189D01*
X502Y189D01*
X502Y191D01*
X506Y191D01*
X506Y193D01*
X510Y193D01*
X510Y195D01*
X518Y195D01*
X518Y197D01*
X436Y197D01*
G37*
D02*
G36*
X1712Y193D02*
X1712Y191D01*
X1720Y191D01*
X1720Y189D01*
X1726Y189D01*
X1726Y187D01*
X1734Y187D01*
X1734Y185D01*
X1742Y185D01*
X1742Y183D01*
X1750Y183D01*
X1750Y181D01*
X1774Y181D01*
X1774Y183D01*
X1776Y183D01*
X1776Y185D01*
X1778Y185D01*
X1778Y187D01*
X1780Y187D01*
X1780Y189D01*
X1782Y189D01*
X1782Y191D01*
X1790Y191D01*
X1790Y193D01*
X1712Y193D01*
G37*
D02*
G36*
X1494Y179D02*
X1494Y175D01*
X1492Y175D01*
X1492Y171D01*
X1490Y171D01*
X1490Y169D01*
X1488Y169D01*
X1488Y167D01*
X1484Y167D01*
X1484Y165D01*
X1536Y165D01*
X1536Y167D01*
X1530Y167D01*
X1530Y169D01*
X1526Y169D01*
X1526Y171D01*
X1522Y171D01*
X1522Y173D01*
X1520Y173D01*
X1520Y175D01*
X1518Y175D01*
X1518Y177D01*
X1514Y177D01*
X1514Y179D01*
X1494Y179D01*
G37*
D02*
G36*
X1576Y175D02*
X1576Y173D01*
X1574Y173D01*
X1574Y171D01*
X1570Y171D01*
X1570Y169D01*
X1566Y169D01*
X1566Y167D01*
X1560Y167D01*
X1560Y165D01*
X1636Y165D01*
X1636Y167D01*
X1630Y167D01*
X1630Y169D01*
X1622Y169D01*
X1622Y171D01*
X1614Y171D01*
X1614Y173D01*
X1606Y173D01*
X1606Y175D01*
X1576Y175D01*
G37*
D02*
G36*
X1276Y165D02*
X1276Y163D01*
X1644Y163D01*
X1644Y165D01*
X1276Y165D01*
G37*
D02*
G36*
X1276Y165D02*
X1276Y163D01*
X1644Y163D01*
X1644Y165D01*
X1276Y165D01*
G37*
D02*
G36*
X1276Y165D02*
X1276Y163D01*
X1644Y163D01*
X1644Y165D01*
X1276Y165D01*
G37*
D02*
G36*
X1276Y163D02*
X1276Y157D01*
X1274Y157D01*
X1274Y151D01*
X1272Y151D01*
X1272Y147D01*
X1270Y147D01*
X1270Y145D01*
X1268Y145D01*
X1268Y141D01*
X1266Y141D01*
X1266Y139D01*
X1264Y139D01*
X1264Y137D01*
X1262Y137D01*
X1262Y135D01*
X1260Y135D01*
X1260Y133D01*
X1256Y133D01*
X1256Y131D01*
X1254Y131D01*
X1254Y129D01*
X1248Y129D01*
X1248Y127D01*
X1242Y127D01*
X1242Y125D01*
X1772Y125D01*
X1772Y131D01*
X1768Y131D01*
X1768Y133D01*
X1760Y133D01*
X1760Y135D01*
X1752Y135D01*
X1752Y137D01*
X1744Y137D01*
X1744Y139D01*
X1736Y139D01*
X1736Y141D01*
X1728Y141D01*
X1728Y143D01*
X1722Y143D01*
X1722Y145D01*
X1714Y145D01*
X1714Y147D01*
X1706Y147D01*
X1706Y149D01*
X1698Y149D01*
X1698Y151D01*
X1690Y151D01*
X1690Y153D01*
X1682Y153D01*
X1682Y155D01*
X1676Y155D01*
X1676Y157D01*
X1668Y157D01*
X1668Y159D01*
X1660Y159D01*
X1660Y161D01*
X1652Y161D01*
X1652Y163D01*
X1276Y163D01*
G37*
D02*
G36*
X874Y153D02*
X874Y151D01*
X872Y151D01*
X872Y147D01*
X870Y147D01*
X870Y145D01*
X868Y145D01*
X868Y141D01*
X866Y141D01*
X866Y139D01*
X864Y139D01*
X864Y137D01*
X862Y137D01*
X862Y135D01*
X860Y135D01*
X860Y133D01*
X856Y133D01*
X856Y131D01*
X854Y131D01*
X854Y129D01*
X848Y129D01*
X848Y127D01*
X842Y127D01*
X842Y125D01*
X924Y125D01*
X924Y127D01*
X918Y127D01*
X918Y129D01*
X914Y129D01*
X914Y131D01*
X910Y131D01*
X910Y133D01*
X908Y133D01*
X908Y135D01*
X904Y135D01*
X904Y137D01*
X902Y137D01*
X902Y141D01*
X900Y141D01*
X900Y143D01*
X898Y143D01*
X898Y145D01*
X896Y145D01*
X896Y149D01*
X894Y149D01*
X894Y153D01*
X874Y153D01*
G37*
D02*
G36*
X974Y153D02*
X974Y151D01*
X972Y151D01*
X972Y147D01*
X970Y147D01*
X970Y145D01*
X968Y145D01*
X968Y141D01*
X966Y141D01*
X966Y139D01*
X964Y139D01*
X964Y137D01*
X962Y137D01*
X962Y135D01*
X960Y135D01*
X960Y133D01*
X956Y133D01*
X956Y131D01*
X954Y131D01*
X954Y129D01*
X948Y129D01*
X948Y127D01*
X942Y127D01*
X942Y125D01*
X1024Y125D01*
X1024Y127D01*
X1018Y127D01*
X1018Y129D01*
X1014Y129D01*
X1014Y131D01*
X1010Y131D01*
X1010Y133D01*
X1008Y133D01*
X1008Y135D01*
X1004Y135D01*
X1004Y137D01*
X1002Y137D01*
X1002Y141D01*
X1000Y141D01*
X1000Y143D01*
X998Y143D01*
X998Y145D01*
X996Y145D01*
X996Y149D01*
X994Y149D01*
X994Y153D01*
X974Y153D01*
G37*
D02*
G36*
X1074Y153D02*
X1074Y151D01*
X1072Y151D01*
X1072Y147D01*
X1070Y147D01*
X1070Y145D01*
X1068Y145D01*
X1068Y141D01*
X1066Y141D01*
X1066Y139D01*
X1064Y139D01*
X1064Y137D01*
X1062Y137D01*
X1062Y135D01*
X1060Y135D01*
X1060Y133D01*
X1056Y133D01*
X1056Y131D01*
X1054Y131D01*
X1054Y129D01*
X1048Y129D01*
X1048Y127D01*
X1042Y127D01*
X1042Y125D01*
X1124Y125D01*
X1124Y127D01*
X1118Y127D01*
X1118Y129D01*
X1114Y129D01*
X1114Y131D01*
X1110Y131D01*
X1110Y133D01*
X1108Y133D01*
X1108Y135D01*
X1104Y135D01*
X1104Y137D01*
X1102Y137D01*
X1102Y141D01*
X1100Y141D01*
X1100Y143D01*
X1098Y143D01*
X1098Y145D01*
X1096Y145D01*
X1096Y149D01*
X1094Y149D01*
X1094Y153D01*
X1074Y153D01*
G37*
D02*
G36*
X1174Y153D02*
X1174Y151D01*
X1172Y151D01*
X1172Y147D01*
X1170Y147D01*
X1170Y145D01*
X1168Y145D01*
X1168Y141D01*
X1166Y141D01*
X1166Y139D01*
X1164Y139D01*
X1164Y137D01*
X1162Y137D01*
X1162Y135D01*
X1160Y135D01*
X1160Y133D01*
X1156Y133D01*
X1156Y131D01*
X1154Y131D01*
X1154Y129D01*
X1148Y129D01*
X1148Y127D01*
X1142Y127D01*
X1142Y125D01*
X1224Y125D01*
X1224Y127D01*
X1218Y127D01*
X1218Y129D01*
X1214Y129D01*
X1214Y131D01*
X1210Y131D01*
X1210Y133D01*
X1208Y133D01*
X1208Y135D01*
X1204Y135D01*
X1204Y137D01*
X1202Y137D01*
X1202Y141D01*
X1200Y141D01*
X1200Y143D01*
X1198Y143D01*
X1198Y145D01*
X1196Y145D01*
X1196Y149D01*
X1194Y149D01*
X1194Y153D01*
X1174Y153D01*
G37*
D02*
G36*
X1974Y145D02*
X1974Y129D01*
X1972Y129D01*
X1972Y121D01*
X1970Y121D01*
X1970Y117D01*
X1968Y117D01*
X1968Y113D01*
X1966Y113D01*
X1966Y111D01*
X1964Y111D01*
X1964Y109D01*
X1962Y109D01*
X1962Y105D01*
X1960Y105D01*
X1960Y103D01*
X1958Y103D01*
X1958Y101D01*
X1954Y101D01*
X1954Y99D01*
X1952Y99D01*
X1952Y97D01*
X1950Y97D01*
X1950Y95D01*
X1946Y95D01*
X1946Y93D01*
X1942Y93D01*
X1942Y91D01*
X1934Y91D01*
X1934Y89D01*
X2036Y89D01*
X2036Y91D01*
X2034Y91D01*
X2034Y93D01*
X2032Y93D01*
X2032Y97D01*
X2030Y97D01*
X2030Y99D01*
X2028Y99D01*
X2028Y101D01*
X2026Y101D01*
X2026Y105D01*
X2024Y105D01*
X2024Y107D01*
X2022Y107D01*
X2022Y109D01*
X2020Y109D01*
X2020Y111D01*
X2018Y111D01*
X2018Y115D01*
X2016Y115D01*
X2016Y117D01*
X2014Y117D01*
X2014Y119D01*
X2012Y119D01*
X2012Y123D01*
X2010Y123D01*
X2010Y125D01*
X2008Y125D01*
X2008Y127D01*
X2006Y127D01*
X2006Y129D01*
X2004Y129D01*
X2004Y133D01*
X2002Y133D01*
X2002Y135D01*
X2000Y135D01*
X2000Y137D01*
X1998Y137D01*
X1998Y139D01*
X1996Y139D01*
X1996Y143D01*
X1994Y143D01*
X1994Y145D01*
X1974Y145D01*
G37*
D02*
G36*
X570Y125D02*
X570Y123D01*
X1772Y123D01*
X1772Y125D01*
X570Y125D01*
G37*
D02*
G36*
X570Y125D02*
X570Y123D01*
X1772Y123D01*
X1772Y125D01*
X570Y125D01*
G37*
D02*
G36*
X570Y125D02*
X570Y123D01*
X1772Y123D01*
X1772Y125D01*
X570Y125D01*
G37*
D02*
G36*
X570Y125D02*
X570Y123D01*
X1772Y123D01*
X1772Y125D01*
X570Y125D01*
G37*
D02*
G36*
X570Y125D02*
X570Y123D01*
X1772Y123D01*
X1772Y125D01*
X570Y125D01*
G37*
D02*
G36*
X570Y125D02*
X570Y123D01*
X1772Y123D01*
X1772Y125D01*
X570Y125D01*
G37*
D02*
G36*
X568Y123D02*
X568Y121D01*
X566Y121D01*
X566Y117D01*
X564Y117D01*
X564Y115D01*
X562Y115D01*
X562Y113D01*
X560Y113D01*
X560Y111D01*
X558Y111D01*
X558Y109D01*
X554Y109D01*
X554Y107D01*
X552Y107D01*
X552Y105D01*
X548Y105D01*
X548Y103D01*
X544Y103D01*
X544Y101D01*
X536Y101D01*
X536Y99D01*
X1774Y99D01*
X1774Y101D01*
X1772Y101D01*
X1772Y123D01*
X568Y123D01*
G37*
D02*
G36*
X466Y121D02*
X466Y117D01*
X464Y117D01*
X464Y115D01*
X462Y115D01*
X462Y113D01*
X460Y113D01*
X460Y111D01*
X458Y111D01*
X458Y109D01*
X454Y109D01*
X454Y107D01*
X452Y107D01*
X452Y105D01*
X448Y105D01*
X448Y103D01*
X444Y103D01*
X444Y101D01*
X436Y101D01*
X436Y99D01*
X518Y99D01*
X518Y101D01*
X510Y101D01*
X510Y103D01*
X506Y103D01*
X506Y105D01*
X502Y105D01*
X502Y107D01*
X498Y107D01*
X498Y109D01*
X496Y109D01*
X496Y111D01*
X494Y111D01*
X494Y113D01*
X492Y113D01*
X492Y115D01*
X490Y115D01*
X490Y117D01*
X488Y117D01*
X488Y119D01*
X486Y119D01*
X486Y121D01*
X466Y121D01*
G37*
D02*
G36*
X366Y119D02*
X366Y117D01*
X364Y117D01*
X364Y115D01*
X362Y115D01*
X362Y113D01*
X360Y113D01*
X360Y111D01*
X358Y111D01*
X358Y109D01*
X356Y109D01*
X356Y107D01*
X352Y107D01*
X352Y105D01*
X348Y105D01*
X348Y103D01*
X344Y103D01*
X344Y101D01*
X336Y101D01*
X336Y99D01*
X418Y99D01*
X418Y101D01*
X410Y101D01*
X410Y103D01*
X406Y103D01*
X406Y105D01*
X402Y105D01*
X402Y107D01*
X398Y107D01*
X398Y109D01*
X396Y109D01*
X396Y111D01*
X394Y111D01*
X394Y113D01*
X392Y113D01*
X392Y115D01*
X390Y115D01*
X390Y117D01*
X388Y117D01*
X388Y119D01*
X366Y119D01*
G37*
D02*
G36*
X40Y99D02*
X40Y97D01*
X1774Y97D01*
X1774Y99D01*
X40Y99D01*
G37*
D02*
G36*
X40Y99D02*
X40Y97D01*
X1774Y97D01*
X1774Y99D01*
X40Y99D01*
G37*
D02*
G36*
X40Y99D02*
X40Y97D01*
X1774Y97D01*
X1774Y99D01*
X40Y99D01*
G37*
D02*
G36*
X40Y99D02*
X40Y97D01*
X1774Y97D01*
X1774Y99D01*
X40Y99D01*
G37*
D02*
G36*
X1872Y99D02*
X1872Y97D01*
X1870Y97D01*
X1870Y95D01*
X1868Y95D01*
X1868Y93D01*
X1866Y93D01*
X1866Y91D01*
X1862Y91D01*
X1862Y89D01*
X1912Y89D01*
X1912Y91D01*
X1904Y91D01*
X1904Y93D01*
X1900Y93D01*
X1900Y95D01*
X1896Y95D01*
X1896Y97D01*
X1894Y97D01*
X1894Y99D01*
X1872Y99D01*
G37*
D02*
G36*
X40Y97D02*
X40Y89D01*
X1784Y89D01*
X1784Y91D01*
X1780Y91D01*
X1780Y93D01*
X1778Y93D01*
X1778Y95D01*
X1776Y95D01*
X1776Y97D01*
X40Y97D01*
G37*
D02*
G36*
X40Y89D02*
X40Y87D01*
X2038Y87D01*
X2038Y89D01*
X40Y89D01*
G37*
D02*
G36*
X40Y89D02*
X40Y87D01*
X2038Y87D01*
X2038Y89D01*
X40Y89D01*
G37*
D02*
G36*
X40Y89D02*
X40Y87D01*
X2038Y87D01*
X2038Y89D01*
X40Y89D01*
G37*
D02*
G36*
X40Y87D02*
X40Y41D01*
X2060Y41D01*
X2060Y61D01*
X2058Y61D01*
X2058Y63D01*
X2056Y63D01*
X2056Y65D01*
X2054Y65D01*
X2054Y69D01*
X2052Y69D01*
X2052Y71D01*
X2050Y71D01*
X2050Y73D01*
X2048Y73D01*
X2048Y77D01*
X2046Y77D01*
X2046Y79D01*
X2044Y79D01*
X2044Y81D01*
X2042Y81D01*
X2042Y83D01*
X2040Y83D01*
X2040Y87D01*
X40Y87D01*
G37*
D02*
G36*
X1490Y1535D02*
X1490Y1515D01*
X1498Y1515D01*
X1498Y1513D01*
X1502Y1513D01*
X1502Y1511D01*
X1508Y1511D01*
X1508Y1509D01*
X1510Y1509D01*
X1510Y1507D01*
X1514Y1507D01*
X1514Y1505D01*
X1516Y1505D01*
X1516Y1503D01*
X1520Y1503D01*
X1520Y1501D01*
X1522Y1501D01*
X1522Y1499D01*
X1524Y1499D01*
X1524Y1497D01*
X1526Y1497D01*
X1526Y1495D01*
X1528Y1495D01*
X1528Y1493D01*
X1530Y1493D01*
X1530Y1491D01*
X1532Y1491D01*
X1532Y1487D01*
X1534Y1487D01*
X1534Y1485D01*
X1536Y1485D01*
X1536Y1481D01*
X1538Y1481D01*
X1538Y1477D01*
X1540Y1477D01*
X1540Y1473D01*
X1542Y1473D01*
X1542Y1467D01*
X1544Y1467D01*
X1544Y1461D01*
X1546Y1461D01*
X1546Y1431D01*
X1544Y1431D01*
X1544Y1425D01*
X2010Y1425D01*
X2010Y1423D01*
X2034Y1423D01*
X2034Y1427D01*
X2036Y1427D01*
X2036Y1439D01*
X2038Y1439D01*
X2038Y1451D01*
X2040Y1451D01*
X2040Y1463D01*
X2042Y1463D01*
X2042Y1475D01*
X2044Y1475D01*
X2044Y1487D01*
X2046Y1487D01*
X2046Y1499D01*
X2048Y1499D01*
X2048Y1511D01*
X2050Y1511D01*
X2050Y1535D01*
X1490Y1535D01*
G37*
D02*
G36*
X3012Y1449D02*
X3012Y1445D01*
X3010Y1445D01*
X3010Y1443D01*
X3008Y1443D01*
X3008Y1441D01*
X3004Y1441D01*
X3004Y1439D01*
X3002Y1439D01*
X3002Y1437D01*
X3000Y1437D01*
X3000Y1435D01*
X2996Y1435D01*
X2996Y1433D01*
X2992Y1433D01*
X2992Y1431D01*
X2986Y1431D01*
X2986Y1429D01*
X2976Y1429D01*
X2976Y1423D01*
X2974Y1423D01*
X2974Y1417D01*
X2972Y1417D01*
X2972Y1411D01*
X2970Y1411D01*
X2970Y1407D01*
X2968Y1407D01*
X2968Y1401D01*
X2966Y1401D01*
X2966Y1395D01*
X2964Y1395D01*
X2964Y1391D01*
X2962Y1391D01*
X2962Y1385D01*
X2960Y1385D01*
X2960Y1379D01*
X2958Y1379D01*
X2958Y1373D01*
X2956Y1373D01*
X2956Y1369D01*
X2954Y1369D01*
X2954Y1363D01*
X2952Y1363D01*
X2952Y1357D01*
X2950Y1357D01*
X2950Y1353D01*
X2948Y1353D01*
X2948Y1347D01*
X2946Y1347D01*
X2946Y1341D01*
X2944Y1341D01*
X2944Y1337D01*
X2942Y1337D01*
X2942Y1331D01*
X2940Y1331D01*
X2940Y1325D01*
X2938Y1325D01*
X2938Y1323D01*
X2936Y1323D01*
X2936Y1321D01*
X2934Y1321D01*
X2934Y1319D01*
X2932Y1319D01*
X2932Y1317D01*
X2930Y1317D01*
X2930Y1315D01*
X2922Y1315D01*
X2922Y1313D01*
X3032Y1313D01*
X3032Y1315D01*
X3036Y1315D01*
X3036Y1317D01*
X3040Y1317D01*
X3040Y1333D01*
X3042Y1333D01*
X3042Y1363D01*
X3044Y1363D01*
X3044Y1393D01*
X3046Y1393D01*
X3046Y1437D01*
X3042Y1437D01*
X3042Y1439D01*
X3040Y1439D01*
X3040Y1441D01*
X3038Y1441D01*
X3038Y1443D01*
X3036Y1443D01*
X3036Y1445D01*
X3034Y1445D01*
X3034Y1447D01*
X3032Y1447D01*
X3032Y1449D01*
X3012Y1449D01*
G37*
D02*
G36*
X1544Y1425D02*
X1544Y1423D01*
X1542Y1423D01*
X1542Y1417D01*
X1540Y1417D01*
X1540Y1413D01*
X1538Y1413D01*
X1538Y1409D01*
X1536Y1409D01*
X1536Y1405D01*
X1534Y1405D01*
X1534Y1403D01*
X1532Y1403D01*
X1532Y1401D01*
X1530Y1401D01*
X1530Y1397D01*
X1528Y1397D01*
X1528Y1395D01*
X1526Y1395D01*
X1526Y1393D01*
X1524Y1393D01*
X1524Y1391D01*
X1522Y1391D01*
X1522Y1389D01*
X1518Y1389D01*
X1518Y1387D01*
X1516Y1387D01*
X1516Y1367D01*
X1568Y1367D01*
X1568Y1365D01*
X1998Y1365D01*
X1998Y1367D01*
X1992Y1367D01*
X1992Y1369D01*
X1988Y1369D01*
X1988Y1371D01*
X1986Y1371D01*
X1986Y1373D01*
X1984Y1373D01*
X1984Y1375D01*
X1982Y1375D01*
X1982Y1377D01*
X1980Y1377D01*
X1980Y1379D01*
X1978Y1379D01*
X1978Y1383D01*
X1976Y1383D01*
X1976Y1389D01*
X1974Y1389D01*
X1974Y1401D01*
X1976Y1401D01*
X1976Y1407D01*
X1978Y1407D01*
X1978Y1411D01*
X1980Y1411D01*
X1980Y1413D01*
X1982Y1413D01*
X1982Y1415D01*
X1984Y1415D01*
X1984Y1417D01*
X1986Y1417D01*
X1986Y1419D01*
X1988Y1419D01*
X1988Y1421D01*
X1992Y1421D01*
X1992Y1423D01*
X1998Y1423D01*
X1998Y1425D01*
X1544Y1425D01*
G37*
D02*
G36*
X2022Y1373D02*
X2022Y1371D01*
X2020Y1371D01*
X2020Y1369D01*
X2016Y1369D01*
X2016Y1367D01*
X2010Y1367D01*
X2010Y1365D01*
X2058Y1365D01*
X2058Y1367D01*
X2054Y1367D01*
X2054Y1369D01*
X2052Y1369D01*
X2052Y1371D01*
X2048Y1371D01*
X2048Y1373D01*
X2022Y1373D01*
G37*
D02*
G36*
X1574Y1365D02*
X1574Y1363D01*
X2062Y1363D01*
X2062Y1365D01*
X1574Y1365D01*
G37*
D02*
G36*
X1574Y1365D02*
X1574Y1363D01*
X2062Y1363D01*
X2062Y1365D01*
X1574Y1365D01*
G37*
D02*
G36*
X1578Y1363D02*
X1578Y1361D01*
X1580Y1361D01*
X1580Y1359D01*
X1582Y1359D01*
X1582Y1357D01*
X1584Y1357D01*
X1584Y1355D01*
X1586Y1355D01*
X1586Y1353D01*
X1588Y1353D01*
X1588Y1351D01*
X1590Y1351D01*
X1590Y1349D01*
X1592Y1349D01*
X1592Y1347D01*
X1594Y1347D01*
X1594Y1345D01*
X1596Y1345D01*
X1596Y1343D01*
X1598Y1343D01*
X1598Y1341D01*
X1600Y1341D01*
X1600Y1339D01*
X1602Y1339D01*
X1602Y1337D01*
X1604Y1337D01*
X1604Y1335D01*
X1606Y1335D01*
X1606Y1333D01*
X1608Y1333D01*
X1608Y1331D01*
X1610Y1331D01*
X1610Y1329D01*
X1612Y1329D01*
X1612Y1327D01*
X1614Y1327D01*
X1614Y1325D01*
X1616Y1325D01*
X1616Y1323D01*
X1618Y1323D01*
X1618Y1321D01*
X1620Y1321D01*
X1620Y1319D01*
X1622Y1319D01*
X1622Y1317D01*
X1624Y1317D01*
X1624Y1315D01*
X1626Y1315D01*
X1626Y1313D01*
X2870Y1313D01*
X2870Y1315D01*
X2488Y1315D01*
X2488Y1317D01*
X2144Y1317D01*
X2144Y1319D01*
X2138Y1319D01*
X2138Y1321D01*
X2134Y1321D01*
X2134Y1323D01*
X2130Y1323D01*
X2130Y1325D01*
X2128Y1325D01*
X2128Y1327D01*
X2124Y1327D01*
X2124Y1329D01*
X2120Y1329D01*
X2120Y1331D01*
X2116Y1331D01*
X2116Y1333D01*
X2114Y1333D01*
X2114Y1335D01*
X2110Y1335D01*
X2110Y1337D01*
X2106Y1337D01*
X2106Y1339D01*
X2104Y1339D01*
X2104Y1341D01*
X2100Y1341D01*
X2100Y1343D01*
X2096Y1343D01*
X2096Y1345D01*
X2092Y1345D01*
X2092Y1347D01*
X2090Y1347D01*
X2090Y1349D01*
X2086Y1349D01*
X2086Y1351D01*
X2082Y1351D01*
X2082Y1353D01*
X2078Y1353D01*
X2078Y1355D01*
X2076Y1355D01*
X2076Y1357D01*
X2072Y1357D01*
X2072Y1359D01*
X2068Y1359D01*
X2068Y1361D01*
X2066Y1361D01*
X2066Y1363D01*
X1578Y1363D01*
G37*
D02*
G36*
X1628Y1313D02*
X1628Y1311D01*
X3028Y1311D01*
X3028Y1313D01*
X1628Y1313D01*
G37*
D02*
G36*
X1628Y1313D02*
X1628Y1311D01*
X3028Y1311D01*
X3028Y1313D01*
X1628Y1313D01*
G37*
D02*
G36*
X1630Y1311D02*
X1630Y1309D01*
X1632Y1309D01*
X1632Y1307D01*
X1634Y1307D01*
X1634Y1305D01*
X1636Y1305D01*
X1636Y1303D01*
X1638Y1303D01*
X1638Y1301D01*
X1640Y1301D01*
X1640Y1299D01*
X1642Y1299D01*
X1642Y1297D01*
X1644Y1297D01*
X1644Y1295D01*
X1646Y1295D01*
X1646Y1293D01*
X1648Y1293D01*
X1648Y1291D01*
X1650Y1291D01*
X1650Y1289D01*
X1652Y1289D01*
X1652Y1287D01*
X1654Y1287D01*
X1654Y1285D01*
X1656Y1285D01*
X1656Y1283D01*
X1658Y1283D01*
X1658Y1279D01*
X1660Y1279D01*
X1660Y1165D01*
X2128Y1165D01*
X2128Y1163D01*
X2136Y1163D01*
X2136Y1161D01*
X2140Y1161D01*
X2140Y1159D01*
X2144Y1159D01*
X2144Y1157D01*
X2148Y1157D01*
X2148Y1155D01*
X2150Y1155D01*
X2150Y1153D01*
X2152Y1153D01*
X2152Y1151D01*
X2154Y1151D01*
X2154Y1149D01*
X2156Y1149D01*
X2156Y1147D01*
X2158Y1147D01*
X2158Y1145D01*
X2160Y1145D01*
X2160Y1143D01*
X2162Y1143D01*
X2162Y1139D01*
X2164Y1139D01*
X2164Y1135D01*
X2166Y1135D01*
X2166Y1131D01*
X2168Y1131D01*
X2168Y1125D01*
X2170Y1125D01*
X2170Y1099D01*
X2168Y1099D01*
X2168Y1093D01*
X2166Y1093D01*
X2166Y1089D01*
X2164Y1089D01*
X2164Y1085D01*
X2162Y1085D01*
X2162Y1081D01*
X2160Y1081D01*
X2160Y1079D01*
X2158Y1079D01*
X2158Y1077D01*
X2156Y1077D01*
X2156Y1075D01*
X2154Y1075D01*
X2154Y1073D01*
X2152Y1073D01*
X2152Y1071D01*
X2150Y1071D01*
X2150Y1069D01*
X2146Y1069D01*
X2146Y1067D01*
X2144Y1067D01*
X2144Y1065D01*
X2202Y1065D01*
X2202Y1063D01*
X2208Y1063D01*
X2208Y1061D01*
X2212Y1061D01*
X2212Y1059D01*
X2214Y1059D01*
X2214Y1057D01*
X2216Y1057D01*
X2216Y1055D01*
X2218Y1055D01*
X2218Y1053D01*
X2220Y1053D01*
X2220Y1051D01*
X2222Y1051D01*
X2222Y1047D01*
X2224Y1047D01*
X2224Y1041D01*
X2226Y1041D01*
X2226Y1037D01*
X2230Y1037D01*
X2230Y1035D01*
X2232Y1035D01*
X2232Y1033D01*
X2234Y1033D01*
X2234Y1031D01*
X2236Y1031D01*
X2236Y1029D01*
X2240Y1029D01*
X2240Y1027D01*
X2242Y1027D01*
X2242Y1025D01*
X2244Y1025D01*
X2244Y1023D01*
X2246Y1023D01*
X2246Y1021D01*
X2248Y1021D01*
X2248Y1019D01*
X2252Y1019D01*
X2252Y1017D01*
X2254Y1017D01*
X2254Y1015D01*
X2256Y1015D01*
X2256Y1013D01*
X2258Y1013D01*
X2258Y1011D01*
X2260Y1011D01*
X2260Y1009D01*
X2264Y1009D01*
X2264Y1007D01*
X2266Y1007D01*
X2266Y1005D01*
X2268Y1005D01*
X2268Y1003D01*
X2270Y1003D01*
X2270Y1001D01*
X2272Y1001D01*
X2272Y999D01*
X2274Y999D01*
X2274Y997D01*
X2276Y997D01*
X2276Y993D01*
X2278Y993D01*
X2278Y951D01*
X2276Y951D01*
X2276Y899D01*
X2274Y899D01*
X2274Y871D01*
X2272Y871D01*
X2272Y867D01*
X2270Y867D01*
X2270Y865D01*
X2268Y865D01*
X2268Y861D01*
X2264Y861D01*
X2264Y859D01*
X2262Y859D01*
X2262Y857D01*
X2888Y857D01*
X2888Y1145D01*
X2890Y1145D01*
X2890Y1233D01*
X2892Y1233D01*
X2892Y1237D01*
X2894Y1237D01*
X2894Y1239D01*
X2896Y1239D01*
X2896Y1241D01*
X2898Y1241D01*
X2898Y1243D01*
X2900Y1243D01*
X2900Y1245D01*
X2904Y1245D01*
X2904Y1247D01*
X2908Y1247D01*
X2908Y1249D01*
X2910Y1249D01*
X2910Y1251D01*
X2914Y1251D01*
X2914Y1253D01*
X2918Y1253D01*
X2918Y1255D01*
X2922Y1255D01*
X2922Y1257D01*
X2926Y1257D01*
X2926Y1259D01*
X2930Y1259D01*
X2930Y1261D01*
X2934Y1261D01*
X2934Y1263D01*
X2938Y1263D01*
X2938Y1265D01*
X2942Y1265D01*
X2942Y1267D01*
X2946Y1267D01*
X2946Y1269D01*
X2948Y1269D01*
X2948Y1271D01*
X2952Y1271D01*
X2952Y1273D01*
X2956Y1273D01*
X2956Y1275D01*
X2960Y1275D01*
X2960Y1277D01*
X2964Y1277D01*
X2964Y1279D01*
X2968Y1279D01*
X2968Y1281D01*
X2972Y1281D01*
X2972Y1283D01*
X2976Y1283D01*
X2976Y1285D01*
X2980Y1285D01*
X2980Y1287D01*
X2984Y1287D01*
X2984Y1289D01*
X2986Y1289D01*
X2986Y1291D01*
X2990Y1291D01*
X2990Y1293D01*
X2994Y1293D01*
X2994Y1295D01*
X2998Y1295D01*
X2998Y1297D01*
X3002Y1297D01*
X3002Y1299D01*
X3006Y1299D01*
X3006Y1301D01*
X3010Y1301D01*
X3010Y1303D01*
X3014Y1303D01*
X3014Y1305D01*
X3018Y1305D01*
X3018Y1307D01*
X3022Y1307D01*
X3022Y1309D01*
X3024Y1309D01*
X3024Y1311D01*
X1630Y1311D01*
G37*
D02*
G36*
X1660Y1165D02*
X1660Y1059D01*
X2108Y1059D01*
X2108Y1061D01*
X2100Y1061D01*
X2100Y1063D01*
X2096Y1063D01*
X2096Y1065D01*
X2092Y1065D01*
X2092Y1067D01*
X2088Y1067D01*
X2088Y1069D01*
X2086Y1069D01*
X2086Y1071D01*
X2084Y1071D01*
X2084Y1073D01*
X2082Y1073D01*
X2082Y1075D01*
X2080Y1075D01*
X2080Y1077D01*
X2078Y1077D01*
X2078Y1079D01*
X2076Y1079D01*
X2076Y1081D01*
X2074Y1081D01*
X2074Y1085D01*
X2072Y1085D01*
X2072Y1087D01*
X2070Y1087D01*
X2070Y1091D01*
X2068Y1091D01*
X2068Y1097D01*
X2066Y1097D01*
X2066Y1107D01*
X2064Y1107D01*
X2064Y1117D01*
X2066Y1117D01*
X2066Y1127D01*
X2068Y1127D01*
X2068Y1133D01*
X2070Y1133D01*
X2070Y1137D01*
X2072Y1137D01*
X2072Y1141D01*
X2074Y1141D01*
X2074Y1143D01*
X2076Y1143D01*
X2076Y1145D01*
X2078Y1145D01*
X2078Y1149D01*
X2080Y1149D01*
X2080Y1151D01*
X2084Y1151D01*
X2084Y1153D01*
X2086Y1153D01*
X2086Y1155D01*
X2088Y1155D01*
X2088Y1157D01*
X2092Y1157D01*
X2092Y1159D01*
X2096Y1159D01*
X2096Y1161D01*
X2100Y1161D01*
X2100Y1163D01*
X2108Y1163D01*
X2108Y1165D01*
X1660Y1165D01*
G37*
D02*
G36*
X2140Y1065D02*
X2140Y1063D01*
X2134Y1063D01*
X2134Y1061D01*
X2126Y1061D01*
X2126Y1059D01*
X2180Y1059D01*
X2180Y1061D01*
X2184Y1061D01*
X2184Y1063D01*
X2190Y1063D01*
X2190Y1065D01*
X2140Y1065D01*
G37*
D02*
G36*
X1660Y1059D02*
X1660Y1057D01*
X2178Y1057D01*
X2178Y1059D01*
X1660Y1059D01*
G37*
D02*
G36*
X1660Y1059D02*
X1660Y1057D01*
X2178Y1057D01*
X2178Y1059D01*
X1660Y1059D01*
G37*
D02*
G36*
X1660Y1057D02*
X1660Y1041D01*
X1746Y1041D01*
X1746Y1039D01*
X1752Y1039D01*
X1752Y1037D01*
X1756Y1037D01*
X1756Y1035D01*
X1758Y1035D01*
X1758Y1033D01*
X1760Y1033D01*
X1760Y1031D01*
X1762Y1031D01*
X1762Y1029D01*
X1764Y1029D01*
X1764Y1027D01*
X2128Y1027D01*
X2128Y1025D01*
X2136Y1025D01*
X2136Y1023D01*
X2140Y1023D01*
X2140Y1021D01*
X2144Y1021D01*
X2144Y1019D01*
X2148Y1019D01*
X2148Y1017D01*
X2150Y1017D01*
X2150Y1015D01*
X2152Y1015D01*
X2152Y1013D01*
X2154Y1013D01*
X2154Y1011D01*
X2156Y1011D01*
X2156Y1009D01*
X2158Y1009D01*
X2158Y1007D01*
X2160Y1007D01*
X2160Y1005D01*
X2162Y1005D01*
X2162Y1001D01*
X2164Y1001D01*
X2164Y997D01*
X2166Y997D01*
X2166Y993D01*
X2168Y993D01*
X2168Y987D01*
X2170Y987D01*
X2170Y961D01*
X2168Y961D01*
X2168Y955D01*
X2166Y955D01*
X2166Y951D01*
X2164Y951D01*
X2164Y947D01*
X2162Y947D01*
X2162Y945D01*
X2160Y945D01*
X2160Y941D01*
X2158Y941D01*
X2158Y939D01*
X2156Y939D01*
X2156Y937D01*
X2154Y937D01*
X2154Y935D01*
X2152Y935D01*
X2152Y933D01*
X2150Y933D01*
X2150Y931D01*
X2146Y931D01*
X2146Y929D01*
X2142Y929D01*
X2142Y927D01*
X2140Y927D01*
X2140Y925D01*
X2134Y925D01*
X2134Y923D01*
X2126Y923D01*
X2126Y921D01*
X2232Y921D01*
X2232Y951D01*
X2234Y951D01*
X2234Y975D01*
X2232Y975D01*
X2232Y977D01*
X2230Y977D01*
X2230Y979D01*
X2228Y979D01*
X2228Y981D01*
X2226Y981D01*
X2226Y983D01*
X2224Y983D01*
X2224Y985D01*
X2220Y985D01*
X2220Y987D01*
X2218Y987D01*
X2218Y989D01*
X2216Y989D01*
X2216Y991D01*
X2214Y991D01*
X2214Y993D01*
X2212Y993D01*
X2212Y995D01*
X2208Y995D01*
X2208Y997D01*
X2206Y997D01*
X2206Y999D01*
X2204Y999D01*
X2204Y1001D01*
X2202Y1001D01*
X2202Y1003D01*
X2198Y1003D01*
X2198Y1005D01*
X2190Y1005D01*
X2190Y1007D01*
X2184Y1007D01*
X2184Y1009D01*
X2180Y1009D01*
X2180Y1011D01*
X2178Y1011D01*
X2178Y1013D01*
X2176Y1013D01*
X2176Y1015D01*
X2174Y1015D01*
X2174Y1017D01*
X2172Y1017D01*
X2172Y1019D01*
X2170Y1019D01*
X2170Y1023D01*
X2168Y1023D01*
X2168Y1029D01*
X2166Y1029D01*
X2166Y1041D01*
X2168Y1041D01*
X2168Y1047D01*
X2170Y1047D01*
X2170Y1051D01*
X2172Y1051D01*
X2172Y1053D01*
X2174Y1053D01*
X2174Y1055D01*
X2176Y1055D01*
X2176Y1057D01*
X1660Y1057D01*
G37*
D02*
G36*
X1660Y1041D02*
X1660Y965D01*
X1662Y965D01*
X1662Y963D01*
X1664Y963D01*
X1664Y959D01*
X1666Y959D01*
X1666Y957D01*
X1668Y957D01*
X1668Y955D01*
X1670Y955D01*
X1670Y951D01*
X1672Y951D01*
X1672Y949D01*
X1674Y949D01*
X1674Y947D01*
X1676Y947D01*
X1676Y943D01*
X1678Y943D01*
X1678Y941D01*
X1680Y941D01*
X1680Y939D01*
X1682Y939D01*
X1682Y935D01*
X1684Y935D01*
X1684Y933D01*
X1686Y933D01*
X1686Y929D01*
X1688Y929D01*
X1688Y927D01*
X1690Y927D01*
X1690Y925D01*
X1692Y925D01*
X1692Y921D01*
X1694Y921D01*
X1694Y919D01*
X1696Y919D01*
X1696Y917D01*
X1698Y917D01*
X1698Y913D01*
X1700Y913D01*
X1700Y911D01*
X1702Y911D01*
X1702Y909D01*
X1704Y909D01*
X1704Y905D01*
X1706Y905D01*
X1706Y903D01*
X1708Y903D01*
X1708Y901D01*
X1710Y901D01*
X1710Y897D01*
X1712Y897D01*
X1712Y895D01*
X1714Y895D01*
X1714Y893D01*
X1716Y893D01*
X1716Y889D01*
X1718Y889D01*
X1718Y887D01*
X1720Y887D01*
X1720Y885D01*
X1722Y885D01*
X1722Y881D01*
X1724Y881D01*
X1724Y879D01*
X1726Y879D01*
X1726Y877D01*
X1728Y877D01*
X1728Y873D01*
X1730Y873D01*
X1730Y871D01*
X1732Y871D01*
X1732Y867D01*
X1734Y867D01*
X1734Y865D01*
X1736Y865D01*
X1736Y863D01*
X1738Y863D01*
X1738Y859D01*
X1740Y859D01*
X1740Y857D01*
X2064Y857D01*
X2064Y859D01*
X2060Y859D01*
X2060Y861D01*
X2054Y861D01*
X2054Y863D01*
X2050Y863D01*
X2050Y865D01*
X2044Y865D01*
X2044Y867D01*
X2040Y867D01*
X2040Y869D01*
X2034Y869D01*
X2034Y871D01*
X2030Y871D01*
X2030Y873D01*
X2024Y873D01*
X2024Y875D01*
X2020Y875D01*
X2020Y877D01*
X2014Y877D01*
X2014Y879D01*
X2010Y879D01*
X2010Y881D01*
X2004Y881D01*
X2004Y883D01*
X2000Y883D01*
X2000Y885D01*
X1994Y885D01*
X1994Y887D01*
X1990Y887D01*
X1990Y889D01*
X1984Y889D01*
X1984Y891D01*
X1980Y891D01*
X1980Y893D01*
X1974Y893D01*
X1974Y895D01*
X1970Y895D01*
X1970Y897D01*
X1964Y897D01*
X1964Y899D01*
X1960Y899D01*
X1960Y901D01*
X1954Y901D01*
X1954Y903D01*
X1950Y903D01*
X1950Y905D01*
X1944Y905D01*
X1944Y907D01*
X1938Y907D01*
X1938Y909D01*
X1934Y909D01*
X1934Y911D01*
X1928Y911D01*
X1928Y913D01*
X1924Y913D01*
X1924Y915D01*
X1918Y915D01*
X1918Y917D01*
X1914Y917D01*
X1914Y919D01*
X1908Y919D01*
X1908Y921D01*
X1904Y921D01*
X1904Y923D01*
X1898Y923D01*
X1898Y925D01*
X1894Y925D01*
X1894Y927D01*
X1888Y927D01*
X1888Y929D01*
X1884Y929D01*
X1884Y931D01*
X1878Y931D01*
X1878Y933D01*
X1874Y933D01*
X1874Y935D01*
X1868Y935D01*
X1868Y937D01*
X1864Y937D01*
X1864Y939D01*
X1858Y939D01*
X1858Y941D01*
X1854Y941D01*
X1854Y943D01*
X1848Y943D01*
X1848Y945D01*
X1844Y945D01*
X1844Y947D01*
X1838Y947D01*
X1838Y949D01*
X1834Y949D01*
X1834Y951D01*
X1828Y951D01*
X1828Y953D01*
X1824Y953D01*
X1824Y955D01*
X1818Y955D01*
X1818Y957D01*
X1814Y957D01*
X1814Y959D01*
X1808Y959D01*
X1808Y961D01*
X1804Y961D01*
X1804Y963D01*
X1798Y963D01*
X1798Y965D01*
X1794Y965D01*
X1794Y967D01*
X1788Y967D01*
X1788Y969D01*
X1784Y969D01*
X1784Y971D01*
X1778Y971D01*
X1778Y973D01*
X1774Y973D01*
X1774Y975D01*
X1768Y975D01*
X1768Y977D01*
X1764Y977D01*
X1764Y979D01*
X1758Y979D01*
X1758Y981D01*
X1734Y981D01*
X1734Y983D01*
X1728Y983D01*
X1728Y985D01*
X1724Y985D01*
X1724Y987D01*
X1722Y987D01*
X1722Y989D01*
X1720Y989D01*
X1720Y991D01*
X1718Y991D01*
X1718Y993D01*
X1716Y993D01*
X1716Y995D01*
X1714Y995D01*
X1714Y999D01*
X1712Y999D01*
X1712Y1005D01*
X1710Y1005D01*
X1710Y1017D01*
X1712Y1017D01*
X1712Y1023D01*
X1714Y1023D01*
X1714Y1027D01*
X1716Y1027D01*
X1716Y1029D01*
X1718Y1029D01*
X1718Y1031D01*
X1720Y1031D01*
X1720Y1033D01*
X1722Y1033D01*
X1722Y1035D01*
X1724Y1035D01*
X1724Y1037D01*
X1728Y1037D01*
X1728Y1039D01*
X1734Y1039D01*
X1734Y1041D01*
X1660Y1041D01*
G37*
D02*
G36*
X1766Y1027D02*
X1766Y1023D01*
X1772Y1023D01*
X1772Y1021D01*
X1776Y1021D01*
X1776Y1019D01*
X1782Y1019D01*
X1782Y1017D01*
X1786Y1017D01*
X1786Y1015D01*
X1792Y1015D01*
X1792Y1013D01*
X1796Y1013D01*
X1796Y1011D01*
X1802Y1011D01*
X1802Y1009D01*
X1806Y1009D01*
X1806Y1007D01*
X1812Y1007D01*
X1812Y1005D01*
X1818Y1005D01*
X1818Y1003D01*
X1822Y1003D01*
X1822Y1001D01*
X1828Y1001D01*
X1828Y999D01*
X1832Y999D01*
X1832Y997D01*
X1838Y997D01*
X1838Y995D01*
X1842Y995D01*
X1842Y993D01*
X1848Y993D01*
X1848Y991D01*
X1852Y991D01*
X1852Y989D01*
X1858Y989D01*
X1858Y987D01*
X1862Y987D01*
X1862Y985D01*
X1868Y985D01*
X1868Y983D01*
X1872Y983D01*
X1872Y981D01*
X1878Y981D01*
X1878Y979D01*
X1882Y979D01*
X1882Y977D01*
X1888Y977D01*
X1888Y975D01*
X1892Y975D01*
X1892Y973D01*
X1898Y973D01*
X1898Y971D01*
X1902Y971D01*
X1902Y969D01*
X1908Y969D01*
X1908Y967D01*
X1912Y967D01*
X1912Y965D01*
X1918Y965D01*
X1918Y963D01*
X1922Y963D01*
X1922Y961D01*
X1928Y961D01*
X1928Y959D01*
X1932Y959D01*
X1932Y957D01*
X1938Y957D01*
X1938Y955D01*
X1942Y955D01*
X1942Y953D01*
X1948Y953D01*
X1948Y951D01*
X1952Y951D01*
X1952Y949D01*
X1958Y949D01*
X1958Y947D01*
X1962Y947D01*
X1962Y945D01*
X1968Y945D01*
X1968Y943D01*
X1972Y943D01*
X1972Y941D01*
X1978Y941D01*
X1978Y939D01*
X1982Y939D01*
X1982Y937D01*
X1988Y937D01*
X1988Y935D01*
X1992Y935D01*
X1992Y933D01*
X1998Y933D01*
X1998Y931D01*
X2002Y931D01*
X2002Y929D01*
X2008Y929D01*
X2008Y927D01*
X2012Y927D01*
X2012Y925D01*
X2018Y925D01*
X2018Y923D01*
X2022Y923D01*
X2022Y921D01*
X2110Y921D01*
X2110Y923D01*
X2102Y923D01*
X2102Y925D01*
X2096Y925D01*
X2096Y927D01*
X2092Y927D01*
X2092Y929D01*
X2088Y929D01*
X2088Y931D01*
X2086Y931D01*
X2086Y933D01*
X2084Y933D01*
X2084Y935D01*
X2082Y935D01*
X2082Y937D01*
X2080Y937D01*
X2080Y939D01*
X2078Y939D01*
X2078Y941D01*
X2076Y941D01*
X2076Y943D01*
X2074Y943D01*
X2074Y947D01*
X2072Y947D01*
X2072Y949D01*
X2070Y949D01*
X2070Y953D01*
X2068Y953D01*
X2068Y959D01*
X2066Y959D01*
X2066Y969D01*
X2064Y969D01*
X2064Y979D01*
X2066Y979D01*
X2066Y989D01*
X2068Y989D01*
X2068Y995D01*
X2070Y995D01*
X2070Y999D01*
X2072Y999D01*
X2072Y1003D01*
X2074Y1003D01*
X2074Y1005D01*
X2076Y1005D01*
X2076Y1007D01*
X2078Y1007D01*
X2078Y1011D01*
X2080Y1011D01*
X2080Y1013D01*
X2082Y1013D01*
X2082Y1015D01*
X2086Y1015D01*
X2086Y1017D01*
X2088Y1017D01*
X2088Y1019D01*
X2092Y1019D01*
X2092Y1021D01*
X2096Y1021D01*
X2096Y1023D01*
X2100Y1023D01*
X2100Y1025D01*
X2106Y1025D01*
X2106Y1027D01*
X1766Y1027D01*
G37*
D02*
G36*
X2028Y921D02*
X2028Y919D01*
X2232Y919D01*
X2232Y921D01*
X2028Y921D01*
G37*
D02*
G36*
X2028Y921D02*
X2028Y919D01*
X2232Y919D01*
X2232Y921D01*
X2028Y921D01*
G37*
D02*
G36*
X2032Y919D02*
X2032Y917D01*
X2038Y917D01*
X2038Y915D01*
X2042Y915D01*
X2042Y913D01*
X2048Y913D01*
X2048Y911D01*
X2052Y911D01*
X2052Y909D01*
X2058Y909D01*
X2058Y907D01*
X2062Y907D01*
X2062Y905D01*
X2068Y905D01*
X2068Y903D01*
X2072Y903D01*
X2072Y901D01*
X2232Y901D01*
X2232Y919D01*
X2032Y919D01*
G37*
D02*
G36*
X1742Y857D02*
X1742Y855D01*
X2888Y855D01*
X2888Y857D01*
X1742Y857D01*
G37*
D02*
G36*
X1742Y857D02*
X1742Y855D01*
X2888Y855D01*
X2888Y857D01*
X1742Y857D01*
G37*
D02*
G36*
X1744Y855D02*
X1744Y851D01*
X1746Y851D01*
X1746Y849D01*
X1748Y849D01*
X1748Y847D01*
X1750Y847D01*
X1750Y843D01*
X1752Y843D01*
X1752Y841D01*
X1754Y841D01*
X1754Y839D01*
X1756Y839D01*
X1756Y835D01*
X1758Y835D01*
X1758Y833D01*
X1760Y833D01*
X1760Y831D01*
X1762Y831D01*
X1762Y827D01*
X1764Y827D01*
X1764Y825D01*
X1766Y825D01*
X1766Y823D01*
X1768Y823D01*
X1768Y819D01*
X1770Y819D01*
X1770Y817D01*
X1772Y817D01*
X1772Y815D01*
X1774Y815D01*
X1774Y811D01*
X1776Y811D01*
X1776Y809D01*
X1778Y809D01*
X1778Y805D01*
X1780Y805D01*
X1780Y803D01*
X1782Y803D01*
X1782Y801D01*
X1784Y801D01*
X1784Y797D01*
X1786Y797D01*
X1786Y795D01*
X1788Y795D01*
X1788Y793D01*
X1790Y793D01*
X1790Y789D01*
X1792Y789D01*
X1792Y787D01*
X1794Y787D01*
X1794Y785D01*
X1796Y785D01*
X1796Y781D01*
X1798Y781D01*
X1798Y779D01*
X1800Y779D01*
X1800Y777D01*
X1802Y777D01*
X1802Y773D01*
X1804Y773D01*
X1804Y771D01*
X1806Y771D01*
X1806Y769D01*
X1808Y769D01*
X1808Y765D01*
X1810Y765D01*
X1810Y763D01*
X1812Y763D01*
X1812Y761D01*
X1814Y761D01*
X1814Y757D01*
X1816Y757D01*
X1816Y755D01*
X1818Y755D01*
X1818Y753D01*
X1820Y753D01*
X1820Y749D01*
X1822Y749D01*
X1822Y747D01*
X1824Y747D01*
X1824Y743D01*
X1826Y743D01*
X1826Y741D01*
X1828Y741D01*
X1828Y739D01*
X1830Y739D01*
X1830Y735D01*
X1832Y735D01*
X1832Y733D01*
X1834Y733D01*
X1834Y731D01*
X1836Y731D01*
X1836Y727D01*
X1838Y727D01*
X1838Y725D01*
X1840Y725D01*
X1840Y723D01*
X1842Y723D01*
X1842Y719D01*
X2152Y719D01*
X2152Y717D01*
X2166Y717D01*
X2166Y715D01*
X2174Y715D01*
X2174Y713D01*
X2178Y713D01*
X2178Y711D01*
X2182Y711D01*
X2182Y709D01*
X2186Y709D01*
X2186Y707D01*
X2190Y707D01*
X2190Y705D01*
X2192Y705D01*
X2192Y703D01*
X2194Y703D01*
X2194Y701D01*
X2198Y701D01*
X2198Y699D01*
X2200Y699D01*
X2200Y697D01*
X2202Y697D01*
X2202Y695D01*
X2204Y695D01*
X2204Y693D01*
X2206Y693D01*
X2206Y689D01*
X2208Y689D01*
X2208Y687D01*
X2210Y687D01*
X2210Y683D01*
X2212Y683D01*
X2212Y681D01*
X2214Y681D01*
X2214Y677D01*
X2216Y677D01*
X2216Y673D01*
X2218Y673D01*
X2218Y667D01*
X2220Y667D01*
X2220Y657D01*
X2222Y657D01*
X2222Y633D01*
X2220Y633D01*
X2220Y623D01*
X2218Y623D01*
X2218Y619D01*
X2216Y619D01*
X2216Y613D01*
X2214Y613D01*
X2214Y609D01*
X2212Y609D01*
X2212Y607D01*
X2210Y607D01*
X2210Y603D01*
X2208Y603D01*
X2208Y601D01*
X2206Y601D01*
X2206Y599D01*
X2204Y599D01*
X2204Y595D01*
X2202Y595D01*
X2202Y593D01*
X2200Y593D01*
X2200Y591D01*
X2196Y591D01*
X2196Y589D01*
X2194Y589D01*
X2194Y587D01*
X2192Y587D01*
X2192Y585D01*
X2188Y585D01*
X2188Y583D01*
X2186Y583D01*
X2186Y581D01*
X2182Y581D01*
X2182Y579D01*
X2178Y579D01*
X2178Y577D01*
X2172Y577D01*
X2172Y575D01*
X2164Y575D01*
X2164Y573D01*
X2886Y573D01*
X2886Y839D01*
X2888Y839D01*
X2888Y855D01*
X1744Y855D01*
G37*
D02*
G36*
X1844Y719D02*
X1844Y717D01*
X1846Y717D01*
X1846Y715D01*
X1848Y715D01*
X1848Y711D01*
X1850Y711D01*
X1850Y709D01*
X1852Y709D01*
X1852Y707D01*
X1854Y707D01*
X1854Y703D01*
X1856Y703D01*
X1856Y701D01*
X1858Y701D01*
X1858Y699D01*
X1860Y699D01*
X1860Y695D01*
X1862Y695D01*
X1862Y693D01*
X1864Y693D01*
X1864Y691D01*
X1866Y691D01*
X1866Y687D01*
X1868Y687D01*
X1868Y685D01*
X1870Y685D01*
X1870Y681D01*
X1872Y681D01*
X1872Y679D01*
X1874Y679D01*
X1874Y677D01*
X1876Y677D01*
X1876Y673D01*
X1878Y673D01*
X1878Y671D01*
X1880Y671D01*
X1880Y669D01*
X1882Y669D01*
X1882Y665D01*
X1884Y665D01*
X1884Y663D01*
X1886Y663D01*
X1886Y661D01*
X1888Y661D01*
X1888Y657D01*
X1890Y657D01*
X1890Y655D01*
X1892Y655D01*
X1892Y653D01*
X1894Y653D01*
X1894Y649D01*
X1896Y649D01*
X1896Y647D01*
X1898Y647D01*
X1898Y645D01*
X1900Y645D01*
X1900Y641D01*
X1902Y641D01*
X1902Y639D01*
X1904Y639D01*
X1904Y637D01*
X1906Y637D01*
X1906Y633D01*
X1908Y633D01*
X1908Y631D01*
X1910Y631D01*
X1910Y629D01*
X1912Y629D01*
X1912Y625D01*
X1914Y625D01*
X1914Y623D01*
X1916Y623D01*
X1916Y619D01*
X1918Y619D01*
X1918Y617D01*
X1920Y617D01*
X1920Y615D01*
X1922Y615D01*
X1922Y611D01*
X1924Y611D01*
X1924Y609D01*
X1926Y609D01*
X1926Y607D01*
X1928Y607D01*
X1928Y603D01*
X1930Y603D01*
X1930Y601D01*
X1932Y601D01*
X1932Y599D01*
X1934Y599D01*
X1934Y595D01*
X1936Y595D01*
X1936Y593D01*
X1938Y593D01*
X1938Y591D01*
X1940Y591D01*
X1940Y587D01*
X1942Y587D01*
X1942Y585D01*
X1944Y585D01*
X1944Y583D01*
X1946Y583D01*
X1946Y579D01*
X1948Y579D01*
X1948Y577D01*
X1950Y577D01*
X1950Y575D01*
X1952Y575D01*
X1952Y573D01*
X2134Y573D01*
X2134Y575D01*
X2126Y575D01*
X2126Y577D01*
X2120Y577D01*
X2120Y579D01*
X2116Y579D01*
X2116Y581D01*
X2112Y581D01*
X2112Y583D01*
X2110Y583D01*
X2110Y585D01*
X2106Y585D01*
X2106Y587D01*
X2104Y587D01*
X2104Y589D01*
X2102Y589D01*
X2102Y591D01*
X2100Y591D01*
X2100Y593D01*
X2098Y593D01*
X2098Y595D01*
X2096Y595D01*
X2096Y597D01*
X2094Y597D01*
X2094Y599D01*
X2092Y599D01*
X2092Y601D01*
X2090Y601D01*
X2090Y605D01*
X2088Y605D01*
X2088Y607D01*
X2086Y607D01*
X2086Y611D01*
X2084Y611D01*
X2084Y615D01*
X2082Y615D01*
X2082Y619D01*
X2080Y619D01*
X2080Y625D01*
X2078Y625D01*
X2078Y635D01*
X2076Y635D01*
X2076Y655D01*
X2078Y655D01*
X2078Y665D01*
X2080Y665D01*
X2080Y671D01*
X2082Y671D01*
X2082Y675D01*
X2084Y675D01*
X2084Y679D01*
X2086Y679D01*
X2086Y683D01*
X2088Y683D01*
X2088Y687D01*
X2090Y687D01*
X2090Y689D01*
X2092Y689D01*
X2092Y691D01*
X2094Y691D01*
X2094Y693D01*
X2096Y693D01*
X2096Y697D01*
X2098Y697D01*
X2098Y699D01*
X2102Y699D01*
X2102Y701D01*
X2104Y701D01*
X2104Y703D01*
X2106Y703D01*
X2106Y705D01*
X2110Y705D01*
X2110Y707D01*
X2112Y707D01*
X2112Y709D01*
X2116Y709D01*
X2116Y711D01*
X2120Y711D01*
X2120Y713D01*
X2126Y713D01*
X2126Y715D01*
X2132Y715D01*
X2132Y717D01*
X2146Y717D01*
X2146Y719D01*
X1844Y719D01*
G37*
D02*
G36*
X1952Y573D02*
X1952Y571D01*
X2886Y571D01*
X2886Y573D01*
X1952Y573D01*
G37*
D02*
G36*
X1952Y573D02*
X1952Y571D01*
X2886Y571D01*
X2886Y573D01*
X1952Y573D01*
G37*
D02*
G36*
X1954Y571D02*
X1954Y569D01*
X1956Y569D01*
X1956Y567D01*
X1958Y567D01*
X1958Y563D01*
X1960Y563D01*
X1960Y561D01*
X1962Y561D01*
X1962Y557D01*
X1964Y557D01*
X1964Y555D01*
X1966Y555D01*
X1966Y553D01*
X1968Y553D01*
X1968Y549D01*
X1970Y549D01*
X1970Y547D01*
X1972Y547D01*
X1972Y545D01*
X1974Y545D01*
X1974Y541D01*
X1976Y541D01*
X1976Y539D01*
X1978Y539D01*
X1978Y537D01*
X1980Y537D01*
X1980Y533D01*
X1982Y533D01*
X1982Y531D01*
X1984Y531D01*
X1984Y529D01*
X1986Y529D01*
X1986Y525D01*
X1988Y525D01*
X1988Y523D01*
X1990Y523D01*
X1990Y521D01*
X1992Y521D01*
X1992Y517D01*
X1994Y517D01*
X1994Y515D01*
X1996Y515D01*
X1996Y513D01*
X1998Y513D01*
X1998Y509D01*
X2000Y509D01*
X2000Y507D01*
X2002Y507D01*
X2002Y505D01*
X2004Y505D01*
X2004Y501D01*
X2006Y501D01*
X2006Y499D01*
X2008Y499D01*
X2008Y495D01*
X2010Y495D01*
X2010Y493D01*
X2012Y493D01*
X2012Y491D01*
X2014Y491D01*
X2014Y487D01*
X2016Y487D01*
X2016Y485D01*
X2018Y485D01*
X2018Y483D01*
X2020Y483D01*
X2020Y479D01*
X2022Y479D01*
X2022Y477D01*
X2024Y477D01*
X2024Y475D01*
X2026Y475D01*
X2026Y471D01*
X2028Y471D01*
X2028Y469D01*
X2030Y469D01*
X2030Y467D01*
X2032Y467D01*
X2032Y463D01*
X2034Y463D01*
X2034Y461D01*
X2036Y461D01*
X2036Y459D01*
X2038Y459D01*
X2038Y455D01*
X2040Y455D01*
X2040Y453D01*
X2042Y453D01*
X2042Y451D01*
X2044Y451D01*
X2044Y447D01*
X2046Y447D01*
X2046Y445D01*
X2048Y445D01*
X2048Y443D01*
X2050Y443D01*
X2050Y439D01*
X2052Y439D01*
X2052Y437D01*
X2054Y437D01*
X2054Y433D01*
X2056Y433D01*
X2056Y431D01*
X2058Y431D01*
X2058Y429D01*
X2060Y429D01*
X2060Y425D01*
X2062Y425D01*
X2062Y423D01*
X2064Y423D01*
X2064Y421D01*
X2066Y421D01*
X2066Y417D01*
X2068Y417D01*
X2068Y415D01*
X2070Y415D01*
X2070Y413D01*
X2072Y413D01*
X2072Y409D01*
X2074Y409D01*
X2074Y407D01*
X2076Y407D01*
X2076Y405D01*
X2078Y405D01*
X2078Y401D01*
X2080Y401D01*
X2080Y399D01*
X2082Y399D01*
X2082Y397D01*
X2084Y397D01*
X2084Y393D01*
X2086Y393D01*
X2086Y391D01*
X2088Y391D01*
X2088Y389D01*
X2090Y389D01*
X2090Y385D01*
X2092Y385D01*
X2092Y383D01*
X2094Y383D01*
X2094Y381D01*
X2096Y381D01*
X2096Y377D01*
X2098Y377D01*
X2098Y375D01*
X2100Y375D01*
X2100Y371D01*
X2102Y371D01*
X2102Y369D01*
X2104Y369D01*
X2104Y367D01*
X2106Y367D01*
X2106Y363D01*
X2108Y363D01*
X2108Y361D01*
X2110Y361D01*
X2110Y359D01*
X2112Y359D01*
X2112Y355D01*
X2114Y355D01*
X2114Y353D01*
X2116Y353D01*
X2116Y351D01*
X2118Y351D01*
X2118Y347D01*
X2120Y347D01*
X2120Y345D01*
X2122Y345D01*
X2122Y343D01*
X2124Y343D01*
X2124Y339D01*
X2126Y339D01*
X2126Y337D01*
X2128Y337D01*
X2128Y335D01*
X2130Y335D01*
X2130Y331D01*
X2132Y331D01*
X2132Y329D01*
X2134Y329D01*
X2134Y327D01*
X2136Y327D01*
X2136Y323D01*
X2138Y323D01*
X2138Y321D01*
X2140Y321D01*
X2140Y319D01*
X2142Y319D01*
X2142Y315D01*
X2144Y315D01*
X2144Y313D01*
X2146Y313D01*
X2146Y309D01*
X2148Y309D01*
X2148Y307D01*
X2150Y307D01*
X2150Y305D01*
X2152Y305D01*
X2152Y301D01*
X2154Y301D01*
X2154Y299D01*
X2156Y299D01*
X2156Y297D01*
X2158Y297D01*
X2158Y293D01*
X2160Y293D01*
X2160Y291D01*
X2162Y291D01*
X2162Y289D01*
X2164Y289D01*
X2164Y285D01*
X2166Y285D01*
X2166Y283D01*
X2168Y283D01*
X2168Y281D01*
X2170Y281D01*
X2170Y277D01*
X2172Y277D01*
X2172Y275D01*
X2174Y275D01*
X2174Y273D01*
X2176Y273D01*
X2176Y269D01*
X2178Y269D01*
X2178Y267D01*
X2462Y267D01*
X2462Y265D01*
X2466Y265D01*
X2466Y263D01*
X2468Y263D01*
X2468Y261D01*
X2470Y261D01*
X2470Y259D01*
X2472Y259D01*
X2472Y257D01*
X2474Y257D01*
X2474Y251D01*
X2476Y251D01*
X2476Y191D01*
X2568Y191D01*
X2568Y189D01*
X2574Y189D01*
X2574Y187D01*
X2578Y187D01*
X2578Y185D01*
X2582Y185D01*
X2582Y183D01*
X2584Y183D01*
X2584Y181D01*
X2588Y181D01*
X2588Y179D01*
X2590Y179D01*
X2590Y177D01*
X2592Y177D01*
X2592Y175D01*
X2594Y175D01*
X2594Y173D01*
X2616Y173D01*
X2616Y175D01*
X2618Y175D01*
X2618Y177D01*
X2620Y177D01*
X2620Y179D01*
X2622Y179D01*
X2622Y181D01*
X2624Y181D01*
X2624Y183D01*
X2628Y183D01*
X2628Y185D01*
X2632Y185D01*
X2632Y187D01*
X2634Y187D01*
X2634Y189D01*
X2642Y189D01*
X2642Y191D01*
X2684Y191D01*
X2684Y193D01*
X2688Y193D01*
X2688Y195D01*
X2690Y195D01*
X2690Y197D01*
X2692Y197D01*
X2692Y199D01*
X2696Y199D01*
X2696Y201D01*
X2698Y201D01*
X2698Y203D01*
X2700Y203D01*
X2700Y205D01*
X2702Y205D01*
X2702Y207D01*
X2706Y207D01*
X2706Y209D01*
X2708Y209D01*
X2708Y211D01*
X2710Y211D01*
X2710Y213D01*
X2714Y213D01*
X2714Y215D01*
X2716Y215D01*
X2716Y217D01*
X2718Y217D01*
X2718Y219D01*
X2720Y219D01*
X2720Y221D01*
X2724Y221D01*
X2724Y223D01*
X2726Y223D01*
X2726Y225D01*
X2728Y225D01*
X2728Y227D01*
X2730Y227D01*
X2730Y229D01*
X2734Y229D01*
X2734Y231D01*
X2736Y231D01*
X2736Y233D01*
X2738Y233D01*
X2738Y235D01*
X2742Y235D01*
X2742Y237D01*
X2744Y237D01*
X2744Y239D01*
X2746Y239D01*
X2746Y241D01*
X2748Y241D01*
X2748Y243D01*
X2752Y243D01*
X2752Y245D01*
X2754Y245D01*
X2754Y247D01*
X2756Y247D01*
X2756Y249D01*
X2758Y249D01*
X2758Y251D01*
X2762Y251D01*
X2762Y253D01*
X2764Y253D01*
X2764Y255D01*
X2766Y255D01*
X2766Y257D01*
X2770Y257D01*
X2770Y259D01*
X2772Y259D01*
X2772Y261D01*
X2774Y261D01*
X2774Y263D01*
X2776Y263D01*
X2776Y265D01*
X2780Y265D01*
X2780Y267D01*
X2782Y267D01*
X2782Y269D01*
X2784Y269D01*
X2784Y271D01*
X2788Y271D01*
X2788Y273D01*
X2790Y273D01*
X2790Y275D01*
X2792Y275D01*
X2792Y277D01*
X2794Y277D01*
X2794Y279D01*
X2798Y279D01*
X2798Y281D01*
X2800Y281D01*
X2800Y283D01*
X2802Y283D01*
X2802Y285D01*
X2804Y285D01*
X2804Y287D01*
X2808Y287D01*
X2808Y289D01*
X2810Y289D01*
X2810Y291D01*
X2812Y291D01*
X2812Y293D01*
X2816Y293D01*
X2816Y295D01*
X2818Y295D01*
X2818Y297D01*
X2820Y297D01*
X2820Y299D01*
X2822Y299D01*
X2822Y301D01*
X2826Y301D01*
X2826Y303D01*
X2828Y303D01*
X2828Y305D01*
X2830Y305D01*
X2830Y307D01*
X2832Y307D01*
X2832Y309D01*
X2836Y309D01*
X2836Y311D01*
X2838Y311D01*
X2838Y313D01*
X2840Y313D01*
X2840Y315D01*
X2844Y315D01*
X2844Y317D01*
X2846Y317D01*
X2846Y319D01*
X2848Y319D01*
X2848Y321D01*
X2850Y321D01*
X2850Y323D01*
X2854Y323D01*
X2854Y325D01*
X2856Y325D01*
X2856Y327D01*
X2858Y327D01*
X2858Y329D01*
X2860Y329D01*
X2860Y331D01*
X2864Y331D01*
X2864Y333D01*
X2866Y333D01*
X2866Y335D01*
X2868Y335D01*
X2868Y337D01*
X2872Y337D01*
X2872Y339D01*
X2874Y339D01*
X2874Y341D01*
X2876Y341D01*
X2876Y343D01*
X2878Y343D01*
X2878Y345D01*
X2882Y345D01*
X2882Y347D01*
X2884Y347D01*
X2884Y531D01*
X2886Y531D01*
X2886Y571D01*
X1954Y571D01*
G37*
D02*
G36*
X2180Y267D02*
X2180Y265D01*
X2324Y265D01*
X2324Y267D01*
X2180Y267D01*
G37*
D02*
G36*
X2494Y191D02*
X2494Y189D01*
X2498Y189D01*
X2498Y187D01*
X2500Y187D01*
X2500Y185D01*
X2502Y185D01*
X2502Y183D01*
X2504Y183D01*
X2504Y181D01*
X2524Y181D01*
X2524Y183D01*
X2528Y183D01*
X2528Y185D01*
X2532Y185D01*
X2532Y187D01*
X2534Y187D01*
X2534Y189D01*
X2542Y189D01*
X2542Y191D01*
X2494Y191D01*
G37*
D02*
G36*
X2202Y1515D02*
X2202Y1495D01*
X2204Y1495D01*
X2204Y1493D01*
X2206Y1493D01*
X2206Y1489D01*
X2208Y1489D01*
X2208Y1487D01*
X2210Y1487D01*
X2210Y1483D01*
X2212Y1483D01*
X2212Y1481D01*
X2214Y1481D01*
X2214Y1477D01*
X2216Y1477D01*
X2216Y1473D01*
X2218Y1473D01*
X2218Y1467D01*
X2220Y1467D01*
X2220Y1457D01*
X2222Y1457D01*
X2222Y1433D01*
X2220Y1433D01*
X2220Y1423D01*
X2218Y1423D01*
X2218Y1419D01*
X2216Y1419D01*
X2216Y1413D01*
X2214Y1413D01*
X2214Y1409D01*
X2212Y1409D01*
X2212Y1407D01*
X2210Y1407D01*
X2210Y1403D01*
X2208Y1403D01*
X2208Y1401D01*
X2206Y1401D01*
X2206Y1399D01*
X2204Y1399D01*
X2204Y1395D01*
X2202Y1395D01*
X2202Y1393D01*
X2200Y1393D01*
X2200Y1391D01*
X2196Y1391D01*
X2196Y1389D01*
X2194Y1389D01*
X2194Y1387D01*
X2192Y1387D01*
X2192Y1385D01*
X2188Y1385D01*
X2188Y1383D01*
X2186Y1383D01*
X2186Y1381D01*
X2182Y1381D01*
X2182Y1361D01*
X2314Y1361D01*
X2314Y1383D01*
X2312Y1383D01*
X2312Y1389D01*
X2310Y1389D01*
X2310Y1401D01*
X2312Y1401D01*
X2312Y1407D01*
X2314Y1407D01*
X2314Y1411D01*
X2316Y1411D01*
X2316Y1413D01*
X2318Y1413D01*
X2318Y1415D01*
X2320Y1415D01*
X2320Y1417D01*
X2322Y1417D01*
X2322Y1419D01*
X2324Y1419D01*
X2324Y1421D01*
X2328Y1421D01*
X2328Y1423D01*
X2334Y1423D01*
X2334Y1425D01*
X2336Y1425D01*
X2336Y1445D01*
X2334Y1445D01*
X2334Y1447D01*
X2332Y1447D01*
X2332Y1449D01*
X2330Y1449D01*
X2330Y1453D01*
X2328Y1453D01*
X2328Y1457D01*
X2326Y1457D01*
X2326Y1461D01*
X2324Y1461D01*
X2324Y1467D01*
X2322Y1467D01*
X2322Y1491D01*
X2320Y1491D01*
X2320Y1493D01*
X2316Y1493D01*
X2316Y1495D01*
X2314Y1495D01*
X2314Y1497D01*
X2312Y1497D01*
X2312Y1499D01*
X2308Y1499D01*
X2308Y1501D01*
X2306Y1501D01*
X2306Y1503D01*
X2304Y1503D01*
X2304Y1505D01*
X2300Y1505D01*
X2300Y1507D01*
X2298Y1507D01*
X2298Y1509D01*
X2296Y1509D01*
X2296Y1511D01*
X2292Y1511D01*
X2292Y1513D01*
X2290Y1513D01*
X2290Y1515D01*
X2202Y1515D01*
G37*
D02*
G36*
X1460Y1483D02*
X1460Y1481D01*
X1456Y1481D01*
X1456Y1479D01*
X1452Y1479D01*
X1452Y1477D01*
X1450Y1477D01*
X1450Y1475D01*
X1448Y1475D01*
X1448Y1473D01*
X1446Y1473D01*
X1446Y1471D01*
X1444Y1471D01*
X1444Y1469D01*
X1442Y1469D01*
X1442Y1467D01*
X1440Y1467D01*
X1440Y1463D01*
X1438Y1463D01*
X1438Y1459D01*
X1436Y1459D01*
X1436Y1431D01*
X1438Y1431D01*
X1438Y1427D01*
X1440Y1427D01*
X1440Y1423D01*
X1442Y1423D01*
X1442Y1421D01*
X1444Y1421D01*
X1444Y1419D01*
X1446Y1419D01*
X1446Y1417D01*
X1448Y1417D01*
X1448Y1415D01*
X1450Y1415D01*
X1450Y1413D01*
X1454Y1413D01*
X1454Y1411D01*
X1456Y1411D01*
X1456Y1409D01*
X1462Y1409D01*
X1462Y1407D01*
X1484Y1407D01*
X1484Y1409D01*
X1490Y1409D01*
X1490Y1411D01*
X1494Y1411D01*
X1494Y1413D01*
X1496Y1413D01*
X1496Y1415D01*
X1500Y1415D01*
X1500Y1417D01*
X1502Y1417D01*
X1502Y1419D01*
X1504Y1419D01*
X1504Y1423D01*
X1506Y1423D01*
X1506Y1425D01*
X1508Y1425D01*
X1508Y1429D01*
X1510Y1429D01*
X1510Y1435D01*
X1512Y1435D01*
X1512Y1457D01*
X1510Y1457D01*
X1510Y1461D01*
X1508Y1461D01*
X1508Y1465D01*
X1506Y1465D01*
X1506Y1469D01*
X1504Y1469D01*
X1504Y1471D01*
X1502Y1471D01*
X1502Y1473D01*
X1500Y1473D01*
X1500Y1475D01*
X1498Y1475D01*
X1498Y1477D01*
X1496Y1477D01*
X1496Y1479D01*
X1492Y1479D01*
X1492Y1481D01*
X1486Y1481D01*
X1486Y1483D01*
X1460Y1483D01*
G37*
D02*
G36*
X2136Y1483D02*
X2136Y1481D01*
X2132Y1481D01*
X2132Y1479D01*
X2128Y1479D01*
X2128Y1477D01*
X2126Y1477D01*
X2126Y1475D01*
X2122Y1475D01*
X2122Y1473D01*
X2120Y1473D01*
X2120Y1469D01*
X2118Y1469D01*
X2118Y1467D01*
X2116Y1467D01*
X2116Y1465D01*
X2114Y1465D01*
X2114Y1461D01*
X2112Y1461D01*
X2112Y1431D01*
X2114Y1431D01*
X2114Y1427D01*
X2116Y1427D01*
X2116Y1423D01*
X2118Y1423D01*
X2118Y1421D01*
X2120Y1421D01*
X2120Y1419D01*
X2122Y1419D01*
X2122Y1417D01*
X2124Y1417D01*
X2124Y1415D01*
X2126Y1415D01*
X2126Y1413D01*
X2130Y1413D01*
X2130Y1411D01*
X2132Y1411D01*
X2132Y1409D01*
X2138Y1409D01*
X2138Y1407D01*
X2160Y1407D01*
X2160Y1409D01*
X2166Y1409D01*
X2166Y1411D01*
X2170Y1411D01*
X2170Y1413D01*
X2172Y1413D01*
X2172Y1415D01*
X2174Y1415D01*
X2174Y1417D01*
X2176Y1417D01*
X2176Y1419D01*
X2178Y1419D01*
X2178Y1421D01*
X2180Y1421D01*
X2180Y1423D01*
X2182Y1423D01*
X2182Y1425D01*
X2184Y1425D01*
X2184Y1429D01*
X2186Y1429D01*
X2186Y1435D01*
X2188Y1435D01*
X2188Y1455D01*
X2186Y1455D01*
X2186Y1461D01*
X2184Y1461D01*
X2184Y1465D01*
X2182Y1465D01*
X2182Y1469D01*
X2180Y1469D01*
X2180Y1471D01*
X2178Y1471D01*
X2178Y1473D01*
X2176Y1473D01*
X2176Y1475D01*
X2174Y1475D01*
X2174Y1477D01*
X2170Y1477D01*
X2170Y1479D01*
X2166Y1479D01*
X2166Y1481D01*
X2162Y1481D01*
X2162Y1483D01*
X2136Y1483D01*
G37*
D02*
G36*
X2412Y1449D02*
X2412Y1445D01*
X2410Y1445D01*
X2410Y1443D01*
X2408Y1443D01*
X2408Y1441D01*
X2404Y1441D01*
X2404Y1439D01*
X2402Y1439D01*
X2402Y1437D01*
X2400Y1437D01*
X2400Y1435D01*
X2396Y1435D01*
X2396Y1433D01*
X2392Y1433D01*
X2392Y1431D01*
X2386Y1431D01*
X2386Y1429D01*
X2460Y1429D01*
X2460Y1431D01*
X2454Y1431D01*
X2454Y1433D01*
X2450Y1433D01*
X2450Y1435D01*
X2446Y1435D01*
X2446Y1437D01*
X2442Y1437D01*
X2442Y1439D01*
X2440Y1439D01*
X2440Y1441D01*
X2438Y1441D01*
X2438Y1443D01*
X2436Y1443D01*
X2436Y1445D01*
X2434Y1445D01*
X2434Y1447D01*
X2432Y1447D01*
X2432Y1449D01*
X2412Y1449D01*
G37*
D02*
G36*
X2512Y1449D02*
X2512Y1445D01*
X2510Y1445D01*
X2510Y1443D01*
X2508Y1443D01*
X2508Y1441D01*
X2504Y1441D01*
X2504Y1439D01*
X2502Y1439D01*
X2502Y1437D01*
X2500Y1437D01*
X2500Y1435D01*
X2496Y1435D01*
X2496Y1433D01*
X2492Y1433D01*
X2492Y1431D01*
X2486Y1431D01*
X2486Y1429D01*
X2560Y1429D01*
X2560Y1431D01*
X2554Y1431D01*
X2554Y1433D01*
X2550Y1433D01*
X2550Y1435D01*
X2546Y1435D01*
X2546Y1437D01*
X2542Y1437D01*
X2542Y1439D01*
X2540Y1439D01*
X2540Y1441D01*
X2538Y1441D01*
X2538Y1443D01*
X2536Y1443D01*
X2536Y1445D01*
X2534Y1445D01*
X2534Y1447D01*
X2532Y1447D01*
X2532Y1449D01*
X2512Y1449D01*
G37*
D02*
G36*
X2612Y1449D02*
X2612Y1445D01*
X2610Y1445D01*
X2610Y1443D01*
X2608Y1443D01*
X2608Y1441D01*
X2604Y1441D01*
X2604Y1439D01*
X2602Y1439D01*
X2602Y1437D01*
X2600Y1437D01*
X2600Y1435D01*
X2596Y1435D01*
X2596Y1433D01*
X2592Y1433D01*
X2592Y1431D01*
X2586Y1431D01*
X2586Y1429D01*
X2660Y1429D01*
X2660Y1431D01*
X2654Y1431D01*
X2654Y1433D01*
X2650Y1433D01*
X2650Y1435D01*
X2646Y1435D01*
X2646Y1437D01*
X2642Y1437D01*
X2642Y1439D01*
X2640Y1439D01*
X2640Y1441D01*
X2638Y1441D01*
X2638Y1443D01*
X2636Y1443D01*
X2636Y1445D01*
X2634Y1445D01*
X2634Y1447D01*
X2632Y1447D01*
X2632Y1449D01*
X2612Y1449D01*
G37*
D02*
G36*
X2712Y1449D02*
X2712Y1445D01*
X2710Y1445D01*
X2710Y1443D01*
X2708Y1443D01*
X2708Y1441D01*
X2704Y1441D01*
X2704Y1439D01*
X2702Y1439D01*
X2702Y1437D01*
X2700Y1437D01*
X2700Y1435D01*
X2696Y1435D01*
X2696Y1433D01*
X2692Y1433D01*
X2692Y1431D01*
X2686Y1431D01*
X2686Y1429D01*
X2760Y1429D01*
X2760Y1431D01*
X2754Y1431D01*
X2754Y1433D01*
X2750Y1433D01*
X2750Y1435D01*
X2746Y1435D01*
X2746Y1437D01*
X2742Y1437D01*
X2742Y1439D01*
X2740Y1439D01*
X2740Y1441D01*
X2738Y1441D01*
X2738Y1443D01*
X2736Y1443D01*
X2736Y1445D01*
X2734Y1445D01*
X2734Y1447D01*
X2732Y1447D01*
X2732Y1449D01*
X2712Y1449D01*
G37*
D02*
G36*
X2812Y1449D02*
X2812Y1445D01*
X2810Y1445D01*
X2810Y1443D01*
X2808Y1443D01*
X2808Y1441D01*
X2804Y1441D01*
X2804Y1439D01*
X2802Y1439D01*
X2802Y1437D01*
X2800Y1437D01*
X2800Y1435D01*
X2796Y1435D01*
X2796Y1433D01*
X2792Y1433D01*
X2792Y1431D01*
X2786Y1431D01*
X2786Y1429D01*
X2860Y1429D01*
X2860Y1431D01*
X2854Y1431D01*
X2854Y1433D01*
X2850Y1433D01*
X2850Y1435D01*
X2846Y1435D01*
X2846Y1437D01*
X2842Y1437D01*
X2842Y1439D01*
X2840Y1439D01*
X2840Y1441D01*
X2838Y1441D01*
X2838Y1443D01*
X2836Y1443D01*
X2836Y1445D01*
X2834Y1445D01*
X2834Y1447D01*
X2832Y1447D01*
X2832Y1449D01*
X2812Y1449D01*
G37*
D02*
G36*
X2910Y1445D02*
X2910Y1443D01*
X2908Y1443D01*
X2908Y1441D01*
X2904Y1441D01*
X2904Y1439D01*
X2902Y1439D01*
X2902Y1437D01*
X2900Y1437D01*
X2900Y1435D01*
X2896Y1435D01*
X2896Y1433D01*
X2892Y1433D01*
X2892Y1431D01*
X2886Y1431D01*
X2886Y1429D01*
X2930Y1429D01*
X2930Y1445D01*
X2910Y1445D01*
G37*
D02*
G36*
X2366Y1429D02*
X2366Y1427D01*
X2930Y1427D01*
X2930Y1429D01*
X2366Y1429D01*
G37*
D02*
G36*
X2366Y1429D02*
X2366Y1427D01*
X2930Y1427D01*
X2930Y1429D01*
X2366Y1429D01*
G37*
D02*
G36*
X2366Y1429D02*
X2366Y1427D01*
X2930Y1427D01*
X2930Y1429D01*
X2366Y1429D01*
G37*
D02*
G36*
X2366Y1429D02*
X2366Y1427D01*
X2930Y1427D01*
X2930Y1429D01*
X2366Y1429D01*
G37*
D02*
G36*
X2366Y1429D02*
X2366Y1427D01*
X2930Y1427D01*
X2930Y1429D01*
X2366Y1429D01*
G37*
D02*
G36*
X2366Y1429D02*
X2366Y1427D01*
X2930Y1427D01*
X2930Y1429D01*
X2366Y1429D01*
G37*
D02*
G36*
X2366Y1427D02*
X2366Y1407D01*
X2368Y1407D01*
X2368Y1401D01*
X2370Y1401D01*
X2370Y1389D01*
X2368Y1389D01*
X2368Y1383D01*
X2366Y1383D01*
X2366Y1361D01*
X2490Y1361D01*
X2490Y1359D01*
X2874Y1359D01*
X2874Y1357D01*
X2904Y1357D01*
X2904Y1361D01*
X2906Y1361D01*
X2906Y1365D01*
X2908Y1365D01*
X2908Y1371D01*
X2910Y1371D01*
X2910Y1377D01*
X2912Y1377D01*
X2912Y1381D01*
X2914Y1381D01*
X2914Y1387D01*
X2916Y1387D01*
X2916Y1393D01*
X2918Y1393D01*
X2918Y1399D01*
X2920Y1399D01*
X2920Y1403D01*
X2922Y1403D01*
X2922Y1409D01*
X2924Y1409D01*
X2924Y1415D01*
X2926Y1415D01*
X2926Y1419D01*
X2928Y1419D01*
X2928Y1425D01*
X2930Y1425D01*
X2930Y1427D01*
X2366Y1427D01*
G37*
D02*
G36*
X1528Y1323D02*
X1528Y1245D01*
X1526Y1245D01*
X1526Y1243D01*
X1524Y1243D01*
X1524Y1239D01*
X1520Y1239D01*
X1520Y1237D01*
X1516Y1237D01*
X1516Y1235D01*
X1510Y1235D01*
X1510Y1215D01*
X1512Y1215D01*
X1512Y1213D01*
X1516Y1213D01*
X1516Y1211D01*
X1518Y1211D01*
X1518Y1207D01*
X1520Y1207D01*
X1520Y1205D01*
X1522Y1205D01*
X1522Y1201D01*
X1524Y1201D01*
X1524Y1197D01*
X1526Y1197D01*
X1526Y1191D01*
X1528Y1191D01*
X1528Y1169D01*
X1526Y1169D01*
X1526Y1163D01*
X1524Y1163D01*
X1524Y1159D01*
X1522Y1159D01*
X1522Y1155D01*
X1520Y1155D01*
X1520Y1153D01*
X1518Y1153D01*
X1518Y1151D01*
X1516Y1151D01*
X1516Y1149D01*
X1514Y1149D01*
X1514Y1147D01*
X1512Y1147D01*
X1512Y1145D01*
X1510Y1145D01*
X1510Y1143D01*
X1508Y1143D01*
X1508Y1141D01*
X1504Y1141D01*
X1504Y1119D01*
X1508Y1119D01*
X1508Y1117D01*
X1510Y1117D01*
X1510Y1115D01*
X1512Y1115D01*
X1512Y1113D01*
X1516Y1113D01*
X1516Y1111D01*
X1518Y1111D01*
X1518Y1107D01*
X1520Y1107D01*
X1520Y1105D01*
X1522Y1105D01*
X1522Y1101D01*
X1524Y1101D01*
X1524Y1097D01*
X1526Y1097D01*
X1526Y1091D01*
X1528Y1091D01*
X1528Y1069D01*
X1526Y1069D01*
X1526Y1063D01*
X1524Y1063D01*
X1524Y1059D01*
X1522Y1059D01*
X1522Y1055D01*
X1520Y1055D01*
X1520Y1053D01*
X1518Y1053D01*
X1518Y1051D01*
X1516Y1051D01*
X1516Y1049D01*
X1514Y1049D01*
X1514Y1047D01*
X1512Y1047D01*
X1512Y1045D01*
X1510Y1045D01*
X1510Y1043D01*
X1508Y1043D01*
X1508Y1041D01*
X1504Y1041D01*
X1504Y1019D01*
X1508Y1019D01*
X1508Y1017D01*
X1510Y1017D01*
X1510Y1015D01*
X1512Y1015D01*
X1512Y1013D01*
X1516Y1013D01*
X1516Y1011D01*
X1518Y1011D01*
X1518Y1007D01*
X1520Y1007D01*
X1520Y1005D01*
X1522Y1005D01*
X1522Y1001D01*
X1524Y1001D01*
X1524Y997D01*
X1526Y997D01*
X1526Y991D01*
X1528Y991D01*
X1528Y957D01*
X1530Y957D01*
X1530Y955D01*
X1532Y955D01*
X1532Y953D01*
X1534Y953D01*
X1534Y951D01*
X1536Y951D01*
X1536Y947D01*
X1538Y947D01*
X1538Y945D01*
X1540Y945D01*
X1540Y943D01*
X1542Y943D01*
X1542Y939D01*
X1544Y939D01*
X1544Y937D01*
X1546Y937D01*
X1546Y935D01*
X1548Y935D01*
X1548Y933D01*
X1550Y933D01*
X1550Y929D01*
X1552Y929D01*
X1552Y927D01*
X1554Y927D01*
X1554Y925D01*
X1556Y925D01*
X1556Y923D01*
X1558Y923D01*
X1558Y919D01*
X1560Y919D01*
X1560Y917D01*
X1562Y917D01*
X1562Y915D01*
X1564Y915D01*
X1564Y911D01*
X1566Y911D01*
X1566Y909D01*
X1568Y909D01*
X1568Y907D01*
X1570Y907D01*
X1570Y905D01*
X1572Y905D01*
X1572Y901D01*
X1574Y901D01*
X1574Y899D01*
X1576Y899D01*
X1576Y897D01*
X1578Y897D01*
X1578Y893D01*
X1580Y893D01*
X1580Y891D01*
X1582Y891D01*
X1582Y889D01*
X1584Y889D01*
X1584Y887D01*
X1586Y887D01*
X1586Y883D01*
X1588Y883D01*
X1588Y881D01*
X1590Y881D01*
X1590Y879D01*
X1592Y879D01*
X1592Y877D01*
X1594Y877D01*
X1594Y873D01*
X1596Y873D01*
X1596Y871D01*
X1598Y871D01*
X1598Y869D01*
X1600Y869D01*
X1600Y865D01*
X1602Y865D01*
X1602Y863D01*
X1604Y863D01*
X1604Y861D01*
X1606Y861D01*
X1606Y859D01*
X1608Y859D01*
X1608Y855D01*
X1610Y855D01*
X1610Y853D01*
X1612Y853D01*
X1612Y851D01*
X1614Y851D01*
X1614Y847D01*
X1616Y847D01*
X1616Y845D01*
X1618Y845D01*
X1618Y843D01*
X1620Y843D01*
X1620Y841D01*
X1622Y841D01*
X1622Y837D01*
X1624Y837D01*
X1624Y835D01*
X1626Y835D01*
X1626Y833D01*
X1628Y833D01*
X1628Y829D01*
X1630Y829D01*
X1630Y827D01*
X1632Y827D01*
X1632Y825D01*
X1634Y825D01*
X1634Y823D01*
X1636Y823D01*
X1636Y819D01*
X1638Y819D01*
X1638Y817D01*
X1640Y817D01*
X1640Y815D01*
X1642Y815D01*
X1642Y813D01*
X1644Y813D01*
X1644Y809D01*
X1646Y809D01*
X1646Y807D01*
X1648Y807D01*
X1648Y805D01*
X1650Y805D01*
X1650Y801D01*
X1652Y801D01*
X1652Y799D01*
X1654Y799D01*
X1654Y797D01*
X1656Y797D01*
X1656Y795D01*
X1658Y795D01*
X1658Y791D01*
X1660Y791D01*
X1660Y789D01*
X1662Y789D01*
X1662Y787D01*
X1664Y787D01*
X1664Y783D01*
X1666Y783D01*
X1666Y781D01*
X1668Y781D01*
X1668Y779D01*
X1670Y779D01*
X1670Y777D01*
X1672Y777D01*
X1672Y773D01*
X1674Y773D01*
X1674Y771D01*
X1676Y771D01*
X1676Y769D01*
X1678Y769D01*
X1678Y767D01*
X1680Y767D01*
X1680Y763D01*
X1682Y763D01*
X1682Y761D01*
X1684Y761D01*
X1684Y759D01*
X1686Y759D01*
X1686Y755D01*
X1688Y755D01*
X1688Y753D01*
X1690Y753D01*
X1690Y751D01*
X1692Y751D01*
X1692Y749D01*
X1694Y749D01*
X1694Y745D01*
X1696Y745D01*
X1696Y743D01*
X1698Y743D01*
X1698Y741D01*
X1700Y741D01*
X1700Y737D01*
X1702Y737D01*
X1702Y735D01*
X1704Y735D01*
X1704Y733D01*
X1706Y733D01*
X1706Y731D01*
X1708Y731D01*
X1708Y727D01*
X1710Y727D01*
X1710Y725D01*
X1712Y725D01*
X1712Y723D01*
X1714Y723D01*
X1714Y721D01*
X1716Y721D01*
X1716Y717D01*
X1718Y717D01*
X1718Y715D01*
X1720Y715D01*
X1720Y713D01*
X1722Y713D01*
X1722Y709D01*
X1724Y709D01*
X1724Y707D01*
X1726Y707D01*
X1726Y705D01*
X1728Y705D01*
X1728Y703D01*
X1730Y703D01*
X1730Y699D01*
X1732Y699D01*
X1732Y697D01*
X1734Y697D01*
X1734Y695D01*
X1736Y695D01*
X1736Y691D01*
X1738Y691D01*
X1738Y689D01*
X1740Y689D01*
X1740Y687D01*
X1742Y687D01*
X1742Y685D01*
X1744Y685D01*
X1744Y681D01*
X1746Y681D01*
X1746Y679D01*
X1748Y679D01*
X1748Y677D01*
X1750Y677D01*
X1750Y673D01*
X1752Y673D01*
X1752Y671D01*
X1754Y671D01*
X1754Y669D01*
X1756Y669D01*
X1756Y667D01*
X1758Y667D01*
X1758Y663D01*
X1760Y663D01*
X1760Y661D01*
X1762Y661D01*
X1762Y659D01*
X1764Y659D01*
X1764Y657D01*
X1766Y657D01*
X1766Y653D01*
X1768Y653D01*
X1768Y651D01*
X1770Y651D01*
X1770Y649D01*
X1772Y649D01*
X1772Y645D01*
X1774Y645D01*
X1774Y643D01*
X1776Y643D01*
X1776Y641D01*
X1778Y641D01*
X1778Y639D01*
X1780Y639D01*
X1780Y635D01*
X1782Y635D01*
X1782Y633D01*
X1784Y633D01*
X1784Y631D01*
X1786Y631D01*
X1786Y627D01*
X1788Y627D01*
X1788Y625D01*
X1790Y625D01*
X1790Y623D01*
X1792Y623D01*
X1792Y621D01*
X1794Y621D01*
X1794Y617D01*
X1796Y617D01*
X1796Y615D01*
X1798Y615D01*
X1798Y613D01*
X1800Y613D01*
X1800Y611D01*
X1802Y611D01*
X1802Y607D01*
X1804Y607D01*
X1804Y605D01*
X1806Y605D01*
X1806Y603D01*
X1808Y603D01*
X1808Y599D01*
X1810Y599D01*
X1810Y597D01*
X1812Y597D01*
X1812Y595D01*
X1814Y595D01*
X1814Y593D01*
X1816Y593D01*
X1816Y589D01*
X1818Y589D01*
X1818Y587D01*
X1820Y587D01*
X1820Y585D01*
X1822Y585D01*
X1822Y581D01*
X1824Y581D01*
X1824Y579D01*
X1826Y579D01*
X1826Y577D01*
X1828Y577D01*
X1828Y575D01*
X1830Y575D01*
X1830Y571D01*
X1832Y571D01*
X1832Y569D01*
X1834Y569D01*
X1834Y567D01*
X1836Y567D01*
X1836Y565D01*
X1838Y565D01*
X1838Y561D01*
X1840Y561D01*
X1840Y559D01*
X1842Y559D01*
X1842Y557D01*
X1844Y557D01*
X1844Y553D01*
X1846Y553D01*
X1846Y551D01*
X1848Y551D01*
X1848Y549D01*
X1850Y549D01*
X1850Y547D01*
X1852Y547D01*
X1852Y543D01*
X1854Y543D01*
X1854Y541D01*
X1856Y541D01*
X1856Y539D01*
X1858Y539D01*
X1858Y535D01*
X1860Y535D01*
X1860Y533D01*
X1862Y533D01*
X1862Y531D01*
X1864Y531D01*
X1864Y529D01*
X1866Y529D01*
X1866Y525D01*
X1868Y525D01*
X1868Y523D01*
X1870Y523D01*
X1870Y521D01*
X1872Y521D01*
X1872Y517D01*
X1874Y517D01*
X1874Y515D01*
X1876Y515D01*
X1876Y513D01*
X1878Y513D01*
X1878Y511D01*
X1880Y511D01*
X1880Y507D01*
X1882Y507D01*
X1882Y505D01*
X1884Y505D01*
X1884Y503D01*
X1886Y503D01*
X1886Y501D01*
X1888Y501D01*
X1888Y497D01*
X1890Y497D01*
X1890Y495D01*
X1892Y495D01*
X1892Y493D01*
X1894Y493D01*
X1894Y489D01*
X1896Y489D01*
X1896Y487D01*
X1898Y487D01*
X1898Y485D01*
X1900Y485D01*
X1900Y483D01*
X1902Y483D01*
X1902Y479D01*
X1904Y479D01*
X1904Y477D01*
X1906Y477D01*
X1906Y475D01*
X1908Y475D01*
X1908Y471D01*
X1910Y471D01*
X1910Y469D01*
X1912Y469D01*
X1912Y467D01*
X1914Y467D01*
X1914Y465D01*
X1916Y465D01*
X1916Y461D01*
X1918Y461D01*
X1918Y459D01*
X1920Y459D01*
X1920Y457D01*
X1922Y457D01*
X1922Y455D01*
X1924Y455D01*
X1924Y451D01*
X1926Y451D01*
X1926Y449D01*
X1928Y449D01*
X1928Y447D01*
X1930Y447D01*
X1930Y443D01*
X1932Y443D01*
X1932Y441D01*
X1934Y441D01*
X1934Y439D01*
X1936Y439D01*
X1936Y437D01*
X1938Y437D01*
X1938Y433D01*
X1940Y433D01*
X1940Y431D01*
X1942Y431D01*
X1942Y429D01*
X1944Y429D01*
X1944Y425D01*
X1946Y425D01*
X1946Y423D01*
X1948Y423D01*
X1948Y421D01*
X1950Y421D01*
X1950Y419D01*
X1952Y419D01*
X1952Y415D01*
X1954Y415D01*
X1954Y413D01*
X1956Y413D01*
X1956Y411D01*
X1958Y411D01*
X1958Y407D01*
X1960Y407D01*
X1960Y405D01*
X1962Y405D01*
X1962Y403D01*
X1964Y403D01*
X1964Y401D01*
X1966Y401D01*
X1966Y397D01*
X1968Y397D01*
X1968Y395D01*
X1970Y395D01*
X1970Y393D01*
X1972Y393D01*
X1972Y391D01*
X1974Y391D01*
X1974Y387D01*
X1976Y387D01*
X1976Y385D01*
X1978Y385D01*
X1978Y383D01*
X1980Y383D01*
X1980Y379D01*
X1982Y379D01*
X1982Y377D01*
X1984Y377D01*
X1984Y375D01*
X1986Y375D01*
X1986Y373D01*
X1988Y373D01*
X1988Y369D01*
X1990Y369D01*
X1990Y367D01*
X1992Y367D01*
X1992Y365D01*
X1994Y365D01*
X1994Y361D01*
X1996Y361D01*
X1996Y359D01*
X1998Y359D01*
X1998Y357D01*
X2000Y357D01*
X2000Y355D01*
X2002Y355D01*
X2002Y351D01*
X2004Y351D01*
X2004Y349D01*
X2006Y349D01*
X2006Y347D01*
X2008Y347D01*
X2008Y345D01*
X2010Y345D01*
X2010Y341D01*
X2012Y341D01*
X2012Y339D01*
X2014Y339D01*
X2014Y337D01*
X2016Y337D01*
X2016Y333D01*
X2018Y333D01*
X2018Y331D01*
X2020Y331D01*
X2020Y329D01*
X2022Y329D01*
X2022Y327D01*
X2024Y327D01*
X2024Y323D01*
X2026Y323D01*
X2026Y321D01*
X2028Y321D01*
X2028Y319D01*
X2030Y319D01*
X2030Y315D01*
X2032Y315D01*
X2032Y313D01*
X2034Y313D01*
X2034Y311D01*
X2036Y311D01*
X2036Y309D01*
X2038Y309D01*
X2038Y305D01*
X2040Y305D01*
X2040Y303D01*
X2042Y303D01*
X2042Y301D01*
X2044Y301D01*
X2044Y299D01*
X2046Y299D01*
X2046Y295D01*
X2048Y295D01*
X2048Y293D01*
X2050Y293D01*
X2050Y291D01*
X2052Y291D01*
X2052Y287D01*
X2054Y287D01*
X2054Y285D01*
X2056Y285D01*
X2056Y283D01*
X2058Y283D01*
X2058Y281D01*
X2060Y281D01*
X2060Y277D01*
X2062Y277D01*
X2062Y275D01*
X2064Y275D01*
X2064Y273D01*
X2066Y273D01*
X2066Y269D01*
X2068Y269D01*
X2068Y267D01*
X2070Y267D01*
X2070Y265D01*
X2072Y265D01*
X2072Y263D01*
X2074Y263D01*
X2074Y259D01*
X2076Y259D01*
X2076Y257D01*
X2078Y257D01*
X2078Y255D01*
X2080Y255D01*
X2080Y251D01*
X2082Y251D01*
X2082Y249D01*
X2084Y249D01*
X2084Y247D01*
X2086Y247D01*
X2086Y245D01*
X2088Y245D01*
X2088Y241D01*
X2090Y241D01*
X2090Y239D01*
X2092Y239D01*
X2092Y237D01*
X2094Y237D01*
X2094Y235D01*
X2096Y235D01*
X2096Y231D01*
X2098Y231D01*
X2098Y229D01*
X2100Y229D01*
X2100Y227D01*
X2102Y227D01*
X2102Y223D01*
X2104Y223D01*
X2104Y221D01*
X2106Y221D01*
X2106Y219D01*
X2166Y219D01*
X2166Y221D01*
X2160Y221D01*
X2160Y223D01*
X2158Y223D01*
X2158Y225D01*
X2154Y225D01*
X2154Y229D01*
X2152Y229D01*
X2152Y231D01*
X2150Y231D01*
X2150Y233D01*
X2148Y233D01*
X2148Y237D01*
X2146Y237D01*
X2146Y239D01*
X2144Y239D01*
X2144Y241D01*
X2142Y241D01*
X2142Y245D01*
X2140Y245D01*
X2140Y247D01*
X2138Y247D01*
X2138Y249D01*
X2136Y249D01*
X2136Y253D01*
X2134Y253D01*
X2134Y255D01*
X2132Y255D01*
X2132Y257D01*
X2130Y257D01*
X2130Y261D01*
X2128Y261D01*
X2128Y263D01*
X2126Y263D01*
X2126Y265D01*
X2124Y265D01*
X2124Y269D01*
X2122Y269D01*
X2122Y271D01*
X2120Y271D01*
X2120Y273D01*
X2118Y273D01*
X2118Y277D01*
X2116Y277D01*
X2116Y279D01*
X2114Y279D01*
X2114Y281D01*
X2112Y281D01*
X2112Y285D01*
X2110Y285D01*
X2110Y287D01*
X2108Y287D01*
X2108Y289D01*
X2106Y289D01*
X2106Y293D01*
X2104Y293D01*
X2104Y295D01*
X2102Y295D01*
X2102Y299D01*
X2100Y299D01*
X2100Y301D01*
X2098Y301D01*
X2098Y303D01*
X2096Y303D01*
X2096Y307D01*
X2094Y307D01*
X2094Y309D01*
X2092Y309D01*
X2092Y311D01*
X2090Y311D01*
X2090Y315D01*
X2088Y315D01*
X2088Y317D01*
X2086Y317D01*
X2086Y319D01*
X2084Y319D01*
X2084Y323D01*
X2082Y323D01*
X2082Y325D01*
X2080Y325D01*
X2080Y327D01*
X2078Y327D01*
X2078Y331D01*
X2076Y331D01*
X2076Y333D01*
X2074Y333D01*
X2074Y335D01*
X2072Y335D01*
X2072Y339D01*
X2070Y339D01*
X2070Y341D01*
X2068Y341D01*
X2068Y343D01*
X2066Y343D01*
X2066Y347D01*
X2064Y347D01*
X2064Y349D01*
X2062Y349D01*
X2062Y351D01*
X2060Y351D01*
X2060Y355D01*
X2058Y355D01*
X2058Y357D01*
X2056Y357D01*
X2056Y361D01*
X2054Y361D01*
X2054Y363D01*
X2052Y363D01*
X2052Y365D01*
X2050Y365D01*
X2050Y369D01*
X2048Y369D01*
X2048Y371D01*
X2046Y371D01*
X2046Y373D01*
X2044Y373D01*
X2044Y377D01*
X2042Y377D01*
X2042Y379D01*
X2040Y379D01*
X2040Y381D01*
X2038Y381D01*
X2038Y385D01*
X2036Y385D01*
X2036Y387D01*
X2034Y387D01*
X2034Y389D01*
X2032Y389D01*
X2032Y393D01*
X2030Y393D01*
X2030Y395D01*
X2028Y395D01*
X2028Y397D01*
X2026Y397D01*
X2026Y401D01*
X2024Y401D01*
X2024Y403D01*
X2022Y403D01*
X2022Y405D01*
X2020Y405D01*
X2020Y409D01*
X2018Y409D01*
X2018Y411D01*
X2016Y411D01*
X2016Y413D01*
X2014Y413D01*
X2014Y417D01*
X2012Y417D01*
X2012Y419D01*
X2010Y419D01*
X2010Y423D01*
X2008Y423D01*
X2008Y425D01*
X2006Y425D01*
X2006Y427D01*
X2004Y427D01*
X2004Y431D01*
X2002Y431D01*
X2002Y433D01*
X2000Y433D01*
X2000Y435D01*
X1998Y435D01*
X1998Y439D01*
X1996Y439D01*
X1996Y441D01*
X1994Y441D01*
X1994Y443D01*
X1992Y443D01*
X1992Y447D01*
X1990Y447D01*
X1990Y449D01*
X1988Y449D01*
X1988Y451D01*
X1986Y451D01*
X1986Y455D01*
X1984Y455D01*
X1984Y457D01*
X1982Y457D01*
X1982Y459D01*
X1980Y459D01*
X1980Y463D01*
X1978Y463D01*
X1978Y465D01*
X1976Y465D01*
X1976Y467D01*
X1974Y467D01*
X1974Y471D01*
X1972Y471D01*
X1972Y473D01*
X1970Y473D01*
X1970Y475D01*
X1968Y475D01*
X1968Y479D01*
X1966Y479D01*
X1966Y481D01*
X1964Y481D01*
X1964Y485D01*
X1962Y485D01*
X1962Y487D01*
X1960Y487D01*
X1960Y489D01*
X1958Y489D01*
X1958Y493D01*
X1956Y493D01*
X1956Y495D01*
X1954Y495D01*
X1954Y497D01*
X1952Y497D01*
X1952Y501D01*
X1950Y501D01*
X1950Y503D01*
X1948Y503D01*
X1948Y505D01*
X1946Y505D01*
X1946Y509D01*
X1944Y509D01*
X1944Y511D01*
X1942Y511D01*
X1942Y513D01*
X1940Y513D01*
X1940Y517D01*
X1938Y517D01*
X1938Y519D01*
X1936Y519D01*
X1936Y521D01*
X1934Y521D01*
X1934Y525D01*
X1932Y525D01*
X1932Y527D01*
X1930Y527D01*
X1930Y529D01*
X1928Y529D01*
X1928Y533D01*
X1926Y533D01*
X1926Y535D01*
X1924Y535D01*
X1924Y537D01*
X1922Y537D01*
X1922Y541D01*
X1920Y541D01*
X1920Y543D01*
X1918Y543D01*
X1918Y547D01*
X1916Y547D01*
X1916Y549D01*
X1914Y549D01*
X1914Y551D01*
X1912Y551D01*
X1912Y555D01*
X1910Y555D01*
X1910Y557D01*
X1908Y557D01*
X1908Y559D01*
X1906Y559D01*
X1906Y563D01*
X1904Y563D01*
X1904Y565D01*
X1902Y565D01*
X1902Y567D01*
X1900Y567D01*
X1900Y571D01*
X1898Y571D01*
X1898Y573D01*
X1896Y573D01*
X1896Y575D01*
X1894Y575D01*
X1894Y579D01*
X1892Y579D01*
X1892Y581D01*
X1890Y581D01*
X1890Y583D01*
X1888Y583D01*
X1888Y587D01*
X1886Y587D01*
X1886Y589D01*
X1884Y589D01*
X1884Y591D01*
X1882Y591D01*
X1882Y595D01*
X1880Y595D01*
X1880Y597D01*
X1878Y597D01*
X1878Y599D01*
X1876Y599D01*
X1876Y603D01*
X1874Y603D01*
X1874Y605D01*
X1872Y605D01*
X1872Y609D01*
X1870Y609D01*
X1870Y611D01*
X1868Y611D01*
X1868Y613D01*
X1866Y613D01*
X1866Y617D01*
X1864Y617D01*
X1864Y619D01*
X1862Y619D01*
X1862Y621D01*
X1860Y621D01*
X1860Y625D01*
X1858Y625D01*
X1858Y627D01*
X1856Y627D01*
X1856Y629D01*
X1854Y629D01*
X1854Y633D01*
X1852Y633D01*
X1852Y635D01*
X1850Y635D01*
X1850Y637D01*
X1848Y637D01*
X1848Y641D01*
X1846Y641D01*
X1846Y643D01*
X1844Y643D01*
X1844Y645D01*
X1842Y645D01*
X1842Y649D01*
X1840Y649D01*
X1840Y651D01*
X1838Y651D01*
X1838Y653D01*
X1836Y653D01*
X1836Y657D01*
X1834Y657D01*
X1834Y659D01*
X1832Y659D01*
X1832Y661D01*
X1830Y661D01*
X1830Y665D01*
X1828Y665D01*
X1828Y667D01*
X1826Y667D01*
X1826Y671D01*
X1824Y671D01*
X1824Y673D01*
X1822Y673D01*
X1822Y675D01*
X1820Y675D01*
X1820Y679D01*
X1818Y679D01*
X1818Y681D01*
X1816Y681D01*
X1816Y683D01*
X1814Y683D01*
X1814Y687D01*
X1812Y687D01*
X1812Y689D01*
X1810Y689D01*
X1810Y691D01*
X1808Y691D01*
X1808Y695D01*
X1806Y695D01*
X1806Y697D01*
X1804Y697D01*
X1804Y699D01*
X1802Y699D01*
X1802Y703D01*
X1800Y703D01*
X1800Y705D01*
X1798Y705D01*
X1798Y707D01*
X1796Y707D01*
X1796Y711D01*
X1794Y711D01*
X1794Y713D01*
X1792Y713D01*
X1792Y715D01*
X1790Y715D01*
X1790Y719D01*
X1788Y719D01*
X1788Y721D01*
X1786Y721D01*
X1786Y723D01*
X1784Y723D01*
X1784Y727D01*
X1782Y727D01*
X1782Y729D01*
X1780Y729D01*
X1780Y733D01*
X1778Y733D01*
X1778Y735D01*
X1776Y735D01*
X1776Y737D01*
X1774Y737D01*
X1774Y741D01*
X1772Y741D01*
X1772Y743D01*
X1770Y743D01*
X1770Y745D01*
X1768Y745D01*
X1768Y749D01*
X1766Y749D01*
X1766Y751D01*
X1764Y751D01*
X1764Y753D01*
X1762Y753D01*
X1762Y757D01*
X1760Y757D01*
X1760Y759D01*
X1758Y759D01*
X1758Y761D01*
X1756Y761D01*
X1756Y765D01*
X1754Y765D01*
X1754Y767D01*
X1752Y767D01*
X1752Y769D01*
X1750Y769D01*
X1750Y773D01*
X1748Y773D01*
X1748Y775D01*
X1746Y775D01*
X1746Y777D01*
X1744Y777D01*
X1744Y781D01*
X1742Y781D01*
X1742Y783D01*
X1740Y783D01*
X1740Y785D01*
X1738Y785D01*
X1738Y789D01*
X1736Y789D01*
X1736Y791D01*
X1734Y791D01*
X1734Y795D01*
X1732Y795D01*
X1732Y797D01*
X1730Y797D01*
X1730Y799D01*
X1728Y799D01*
X1728Y803D01*
X1726Y803D01*
X1726Y805D01*
X1724Y805D01*
X1724Y807D01*
X1722Y807D01*
X1722Y811D01*
X1720Y811D01*
X1720Y813D01*
X1718Y813D01*
X1718Y815D01*
X1716Y815D01*
X1716Y819D01*
X1714Y819D01*
X1714Y821D01*
X1712Y821D01*
X1712Y823D01*
X1710Y823D01*
X1710Y827D01*
X1708Y827D01*
X1708Y829D01*
X1706Y829D01*
X1706Y831D01*
X1704Y831D01*
X1704Y835D01*
X1702Y835D01*
X1702Y837D01*
X1700Y837D01*
X1700Y839D01*
X1698Y839D01*
X1698Y843D01*
X1696Y843D01*
X1696Y845D01*
X1694Y845D01*
X1694Y849D01*
X1692Y849D01*
X1692Y851D01*
X1690Y851D01*
X1690Y853D01*
X1688Y853D01*
X1688Y857D01*
X1686Y857D01*
X1686Y859D01*
X1684Y859D01*
X1684Y861D01*
X1682Y861D01*
X1682Y865D01*
X1680Y865D01*
X1680Y867D01*
X1678Y867D01*
X1678Y869D01*
X1676Y869D01*
X1676Y873D01*
X1674Y873D01*
X1674Y875D01*
X1672Y875D01*
X1672Y877D01*
X1670Y877D01*
X1670Y881D01*
X1668Y881D01*
X1668Y883D01*
X1666Y883D01*
X1666Y885D01*
X1664Y885D01*
X1664Y889D01*
X1662Y889D01*
X1662Y891D01*
X1660Y891D01*
X1660Y893D01*
X1658Y893D01*
X1658Y897D01*
X1656Y897D01*
X1656Y899D01*
X1654Y899D01*
X1654Y901D01*
X1652Y901D01*
X1652Y905D01*
X1650Y905D01*
X1650Y907D01*
X1648Y907D01*
X1648Y911D01*
X1646Y911D01*
X1646Y913D01*
X1644Y913D01*
X1644Y915D01*
X1642Y915D01*
X1642Y919D01*
X1640Y919D01*
X1640Y921D01*
X1638Y921D01*
X1638Y923D01*
X1636Y923D01*
X1636Y927D01*
X1634Y927D01*
X1634Y929D01*
X1632Y929D01*
X1632Y931D01*
X1630Y931D01*
X1630Y935D01*
X1628Y935D01*
X1628Y937D01*
X1626Y937D01*
X1626Y939D01*
X1624Y939D01*
X1624Y943D01*
X1622Y943D01*
X1622Y945D01*
X1620Y945D01*
X1620Y949D01*
X1618Y949D01*
X1618Y957D01*
X1616Y957D01*
X1616Y1263D01*
X1614Y1263D01*
X1614Y1265D01*
X1612Y1265D01*
X1612Y1267D01*
X1610Y1267D01*
X1610Y1269D01*
X1608Y1269D01*
X1608Y1271D01*
X1606Y1271D01*
X1606Y1273D01*
X1604Y1273D01*
X1604Y1275D01*
X1602Y1275D01*
X1602Y1277D01*
X1600Y1277D01*
X1600Y1279D01*
X1598Y1279D01*
X1598Y1281D01*
X1596Y1281D01*
X1596Y1283D01*
X1594Y1283D01*
X1594Y1285D01*
X1592Y1285D01*
X1592Y1287D01*
X1590Y1287D01*
X1590Y1289D01*
X1588Y1289D01*
X1588Y1291D01*
X1586Y1291D01*
X1586Y1293D01*
X1584Y1293D01*
X1584Y1295D01*
X1582Y1295D01*
X1582Y1297D01*
X1580Y1297D01*
X1580Y1299D01*
X1578Y1299D01*
X1578Y1301D01*
X1576Y1301D01*
X1576Y1303D01*
X1574Y1303D01*
X1574Y1305D01*
X1572Y1305D01*
X1572Y1307D01*
X1570Y1307D01*
X1570Y1309D01*
X1568Y1309D01*
X1568Y1311D01*
X1566Y1311D01*
X1566Y1313D01*
X1564Y1313D01*
X1564Y1315D01*
X1562Y1315D01*
X1562Y1317D01*
X1560Y1317D01*
X1560Y1319D01*
X1558Y1319D01*
X1558Y1321D01*
X1556Y1321D01*
X1556Y1323D01*
X1528Y1323D01*
G37*
D02*
G36*
X2326Y223D02*
X2326Y221D01*
X2192Y221D01*
X2192Y219D01*
X2432Y219D01*
X2432Y223D01*
X2326Y223D01*
G37*
D02*
G36*
X2108Y219D02*
X2108Y217D01*
X2432Y217D01*
X2432Y219D01*
X2108Y219D01*
G37*
D02*
G36*
X2108Y219D02*
X2108Y217D01*
X2432Y217D01*
X2432Y219D01*
X2108Y219D01*
G37*
D02*
G36*
X2110Y217D02*
X2110Y213D01*
X2112Y213D01*
X2112Y211D01*
X2114Y211D01*
X2114Y209D01*
X2116Y209D01*
X2116Y205D01*
X2118Y205D01*
X2118Y203D01*
X2120Y203D01*
X2120Y201D01*
X2122Y201D01*
X2122Y199D01*
X2124Y199D01*
X2124Y195D01*
X2126Y195D01*
X2126Y193D01*
X2242Y193D01*
X2242Y191D01*
X2254Y191D01*
X2254Y189D01*
X2260Y189D01*
X2260Y187D01*
X2264Y187D01*
X2264Y185D01*
X2268Y185D01*
X2268Y183D01*
X2270Y183D01*
X2270Y181D01*
X2274Y181D01*
X2274Y179D01*
X2276Y179D01*
X2276Y177D01*
X2278Y177D01*
X2278Y175D01*
X2280Y175D01*
X2280Y171D01*
X2282Y171D01*
X2282Y169D01*
X2284Y169D01*
X2284Y165D01*
X2286Y165D01*
X2286Y163D01*
X2288Y163D01*
X2288Y157D01*
X2290Y157D01*
X2290Y149D01*
X2292Y149D01*
X2292Y131D01*
X2290Y131D01*
X2290Y123D01*
X2288Y123D01*
X2288Y119D01*
X2286Y119D01*
X2286Y115D01*
X2284Y115D01*
X2284Y111D01*
X2282Y111D01*
X2282Y109D01*
X2280Y109D01*
X2280Y107D01*
X2278Y107D01*
X2278Y105D01*
X2276Y105D01*
X2276Y103D01*
X2274Y103D01*
X2274Y101D01*
X2272Y101D01*
X2272Y81D01*
X2404Y81D01*
X2404Y109D01*
X2402Y109D01*
X2402Y171D01*
X2404Y171D01*
X2404Y181D01*
X2406Y181D01*
X2406Y183D01*
X2408Y183D01*
X2408Y187D01*
X2412Y187D01*
X2412Y189D01*
X2414Y189D01*
X2414Y191D01*
X2422Y191D01*
X2422Y193D01*
X2432Y193D01*
X2432Y217D01*
X2110Y217D01*
G37*
D02*
G36*
X2174Y193D02*
X2174Y191D01*
X2180Y191D01*
X2180Y189D01*
X2184Y189D01*
X2184Y187D01*
X2186Y187D01*
X2186Y185D01*
X2188Y185D01*
X2188Y183D01*
X2190Y183D01*
X2190Y181D01*
X2210Y181D01*
X2210Y183D01*
X2212Y183D01*
X2212Y185D01*
X2216Y185D01*
X2216Y187D01*
X2220Y187D01*
X2220Y189D01*
X2226Y189D01*
X2226Y191D01*
X2238Y191D01*
X2238Y193D01*
X2174Y193D01*
G37*
D02*
G36*
X578Y1139D02*
X578Y1137D01*
X574Y1137D01*
X574Y1135D01*
X570Y1135D01*
X570Y1133D01*
X568Y1133D01*
X568Y1131D01*
X566Y1131D01*
X566Y1129D01*
X562Y1129D01*
X562Y1125D01*
X560Y1125D01*
X560Y1123D01*
X558Y1123D01*
X558Y1119D01*
X556Y1119D01*
X556Y1117D01*
X554Y1117D01*
X554Y1085D01*
X556Y1085D01*
X556Y1081D01*
X558Y1081D01*
X558Y1079D01*
X560Y1079D01*
X560Y1077D01*
X562Y1077D01*
X562Y1073D01*
X564Y1073D01*
X564Y1071D01*
X568Y1071D01*
X568Y1069D01*
X570Y1069D01*
X570Y1067D01*
X574Y1067D01*
X574Y1065D01*
X578Y1065D01*
X578Y1063D01*
X604Y1063D01*
X604Y1065D01*
X608Y1065D01*
X608Y1067D01*
X612Y1067D01*
X612Y1069D01*
X616Y1069D01*
X616Y1071D01*
X618Y1071D01*
X618Y1073D01*
X620Y1073D01*
X620Y1075D01*
X622Y1075D01*
X622Y1079D01*
X624Y1079D01*
X624Y1081D01*
X626Y1081D01*
X626Y1085D01*
X628Y1085D01*
X628Y1091D01*
X630Y1091D01*
X630Y1111D01*
X628Y1111D01*
X628Y1117D01*
X626Y1117D01*
X626Y1121D01*
X624Y1121D01*
X624Y1123D01*
X622Y1123D01*
X622Y1127D01*
X620Y1127D01*
X620Y1129D01*
X618Y1129D01*
X618Y1131D01*
X614Y1131D01*
X614Y1133D01*
X612Y1133D01*
X612Y1135D01*
X608Y1135D01*
X608Y1137D01*
X604Y1137D01*
X604Y1139D01*
X578Y1139D01*
G37*
D02*
G36*
X278Y1137D02*
X278Y1135D01*
X274Y1135D01*
X274Y1133D01*
X270Y1133D01*
X270Y1131D01*
X268Y1131D01*
X268Y1129D01*
X264Y1129D01*
X264Y1127D01*
X262Y1127D01*
X262Y1123D01*
X260Y1123D01*
X260Y1121D01*
X258Y1121D01*
X258Y1117D01*
X256Y1117D01*
X256Y1113D01*
X254Y1113D01*
X254Y1085D01*
X256Y1085D01*
X256Y1081D01*
X258Y1081D01*
X258Y1077D01*
X260Y1077D01*
X260Y1075D01*
X262Y1075D01*
X262Y1073D01*
X264Y1073D01*
X264Y1071D01*
X266Y1071D01*
X266Y1069D01*
X268Y1069D01*
X268Y1067D01*
X272Y1067D01*
X272Y1065D01*
X276Y1065D01*
X276Y1063D01*
X280Y1063D01*
X280Y1061D01*
X302Y1061D01*
X302Y1063D01*
X308Y1063D01*
X308Y1065D01*
X312Y1065D01*
X312Y1067D01*
X314Y1067D01*
X314Y1069D01*
X318Y1069D01*
X318Y1071D01*
X320Y1071D01*
X320Y1073D01*
X322Y1073D01*
X322Y1077D01*
X324Y1077D01*
X324Y1079D01*
X326Y1079D01*
X326Y1083D01*
X328Y1083D01*
X328Y1087D01*
X330Y1087D01*
X330Y1111D01*
X328Y1111D01*
X328Y1117D01*
X326Y1117D01*
X326Y1119D01*
X324Y1119D01*
X324Y1123D01*
X322Y1123D01*
X322Y1125D01*
X320Y1125D01*
X320Y1127D01*
X318Y1127D01*
X318Y1129D01*
X316Y1129D01*
X316Y1131D01*
X314Y1131D01*
X314Y1133D01*
X310Y1133D01*
X310Y1135D01*
X306Y1135D01*
X306Y1137D01*
X278Y1137D01*
G37*
D02*
G36*
X1244Y1017D02*
X1244Y1015D01*
X1238Y1015D01*
X1238Y1013D01*
X1234Y1013D01*
X1234Y1011D01*
X1232Y1011D01*
X1232Y1009D01*
X1230Y1009D01*
X1230Y1007D01*
X1226Y1007D01*
X1226Y1003D01*
X1224Y1003D01*
X1224Y1001D01*
X1222Y1001D01*
X1222Y999D01*
X1220Y999D01*
X1220Y995D01*
X1218Y995D01*
X1218Y989D01*
X1216Y989D01*
X1216Y967D01*
X1218Y967D01*
X1218Y961D01*
X1220Y961D01*
X1220Y959D01*
X1222Y959D01*
X1222Y955D01*
X1224Y955D01*
X1224Y953D01*
X1226Y953D01*
X1226Y951D01*
X1228Y951D01*
X1228Y949D01*
X1230Y949D01*
X1230Y947D01*
X1232Y947D01*
X1232Y945D01*
X1236Y945D01*
X1236Y943D01*
X1240Y943D01*
X1240Y941D01*
X1270Y941D01*
X1270Y943D01*
X1274Y943D01*
X1274Y945D01*
X1276Y945D01*
X1276Y947D01*
X1280Y947D01*
X1280Y949D01*
X1282Y949D01*
X1282Y951D01*
X1284Y951D01*
X1284Y953D01*
X1286Y953D01*
X1286Y957D01*
X1288Y957D01*
X1288Y961D01*
X1290Y961D01*
X1290Y965D01*
X1292Y965D01*
X1292Y993D01*
X1290Y993D01*
X1290Y997D01*
X1288Y997D01*
X1288Y1001D01*
X1286Y1001D01*
X1286Y1003D01*
X1284Y1003D01*
X1284Y1005D01*
X1282Y1005D01*
X1282Y1007D01*
X1280Y1007D01*
X1280Y1009D01*
X1278Y1009D01*
X1278Y1011D01*
X1274Y1011D01*
X1274Y1013D01*
X1270Y1013D01*
X1270Y1015D01*
X1266Y1015D01*
X1266Y1017D01*
X1244Y1017D01*
G37*
D02*
G36*
X798Y1015D02*
X798Y1013D01*
X794Y1013D01*
X794Y1011D01*
X790Y1011D01*
X790Y1009D01*
X786Y1009D01*
X786Y1007D01*
X784Y1007D01*
X784Y1005D01*
X782Y1005D01*
X782Y1003D01*
X780Y1003D01*
X780Y1001D01*
X778Y1001D01*
X778Y997D01*
X776Y997D01*
X776Y993D01*
X774Y993D01*
X774Y987D01*
X772Y987D01*
X772Y965D01*
X774Y965D01*
X774Y961D01*
X776Y961D01*
X776Y957D01*
X778Y957D01*
X778Y953D01*
X780Y953D01*
X780Y951D01*
X782Y951D01*
X782Y949D01*
X784Y949D01*
X784Y947D01*
X786Y947D01*
X786Y945D01*
X790Y945D01*
X790Y943D01*
X792Y943D01*
X792Y941D01*
X798Y941D01*
X798Y939D01*
X824Y939D01*
X824Y941D01*
X828Y941D01*
X828Y943D01*
X832Y943D01*
X832Y945D01*
X834Y945D01*
X834Y947D01*
X836Y947D01*
X836Y949D01*
X838Y949D01*
X838Y951D01*
X840Y951D01*
X840Y953D01*
X842Y953D01*
X842Y955D01*
X844Y955D01*
X844Y959D01*
X846Y959D01*
X846Y963D01*
X848Y963D01*
X848Y991D01*
X846Y991D01*
X846Y995D01*
X844Y995D01*
X844Y999D01*
X842Y999D01*
X842Y1001D01*
X840Y1001D01*
X840Y1003D01*
X838Y1003D01*
X838Y1005D01*
X836Y1005D01*
X836Y1007D01*
X834Y1007D01*
X834Y1009D01*
X832Y1009D01*
X832Y1011D01*
X828Y1011D01*
X828Y1013D01*
X822Y1013D01*
X822Y1015D01*
X798Y1015D01*
G37*
D02*
G36*
X1526Y865D02*
X1526Y863D01*
X1524Y863D01*
X1524Y859D01*
X1522Y859D01*
X1522Y855D01*
X1520Y855D01*
X1520Y853D01*
X1518Y853D01*
X1518Y851D01*
X1516Y851D01*
X1516Y849D01*
X1514Y849D01*
X1514Y847D01*
X1512Y847D01*
X1512Y845D01*
X1510Y845D01*
X1510Y843D01*
X1508Y843D01*
X1508Y841D01*
X1504Y841D01*
X1504Y819D01*
X1508Y819D01*
X1508Y817D01*
X1510Y817D01*
X1510Y815D01*
X1512Y815D01*
X1512Y813D01*
X1516Y813D01*
X1516Y811D01*
X1518Y811D01*
X1518Y807D01*
X1520Y807D01*
X1520Y805D01*
X1522Y805D01*
X1522Y801D01*
X1524Y801D01*
X1524Y797D01*
X1526Y797D01*
X1526Y791D01*
X1528Y791D01*
X1528Y777D01*
X1530Y777D01*
X1530Y775D01*
X1534Y775D01*
X1534Y773D01*
X1536Y773D01*
X1536Y771D01*
X1540Y771D01*
X1540Y769D01*
X1542Y769D01*
X1542Y767D01*
X1546Y767D01*
X1546Y765D01*
X1548Y765D01*
X1548Y763D01*
X1552Y763D01*
X1552Y761D01*
X1554Y761D01*
X1554Y759D01*
X1558Y759D01*
X1558Y757D01*
X1560Y757D01*
X1560Y755D01*
X1564Y755D01*
X1564Y753D01*
X1568Y753D01*
X1568Y751D01*
X1570Y751D01*
X1570Y749D01*
X1574Y749D01*
X1574Y747D01*
X1576Y747D01*
X1576Y745D01*
X1580Y745D01*
X1580Y743D01*
X1582Y743D01*
X1582Y741D01*
X1584Y741D01*
X1584Y737D01*
X1586Y737D01*
X1586Y735D01*
X1588Y735D01*
X1588Y733D01*
X1590Y733D01*
X1590Y729D01*
X1592Y729D01*
X1592Y727D01*
X1594Y727D01*
X1594Y725D01*
X1596Y725D01*
X1596Y723D01*
X1598Y723D01*
X1598Y719D01*
X1600Y719D01*
X1600Y717D01*
X1602Y717D01*
X1602Y715D01*
X1604Y715D01*
X1604Y711D01*
X1606Y711D01*
X1606Y709D01*
X1608Y709D01*
X1608Y707D01*
X1610Y707D01*
X1610Y705D01*
X1612Y705D01*
X1612Y701D01*
X1614Y701D01*
X1614Y699D01*
X1616Y699D01*
X1616Y697D01*
X1618Y697D01*
X1618Y695D01*
X1620Y695D01*
X1620Y691D01*
X1622Y691D01*
X1622Y689D01*
X1624Y689D01*
X1624Y687D01*
X1626Y687D01*
X1626Y683D01*
X1628Y683D01*
X1628Y681D01*
X1630Y681D01*
X1630Y679D01*
X1632Y679D01*
X1632Y677D01*
X1634Y677D01*
X1634Y673D01*
X1636Y673D01*
X1636Y671D01*
X1638Y671D01*
X1638Y669D01*
X1640Y669D01*
X1640Y665D01*
X1642Y665D01*
X1642Y663D01*
X1644Y663D01*
X1644Y661D01*
X1646Y661D01*
X1646Y659D01*
X1648Y659D01*
X1648Y655D01*
X1650Y655D01*
X1650Y653D01*
X1652Y653D01*
X1652Y651D01*
X1654Y651D01*
X1654Y649D01*
X1656Y649D01*
X1656Y645D01*
X1658Y645D01*
X1658Y643D01*
X1660Y643D01*
X1660Y641D01*
X1662Y641D01*
X1662Y637D01*
X1664Y637D01*
X1664Y635D01*
X1666Y635D01*
X1666Y633D01*
X1668Y633D01*
X1668Y631D01*
X1670Y631D01*
X1670Y627D01*
X1672Y627D01*
X1672Y625D01*
X1674Y625D01*
X1674Y623D01*
X1676Y623D01*
X1676Y621D01*
X1678Y621D01*
X1678Y617D01*
X1680Y617D01*
X1680Y615D01*
X1682Y615D01*
X1682Y613D01*
X1684Y613D01*
X1684Y609D01*
X1686Y609D01*
X1686Y607D01*
X1688Y607D01*
X1688Y605D01*
X1690Y605D01*
X1690Y603D01*
X1692Y603D01*
X1692Y599D01*
X1694Y599D01*
X1694Y597D01*
X1696Y597D01*
X1696Y595D01*
X1698Y595D01*
X1698Y591D01*
X1700Y591D01*
X1700Y589D01*
X1702Y589D01*
X1702Y587D01*
X1704Y587D01*
X1704Y585D01*
X1706Y585D01*
X1706Y581D01*
X1708Y581D01*
X1708Y579D01*
X1710Y579D01*
X1710Y577D01*
X1712Y577D01*
X1712Y575D01*
X1714Y575D01*
X1714Y571D01*
X1716Y571D01*
X1716Y569D01*
X1718Y569D01*
X1718Y567D01*
X1720Y567D01*
X1720Y563D01*
X1722Y563D01*
X1722Y561D01*
X1724Y561D01*
X1724Y559D01*
X1726Y559D01*
X1726Y557D01*
X1728Y557D01*
X1728Y553D01*
X1730Y553D01*
X1730Y551D01*
X1732Y551D01*
X1732Y549D01*
X1734Y549D01*
X1734Y545D01*
X1736Y545D01*
X1736Y543D01*
X1738Y543D01*
X1738Y541D01*
X1740Y541D01*
X1740Y539D01*
X1742Y539D01*
X1742Y535D01*
X1744Y535D01*
X1744Y533D01*
X1746Y533D01*
X1746Y531D01*
X1748Y531D01*
X1748Y529D01*
X1750Y529D01*
X1750Y525D01*
X1752Y525D01*
X1752Y523D01*
X1754Y523D01*
X1754Y521D01*
X1756Y521D01*
X1756Y517D01*
X1758Y517D01*
X1758Y515D01*
X1760Y515D01*
X1760Y513D01*
X1762Y513D01*
X1762Y511D01*
X1764Y511D01*
X1764Y507D01*
X1766Y507D01*
X1766Y505D01*
X1768Y505D01*
X1768Y503D01*
X1770Y503D01*
X1770Y499D01*
X1772Y499D01*
X1772Y497D01*
X1774Y497D01*
X1774Y495D01*
X1776Y495D01*
X1776Y493D01*
X1778Y493D01*
X1778Y489D01*
X1780Y489D01*
X1780Y487D01*
X1782Y487D01*
X1782Y485D01*
X1784Y485D01*
X1784Y483D01*
X1786Y483D01*
X1786Y479D01*
X1788Y479D01*
X1788Y477D01*
X1790Y477D01*
X1790Y475D01*
X1792Y475D01*
X1792Y471D01*
X1794Y471D01*
X1794Y469D01*
X1796Y469D01*
X1796Y467D01*
X1798Y467D01*
X1798Y465D01*
X1800Y465D01*
X1800Y461D01*
X1802Y461D01*
X1802Y459D01*
X1804Y459D01*
X1804Y457D01*
X1806Y457D01*
X1806Y453D01*
X1808Y453D01*
X1808Y451D01*
X1810Y451D01*
X1810Y449D01*
X1812Y449D01*
X1812Y447D01*
X1814Y447D01*
X1814Y443D01*
X1816Y443D01*
X1816Y441D01*
X1818Y441D01*
X1818Y439D01*
X1820Y439D01*
X1820Y437D01*
X1822Y437D01*
X1822Y433D01*
X1824Y433D01*
X1824Y431D01*
X1826Y431D01*
X1826Y429D01*
X1828Y429D01*
X1828Y425D01*
X1830Y425D01*
X1830Y423D01*
X1832Y423D01*
X1832Y421D01*
X1834Y421D01*
X1834Y419D01*
X1836Y419D01*
X1836Y415D01*
X1838Y415D01*
X1838Y413D01*
X1840Y413D01*
X1840Y411D01*
X1842Y411D01*
X1842Y409D01*
X1844Y409D01*
X1844Y405D01*
X1846Y405D01*
X1846Y403D01*
X1848Y403D01*
X1848Y401D01*
X1850Y401D01*
X1850Y397D01*
X1852Y397D01*
X1852Y395D01*
X1854Y395D01*
X1854Y393D01*
X1856Y393D01*
X1856Y391D01*
X1858Y391D01*
X1858Y387D01*
X1860Y387D01*
X1860Y385D01*
X1862Y385D01*
X1862Y383D01*
X1864Y383D01*
X1864Y379D01*
X1866Y379D01*
X1866Y377D01*
X1868Y377D01*
X1868Y375D01*
X1870Y375D01*
X1870Y373D01*
X1872Y373D01*
X1872Y369D01*
X1874Y369D01*
X1874Y367D01*
X1876Y367D01*
X1876Y365D01*
X1878Y365D01*
X1878Y363D01*
X1880Y363D01*
X1880Y359D01*
X1882Y359D01*
X1882Y357D01*
X1884Y357D01*
X1884Y355D01*
X1886Y355D01*
X1886Y351D01*
X1888Y351D01*
X1888Y349D01*
X1890Y349D01*
X1890Y347D01*
X1892Y347D01*
X1892Y345D01*
X1894Y345D01*
X1894Y341D01*
X1896Y341D01*
X1896Y339D01*
X1898Y339D01*
X1898Y337D01*
X1900Y337D01*
X1900Y333D01*
X1902Y333D01*
X1902Y331D01*
X1904Y331D01*
X1904Y329D01*
X1906Y329D01*
X1906Y327D01*
X1908Y327D01*
X1908Y323D01*
X1910Y323D01*
X1910Y321D01*
X1912Y321D01*
X1912Y319D01*
X1914Y319D01*
X1914Y317D01*
X1916Y317D01*
X1916Y313D01*
X1918Y313D01*
X1918Y311D01*
X1920Y311D01*
X1920Y309D01*
X1922Y309D01*
X1922Y305D01*
X1924Y305D01*
X1924Y303D01*
X1926Y303D01*
X1926Y301D01*
X1928Y301D01*
X1928Y299D01*
X1930Y299D01*
X1930Y295D01*
X1932Y295D01*
X1932Y293D01*
X1934Y293D01*
X1934Y291D01*
X1936Y291D01*
X1936Y287D01*
X1938Y287D01*
X1938Y285D01*
X1940Y285D01*
X1940Y283D01*
X1942Y283D01*
X1942Y281D01*
X1944Y281D01*
X1944Y277D01*
X1946Y277D01*
X1946Y275D01*
X1948Y275D01*
X1948Y273D01*
X1950Y273D01*
X1950Y271D01*
X1952Y271D01*
X1952Y267D01*
X1954Y267D01*
X1954Y265D01*
X1956Y265D01*
X1956Y263D01*
X1958Y263D01*
X1958Y259D01*
X1960Y259D01*
X1960Y257D01*
X1962Y257D01*
X1962Y255D01*
X1964Y255D01*
X1964Y253D01*
X1966Y253D01*
X1966Y249D01*
X1968Y249D01*
X1968Y247D01*
X1970Y247D01*
X1970Y245D01*
X1972Y245D01*
X1972Y241D01*
X1974Y241D01*
X1974Y239D01*
X1976Y239D01*
X1976Y237D01*
X1978Y237D01*
X1978Y235D01*
X1980Y235D01*
X1980Y231D01*
X1982Y231D01*
X1982Y229D01*
X1984Y229D01*
X1984Y227D01*
X1986Y227D01*
X1986Y225D01*
X1988Y225D01*
X1988Y221D01*
X1990Y221D01*
X1990Y219D01*
X1992Y219D01*
X1992Y217D01*
X1994Y217D01*
X1994Y213D01*
X1996Y213D01*
X1996Y211D01*
X1998Y211D01*
X1998Y209D01*
X2000Y209D01*
X2000Y207D01*
X2002Y207D01*
X2002Y203D01*
X2004Y203D01*
X2004Y201D01*
X2006Y201D01*
X2006Y199D01*
X2008Y199D01*
X2008Y197D01*
X2010Y197D01*
X2010Y193D01*
X2012Y193D01*
X2012Y191D01*
X2014Y191D01*
X2014Y189D01*
X2016Y189D01*
X2016Y185D01*
X2018Y185D01*
X2018Y183D01*
X2020Y183D01*
X2020Y181D01*
X2022Y181D01*
X2022Y179D01*
X2024Y179D01*
X2024Y175D01*
X2026Y175D01*
X2026Y173D01*
X2028Y173D01*
X2028Y171D01*
X2030Y171D01*
X2030Y167D01*
X2032Y167D01*
X2032Y165D01*
X2034Y165D01*
X2034Y163D01*
X2036Y163D01*
X2036Y161D01*
X2038Y161D01*
X2038Y157D01*
X2040Y157D01*
X2040Y155D01*
X2042Y155D01*
X2042Y153D01*
X2044Y153D01*
X2044Y151D01*
X2046Y151D01*
X2046Y147D01*
X2048Y147D01*
X2048Y145D01*
X2050Y145D01*
X2050Y143D01*
X2052Y143D01*
X2052Y139D01*
X2054Y139D01*
X2054Y137D01*
X2056Y137D01*
X2056Y135D01*
X2058Y135D01*
X2058Y133D01*
X2060Y133D01*
X2060Y129D01*
X2062Y129D01*
X2062Y127D01*
X2064Y127D01*
X2064Y125D01*
X2066Y125D01*
X2066Y121D01*
X2068Y121D01*
X2068Y119D01*
X2088Y119D01*
X2088Y173D01*
X2086Y173D01*
X2086Y175D01*
X2084Y175D01*
X2084Y177D01*
X2082Y177D01*
X2082Y181D01*
X2080Y181D01*
X2080Y183D01*
X2078Y183D01*
X2078Y185D01*
X2076Y185D01*
X2076Y189D01*
X2074Y189D01*
X2074Y191D01*
X2072Y191D01*
X2072Y193D01*
X2070Y193D01*
X2070Y195D01*
X2068Y195D01*
X2068Y199D01*
X2066Y199D01*
X2066Y201D01*
X2064Y201D01*
X2064Y203D01*
X2062Y203D01*
X2062Y207D01*
X2060Y207D01*
X2060Y209D01*
X2058Y209D01*
X2058Y211D01*
X2056Y211D01*
X2056Y213D01*
X2054Y213D01*
X2054Y217D01*
X2052Y217D01*
X2052Y219D01*
X2050Y219D01*
X2050Y221D01*
X2048Y221D01*
X2048Y225D01*
X2046Y225D01*
X2046Y227D01*
X2044Y227D01*
X2044Y229D01*
X2042Y229D01*
X2042Y231D01*
X2040Y231D01*
X2040Y235D01*
X2038Y235D01*
X2038Y237D01*
X2036Y237D01*
X2036Y239D01*
X2034Y239D01*
X2034Y241D01*
X2032Y241D01*
X2032Y245D01*
X2030Y245D01*
X2030Y247D01*
X2028Y247D01*
X2028Y249D01*
X2026Y249D01*
X2026Y253D01*
X2024Y253D01*
X2024Y255D01*
X2022Y255D01*
X2022Y257D01*
X2020Y257D01*
X2020Y259D01*
X2018Y259D01*
X2018Y263D01*
X2016Y263D01*
X2016Y265D01*
X2014Y265D01*
X2014Y267D01*
X2012Y267D01*
X2012Y271D01*
X2010Y271D01*
X2010Y273D01*
X2008Y273D01*
X2008Y275D01*
X2006Y275D01*
X2006Y277D01*
X2004Y277D01*
X2004Y281D01*
X2002Y281D01*
X2002Y283D01*
X2000Y283D01*
X2000Y285D01*
X1998Y285D01*
X1998Y287D01*
X1996Y287D01*
X1996Y291D01*
X1994Y291D01*
X1994Y293D01*
X1992Y293D01*
X1992Y295D01*
X1990Y295D01*
X1990Y299D01*
X1988Y299D01*
X1988Y301D01*
X1986Y301D01*
X1986Y303D01*
X1984Y303D01*
X1984Y305D01*
X1982Y305D01*
X1982Y309D01*
X1980Y309D01*
X1980Y311D01*
X1978Y311D01*
X1978Y313D01*
X1976Y313D01*
X1976Y317D01*
X1974Y317D01*
X1974Y319D01*
X1972Y319D01*
X1972Y321D01*
X1970Y321D01*
X1970Y323D01*
X1968Y323D01*
X1968Y327D01*
X1966Y327D01*
X1966Y329D01*
X1964Y329D01*
X1964Y331D01*
X1962Y331D01*
X1962Y333D01*
X1960Y333D01*
X1960Y337D01*
X1958Y337D01*
X1958Y339D01*
X1956Y339D01*
X1956Y341D01*
X1954Y341D01*
X1954Y345D01*
X1952Y345D01*
X1952Y347D01*
X1950Y347D01*
X1950Y349D01*
X1948Y349D01*
X1948Y351D01*
X1946Y351D01*
X1946Y355D01*
X1944Y355D01*
X1944Y357D01*
X1942Y357D01*
X1942Y359D01*
X1940Y359D01*
X1940Y363D01*
X1938Y363D01*
X1938Y365D01*
X1936Y365D01*
X1936Y367D01*
X1934Y367D01*
X1934Y369D01*
X1932Y369D01*
X1932Y373D01*
X1930Y373D01*
X1930Y375D01*
X1928Y375D01*
X1928Y377D01*
X1926Y377D01*
X1926Y381D01*
X1924Y381D01*
X1924Y383D01*
X1922Y383D01*
X1922Y385D01*
X1920Y385D01*
X1920Y387D01*
X1918Y387D01*
X1918Y391D01*
X1916Y391D01*
X1916Y393D01*
X1914Y393D01*
X1914Y395D01*
X1912Y395D01*
X1912Y397D01*
X1910Y397D01*
X1910Y401D01*
X1908Y401D01*
X1908Y403D01*
X1906Y403D01*
X1906Y405D01*
X1904Y405D01*
X1904Y409D01*
X1902Y409D01*
X1902Y411D01*
X1900Y411D01*
X1900Y413D01*
X1898Y413D01*
X1898Y415D01*
X1896Y415D01*
X1896Y419D01*
X1894Y419D01*
X1894Y421D01*
X1892Y421D01*
X1892Y423D01*
X1890Y423D01*
X1890Y427D01*
X1888Y427D01*
X1888Y429D01*
X1886Y429D01*
X1886Y431D01*
X1884Y431D01*
X1884Y433D01*
X1882Y433D01*
X1882Y437D01*
X1880Y437D01*
X1880Y439D01*
X1878Y439D01*
X1878Y441D01*
X1876Y441D01*
X1876Y443D01*
X1874Y443D01*
X1874Y447D01*
X1872Y447D01*
X1872Y449D01*
X1870Y449D01*
X1870Y451D01*
X1868Y451D01*
X1868Y455D01*
X1866Y455D01*
X1866Y457D01*
X1864Y457D01*
X1864Y459D01*
X1862Y459D01*
X1862Y461D01*
X1860Y461D01*
X1860Y465D01*
X1858Y465D01*
X1858Y467D01*
X1856Y467D01*
X1856Y469D01*
X1854Y469D01*
X1854Y473D01*
X1852Y473D01*
X1852Y475D01*
X1850Y475D01*
X1850Y477D01*
X1848Y477D01*
X1848Y479D01*
X1846Y479D01*
X1846Y483D01*
X1844Y483D01*
X1844Y485D01*
X1842Y485D01*
X1842Y487D01*
X1840Y487D01*
X1840Y491D01*
X1838Y491D01*
X1838Y493D01*
X1836Y493D01*
X1836Y495D01*
X1834Y495D01*
X1834Y497D01*
X1832Y497D01*
X1832Y501D01*
X1830Y501D01*
X1830Y503D01*
X1828Y503D01*
X1828Y505D01*
X1826Y505D01*
X1826Y507D01*
X1824Y507D01*
X1824Y511D01*
X1822Y511D01*
X1822Y513D01*
X1820Y513D01*
X1820Y515D01*
X1818Y515D01*
X1818Y519D01*
X1816Y519D01*
X1816Y521D01*
X1814Y521D01*
X1814Y523D01*
X1812Y523D01*
X1812Y525D01*
X1810Y525D01*
X1810Y529D01*
X1808Y529D01*
X1808Y531D01*
X1806Y531D01*
X1806Y533D01*
X1804Y533D01*
X1804Y537D01*
X1802Y537D01*
X1802Y539D01*
X1800Y539D01*
X1800Y541D01*
X1798Y541D01*
X1798Y543D01*
X1796Y543D01*
X1796Y547D01*
X1794Y547D01*
X1794Y549D01*
X1792Y549D01*
X1792Y551D01*
X1790Y551D01*
X1790Y553D01*
X1788Y553D01*
X1788Y557D01*
X1786Y557D01*
X1786Y559D01*
X1784Y559D01*
X1784Y561D01*
X1782Y561D01*
X1782Y565D01*
X1780Y565D01*
X1780Y567D01*
X1778Y567D01*
X1778Y569D01*
X1776Y569D01*
X1776Y571D01*
X1774Y571D01*
X1774Y575D01*
X1772Y575D01*
X1772Y577D01*
X1770Y577D01*
X1770Y579D01*
X1768Y579D01*
X1768Y583D01*
X1766Y583D01*
X1766Y585D01*
X1764Y585D01*
X1764Y587D01*
X1762Y587D01*
X1762Y589D01*
X1760Y589D01*
X1760Y593D01*
X1758Y593D01*
X1758Y595D01*
X1756Y595D01*
X1756Y597D01*
X1754Y597D01*
X1754Y599D01*
X1752Y599D01*
X1752Y603D01*
X1750Y603D01*
X1750Y605D01*
X1748Y605D01*
X1748Y607D01*
X1746Y607D01*
X1746Y611D01*
X1744Y611D01*
X1744Y613D01*
X1742Y613D01*
X1742Y615D01*
X1740Y615D01*
X1740Y617D01*
X1738Y617D01*
X1738Y621D01*
X1736Y621D01*
X1736Y623D01*
X1734Y623D01*
X1734Y625D01*
X1732Y625D01*
X1732Y629D01*
X1730Y629D01*
X1730Y631D01*
X1728Y631D01*
X1728Y633D01*
X1726Y633D01*
X1726Y635D01*
X1724Y635D01*
X1724Y639D01*
X1722Y639D01*
X1722Y641D01*
X1720Y641D01*
X1720Y643D01*
X1718Y643D01*
X1718Y647D01*
X1716Y647D01*
X1716Y649D01*
X1714Y649D01*
X1714Y651D01*
X1712Y651D01*
X1712Y653D01*
X1710Y653D01*
X1710Y657D01*
X1708Y657D01*
X1708Y659D01*
X1706Y659D01*
X1706Y661D01*
X1704Y661D01*
X1704Y663D01*
X1702Y663D01*
X1702Y667D01*
X1700Y667D01*
X1700Y669D01*
X1698Y669D01*
X1698Y671D01*
X1696Y671D01*
X1696Y675D01*
X1694Y675D01*
X1694Y677D01*
X1692Y677D01*
X1692Y679D01*
X1690Y679D01*
X1690Y681D01*
X1688Y681D01*
X1688Y685D01*
X1686Y685D01*
X1686Y687D01*
X1684Y687D01*
X1684Y689D01*
X1682Y689D01*
X1682Y693D01*
X1680Y693D01*
X1680Y695D01*
X1678Y695D01*
X1678Y697D01*
X1676Y697D01*
X1676Y699D01*
X1674Y699D01*
X1674Y703D01*
X1672Y703D01*
X1672Y705D01*
X1670Y705D01*
X1670Y707D01*
X1668Y707D01*
X1668Y709D01*
X1666Y709D01*
X1666Y713D01*
X1664Y713D01*
X1664Y715D01*
X1662Y715D01*
X1662Y717D01*
X1660Y717D01*
X1660Y721D01*
X1658Y721D01*
X1658Y723D01*
X1656Y723D01*
X1656Y725D01*
X1654Y725D01*
X1654Y727D01*
X1652Y727D01*
X1652Y731D01*
X1650Y731D01*
X1650Y733D01*
X1648Y733D01*
X1648Y735D01*
X1646Y735D01*
X1646Y739D01*
X1644Y739D01*
X1644Y741D01*
X1642Y741D01*
X1642Y743D01*
X1640Y743D01*
X1640Y745D01*
X1638Y745D01*
X1638Y749D01*
X1636Y749D01*
X1636Y751D01*
X1634Y751D01*
X1634Y753D01*
X1632Y753D01*
X1632Y757D01*
X1630Y757D01*
X1630Y759D01*
X1628Y759D01*
X1628Y761D01*
X1626Y761D01*
X1626Y763D01*
X1624Y763D01*
X1624Y767D01*
X1622Y767D01*
X1622Y769D01*
X1620Y769D01*
X1620Y771D01*
X1618Y771D01*
X1618Y773D01*
X1616Y773D01*
X1616Y777D01*
X1614Y777D01*
X1614Y779D01*
X1612Y779D01*
X1612Y781D01*
X1610Y781D01*
X1610Y785D01*
X1608Y785D01*
X1608Y787D01*
X1606Y787D01*
X1606Y789D01*
X1604Y789D01*
X1604Y791D01*
X1602Y791D01*
X1602Y795D01*
X1600Y795D01*
X1600Y797D01*
X1598Y797D01*
X1598Y799D01*
X1596Y799D01*
X1596Y803D01*
X1594Y803D01*
X1594Y805D01*
X1592Y805D01*
X1592Y807D01*
X1590Y807D01*
X1590Y809D01*
X1588Y809D01*
X1588Y813D01*
X1586Y813D01*
X1586Y815D01*
X1584Y815D01*
X1584Y817D01*
X1582Y817D01*
X1582Y819D01*
X1580Y819D01*
X1580Y823D01*
X1578Y823D01*
X1578Y825D01*
X1576Y825D01*
X1576Y827D01*
X1574Y827D01*
X1574Y831D01*
X1572Y831D01*
X1572Y833D01*
X1570Y833D01*
X1570Y835D01*
X1568Y835D01*
X1568Y837D01*
X1566Y837D01*
X1566Y841D01*
X1564Y841D01*
X1564Y843D01*
X1562Y843D01*
X1562Y845D01*
X1560Y845D01*
X1560Y849D01*
X1558Y849D01*
X1558Y851D01*
X1556Y851D01*
X1556Y853D01*
X1554Y853D01*
X1554Y855D01*
X1552Y855D01*
X1552Y859D01*
X1550Y859D01*
X1550Y861D01*
X1548Y861D01*
X1548Y863D01*
X1546Y863D01*
X1546Y865D01*
X1526Y865D01*
G37*
D02*
G36*
X1428Y855D02*
X1428Y837D01*
X1426Y837D01*
X1426Y819D01*
X1424Y819D01*
X1424Y799D01*
X1422Y799D01*
X1422Y793D01*
X1442Y793D01*
X1442Y799D01*
X1444Y799D01*
X1444Y803D01*
X1446Y803D01*
X1446Y807D01*
X1448Y807D01*
X1448Y809D01*
X1450Y809D01*
X1450Y811D01*
X1452Y811D01*
X1452Y813D01*
X1454Y813D01*
X1454Y815D01*
X1456Y815D01*
X1456Y817D01*
X1460Y817D01*
X1460Y819D01*
X1464Y819D01*
X1464Y841D01*
X1460Y841D01*
X1460Y843D01*
X1458Y843D01*
X1458Y845D01*
X1454Y845D01*
X1454Y847D01*
X1452Y847D01*
X1452Y849D01*
X1450Y849D01*
X1450Y851D01*
X1448Y851D01*
X1448Y855D01*
X1428Y855D01*
G37*
D02*
G36*
X202Y827D02*
X202Y825D01*
X196Y825D01*
X196Y823D01*
X192Y823D01*
X192Y821D01*
X188Y821D01*
X188Y819D01*
X186Y819D01*
X186Y817D01*
X184Y817D01*
X184Y815D01*
X182Y815D01*
X182Y813D01*
X180Y813D01*
X180Y811D01*
X178Y811D01*
X178Y809D01*
X176Y809D01*
X176Y807D01*
X174Y807D01*
X174Y805D01*
X172Y805D01*
X172Y801D01*
X170Y801D01*
X170Y797D01*
X168Y797D01*
X168Y793D01*
X166Y793D01*
X166Y787D01*
X164Y787D01*
X164Y765D01*
X166Y765D01*
X166Y757D01*
X168Y757D01*
X168Y753D01*
X170Y753D01*
X170Y749D01*
X172Y749D01*
X172Y745D01*
X174Y745D01*
X174Y743D01*
X176Y743D01*
X176Y741D01*
X178Y741D01*
X178Y739D01*
X180Y739D01*
X180Y737D01*
X182Y737D01*
X182Y735D01*
X184Y735D01*
X184Y733D01*
X186Y733D01*
X186Y731D01*
X188Y731D01*
X188Y729D01*
X192Y729D01*
X192Y727D01*
X196Y727D01*
X196Y725D01*
X202Y725D01*
X202Y723D01*
X232Y723D01*
X232Y725D01*
X236Y725D01*
X236Y727D01*
X242Y727D01*
X242Y729D01*
X244Y729D01*
X244Y731D01*
X248Y731D01*
X248Y733D01*
X250Y733D01*
X250Y735D01*
X252Y735D01*
X252Y737D01*
X254Y737D01*
X254Y739D01*
X256Y739D01*
X256Y741D01*
X258Y741D01*
X258Y743D01*
X260Y743D01*
X260Y745D01*
X262Y745D01*
X262Y749D01*
X264Y749D01*
X264Y753D01*
X266Y753D01*
X266Y757D01*
X268Y757D01*
X268Y765D01*
X270Y765D01*
X270Y785D01*
X268Y785D01*
X268Y793D01*
X266Y793D01*
X266Y797D01*
X264Y797D01*
X264Y801D01*
X262Y801D01*
X262Y805D01*
X260Y805D01*
X260Y807D01*
X258Y807D01*
X258Y809D01*
X256Y809D01*
X256Y811D01*
X254Y811D01*
X254Y813D01*
X252Y813D01*
X252Y815D01*
X250Y815D01*
X250Y817D01*
X248Y817D01*
X248Y819D01*
X246Y819D01*
X246Y821D01*
X242Y821D01*
X242Y823D01*
X238Y823D01*
X238Y825D01*
X232Y825D01*
X232Y827D01*
X202Y827D01*
G37*
D02*
G36*
X3312Y827D02*
X3312Y825D01*
X3306Y825D01*
X3306Y823D01*
X3302Y823D01*
X3302Y821D01*
X3298Y821D01*
X3298Y819D01*
X3296Y819D01*
X3296Y817D01*
X3294Y817D01*
X3294Y815D01*
X3292Y815D01*
X3292Y813D01*
X3290Y813D01*
X3290Y811D01*
X3288Y811D01*
X3288Y809D01*
X3286Y809D01*
X3286Y807D01*
X3284Y807D01*
X3284Y805D01*
X3282Y805D01*
X3282Y801D01*
X3280Y801D01*
X3280Y797D01*
X3278Y797D01*
X3278Y793D01*
X3276Y793D01*
X3276Y785D01*
X3274Y785D01*
X3274Y765D01*
X3276Y765D01*
X3276Y759D01*
X3278Y759D01*
X3278Y753D01*
X3280Y753D01*
X3280Y749D01*
X3282Y749D01*
X3282Y745D01*
X3284Y745D01*
X3284Y743D01*
X3286Y743D01*
X3286Y741D01*
X3288Y741D01*
X3288Y739D01*
X3290Y739D01*
X3290Y737D01*
X3292Y737D01*
X3292Y735D01*
X3294Y735D01*
X3294Y733D01*
X3296Y733D01*
X3296Y731D01*
X3300Y731D01*
X3300Y729D01*
X3302Y729D01*
X3302Y727D01*
X3308Y727D01*
X3308Y725D01*
X3312Y725D01*
X3312Y723D01*
X3342Y723D01*
X3342Y725D01*
X3348Y725D01*
X3348Y727D01*
X3352Y727D01*
X3352Y729D01*
X3356Y729D01*
X3356Y731D01*
X3358Y731D01*
X3358Y733D01*
X3360Y733D01*
X3360Y735D01*
X3362Y735D01*
X3362Y737D01*
X3364Y737D01*
X3364Y739D01*
X3366Y739D01*
X3366Y741D01*
X3368Y741D01*
X3368Y743D01*
X3370Y743D01*
X3370Y745D01*
X3372Y745D01*
X3372Y749D01*
X3374Y749D01*
X3374Y753D01*
X3376Y753D01*
X3376Y757D01*
X3378Y757D01*
X3378Y763D01*
X3380Y763D01*
X3380Y787D01*
X3378Y787D01*
X3378Y793D01*
X3376Y793D01*
X3376Y797D01*
X3374Y797D01*
X3374Y801D01*
X3372Y801D01*
X3372Y805D01*
X3370Y805D01*
X3370Y807D01*
X3368Y807D01*
X3368Y809D01*
X3366Y809D01*
X3366Y813D01*
X3362Y813D01*
X3362Y815D01*
X3360Y815D01*
X3360Y817D01*
X3358Y817D01*
X3358Y819D01*
X3356Y819D01*
X3356Y821D01*
X3352Y821D01*
X3352Y823D01*
X3348Y823D01*
X3348Y825D01*
X3342Y825D01*
X3342Y827D01*
X3312Y827D01*
G37*
D02*
G36*
X1420Y775D02*
X1420Y763D01*
X1418Y763D01*
X1418Y745D01*
X1416Y745D01*
X1416Y727D01*
X1414Y727D01*
X1414Y709D01*
X1412Y709D01*
X1412Y705D01*
X1434Y705D01*
X1434Y707D01*
X1436Y707D01*
X1436Y709D01*
X1440Y709D01*
X1440Y711D01*
X1444Y711D01*
X1444Y713D01*
X1450Y713D01*
X1450Y715D01*
X1456Y715D01*
X1456Y717D01*
X1470Y717D01*
X1470Y737D01*
X1468Y737D01*
X1468Y739D01*
X1464Y739D01*
X1464Y741D01*
X1460Y741D01*
X1460Y743D01*
X1458Y743D01*
X1458Y745D01*
X1454Y745D01*
X1454Y747D01*
X1452Y747D01*
X1452Y749D01*
X1450Y749D01*
X1450Y751D01*
X1448Y751D01*
X1448Y755D01*
X1446Y755D01*
X1446Y757D01*
X1444Y757D01*
X1444Y761D01*
X1442Y761D01*
X1442Y767D01*
X1440Y767D01*
X1440Y775D01*
X1420Y775D01*
G37*
D02*
G36*
X1462Y683D02*
X1462Y681D01*
X1456Y681D01*
X1456Y679D01*
X1452Y679D01*
X1452Y677D01*
X1450Y677D01*
X1450Y675D01*
X1448Y675D01*
X1448Y673D01*
X1446Y673D01*
X1446Y671D01*
X1444Y671D01*
X1444Y669D01*
X1442Y669D01*
X1442Y667D01*
X1440Y667D01*
X1440Y663D01*
X1438Y663D01*
X1438Y659D01*
X1436Y659D01*
X1436Y631D01*
X1438Y631D01*
X1438Y627D01*
X1440Y627D01*
X1440Y623D01*
X1442Y623D01*
X1442Y621D01*
X1444Y621D01*
X1444Y619D01*
X1446Y619D01*
X1446Y617D01*
X1448Y617D01*
X1448Y615D01*
X1450Y615D01*
X1450Y613D01*
X1452Y613D01*
X1452Y611D01*
X1456Y611D01*
X1456Y609D01*
X1462Y609D01*
X1462Y607D01*
X1486Y607D01*
X1486Y609D01*
X1490Y609D01*
X1490Y611D01*
X1494Y611D01*
X1494Y613D01*
X1498Y613D01*
X1498Y615D01*
X1500Y615D01*
X1500Y617D01*
X1502Y617D01*
X1502Y619D01*
X1504Y619D01*
X1504Y621D01*
X1506Y621D01*
X1506Y625D01*
X1508Y625D01*
X1508Y629D01*
X1510Y629D01*
X1510Y659D01*
X1508Y659D01*
X1508Y663D01*
X1506Y663D01*
X1506Y667D01*
X1504Y667D01*
X1504Y669D01*
X1502Y669D01*
X1502Y671D01*
X1500Y671D01*
X1500Y673D01*
X1498Y673D01*
X1498Y675D01*
X1496Y675D01*
X1496Y677D01*
X1492Y677D01*
X1492Y679D01*
X1490Y679D01*
X1490Y681D01*
X1484Y681D01*
X1484Y683D01*
X1462Y683D01*
G37*
D02*
G36*
X2138Y683D02*
X2138Y681D01*
X2132Y681D01*
X2132Y679D01*
X2128Y679D01*
X2128Y677D01*
X2126Y677D01*
X2126Y675D01*
X2124Y675D01*
X2124Y673D01*
X2122Y673D01*
X2122Y671D01*
X2120Y671D01*
X2120Y669D01*
X2118Y669D01*
X2118Y667D01*
X2116Y667D01*
X2116Y663D01*
X2114Y663D01*
X2114Y659D01*
X2112Y659D01*
X2112Y631D01*
X2114Y631D01*
X2114Y627D01*
X2116Y627D01*
X2116Y623D01*
X2118Y623D01*
X2118Y621D01*
X2120Y621D01*
X2120Y619D01*
X2122Y619D01*
X2122Y617D01*
X2124Y617D01*
X2124Y615D01*
X2126Y615D01*
X2126Y613D01*
X2128Y613D01*
X2128Y611D01*
X2132Y611D01*
X2132Y609D01*
X2138Y609D01*
X2138Y607D01*
X2162Y607D01*
X2162Y609D01*
X2166Y609D01*
X2166Y611D01*
X2170Y611D01*
X2170Y613D01*
X2172Y613D01*
X2172Y615D01*
X2176Y615D01*
X2176Y617D01*
X2178Y617D01*
X2178Y619D01*
X2180Y619D01*
X2180Y623D01*
X2182Y623D01*
X2182Y625D01*
X2184Y625D01*
X2184Y629D01*
X2186Y629D01*
X2186Y635D01*
X2188Y635D01*
X2188Y655D01*
X2186Y655D01*
X2186Y661D01*
X2184Y661D01*
X2184Y665D01*
X2182Y665D01*
X2182Y669D01*
X2180Y669D01*
X2180Y671D01*
X2178Y671D01*
X2178Y673D01*
X2176Y673D01*
X2176Y675D01*
X2174Y675D01*
X2174Y677D01*
X2170Y677D01*
X2170Y679D01*
X2166Y679D01*
X2166Y681D01*
X2162Y681D01*
X2162Y683D01*
X2138Y683D01*
G37*
D02*
G36*
X798Y655D02*
X798Y653D01*
X792Y653D01*
X792Y651D01*
X788Y651D01*
X788Y649D01*
X786Y649D01*
X786Y647D01*
X784Y647D01*
X784Y645D01*
X780Y645D01*
X780Y641D01*
X778Y641D01*
X778Y639D01*
X776Y639D01*
X776Y637D01*
X774Y637D01*
X774Y633D01*
X772Y633D01*
X772Y627D01*
X770Y627D01*
X770Y607D01*
X772Y607D01*
X772Y601D01*
X774Y601D01*
X774Y597D01*
X776Y597D01*
X776Y595D01*
X778Y595D01*
X778Y593D01*
X780Y593D01*
X780Y591D01*
X782Y591D01*
X782Y589D01*
X784Y589D01*
X784Y587D01*
X786Y587D01*
X786Y585D01*
X790Y585D01*
X790Y583D01*
X792Y583D01*
X792Y581D01*
X798Y581D01*
X798Y579D01*
X818Y579D01*
X818Y581D01*
X824Y581D01*
X824Y583D01*
X828Y583D01*
X828Y585D01*
X832Y585D01*
X832Y587D01*
X834Y587D01*
X834Y589D01*
X836Y589D01*
X836Y591D01*
X838Y591D01*
X838Y593D01*
X840Y593D01*
X840Y597D01*
X842Y597D01*
X842Y599D01*
X844Y599D01*
X844Y605D01*
X846Y605D01*
X846Y631D01*
X844Y631D01*
X844Y635D01*
X842Y635D01*
X842Y639D01*
X840Y639D01*
X840Y641D01*
X838Y641D01*
X838Y643D01*
X836Y643D01*
X836Y645D01*
X834Y645D01*
X834Y647D01*
X832Y647D01*
X832Y649D01*
X830Y649D01*
X830Y651D01*
X826Y651D01*
X826Y653D01*
X820Y653D01*
X820Y655D01*
X798Y655D01*
G37*
D02*
G36*
X1244Y655D02*
X1244Y653D01*
X1240Y653D01*
X1240Y651D01*
X1236Y651D01*
X1236Y649D01*
X1234Y649D01*
X1234Y647D01*
X1232Y647D01*
X1232Y645D01*
X1230Y645D01*
X1230Y643D01*
X1228Y643D01*
X1228Y641D01*
X1226Y641D01*
X1226Y639D01*
X1224Y639D01*
X1224Y635D01*
X1222Y635D01*
X1222Y629D01*
X1220Y629D01*
X1220Y607D01*
X1222Y607D01*
X1222Y601D01*
X1224Y601D01*
X1224Y597D01*
X1226Y597D01*
X1226Y595D01*
X1228Y595D01*
X1228Y593D01*
X1230Y593D01*
X1230Y591D01*
X1232Y591D01*
X1232Y589D01*
X1234Y589D01*
X1234Y587D01*
X1236Y587D01*
X1236Y585D01*
X1240Y585D01*
X1240Y583D01*
X1242Y583D01*
X1242Y581D01*
X1248Y581D01*
X1248Y579D01*
X1268Y579D01*
X1268Y581D01*
X1274Y581D01*
X1274Y583D01*
X1278Y583D01*
X1278Y585D01*
X1280Y585D01*
X1280Y587D01*
X1282Y587D01*
X1282Y589D01*
X1286Y589D01*
X1286Y593D01*
X1288Y593D01*
X1288Y595D01*
X1290Y595D01*
X1290Y597D01*
X1292Y597D01*
X1292Y601D01*
X1294Y601D01*
X1294Y607D01*
X1296Y607D01*
X1296Y629D01*
X1294Y629D01*
X1294Y635D01*
X1292Y635D01*
X1292Y639D01*
X1290Y639D01*
X1290Y641D01*
X1288Y641D01*
X1288Y643D01*
X1286Y643D01*
X1286Y645D01*
X1284Y645D01*
X1284Y647D01*
X1282Y647D01*
X1282Y649D01*
X1280Y649D01*
X1280Y651D01*
X1276Y651D01*
X1276Y653D01*
X1272Y653D01*
X1272Y655D01*
X1244Y655D01*
G37*
D02*
G36*
X1444Y1041D02*
X1444Y1039D01*
X1438Y1039D01*
X1438Y1037D01*
X1434Y1037D01*
X1434Y1035D01*
X1428Y1035D01*
X1428Y1033D01*
X1424Y1033D01*
X1424Y1031D01*
X1418Y1031D01*
X1418Y1029D01*
X1416Y1029D01*
X1416Y1027D01*
X1414Y1027D01*
X1414Y1023D01*
X1412Y1023D01*
X1412Y1019D01*
X1410Y1019D01*
X1410Y1013D01*
X1408Y1013D01*
X1408Y1009D01*
X1406Y1009D01*
X1406Y1005D01*
X1404Y1005D01*
X1404Y1001D01*
X1402Y1001D01*
X1402Y995D01*
X1400Y995D01*
X1400Y991D01*
X1398Y991D01*
X1398Y987D01*
X1396Y987D01*
X1396Y983D01*
X1394Y983D01*
X1394Y979D01*
X1392Y979D01*
X1392Y973D01*
X1390Y973D01*
X1390Y969D01*
X1388Y969D01*
X1388Y965D01*
X1386Y965D01*
X1386Y961D01*
X1384Y961D01*
X1384Y957D01*
X1382Y957D01*
X1382Y951D01*
X1380Y951D01*
X1380Y947D01*
X1378Y947D01*
X1378Y943D01*
X1376Y943D01*
X1376Y939D01*
X1374Y939D01*
X1374Y935D01*
X1372Y935D01*
X1372Y929D01*
X1370Y929D01*
X1370Y925D01*
X1368Y925D01*
X1368Y921D01*
X1366Y921D01*
X1366Y917D01*
X1364Y917D01*
X1364Y913D01*
X1362Y913D01*
X1362Y907D01*
X1360Y907D01*
X1360Y903D01*
X1358Y903D01*
X1358Y899D01*
X1356Y899D01*
X1356Y895D01*
X1354Y895D01*
X1354Y891D01*
X1352Y891D01*
X1352Y885D01*
X1350Y885D01*
X1350Y881D01*
X1348Y881D01*
X1348Y877D01*
X1346Y877D01*
X1346Y875D01*
X1344Y875D01*
X1344Y873D01*
X1342Y873D01*
X1342Y871D01*
X1340Y871D01*
X1340Y869D01*
X1336Y869D01*
X1336Y867D01*
X1334Y867D01*
X1334Y865D01*
X1330Y865D01*
X1330Y863D01*
X1326Y863D01*
X1326Y861D01*
X1322Y861D01*
X1322Y859D01*
X1318Y859D01*
X1318Y857D01*
X1316Y857D01*
X1316Y855D01*
X1312Y855D01*
X1312Y853D01*
X1308Y853D01*
X1308Y851D01*
X1304Y851D01*
X1304Y849D01*
X1302Y849D01*
X1302Y847D01*
X1298Y847D01*
X1298Y845D01*
X1294Y845D01*
X1294Y843D01*
X1290Y843D01*
X1290Y841D01*
X1288Y841D01*
X1288Y839D01*
X1284Y839D01*
X1284Y837D01*
X1280Y837D01*
X1280Y835D01*
X1276Y835D01*
X1276Y833D01*
X1274Y833D01*
X1274Y831D01*
X1270Y831D01*
X1270Y829D01*
X1266Y829D01*
X1266Y827D01*
X1262Y827D01*
X1262Y825D01*
X1260Y825D01*
X1260Y823D01*
X1256Y823D01*
X1256Y821D01*
X1252Y821D01*
X1252Y819D01*
X1248Y819D01*
X1248Y817D01*
X1246Y817D01*
X1246Y815D01*
X1242Y815D01*
X1242Y813D01*
X1238Y813D01*
X1238Y811D01*
X1234Y811D01*
X1234Y809D01*
X1232Y809D01*
X1232Y807D01*
X1228Y807D01*
X1228Y805D01*
X1224Y805D01*
X1224Y803D01*
X1220Y803D01*
X1220Y801D01*
X1218Y801D01*
X1218Y799D01*
X1214Y799D01*
X1214Y797D01*
X1210Y797D01*
X1210Y795D01*
X1206Y795D01*
X1206Y793D01*
X1204Y793D01*
X1204Y791D01*
X1200Y791D01*
X1200Y789D01*
X1196Y789D01*
X1196Y787D01*
X1192Y787D01*
X1192Y785D01*
X1190Y785D01*
X1190Y783D01*
X1186Y783D01*
X1186Y697D01*
X1272Y697D01*
X1272Y695D01*
X1280Y695D01*
X1280Y693D01*
X1286Y693D01*
X1286Y691D01*
X1292Y691D01*
X1292Y689D01*
X1296Y689D01*
X1296Y687D01*
X1298Y687D01*
X1298Y685D01*
X1302Y685D01*
X1302Y683D01*
X1304Y683D01*
X1304Y681D01*
X1308Y681D01*
X1308Y679D01*
X1310Y679D01*
X1310Y677D01*
X1312Y677D01*
X1312Y675D01*
X1314Y675D01*
X1314Y673D01*
X1316Y673D01*
X1316Y671D01*
X1318Y671D01*
X1318Y669D01*
X1320Y669D01*
X1320Y667D01*
X1322Y667D01*
X1322Y663D01*
X1324Y663D01*
X1324Y661D01*
X1326Y661D01*
X1326Y657D01*
X1328Y657D01*
X1328Y653D01*
X1330Y653D01*
X1330Y649D01*
X1332Y649D01*
X1332Y645D01*
X1334Y645D01*
X1334Y637D01*
X1336Y637D01*
X1336Y627D01*
X1338Y627D01*
X1338Y609D01*
X1336Y609D01*
X1336Y599D01*
X1334Y599D01*
X1334Y591D01*
X1332Y591D01*
X1332Y587D01*
X1330Y587D01*
X1330Y583D01*
X1328Y583D01*
X1328Y579D01*
X1326Y579D01*
X1326Y575D01*
X1324Y575D01*
X1324Y573D01*
X1322Y573D01*
X1322Y569D01*
X1320Y569D01*
X1320Y567D01*
X1318Y567D01*
X1318Y565D01*
X1316Y565D01*
X1316Y563D01*
X1314Y563D01*
X1314Y561D01*
X1312Y561D01*
X1312Y559D01*
X1310Y559D01*
X1310Y557D01*
X1308Y557D01*
X1308Y555D01*
X1304Y555D01*
X1304Y553D01*
X1302Y553D01*
X1302Y551D01*
X1298Y551D01*
X1298Y549D01*
X1296Y549D01*
X1296Y547D01*
X1292Y547D01*
X1292Y545D01*
X1286Y545D01*
X1286Y543D01*
X1280Y543D01*
X1280Y541D01*
X1272Y541D01*
X1272Y539D01*
X1348Y539D01*
X1348Y541D01*
X1350Y541D01*
X1350Y545D01*
X1352Y545D01*
X1352Y565D01*
X1354Y565D01*
X1354Y583D01*
X1356Y583D01*
X1356Y601D01*
X1358Y601D01*
X1358Y619D01*
X1360Y619D01*
X1360Y637D01*
X1362Y637D01*
X1362Y655D01*
X1364Y655D01*
X1364Y675D01*
X1366Y675D01*
X1366Y693D01*
X1368Y693D01*
X1368Y711D01*
X1370Y711D01*
X1370Y729D01*
X1372Y729D01*
X1372Y747D01*
X1374Y747D01*
X1374Y765D01*
X1376Y765D01*
X1376Y785D01*
X1378Y785D01*
X1378Y803D01*
X1380Y803D01*
X1380Y821D01*
X1382Y821D01*
X1382Y839D01*
X1384Y839D01*
X1384Y857D01*
X1386Y857D01*
X1386Y875D01*
X1388Y875D01*
X1388Y893D01*
X1390Y893D01*
X1390Y913D01*
X1392Y913D01*
X1392Y927D01*
X1394Y927D01*
X1394Y933D01*
X1396Y933D01*
X1396Y935D01*
X1398Y935D01*
X1398Y937D01*
X1400Y937D01*
X1400Y939D01*
X1402Y939D01*
X1402Y941D01*
X1404Y941D01*
X1404Y943D01*
X1406Y943D01*
X1406Y945D01*
X1408Y945D01*
X1408Y947D01*
X1410Y947D01*
X1410Y949D01*
X1414Y949D01*
X1414Y951D01*
X1416Y951D01*
X1416Y953D01*
X1418Y953D01*
X1418Y955D01*
X1420Y955D01*
X1420Y957D01*
X1422Y957D01*
X1422Y959D01*
X1426Y959D01*
X1426Y961D01*
X1428Y961D01*
X1428Y963D01*
X1430Y963D01*
X1430Y965D01*
X1432Y965D01*
X1432Y967D01*
X1434Y967D01*
X1434Y969D01*
X1438Y969D01*
X1438Y985D01*
X1440Y985D01*
X1440Y993D01*
X1442Y993D01*
X1442Y999D01*
X1444Y999D01*
X1444Y1003D01*
X1446Y1003D01*
X1446Y1007D01*
X1448Y1007D01*
X1448Y1009D01*
X1450Y1009D01*
X1450Y1011D01*
X1452Y1011D01*
X1452Y1013D01*
X1454Y1013D01*
X1454Y1015D01*
X1456Y1015D01*
X1456Y1017D01*
X1460Y1017D01*
X1460Y1019D01*
X1464Y1019D01*
X1464Y1041D01*
X1444Y1041D01*
G37*
D02*
G36*
X1186Y697D02*
X1186Y677D01*
X1206Y677D01*
X1206Y679D01*
X1210Y679D01*
X1210Y681D01*
X1212Y681D01*
X1212Y683D01*
X1214Y683D01*
X1214Y685D01*
X1218Y685D01*
X1218Y687D01*
X1222Y687D01*
X1222Y689D01*
X1226Y689D01*
X1226Y691D01*
X1230Y691D01*
X1230Y693D01*
X1236Y693D01*
X1236Y695D01*
X1246Y695D01*
X1246Y697D01*
X1186Y697D01*
G37*
D02*
G36*
X1186Y559D02*
X1186Y539D01*
X1246Y539D01*
X1246Y541D01*
X1236Y541D01*
X1236Y543D01*
X1230Y543D01*
X1230Y545D01*
X1226Y545D01*
X1226Y547D01*
X1222Y547D01*
X1222Y549D01*
X1218Y549D01*
X1218Y551D01*
X1214Y551D01*
X1214Y553D01*
X1212Y553D01*
X1212Y555D01*
X1210Y555D01*
X1210Y557D01*
X1206Y557D01*
X1206Y559D01*
X1186Y559D01*
G37*
D02*
G36*
X1186Y539D02*
X1186Y537D01*
X1344Y537D01*
X1344Y539D01*
X1186Y539D01*
G37*
D02*
G36*
X1186Y539D02*
X1186Y537D01*
X1344Y537D01*
X1344Y539D01*
X1186Y539D01*
G37*
D02*
G36*
X1186Y537D02*
X1186Y201D01*
X1208Y201D01*
X1208Y203D01*
X1210Y203D01*
X1210Y205D01*
X1212Y205D01*
X1212Y239D01*
X1214Y239D01*
X1214Y329D01*
X1216Y329D01*
X1216Y419D01*
X1218Y419D01*
X1218Y451D01*
X1220Y451D01*
X1220Y455D01*
X1222Y455D01*
X1222Y459D01*
X1224Y459D01*
X1224Y461D01*
X1228Y461D01*
X1228Y463D01*
X1230Y463D01*
X1230Y465D01*
X1234Y465D01*
X1234Y467D01*
X1236Y467D01*
X1236Y469D01*
X1240Y469D01*
X1240Y471D01*
X1242Y471D01*
X1242Y473D01*
X1246Y473D01*
X1246Y475D01*
X1248Y475D01*
X1248Y477D01*
X1252Y477D01*
X1252Y479D01*
X1256Y479D01*
X1256Y481D01*
X1258Y481D01*
X1258Y483D01*
X1262Y483D01*
X1262Y485D01*
X1264Y485D01*
X1264Y487D01*
X1268Y487D01*
X1268Y489D01*
X1270Y489D01*
X1270Y491D01*
X1274Y491D01*
X1274Y493D01*
X1276Y493D01*
X1276Y495D01*
X1280Y495D01*
X1280Y497D01*
X1282Y497D01*
X1282Y499D01*
X1286Y499D01*
X1286Y501D01*
X1290Y501D01*
X1290Y503D01*
X1292Y503D01*
X1292Y505D01*
X1296Y505D01*
X1296Y507D01*
X1298Y507D01*
X1298Y509D01*
X1302Y509D01*
X1302Y511D01*
X1304Y511D01*
X1304Y513D01*
X1308Y513D01*
X1308Y515D01*
X1310Y515D01*
X1310Y517D01*
X1314Y517D01*
X1314Y519D01*
X1318Y519D01*
X1318Y521D01*
X1320Y521D01*
X1320Y523D01*
X1324Y523D01*
X1324Y525D01*
X1326Y525D01*
X1326Y527D01*
X1330Y527D01*
X1330Y529D01*
X1332Y529D01*
X1332Y531D01*
X1336Y531D01*
X1336Y533D01*
X1338Y533D01*
X1338Y535D01*
X1342Y535D01*
X1342Y537D01*
X1186Y537D01*
G37*
D02*
G36*
X3410Y1535D02*
X3410Y1515D01*
X3412Y1515D01*
X3412Y1511D01*
X3414Y1511D01*
X3414Y1509D01*
X3416Y1509D01*
X3416Y1507D01*
X3418Y1507D01*
X3418Y1503D01*
X3420Y1503D01*
X3420Y1499D01*
X3422Y1499D01*
X3422Y1491D01*
X3424Y1491D01*
X3424Y1469D01*
X3422Y1469D01*
X3422Y1461D01*
X3420Y1461D01*
X3420Y1457D01*
X3418Y1457D01*
X3418Y1453D01*
X3416Y1453D01*
X3416Y1451D01*
X3414Y1451D01*
X3414Y1449D01*
X3412Y1449D01*
X3412Y1445D01*
X3410Y1445D01*
X3410Y1443D01*
X3408Y1443D01*
X3408Y1441D01*
X3404Y1441D01*
X3404Y1439D01*
X3402Y1439D01*
X3402Y1437D01*
X3400Y1437D01*
X3400Y1435D01*
X3396Y1435D01*
X3396Y1433D01*
X3392Y1433D01*
X3392Y1431D01*
X3386Y1431D01*
X3386Y1429D01*
X3502Y1429D01*
X3502Y1535D01*
X3410Y1535D01*
G37*
D02*
G36*
X3112Y1449D02*
X3112Y1445D01*
X3110Y1445D01*
X3110Y1443D01*
X3108Y1443D01*
X3108Y1441D01*
X3104Y1441D01*
X3104Y1439D01*
X3102Y1439D01*
X3102Y1437D01*
X3100Y1437D01*
X3100Y1435D01*
X3096Y1435D01*
X3096Y1433D01*
X3092Y1433D01*
X3092Y1429D01*
X3160Y1429D01*
X3160Y1431D01*
X3154Y1431D01*
X3154Y1433D01*
X3150Y1433D01*
X3150Y1435D01*
X3146Y1435D01*
X3146Y1437D01*
X3142Y1437D01*
X3142Y1439D01*
X3140Y1439D01*
X3140Y1441D01*
X3138Y1441D01*
X3138Y1443D01*
X3136Y1443D01*
X3136Y1445D01*
X3134Y1445D01*
X3134Y1447D01*
X3132Y1447D01*
X3132Y1449D01*
X3112Y1449D01*
G37*
D02*
G36*
X3212Y1449D02*
X3212Y1445D01*
X3210Y1445D01*
X3210Y1443D01*
X3208Y1443D01*
X3208Y1441D01*
X3204Y1441D01*
X3204Y1439D01*
X3202Y1439D01*
X3202Y1437D01*
X3200Y1437D01*
X3200Y1435D01*
X3196Y1435D01*
X3196Y1433D01*
X3192Y1433D01*
X3192Y1431D01*
X3186Y1431D01*
X3186Y1429D01*
X3260Y1429D01*
X3260Y1431D01*
X3254Y1431D01*
X3254Y1433D01*
X3250Y1433D01*
X3250Y1435D01*
X3246Y1435D01*
X3246Y1437D01*
X3242Y1437D01*
X3242Y1439D01*
X3240Y1439D01*
X3240Y1441D01*
X3238Y1441D01*
X3238Y1443D01*
X3236Y1443D01*
X3236Y1445D01*
X3234Y1445D01*
X3234Y1447D01*
X3232Y1447D01*
X3232Y1449D01*
X3212Y1449D01*
G37*
D02*
G36*
X3312Y1449D02*
X3312Y1445D01*
X3310Y1445D01*
X3310Y1443D01*
X3308Y1443D01*
X3308Y1441D01*
X3304Y1441D01*
X3304Y1439D01*
X3302Y1439D01*
X3302Y1437D01*
X3300Y1437D01*
X3300Y1435D01*
X3296Y1435D01*
X3296Y1433D01*
X3292Y1433D01*
X3292Y1431D01*
X3286Y1431D01*
X3286Y1429D01*
X3360Y1429D01*
X3360Y1431D01*
X3354Y1431D01*
X3354Y1433D01*
X3350Y1433D01*
X3350Y1435D01*
X3346Y1435D01*
X3346Y1437D01*
X3342Y1437D01*
X3342Y1439D01*
X3340Y1439D01*
X3340Y1441D01*
X3338Y1441D01*
X3338Y1443D01*
X3336Y1443D01*
X3336Y1445D01*
X3334Y1445D01*
X3334Y1447D01*
X3332Y1447D01*
X3332Y1449D01*
X3312Y1449D01*
G37*
D02*
G36*
X3092Y1429D02*
X3092Y1427D01*
X3502Y1427D01*
X3502Y1429D01*
X3092Y1429D01*
G37*
D02*
G36*
X3092Y1429D02*
X3092Y1427D01*
X3502Y1427D01*
X3502Y1429D01*
X3092Y1429D01*
G37*
D02*
G36*
X3092Y1429D02*
X3092Y1427D01*
X3502Y1427D01*
X3502Y1429D01*
X3092Y1429D01*
G37*
D02*
G36*
X3092Y1429D02*
X3092Y1427D01*
X3502Y1427D01*
X3502Y1429D01*
X3092Y1429D01*
G37*
D02*
G36*
X3092Y1427D02*
X3092Y1423D01*
X3090Y1423D01*
X3090Y1391D01*
X3088Y1391D01*
X3088Y1361D01*
X3086Y1361D01*
X3086Y1331D01*
X3084Y1331D01*
X3084Y1301D01*
X3082Y1301D01*
X3082Y1295D01*
X3080Y1295D01*
X3080Y1291D01*
X3078Y1291D01*
X3078Y1289D01*
X3076Y1289D01*
X3076Y1287D01*
X3074Y1287D01*
X3074Y1285D01*
X3070Y1285D01*
X3070Y1283D01*
X3066Y1283D01*
X3066Y1281D01*
X3062Y1281D01*
X3062Y1279D01*
X3058Y1279D01*
X3058Y1277D01*
X3054Y1277D01*
X3054Y1275D01*
X3052Y1275D01*
X3052Y1273D01*
X3048Y1273D01*
X3048Y1271D01*
X3044Y1271D01*
X3044Y1269D01*
X3040Y1269D01*
X3040Y1267D01*
X3036Y1267D01*
X3036Y1265D01*
X3032Y1265D01*
X3032Y1263D01*
X3028Y1263D01*
X3028Y1261D01*
X3024Y1261D01*
X3024Y1259D01*
X3020Y1259D01*
X3020Y1257D01*
X3016Y1257D01*
X3016Y1255D01*
X3014Y1255D01*
X3014Y1253D01*
X3010Y1253D01*
X3010Y1251D01*
X3006Y1251D01*
X3006Y1249D01*
X3002Y1249D01*
X3002Y1247D01*
X2998Y1247D01*
X2998Y1245D01*
X2994Y1245D01*
X2994Y1243D01*
X2990Y1243D01*
X2990Y1241D01*
X2986Y1241D01*
X2986Y1239D01*
X2982Y1239D01*
X2982Y1237D01*
X2978Y1237D01*
X2978Y1235D01*
X2976Y1235D01*
X2976Y1233D01*
X2972Y1233D01*
X2972Y1231D01*
X2968Y1231D01*
X2968Y1229D01*
X2964Y1229D01*
X2964Y1227D01*
X2960Y1227D01*
X2960Y1225D01*
X2956Y1225D01*
X2956Y1223D01*
X2952Y1223D01*
X2952Y1221D01*
X2948Y1221D01*
X2948Y1219D01*
X2944Y1219D01*
X2944Y1217D01*
X2940Y1217D01*
X2940Y1215D01*
X2936Y1215D01*
X2936Y1213D01*
X2934Y1213D01*
X2934Y1143D01*
X2932Y1143D01*
X2932Y887D01*
X3344Y887D01*
X3344Y885D01*
X3354Y885D01*
X3354Y883D01*
X3362Y883D01*
X3362Y881D01*
X3368Y881D01*
X3368Y879D01*
X3372Y879D01*
X3372Y877D01*
X3376Y877D01*
X3376Y875D01*
X3380Y875D01*
X3380Y873D01*
X3384Y873D01*
X3384Y871D01*
X3386Y871D01*
X3386Y869D01*
X3390Y869D01*
X3390Y867D01*
X3392Y867D01*
X3392Y865D01*
X3396Y865D01*
X3396Y863D01*
X3398Y863D01*
X3398Y861D01*
X3400Y861D01*
X3400Y859D01*
X3402Y859D01*
X3402Y857D01*
X3406Y857D01*
X3406Y855D01*
X3408Y855D01*
X3408Y851D01*
X3410Y851D01*
X3410Y849D01*
X3412Y849D01*
X3412Y847D01*
X3414Y847D01*
X3414Y845D01*
X3416Y845D01*
X3416Y843D01*
X3418Y843D01*
X3418Y839D01*
X3420Y839D01*
X3420Y837D01*
X3422Y837D01*
X3422Y833D01*
X3424Y833D01*
X3424Y831D01*
X3426Y831D01*
X3426Y827D01*
X3428Y827D01*
X3428Y823D01*
X3430Y823D01*
X3430Y819D01*
X3432Y819D01*
X3432Y813D01*
X3434Y813D01*
X3434Y807D01*
X3436Y807D01*
X3436Y799D01*
X3438Y799D01*
X3438Y785D01*
X3440Y785D01*
X3440Y765D01*
X3438Y765D01*
X3438Y751D01*
X3436Y751D01*
X3436Y743D01*
X3434Y743D01*
X3434Y737D01*
X3432Y737D01*
X3432Y733D01*
X3430Y733D01*
X3430Y727D01*
X3428Y727D01*
X3428Y723D01*
X3426Y723D01*
X3426Y721D01*
X3424Y721D01*
X3424Y717D01*
X3422Y717D01*
X3422Y713D01*
X3420Y713D01*
X3420Y711D01*
X3418Y711D01*
X3418Y707D01*
X3416Y707D01*
X3416Y705D01*
X3414Y705D01*
X3414Y703D01*
X3412Y703D01*
X3412Y701D01*
X3410Y701D01*
X3410Y699D01*
X3408Y699D01*
X3408Y695D01*
X3404Y695D01*
X3404Y693D01*
X3402Y693D01*
X3402Y691D01*
X3400Y691D01*
X3400Y689D01*
X3398Y689D01*
X3398Y687D01*
X3396Y687D01*
X3396Y685D01*
X3392Y685D01*
X3392Y683D01*
X3390Y683D01*
X3390Y681D01*
X3386Y681D01*
X3386Y679D01*
X3384Y679D01*
X3384Y677D01*
X3380Y677D01*
X3380Y675D01*
X3376Y675D01*
X3376Y673D01*
X3372Y673D01*
X3372Y671D01*
X3366Y671D01*
X3366Y669D01*
X3362Y669D01*
X3362Y667D01*
X3354Y667D01*
X3354Y665D01*
X3342Y665D01*
X3342Y663D01*
X3502Y663D01*
X3502Y1427D01*
X3092Y1427D01*
G37*
D02*
G36*
X2932Y887D02*
X2932Y837D01*
X2930Y837D01*
X2930Y663D01*
X3312Y663D01*
X3312Y665D01*
X3302Y665D01*
X3302Y667D01*
X3294Y667D01*
X3294Y669D01*
X3288Y669D01*
X3288Y671D01*
X3282Y671D01*
X3282Y673D01*
X3278Y673D01*
X3278Y675D01*
X3274Y675D01*
X3274Y677D01*
X3270Y677D01*
X3270Y679D01*
X3268Y679D01*
X3268Y681D01*
X3264Y681D01*
X3264Y683D01*
X3262Y683D01*
X3262Y685D01*
X3260Y685D01*
X3260Y687D01*
X3256Y687D01*
X3256Y689D01*
X3254Y689D01*
X3254Y691D01*
X3252Y691D01*
X3252Y693D01*
X3250Y693D01*
X3250Y695D01*
X3248Y695D01*
X3248Y697D01*
X3246Y697D01*
X3246Y699D01*
X3244Y699D01*
X3244Y701D01*
X3242Y701D01*
X3242Y703D01*
X3240Y703D01*
X3240Y705D01*
X3238Y705D01*
X3238Y709D01*
X3236Y709D01*
X3236Y711D01*
X3234Y711D01*
X3234Y715D01*
X3232Y715D01*
X3232Y717D01*
X3230Y717D01*
X3230Y721D01*
X3228Y721D01*
X3228Y725D01*
X3226Y725D01*
X3226Y729D01*
X3224Y729D01*
X3224Y733D01*
X3222Y733D01*
X3222Y739D01*
X3220Y739D01*
X3220Y745D01*
X3218Y745D01*
X3218Y755D01*
X3216Y755D01*
X3216Y773D01*
X3214Y773D01*
X3214Y777D01*
X3216Y777D01*
X3216Y795D01*
X3218Y795D01*
X3218Y805D01*
X3220Y805D01*
X3220Y811D01*
X3222Y811D01*
X3222Y817D01*
X3224Y817D01*
X3224Y821D01*
X3226Y821D01*
X3226Y825D01*
X3228Y825D01*
X3228Y829D01*
X3230Y829D01*
X3230Y833D01*
X3232Y833D01*
X3232Y835D01*
X3234Y835D01*
X3234Y839D01*
X3236Y839D01*
X3236Y841D01*
X3238Y841D01*
X3238Y845D01*
X3240Y845D01*
X3240Y847D01*
X3242Y847D01*
X3242Y849D01*
X3244Y849D01*
X3244Y851D01*
X3246Y851D01*
X3246Y853D01*
X3248Y853D01*
X3248Y855D01*
X3250Y855D01*
X3250Y857D01*
X3252Y857D01*
X3252Y859D01*
X3254Y859D01*
X3254Y861D01*
X3256Y861D01*
X3256Y863D01*
X3258Y863D01*
X3258Y865D01*
X3262Y865D01*
X3262Y867D01*
X3264Y867D01*
X3264Y869D01*
X3268Y869D01*
X3268Y871D01*
X3270Y871D01*
X3270Y873D01*
X3274Y873D01*
X3274Y875D01*
X3278Y875D01*
X3278Y877D01*
X3282Y877D01*
X3282Y879D01*
X3288Y879D01*
X3288Y881D01*
X3292Y881D01*
X3292Y883D01*
X3300Y883D01*
X3300Y885D01*
X3310Y885D01*
X3310Y887D01*
X2932Y887D01*
G37*
D02*
G36*
X2930Y663D02*
X2930Y661D01*
X3502Y661D01*
X3502Y663D01*
X2930Y663D01*
G37*
D02*
G36*
X2930Y663D02*
X2930Y661D01*
X3502Y661D01*
X3502Y663D01*
X2930Y663D01*
G37*
D02*
G36*
X2930Y661D02*
X2930Y529D01*
X2928Y529D01*
X2928Y331D01*
X2926Y331D01*
X2926Y327D01*
X2924Y327D01*
X2924Y323D01*
X2922Y323D01*
X2922Y321D01*
X2920Y321D01*
X2920Y319D01*
X2916Y319D01*
X2916Y317D01*
X2914Y317D01*
X2914Y315D01*
X2912Y315D01*
X2912Y313D01*
X2910Y313D01*
X2910Y311D01*
X2906Y311D01*
X2906Y309D01*
X2904Y309D01*
X2904Y307D01*
X2902Y307D01*
X2902Y305D01*
X2900Y305D01*
X2900Y303D01*
X2896Y303D01*
X2896Y301D01*
X2894Y301D01*
X2894Y299D01*
X2892Y299D01*
X2892Y297D01*
X2888Y297D01*
X2888Y295D01*
X2886Y295D01*
X2886Y293D01*
X2884Y293D01*
X2884Y291D01*
X2882Y291D01*
X2882Y289D01*
X2878Y289D01*
X2878Y287D01*
X2876Y287D01*
X2876Y285D01*
X2874Y285D01*
X2874Y283D01*
X2872Y283D01*
X2872Y281D01*
X2868Y281D01*
X2868Y279D01*
X2866Y279D01*
X2866Y277D01*
X2864Y277D01*
X2864Y275D01*
X2860Y275D01*
X2860Y273D01*
X2858Y273D01*
X2858Y271D01*
X2856Y271D01*
X2856Y269D01*
X2854Y269D01*
X2854Y267D01*
X2850Y267D01*
X2850Y265D01*
X2848Y265D01*
X2848Y263D01*
X2846Y263D01*
X2846Y261D01*
X2844Y261D01*
X2844Y259D01*
X2840Y259D01*
X2840Y257D01*
X2838Y257D01*
X2838Y255D01*
X2836Y255D01*
X2836Y253D01*
X2832Y253D01*
X2832Y251D01*
X2830Y251D01*
X2830Y249D01*
X2828Y249D01*
X2828Y247D01*
X2826Y247D01*
X2826Y245D01*
X2822Y245D01*
X2822Y243D01*
X2820Y243D01*
X2820Y241D01*
X2818Y241D01*
X2818Y239D01*
X2814Y239D01*
X2814Y237D01*
X2812Y237D01*
X2812Y235D01*
X2810Y235D01*
X2810Y233D01*
X2808Y233D01*
X2808Y231D01*
X2804Y231D01*
X2804Y229D01*
X2802Y229D01*
X2802Y227D01*
X2800Y227D01*
X2800Y225D01*
X2798Y225D01*
X2798Y223D01*
X2794Y223D01*
X2794Y221D01*
X2792Y221D01*
X2792Y219D01*
X2790Y219D01*
X2790Y217D01*
X2786Y217D01*
X2786Y215D01*
X2784Y215D01*
X2784Y213D01*
X2782Y213D01*
X2782Y211D01*
X2780Y211D01*
X2780Y209D01*
X2776Y209D01*
X2776Y207D01*
X2774Y207D01*
X2774Y205D01*
X2772Y205D01*
X2772Y203D01*
X2770Y203D01*
X2770Y201D01*
X2766Y201D01*
X2766Y199D01*
X2764Y199D01*
X2764Y197D01*
X2762Y197D01*
X2762Y195D01*
X2758Y195D01*
X2758Y193D01*
X2756Y193D01*
X2756Y191D01*
X2978Y191D01*
X2978Y189D01*
X2986Y189D01*
X2986Y187D01*
X2990Y187D01*
X2990Y185D01*
X2994Y185D01*
X2994Y183D01*
X2998Y183D01*
X2998Y181D01*
X3000Y181D01*
X3000Y179D01*
X3004Y179D01*
X3004Y177D01*
X3006Y177D01*
X3006Y175D01*
X3008Y175D01*
X3008Y171D01*
X3010Y171D01*
X3010Y169D01*
X3012Y169D01*
X3012Y167D01*
X3014Y167D01*
X3014Y163D01*
X3016Y163D01*
X3016Y159D01*
X3018Y159D01*
X3018Y153D01*
X3020Y153D01*
X3020Y127D01*
X3018Y127D01*
X3018Y119D01*
X3016Y119D01*
X3016Y117D01*
X3014Y117D01*
X3014Y113D01*
X3012Y113D01*
X3012Y109D01*
X3010Y109D01*
X3010Y107D01*
X3008Y107D01*
X3008Y105D01*
X3006Y105D01*
X3006Y103D01*
X3004Y103D01*
X3004Y101D01*
X3002Y101D01*
X3002Y99D01*
X3000Y99D01*
X3000Y97D01*
X2996Y97D01*
X2996Y95D01*
X2994Y95D01*
X2994Y93D01*
X2990Y93D01*
X2990Y91D01*
X2984Y91D01*
X2984Y89D01*
X2974Y89D01*
X2974Y87D01*
X3502Y87D01*
X3502Y661D01*
X2930Y661D01*
G37*
D02*
G36*
X2754Y191D02*
X2754Y189D01*
X2752Y189D01*
X2752Y187D01*
X2748Y187D01*
X2748Y185D01*
X2746Y185D01*
X2746Y183D01*
X2744Y183D01*
X2744Y181D01*
X2740Y181D01*
X2740Y179D01*
X2738Y179D01*
X2738Y177D01*
X2736Y177D01*
X2736Y175D01*
X2734Y175D01*
X2734Y173D01*
X2730Y173D01*
X2730Y171D01*
X2728Y171D01*
X2728Y169D01*
X2726Y169D01*
X2726Y167D01*
X2724Y167D01*
X2724Y165D01*
X2720Y165D01*
X2720Y163D01*
X2718Y163D01*
X2718Y161D01*
X2716Y161D01*
X2716Y159D01*
X2712Y159D01*
X2712Y157D01*
X2710Y157D01*
X2710Y155D01*
X2708Y155D01*
X2708Y153D01*
X2706Y153D01*
X2706Y129D01*
X2704Y129D01*
X2704Y123D01*
X2702Y123D01*
X2702Y117D01*
X2700Y117D01*
X2700Y115D01*
X2698Y115D01*
X2698Y111D01*
X2696Y111D01*
X2696Y109D01*
X2694Y109D01*
X2694Y105D01*
X2692Y105D01*
X2692Y103D01*
X2690Y103D01*
X2690Y83D01*
X2786Y83D01*
X2786Y85D01*
X2788Y85D01*
X2788Y87D01*
X2790Y87D01*
X2790Y89D01*
X2792Y89D01*
X2792Y91D01*
X2794Y91D01*
X2794Y93D01*
X2796Y93D01*
X2796Y97D01*
X2798Y97D01*
X2798Y99D01*
X2800Y99D01*
X2800Y101D01*
X2802Y101D01*
X2802Y103D01*
X2804Y103D01*
X2804Y105D01*
X2806Y105D01*
X2806Y107D01*
X2808Y107D01*
X2808Y109D01*
X2810Y109D01*
X2810Y111D01*
X2812Y111D01*
X2812Y113D01*
X2814Y113D01*
X2814Y115D01*
X2816Y115D01*
X2816Y117D01*
X2818Y117D01*
X2818Y179D01*
X2820Y179D01*
X2820Y183D01*
X2822Y183D01*
X2822Y185D01*
X2824Y185D01*
X2824Y187D01*
X2828Y187D01*
X2828Y189D01*
X2832Y189D01*
X2832Y191D01*
X2754Y191D01*
G37*
D02*
G36*
X2906Y191D02*
X2906Y189D01*
X2912Y189D01*
X2912Y187D01*
X2914Y187D01*
X2914Y185D01*
X2916Y185D01*
X2916Y183D01*
X2918Y183D01*
X2918Y179D01*
X2938Y179D01*
X2938Y181D01*
X2940Y181D01*
X2940Y183D01*
X2944Y183D01*
X2944Y185D01*
X2948Y185D01*
X2948Y187D01*
X2952Y187D01*
X2952Y189D01*
X2960Y189D01*
X2960Y191D01*
X2906Y191D01*
G37*
D02*
G36*
X2918Y99D02*
X2918Y97D01*
X2916Y97D01*
X2916Y93D01*
X2914Y93D01*
X2914Y91D01*
X2910Y91D01*
X2910Y89D01*
X2904Y89D01*
X2904Y87D01*
X2964Y87D01*
X2964Y89D01*
X2954Y89D01*
X2954Y91D01*
X2948Y91D01*
X2948Y93D01*
X2944Y93D01*
X2944Y95D01*
X2942Y95D01*
X2942Y97D01*
X2938Y97D01*
X2938Y99D01*
X2918Y99D01*
G37*
D02*
G36*
X2848Y87D02*
X2848Y85D01*
X3502Y85D01*
X3502Y87D01*
X2848Y87D01*
G37*
D02*
G36*
X2848Y87D02*
X2848Y85D01*
X3502Y85D01*
X3502Y87D01*
X2848Y87D01*
G37*
D02*
G36*
X2846Y85D02*
X2846Y83D01*
X2844Y83D01*
X2844Y81D01*
X2842Y81D01*
X2842Y79D01*
X2840Y79D01*
X2840Y77D01*
X2838Y77D01*
X2838Y75D01*
X2836Y75D01*
X2836Y73D01*
X2834Y73D01*
X2834Y69D01*
X2832Y69D01*
X2832Y67D01*
X2830Y67D01*
X2830Y65D01*
X2828Y65D01*
X2828Y63D01*
X2826Y63D01*
X2826Y61D01*
X2824Y61D01*
X2824Y41D01*
X3502Y41D01*
X3502Y85D01*
X2846Y85D01*
G37*
D02*
G04 End of Copper1*
M02*