G04 MADE WITH FRITZING*
G04 WWW.FRITZING.ORG*
G04 DOUBLE SIDED*
G04 HOLES PLATED*
G04 CONTOUR ON CENTER OF CONTOUR VECTOR*
%ASAXBY*%
%FSLAX23Y23*%
%MOIN*%
%OFA0B0*%
%SFA1.0B1.0*%
%ADD10C,0.135984*%
%ADD11C,0.096000*%
%ADD12C,0.080000*%
%ADD13C,0.049370*%
%ADD14C,0.108425*%
%ADD15C,0.093307*%
%ADD16C,0.148425*%
%ADD17C,0.076000*%
%ADD18C,0.088000*%
%ADD19C,0.085000*%
%ADD20C,0.147795*%
%ADD21C,0.214725*%
%ADD22R,0.080000X0.080000*%
%ADD23R,0.093307X0.093307*%
%ADD24R,0.088000X0.088000*%
%ADD25R,0.085000X0.085000*%
%LNMASK0*%
G90*
G70*
G54D10*
X2149Y645D03*
G54D11*
X2118Y1112D03*
X2118Y974D03*
G54D12*
X1484Y1280D03*
G54D10*
X1474Y1445D03*
G54D12*
X1484Y1180D03*
X1484Y1080D03*
X1484Y980D03*
X1484Y880D03*
X1484Y780D03*
G54D10*
X1474Y645D03*
X2149Y1445D03*
G54D13*
X2340Y1395D03*
X2196Y1035D03*
X1740Y1011D03*
X2004Y1395D03*
X1548Y363D03*
X1332Y435D03*
X1092Y387D03*
G54D14*
X809Y616D03*
X1258Y618D03*
X1473Y644D03*
X2150Y645D03*
X1473Y1445D03*
X2149Y1445D03*
G54D15*
X2373Y1480D03*
X2473Y1480D03*
X2573Y1480D03*
X2673Y1480D03*
X2773Y1480D03*
X2873Y1480D03*
X2973Y1480D03*
X3073Y1480D03*
X3173Y1480D03*
X3273Y1480D03*
X3373Y1480D03*
X2869Y139D03*
X2969Y139D03*
X2455Y140D03*
X2555Y140D03*
X2655Y140D03*
X2140Y140D03*
X2240Y140D03*
X1823Y140D03*
X1923Y140D03*
G54D16*
X808Y618D03*
G54D17*
X833Y168D03*
X933Y168D03*
X1033Y168D03*
X1133Y168D03*
G54D16*
X1258Y618D03*
G54D17*
X1233Y168D03*
G54D18*
X327Y148D03*
X427Y148D03*
X527Y148D03*
X1136Y1458D03*
X1036Y1458D03*
X936Y1458D03*
G54D19*
X1448Y212D03*
X1548Y212D03*
G54D20*
X1254Y978D03*
X591Y1101D03*
G54D21*
X217Y775D03*
X3327Y775D03*
G54D20*
X811Y977D03*
X292Y1099D03*
G54D22*
X1484Y1280D03*
G54D23*
X2869Y139D03*
X2455Y140D03*
X2140Y140D03*
X1823Y140D03*
G54D24*
X936Y1458D03*
G54D25*
X1448Y212D03*
G04 End of Mask0*
M02*