; NON-PLATED HOLES START AT T1
; THROUGH (PLATED) HOLES START AT T100
M48
INCH
T1C0.098425
T100C0.015748
T101C0.043307
T102C0.039370
T103C0.098425
T104C0.038000
T105C0.035000
T106C0.125984
%
T1
X021498Y006446
X008088Y006163
X014728Y006441
X014734Y014453
X021492Y014454
X012575Y006175
T100
X014040Y004828
X023160Y006508
X020520Y012028
X019800Y012988
X020280Y014428
X022920Y013468
X019800Y009628
X014040Y003147
T101
X024727Y014797
X015279Y001603
X029727Y014797
X033727Y014797
X018778Y001605
X025851Y001633
X023851Y001633
X029821Y001633
X022354Y001623
X017778Y001605
X024851Y001633
X016279Y001603
X032727Y014797
X031727Y014797
X028371Y001612
X030821Y001633
X027371Y001612
X026727Y014797
X027727Y014797
X028727Y014797
X023727Y014797
X030727Y014797
X025727Y014797
X021354Y001623
T102
X014836Y011099
X012334Y001677
X009334Y001677
X014836Y009099
X021177Y011158
X010334Y001677
X008334Y001677
X011334Y001677
X014836Y013099
X014836Y008099
X014836Y012099
X021177Y009780
X014836Y010099
T103
X014736Y014449
X012584Y006177
X012544Y009781
X021492Y014449
X027394Y007304
X008105Y009766
X014736Y006449
X005800Y011007
X021492Y006449
X030344Y007325
X003138Y010992
X008084Y006177
T104
X010248Y014580
X003382Y001477
X009248Y014580
X011252Y014580
X004379Y001477
X005379Y001477
T105
X033578Y003971
X032578Y003971
T106
X002169Y007748
X033272Y007748
T00
M30
