; NON-PLATED HOLES START AT T1
; THROUGH (PLATED) HOLES START AT T100
M48
INCH
T1C0.098425
T100C0.039370
T101C0.015748
T102C0.038000
T103C0.043307
T104C0.125984
T105C0.098425
T106C0.035000
%
T1
X012575Y006175
X014728Y006441
X021498Y006446
X014734Y014453
X008088Y006163
X021492Y014454
T100
X012334Y001677
X021177Y011158
X014836Y011099
X009334Y001677
X014836Y012099
X021177Y009780
X010334Y001677
X014836Y010099
X014836Y008099
X011334Y001677
X014836Y009099
X014836Y013099
X008334Y001677
T101
X020520Y012028
X020280Y014428
X022920Y013468
X014040Y004828
X023160Y006508
X019800Y009628
X014040Y003147
X019800Y012988
T102
X011252Y014580
X005379Y001477
X004379Y001477
X009248Y014580
X003382Y001477
X010248Y014580
T103
X026727Y014797
X027371Y001612
X029727Y014797
X025851Y001633
X017778Y001605
X024727Y014797
X030821Y001633
X028371Y001612
X018778Y001605
X032727Y014797
X016279Y001603
X023727Y014797
X031727Y014797
X025727Y014797
X030727Y014797
X023851Y001633
X021354Y001623
X015279Y001603
X024851Y001633
X022354Y001623
X033727Y014797
X027727Y014797
X028727Y014797
X029821Y001633
T104
X033272Y007748
X002169Y007748
T105
X014736Y014449
X027394Y007304
X021492Y014449
X012584Y006177
X021492Y006449
X012544Y009781
X014736Y006449
X003138Y010992
X008105Y009766
X008084Y006177
X030344Y007304
X005800Y011007
T106
X033510Y003948
X032510Y003948
T00
M30
